<svg fill="none" height="158" viewBox="0 0 1001 158" width="1001" xmlns="http://www.w3.org/2000/svg"><g fill="#04293e"><path d="m269.656 121.848c-7.934 0-15.091-1.897-21.386-5.605-6.295-3.795-11.297-8.882-14.918-15.436-3.622-6.4677-5.519-13.7975-5.519-21.9896 0-8.2784 1.897-15.6083 5.691-22.162 3.794-6.4675 8.882-11.6415 15.436-15.4357 6.467-3.7943 13.797-5.6052 21.989-5.6052 8.106 0 15.436 1.8971 21.904 5.6052 6.467 3.7942 11.555 8.882 15.349 15.4357 3.794 6.4675 5.692 13.8836 5.778 22.162l-4.829 3.708c0 7.416-1.725 14.1422-5.174 20.0066-3.45 5.95-8.192 10.606-14.056 14.056-6.037 3.535-12.763 5.26-20.265 5.26zm1.207-10.866c5.95 0 11.297-1.379 16.04-4.139 4.656-2.759 8.364-6.64 11.124-11.5551 2.759-4.9153 4.139-10.4342 4.139-16.4705 0-6.2088-1.38-11.7278-4.139-16.5568-2.76-4.8291-6.468-8.7096-11.124-11.5553-4.657-2.8457-10.003-4.2254-16.04-4.2254-5.864 0-11.21 1.3797-15.953 4.2254s-8.537 6.64-11.297 11.5553c-2.759 4.829-4.139 10.348-4.139 16.5568 0 6.1225 1.38 11.5552 4.139 16.4705 2.76 4.9151 6.554 8.7091 11.297 11.5551 4.829 2.76 10.089 4.139 15.953 4.139zm36.994 10.09c-1.724 0-3.19-.518-4.311-1.639s-1.725-2.501-1.725-4.225v-26.4738l2.932-12.2451 9.141 2.3283v36.3906c0 1.724-.604 3.19-1.725 4.225-1.121 1.121-2.501 1.639-4.312 1.639z"/><path d="m332.692 121.071c-1.897 0-3.363-.517-4.398-1.638-1.121-1.121-1.638-2.501-1.638-4.225v-72.7813c0-1.8972.517-3.3631 1.638-4.3979 1.121-1.1211 2.587-1.6385 4.398-1.6385 1.725 0 3.191.5174 4.226 1.6385 1.121 1.121 1.638 2.587 1.638 4.3979v72.6943c0 1.725-.517 3.191-1.638 4.226-1.121 1.207-2.501 1.724-4.226 1.724zm66.486 0c-1.725 0-3.19-.603-4.312-1.724-1.121-1.121-1.724-2.501-1.724-4.139v-40.2714c0-6.3812-1.207-11.6415-3.622-15.7807s-5.691-7.2436-9.917-9.3132c-4.139-2.0696-8.882-3.1044-14.142-3.1044-5.088 0-9.658.9486-13.711 2.932-4.053 1.9833-7.33 4.6566-9.658 8.0197-2.415 3.3631-3.536 7.2436-3.536 11.6415h-8.537c.173-6.4675 1.983-12.3314 5.26-17.4192 3.277-5.0877 7.675-9.1407 13.194-12.0726 5.433-2.932 11.555-4.3979 18.281-4.3979 7.33 0 13.884 1.5522 19.662 4.5703 5.777 3.0182 10.348 7.5023 13.711 13.3662s5.001 13.0212 5.001 21.4721v40.2706c0 1.639-.603 3.018-1.724 4.14-1.121 1.207-2.587 1.81-4.226 1.81z"/><path d="m461.007 121.848c-8.364 0-15.78-1.811-22.248-5.519-6.467-3.622-11.469-8.71-15.177-15.263-3.622-6.468-5.519-13.9702-5.519-22.2486 0-8.4509 1.725-15.9532 5.174-22.3345 3.45-6.4674 8.192-11.5552 14.315-15.2632 6.122-3.7081 13.107-5.6052 21.041-5.6052 7.847 0 14.659 1.8109 20.523 5.3465 5.864 3.5355 10.348 8.4508 13.539 14.7458 3.191 6.2951 4.829 13.4524 4.829 21.4721 0 1.6385-.517 2.932-1.552 3.9668-1.035.9485-2.415 1.4659-4.053 1.4659h-65.796v-9.8306h67.003l-6.64 4.8291c.086-5.9501-.948-11.3828-3.277-16.1256-2.242-4.7428-5.519-8.4509-9.658-11.1241s-9.141-4.053-14.918-4.053c-5.864 0-11.038 1.3798-15.436 4.1392-4.398 2.7595-7.847 6.64-10.262 11.5553-2.414 4.9153-3.621 10.5204-3.621 16.8155 0 6.295 1.379 11.9001 4.139 16.7292 2.759 4.8294 6.467 8.6234 11.21 11.4694 4.743 2.759 10.176 4.139 16.384 4.139 3.708 0 7.416-.604 11.211-1.897 3.794-1.294 6.812-2.932 9.054-4.916 1.121-.948 2.415-1.379 3.881-1.466 1.466-.086 2.673.345 3.708 1.121 1.379 1.208 2.069 2.587 2.069 4.053.087 1.466-.517 2.674-1.811 3.708-3.363 2.932-7.761 5.261-13.021 7.158-5.174 1.983-10.262 2.932-15.091 2.932z"/><path d="m552.156 121.848c-8.192 0-15.436-1.897-21.731-5.605-6.381-3.795-11.383-8.882-15.005-15.436-3.622-6.4677-5.519-13.7975-5.519-21.9896 0-8.2784 1.725-15.6083 5.261-22.162 3.535-6.4675 8.278-11.6415 14.401-15.4357 6.122-3.7943 13.107-5.6052 21.04-5.6052 6.296 0 12.073 1.2073 17.42 3.708 5.346 2.5008 10.003 6.2088 13.969 11.1241 1.121 1.2073 1.553 2.587 1.208 3.9667-.345 1.3798-1.208 2.5871-2.674 3.6218-1.121.8624-2.414 1.1211-3.794.8624s-2.587-1.0348-3.622-2.2421c-5.95-6.8124-13.538-10.1755-22.593-10.1755-5.777 0-10.865 1.3797-15.263 4.1392s-7.761 6.6399-10.176 11.469c-2.414 4.8291-3.621 10.4342-3.621 16.7293 0 6.2088 1.293 11.7277 3.88 16.5567 2.587 4.8289 6.209 8.6229 10.866 11.4689 4.656 2.76 9.916 4.139 15.953 4.139 4.053 0 7.674-.517 11.038-1.638 3.363-1.121 6.295-2.76 8.882-5.002 1.207-1.034 2.5-1.638 3.88-1.724 1.38-.087 2.587.345 3.708 1.207 1.207 1.121 1.897 2.415 2.07 3.881.172 1.465-.345 2.673-1.466 3.708-7.503 6.984-16.902 10.434-28.112 10.434z"/><path d="m638.907 121.848c-8.193 0-15.436-1.897-21.99-5.605-6.467-3.795-11.641-8.882-15.436-15.436-3.794-6.4676-5.691-13.8837-5.691-22.1621 0-8.1059 1.811-15.4357 5.519-21.9894 3.622-6.4675 8.623-11.6415 14.918-15.4358 6.295-3.7942 13.453-5.6051 21.386-5.6051 6.899 0 13.194 1.4659 18.713 4.3979 5.605 2.9319 10.089 6.8124 13.452 11.6415v-45.44495c0-1.89713.604-3.36309 1.725-4.39789 1.121-1.121031 2.587-1.638431 4.311-1.638431 1.725 0 3.191.5174 4.312 1.638431 1.121 1.12103 1.725 2.587 1.725 4.39789v73.03955c-.173 8.0197-2.156 15.2633-5.95 21.7304-3.795 6.468-8.882 11.556-15.35 15.264-6.295 3.708-13.538 5.605-21.644 5.605zm0-10.866c5.95 0 11.296-1.379 16.039-4.225 4.657-2.846 8.365-6.64 11.124-11.5553 2.76-4.829 4.139-10.348 4.139-16.5568 0-6.1225-1.379-11.5552-4.139-16.4705-2.759-4.9153-6.467-8.7096-11.124-11.5552-4.657-2.7595-10.003-4.1392-16.039-4.1392-5.864 0-11.211 1.3797-15.954 4.1392-4.742 2.7594-8.537 6.6399-11.296 11.5552s-4.139 10.4342-4.139 16.4705c0 6.2088 1.38 11.7278 4.139 16.5568 2.759 4.8293 6.554 8.7093 11.296 11.5553 4.83 2.846 10.09 4.225 15.954 4.225z"/><path d="m737.816 121.848c-8.278 0-15.608-1.897-22.162-5.606-6.467-3.708-11.641-8.795-15.349-15.349-3.708-6.4675-5.605-13.8836-5.605-22.162 0-8.3646 1.897-15.7806 5.605-22.2481s8.796-11.6415 15.349-15.3495c6.468-3.7081 13.884-5.6052 22.162-5.6052 8.279 0 15.609 1.8971 22.076 5.6052 6.468 3.708 11.555 8.7957 15.263 15.3495 3.708 6.5537 5.606 13.9697 5.692 22.2481 0 8.2784-1.897 15.6082-5.605 22.162-3.795 6.467-8.882 11.641-15.35 15.349-6.467 3.709-13.797 5.606-22.076 5.606zm0-10.866c5.95 0 11.383-1.379 16.126-4.139 4.743-2.759 8.451-6.64 11.124-11.469s4.053-10.3479 4.053-16.5567-1.38-11.7278-4.053-16.643c-2.673-4.9153-6.381-8.7096-11.124-11.5553-4.743-2.7595-10.089-4.1392-16.126-4.1392-5.95 0-11.382 1.3797-16.125 4.1392s-8.451 6.64-11.211 11.5553c-2.759 4.9152-4.139 10.4342-4.139 16.643s1.38 11.7277 4.139 16.5567c2.76 4.829 6.468 8.623 11.211 11.469 4.829 2.76 10.175 4.139 16.125 4.139z"/><path d="m801.112 49.9291c-1.552 0-2.846-.5174-3.881-1.466s-1.552-2.1558-1.552-3.6218c0-1.5522.517-2.8457 1.552-3.7943 1.035-.9485 2.329-1.4659 3.881-1.4659h25.266c1.552 0 2.846.5174 3.881 1.4659 1.034.9486 1.552 2.2421 1.552 3.7943 0 1.466-.518 2.6732-1.552 3.6218-1.035.9486-2.329 1.466-3.881 1.466zm21.299 71.1429c-5.432 0-10.348-1.294-14.659-3.881-4.312-2.587-7.675-6.123-10.176-10.607s-3.708-9.5716-3.708-15.3492v-85.19847c0-1.72467.518-3.19063 1.639-4.31166 1.121-1.121037 2.5-1.72467 4.225-1.72467s3.191.603633 4.312 1.72467c1.121 1.12103 1.724 2.58699 1.724 4.31166v85.19847c0 5.2602 1.553 9.5722 4.657 12.9352s7.071 5.001 11.9 5.001h4.139c1.639 0 3.019.604 4.053 1.725 1.035 1.121 1.553 2.587 1.553 4.312 0 1.724-.604 3.19-1.898 4.225-1.207 1.121-2.759 1.639-4.656 1.639z"/><path d="m887.085 121.848c-8.364 0-15.78-1.811-22.248-5.519-6.467-3.622-11.469-8.71-15.177-15.263-3.622-6.468-5.519-13.9702-5.519-22.2486 0-8.4509 1.725-15.9532 5.174-22.3345 3.449-6.4674 8.192-11.5552 14.315-15.2632 6.122-3.7081 13.107-5.6052 21.041-5.6052 7.847 0 14.659 1.8109 20.523 5.3465 5.864 3.5355 10.348 8.4508 13.539 14.7458 3.19 6.2951 4.829 13.4524 4.829 21.4721 0 1.6385-.518 2.932-1.552 3.9668-1.035.9485-2.415 1.4659-4.053 1.4659h-65.796v-9.8306h67.003l-6.64 4.8291c.086-5.9501-.949-11.3828-3.277-16.1256-2.242-4.7428-5.519-8.4509-9.658-11.1241s-9.141-4.053-14.918-4.053c-5.864 0-11.038 1.3798-15.436 4.1392-4.398 2.7595-7.847 6.64-10.262 11.5553-2.414 4.9153-3.622 10.5204-3.622 16.8155 0 6.295 1.38 11.9001 4.14 16.7292 2.759 4.8294 6.467 8.6234 11.21 11.4694 4.743 2.759 10.175 4.139 16.384 4.139 3.708 0 7.416-.604 11.211-1.897 3.794-1.294 6.812-2.932 9.054-4.916 1.121-.948 2.415-1.379 3.881-1.466 1.465-.086 2.673.345 3.708 1.121 1.379 1.208 2.069 2.587 2.069 4.053.086 1.466-.517 2.674-1.811 3.708-3.363 2.932-7.761 5.261-13.021 7.158-5.174 1.983-10.262 2.932-15.091 2.932z"/><path d="m967.11 121.848c-6.122 0-12.159-1.035-18.109-3.105-5.95-2.069-10.865-5.174-14.573-9.313-1.121-1.207-1.639-2.673-1.38-4.139.172-1.552.948-2.846 2.328-4.053 1.466-1.035 2.932-1.466 4.484-1.207 1.553.172 2.846.862 3.881 1.983 2.501 2.932 5.777 5.088 9.83 6.64s8.624 2.328 13.539 2.328c7.675 0 13.194-1.293 16.557-3.966 3.363-2.674 5.174-5.778 5.26-9.486 0-3.7081-1.725-6.8125-5.26-9.227-3.536-2.4145-9.313-4.3116-17.333-5.6051-10.434-1.6385-18.023-4.5704-22.938-8.6234-4.829-4.1392-7.244-9.0545-7.244-14.6596 0-5.2602 1.38-9.6581 4.14-13.1937 2.759-3.5356 6.467-6.1226 11.124-7.9335 4.656-1.7246 9.744-2.6732 15.349-2.6732 6.899 0 12.849 1.2073 17.85 3.5356 5.002 2.4145 9.055 5.6051 12.159 9.5719 1.035 1.3797 1.466 2.7594 1.208 4.1392-.173 1.4659-1.035 2.6732-2.501 3.5355-1.207.6899-2.673.9486-4.226.6899-1.638-.2587-2.932-1.0348-4.139-2.2421-2.587-3.0181-5.605-5.174-8.968-6.5537s-7.33-2.0696-11.728-2.0696c-5.691 0-10.175 1.121-13.625 3.4493-3.363 2.3283-5.087 5.2602-5.087 8.7096 0 2.4145.603 4.3979 1.897 6.2088 1.293 1.7246 3.535 3.2768 6.64 4.6566 3.104 1.3797 7.588 2.5007 13.193 3.3631 7.761 1.2072 13.884 3.1044 18.368 5.5189s7.675 5.2602 9.572 8.5371c1.897 3.2768 2.842 6.8124 2.842 10.6067 0 4.8287-1.376 9.1407-4.222 12.7627-2.845 3.622-6.726 6.554-11.727 8.623-4.916 2.156-10.693 3.191-17.161 3.191z"/></g><path d="m68.834 2.77489c-23.6858 5.45268-37.3688 21.15261-46.0504 31.21191-9.3422 10.7173-20.76046 23.5969-22.55341 43.5274-1.32112 15.5119 3.11407 31.5878 11.51261 44.5618 18.7787 29.049 55.0151 39.485 88.0431 34.502 16.6081-2.538 34.6321-9.025 45.8621-22.093 15.192-17.58 15.381-38.5445 15.476-47.0996.188-31.6819-17.647-70.4147-51.902-82.73027-18.7783-6.67484-35.6697-3.00838-40.388-1.88024z" fill="#00dce8"/><path d="m128.032 22.9859c4.7 39.9007 11.529 79.3571 21.018 118.3691 2.749 11.286 16.14 19.106 27.314 15.552 11.706-3.822 18.446-15.197 15.52-27.371-4.435-18.218-8.337-36.6128-11.706-55.0968-1.685-9.0643-3.193-18.2175-4.523-27.3707-.355-2.3105-.71-4.5321-.976-6.8426-.177-1.1553-.355-2.3105-.443-3.4658-.089-.5332-.621-4.4433-.178-1.333.444 3.1103-.088-.7997-.177-1.3329-.177-1.1553-.266-2.3106-.443-3.4658-.355-2.5771-.621-5.1542-.976-7.7313-.709-6.1318-1.951-11.1971-6.474-15.72925-3.99-3.73235-10.287-6.664921-15.785-6.398324-10.908.533194-23.679 9.864074-22.171 22.216374z" fill="#ffa84f"/><path clip-rule="evenodd" d="m147.022 132.836c-8.443-36.2344-14.632-72.8512-18.99-109.85-.313-2.562-.011-4.994.761-7.2444 21.441 17.347 32.479 46.6836 32.331 71.6439l-.001.0723c-.092 8.3323-.311 28.2052-14.101 45.3782z" fill="#ff3499" fill-rule="evenodd"/></svg>