<svg enable-background="new 0 0 677.9 317.8" viewBox="0 0 677.9 317.8" xmlns="http://www.w3.org/2000/svg" xmlns:xlink="http://www.w3.org/1999/xlink"><linearGradient id="a"><stop offset="0" stop-color="#00525d"/><stop offset="1" stop-color="#009bb3"/></linearGradient><linearGradient id="b" gradientUnits="userSpaceOnUse" x1="71.9701" x2="259.93" xlink:href="#a" y1="276.65" y2="276.65"/><linearGradient id="c"><stop offset="0" stop-color="#009bb3"/><stop offset="1" stop-color="#00525d"/></linearGradient><linearGradient id="d" gradientUnits="userSpaceOnUse" x1="1.96" x2="80.64" xlink:href="#c" y1="276.4" y2="276.4"/><linearGradient id="e" gradientUnits="userSpaceOnUse" x1="71.9701" x2="259.63" xlink:href="#a" y1="158.9" y2="158.9"/><linearGradient id="f" gradientUnits="userSpaceOnUse" x1="1.96" x2="80.64" xlink:href="#c" y1="158.9" y2="158.9"/><linearGradient id="g" gradientUnits="userSpaceOnUse" x1="71.9701" x2="259.63" xlink:href="#a" y1="42.3" y2="42.3"/><linearGradient id="h" gradientUnits="userSpaceOnUse" x1="1.96" x2="80.64" xlink:href="#c" y1="42.3" y2="42.3"/><path d="m75.9 276.9 180.1-.5" fill="none" stroke="url(#b)" stroke-linecap="round" stroke-miterlimit="10" stroke-width="7.8599"/><circle cx="41.3" cy="276.4" fill="none" r="34.4" stroke="url(#d)" stroke-linecap="round" stroke-miterlimit="10" stroke-width="9.88"/><path d="m42.1 292.6c-1.4 0-2.8-.3-4-.8s-2.4-1.3-3.3-2.4-1.6-2.2-2-3.6l4.6-1.2c.3 1.1.9 2 1.8 2.6s1.8.9 2.9.9c.9 0 1.8-.2 2.5-.6s1.3-1 1.7-1.8c.4-.7.6-1.6.6-2.5 0-1.4-.5-2.6-1.4-3.5s-2.1-1.4-3.5-1.4c-.4 0-.9.1-1.3.2s-.8.3-1.2.5l-2.2-3.8 9.7-8.2.4 1.1h-13.5v-4.5h17.5v4.5l-7.7 7.4v-1.4c1.7.1 3.2.6 4.4 1.4s2.2 1.9 2.8 3.3c.7 1.3 1 2.8 1 4.4 0 1.8-.4 3.4-1.3 4.8s-2 2.5-3.5 3.4-3.2 1.2-5 1.2z"/><path d="m75.9 158.9h179.8" fill="none" stroke="url(#e)" stroke-linecap="round" stroke-miterlimit="10" stroke-width="7.8599"/><circle cx="41.3" cy="158.9" fill="none" r="34.4" stroke="url(#f)" stroke-linecap="round" stroke-miterlimit="10" stroke-width="9.88"/><path d="m31.5 171.9v-4.1l12.2-10.9c1-.8 1.6-1.6 2-2.4s.5-1.5.5-2.2c0-.9-.2-1.8-.6-2.5s-1-1.3-1.7-1.8c-.7-.4-1.5-.6-2.5-.6s-1.9.2-2.6.7c-.8.5-1.3 1.1-1.8 1.8-.4.8-.6 1.6-.6 2.4h-4.9c0-1.9.4-3.6 1.3-5s2-2.5 3.5-3.3 3.2-1.2 5.2-1.2c1.8 0 3.5.4 4.9 1.2s2.6 1.9 3.4 3.4c.8 1.4 1.2 3.1 1.2 4.9 0 1.4-.2 2.5-.5 3.4s-.9 1.8-1.7 2.6c-.7.8-1.6 1.6-2.7 2.6l-8.6 7.6-.4-1.2h14v4.5z"/><path d="m75.9 42.3h179.8" fill="none" stroke="url(#g)" stroke-linecap="round" stroke-miterlimit="10" stroke-width="7.8599"/><circle cx="41.3" cy="42.3" fill="none" r="34.4" stroke="url(#h)" stroke-linecap="round" stroke-miterlimit="10" stroke-width="9.88"/><path d="m41.2 55.4v-23.3l-5.3 3.3v-5.3l5.3-3.2h4.9v28.5z"/><path d="m284.1 288.5v-30.4h12.3 1.1c.4 0 .9.1 1.2.1 1.7.3 3.1.8 4.2 1.7s2 2 2.5 3.4c.6 1.3.8 2.8.8 4.5 0 2.4-.6 4.5-1.9 6.3-1.2 1.7-3.1 2.8-5.6 3.3l-1.8.2h-8.6v10.9zm4.4-15.1h7.7.9c.3 0 .7-.1 1-.1.9-.2 1.6-.6 2.2-1.2.5-.6.9-1.2 1.2-2 .2-.7.4-1.5.4-2.2s-.1-1.5-.4-2.2c-.2-.7-.6-1.4-1.2-2-.5-.6-1.3-1-2.2-1.2-.3-.1-.6-.1-1-.2-.3 0-.7 0-.9 0h-7.7zm13.3 15.1-6-12.4 4.4-1.1 6.6 13.5z"/><path d="m317.8 289.1c-1.7 0-3.1-.3-4.2-.9s-2-1.5-2.6-2.5-.9-2.2-.9-3.4.2-2.2.6-3c.4-.9 1-1.6 1.8-2.2s1.8-1.1 3-1.5c1-.3 2.2-.6 3.4-.8 1.3-.2 2.6-.4 4-.6s2.8-.4 4.2-.6l-1.6.9c0-1.8-.3-3.1-1.1-4s-2.1-1.3-4-1.3c-1.2 0-2.3.3-3.3.8-1 .6-1.7 1.5-2.1 2.8l-4.1-1.3c.6-2 1.6-3.5 3.2-4.7s3.7-1.7 6.3-1.7c2 0 3.8.3 5.3 1s2.6 1.8 3.3 3.3c.4.7.6 1.5.7 2.4.1.8.1 1.7.1 2.7v14h-3.8v-5.2l.8.7c-.9 1.7-2.1 3-3.6 3.9-1.5.8-3.3 1.2-5.4 1.2zm.8-3.6c1.3 0 2.3-.2 3.2-.7.9-.4 1.6-1 2.2-1.7.5-.7.9-1.4 1.1-2.1s.4-1.4.4-2.3c0-.8.1-1.5.1-2l1.4.5c-1.4.2-2.7.4-3.8.6s-2.2.3-3.1.5-1.7.4-2.5.6c-.6.2-1.1.5-1.6.8s-.8.7-1.1 1.1-.4.9-.4 1.5.1 1.1.4 1.6.7.9 1.3 1.2c.7.2 1.5.4 2.4.4z"/><path d="m336.1 288.5v-22.8h3.9v6.6h.5v16.2zm16 0v-11.2c0-.9-.1-1.8-.2-2.7s-.4-1.8-.8-2.6-1-1.4-1.8-1.9-1.7-.7-2.9-.7c-.8 0-1.5.1-2.2.4s-1.3.7-1.8 1.3-.9 1.3-1.2 2.3c-.3.9-.5 2.1-.5 3.4l-2.7-1c0-2.1.4-3.9 1.2-5.5s1.9-2.8 3.3-3.7 3.2-1.3 5.2-1.3c1.6 0 2.9.3 4 .8s1.9 1.2 2.6 2 1.2 1.7 1.5 2.7c.4 1 .6 1.9.7 2.8s.2 1.7.2 2.4v12.6z"/><path d="m372.4 289.1c-2.3 0-4.3-.5-5.9-1.6-1.6-1-2.9-2.5-3.7-4.3-.9-1.8-1.3-3.9-1.3-6.2s.5-4.4 1.3-6.2c.9-1.8 2.1-3.2 3.8-4.2 1.6-1 3.6-1.5 5.9-1.5 2.5 0 4.6.6 6.4 1.9s2.9 2.9 3.5 5.1l-4.4 1.3c-.4-1.3-1.1-2.3-2.1-3s-2.1-1.1-3.4-1.1c-1.4 0-2.6.3-3.6 1s-1.6 1.6-2.1 2.8-.7 2.5-.7 4c0 2.3.6 4.2 1.6 5.7 1.1 1.4 2.6 2.2 4.7 2.2 1.4 0 2.6-.3 3.4-1 .9-.7 1.5-1.6 2-2.8l4.5 1.1c-.7 2.2-2 3.9-3.7 5.1-1.6 1.1-3.7 1.7-6.2 1.7zm-.8 9.5c-.5 0-1.1-.1-1.5-.2-.5-.1-.9-.3-1.3-.5l1-2.7c.6.2 1.1.3 1.5.3.5 0 .8-.1 1.1-.4.2-.3.4-.6.4-.9 0-.6-.3-1-.8-1.3-.6-.3-1.2-.5-1.9-.7l1.5-4.3h2.8l-.9 2.6c.8.4 1.4.9 1.9 1.5s.7 1.4.7 2.3c0 1.3-.4 2.3-1.3 3.1-1 .8-2 1.2-3.2 1.2z"/><path d="m397.1 289.1c-2.3 0-4.3-.5-5.9-1.5-1.7-1-3-2.4-3.9-4.2s-1.4-3.9-1.4-6.3.5-4.5 1.4-6.3 2.2-3.2 3.9-4.2 3.6-1.5 5.9-1.5 4.3.5 5.9 1.5c1.7 1 3 2.4 3.9 4.2s1.4 3.9 1.4 6.2c0 2.4-.5 4.5-1.4 6.3s-2.2 3.2-3.9 4.2c-1.7 1.1-3.7 1.6-5.9 1.6zm0-4.2c2.2 0 3.8-.7 4.9-2.2s1.6-3.4 1.6-5.7c0-2.4-.5-4.3-1.6-5.7s-2.7-2.1-4.9-2.1c-1.5 0-2.7.3-3.6 1-1 .7-1.7 1.6-2.1 2.8-.5 1.2-.7 2.5-.7 4.1 0 2.4.5 4.3 1.6 5.7 1 1.4 2.6 2.1 4.8 2.1z"/><path d="m413.5 288.5v-22.8h3.9v6.6h.5v16.2zm16 0v-11.2c0-.9-.1-1.8-.2-2.7s-.4-1.8-.8-2.6-1-1.4-1.8-1.9-1.7-.7-2.9-.7c-.8 0-1.5.1-2.2.4s-1.3.7-1.8 1.3-.9 1.3-1.2 2.3c-.3.9-.5 2.1-.5 3.4l-2.7-1c0-2.1.4-3.9 1.2-5.5s1.9-2.8 3.3-3.7 3.2-1.3 5.2-1.3c1.6 0 2.9.3 4 .8s1.9 1.2 2.6 2 1.2 1.7 1.5 2.7c.4 1 .6 1.9.7 2.8s.2 1.7.2 2.4v12.6z"/><path d="m449.1 289.1c-2.1 0-4-.5-5.5-1.6s-2.7-2.5-3.6-4.3-1.3-3.9-1.3-6.1c0-2.3.4-4.3 1.3-6.1.8-1.8 2-3.2 3.6-4.3 1.6-1 3.4-1.6 5.5-1.6 2.2 0 4 .5 5.4 1.6 1.5 1 2.6 2.5 3.3 4.3.8 1.8 1.1 3.9 1.1 6.1 0 2.3-.4 4.3-1.1 6.1-.8 1.8-1.9 3.2-3.4 4.3-1.3 1.1-3.1 1.6-5.3 1.6zm.4 10.1c-1.2 0-2.4-.2-3.6-.6-1.1-.4-2.2-.9-3.1-1.7-.9-.7-1.7-1.6-2.3-2.7l4.1-2.1c.5 1 1.2 1.7 2.1 2.1s1.9.7 2.9.7c1.2 0 2.3-.2 3.2-.7.9-.4 1.6-1.1 2-2 .5-.9.7-2 .7-3.3v-6.4h.5v-17h3.9v23.4c0 .6 0 1.2-.1 1.7s-.1 1.1-.2 1.6c-.3 1.5-.9 2.8-1.8 3.8s-2.1 1.7-3.5 2.2-3.1 1-4.8 1zm.2-14.1c1.4 0 2.6-.3 3.5-1s1.6-1.6 2-2.8.6-2.6.6-4.2-.2-3-.6-4.2-1.1-2.2-2-2.8c-.9-.7-2-1-3.4-1-1.5 0-2.7.4-3.6 1.1s-1.6 1.7-2.1 2.9-.7 2.6-.7 4c0 1.5.2 2.9.7 4.1s1.1 2.2 2.1 2.9 2.1 1 3.5 1z"/><path d="m466.4 262v-4.3h4.4v4.3zm0 26.5v-22.8h4.4v22.8z"/><path d="m487.3 289.1c-2.3 0-4.3-.5-5.9-1.6-1.6-1-2.9-2.5-3.7-4.3-.9-1.8-1.3-3.9-1.3-6.2s.5-4.4 1.3-6.2c.9-1.8 2.1-3.2 3.8-4.2 1.6-1 3.6-1.5 5.9-1.5 2.5 0 4.6.6 6.4 1.9s2.9 2.9 3.5 5.1l-4.4 1.3c-.4-1.3-1.1-2.3-2.1-3s-2.1-1.1-3.4-1.1c-1.4 0-2.6.3-3.6 1s-1.6 1.6-2.1 2.8-.7 2.5-.7 4c0 2.3.6 4.2 1.6 5.7 1.1 1.4 2.6 2.2 4.7 2.2 1.4 0 2.6-.3 3.4-1 .9-.7 1.5-1.6 2-2.8l4.5 1.1c-.7 2.2-2 3.9-3.7 5.1-1.7 1.1-3.7 1.7-6.2 1.7z"/><path d="m502.3 262v-4.3h4.4v4.3zm0 26.5v-22.8h4.4v22.8z"/><path d="m523.5 289.1c-2.3 0-4.2-.5-6-1.5-1.7-1-3-2.4-4-4.2-.9-1.8-1.4-3.8-1.4-6.2 0-2.5.5-4.6 1.4-6.5.9-1.8 2.2-3.2 3.9-4.2s3.6-1.5 5.8-1.5c2.3 0 4.3.5 5.9 1.6s2.8 2.6 3.7 4.6c.8 2 1.1 4.3 1 7.1h-4.4v-1.6c0-2.6-.5-4.6-1.5-5.9s-2.5-1.9-4.5-1.9c-2.2 0-3.9.7-5 2.1s-1.7 3.4-1.7 6c0 2.5.6 4.4 1.7 5.8s2.7 2.1 4.8 2.1c1.4 0 2.6-.3 3.6-.9s1.8-1.5 2.4-2.7l4.3 1.4c-.9 2-2.2 3.6-4 4.7s-3.8 1.7-6 1.7zm-8.1-10.8v-3.4h16.3v3.4z"/><path d="m539.3 288.5v-31h4.4v31z"/><path d="m284.1 173.9v-30.4h12.3 1.1c.4 0 .9.1 1.2.1 1.7.3 3.1.8 4.2 1.7s2 2 2.5 3.4c.6 1.3.8 2.8.8 4.5 0 1.6-.3 3.1-.8 4.5-.6 1.3-1.4 2.5-2.5 3.4s-2.5 1.5-4.2 1.7c-.4.1-.8.1-1.3.1-.4 0-.8 0-1.1 0h-7.9v10.9h-4.3zm4.4-15.1h7.7.9c.3 0 .7-.1 1-.1.9-.2 1.6-.6 2.2-1.2.5-.6.9-1.2 1.2-2 .2-.7.4-1.5.4-2.2s-.1-1.5-.4-2.2c-.2-.7-.6-1.4-1.2-2-.5-.6-1.3-1-2.2-1.2-.3-.1-.6-.1-1-.2-.3 0-.7 0-.9 0h-7.7z"/><path d="m310.5 173.9v-30.4h3.9v16.4h.5v14zm16 0v-11.2c0-.9-.1-1.8-.2-2.7s-.4-1.8-.8-2.6-1-1.4-1.7-1.9c-.8-.5-1.7-.7-2.9-.7-.8 0-1.5.1-2.2.4s-1.3.7-1.8 1.3-.9 1.3-1.2 2.3c-.3.9-.5 2.1-.5 3.4l-2.7-1c0-2.1.4-3.9 1.2-5.5s1.9-2.8 3.3-3.7 3.2-1.3 5.2-1.3c1.6 0 2.9.3 4 .8s1.9 1.2 2.6 2 1.2 1.7 1.5 2.7c.4 1 .6 1.9.7 2.8s.2 1.7.2 2.4v12.6h-4.7z"/><path d="m337.4 147.4v-4.3h4.4v4.3zm0 26.5v-22.8h4.4v22.8z"/><path d="m357 174.5c-2.8 0-5-.6-6.8-1.8-1.7-1.2-2.8-2.9-3.2-5.2l4.5-.7c.3 1.2.9 2.1 1.9 2.8s2.3 1 3.8 1c1.4 0 2.5-.3 3.2-.8.8-.6 1.2-1.3 1.2-2.3 0-.6-.1-1-.4-1.4s-.8-.7-1.7-1-2.2-.7-4-1.2c-2-.5-3.5-1.1-4.6-1.6s-2-1.3-2.4-2c-.5-.8-.7-1.7-.7-2.8 0-1.4.4-2.6 1.1-3.6s1.8-1.8 3.1-2.4 2.9-.8 4.7-.8c1.7 0 3.3.3 4.7.8s2.5 1.3 3.3 2.3 1.3 2.2 1.5 3.5l-4.5.8c-.2-1.1-.7-2-1.5-2.6-.9-.6-2-1-3.4-1-1.3-.1-2.4.2-3.2.7s-1.2 1.2-1.2 2.1c0 .5.2.9.5 1.3s.9.7 1.8 1 2.3.7 4 1.2c1.9.5 3.4 1 4.6 1.6 1.1.6 1.9 1.3 2.4 2.1s.7 1.8.7 3c0 2.2-.8 4-2.5 5.3-1.8 1-4 1.7-6.9 1.7z"/><path d="m371.5 173.9v-30.4h3.9v16.4h.5v14zm16 0v-11.2c0-.9-.1-1.8-.2-2.7s-.4-1.8-.8-2.6-1-1.4-1.8-1.9-1.7-.7-2.9-.7c-.8 0-1.5.1-2.2.4s-1.3.7-1.8 1.3-.9 1.3-1.2 2.3c-.3.9-.5 2.1-.5 3.4l-2.7-1c0-2.1.4-3.9 1.2-5.5s1.9-2.8 3.3-3.7 3.2-1.3 5.2-1.3c1.6 0 2.9.3 4 .8s1.9 1.2 2.6 2 1.2 1.7 1.5 2.7c.4 1 .6 1.9.7 2.8s.2 1.7.2 2.4v12.6h-4.6z"/><path d="m398.4 147.4v-4.3h4.4v4.3zm0 26.5v-22.8h4.4v22.8z"/><path d="m409.4 173.9v-22.8h3.9v6.6h.5v16.2zm16 0v-11.2c0-.9-.1-1.8-.2-2.7s-.4-1.8-.8-2.6-1-1.4-1.8-1.9-1.7-.7-2.9-.7c-.8 0-1.5.1-2.2.4s-1.3.7-1.8 1.3-.9 1.3-1.2 2.3c-.3.9-.5 2.1-.5 3.4l-2.7-1c0-2.1.4-3.9 1.2-5.5s1.9-2.8 3.3-3.7 3.2-1.3 5.2-1.3c1.6 0 2.9.3 4 .8s1.9 1.2 2.6 2 1.2 1.7 1.5 2.7c.4 1 .6 1.9.7 2.8s.2 1.7.2 2.4v12.6h-4.6z"/><path d="m445 174.5c-2.1 0-4-.5-5.5-1.6s-2.7-2.5-3.6-4.3-1.3-3.9-1.3-6.1c0-2.3.4-4.3 1.3-6.1.8-1.8 2-3.2 3.6-4.3 1.6-1 3.4-1.6 5.5-1.6 2.2 0 4 .5 5.4 1.6 1.5 1 2.6 2.5 3.3 4.3.8 1.8 1.1 3.9 1.1 6.1 0 2.3-.4 4.3-1.1 6.1-.8 1.8-1.9 3.2-3.4 4.3-1.3 1.1-3.1 1.6-5.3 1.6zm.4 10.1c-1.2 0-2.4-.2-3.6-.6-1.1-.4-2.2-.9-3.1-1.7-.9-.7-1.7-1.6-2.3-2.7l4.1-2.1c.5 1 1.2 1.7 2.1 2.1s1.9.7 2.9.7c1.2 0 2.3-.2 3.2-.7.9-.4 1.6-1.1 2-2 .5-.9.7-2 .7-3.3v-6.4h.5v-17h3.9v23.4c0 .6 0 1.2-.1 1.7s-.1 1.1-.2 1.6c-.3 1.5-.9 2.8-1.8 3.8s-2.1 1.7-3.5 2.2-3.1 1-4.8 1zm.2-14.1c1.4 0 2.6-.3 3.5-1s1.6-1.6 2-2.8.6-2.6.6-4.2-.2-3-.6-4.2-1.1-2.2-2-2.8c-.9-.7-2-1-3.4-1-1.5 0-2.7.4-3.6 1.1s-1.6 1.7-2.1 2.9-.7 2.6-.7 4c0 1.5.2 2.9.7 4.1s1.1 2.2 2.1 2.9 2.1 1 3.5 1z"/><path d="m284.5 59.3v-30.4h4.4v26.2h13.7v4.2z"/><path d="m316.3 59.9c-2.3 0-4.3-.5-5.9-1.5-1.7-1-3-2.4-3.9-4.2s-1.4-3.9-1.4-6.3.5-4.5 1.4-6.3 2.2-3.2 3.9-4.2 3.6-1.5 5.9-1.5 4.3.5 5.9 1.5 3 2.4 3.9 4.2 1.4 3.9 1.4 6.2c0 2.4-.5 4.5-1.4 6.3s-2.2 3.2-3.9 4.2c-1.7 1.1-3.6 1.6-5.9 1.6zm0-4.2c2.2 0 3.8-.7 4.9-2.2s1.6-3.4 1.6-5.7c0-2.4-.5-4.3-1.6-5.7s-2.7-2.1-4.9-2.1c-1.5 0-2.7.3-3.6 1-1 .7-1.7 1.6-2.1 2.8-.5 1.2-.7 2.5-.7 4.1 0 2.4.5 4.3 1.6 5.7s2.7 2.1 4.8 2.1z"/><path d="m341.8 59.9c-2.1 0-4-.5-5.5-1.6s-2.7-2.5-3.6-4.3c-.8-1.8-1.3-3.9-1.3-6.1 0-2.3.4-4.3 1.3-6.1.8-1.8 2-3.2 3.6-4.3 1.6-1 3.4-1.6 5.5-1.6 2.2 0 4 .5 5.4 1.6s2.6 2.5 3.3 4.3 1.1 3.9 1.1 6.1c0 2.3-.4 4.3-1.1 6.1-.8 1.8-1.9 3.3-3.4 4.3-1.3 1.1-3.1 1.6-5.3 1.6zm.4 10.1c-1.2 0-2.4-.2-3.6-.6-1.1-.4-2.2-.9-3.1-1.7-.9-.7-1.7-1.6-2.3-2.7l4.1-2.1c.5 1 1.2 1.7 2.1 2.1s1.9.7 2.9.7c1.2 0 2.3-.2 3.2-.7.9-.4 1.6-1.1 2-2 .5-.9.7-2 .7-3.3v-6.4h.5v-17h3.9v23.4c0 .6 0 1.2-.1 1.7 0 .5-.1 1.1-.2 1.6-.3 1.5-.9 2.8-1.8 3.8s-2.1 1.7-3.5 2.2-3.1 1-4.8 1zm.2-14.1c1.4 0 2.6-.3 3.5-1s1.6-1.6 2-2.8.6-2.6.6-4.2-.2-3-.6-4.2-1.1-2.2-2-2.8c-.9-.7-2-1-3.4-1-1.5 0-2.7.4-3.6 1.1s-1.6 1.7-2.1 2.9-.7 2.6-.7 4c0 1.5.2 2.9.7 4.1s1.1 2.2 2.1 2.9 2.1 1 3.5 1z"/><path d="m359.1 32.8v-4.3h4.4v4.3zm0 26.5v-22.8h4.4v22.8z"/><path d="m380 59.9c-2.3 0-4.3-.5-5.9-1.6-1.6-1-2.9-2.5-3.7-4.3s-1.3-3.9-1.3-6.2.5-4.4 1.3-6.2c.9-1.8 2.1-3.2 3.8-4.2s3.6-1.5 5.9-1.5c2.5 0 4.6.6 6.4 1.9s2.9 2.9 3.5 5.1l-4.4 1.3c-.4-1.3-1.1-2.3-2.1-3s-2.1-1.1-3.4-1.1c-1.4 0-2.6.3-3.6 1s-1.6 1.6-2.1 2.8-.7 2.5-.7 4c0 2.3.6 4.2 1.6 5.7 1.1 1.4 2.6 2.2 4.7 2.2 1.4 0 2.6-.3 3.4-1 .9-.7 1.5-1.6 2-2.8l4.5 1.1c-.7 2.2-2 3.9-3.7 5.1s-3.7 1.7-6.2 1.7z"/><path d="m395 32.8v-4.3h4.4v4.3zm0 26.5v-22.8h4.4v22.8z"/><path d="m416.2 59.9c-2.3 0-4.2-.5-6-1.5-1.7-1-3-2.4-4-4.2-.9-1.8-1.4-3.8-1.4-6.2 0-2.5.5-4.6 1.4-6.5.9-1.8 2.2-3.2 3.9-4.2s3.6-1.5 5.8-1.5c2.3 0 4.3.5 5.9 1.6s2.8 2.6 3.7 4.6c.8 2 1.1 4.3 1 7.1h-4.4v-1.6c0-2.6-.5-4.6-1.5-5.9s-2.5-1.9-4.5-1.9c-2.2 0-3.9.7-5 2.1s-1.7 3.4-1.7 6c0 2.5.6 4.4 1.7 5.8s2.7 2.1 4.8 2.1c1.4 0 2.6-.3 3.6-.9s1.8-1.5 2.4-2.7l4.3 1.4c-.9 2-2.2 3.6-4 4.7s-3.8 1.7-6 1.7zm-8.1-10.8v-3.4h16.3v3.4z"/><path d="m432 59.3v-31h4.4v31z"/><path d="m453.3 59.3v-22.8h3.9v6.6h.5v16.2zm13.6 0v-14.1c0-1.7-.4-3-1.3-3.9-.8-.9-2-1.4-3.4-1.4s-2.5.5-3.4 1.4c-.9 1-1.3 2.2-1.3 3.8l-2.1-1.3c0-1.5.4-2.8 1.1-4s1.7-2.1 2.9-2.8 2.6-1 4.2-1 3 .3 4.1 1 2 1.6 2.6 2.9.9 2.6.9 4.3v15.2zm13.7 0v-14.2c0-1.6-.4-2.9-1.3-3.8-.8-.9-2-1.4-3.3-1.4-.8 0-1.6.2-2.3.6s-1.3 1-1.7 1.7-.6 1.7-.6 2.9l-2.1-1.1c0-1.6.3-3 1-4.2s1.7-2.1 2.9-2.8 2.6-1 4.1-1c2.5 0 4.4.7 5.7 2.2s2 3.4 2 5.9v15.2z"/><path d="m497.6 59.9c-1.7 0-3.1-.3-4.2-.9s-2-1.5-2.6-2.5-.9-2.2-.9-3.4.2-2.2.6-3c.4-.9 1-1.6 1.8-2.2s1.8-1.1 3-1.5c1-.3 2.2-.6 3.4-.8 1.3-.2 2.6-.4 4-.6s2.8-.4 4.2-.6l-1.6.9c0-1.8-.3-3.1-1.1-4s-2.1-1.3-4-1.3c-1.2 0-2.3.3-3.3.8-1 .6-1.7 1.5-2.1 2.8l-4.1-1.3c.6-2 1.6-3.5 3.2-4.7s3.7-1.7 6.3-1.7c2 0 3.8.3 5.3 1s2.6 1.8 3.3 3.3c.4.7.6 1.5.7 2.4s.1 1.7.1 2.7v14h-3.9v-5.2l.8.7c-.9 1.7-2.1 3-3.6 3.9-1.4.8-3.2 1.2-5.3 1.2zm.7-3.6c1.3 0 2.3-.2 3.2-.7.9-.4 1.6-1 2.2-1.7.5-.7.9-1.4 1.1-2.2.2-.7.4-1.4.4-2.3s.1-1.5.1-2l1.4.5c-1.4.2-2.7.4-3.8.6s-2.2.3-3.1.5-1.7.4-2.5.6c-.6.2-1.1.5-1.6.8s-.8.7-1.1 1.1-.4.9-.4 1.5.1 1.1.4 1.6.7.9 1.3 1.2c.7.3 1.5.5 2.4.5z"/><path d="m516 59.3v-31h4.4v31z"/><path d="m533.1 59.3-8.3-22.8h4.4l6.1 17.2 6-17.2h4.4l-8.3 22.8z"/><path d="m559.4 59.9c-2.3 0-4.2-.5-6-1.5-1.7-1-3-2.4-4-4.2-.9-1.8-1.4-3.8-1.4-6.2 0-2.5.5-4.6 1.4-6.5.9-1.8 2.2-3.2 3.9-4.2s3.6-1.5 5.8-1.5c2.3 0 4.3.5 5.9 1.6s2.8 2.6 3.7 4.6c.8 2 1.1 4.3 1 7.1h-4.4v-1.6c0-2.6-.5-4.6-1.5-5.9s-2.5-1.9-4.5-1.9c-2.2 0-3.9.7-5 2.1s-1.7 3.4-1.7 6c0 2.5.6 4.4 1.7 5.8s2.7 2.1 4.8 2.1c1.4 0 2.6-.3 3.6-.9s1.8-1.5 2.4-2.7l4.3 1.4c-.9 2-2.2 3.6-4 4.7s-3.8 1.7-6 1.7zm-8.1-10.8v-3.4h16.3v3.4z"/><path d="m575.2 32.8v-4.3h4.4v4.3zm0 26.5v-22.8h4.4v22.8z"/><path d="m586.4 59.3v-31h4.4v31z"/><path d="m597.6 59.3v-31h4.4v31z"/><path d="m615.1 59.9c-1.7 0-3.1-.3-4.2-.9s-2-1.5-2.6-2.5-.9-2.2-.9-3.4.2-2.2.6-3c.4-.9 1-1.6 1.8-2.2s1.8-1.1 3-1.5c1-.3 2.2-.6 3.4-.8 1.3-.2 2.6-.4 4-.6s2.8-.4 4.2-.6l-1.6.9c0-1.8-.3-3.1-1.1-4s-2.1-1.3-4-1.3c-1.2 0-2.3.3-3.3.8-1 .6-1.7 1.5-2.1 2.8l-4.1-1.3c.6-2 1.6-3.5 3.2-4.7s3.7-1.7 6.3-1.7c2 0 3.8.3 5.3 1s2.6 1.8 3.3 3.3c.4.7.6 1.5.7 2.4s.1 1.7.1 2.7v14h-3.9v-5.2l.8.7c-.9 1.7-2.1 3-3.6 3.9-1.4.8-3.2 1.2-5.3 1.2zm.8-3.6c1.3 0 2.3-.2 3.2-.7.9-.4 1.6-1 2.2-1.7.5-.7.9-1.4 1.1-2.2.2-.7.4-1.4.4-2.3s.1-1.5.1-2l1.4.5c-1.4.2-2.7.4-3.8.6s-2.2.3-3.1.5-1.7.4-2.5.6c-.6.2-1.1.5-1.6.8s-.8.7-1.1 1.1-.4.9-.4 1.5.1 1.1.4 1.6.7.9 1.3 1.2c.7.3 1.5.5 2.4.5z"/><path d="m633.4 59.3v-22.8h3.9v6.6h.5v16.2zm16 0v-11.2c0-.9-.1-1.8-.2-2.7s-.4-1.8-.8-2.6-1-1.4-1.8-1.9-1.7-.7-2.9-.7c-.8 0-1.5.1-2.2.4s-1.3.7-1.8 1.3-.9 1.3-1.2 2.3c-.3.9-.5 2.1-.5 3.4l-2.7-1c0-2.1.4-3.9 1.2-5.5s1.9-2.8 3.3-3.7 3.2-1.3 5.2-1.3c1.6 0 2.9.3 4 .8s1.9 1.2 2.6 2 1.2 1.7 1.5 2.7c.4 1 .6 1.9.7 2.8s.2 1.7.2 2.4v12.6h-4.6z"/><path d="m657.1 40v-3.5h15.6v3.5zm15.5 19.3c-1.4.3-2.8.4-4.2.4s-2.6-.3-3.7-.8-1.9-1.3-2.4-2.3c-.5-.9-.8-1.9-.8-2.9s-.1-2.1-.1-3.3v-20.2h4.4v19.9 2.4c0 .7.2 1.2.4 1.7.5.9 1.3 1.4 2.4 1.5s2.4.1 3.9-.1z"/></svg>