<?xml version="1.0" encoding="utf-8"?>
<!-- Generator: Adobe Illustrator 27.6.1, SVG Export Plug-In . SVG Version: 6.00 Build 0)  -->
<svg version="1.1" id="Layer_1" xmlns="http://www.w3.org/2000/svg" xmlns:xlink="http://www.w3.org/1999/xlink" x="0px" y="0px"
	 viewBox="0 0 203.8 147" style="enable-background:new 0 0 203.8 147;" xml:space="preserve">
<style type="text/css">
	.st0{fill:#1A1A1A;}
	.st1{fill:none;stroke:#494949;stroke-width:0.33;stroke-miterlimit:10;}
	.st2{fill:#397B7E;}
	.st3{fill:#1B464F;}
	.st4{fill:#8B7FD3;}
	.st5{fill:#C2B8ED;}
	.st6{fill:none;stroke:#1A1A1A;stroke-width:0.33;stroke-miterlimit:10;}
	.st7{fill:none;stroke:#C2B8ED;stroke-width:13;stroke-miterlimit:10;}
	.st8{fill:none;stroke:#8B7FD3;stroke-width:13;stroke-miterlimit:10;}
	.st9{fill:none;stroke:#1B464F;stroke-width:13;stroke-miterlimit:10;}
	.st10{fill:none;stroke:#397B7E;stroke-width:13;stroke-miterlimit:10;}
</style>
<g>
	<path class="st0" d="M101.8,8.1c-0.4,0-0.7-0.1-1.1-0.2c-0.3-0.2-0.6-0.4-0.9-0.6c-0.2-0.3-0.4-0.6-0.5-1l1.2-0.3
		c0.1,0.3,0.2,0.5,0.5,0.7c0.2,0.2,0.5,0.2,0.8,0.2c0.2,0,0.5-0.1,0.7-0.2s0.3-0.3,0.5-0.5s0.2-0.4,0.2-0.7c0-0.4-0.1-0.7-0.4-0.9
		s-0.6-0.4-0.9-0.4c-0.1,0-0.2,0-0.3,0.1c-0.1,0-0.2,0.1-0.3,0.1l-0.6-1l2.5-2.2l0.1,0.3h-3.6V0.4h4.6v1.2l-2,2V3.2
		c0.4,0,0.8,0.2,1.2,0.4c0.3,0.2,0.6,0.5,0.8,0.9c0.2,0.3,0.3,0.7,0.3,1.2s-0.1,0.9-0.3,1.3s-0.5,0.7-0.9,0.9
		C102.7,8,102.3,8.1,101.8,8.1L101.8,8.1z"/>
	<path class="st0" d="M106.2,2.2c-0.2,0-0.4,0-0.6-0.2c-0.2-0.1-0.3-0.2-0.4-0.4S105,1.2,105,1s0.1-0.4,0.2-0.6s0.2-0.3,0.4-0.4
		s0.3-0.2,0.6-0.2s0.4,0.1,0.6,0.2s0.3,0.2,0.4,0.4s0.2,0.3,0.2,0.6s-0.1,0.4-0.2,0.6S107,1.9,106.8,2
		C106.6,2.2,106.4,2.2,106.2,2.2z M105.8,4.5L105.3,4l3.9-3.9l0.5,0.5L105.8,4.5z M106.2,1.6c0.1,0,0.2,0,0.2-0.1s0.1-0.1,0.2-0.2
		c0-0.1,0.1-0.1,0.1-0.2s0-0.2-0.1-0.2s-0.1-0.1-0.2-0.2s-0.2-0.1-0.2-0.1s-0.2,0-0.2,0.1s-0.1,0.1-0.2,0.2s-0.1,0.1-0.1,0.2
		s0,0.2,0.1,0.2s0.1,0.1,0.2,0.2S106.1,1.6,106.2,1.6z M108.8,4.6c-0.2,0-0.4-0.1-0.6-0.2s-0.3-0.2-0.4-0.4s-0.2-0.3-0.2-0.6
		s0.1-0.4,0.2-0.5c0.1-0.2,0.2-0.3,0.4-0.4s0.3-0.2,0.6-0.2s0.4,0,0.6,0.2s0.3,0.2,0.4,0.4s0.2,0.3,0.2,0.6s-0.1,0.4-0.2,0.6
		s-0.2,0.3-0.4,0.4S109,4.6,108.8,4.6z M108.8,4c0.1,0,0.2,0,0.2-0.1s0.1-0.1,0.2-0.2c0-0.1,0.1-0.2,0.1-0.2s0-0.2-0.1-0.2
		s-0.1-0.1-0.2-0.2S108.8,3,108.8,3s-0.2,0-0.2,0.1s-0.1,0.1-0.2,0.2c0,0.1-0.1,0.2-0.1,0.2s0,0.2,0.1,0.2c0,0.1,0.1,0.1,0.2,0.2
		C108.7,4,108.7,4,108.8,4z"/>
	<path class="st0" d="M84,12.5c-0.5,0-0.9-0.1-1.3-0.3s-0.7-0.5-0.9-0.8c-0.2-0.4-0.3-0.8-0.3-1.2s0.1-0.8,0.3-1.2s0.5-0.6,0.8-0.9
		v0.4C82.3,8.3,82,8,81.9,7.7s-0.2-0.6-0.2-1s0.1-0.8,0.3-1.1s0.5-0.6,0.8-0.7c0.4-0.2,0.8-0.3,1.2-0.3s0.9,0.1,1.2,0.3
		s0.6,0.4,0.8,0.7s0.3,0.7,0.3,1.1s-0.1,0.7-0.2,1c-0.2,0.3-0.4,0.6-0.7,0.8V8.1C85.8,8.3,86,8.6,86.2,9s0.3,0.8,0.3,1.2
		c0,0.5-0.1,0.9-0.3,1.2s-0.5,0.6-0.9,0.8S84.5,12.5,84,12.5L84,12.5z M84,11.3c0.4,0,0.7-0.1,0.9-0.3s0.3-0.5,0.3-0.9
		s-0.1-0.7-0.3-0.9S84.4,8.9,84,8.9S83.4,9,83.1,9.2s-0.3,0.5-0.3,0.9s0.1,0.7,0.3,0.9C83.4,11.2,83.7,11.3,84,11.3z M84,7.7
		c0.3,0,0.6-0.1,0.8-0.2c0.2-0.2,0.3-0.4,0.3-0.7S85,6.2,84.8,6S84.4,5.8,84,5.8S83.5,5.9,83.3,6C83.1,6.2,83,6.4,83,6.8
		s0.1,0.6,0.3,0.7S83.7,7.7,84,7.7z"/>
	<path class="st0" d="M88.5,6.6c-0.2,0-0.4-0.1-0.6-0.2S87.6,6.2,87.5,6s-0.2-0.3-0.2-0.6s0.1-0.4,0.2-0.6s0.2-0.3,0.4-0.4
		s0.3-0.2,0.6-0.2s0.4,0.1,0.6,0.2s0.3,0.2,0.4,0.4s0.2,0.3,0.2,0.6S89.6,5.8,89.5,6s-0.2,0.3-0.4,0.4S88.7,6.6,88.5,6.6z M88.1,8.9
		l-0.5-0.5l3.9-3.9L92,5L88.1,8.9z M88.5,6c0.1,0,0.2,0,0.2-0.1s0.1-0.1,0.2-0.2S89,5.6,89,5.5s0-0.2-0.1-0.2c0-0.1-0.1-0.1-0.2-0.2
		S88.6,5,88.5,5s-0.2,0-0.2,0.1s-0.1,0.1-0.2,0.2S88,5.4,88,5.5s0,0.2,0.1,0.2c0,0.1,0.1,0.1,0.2,0.2S88.4,6,88.5,6z M91.1,9
		c-0.2,0-0.4-0.1-0.6-0.1s-0.3-0.2-0.4-0.4S90,8.1,90,7.9s0.1-0.4,0.2-0.6s0.2-0.3,0.4-0.4s0.3-0.2,0.6-0.2s0.4,0.1,0.6,0.2
		s0.3,0.2,0.4,0.4s0.2,0.3,0.2,0.6S92.1,8.3,92,8.5s-0.2,0.3-0.4,0.4S91.3,9,91.1,9z M91.1,8.4c0.1,0,0.2,0,0.2-0.1s0.1-0.1,0.2-0.2
		s0.1-0.2,0.1-0.2s0-0.2-0.1-0.2c0-0.1-0.1-0.1-0.2-0.2s-0.2-0.1-0.2-0.1s-0.2,0-0.2,0.1s-0.1,0.1-0.2,0.2s-0.1,0.2-0.1,0.2
		s0,0.2,0.1,0.2c0,0.1,0.1,0.1,0.2,0.2S91,8.4,91.1,8.4z"/>
	<path class="st0" d="M152.3,22.6v-1.2h-3.4v-1.2l2.4-5.1h1.4l-2.4,5.1h1.9v-2h1.3v2h0.7v1.2h-0.7v1.2H152.3z"/>
	<path class="st0" d="M157.8,22.7c-0.4,0-0.7-0.1-1.1-0.2c-0.3-0.2-0.6-0.4-0.9-0.7s-0.4-0.6-0.5-1l1.2-0.3c0.1,0.2,0.1,0.4,0.3,0.5
		c0.1,0.1,0.3,0.3,0.5,0.3c0.2,0.1,0.4,0.1,0.6,0.1s0.5-0.1,0.7-0.2s0.4-0.3,0.5-0.5s0.2-0.4,0.2-0.7s-0.1-0.5-0.2-0.7
		s-0.3-0.4-0.5-0.5s-0.4-0.2-0.7-0.2s-0.5,0-0.7,0.2c-0.2,0.1-0.3,0.2-0.4,0.3l-1.1-0.4l0.2-4h4.1v1.2h-3.4l0.5-0.4l-0.2,2.8
		l-0.2-0.3c0.2-0.2,0.4-0.3,0.7-0.4s0.5-0.1,0.8-0.1c0.5,0,0.9,0.1,1.3,0.3s0.6,0.5,0.9,0.9s0.3,0.8,0.3,1.3s-0.1,0.9-0.4,1.3
		c-0.2,0.4-0.6,0.7-1,0.9S158.2,22.7,157.8,22.7L157.8,22.7z"/>
	<path class="st0" d="M162.2,16.8c-0.2,0-0.4,0-0.6-0.1s-0.3-0.2-0.4-0.4s-0.1-0.4-0.1-0.6s0.1-0.4,0.1-0.6s0.2-0.3,0.4-0.4
		s0.4-0.1,0.6-0.1s0.4,0.1,0.6,0.1c0.2,0.1,0.3,0.2,0.4,0.4s0.1,0.4,0.1,0.6s-0.1,0.4-0.1,0.6s-0.2,0.3-0.4,0.4
		S162.4,16.9,162.2,16.8z M161.8,19.1l-0.5-0.5l3.9-3.9l0.5,0.5L161.8,19.1z M162.2,16.2c0.1,0,0.2,0,0.2-0.1s0.1-0.1,0.2-0.2
		s0.1-0.1,0.1-0.2s0-0.2-0.1-0.2s-0.1-0.1-0.2-0.2s-0.1-0.1-0.2-0.1s-0.2,0-0.2,0.1s-0.1,0.1-0.2,0.2s-0.1,0.1-0.1,0.2
		s0,0.2,0.1,0.2s0.1,0.1,0.2,0.2C162,16.2,162.1,16.2,162.2,16.2z M164.8,19.2c-0.2,0-0.4,0-0.6-0.1s-0.3-0.2-0.4-0.4
		s-0.1-0.4-0.1-0.6s0.1-0.4,0.1-0.5c0.1-0.2,0.2-0.3,0.4-0.4s0.4-0.1,0.6-0.1s0.4,0,0.6,0.1s0.3,0.2,0.4,0.4s0.1,0.4,0.1,0.6
		s-0.1,0.4-0.1,0.6c-0.1,0.2-0.2,0.3-0.4,0.4S165,19.3,164.8,19.2z M164.8,18.6c0.1,0,0.2,0,0.2-0.1s0.1-0.1,0.2-0.2
		s0.1-0.1,0.1-0.2s0-0.2-0.1-0.2s-0.1-0.1-0.2-0.2s-0.1-0.1-0.2-0.1s-0.2,0-0.2,0.1s-0.1,0.1-0.2,0.2s-0.1,0.1-0.1,0.2
		s0,0.2,0.1,0.2c0,0.1,0.1,0.1,0.2,0.2S164.7,18.6,164.8,18.6z"/>
</g>
<path class="st1" d="M145.1,23.1l-6.9,3"/>
<path class="st1" d="M55.2,38.1l7,3"/>
<path class="st0" d="M41.6,37.6v-1.2h-3.3v-1.2l2.4-5.1h1.4l-2.4,5.1h1.9v-2h1.3v2h0.7v1.2h-0.7v1.2H41.6z"/>
<path class="st0" d="M47.9,37.6v-1.2h-3.3v-1.2L47,30h1.4L46,35.2h1.9v-2h1.3v2h0.7v1.2h-0.7v1.2H47.9z"/>
<path class="st0" d="M51.5,31.9c-0.2,0-0.4,0-0.6-0.1s-0.3-0.2-0.4-0.4s-0.2-0.4-0.2-0.6s0-0.4,0.2-0.5s0.2-0.3,0.4-0.4
	s0.3-0.1,0.5-0.1s0.4,0,0.6,0.1s0.3,0.2,0.4,0.4s0.2,0.4,0.2,0.6s0,0.4-0.2,0.6s-0.2,0.3-0.4,0.4C51.9,31.8,51.8,31.9,51.5,31.9z
	 M51.1,34.2l-0.5-0.5l3.9-3.9l0.5,0.5L51.1,34.2z M51.5,31.2c0.1,0,0.2,0,0.2-0.1s0.1-0.1,0.2-0.2c0-0.1,0.1-0.1,0.1-0.2
	s0-0.2-0.1-0.2s-0.1-0.1-0.2-0.2s-0.2-0.1-0.2-0.1s-0.2,0-0.2,0.1c-0.1,0-0.1,0.1-0.2,0.2c0,0.1-0.1,0.1-0.1,0.2s0,0.2,0.1,0.2
	s0.1,0.1,0.2,0.2S51.5,31.2,51.5,31.2z M54.1,34.3c-0.2,0-0.4,0-0.6-0.2s-0.3-0.2-0.4-0.4s-0.2-0.3-0.2-0.6s0-0.4,0.2-0.5
	c0.1-0.2,0.2-0.3,0.4-0.4S53.8,32,54,32s0.4,0,0.6,0.2s0.3,0.2,0.4,0.4s0.2,0.3,0.2,0.6s0,0.4-0.2,0.6c-0.1,0.2-0.2,0.3-0.4,0.4
	S54.3,34.3,54.1,34.3z M54.1,33.6c0.1,0,0.2,0,0.2-0.1s0.1-0.1,0.2-0.2c0-0.1,0.1-0.2,0.1-0.2s0-0.2-0.1-0.2c0-0.1-0.1-0.1-0.2-0.2
	s-0.2-0.1-0.2-0.1s-0.2,0-0.2,0.1s-0.1,0.1-0.2,0.2c0,0.1-0.1,0.2-0.1,0.2s0,0.2,0.1,0.2c0,0.1,0.1,0.1,0.2,0.2S54,33.6,54.1,33.6z"
	/>
<path class="st2" d="M0,121.2c0-2.4,1.9-4.3,4.2-4.3s4.2,1.9,4.2,4.2c0,2.3-1.9,4.2-4.2,4.2C1.9,125.5,0,123.6,0,121.2z"/>
<path class="st3" d="M115.1,134.3c0-2.4,1.9-4.3,4.2-4.3c2.3,0,4.2,1.9,4.2,4.2s-1.9,4.2-4.2,4.2C117,138.6,115.1,136.7,115.1,134.3
	L115.1,134.3z"/>
<path class="st4" d="M115.1,121c0-2.4,1.9-4.3,4.2-4.3c2.3,0,4.2,1.9,4.2,4.2c0,2.3-1.9,4.2-4.2,4.2
	C117,125.2,115.1,123.3,115.1,121z"/>
<path class="st5" d="M0,134.6c0-2.4,1.9-4.3,4.2-4.3s4.2,1.9,4.2,4.2s-1.9,4.2-4.2,4.2C1.9,138.8,0,136.9,0,134.6L0,134.6z"/>
<path class="st6" d="M99.1,15.3c-7.1,1.3-13.7,4.2-19.2,8.3"/>
<path class="st0" d="M98.7,14.3l0.3-0.1l0.4,2.2l-0.3,0.1L98.7,14.3z"/>
<path class="st0" d="M79.1,22.9l0.2-0.2l1.3,1.8l-0.2,0.2L79.1,22.9z"/>
<path class="st6" d="M106.5,14.6c-2,0-4,0.2-5.9,0.5"/>
<path class="st0" d="M106.3,13.5l0.3,0l0.1,2.2l-0.3,0L106.3,13.5z"/>
<path class="st0" d="M100.3,14l0.3,0l0.3,2.2l-0.3,0L100.3,14z"/>
<path class="st7" d="M84.4,33.5c-8.6,6.8-14.1,17.3-14.1,29c0,20.4,16.5,37,37,37c4.3,0,8.4-0.7,12.3-2.1"/>
<path class="st8" d="M100.9,26.2c-6.2,1.1-11.8,3.7-16.5,7.4"/>
<path class="st9" d="M107.3,25.6c-2.2,0-4.3,0.2-6.4,0.5"/>
<path class="st10" d="M119.6,97.5c14.4-5.1,24.7-18.8,24.7-34.9c0-20.4-16.6-37-37-37"/>
<path d="M17.5,123.5c-0.5,0-1-0.1-1.3-0.3c-0.4-0.2-0.6-0.5-0.8-0.9s-0.3-0.9-0.3-1.4s0.1-1,0.3-1.4s0.5-0.7,0.8-0.9
	c0.4-0.2,0.8-0.3,1.3-0.3c0.6,0,1.1,0.2,1.5,0.5s0.7,0.7,0.8,1.2H19c-0.1-0.4-0.3-0.6-0.5-0.9c-0.3-0.2-0.6-0.3-1-0.3
	s-0.7,0.1-0.9,0.2c-0.2,0.2-0.4,0.4-0.6,0.7s-0.2,0.6-0.2,1s0.1,0.7,0.2,1c0.1,0.3,0.3,0.5,0.6,0.7c0.2,0.2,0.6,0.2,0.9,0.2
	c0.4,0,0.7-0.1,1-0.3s0.4-0.5,0.5-0.8l0.8,0.2c-0.2,0.5-0.4,0.9-0.8,1.2C18.6,123.4,18.1,123.5,17.5,123.5L17.5,123.5z"/>
<path d="M22.5,123.5c-0.4,0-0.7-0.1-1-0.3s-0.5-0.4-0.7-0.7s-0.2-0.7-0.2-1.1s0.1-0.8,0.2-1.1c0.2-0.3,0.4-0.5,0.7-0.7
	s0.6-0.3,1-0.3s0.7,0.1,1,0.3s0.5,0.4,0.7,0.7s0.2,0.7,0.2,1.1s-0.1,0.8-0.2,1.1c-0.2,0.3-0.4,0.5-0.7,0.7S22.9,123.5,22.5,123.5z
	 M22.5,122.8c0.4,0,0.6-0.1,0.8-0.4s0.3-0.6,0.3-1s-0.1-0.7-0.3-1c-0.2-0.2-0.5-0.4-0.8-0.4s-0.5,0.1-0.6,0.2
	c-0.2,0.1-0.3,0.3-0.4,0.5s-0.1,0.4-0.1,0.7c0,0.4,0.1,0.7,0.3,1S22.2,122.8,22.5,122.8z"/>
<path d="M25.5,123.4v-3.9h0.7v1.1h0.1v2.8H25.5z M28.2,123.4v-1.9c0-0.2,0-0.3,0-0.5s-0.1-0.3-0.1-0.4c-0.1-0.1-0.2-0.2-0.3-0.3
	s-0.3-0.1-0.5-0.1c-0.1,0-0.3,0-0.4,0.1s-0.2,0.1-0.3,0.2s-0.2,0.2-0.2,0.4c-0.1,0.2-0.1,0.4-0.1,0.6l-0.5-0.2
	c0-0.4,0.1-0.7,0.2-0.9c0.1-0.3,0.3-0.5,0.6-0.6c0.2-0.2,0.5-0.2,0.9-0.2c0.3,0,0.5,0,0.7,0.1s0.3,0.2,0.4,0.3s0.2,0.3,0.3,0.5
	s0.1,0.3,0.1,0.5v0.4v2.2h-0.8L28.2,123.4z"/>
<path d="M31.6,123.5c-0.5,0-0.9-0.1-1.2-0.3s-0.5-0.5-0.5-0.9l0.8-0.1c0,0.2,0.2,0.4,0.3,0.5s0.4,0.2,0.6,0.2s0.4,0,0.6-0.1
	c0.2-0.1,0.2-0.2,0.2-0.4c0-0.1,0-0.2-0.1-0.2c0-0.1-0.1-0.1-0.3-0.2c-0.1-0.1-0.4-0.1-0.7-0.2s-0.6-0.2-0.8-0.3s-0.3-0.2-0.4-0.3
	s-0.1-0.3-0.1-0.5s0.1-0.4,0.2-0.6s0.3-0.3,0.5-0.4s0.5-0.1,0.8-0.1s0.6,0,0.8,0.1s0.4,0.2,0.6,0.4s0.2,0.4,0.3,0.6l-0.8,0.1
	c0-0.2-0.1-0.3-0.3-0.4c-0.1-0.1-0.3-0.2-0.6-0.2c-0.2,0-0.4,0-0.6,0.1s-0.2,0.2-0.2,0.3s0,0.2,0.1,0.2s0.2,0.1,0.3,0.2
	c0.2,0.1,0.4,0.1,0.7,0.2s0.6,0.2,0.8,0.3s0.3,0.2,0.4,0.4c0.1,0.1,0.1,0.3,0.1,0.5c0,0.4-0.1,0.7-0.4,0.9S32.1,123.5,31.6,123.5z"
	/>
<path d="M36,123.5c-0.4,0-0.7-0.1-1-0.3s-0.5-0.4-0.7-0.7s-0.2-0.7-0.2-1.1s0.1-0.8,0.2-1.1c0.2-0.3,0.4-0.5,0.7-0.7s0.6-0.3,1-0.3
	s0.7,0.1,1,0.3s0.5,0.4,0.7,0.7s0.2,0.7,0.2,1.1s-0.1,0.8-0.2,1.1c-0.2,0.3-0.4,0.5-0.7,0.7S36.4,123.5,36,123.5z M36,122.8
	c0.4,0,0.6-0.1,0.8-0.4s0.3-0.6,0.3-1s-0.1-0.7-0.3-1c-0.2-0.2-0.5-0.4-0.8-0.4s-0.5,0.1-0.6,0.2c-0.2,0.1-0.3,0.3-0.4,0.5
	s-0.1,0.4-0.1,0.7c0,0.4,0.1,0.7,0.3,1S35.6,122.8,36,122.8z"/>
<path d="M39,123.4v-5.3h0.8v5.3H39z"/>
<path d="M41.1,118.9v-0.7h0.8v0.7H41.1z M41.1,123.4v-3.9h0.8v3.9H41.1z"/>
<path d="M44.7,123.5c-0.4,0-0.7-0.1-0.9-0.3c-0.3-0.2-0.5-0.4-0.6-0.7s-0.2-0.7-0.2-1c0-0.4,0.1-0.7,0.2-1s0.3-0.5,0.6-0.7
	s0.6-0.3,0.9-0.3c0.4,0,0.7,0.1,0.9,0.3s0.4,0.4,0.6,0.7s0.2,0.7,0.2,1s-0.1,0.7-0.2,1s-0.3,0.6-0.6,0.7
	C45.4,123.4,45.1,123.5,44.7,123.5z M44.8,122.8c0.2,0,0.4-0.1,0.6-0.2s0.3-0.3,0.3-0.5c0.1-0.2,0.1-0.4,0.1-0.7s0-0.5-0.1-0.7
	s-0.2-0.4-0.3-0.5c-0.2-0.1-0.3-0.2-0.6-0.2c-0.2,0-0.5,0.1-0.6,0.2s-0.3,0.3-0.4,0.5s-0.1,0.4-0.1,0.7s0,0.5,0.1,0.7
	s0.2,0.4,0.4,0.5S44.6,122.8,44.8,122.8z M45.9,123.4v-2.8h-0.1v-2.4h0.8v5.2L45.9,123.4z"/>
<path d="M49.5,123.5c-0.4,0-0.7-0.1-1-0.3s-0.5-0.4-0.7-0.7s-0.2-0.7-0.2-1.1s0.1-0.8,0.2-1.1c0.2-0.3,0.4-0.6,0.7-0.7
	s0.6-0.3,1-0.3s0.7,0.1,1,0.3s0.5,0.4,0.6,0.8c0.1,0.3,0.2,0.7,0.2,1.2h-0.8v-0.3c0-0.5-0.1-0.8-0.3-1s-0.4-0.3-0.8-0.3
	s-0.7,0.1-0.8,0.4c-0.2,0.2-0.3,0.6-0.3,1s0.1,0.8,0.3,1s0.5,0.3,0.8,0.3c0.2,0,0.4-0.1,0.6-0.2s0.3-0.3,0.4-0.5l0.7,0.2
	c-0.2,0.3-0.4,0.6-0.7,0.8C50.3,123.4,49.9,123.5,49.5,123.5z M48.2,121.7v-0.6H51v0.6H48.2z"/>
<path d="M52.4,123.4v-3.9H53v0.9l-0.1-0.1c0-0.1,0.1-0.2,0.2-0.3l0.3-0.3c0.1-0.1,0.2-0.1,0.3-0.2c0.1,0,0.2-0.1,0.4-0.1h0.4v0.7
	c-0.1,0-0.3,0-0.4,0c-0.2,0-0.3,0.1-0.4,0.1c-0.1,0.1-0.2,0.2-0.3,0.3s-0.1,0.2-0.2,0.4v0.4v2L52.4,123.4L52.4,123.4z"/>
<path d="M56.9,123.4v-3.9h0.7v1.1h0.1v2.8H56.9z M59.6,123.4v-1.9c0-0.2,0-0.3,0-0.5s-0.1-0.3-0.1-0.4c-0.1-0.1-0.2-0.2-0.3-0.3
	s-0.3-0.1-0.5-0.1c-0.1,0-0.3,0-0.4,0.1s-0.2,0.1-0.3,0.2s-0.2,0.2-0.2,0.4c-0.1,0.2-0.1,0.4-0.1,0.6l-0.5-0.2
	c0-0.4,0.1-0.7,0.2-0.9c0.1-0.3,0.3-0.5,0.6-0.6c0.2-0.2,0.5-0.2,0.9-0.2c0.3,0,0.5,0,0.7,0.1s0.3,0.2,0.4,0.3s0.2,0.3,0.3,0.5
	s0.1,0.3,0.1,0.5v0.4v2.2h-0.8L59.6,123.4z"/>
<path d="M63.3,123.5c-0.4,0-0.7-0.1-1-0.3s-0.5-0.4-0.7-0.7s-0.2-0.7-0.2-1.1s0.1-0.8,0.2-1.1c0.2-0.3,0.4-0.5,0.7-0.7
	s0.6-0.3,1-0.3s0.7,0.1,1,0.3s0.5,0.4,0.7,0.7s0.2,0.7,0.2,1.1s-0.1,0.8-0.2,1.1c-0.2,0.3-0.4,0.5-0.7,0.7S63.7,123.5,63.3,123.5z
	 M63.3,122.8c0.4,0,0.6-0.1,0.8-0.4c0.2-0.3,0.3-0.6,0.3-1s-0.1-0.7-0.3-1c-0.2-0.2-0.5-0.4-0.8-0.4s-0.5,0.1-0.6,0.2
	c-0.2,0.1-0.3,0.3-0.4,0.5s-0.1,0.4-0.1,0.7c0,0.4,0.1,0.7,0.3,1S62.9,122.8,63.3,122.8z"/>
<path d="M67.7,123.5c-0.5,0-0.9-0.1-1.2-0.3s-0.5-0.5-0.5-0.9l0.8-0.1c0,0.2,0.2,0.4,0.3,0.5s0.4,0.2,0.6,0.2s0.4,0,0.6-0.1
	s0.2-0.2,0.2-0.4c0-0.1,0-0.2-0.1-0.2c0-0.1-0.1-0.1-0.3-0.2c-0.1-0.1-0.4-0.1-0.7-0.2s-0.6-0.2-0.8-0.3s-0.3-0.2-0.4-0.3
	s-0.1-0.3-0.1-0.5s0.1-0.4,0.2-0.6s0.3-0.3,0.5-0.4s0.5-0.1,0.8-0.1s0.6,0,0.8,0.1s0.4,0.2,0.6,0.4s0.2,0.4,0.3,0.6l-0.8,0.1
	c0-0.2-0.1-0.3-0.3-0.4c-0.1-0.1-0.3-0.2-0.6-0.2c-0.2,0-0.4,0-0.6,0.1s-0.2,0.2-0.2,0.3s0,0.2,0.1,0.2s0.2,0.1,0.3,0.2
	c0.2,0.1,0.4,0.1,0.7,0.2s0.6,0.2,0.8,0.3s0.3,0.2,0.4,0.4c0.1,0.1,0.1,0.3,0.1,0.5c0,0.4-0.1,0.7-0.4,0.9S68.2,123.5,67.7,123.5z"
	/>
<path d="M71.8,123.4v-3.9h0.7v1.1h0.1v2.8H71.8z M74.1,123.4V121c0-0.3-0.1-0.5-0.2-0.7s-0.3-0.2-0.6-0.2c-0.2,0-0.4,0.1-0.6,0.2
	c-0.1,0.2-0.2,0.4-0.2,0.6l-0.4-0.2c0-0.3,0.1-0.5,0.2-0.7s0.3-0.4,0.5-0.5s0.4-0.2,0.7-0.2s0.5,0.1,0.7,0.2s0.3,0.3,0.4,0.5
	s0.2,0.4,0.2,0.7v2.6L74.1,123.4L74.1,123.4z M76.4,123.4V121c0-0.3-0.1-0.5-0.2-0.7s-0.3-0.2-0.6-0.2c-0.1,0-0.3,0-0.4,0.1
	s-0.2,0.2-0.3,0.3s-0.1,0.3-0.1,0.5l-0.4-0.2c0-0.3,0.1-0.5,0.2-0.7s0.3-0.4,0.5-0.5s0.4-0.2,0.7-0.2c0.4,0,0.7,0.1,1,0.4
	c0.2,0.3,0.3,0.6,0.3,1v2.6L76.4,123.4z"/>
<path d="M80.1,123.5c-0.4,0-0.7-0.1-1-0.3s-0.5-0.4-0.7-0.7s-0.2-0.7-0.2-1.1s0.1-0.8,0.2-1.1c0.2-0.3,0.4-0.6,0.7-0.7
	s0.6-0.3,1-0.3s0.7,0.1,1,0.3s0.5,0.4,0.6,0.8c0.1,0.3,0.2,0.7,0.2,1.2h-0.8v-0.3c0-0.5-0.1-0.8-0.3-1S80.4,120,80,120
	s-0.7,0.1-0.8,0.4c-0.2,0.2-0.3,0.6-0.3,1s0.1,0.8,0.3,1s0.5,0.3,0.8,0.3c0.2,0,0.4-0.1,0.6-0.2s0.3-0.3,0.4-0.5l0.7,0.2
	c-0.2,0.3-0.4,0.6-0.7,0.8C80.8,123.4,80.5,123.5,80.1,123.5L80.1,123.5z M78.7,121.7v-0.6h2.8v0.6H78.7z"/>
<path d="M84.4,123.5c-0.5,0-0.9-0.1-1.2-0.3s-0.5-0.5-0.5-0.9l0.8-0.1c0,0.2,0.2,0.4,0.3,0.5s0.4,0.2,0.6,0.2s0.4,0,0.6-0.1
	s0.2-0.2,0.2-0.4c0-0.1,0-0.2-0.1-0.2c0-0.1-0.1-0.1-0.3-0.2c-0.1-0.1-0.4-0.1-0.7-0.2s-0.6-0.2-0.8-0.3s-0.3-0.2-0.4-0.3
	s-0.1-0.3-0.1-0.5s0.1-0.4,0.2-0.6s0.3-0.3,0.5-0.4s0.5-0.1,0.8-0.1s0.6,0,0.8,0.1s0.4,0.2,0.6,0.4s0.2,0.4,0.3,0.6l-0.8,0.1
	c0-0.2-0.1-0.3-0.3-0.4c-0.1-0.1-0.3-0.2-0.6-0.2c-0.2,0-0.4,0-0.6,0.1s-0.2,0.2-0.2,0.3s0,0.2,0.1,0.2s0.2,0.1,0.3,0.2
	c0.2,0.1,0.4,0.1,0.7,0.2s0.6,0.2,0.8,0.3s0.3,0.2,0.4,0.4c0.1,0.1,0.1,0.3,0.1,0.5c0,0.4-0.1,0.7-0.4,0.9S84.9,123.5,84.4,123.5z"
	/>
<path d="M88.5,123.5c-0.3,0-0.5,0-0.7-0.1s-0.3-0.2-0.4-0.3s-0.2-0.3-0.3-0.5s-0.1-0.3-0.1-0.5s0-0.3,0-0.4v-2.2h0.8v1.9v0.5
	c0,0.2,0.1,0.3,0.1,0.4l0.3,0.3c0.1,0.1,0.3,0.1,0.5,0.1c0.1,0,0.3,0,0.4-0.1s0.2-0.1,0.3-0.2s0.2-0.2,0.2-0.4
	c0.1-0.2,0.1-0.4,0.1-0.6l0.5,0.2c0,0.4-0.1,0.7-0.2,0.9c-0.1,0.3-0.3,0.5-0.6,0.6C89.2,123.4,88.9,123.5,88.5,123.5z M89.8,123.4
	v-1.1h-0.1v-2.8h0.8v3.9H89.8z"/>
<path d="M91.8,123.4v-3.9h0.7v0.9l-0.1-0.1c0-0.1,0.1-0.2,0.2-0.3l0.3-0.3c0.1-0.1,0.2-0.1,0.3-0.2c0.1,0,0.2-0.1,0.4-0.1H94v0.7
	c-0.1,0-0.3,0-0.4,0c-0.2,0-0.3,0.1-0.4,0.1c-0.1,0.1-0.2,0.2-0.3,0.3s-0.1,0.2-0.2,0.4v0.4v2L91.8,123.4L91.8,123.4z"/>
<path d="M96.5,123.5c-0.4,0-0.7-0.1-1-0.3s-0.5-0.4-0.7-0.7s-0.2-0.7-0.2-1.1s0.1-0.8,0.2-1.1c0.2-0.3,0.4-0.6,0.7-0.7
	s0.6-0.3,1-0.3s0.7,0.1,1,0.3s0.5,0.4,0.6,0.8c0.1,0.3,0.2,0.7,0.2,1.2h-0.8v-0.3c0-0.5-0.1-0.8-0.3-1s-0.4-0.3-0.8-0.3
	s-0.7,0.1-0.8,0.4c-0.2,0.2-0.3,0.6-0.3,1s0.1,0.8,0.3,1s0.5,0.3,0.8,0.3c0.2,0,0.4-0.1,0.6-0.2s0.3-0.3,0.4-0.5l0.7,0.2
	c-0.2,0.3-0.4,0.6-0.7,0.8C97.2,123.4,96.8,123.5,96.5,123.5L96.5,123.5z M95.1,121.7v-0.6h2.8v0.6H95.1z"/>
<path d="M100.8,123.5c-0.5,0-0.9-0.1-1.2-0.3s-0.5-0.5-0.5-0.9l0.8-0.1c0,0.2,0.2,0.4,0.3,0.5s0.4,0.2,0.6,0.2s0.4,0,0.6-0.1
	s0.2-0.2,0.2-0.4c0-0.1,0-0.2-0.1-0.2c0-0.1-0.1-0.1-0.3-0.2c-0.1-0.1-0.4-0.1-0.7-0.2s-0.6-0.2-0.8-0.3s-0.3-0.2-0.4-0.3
	s-0.1-0.3-0.1-0.5s0.1-0.4,0.2-0.6s0.3-0.3,0.5-0.4s0.5-0.1,0.8-0.1s0.6,0,0.8,0.1s0.4,0.2,0.6,0.4s0.2,0.4,0.3,0.6l-0.8,0.1
	c0-0.2-0.1-0.3-0.3-0.4c-0.1-0.1-0.3-0.2-0.6-0.2c-0.2,0-0.4,0-0.6,0.1s-0.2,0.2-0.2,0.3s0,0.2,0.1,0.2s0.2,0.1,0.3,0.2
	c0.2,0.1,0.4,0.1,0.7,0.2s0.6,0.2,0.8,0.3s0.3,0.2,0.4,0.4c0.1,0.1,0.1,0.3,0.1,0.5c0,0.4-0.1,0.7-0.4,0.9S101.3,123.5,100.8,123.5z
	"/>
<path d="M17.5,137.5c-0.5,0-1-0.1-1.3-0.3c-0.4-0.2-0.6-0.5-0.8-0.9s-0.3-0.9-0.3-1.4s0.1-1,0.3-1.4s0.5-0.7,0.8-0.9
	c0.4-0.2,0.8-0.3,1.3-0.3c0.6,0,1.1,0.2,1.5,0.5s0.7,0.7,0.8,1.2l-0.8,0.2c-0.1-0.4-0.3-0.6-0.5-0.9c-0.3-0.2-0.6-0.3-1-0.3
	s-0.7,0.1-0.9,0.2c-0.2,0.2-0.4,0.4-0.6,0.7s-0.2,0.6-0.2,1s0.1,0.7,0.2,1c0.1,0.3,0.3,0.5,0.6,0.7c0.2,0.2,0.6,0.2,0.9,0.2
	c0.4,0,0.7-0.1,1-0.3s0.4-0.5,0.5-0.8l0.8,0.2c-0.2,0.5-0.4,0.9-0.8,1.2C18.6,137.3,18.1,137.5,17.5,137.5L17.5,137.5z"/>
<path d="M22.5,137.5c-0.4,0-0.7-0.1-1-0.3s-0.5-0.4-0.7-0.7s-0.2-0.7-0.2-1.1s0.1-0.8,0.2-1.1c0.2-0.3,0.4-0.5,0.7-0.7
	s0.6-0.3,1-0.3s0.7,0.1,1,0.3s0.5,0.4,0.7,0.7s0.2,0.7,0.2,1.1s-0.1,0.8-0.2,1.1c-0.2,0.3-0.4,0.5-0.7,0.7S22.9,137.5,22.5,137.5z
	 M22.5,136.7c0.4,0,0.6-0.1,0.8-0.4s0.3-0.6,0.3-1s-0.1-0.7-0.3-1c-0.2-0.2-0.5-0.4-0.8-0.4s-0.5,0.1-0.6,0.2
	c-0.2,0.1-0.3,0.3-0.4,0.5s-0.1,0.4-0.1,0.7c0,0.4,0.1,0.7,0.3,1S22.2,136.7,22.5,136.7z"/>
<path d="M25.5,137.3v-3.9h0.7v1.1h0.1v2.8L25.5,137.3z M28.2,137.3v-1.9c0-0.2,0-0.3,0-0.5s-0.1-0.3-0.1-0.4
	c-0.1-0.1-0.2-0.2-0.3-0.3s-0.3-0.1-0.5-0.1c-0.1,0-0.3,0-0.4,0.1s-0.2,0.1-0.3,0.2s-0.2,0.2-0.2,0.4c-0.1,0.2-0.1,0.4-0.1,0.6
	l-0.5-0.2c0-0.4,0.1-0.7,0.2-0.9c0.1-0.3,0.3-0.5,0.6-0.6c0.2-0.2,0.5-0.2,0.9-0.2c0.3,0,0.5,0,0.7,0.1s0.3,0.2,0.4,0.3
	s0.2,0.3,0.3,0.5s0.1,0.3,0.1,0.5v0.4v2.2h-0.8L28.2,137.3z"/>
<path d="M31.6,137.4c-0.5,0-0.9-0.1-1.2-0.3s-0.5-0.5-0.5-0.9l0.8-0.1c0,0.2,0.2,0.4,0.3,0.5s0.4,0.2,0.6,0.2s0.4,0,0.6-0.1
	c0.2-0.1,0.2-0.2,0.2-0.4c0-0.1,0-0.2-0.1-0.2c0-0.1-0.1-0.1-0.3-0.2c-0.1-0.1-0.4-0.1-0.7-0.2s-0.6-0.2-0.8-0.3s-0.3-0.2-0.4-0.3
	s-0.1-0.3-0.1-0.5s0.1-0.4,0.2-0.6s0.3-0.3,0.5-0.4s0.5-0.1,0.8-0.1s0.6,0,0.8,0.1s0.4,0.2,0.6,0.4s0.2,0.4,0.3,0.6l-0.8,0.1
	c0-0.2-0.1-0.3-0.3-0.4c-0.1-0.1-0.3-0.2-0.6-0.2c-0.2,0-0.4,0-0.6,0.1s-0.2,0.2-0.2,0.3s0,0.2,0.1,0.2s0.2,0.1,0.3,0.2
	c0.2,0.1,0.4,0.1,0.7,0.2s0.6,0.2,0.8,0.3s0.3,0.2,0.4,0.4c0.1,0.1,0.1,0.3,0.1,0.5c0,0.4-0.1,0.7-0.4,0.9S32.1,137.4,31.6,137.4z"
	/>
<path d="M36,137.5c-0.4,0-0.7-0.1-1-0.3s-0.5-0.4-0.7-0.7s-0.2-0.7-0.2-1.1s0.1-0.8,0.2-1.1c0.2-0.3,0.4-0.6,0.7-0.7s0.6-0.3,1-0.3
	s0.7,0.1,1,0.3s0.5,0.4,0.6,0.8c0.1,0.3,0.2,0.7,0.2,1.2H37v-0.3c0-0.5-0.1-0.8-0.3-1s-0.4-0.3-0.8-0.3s-0.7,0.1-0.8,0.4
	c-0.2,0.2-0.3,0.6-0.3,1s0.1,0.8,0.3,1s0.5,0.3,0.8,0.3c0.2,0,0.4-0.1,0.6-0.2s0.3-0.3,0.4-0.5l0.7,0.2c-0.2,0.3-0.4,0.6-0.7,0.8
	C36.7,137.4,36.4,137.5,36,137.5L36,137.5z M34.6,135.6V135h2.8v0.6H34.6z"/>
<path d="M38.8,137.3v-3.9h0.7v0.9l-0.1-0.1c0-0.1,0.1-0.2,0.2-0.3s0.2-0.2,0.3-0.3s0.2-0.1,0.3-0.2c0.1,0,0.2-0.1,0.4-0.1H41v0.7
	c-0.1,0-0.3,0-0.4,0c-0.2,0-0.3,0.1-0.4,0.1c-0.1,0.1-0.2,0.2-0.3,0.3s-0.1,0.2-0.2,0.4v0.4v2h-0.9V137.3z"/>
<path d="M43.1,137.3l-1.4-3.9h0.8l1,2.9l1-2.9h0.8l-1.4,3.9H43.1z"/>
<path d="M47.7,137.5c-0.4,0-0.7-0.1-1-0.3s-0.5-0.4-0.7-0.7s-0.2-0.7-0.2-1.1s0.1-0.8,0.2-1.1c0.2-0.3,0.4-0.6,0.7-0.7
	s0.6-0.3,1-0.3s0.7,0.1,1,0.3s0.5,0.4,0.6,0.8c0.1,0.3,0.2,0.7,0.2,1.2h-0.8v-0.3c0-0.5-0.1-0.8-0.3-1S48,134,47.6,134
	s-0.7,0.1-0.8,0.4c-0.2,0.2-0.3,0.6-0.3,1s0.1,0.8,0.3,1s0.5,0.3,0.8,0.3c0.2,0,0.4-0.1,0.6-0.2s0.3-0.3,0.4-0.5l0.7,0.2
	c-0.2,0.3-0.4,0.6-0.7,0.8C48.5,137.4,48.1,137.5,47.7,137.5L47.7,137.5z M46.4,135.6V135h2.8v0.6H46.4z"/>
<path d="M50.6,137.3v-3.9h0.7v0.9l-0.1-0.1c0-0.1,0.1-0.2,0.2-0.3l0.3-0.3c0.1-0.1,0.2-0.1,0.3-0.2c0.1,0,0.2-0.1,0.4-0.1h0.4v0.7
	c-0.1,0-0.3,0-0.4,0c-0.2,0-0.3,0.1-0.4,0.1c-0.1,0.1-0.2,0.2-0.3,0.3s-0.1,0.2-0.2,0.4v0.4v2h-0.9V137.3z"/>
<path d="M55.1,137.3V132h0.8v5.3H55.1z"/>
<path d="M58.9,137.5c-0.4,0-0.7-0.1-1-0.3s-0.5-0.4-0.7-0.7s-0.2-0.7-0.2-1.1s0.1-0.8,0.2-1.1c0.2-0.3,0.4-0.6,0.7-0.7
	s0.6-0.3,1-0.3s0.7,0.1,1,0.3s0.5,0.4,0.6,0.8c0.1,0.3,0.2,0.7,0.2,1.2H60v-0.3c0-0.5-0.1-0.8-0.3-1s-0.4-0.3-0.8-0.3
	s-0.7,0.1-0.8,0.4c-0.2,0.2-0.3,0.6-0.3,1s0.1,0.8,0.3,1s0.5,0.3,0.8,0.3c0.2,0,0.4-0.1,0.6-0.2s0.3-0.3,0.4-0.5l0.7,0.2
	c-0.2,0.3-0.4,0.6-0.7,0.8C59.7,137.4,59.3,137.5,58.9,137.5L58.9,137.5z M57.6,135.6V135h2.8v0.6H57.6z"/>
<path d="M63.3,137.4c-0.5,0-0.9-0.1-1.2-0.3s-0.5-0.5-0.5-0.9l0.8-0.1c0,0.2,0.2,0.4,0.3,0.5s0.4,0.2,0.6,0.2s0.4,0,0.6-0.1
	s0.2-0.2,0.2-0.4c0-0.1,0-0.2-0.1-0.2c0-0.1-0.1-0.1-0.3-0.2c-0.1-0.1-0.4-0.1-0.7-0.2s-0.6-0.2-0.8-0.3s-0.3-0.2-0.4-0.3
	s-0.1-0.3-0.1-0.5s0.1-0.4,0.2-0.6s0.3-0.3,0.5-0.4s0.5-0.1,0.8-0.1s0.6,0,0.8,0.1c0.2,0.1,0.4,0.2,0.6,0.4s0.2,0.4,0.3,0.6
	l-0.8,0.1c0-0.2-0.1-0.3-0.3-0.4c-0.1-0.1-0.3-0.2-0.6-0.2c-0.2,0-0.4,0-0.6,0.1s-0.2,0.2-0.2,0.3s0,0.2,0.1,0.2s0.2,0.1,0.3,0.2
	c0.2,0.1,0.4,0.1,0.7,0.2s0.6,0.2,0.8,0.3s0.3,0.2,0.4,0.4c0.1,0.1,0.1,0.3,0.1,0.5c0,0.4-0.1,0.7-0.4,0.9S63.7,137.4,63.3,137.4z"
	/>
<path d="M67.3,137.3v-3.9H68v1.1h0.1v2.8L67.3,137.3z M69.7,137.3v-2.4c0-0.3-0.1-0.5-0.2-0.7s-0.3-0.2-0.6-0.2
	c-0.2,0-0.4,0.1-0.6,0.2c-0.1,0.2-0.2,0.4-0.2,0.6l-0.4-0.2c0-0.3,0.1-0.5,0.2-0.7s0.3-0.4,0.5-0.5s0.4-0.2,0.7-0.2s0.5,0.1,0.7,0.2
	s0.3,0.3,0.4,0.5s0.2,0.4,0.2,0.7v2.6L69.7,137.3L69.7,137.3z M72,137.3v-2.4c0-0.3-0.1-0.5-0.2-0.7s-0.3-0.2-0.6-0.2
	c-0.1,0-0.3,0-0.4,0.1s-0.2,0.2-0.3,0.3s-0.1,0.3-0.1,0.5l-0.4-0.2c0-0.3,0.1-0.5,0.2-0.7s0.3-0.4,0.5-0.5s0.4-0.2,0.7-0.2
	c0.4,0,0.7,0.1,1,0.4c0.2,0.3,0.3,0.6,0.3,1v2.6L72,137.3z"/>
<path d="M75.7,137.5c-0.4,0-0.7-0.1-1-0.3s-0.5-0.4-0.7-0.7s-0.2-0.7-0.2-1.1s0.1-0.8,0.2-1.1c0.2-0.3,0.4-0.6,0.7-0.7
	s0.6-0.3,1-0.3s0.7,0.1,1,0.3s0.5,0.4,0.6,0.8c0.1,0.3,0.2,0.7,0.2,1.2h-0.8v-0.3c0-0.5-0.1-0.8-0.3-1S76,134,75.6,134
	s-0.7,0.1-0.8,0.4c-0.2,0.2-0.3,0.6-0.3,1s0.1,0.8,0.3,1s0.5,0.3,0.8,0.3c0.2,0,0.4-0.1,0.6-0.2s0.3-0.3,0.4-0.5l0.7,0.2
	c-0.2,0.3-0.4,0.6-0.7,0.8C76.4,137.4,76.1,137.5,75.7,137.5L75.7,137.5z M74.3,135.6V135h2.8v0.6H74.3z M74.8,133l-0.3-0.5l1.2-0.7
	l1.2,0.7l-0.3,0.5l-0.9-0.5L74.8,133z"/>
<path d="M78.5,137.3v-3.9h0.7v1.1h0.1v2.8L78.5,137.3z M80.9,137.3v-2.4c0-0.3-0.1-0.5-0.2-0.7s-0.3-0.2-0.6-0.2
	c-0.2,0-0.4,0.1-0.6,0.2c-0.1,0.2-0.2,0.4-0.2,0.6l-0.4-0.2c0-0.3,0.1-0.5,0.2-0.7s0.3-0.4,0.5-0.5s0.4-0.2,0.7-0.2s0.5,0.1,0.7,0.2
	s0.3,0.3,0.4,0.5s0.2,0.4,0.2,0.7v2.6L80.9,137.3L80.9,137.3z M83.2,137.3v-2.4c0-0.3-0.1-0.5-0.2-0.7s-0.3-0.2-0.6-0.2
	c-0.1,0-0.3,0-0.4,0.1s-0.2,0.2-0.3,0.3s-0.1,0.3-0.1,0.5l-0.4-0.2c0-0.3,0.1-0.5,0.2-0.7s0.3-0.4,0.5-0.5s0.4-0.2,0.7-0.2
	c0.4,0,0.7,0.1,1,0.4c0.2,0.3,0.3,0.6,0.3,1v2.6L83.2,137.3z"/>
<path d="M86.9,137.5c-0.4,0-0.7-0.1-1-0.3s-0.5-0.4-0.7-0.7s-0.2-0.7-0.2-1.1s0.1-0.8,0.2-1.1c0.2-0.3,0.4-0.6,0.7-0.7
	s0.6-0.3,1-0.3s0.7,0.1,1,0.3s0.5,0.4,0.6,0.8c0.1,0.3,0.2,0.7,0.2,1.2h-0.8v-0.3c0-0.5-0.1-0.8-0.3-1s-0.4-0.3-0.8-0.3
	s-0.7,0.1-0.8,0.4c-0.2,0.2-0.3,0.6-0.3,1s0.1,0.8,0.3,1s0.5,0.3,0.8,0.3c0.2,0,0.4-0.1,0.6-0.2s0.3-0.3,0.4-0.5l0.7,0.2
	c-0.2,0.3-0.4,0.6-0.7,0.8C87.6,137.4,87.3,137.5,86.9,137.5L86.9,137.5z M85.5,135.6V135h2.8v0.6H85.5z"/>
<path d="M91.2,137.4c-0.5,0-0.9-0.1-1.2-0.3s-0.5-0.5-0.5-0.9l0.8-0.1c0,0.2,0.2,0.4,0.3,0.5s0.4,0.2,0.6,0.2s0.4,0,0.6-0.1
	s0.2-0.2,0.2-0.4c0-0.1,0-0.2-0.1-0.2c0-0.1-0.1-0.1-0.3-0.2c-0.1-0.1-0.4-0.1-0.7-0.2s-0.6-0.2-0.8-0.3s-0.3-0.2-0.4-0.3
	s-0.1-0.3-0.1-0.5s0.1-0.4,0.2-0.6s0.3-0.3,0.5-0.4s0.5-0.1,0.8-0.1s0.6,0,0.8,0.1s0.4,0.2,0.6,0.4s0.2,0.4,0.3,0.6l-0.8,0.1
	c0-0.2-0.1-0.3-0.3-0.4c-0.1-0.1-0.3-0.2-0.6-0.2c-0.2,0-0.4,0-0.6,0.1s-0.2,0.2-0.2,0.3s0,0.2,0.1,0.2s0.2,0.1,0.3,0.2
	c0.2,0.1,0.4,0.1,0.7,0.2s0.6,0.2,0.8,0.3s0.3,0.2,0.4,0.4c0.1,0.1,0.1,0.3,0.1,0.5c0,0.4-0.1,0.7-0.4,0.9S91.7,137.4,91.2,137.4z"
	/>
<path d="M15.3,146v-3.9H16v1.1h0.1v2.8L15.3,146z M17.7,146v-2.4c0-0.3-0.1-0.5-0.2-0.7s-0.3-0.2-0.6-0.2c-0.2,0-0.4,0.1-0.6,0.2
	c-0.1,0.2-0.2,0.4-0.2,0.6l-0.4-0.2c0-0.3,0.1-0.5,0.2-0.7s0.3-0.4,0.5-0.5s0.4-0.2,0.7-0.2s0.5,0.1,0.7,0.2s0.3,0.3,0.4,0.5
	s0.2,0.4,0.2,0.7v2.6L17.7,146L17.7,146z M20,146v-2.4c0-0.3-0.1-0.5-0.2-0.7s-0.3-0.2-0.6-0.2c-0.1,0-0.3,0-0.4,0.1
	s-0.2,0.2-0.3,0.3s-0.1,0.3-0.1,0.5l-0.4-0.2c0-0.3,0.1-0.5,0.2-0.7s0.3-0.4,0.5-0.5s0.4-0.2,0.7-0.2c0.4,0,0.7,0.1,1,0.4
	c0.2,0.3,0.3,0.6,0.3,1v2.6L20,146z"/>
<path d="M23.7,146.1c-0.4,0-0.7-0.1-1-0.3s-0.5-0.4-0.7-0.7s-0.2-0.7-0.2-1.1s0.1-0.8,0.2-1.1c0.2-0.3,0.4-0.6,0.7-0.7
	s0.6-0.3,1-0.3s0.7,0.1,1,0.3s0.5,0.4,0.6,0.8c0.1,0.3,0.2,0.7,0.2,1.2h-0.8V144c0-0.5-0.1-0.8-0.3-1s-0.4-0.3-0.8-0.3
	s-0.7,0.1-0.8,0.4c-0.2,0.2-0.3,0.6-0.3,1s0.1,0.8,0.3,1s0.5,0.3,0.8,0.3c0.2,0,0.4-0.1,0.6-0.2s0.3-0.3,0.4-0.5l0.7,0.2
	c-0.2,0.3-0.4,0.6-0.7,0.8C24.4,146,24.1,146.1,23.7,146.1L23.7,146.1z M22.3,144.2v-0.6h2.8v0.6H22.3z"/>
<path d="M28,146.1c-0.5,0-0.9-0.1-1.2-0.3s-0.5-0.5-0.5-0.9l0.8-0.1c0,0.2,0.2,0.4,0.3,0.5s0.4,0.2,0.6,0.2s0.4,0,0.6-0.1
	s0.2-0.2,0.2-0.4c0-0.1,0-0.2-0.1-0.2c0-0.1-0.1-0.1-0.3-0.2c-0.1-0.1-0.4-0.1-0.7-0.2s-0.6-0.2-0.8-0.3s-0.3-0.2-0.4-0.3
	s-0.1-0.3-0.1-0.5s0.1-0.4,0.2-0.6s0.3-0.3,0.5-0.4s0.5-0.1,0.8-0.1s0.6,0,0.8,0.1s0.4,0.2,0.6,0.4s0.2,0.4,0.3,0.6l-0.8,0.1
	c0-0.2-0.1-0.3-0.3-0.4c-0.1-0.1-0.3-0.2-0.6-0.2c-0.2,0-0.4,0-0.6,0.1s-0.2,0.2-0.2,0.3s0,0.2,0.1,0.2s0.2,0.1,0.3,0.2
	c0.2,0.1,0.4,0.1,0.7,0.2s0.6,0.2,0.8,0.3s0.3,0.2,0.4,0.4c0.1,0.1,0.1,0.3,0.1,0.5c0,0.4-0.1,0.7-0.4,0.9S28.5,146.1,28,146.1z"/>
<path d="M32.1,146.1c-0.3,0-0.5,0-0.7-0.1s-0.3-0.2-0.4-0.3s-0.2-0.3-0.3-0.5s-0.1-0.3-0.1-0.5s0-0.3,0-0.4v-2.2h0.8v1.9v0.5
	c0,0.2,0.1,0.3,0.1,0.4c0.1,0.1,0.2,0.2,0.3,0.3s0.3,0.1,0.5,0.1c0.1,0,0.3,0,0.4-0.1s0.2-0.1,0.3-0.2s0.2-0.2,0.2-0.4
	c0.1-0.2,0.1-0.4,0.1-0.6l0.5,0.2c0,0.4-0.1,0.7-0.2,0.9c-0.1,0.3-0.3,0.5-0.6,0.6C32.8,146,32.5,146.1,32.1,146.1L32.1,146.1z
	 M33.4,146v-1.1h-0.1v-2.8h0.8v3.9L33.4,146z"/>
<path d="M35.3,146v-3.9H36v0.9l-0.1-0.1c0-0.1,0.1-0.2,0.2-0.3s0.2-0.2,0.3-0.3s0.2-0.1,0.3-0.2c0.1,0,0.2-0.1,0.4-0.1h0.4v0.7
	c-0.1,0-0.3,0-0.4,0c-0.2,0-0.3,0.1-0.4,0.1c-0.1,0.1-0.2,0.2-0.3,0.3s-0.1,0.2-0.2,0.4v0.4v2h-0.9V146z"/>
<path d="M40,146.1c-0.4,0-0.7-0.1-1-0.3s-0.5-0.4-0.7-0.7s-0.2-0.7-0.2-1.1s0.1-0.8,0.2-1.1c0.2-0.3,0.4-0.6,0.7-0.7s0.6-0.3,1-0.3
	s0.7,0.1,1,0.3s0.5,0.4,0.6,0.8c0.1,0.3,0.2,0.7,0.2,1.2H41V144c0-0.5-0.1-0.8-0.3-1s-0.4-0.3-0.8-0.3s-0.7,0.1-0.8,0.4
	c-0.2,0.2-0.3,0.6-0.3,1s0.1,0.8,0.3,1s0.5,0.3,0.8,0.3c0.2,0,0.4-0.1,0.6-0.2s0.3-0.3,0.4-0.5l0.7,0.2c-0.2,0.3-0.4,0.6-0.7,0.8
	C40.8,146,40.4,146.1,40,146.1L40,146.1z M38.7,144.2v-0.6h2.8v0.6H38.7z"/>
<path d="M44.3,146.1c-0.5,0-0.9-0.1-1.2-0.3s-0.5-0.5-0.5-0.9l0.8-0.1c0,0.2,0.2,0.4,0.3,0.5s0.4,0.2,0.6,0.2s0.4,0,0.6-0.1
	s0.2-0.2,0.2-0.4c0-0.1,0-0.2-0.1-0.2c0-0.1-0.1-0.1-0.3-0.2c-0.1-0.1-0.4-0.1-0.7-0.2s-0.6-0.2-0.8-0.3s-0.3-0.2-0.4-0.3
	s-0.1-0.3-0.1-0.5s0.1-0.4,0.2-0.6s0.3-0.3,0.5-0.4s0.5-0.1,0.8-0.1s0.6,0,0.8,0.1s0.4,0.2,0.6,0.4s0.2,0.4,0.3,0.6l-0.8,0.1
	c0-0.2-0.1-0.3-0.3-0.4c-0.1-0.1-0.3-0.2-0.6-0.2c-0.2,0-0.4,0-0.6,0.1s-0.2,0.2-0.2,0.3s0,0.2,0.1,0.2s0.2,0.1,0.3,0.2
	c0.2,0.1,0.4,0.1,0.7,0.2s0.6,0.2,0.8,0.3s0.3,0.2,0.4,0.4c0.1,0.1,0.1,0.3,0.1,0.5c0,0.4-0.1,0.7-0.4,0.9S44.8,146.1,44.3,146.1z"
	/>
<path d="M129.5,137.5c-0.4,0-0.7-0.1-1-0.3s-0.4-0.5-0.5-0.8l0.7-0.2c0,0.2,0.1,0.3,0.3,0.4s0.3,0.2,0.5,0.2c0.1,0,0.2,0,0.4-0.1
	c0.1-0.1,0.2-0.2,0.3-0.3c0-0.1,0.1-0.2,0.1-0.3s0-0.2,0-0.4v-3.5h0.8v3.5v0.4v0.3c0,0-0.1,0.2-0.1,0.3c-0.1,0.2-0.3,0.4-0.5,0.5
	C130,137.4,129.8,137.5,129.5,137.5L129.5,137.5z"/>
<path d="M133.9,137.5c-0.4,0-0.7-0.1-1-0.3s-0.5-0.4-0.7-0.7s-0.2-0.7-0.2-1.1s0.1-0.8,0.2-1.1c0.2-0.3,0.4-0.6,0.7-0.7
	c0.3-0.2,0.6-0.3,1-0.3s0.7,0.1,1,0.3s0.5,0.4,0.6,0.8c0.1,0.3,0.2,0.7,0.2,1.2h-0.8v-0.3c0-0.5-0.1-0.8-0.3-1s-0.4-0.3-0.8-0.3
	s-0.7,0.1-0.8,0.4c-0.2,0.2-0.3,0.6-0.3,1s0.1,0.8,0.3,1s0.5,0.3,0.8,0.3c0.2,0,0.4-0.1,0.6-0.2s0.3-0.3,0.4-0.5l0.7,0.2
	c-0.2,0.3-0.4,0.6-0.7,0.8S134.3,137.5,133.9,137.5L133.9,137.5z M132.5,135.6V135h2.8v0.6H132.5z"/>
<path d="M138.2,137.4v-3.9h0.7v1.1h0.1v2.8L138.2,137.4z M140.9,137.4v-1.9c0-0.2,0-0.3,0-0.5s-0.1-0.3-0.1-0.4
	c-0.1-0.1-0.2-0.2-0.3-0.3s-0.3-0.1-0.5-0.1c-0.1,0-0.3,0-0.4,0.1c-0.1,0-0.2,0.1-0.3,0.2s-0.2,0.2-0.2,0.4
	c-0.1,0.2-0.1,0.4-0.1,0.6l-0.5-0.2c0-0.4,0.1-0.7,0.2-0.9c0.1-0.3,0.3-0.5,0.6-0.6c0.2-0.2,0.5-0.2,0.9-0.2c0.3,0,0.5,0,0.7,0.1
	s0.3,0.2,0.4,0.3s0.2,0.3,0.3,0.5s0.1,0.3,0.1,0.5v0.4v2.2h-0.8L140.9,137.4z"/>
<path d="M144.6,137.5c-0.4,0-0.7-0.1-1-0.3s-0.5-0.4-0.7-0.7s-0.2-0.7-0.2-1.1s0.1-0.8,0.2-1.1c0.2-0.3,0.4-0.6,0.7-0.7
	c0.3-0.2,0.6-0.3,1-0.3s0.7,0.1,1,0.3s0.5,0.4,0.6,0.8c0.1,0.3,0.2,0.7,0.2,1.2h-0.8v-0.3c0-0.5-0.1-0.8-0.3-1s-0.4-0.3-0.8-0.3
	s-0.7,0.1-0.8,0.4c-0.2,0.2-0.3,0.6-0.3,1s0.1,0.8,0.3,1s0.5,0.3,0.8,0.3c0.2,0,0.4-0.1,0.6-0.2s0.3-0.3,0.4-0.5l0.7,0.2
	c-0.2,0.3-0.4,0.6-0.7,0.8S145,137.5,144.6,137.5L144.6,137.5z M143.3,135.6V135h2.8v0.6H143.3z"/>
<path d="M150.4,137.5c-0.5,0-0.9-0.1-1.2-0.3s-0.5-0.5-0.5-0.9l0.8-0.1c0,0.2,0.2,0.4,0.3,0.5c0.2,0.1,0.4,0.2,0.6,0.2
	s0.4,0,0.6-0.1s0.2-0.2,0.2-0.4c0-0.1,0-0.2-0.1-0.2c0-0.1-0.1-0.1-0.3-0.2c-0.1-0.1-0.4-0.1-0.7-0.2s-0.6-0.2-0.8-0.3
	s-0.3-0.2-0.4-0.3s-0.1-0.3-0.1-0.5s0.1-0.4,0.2-0.6s0.3-0.3,0.5-0.4s0.5-0.1,0.8-0.1s0.6,0,0.8,0.1s0.4,0.2,0.6,0.4
	s0.2,0.4,0.3,0.6l-0.8,0.1c0-0.2-0.1-0.3-0.3-0.4s-0.3-0.2-0.6-0.2c-0.2,0-0.4,0-0.6,0.1c-0.1,0.1-0.2,0.2-0.2,0.3s0,0.2,0.1,0.2
	s0.2,0.1,0.3,0.2c0.2,0.1,0.4,0.1,0.7,0.2s0.6,0.2,0.8,0.3s0.3,0.2,0.4,0.4c0.1,0.1,0.1,0.3,0.1,0.5c0,0.4-0.1,0.7-0.4,0.9
	C151.3,137.3,150.9,137.5,150.4,137.5L150.4,137.5z"/>
<path d="M154.5,137.5c-0.3,0-0.5,0-0.7-0.1s-0.3-0.2-0.4-0.3s-0.2-0.3-0.3-0.5s-0.1-0.3-0.1-0.5s0-0.3,0-0.4v-2.2h0.8v1.9v0.5
	c0,0,0.1,0.3,0.1,0.4s0.2,0.2,0.3,0.3s0.3,0.1,0.5,0.1c0.1,0,0.3,0,0.4-0.1c0.1,0,0.2-0.1,0.3-0.2s0.2-0.2,0.2-0.4
	c0.1-0.2,0.1-0.4,0.1-0.6l0.5,0.2c0,0.4-0.1,0.7-0.2,0.9c-0.1,0.3-0.3,0.5-0.6,0.6C155.2,137.4,154.9,137.5,154.5,137.5L154.5,137.5
	z M155.8,137.4v-1.1h-0.1v-2.8h0.8v3.9L155.8,137.4z"/>
<path d="M157.8,132.8v-0.7h0.8v0.7H157.8z M157.8,137.4v-3.9h0.8v3.9H157.8z"/>
<path d="M161.3,137.5c-0.5,0-0.9-0.1-1.2-0.3s-0.5-0.5-0.5-0.9l0.8-0.1c0,0.2,0.2,0.4,0.3,0.5c0.2,0.1,0.4,0.2,0.6,0.2
	s0.4,0,0.6-0.1s0.2-0.2,0.2-0.4c0-0.1,0-0.2-0.1-0.2c0-0.1-0.1-0.1-0.3-0.2c-0.1-0.1-0.4-0.1-0.7-0.2s-0.6-0.2-0.8-0.3
	s-0.3-0.2-0.4-0.3s-0.1-0.3-0.1-0.5s0.1-0.4,0.2-0.6s0.3-0.3,0.5-0.4s0.5-0.1,0.8-0.1s0.6,0,0.8,0.1s0.4,0.2,0.6,0.4
	s0.2,0.4,0.3,0.6l-0.8,0.1c0-0.2-0.1-0.3-0.3-0.4s-0.3-0.2-0.6-0.2c-0.2,0-0.4,0-0.6,0.1c-0.1,0.1-0.2,0.2-0.2,0.3s0,0.2,0.1,0.2
	s0.2,0.1,0.3,0.2c0.2,0.1,0.4,0.1,0.7,0.2s0.6,0.2,0.8,0.3s0.3,0.2,0.4,0.4c0.1,0.1,0.1,0.3,0.1,0.5c0,0.4-0.1,0.7-0.4,0.9
	C162.2,137.3,161.8,137.5,161.3,137.5L161.3,137.5z"/>
<path d="M165.4,139.1v-5.6h0.7v2.8h0.1v2.8H165.4z M167.2,137.5c-0.4,0-0.7-0.1-0.9-0.3c-0.3-0.2-0.4-0.4-0.6-0.7s-0.2-0.7-0.2-1
	s0.1-0.7,0.2-1s0.3-0.6,0.6-0.7c0.2-0.2,0.6-0.3,0.9-0.3c0.4,0,0.7,0.1,0.9,0.3c0.3,0.2,0.5,0.4,0.6,0.7s0.2,0.7,0.2,1
	c0,0.4-0.1,0.7-0.2,1s-0.3,0.6-0.6,0.7C167.9,137.4,167.6,137.5,167.2,137.5z M167.1,136.8c0.2,0,0.4-0.1,0.6-0.2s0.3-0.3,0.4-0.5
	s0.1-0.4,0.1-0.7s0-0.5-0.1-0.7s-0.2-0.4-0.4-0.5s-0.4-0.2-0.6-0.2s-0.4,0.1-0.6,0.2s-0.3,0.3-0.3,0.5c-0.1,0.2-0.1,0.4-0.1,0.7
	s0,0.5,0.1,0.7s0.2,0.4,0.3,0.5S166.9,136.8,167.1,136.8z"/>
<path d="M171.1,137.5c-0.3,0-0.5-0.1-0.7-0.2s-0.3-0.2-0.4-0.4s-0.1-0.4-0.1-0.6s0-0.4,0.1-0.5s0.2-0.3,0.3-0.4s0.3-0.2,0.5-0.3
	c0.2,0,0.4-0.1,0.6-0.1s0.4-0.1,0.7-0.1c0.2,0,0.5-0.1,0.7-0.1l-0.3,0.2c0-0.3-0.1-0.5-0.2-0.7s-0.4-0.2-0.7-0.2
	c-0.2,0-0.4,0-0.6,0.1s-0.3,0.3-0.4,0.5l-0.7-0.2c0.1-0.3,0.3-0.6,0.5-0.8c0.3-0.2,0.6-0.3,1.1-0.3c0.3,0,0.6,0.1,0.9,0.2
	s0.4,0.3,0.6,0.6c0.1,0.1,0.1,0.3,0.1,0.4v0.5v2.4h-0.7v-0.9l0.1,0.1c-0.2,0.3-0.4,0.5-0.6,0.7C171.8,137.4,171.5,137.5,171.1,137.5
	L171.1,137.5z M171.2,136.8c0.2,0,0.4,0,0.5-0.1c0.2-0.1,0.3-0.2,0.4-0.3s0.2-0.2,0.2-0.4c0-0.1,0.1-0.2,0.1-0.4s0-0.3,0-0.3
	l0.2,0.1c-0.2,0-0.5,0.1-0.6,0.1c-0.2,0-0.4,0.1-0.5,0.1c-0.2,0-0.3,0.1-0.4,0.1s-0.2,0.1-0.3,0.1c-0.1,0.1-0.1,0.1-0.2,0.2
	c0,0.1-0.1,0.2-0.1,0.3s0,0.2,0.1,0.3c0,0.1,0.1,0.2,0.2,0.2L171.2,136.8z"/>
<path d="M175.9,137.5c-0.5,0-0.9-0.1-1.2-0.3s-0.5-0.5-0.5-0.9l0.8-0.1c0,0.2,0.2,0.4,0.3,0.5c0.2,0.1,0.4,0.2,0.6,0.2
	s0.4,0,0.6-0.1s0.2-0.2,0.2-0.4c0-0.1,0-0.2-0.1-0.2c0-0.1-0.1-0.1-0.3-0.2c-0.1-0.1-0.4-0.1-0.7-0.2s-0.6-0.2-0.8-0.3
	s-0.3-0.2-0.4-0.3s-0.1-0.3-0.1-0.5s0.1-0.4,0.2-0.6s0.3-0.3,0.5-0.4s0.5-0.1,0.8-0.1s0.6,0,0.8,0.1s0.4,0.2,0.6,0.4
	s0.2,0.4,0.3,0.6l-0.8,0.1c0-0.2-0.1-0.3-0.3-0.4s-0.3-0.2-0.6-0.2c-0.2,0-0.4,0-0.6,0.1c-0.1,0.1-0.2,0.2-0.2,0.3s0,0.2,0.1,0.2
	c0.1,0.1,0.2,0.1,0.3,0.2c0.2,0.1,0.4,0.1,0.7,0.2s0.6,0.2,0.8,0.3s0.3,0.2,0.4,0.4c0.1,0.1,0.1,0.3,0.1,0.5c0,0.4-0.1,0.7-0.4,0.9
	C176.7,137.3,176.4,137.5,175.9,137.5L175.9,137.5z"/>
<path d="M181.4,137.5c-0.5,0-0.9-0.1-1.2-0.3s-0.5-0.5-0.5-0.9l0.8-0.1c0,0.2,0.2,0.4,0.3,0.5c0.2,0.1,0.4,0.2,0.6,0.2
	s0.4,0,0.6-0.1s0.2-0.2,0.2-0.4c0-0.1,0-0.2-0.1-0.2c0-0.1-0.1-0.1-0.3-0.2c-0.1-0.1-0.4-0.1-0.7-0.2s-0.6-0.2-0.8-0.3
	s-0.3-0.2-0.4-0.3s-0.1-0.3-0.1-0.5s0.1-0.4,0.2-0.6s0.3-0.3,0.5-0.4s0.5-0.1,0.8-0.1s0.6,0,0.8,0.1s0.4,0.2,0.6,0.4
	s0.2,0.4,0.3,0.6l-0.8,0.1c0-0.2-0.1-0.3-0.3-0.4s-0.3-0.2-0.6-0.2c-0.2,0-0.4,0-0.6,0.1c-0.1,0.1-0.2,0.2-0.2,0.3s0,0.2,0.1,0.2
	c0.1,0.1,0.2,0.1,0.3,0.2c0.2,0.1,0.4,0.1,0.7,0.2s0.6,0.2,0.8,0.3s0.3,0.2,0.4,0.4c0.1,0.1,0.1,0.3,0.1,0.5c0,0.4-0.1,0.7-0.4,0.9
	C182.3,137.3,181.9,137.5,181.4,137.5L181.4,137.5z"/>
<path d="M185.5,137.5c-0.3,0-0.5,0-0.7-0.1s-0.3-0.2-0.4-0.3s-0.2-0.3-0.3-0.5s-0.1-0.3-0.1-0.5s0-0.3,0-0.4v-2.2h0.8v1.9v0.5
	c0,0.2,0.1,0.3,0.1,0.4l0.3,0.3c0.1,0.1,0.3,0.1,0.5,0.1c0.1,0,0.3,0,0.4-0.1s0.2-0.1,0.3-0.2s0.2-0.2,0.2-0.4
	c0.1-0.2,0.1-0.4,0.1-0.6l0.5,0.2c0,0.4-0.1,0.7-0.2,0.9s-0.3,0.5-0.6,0.6C186.2,137.4,185.9,137.5,185.5,137.5L185.5,137.5z
	 M184.9,133l-0.3-0.5l1.2-0.7l1.2,0.7l-0.3,0.5l-0.9-0.5L184.9,133z M186.8,137.4v-1.1h-0.1v-2.8h0.8v3.9L186.8,137.4z"/>
<path d="M188.8,137.4v-3.9h0.7v0.9l-0.1-0.1c0-0.1,0.1-0.2,0.2-0.3s0.2-0.2,0.3-0.3s0.2-0.1,0.3-0.2c0.1,0,0.2-0.1,0.4-0.1h0.4v0.7
	c-0.1,0-0.3,0-0.4,0c-0.2,0-0.3,0.1-0.4,0.1c-0.1,0.1-0.2,0.2-0.3,0.3s-0.1,0.2-0.2,0.4v0.4v2h-0.9V137.4z"/>
<path d="M193.5,137.5c-0.4,0-0.7-0.1-1-0.3s-0.5-0.4-0.7-0.7s-0.2-0.7-0.2-1.1s0.1-0.8,0.2-1.1c0.2-0.3,0.4-0.6,0.7-0.7
	c0.3-0.2,0.6-0.3,1-0.3s0.7,0.1,1,0.3s0.5,0.4,0.6,0.8c0.1,0.3,0.2,0.7,0.2,1.2h-0.8v-0.3c0-0.5-0.1-0.8-0.3-1s-0.4-0.3-0.8-0.3
	s-0.7,0.1-0.8,0.4c-0.2,0.2-0.3,0.6-0.3,1s0.1,0.8,0.3,1s0.5,0.3,0.8,0.3c0.2,0,0.4-0.1,0.6-0.2s0.3-0.3,0.4-0.5l0.7,0.2
	c-0.2,0.3-0.4,0.6-0.7,0.8C194.2,137.4,193.8,137.5,193.5,137.5L193.5,137.5z M192.1,135.6V135h2.8v0.6H192.1z"/>
<path d="M128.5,123.4v-5.2h2.1h0.2h0.2c0.3,0,0.5,0.1,0.7,0.3s0.3,0.3,0.4,0.6s0.1,0.5,0.1,0.8c0,0.4-0.1,0.8-0.3,1.1
	s-0.5,0.5-0.9,0.6h-0.3h-1.5v1.9h-0.7V123.4z M129.2,120.8h1.3h0.2c0,0,0.1,0,0.2,0c0.2,0,0.3-0.1,0.4-0.2s0.2-0.2,0.2-0.3
	s0.1-0.3,0.1-0.4s0-0.3-0.1-0.4c0-0.1-0.1-0.2-0.2-0.3s-0.2-0.2-0.4-0.2c-0.1,0-0.1,0-0.2,0s-0.1,0-0.2,0h-1.3V120.8z M131.5,123.4
	l-1-2.1l0.8-0.2l1.1,2.3L131.5,123.4z"/>
<path d="M135.1,123.5c-0.4,0-0.7-0.1-1-0.3s-0.5-0.4-0.7-0.7s-0.2-0.7-0.2-1.1s0.1-0.8,0.2-1.1c0.2-0.3,0.4-0.6,0.7-0.7
	c0.3-0.2,0.6-0.3,1-0.3s0.7,0.1,1,0.3s0.5,0.4,0.6,0.8c0.1,0.3,0.2,0.7,0.2,1.2h-0.8v-0.3c0-0.5-0.1-0.8-0.3-1s-0.4-0.3-0.8-0.3
	s-0.7,0.1-0.8,0.4c-0.2,0.2-0.3,0.6-0.3,1s0.1,0.8,0.3,1s0.5,0.3,0.8,0.3c0.2,0,0.4-0.1,0.6-0.2s0.3-0.3,0.4-0.5l0.7,0.2
	c-0.2,0.3-0.4,0.6-0.7,0.8C135.8,123.4,135.4,123.5,135.1,123.5z M133.7,121.7v-0.6h2.8v0.6H133.7z M135.5,119h-0.7l0.3-0.9h0.7
	L135.5,119z"/>
<path d="M139.4,123.5c-0.4,0-0.7-0.1-0.9-0.3c-0.3-0.2-0.5-0.4-0.6-0.7s-0.2-0.7-0.2-1c0-0.4,0.1-0.7,0.2-1s0.3-0.5,0.6-0.7
	s0.6-0.3,0.9-0.3c0.4,0,0.7,0.1,0.9,0.3s0.4,0.4,0.6,0.7s0.2,0.7,0.2,1s-0.1,0.7-0.2,1s-0.3,0.6-0.6,0.7
	C140.1,123.4,139.8,123.5,139.4,123.5z M139.5,122.8c0.2,0,0.4-0.1,0.6-0.2s0.3-0.3,0.3-0.5c0.1-0.2,0.1-0.4,0.1-0.7s0-0.5-0.1-0.7
	s-0.2-0.4-0.3-0.5c-0.2-0.1-0.3-0.2-0.6-0.2c-0.2,0-0.5,0.1-0.6,0.2s-0.3,0.3-0.4,0.5s-0.1,0.4-0.1,0.7s0,0.5,0.1,0.7
	s0.2,0.4,0.4,0.5C139.1,122.8,139.3,122.8,139.5,122.8z M140.6,123.4v-2.8h-0.1v-2.4h0.8v5.2L140.6,123.4z"/>
<path d="M144,123.5c-0.3,0-0.5,0-0.7-0.1s-0.3-0.2-0.4-0.3s-0.2-0.3-0.3-0.5s-0.1-0.3-0.1-0.5s0-0.3,0-0.4v-2.2h0.8v1.9v0.5
	c0,0.2,0.1,0.3,0.1,0.4c0.1,0.1,0.2,0.2,0.3,0.3s0.3,0.1,0.5,0.1c0.1,0,0.3,0,0.4-0.1c0.1,0,0.2-0.1,0.3-0.2s0.2-0.2,0.2-0.4
	s0.1-0.4,0.1-0.6l0.5,0.2c0,0.4-0.1,0.7-0.2,0.9s-0.3,0.5-0.6,0.6S144.4,123.5,144,123.5L144,123.5z M145.3,123.4v-1.1h-0.1v-2.8
	h0.8v3.9H145.3z"/>
<path d="M147.3,118.9v-0.7h0.8v0.7H147.3z M147.3,123.4v-3.9h0.8v3.9H147.3z"/>
<path d="M149.3,123.4v-3.9h0.7v0.9l-0.1-0.1c0-0.1,0.1-0.2,0.2-0.3s0.2-0.2,0.3-0.3s0.2-0.1,0.3-0.2c0.1,0,0.2-0.1,0.4-0.1h0.4v0.7
	c-0.1,0-0.3,0-0.4,0c-0.2,0-0.3,0.1-0.4,0.1c-0.1,0.1-0.2,0.2-0.3,0.3s-0.1,0.2-0.2,0.4v0.4v2L149.3,123.4L149.3,123.4z"/>
<path d="M154,123.5c-0.4,0-0.7-0.1-1-0.3s-0.5-0.4-0.7-0.7s-0.2-0.7-0.2-1.1s0.1-0.8,0.2-1.1c0.2-0.3,0.4-0.6,0.7-0.7
	c0.3-0.2,0.6-0.3,1-0.3s0.7,0.1,1,0.3s0.5,0.4,0.6,0.8c0.1,0.3,0.2,0.7,0.2,1.2H155v-0.3c0-0.5-0.1-0.8-0.3-1s-0.4-0.3-0.8-0.3
	s-0.7,0.1-0.8,0.4c-0.2,0.2-0.3,0.6-0.3,1s0.1,0.8,0.3,1s0.5,0.3,0.8,0.3c0.2,0,0.4-0.1,0.6-0.2s0.3-0.3,0.4-0.5l0.7,0.2
	c-0.2,0.3-0.4,0.6-0.7,0.8C154.8,123.4,154.4,123.5,154,123.5z M152.7,121.7v-0.6h2.8v0.6H152.7z"/>
<path d="M158.3,123.4v-3.9h0.7v1.1h0.1v2.8H158.3z M161.1,123.4v-1.9c0-0.2,0-0.3,0-0.5s-0.1-0.3-0.1-0.4c-0.1-0.1-0.2-0.2-0.3-0.3
	s-0.3-0.1-0.5-0.1c-0.1,0-0.3,0-0.4,0.1c-0.1,0-0.2,0.1-0.3,0.2s-0.2,0.2-0.2,0.4c-0.1,0.2-0.1,0.4-0.1,0.6l-0.5-0.2
	c0-0.4,0.1-0.7,0.2-0.9c0.1-0.3,0.3-0.5,0.6-0.6c0.2-0.2,0.5-0.2,0.9-0.2c0.3,0,0.5,0,0.7,0.1s0.3,0.2,0.4,0.3s0.2,0.3,0.3,0.5
	s0.1,0.3,0.1,0.5v0.4v2.2h-0.8L161.1,123.4z"/>
<path d="M164.7,123.5c-0.4,0-0.7-0.1-1-0.3s-0.5-0.4-0.7-0.7s-0.2-0.7-0.2-1.1s0.1-0.8,0.2-1.1c0.2-0.3,0.4-0.5,0.7-0.7
	s0.6-0.3,1-0.3s0.7,0.1,1,0.3s0.5,0.4,0.7,0.7s0.2,0.7,0.2,1.1s-0.1,0.8-0.2,1.1s-0.4,0.5-0.7,0.7S165.1,123.5,164.7,123.5z
	 M164.7,122.8c0.4,0,0.6-0.1,0.8-0.4c0.2-0.2,0.3-0.6,0.3-1s-0.1-0.7-0.3-1c-0.2-0.2-0.5-0.4-0.8-0.4c-0.2,0-0.5,0.1-0.6,0.2
	c-0.2,0.1-0.3,0.3-0.4,0.5s-0.1,0.4-0.1,0.7c0,0.4,0.1,0.7,0.3,1S164.4,122.8,164.7,122.8z"/>
<path d="M169.1,123.5c-0.5,0-0.9-0.1-1.2-0.3s-0.5-0.5-0.5-0.9l0.8-0.1c0,0.2,0.2,0.4,0.3,0.5c0.2,0.1,0.4,0.2,0.6,0.2
	s0.4,0,0.6-0.1s0.2-0.2,0.2-0.4c0-0.1,0-0.2-0.1-0.2c0-0.1-0.1-0.1-0.3-0.2c-0.1-0.1-0.4-0.1-0.7-0.2s-0.6-0.2-0.8-0.3
	s-0.3-0.2-0.4-0.3s-0.1-0.3-0.1-0.5s0.1-0.4,0.2-0.6s0.3-0.3,0.5-0.4s0.5-0.1,0.8-0.1s0.6,0,0.8,0.1s0.4,0.2,0.6,0.4
	s0.2,0.4,0.3,0.6l-0.8,0.1c0-0.2-0.1-0.3-0.3-0.4s-0.3-0.2-0.6-0.2c-0.2,0-0.4,0-0.6,0.1c-0.1,0.1-0.2,0.2-0.2,0.3s0,0.2,0.1,0.2
	c0.1,0.1,0.2,0.1,0.3,0.2c0.2,0.1,0.4,0.1,0.7,0.2s0.6,0.2,0.8,0.3s0.3,0.2,0.4,0.4c0.1,0.1,0.1,0.3,0.1,0.5c0,0.4-0.1,0.7-0.4,0.9
	C170,123.4,169.6,123.5,169.1,123.5L169.1,123.5z"/>
<path d="M173.2,123.4v-3.9h0.7v1.1h0.1v2.8H173.2z M175.6,123.4V121c0-0.3-0.1-0.5-0.2-0.7s-0.3-0.2-0.6-0.2c-0.2,0-0.4,0.1-0.6,0.2
	c-0.1,0.2-0.2,0.4-0.2,0.6l-0.4-0.2c0-0.3,0.1-0.5,0.2-0.7s0.3-0.4,0.5-0.5s0.4-0.2,0.7-0.2s0.5,0.1,0.7,0.2s0.3,0.3,0.4,0.5
	s0.2,0.4,0.2,0.7v2.6L175.6,123.4L175.6,123.4z M177.9,123.4V121c0-0.3-0.1-0.5-0.2-0.7s-0.3-0.2-0.6-0.2c-0.1,0-0.3,0-0.4,0.1
	s-0.2,0.2-0.3,0.3s-0.1,0.3-0.1,0.5l-0.4-0.2c0-0.3,0.1-0.5,0.2-0.7s0.3-0.4,0.5-0.5s0.4-0.2,0.7-0.2c0.4,0,0.7,0.1,1,0.4
	c0.2,0.3,0.3,0.6,0.3,1v2.6L177.9,123.4z"/>
<path d="M181.6,123.5c-0.4,0-0.7-0.1-1-0.3s-0.5-0.4-0.7-0.7s-0.2-0.7-0.2-1.1s0.1-0.8,0.2-1.1c0.2-0.3,0.4-0.6,0.7-0.7
	c0.3-0.2,0.6-0.3,1-0.3s0.7,0.1,1,0.3s0.5,0.4,0.6,0.8c0.1,0.3,0.2,0.7,0.2,1.2h-0.8v-0.3c0-0.5-0.1-0.8-0.3-1s-0.4-0.3-0.8-0.3
	s-0.7,0.1-0.8,0.4c-0.2,0.2-0.3,0.6-0.3,1s0.1,0.8,0.3,1s0.5,0.3,0.8,0.3c0.2,0,0.4-0.1,0.6-0.2s0.3-0.3,0.4-0.5l0.7,0.2
	c-0.2,0.3-0.4,0.6-0.7,0.8C182.3,123.4,182,123.5,181.6,123.5z M180.2,121.7v-0.6h2.8v0.6H180.2z"/>
<path d="M185.9,123.5c-0.5,0-0.9-0.1-1.2-0.3s-0.5-0.5-0.5-0.9l0.8-0.1c0,0.2,0.2,0.4,0.3,0.5c0.2,0.1,0.4,0.2,0.6,0.2
	s0.4,0,0.6-0.1s0.2-0.2,0.2-0.4c0-0.1,0-0.2-0.1-0.2c0-0.1-0.1-0.1-0.3-0.2c-0.1-0.1-0.4-0.1-0.7-0.2s-0.6-0.2-0.8-0.3
	s-0.3-0.2-0.4-0.3s-0.1-0.3-0.1-0.5s0.1-0.4,0.2-0.6s0.3-0.3,0.5-0.4s0.5-0.1,0.8-0.1s0.6,0,0.8,0.1s0.4,0.2,0.6,0.4
	s0.2,0.4,0.3,0.6l-0.8,0.1c0-0.2-0.1-0.3-0.3-0.4s-0.3-0.2-0.6-0.2c-0.2,0-0.4,0-0.6,0.1c-0.1,0.1-0.2,0.2-0.2,0.3s0,0.2,0.1,0.2
	c0.1,0.1,0.2,0.1,0.3,0.2c0.2,0.1,0.4,0.1,0.7,0.2s0.6,0.2,0.8,0.3s0.3,0.2,0.4,0.4c0.1,0.1,0.1,0.3,0.1,0.5c0,0.4-0.1,0.7-0.4,0.9
	C186.8,123.4,186.4,123.5,185.9,123.5L185.9,123.5z"/>
<path d="M190,123.5c-0.3,0-0.5,0-0.7-0.1s-0.3-0.2-0.4-0.3s-0.2-0.3-0.3-0.5s-0.1-0.3-0.1-0.5s0-0.3,0-0.4v-2.2h0.8v1.9v0.5
	c0,0.2,0.1,0.3,0.1,0.4c0.1,0.1,0.2,0.2,0.3,0.3s0.3,0.1,0.5,0.1c0.1,0,0.3,0,0.4-0.1s0.2-0.1,0.3-0.2s0.2-0.2,0.2-0.4
	c0.1-0.2,0.1-0.4,0.1-0.6l0.5,0.2c0,0.4-0.1,0.7-0.2,0.9s-0.3,0.5-0.6,0.6C190.6,123.4,190.3,123.5,190,123.5L190,123.5z
	 M191.3,123.4v-1.1h-0.1v-2.8h0.8v3.9H191.3z"/>
<path d="M193.2,123.4v-3.9h0.7v0.9l-0.1-0.1c0-0.1,0.1-0.2,0.2-0.3s0.2-0.2,0.3-0.3s0.2-0.1,0.3-0.2c0.1,0,0.2-0.1,0.4-0.1h0.4v0.7
	c-0.1,0-0.3,0-0.4,0c-0.2,0-0.3,0.1-0.4,0.1c-0.1,0.1-0.2,0.2-0.3,0.3s-0.1,0.2-0.2,0.4v0.4v2L193.2,123.4L193.2,123.4z"/>
<path d="M197.9,123.5c-0.4,0-0.7-0.1-1-0.3s-0.5-0.4-0.7-0.7s-0.2-0.7-0.2-1.1s0.1-0.8,0.2-1.1c0.2-0.3,0.4-0.6,0.7-0.7
	c0.3-0.2,0.6-0.3,1-0.3s0.7,0.1,1,0.3s0.5,0.4,0.6,0.8c0.1,0.3,0.2,0.7,0.2,1.2h-0.8v-0.3c0-0.5-0.1-0.8-0.3-1s-0.4-0.3-0.8-0.3
	s-0.7,0.1-0.8,0.4c-0.2,0.2-0.3,0.6-0.3,1s0.1,0.8,0.3,1s0.5,0.3,0.8,0.3c0.2,0,0.4-0.1,0.6-0.2s0.3-0.3,0.4-0.5l0.7,0.2
	c-0.2,0.3-0.4,0.6-0.7,0.8C198.6,123.4,198.3,123.5,197.9,123.5z M196.5,121.7v-0.6h2.8v0.6H196.5z"/>
<path d="M202.2,123.5c-0.5,0-0.9-0.1-1.2-0.3s-0.5-0.5-0.5-0.9l0.8-0.1c0,0.2,0.2,0.4,0.3,0.5c0.2,0.1,0.4,0.2,0.6,0.2
	s0.4,0,0.6-0.1s0.2-0.2,0.2-0.4c0-0.1,0-0.2-0.1-0.2c0-0.1-0.1-0.1-0.3-0.2c-0.1-0.1-0.4-0.1-0.7-0.2s-0.6-0.2-0.8-0.3
	s-0.3-0.2-0.4-0.3s-0.1-0.3-0.1-0.5s0.1-0.4,0.2-0.6s0.3-0.3,0.5-0.4s0.5-0.1,0.8-0.1s0.6,0,0.8,0.1s0.4,0.2,0.6,0.4
	s0.2,0.4,0.3,0.6l-0.8,0.1c0-0.2-0.1-0.3-0.3-0.4s-0.3-0.2-0.6-0.2c-0.2,0-0.4,0-0.6,0.1c-0.1,0.1-0.2,0.2-0.2,0.3s0,0.2,0.1,0.2
	c0.1,0.1,0.2,0.1,0.3,0.2c0.2,0.1,0.4,0.1,0.7,0.2s0.6,0.2,0.8,0.3s0.3,0.2,0.4,0.4c0.1,0.1,0.1,0.3,0.1,0.5c0,0.4-0.1,0.7-0.4,0.9
	C203.1,123.4,202.7,123.5,202.2,123.5L202.2,123.5z"/>
</svg>
