<svg enable-background="new 0 0 677.9 317.8" viewBox="0 0 677.9 317.8" xmlns="http://www.w3.org/2000/svg" xmlns:xlink="http://www.w3.org/1999/xlink"><linearGradient id="a"><stop offset="0" stop-color="#5454a8"/><stop offset=".28" stop-color="#6661b3"/><stop offset=".73" stop-color="#7f71c2"/><stop offset="1" stop-color="#8878c8"/></linearGradient><linearGradient id="b" gradientTransform="matrix(.78 .00136136 -.00106465 1 -202.8466 -754.7286)" gradientUnits="userSpaceOnUse" x1="354.8893" x2="662.8538" xlink:href="#a" y1="1030.2434" y2="1030.2434"/><linearGradient id="c"><stop offset="0" stop-color="#8878c8"/><stop offset=".27" stop-color="#7f71c2"/><stop offset=".72" stop-color="#6661b3"/><stop offset="1" stop-color="#5454a8"/></linearGradient><linearGradient id="d" gradientUnits="userSpaceOnUse" x1="1.5327" x2="81.1227" xlink:href="#c" y1="275.7065" y2="275.7065"/><linearGradient id="e" gradientUnits="userSpaceOnUse" x1="71.8948" x2="312.9607" xlink:href="#a" y1="160.8066" y2="160.8066"/><linearGradient id="f" gradientUnits="userSpaceOnUse" x1="1.5327" x2="81.1227" xlink:href="#c" y1="160.8066" y2="160.8066"/><linearGradient id="g" gradientUnits="userSpaceOnUse" x1="71.8948" x2="312.9607" xlink:href="#a" y1="41.9066" y2="41.9066"/><linearGradient id="h" gradientUnits="userSpaceOnUse" x1="1.5327" x2="81.1227" xlink:href="#c" y1="41.9066" y2="41.9066"/><path d="m76.3 276.2h232.2" fill="none" stroke="url(#b)" stroke-linecap="round" stroke-miterlimit="10" stroke-width="8.8659"/><circle cx="41.3" cy="275.7" fill="none" r="34.8" stroke="url(#d)" stroke-linecap="round" stroke-miterlimit="10" stroke-width="9.99"/><path d="m42 292.1c-1.4 0-2.8-.3-4.1-.8s-2.4-1.4-3.3-2.4-1.6-2.2-2-3.6l4.7-1.3c.3 1.1.9 2 1.8 2.6s1.9.9 2.9.9 1.8-.2 2.5-.7 1.3-1 1.8-1.8c.4-.8.6-1.6.6-2.5 0-1.4-.5-2.6-1.4-3.6s-2.1-1.4-3.6-1.4c-.4 0-.9.1-1.3.2s-.8.3-1.2.5l-2.2-3.8 9.7-8.3.4 1.2h-13.6v-4.5h17.6v4.6l-7.8 7.5v-1.4c1.8.1 3.2.6 4.5 1.5 1.2.9 2.2 2 2.8 3.3s1 2.8 1 4.4c0 1.8-.4 3.4-1.3 4.9-.9 1.4-2.1 2.6-3.6 3.4s-3.1 1.1-4.9 1.1z"/><path d="m76.3 160.8h232.2" fill="none" stroke="url(#e)" stroke-linecap="round" stroke-miterlimit="10" stroke-width="8.8659"/><circle cx="41.3" cy="160.8" fill="none" r="34.8" stroke="url(#f)" stroke-linecap="round" stroke-miterlimit="10" stroke-width="9.99"/><path d="m31.4 173.9v-4.2l12.3-11c1-.9 1.6-1.7 2-2.4s.6-1.5.6-2.2c0-1-.2-1.8-.6-2.6s-1-1.4-1.7-1.8-1.6-.7-2.5-.7c-1 0-1.9.2-2.7.7s-1.4 1.1-1.8 1.8-.6 1.6-.6 2.5h-5c0-1.9.4-3.6 1.3-5s2-2.5 3.6-3.3c1.5-.8 3.3-1.2 5.2-1.2 1.8 0 3.5.4 5 1.2s2.6 1.9 3.5 3.4 1.3 3.1 1.3 5c0 1.4-.2 2.5-.6 3.5-.4.9-.9 1.8-1.7 2.6-.7.8-1.7 1.7-2.8 2.6l-8.7 7.7-.4-1.2h14.2v4.5c-.1.1-19.9.1-19.9.1z"/><path d="m76.3 41.9h232.2" fill="none" stroke="url(#g)" stroke-linecap="round" stroke-miterlimit="10" stroke-width="8.8659"/><circle cx="41.3" cy="41.9" fill="none" r="34.8" stroke="url(#h)" stroke-linecap="round" stroke-miterlimit="10" stroke-width="9.99"/><path d="m41.2 55.1v-23.6l-5.4 3.3v-5.3l5.4-3.2h4.9v28.8z"/><path d="m350.8 290c-2.2 0-4.1-.4-5.9-1.1-1.8-.8-3.2-1.8-4.3-3.2s-1.9-3.1-2.2-5l4.6-.7c.5 1.9 1.4 3.3 2.9 4.3s3.2 1.5 5.2 1.5c1.2 0 2.3-.2 3.4-.6 1-.4 1.9-.9 2.5-1.7.6-.7.9-1.6.9-2.6 0-.5-.1-1-.3-1.5-.2-.4-.5-.8-.8-1.1s-.7-.6-1.2-.8-1-.4-1.5-.6l-7.8-2.3c-.8-.2-1.5-.5-2.3-.9s-1.5-.8-2.2-1.4-1.2-1.3-1.6-2.2-.6-1.9-.6-3.2c0-1.9.5-3.5 1.4-4.8s2.3-2.3 3.9-3 3.5-1 5.5-1c2.1 0 3.9.4 5.5 1.1s3 1.7 4 3c1.1 1.3 1.8 2.9 2.2 4.8l-4.6 1.1c-.2-1.1-.7-2.1-1.3-2.9-.7-.8-1.5-1.5-2.5-1.9s-2.1-.7-3.2-.7-2.2.1-3.1.5-1.7.9-2.2 1.5c-.6.7-.8 1.4-.8 2.3 0 .8.2 1.5.7 2s1.1.9 1.8 1.2 1.4.6 2.2.7l5.6 1.6c.7.2 1.5.5 2.4.8s1.8.8 2.6 1.4 1.5 1.4 2.1 2.4c.5 1 .8 2.2.8 3.7s-.3 2.9-.9 4c-.6 1.2-1.5 2.1-2.5 2.9-1.1.8-2.3 1.4-3.7 1.8s-3.1.6-4.7.6z"/><path d="m377.6 290c-2.3 0-4.2-.5-6-1.5-1.7-1-3-2.4-4-4.2-.9-1.8-1.4-3.8-1.4-6.2 0-2.5.5-4.6 1.4-6.5s2.2-3.2 3.9-4.2 3.6-1.5 5.8-1.5c2.3 0 4.3.5 5.9 1.6s2.8 2.6 3.7 4.6c.8 2 1.1 4.3 1 7.1h-4.4v-1.6c0-2.6-.5-4.6-1.5-5.9s-2.5-1.9-4.5-1.9c-2.2 0-3.9.7-5 2.1s-1.7 3.4-1.7 6c0 2.5.6 4.4 1.7 5.8s2.7 2.1 4.8 2.1c1.4 0 2.6-.3 3.6-.9s1.8-1.5 2.4-2.7l4.3 1.4c-.9 2-2.2 3.6-4 4.7-1.8 1.2-3.8 1.7-6 1.7zm-8.1-10.8v-3.4h16.3v3.4zm10.4-15.8h-4.4l1.6-5.1h4.4z"/><path d="m403 290c-2.3 0-4.3-.5-5.9-1.6-1.6-1-2.9-2.5-3.7-4.3-.9-1.8-1.3-3.9-1.3-6.2s.5-4.4 1.3-6.2c.9-1.8 2.2-3.2 3.8-4.2s3.6-1.5 5.9-1.5c2.5 0 4.6.6 6.4 1.9s2.9 2.9 3.5 5.1l-4.4 1.3c-.4-1.3-1.1-2.3-2.1-3s-2.1-1.1-3.4-1.1c-1.4 0-2.6.3-3.6 1s-1.6 1.6-2.1 2.8-.7 2.5-.7 4c0 2.3.6 4.2 1.6 5.7 1.1 1.4 2.6 2.2 4.7 2.2 1.4 0 2.6-.3 3.4-1s1.6-1.6 2-2.8l4.5 1.1c-.7 2.2-2 3.9-3.7 5.1-1.7 1.1-3.7 1.7-6.2 1.7z"/><path d="m426.3 290c-1.6 0-2.9-.3-4-.8s-1.9-1.2-2.6-2-1.2-1.7-1.5-2.7c-.4-1-.6-1.9-.7-2.8s-.2-1.7-.2-2.4v-12.6h4.5v11.2c0 .9.1 1.8.2 2.7s.4 1.8.8 2.6 1 1.4 1.8 1.9 1.7.7 2.9.7c.8 0 1.5-.1 2.2-.4s1.3-.7 1.8-1.3.9-1.3 1.2-2.3c.3-.9.5-2.1.5-3.4l2.7 1c0 2.1-.4 3.9-1.2 5.5s-1.9 2.8-3.3 3.7c-1.3.9-3 1.4-5.1 1.4zm7.5-.6v-6.6h-.5v-16.2h4.4v22.8z"/><path d="m444.2 289.4v-22.8h3.9v5.5l-.5-.7c.3-.7.6-1.4 1.1-2 .4-.6 1-1.1 1.6-1.5s1.2-.7 1.9-1c.7-.2 1.4-.4 2.2-.4.7 0 1.5 0 2.2.1v4.1c-.7-.2-1.6-.3-2.5-.2s-1.7.4-2.5.9c-.7.5-1.3 1-1.7 1.7s-.7 1.4-.9 2.2-.3 1.7-.3 2.6v11.5z"/><path d="m461 262.9v-4.3h4.4v4.3zm0 26.5v-22.8h4.4v22.8z"/><path d="m469.6 270.2v-3.5h15.6v3.5zm15.6 19.2c-1.4.3-2.8.4-4.2.4s-2.6-.3-3.7-.8-1.9-1.3-2.4-2.3c-.5-.9-.8-1.9-.8-2.9s-.1-2.1-.1-3.3v-20.1h4.4v19.9 2.4s.2 1.2.4 1.7c.5.9 1.3 1.4 2.4 1.5s2.4.1 3.9-.1v3.6z"/><path d="m499.6 290c-2.3 0-4.2-.5-6-1.5-1.7-1-3-2.4-4-4.2-.9-1.8-1.4-3.8-1.4-6.2 0-2.5.5-4.6 1.4-6.5.9-1.8 2.2-3.2 3.9-4.2s3.6-1.5 5.8-1.5c2.3 0 4.3.5 5.9 1.6s2.8 2.6 3.7 4.6c.8 2 1.1 4.3 1 7.1h-4.4v-1.6c0-2.6-.5-4.6-1.5-5.9s-2.5-1.9-4.5-1.9c-2.2 0-3.9.7-5 2.1s-1.7 3.4-1.7 6c0 2.5.6 4.4 1.7 5.8s2.7 2.1 4.8 2.1c1.4 0 2.6-.3 3.6-.9s1.8-1.5 2.4-2.7l4.3 1.4c-.9 2-2.2 3.6-4 4.7-1.7 1.2-3.7 1.7-6 1.7zm-8.1-10.8v-3.4h16.3v3.4zm10.5-15.8h-4.4l1.6-5.1h4.4z"/><path d="m339.8 172.8v-30.4h18v4.4h-13.6v8.6h11v4.4h-11v13z"/><path d="m362 146.3v-4.3h4.4v4.3zm0 26.5v-22.8h4.4v22.8z"/><path d="m373 173.8v-22.8h3.9v6.6h.5v16.2zm16.1 0v-11.2c0-.9-.1-1.8-.2-2.7s-.4-1.8-.8-2.6-1-1.4-1.8-1.9-1.7-.7-2.9-.7c-.8 0-1.5.1-2.2.4s-1.3.7-1.8 1.3-.9 1.3-1.2 2.3c-.3.9-.5 2.1-.5 3.4l-2.7-1c0-2.1.4-3.9 1.2-5.5s1.9-2.8 3.3-3.7 3.2-1.3 5.2-1.3c1.6 0 2.9.3 4 .8s1.9 1.2 2.6 2 1.2 1.7 1.5 2.7.6 1.9.7 2.8.2 1.7.2 2.4v12.6h-4.6z"/><path d="m406 174.4c-1.7 0-3.1-.3-4.2-.9s-2-1.5-2.6-2.5-.9-2.2-.9-3.4.2-2.2.6-3c.4-.9 1-1.6 1.8-2.2s1.8-1.1 3-1.5c1-.3 2.2-.6 3.4-.8 1.3-.2 2.6-.4 4-.6s2.8-.4 4.2-.6l-1.6.9c0-1.8-.3-3.1-1.1-4s-2.1-1.3-4-1.3c-1.2 0-2.3.3-3.3.8-1 .6-1.7 1.5-2.1 2.8l-4.1-1.3c.6-2 1.6-3.5 3.2-4.7s3.7-1.7 6.3-1.7c2 0 3.8.3 5.3 1s2.6 1.8 3.3 3.3c.4.7.6 1.5.7 2.4s.1 1.7.1 2.7v14h-3.9v-5.2l.8.7c-.9 1.7-2.1 3-3.6 3.9-1.4.8-3.2 1.2-5.3 1.2zm.8-3.6c1.3 0 2.3-.2 3.2-.7.9-.4 1.6-1 2.2-1.7.5-.7.9-1.4 1.1-2.1s.4-1.4.4-2.3c0-.8.1-1.5.1-2l1.4.5c-1.4.2-2.7.4-3.8.6s-2.2.3-3.1.5-1.7.4-2.5.6c-.6.2-1.1.5-1.6.8s-.8.7-1.1 1.1-.4.9-.4 1.5.1 1.1.4 1.6.7.9 1.3 1.2c.7.3 1.4.4 2.4.4z"/><path d="m424.3 173.8v-22.8h3.9v6.6h.5v16.2zm16 0v-11.2c0-.9-.1-1.8-.2-2.7s-.4-1.8-.8-2.6-1-1.4-1.8-1.9-1.7-.7-2.9-.7c-.8 0-1.5.1-2.2.4s-1.3.7-1.8 1.3-.9 1.3-1.2 2.3c-.3.9-.5 2.1-.5 3.4l-2.7-1c0-2.1.4-3.9 1.2-5.5s1.9-2.8 3.3-3.7 3.2-1.3 5.2-1.3c1.6 0 2.9.3 4 .8s1.9 1.2 2.6 2 1.2 1.7 1.5 2.7c.4 1 .6 1.9.7 2.8s.2 1.7.2 2.4v12.6h-4.6z"/><path d="m460.6 174.4c-2.3 0-4.3-.5-5.9-1.6-1.6-1-2.9-2.5-3.7-4.3-.9-1.8-1.3-3.9-1.3-6.2s.5-4.4 1.3-6.2c.9-1.8 2.1-3.2 3.8-4.2 1.6-1 3.6-1.5 5.9-1.5 2.5 0 4.6.6 6.4 1.9s2.9 2.9 3.5 5.1l-4.4 1.3c-.4-1.3-1.1-2.3-2.1-3s-2.1-1.1-3.4-1.1c-1.4 0-2.6.3-3.6 1s-1.6 1.6-2.1 2.8-.7 2.5-.7 4c0 2.3.6 4.2 1.6 5.7 1.1 1.4 2.6 2.2 4.7 2.2 1.4 0 2.6-.3 3.4-1 .9-.7 1.5-1.6 2-2.8l4.5 1.1c-.7 2.2-2 3.9-3.7 5.1-1.6 1.1-3.7 1.7-6.2 1.7z"/><path d="m485.5 174.4c-2.3 0-4.2-.5-6-1.5-1.7-1-3-2.4-4-4.2-.9-1.8-1.4-3.8-1.4-6.2 0-2.5.5-4.6 1.4-6.5.9-1.8 2.2-3.2 3.9-4.2s3.6-1.5 5.8-1.5c2.3 0 4.3.5 5.9 1.6s2.8 2.6 3.7 4.6c.8 2 1.1 4.3 1 7.1h-4.4v-1.6c0-2.6-.5-4.6-1.5-5.9s-2.5-1.9-4.5-1.9c-2.2 0-3.9.7-5 2.1s-1.7 3.4-1.7 6c0 2.5.6 4.4 1.7 5.8s2.7 2.1 4.8 2.1c1.4 0 2.6-.3 3.6-.9s1.8-1.5 2.4-2.7l4.3 1.4c-.9 2-2.2 3.6-4 4.7-1.8 1.2-3.8 1.7-6 1.7zm-8.2-10.8v-3.4h16.3v3.4z"/><path d="m340.2 60.2v-30.4h4.4v30.4z"/><path d="m351.2 60.2v-22.8h3.9v6.6h.5v16.2zm16 0v-11.2c0-.9-.1-1.8-.2-2.7s-.4-1.8-.8-2.6-1-1.4-1.7-1.9c-.8-.5-1.7-.7-2.9-.7-.8 0-1.5.1-2.2.4s-1.3.7-1.8 1.3-.9 1.3-1.2 2.3c-.3.9-.5 2.1-.5 3.4l-2.7-1c0-2.1.4-3.9 1.2-5.5s1.9-2.8 3.3-3.7 3.2-1.3 5.2-1.3c1.6 0 2.9.3 4 .8s1.9 1.2 2.6 2 1.2 1.7 1.5 2.7c.4 1 .6 1.9.7 2.8s.2 1.7.2 2.4v12.6z"/><path d="m375.3 41v-3.5h13.9v3.5zm3.7 19.2v-23.6c0-.6 0-1.2.1-1.8 0-.7.2-1.3.4-1.9s.5-1.2 1-1.8c.6-.6 1.2-1.1 1.9-1.3s1.4-.4 2.1-.5 1.3-.1 1.9-.1h2.9v3.6h-2.8c-1 0-1.8.3-2.3.8s-.8 1.2-.8 2.2v24.4z"/><path d="m402.8 60.8c-2.3 0-4.3-.5-5.9-1.5-1.7-1-3-2.4-3.9-4.2s-1.4-3.9-1.4-6.3.5-4.5 1.4-6.3 2.2-3.2 3.9-4.2 3.6-1.5 5.9-1.5 4.2.5 5.9 1.5 3 2.4 3.9 4.2 1.4 3.9 1.4 6.2c0 2.4-.5 4.5-1.4 6.3s-2.2 3.2-3.9 4.2c-1.7 1.1-3.6 1.6-5.9 1.6zm0-4.1c2.2 0 3.8-.7 4.9-2.2s1.6-3.4 1.6-5.7c0-2.4-.5-4.3-1.6-5.7s-2.7-2.1-4.9-2.1c-1.5 0-2.7.3-3.6 1-1 .7-1.7 1.6-2.1 2.8-.5 1.2-.7 2.5-.7 4.1 0 2.4.5 4.3 1.6 5.7s2.7 2.1 4.8 2.1z"/><path d="m419.2 60.2v-22.8h3.9v5.5l-.5-.7c.3-.7.6-1.4 1.1-2 .4-.6 1-1.1 1.6-1.5s1.2-.7 1.9-1c.7-.2 1.4-.4 2.2-.4.7 0 1.5 0 2.2.1v4.1c-.7-.2-1.6-.3-2.5-.2s-1.7.4-2.5.9c-.7.5-1.3 1-1.7 1.7s-.7 1.4-.9 2.2-.3 1.7-.3 2.6v11.5z"/><path d="m435.8 60.2v-22.8h3.9v6.6h.5v16.2zm13.7 0v-14.1c0-1.7-.4-3-1.3-3.9-.8-.9-2-1.4-3.4-1.4s-2.5.5-3.4 1.4c-.9 1-1.3 2.2-1.3 3.8l-2.1-1.3c0-1.5.4-2.8 1.1-4s1.7-2.1 2.9-2.8 2.6-1 4.2-1 3 .3 4.1 1 2 1.6 2.6 2.9.9 2.6.9 4.3v15.2h-4.3zm13.6 0v-14.2c0-1.6-.4-2.9-1.3-3.8-.8-.9-2-1.4-3.3-1.4-.8 0-1.6.2-2.3.6s-1.3 1-1.7 1.7-.6 1.7-.6 2.9l-2.1-1.1c0-1.6.3-3 1-4.2s1.7-2.1 2.9-2.8 2.6-1 4.1-1c2.5 0 4.4.7 5.7 2.2s2 3.4 2 5.9v15.2z"/><path d="m480.1 60.8c-1.7 0-3.1-.3-4.2-.9s-2-1.5-2.6-2.5-.9-2.2-.9-3.4.2-2.2.6-3c.4-.9 1-1.6 1.8-2.2s1.8-1.1 3-1.5c1-.3 2.2-.6 3.4-.8 1.3-.2 2.6-.4 4-.6s2.8-.4 4.2-.6l-1.6.9c0-1.8-.3-3.1-1.1-4s-2.1-1.3-4-1.3c-1.2 0-2.3.3-3.3.8-1 .6-1.7 1.5-2.1 2.8l-4.1-1.3c.6-2 1.6-3.5 3.2-4.7s3.7-1.7 6.3-1.7c2 0 3.8.3 5.3 1s2.6 1.8 3.3 3.3c.4.7.6 1.5.7 2.4s.1 1.7.1 2.7v14h-3.9v-5.2l.8.7c-.9 1.7-2.1 3-3.6 3.9-1.4.8-3.1 1.2-5.3 1.2zm.8-3.6c1.3 0 2.3-.2 3.2-.7.9-.4 1.6-1 2.2-1.7.5-.7.9-1.4 1.1-2.2.2-.7.4-1.4.4-2.3s.1-1.5.1-2l1.4.5c-1.4.2-2.7.4-3.8.6s-2.2.3-3.1.5-1.7.4-2.5.6c-.6.2-1.1.5-1.6.8s-.8.7-1.1 1.1-.4.9-.4 1.5.1 1.1.4 1.6.7.9 1.3 1.2c.7.4 1.5.5 2.4.5z"/><path d="m495.8 41v-3.5h15.6v3.5zm15.5 19.2c-1.4.3-2.8.4-4.2.4s-2.6-.3-3.7-.8-1.9-1.3-2.4-2.3c-.5-.9-.8-1.9-.8-2.9s-.1-2.1-.1-3.3v-20.2h4.4v19.9 2.4c0 .7.2 1.2.4 1.7.5.9 1.3 1.4 2.4 1.5s2.4.1 3.9-.1v3.7z"/><path d="m516.2 33.7v-4.3h4.4v4.3zm0 26.5v-22.8h4.4v22.8z"/><path d="m536.4 60.8c-2.1 0-4-.5-5.5-1.6s-2.7-2.5-3.6-4.3c-.8-1.8-1.3-3.9-1.3-6.1 0-2.3.4-4.3 1.3-6.1.8-1.8 2-3.2 3.6-4.3 1.6-1 3.4-1.6 5.5-1.6 2.2 0 4 .5 5.4 1.6s2.6 2.5 3.3 4.3 1.1 3.9 1.1 6.1c0 2.3-.4 4.3-1.1 6.1s-1.9 3.3-3.4 4.3c-1.3 1.1-3.1 1.6-5.3 1.6zm.6-4c1.4 0 2.6-.3 3.5-1s1.6-1.6 2-2.8.6-2.6.6-4.2-.2-3-.6-4.2-1.1-2.2-2-2.8c-.9-.7-2-1-3.4-1-1.5 0-2.7.4-3.6 1.1s-1.6 1.7-2.1 2.9-.7 2.6-.7 4c0 1.5.2 2.9.7 4.1s1.1 2.2 2.1 2.9c.9.7 2.1 1 3.5 1zm5.7 13.5v-16.5h.5v-16.4h3.9v32.9z"/><path d="m562.2 60.8c-1.6 0-2.9-.3-4-.8s-1.9-1.2-2.6-2-1.2-1.7-1.5-2.7c-.4-1-.6-1.9-.7-2.8s-.2-1.7-.2-2.4v-12.7h4.5v11.2c0 .9.1 1.8.2 2.7s.4 1.8.8 2.6 1 1.4 1.8 1.9 1.7.7 2.9.7c.8 0 1.5-.1 2.2-.4s1.3-.7 1.8-1.3.9-1.3 1.2-2.3c.3-.9.5-2.1.5-3.4l2.7 1c0 2.1-.4 3.9-1.2 5.5s-1.9 2.8-3.3 3.7c-1.3 1-3 1.5-5.1 1.5zm7.6-.6v-6.6h-.5v-16.2h4.4v22.8z"/><path d="m590.3 60.8c-2.3 0-4.2-.5-6-1.5-1.7-1-3-2.4-4-4.2-.9-1.8-1.4-3.8-1.4-6.2 0-2.5.5-4.6 1.4-6.5.9-1.8 2.2-3.2 3.9-4.2s3.6-1.5 5.8-1.5c2.3 0 4.3.5 5.9 1.6s2.8 2.6 3.7 4.6c.8 2 1.1 4.3 1 7.1h-4.4v-1.6c0-2.6-.5-4.6-1.5-5.9s-2.5-1.9-4.5-1.9c-2.2 0-3.9.7-5 2.1s-1.7 3.4-1.7 6c0 2.5.6 4.4 1.7 5.8s2.7 2.1 4.8 2.1c1.4 0 2.6-.3 3.6-.9s1.8-1.5 2.4-2.7l4.3 1.4c-.9 2-2.2 3.6-4 4.7s-3.8 1.7-6 1.7zm-8.1-10.8v-3.4h16.3v3.4z"/></svg>