<svg enable-background="new 0 0 942.6 408" viewBox="0 0 942.6 408" xml:space="preserve" xmlns="http://www.w3.org/2000/svg" xmlns:xlink="http://www.w3.org/1999/xlink"><linearGradient id="a"><stop offset="0" stop-color="#5454a8"/><stop offset=".28" stop-color="#6661b3"/><stop offset=".73" stop-color="#7f71c2"/><stop offset="1" stop-color="#8878c8"/></linearGradient><linearGradient id="b" gradientTransform="matrix(.75 .0010472 -.00074176 1 -670.2067 -639.2403)" gradientUnits="userSpaceOnUse" x1="1005.981" x2="1281.7141" xlink:href="#a" y1="981.0815" y2="981.0815"/><linearGradient id="c"><stop offset="0" stop-color="#8878c8"/><stop offset=".27" stop-color="#7f71c2"/><stop offset=".72" stop-color="#6661b3"/><stop offset="1" stop-color="#5454a8"/></linearGradient><linearGradient id="d" gradientUnits="userSpaceOnUse" x1="9.7441" x2="92.3141" xlink:href="#c" y1="342.54" y2="342.54"/><linearGradient id="e" gradientUnits="userSpaceOnUse" x1="82.9334" x2="292.2248" xlink:href="#a" y1="210.14" y2="210.14"/><linearGradient id="f" gradientUnits="userSpaceOnUse" x1="9.7441" x2="92.3141" xlink:href="#c" y1="210.14" y2="210.14"/><linearGradient id="g" gradientUnits="userSpaceOnUse" x1="82.9334" x2="292.2248" xlink:href="#a" y1="44.64" y2="44.64"/><linearGradient id="h" gradientUnits="userSpaceOnUse" x1="9.7441" x2="92.3141" xlink:href="#c" y1="44.64" y2="44.64"/><path d="m87.3 343h200.5" fill="none" stroke="url(#b)" stroke-linecap="round" stroke-miterlimit="10" stroke-width="8.7914"/><circle cx="51" cy="342.5" fill="none" r="36.1" stroke="url(#d)" stroke-linecap="round" stroke-miterlimit="10" stroke-width="10.37"/><path d="m51.8 359.5c-1.5 0-2.9-.3-4.2-.9s-2.5-1.4-3.5-2.5-1.7-2.3-2.1-3.8l4.8-1.3c.3 1.2 1 2.1 1.9 2.8.9.6 1.9 1 3 .9 1 0 1.9-.2 2.6-.7.8-.5 1.4-1.1 1.8-1.9s.7-1.7.7-2.6c0-1.5-.5-2.7-1.4-3.7-1-1-2.2-1.5-3.7-1.5-.5 0-.9.1-1.3.2s-.8.3-1.2.5l-2.3-3.9 10-8.6.4 1.2h-14.1v-4.7h18.3v4.7l-8.1 7.8v-1.5c1.8.1 3.3.6 4.6 1.5s2.3 2 2.9 3.4c.7 1.4 1 2.9 1 4.6 0 1.9-.5 3.6-1.4 5.1s-2.2 2.7-3.7 3.5c-1.4 1-3.1 1.4-5 1.4z"/><path d="m87.3 210.1h200.5" fill="none" stroke="url(#e)" stroke-linecap="round" stroke-miterlimit="10" stroke-width="8.7914"/><ellipse cx="51" cy="210.1" fill="none" rx="36.1" ry="36.1" stroke="url(#f)" stroke-linecap="round" stroke-miterlimit="10" stroke-width="10.37" transform="matrix(.04531442 -.999 .999 .04531442 -161.2073 251.5943)"/><path d="m40.8 223.7v-4.3l12.8-11.4c1-.9 1.7-1.7 2.1-2.5s.6-1.6.6-2.3c0-1-.2-1.9-.6-2.7s-1-1.4-1.8-1.9-1.6-.7-2.6-.7-2 .2-2.8.7-1.4 1.1-1.9 1.9c-.4.8-.7 1.6-.6 2.6h-5.2c0-2 .5-3.7 1.3-5.2s2.1-2.6 3.7-3.4 3.4-1.2 5.4-1.2c1.9 0 3.6.4 5.1 1.3s2.7 2 3.6 3.5 1.3 3.2 1.3 5.2c0 1.4-.2 2.6-.6 3.6s-1 1.9-1.7 2.7-1.7 1.7-2.8 2.7l-9.1 8-.5-1.2h14.7v4.7z"/><path d="m87.3 44.6h200.5" fill="none" stroke="url(#g)" stroke-linecap="round" stroke-miterlimit="10" stroke-width="8.7914"/><circle cx="51" cy="44.6" fill="none" r="36.1" stroke="url(#h)" stroke-linecap="round" stroke-miterlimit="10" stroke-width="10.37"/><path d="m50.9 58.3v-24.4l-5.6 3.5v-5.5l5.6-3.4h5.1v29.9z"/><g font-family="'Manrope-SemiBold'" font-size="36.5432"><text transform="translate(319.7482 348.9646)">La personnalisation des  </text><text transform="translate(319.7482 392.8647)">programmes</text><text transform="translate(319.7462 218.104)">Les formations  </text><text transform="translate(319.7462 262.0041)">personnalisées</text><text transform="translate(319.7482 51.0298)">Les mesures de sensibilisation  </text><text transform="translate(319.7482 94.9299)">utilisant les applications  </text><text transform="translate(319.7482 138.7299)">de messagerie</text></g></svg>