<svg height="73" viewBox="0 0 59.111 73" width="59.111" xmlns="http://www.w3.org/2000/svg" xmlns:xlink="http://www.w3.org/1999/xlink"><clipPath id="a"><path d="m0 0h59.111v73h-59.111z"/></clipPath><g clip-path="url(#a)" fill="none" stroke="#08d884" stroke-linejoin="round" stroke-width="2"><path d="m15.471 10.3a5.819 5.819 0 1 1 -5.821-5.822 5.82 5.82 0 0 1 5.821 5.822z" transform="translate(8.603 10.051)"/><path d="m0 4.883v-4.883" stroke-linecap="round" transform="translate(12.059 35.311)"/><path d="m20.14 10.8a10.669 10.669 0 0 0 -17.8 7.936v3.664h18.566" transform="translate(5.248 18.092)"/><path d="m22.437 10.3a5.819 5.819 0 1 1 -5.821-5.821 5.82 5.82 0 0 1 5.821 5.821z" transform="translate(24.238 10.051)"/><path d="m0 4.883v-4.883" stroke-linecap="round" transform="translate(47.169 35.311)"/><path d="m10.158 22.4h18.568v-3.671a10.669 10.669 0 0 0 -17.8-7.933" transform="translate(22.799 18.092)"/><path d="m21.089 15.336a7.081 7.081 0 1 1 -7.083-7.164 7.124 7.124 0 0 1 7.083 7.164z" transform="translate(15.547 18.342)"/><path d="m0 6.009v-6.009" stroke-linecap="round" transform="translate(22.017 52.092)"/><path d="m0 6.009v-6.009" stroke-linecap="round" transform="translate(37.236 52.092)"/><path d="m18.087 12.582a13.053 13.053 0 0 0 -12.978 13.13v4.52h25.959v-4.52a13.056 13.056 0 0 0 -12.981-13.13z" transform="translate(11.467 28.24)"/><path d="m29 .25-28.75 12.825v22.559c0 7.3 3.118 17.069 12.163 25.427 10.655 9.859 16.587 10.567 16.587 10.567s5.924-.707 16.589-10.567c9.031-8.361 12.149-18.127 12.149-25.427v-22.559z" transform="translate(.561 .561)"/></g></svg>