<svg height="73.122" viewBox="0 0 73.122 73.122" width="73.122" xmlns="http://www.w3.org/2000/svg" xmlns:xlink="http://www.w3.org/1999/xlink"><clipPath id="a"><path d="m0 0h73.122v73.122h-73.122z"/></clipPath><g fill="none" stroke="#08d884" stroke-linecap="round" stroke-linejoin="round" stroke-width="2"><path d="m10.8 10.274-3.546 3.247v3.689l3.546 4.426.744 4.472 5.749.25v-4.573l2.951-3.123v-3.52l-3.689-.292z" transform="translate(16.321 23.116)"/><path d="m5.617 18.854 9.772-2.854 2.652-3.211 6.418-1.875 3.487-5.346" transform="translate(12.637 12.529)"/><path d="m18.294 6.187v4.28l-3.542 2.483v3.273l-2.359 5.1 2.951 3.861h4.722v12.601" transform="translate(27.882 13.919)"/><g clip-path="url(#a)"><path d="m41.78 16.5v-14.96a1.274 1.274 0 0 0 -1.209-1.29h-9.587a1.249 1.249 0 0 0 -1.212 1.134l-.64 6.639a28.106 28.106 0 0 0 -8 3.37l-5.091-4.221a1.222 1.222 0 0 0 -1.641.078l-7.14 7.13a1.218 1.218 0 0 0 -.078 1.638l4.228 5.1a29.2 29.2 0 0 0 -3.37 7.975l-6.662.643a1.241 1.241 0 0 0 -1.128 1.212v10.1a1.241 1.241 0 0 0 1.128 1.212l6.646.64a28.1 28.1 0 0 0 3.376 7.986l-4.218 5.093a1.218 1.218 0 0 0 .078 1.638l7.14 7.127a1.215 1.215 0 0 0 1.638.075l5.1-4.228a28.923 28.923 0 0 0 7.988 3.367l.64 6.656a1.249 1.249 0 0 0 1.212 1.134h10.122a1.249 1.249 0 0 0 1.212-1.134l.64-6.639a28.067 28.067 0 0 0 8-3.37l5.093 4.222a1.222 1.222 0 0 0 1.638-.078l7.14-7.13a1.211 1.211 0 0 0 .078-1.638l-4.225-5.1a29.069 29.069 0 0 0 3.37-7.978l6.581-.64a1.238 1.238 0 0 0 1.121-1.212v-9.615a1.261 1.261 0 0 0 -1.267-1.219h-15.568" transform="translate(.562 .562)"/><circle cx="19.499" cy="19.499" r="19.499" transform="translate(17.062 17.062)"/></g></g></svg>