<svg height="68.487" viewBox="0 0 56 68.487" width="56" xmlns="http://www.w3.org/2000/svg" xmlns:xlink="http://www.w3.org/1999/xlink"><clipPath id="a"><path d="m0 0h56v68.486h-56z"/></clipPath><g fill="none" stroke="#08d884" stroke-width="2"><path d="m51.528 15.995v-9.907" stroke-miterlimit="10"/><g clip-path="url(#a)"><g stroke-miterlimit="10"><circle cx="2.476" cy="2.476" r="2.476" transform="translate(49.052 1.136)"/><path d="m6.44 5.284a6.192 6.192 0 0 0 0 12.384" transform="translate(.507 10.711)"/><path d="m16.205 17.668a6.192 6.192 0 0 0 0-12.384" transform="translate(32.848 10.711)"/><circle cx="1.238" cy="1.238" r="1.238" transform="translate(18.094 20.949)"/><circle cx="1.238" cy="1.238" r="1.238" transform="translate(26.762 20.949)"/><circle cx="1.238" cy="1.238" r="1.238" transform="translate(35.43 20.949)"/><path d="m27.87 17.668h-17.336a6.192 6.192 0 1 1 0-12.384h17.336a6.192 6.192 0 0 1 0 12.384z" transform="translate(8.799 10.711)"/><rect height="27.243" rx="3.273" transform="translate(6.949 8.565)" width="42.103"/><path d="m0 0v6.054" transform="translate(34.054 35.808)"/><path d="m0 6.054v-6.054" transform="translate(21.946 35.808)"/></g><path d="m54.736 40.618a27.243 27.243 0 0 0 -54.486 0z" stroke-linejoin="round" transform="translate(.507 27.111)"/></g></g></svg>