<svg height="40.594" viewBox="0 0 68.409 40.594" width="68.409" xmlns="http://www.w3.org/2000/svg" xmlns:xlink="http://www.w3.org/1999/xlink"><clipPath id="a"><path d="m0 0h68.409v40.594h-68.409z"/></clipPath><g clip-path="url(#a)" fill="none" stroke="#08d884" stroke-linejoin="round" stroke-width="2"><path d="m3.336 7.716 19.281 15.035a10.562 10.562 0 0 0 4.892 1.606 4.757 4.757 0 0 0 3.13-.92 4.3 4.3 0 0 0 3.133-.033 5.435 5.435 0 0 0 2.869-2.649 5.321 5.321 0 0 0 3.458-.5 4.677 4.677 0 0 0 2.3-2.406 4.5 4.5 0 0 0 3.16-1.131 4.381 4.381 0 0 0 1.1-5.358" transform="translate(6.695 15.486)"/><path d="m39.947 7.914c-.054-.014-8.69-3.687-14.115-6.114-6.321-2.826-9.788-.965-14.743 3.991-1.885 1.885-4.444 5.7-3.783 8.5a3.41 3.41 0 0 0 2.366 2.484c3.128 1.025 5.976.039 8.095-2.775a6.92 6.92 0 0 0 2.072-.659c.259-.114.562-.25.965-.412 1.576 1.48 15.868 11.156 18.109 12.971" stroke-linecap="round" transform="translate(14.449 .952)"/><path d="m0 0h12.037" transform="translate(14.91 5.388)"/><g stroke-linecap="round"><path d="m5.016 0-5.016 3.644" transform="translate(53.363 23.203)"/><path d="m0 0 10.726 9.424" transform="translate(38.372 23.914)"/><path d="m0 0 9.132 8.05" transform="translate(34.204 28.191)"/><path d="m0 0 9.749 8.038" transform="translate(27.585 30.885)"/><path d="m7.892 27.438h-7.517v-27.063h15.035z" transform="translate(.753 .753)"/><path d="m24.892 27.438h7.518v-27.063h-15.035z" transform="translate(34.871 .753)"/></g></g></svg>