<svg enable-background="new 0 0 557.8 136.7" height="136.7" viewBox="0 0 557.8 136.7" width="557.8" xmlns="http://www.w3.org/2000/svg"><g clip-rule="evenodd" fill-rule="evenodd"><path d="m26.8 121.4c-8-11-12.7-24.6-12.7-39.3 0-36.9 29.9-66.9 66.7-66.9s66.7 30 66.7 66.9c0 14.7-4.7 28.2-12.7 39.3l-32-52.2-3.1 5.2 3.1 14.6-22-37.8-13.6 23.2 3.2 14.7-11.6-19.8z" fill="#b1eb21"/><g fill="#000027"><path d="m196.4 97h-10.5v-51.5h12.1l22.3 33.6v-33.6h10.5v51.5h-10.8l-23.7-35.5v35.5zm44.9-30.6c3.7-3.6 8.3-5.3 13.7-5.3 5.3 0 9.9 1.8 13.5 5.3 3.7 3.5 5.5 7.8 5.5 13 0 5.3-1.8 9.7-5.6 13.2-3.7 3.5-8.3 5.3-13.6 5.3-5.4 0-9.9-1.7-13.6-5.2s-5.5-7.8-5.5-13.1 1.9-9.7 5.6-13.2zm7.4 19.4c1.6 1.6 3.7 2.5 6.2 2.5 4.9 0 8.6-3.7 8.6-9 0-2.6-.9-4.7-2.5-6.4s-3.7-2.6-6.2-2.6c-2.4 0-4.5.9-6.1 2.6-1.6 1.6-2.5 3.8-2.5 6.4 0 2.7.9 4.8 2.5 6.5zm40.5-18.6c1.5-3.2 5.3-5.8 9.9-5.8.6 0 1.1 0 1.5.1v10.2c-.6-.1-1.2-.1-1.9-.1-6.6 0-9.5 4.1-9.5 10.5v14.9h-10.3v-35.2h10.2zm234.3-5.8c-4.7 0-8.4 2.6-9.9 5.8h-.1v-5.4h-10.2v35.2h10.3v-14.9c0-6.3 2.9-10.5 9.5-10.5.7 0 1.3 0 1.9.1v-10.1c-.4-.1-.9-.2-1.5-.2zm-193.4 31.1h.1v4.5h9.9v-51.5h-10.2v20.4h-.1c-2.6-3.1-6.1-4.7-10.5-4.7-4.8 0-8.8 1.8-12 5.6-3.2 3.7-4.8 7.9-4.8 12.6 0 4.9 1.6 9.3 4.7 12.9s7.1 5.4 12 5.4 8.6-1.8 10.9-5.2zm-17.2-13.2c0-5.2 3.7-8.9 8.7-8.9 4.9 0 8.7 3.7 8.7 8.9 0 2.6-.9 4.8-2.5 6.5-1.6 1.6-3.7 2.5-6.2 2.5-2.4 0-4.5-.9-6.2-2.5-1.7-1.7-2.5-3.8-2.5-6.5zm46-33.8v41.4h22v10.1h-32.6v-51.5zm25.9 41.7c0 3.2 1.1 5.7 3.4 7.6s5.1 2.8 8.4 2.8c4.7 0 8.2-1.7 10.5-5.1l.1.1v4.4h9.5v-21.8c0-9.2-6-14.1-15.2-14.1-7.7 0-13.1 2.8-16.1 8.4l7.8 4.7c1.8-3.2 4.3-4.7 7.8-4.7 3.7 0 5.7 1.9 5.7 4.3 0 1.7-.9 2.6-2.8 2.6h-3.5c-3.9 0-7.2.6-10.5 2.1-3.2 1.5-5.2 4.5-5.2 8.7zm21.9-4.6v.8c0 3.9-2.6 6.8-7 6.8-2.6 0-4.5-1.2-4.5-3.6 0-2.6 2.4-4 5.3-4zm13.5-20.8h11.3l8.7 20.1 7.8-20.1h10.6l-21.3 52.4h-11l8.6-21zm59.2 27.3c-4.4 0-8.1-2.6-8.7-6.9h25.5c.1-.8.1-2 .1-3.7 0-5.2-1.6-9.5-4.9-12.7-3.2-3.2-7.4-4.9-12.6-4.9-5.1 0-9.5 1.8-13.1 5.4s-5.5 7.9-5.5 13c0 5.4 1.8 9.8 5.5 13.3 3.7 3.4 8.3 5.1 13.7 5.1 7.2 0 12.2-2.6 15.1-8l-7.4-4.9c-1.4 2.7-4.6 4.3-7.7 4.3zm-.7-19.8c4.7 0 7.2 3 7.5 6.1h-15.2c.2-1.4 1-2.8 2.4-4.1s3.2-2 5.3-2z"/><path d="m536.7 58.8c-.9 0-1.8-.2-2.6-.5s-1.6-.8-2.2-1.5c-.6-.6-1.1-1.4-1.5-2.2-.3-.8-.5-1.7-.5-2.6 0-1.8.7-3.6 2-4.8 1.3-1.3 3-2 4.8-2s3.6.7 4.8 2c1.3 1.3 2 3 2 4.8 0 .9-.2 1.8-.5 2.6s-.8 1.6-1.5 2.2c-.6.6-1.4 1.1-2.2 1.5s-1.7.5-2.6.5zm0-12.4c-3.1 0-5.5 2.5-5.5 5.6s2.5 5.6 5.5 5.6 5.6-2.5 5.6-5.6-2.5-5.6-5.6-5.6zm-1 6.7v2.8h-1.6v-7.8h3.1c1.5 0 2.8.8 2.8 2.5 0 .5-.1 1-.4 1.4s-.7.7-1.1.9l1.6 3.1h-1.8l-1.4-2.8h-1.2zm2.6-2.5c0-.8-.6-1-1.3-1h-1.3v1.9h1.4c.6.1 1.2-.2 1.2-.9z"/></g></g></svg>