<svg viewBox="0 0 255.12 255.12" xmlns="http://www.w3.org/2000/svg"><rect fill="#c01c1c" height="255.12" rx="17.01" width="255.12"/><g fill="#fff" transform="translate(-14.17 -14.17)"><path d="m86.25 110c4.4 0 8.81-.13 13.21 0 2.25.1 2.55-.91 2.54-2.88 0-5.23-.17-10.45.26-15.68 1.71-20.91 18.89-37.2 39.38-37.25s37.83 16.25 39.56 37.39c.43 5.23.3 10.46.24 15.69 0 2.21.69 2.78 2.7 2.72 4.4-.14 8.8-.11 13.21 0 1.67 0 2.19-.59 2.14-2.27-.1-2.94 0-5.88 0-9.6a100.16 100.16 0 0 0 -.66-11.29c-3.51-24.69-23.14-47.45-51.34-50.47-24.3-2.59-47.88 11.28-58.43 35-5.29 11.85-5.24 24.3-5.06 36.85 0 1.86 1 1.79 2.25 1.79z"/><path d="m212.59 132c0-2.74-.72-3.41-3.3-3.4-22.54.11-45.09.07-67.64.07s-45.09 0-67.63-.06c-2.42 0-3.16.57-3.15 3.2q.13 43.35 0 86.68c0 2.53.7 3 3 3h28.17v.55 21c0 4.68 2.71 5.8 6 2.49l24-24h49.35v-8.6a31.88 31.88 0 0 0 -.14-5.17c-.56-3.36-1.95-3.92-7.12-4.06-3.64-.14-7.13-.14-10.77-.14-5.45-.14-11.32-.28-15.23-4.75-3.63-4.19-3.77-9.64-3.91-14.67v-12.91c0-4.19 0-9.22 2-13.14 4.9-9.92 19.29-11.6 28.93-11.6 6 .14 10.21.56 21.25 2.66v17.85a19.38 19.38 0 0 0 -4.06-1.82c-3.21-1.12-8-2-15.93-2a59.55 59.55 0 0 0 -7.41.42c-3.21.56-4.61 1.68-5.45 3.08s-.84 3.21-1 6.43v6.56c0 6.71 1.68 7.83 8.25 7.83 5.73 0 14.26-1 20 1a10.82 10.82 0 0 1 6.42 5.45c1.82 3.91 2.1 9.22 2.24 18.45v9h10c2.36 0 3.18-.48 3.17-3.15q-.19-43.08-.04-86.25z"/></g></svg>