<svg height="115.42667" viewBox="0 0 299.29333 115.42667" width="299.29333" xmlns="http://www.w3.org/2000/svg"><g fill="#231f20" transform="matrix(.13333333 0 0 -.13333333 0 115.42667)"><path d="m1014.94 778.266h-53.034v53.031c0 19.008-15.406 34.43-34.429 34.43h-222.668c-19.02 0-34.43-15.422-34.43-34.43v-53.031h-53.031c-19.02 0-34.43-15.418-34.43-34.43v-397.59c0-19.019 15.41-34.441 34.43-34.441h53.031v-53.02c0-19.019 15.41-34.437 34.43-34.437h222.668c19.023 0 34.429 15.418 34.429 34.437v53.02h53.034c19.02 0 34.43 15.422 34.43 34.441v397.59c0 19.012-15.41 34.43-34.43 34.43m-53.034-437.301c0-16.098-13.047-29.16-29.148-29.16h-233.231c-16.097 0-29.148 13.062-29.148 29.16v408.152c0 16.098 13.051 29.149 29.148 29.149h233.231c16.101 0 29.148-13.051 29.148-29.149z"/><path d="m1612.59 778.266h-53.03v53.031c0 19.008-15.41 34.43-34.43 34.43h-222.67c-19.02 0-34.43-15.422-34.43-34.43v-53.031h-53.03c-19.02 0-34.43-15.418-34.43-34.43v-519.488h87.46v524.769c0 16.098 13.05 29.149 29.15 29.149h233.23c16.1 0 29.15-13.051 29.15-29.149v-524.769h87.46v519.488c0 19.012-15.41 34.43-34.43 34.43"/><path d="m1894.82 778.266h349.84v87.461h-344.56c-19.02 0-34.43-15.422-34.43-34.43v-53.031h-53.03c-19.02 0-34.43-15.418-34.43-34.43v-397.59c0-19.019 15.41-34.441 34.43-34.441h53.03v-53.02c0-19.019 15.41-34.437 34.43-34.437h344.56v87.457h-349.84c-16.1 0-29.15 13.062-29.15 29.16v131.191c0 16.102 13.05 29.149 29.15 29.149h262.38v87.461h-262.38c-16.1 0-29.15 13.058-29.15 29.16v131.191c0 16.098 13.05 29.149 29.15 29.149"/><path d="m432.02 778.266h-53.032v53.031c0 19.008-15.41 34.43-34.429 34.43h-222.668c-19.02 0-34.4301-15.422-34.4301-34.43v-53.031h-53.0312c-19.0195 0-34.4297-15.418-34.4297-34.43v-519.488h87.4609v204.078c0 16.101 13.0511 29.148 29.1481 29.148h227.95c19.019 0 34.429 15.422 34.429 34.434v47.75h53.032c19.019 0 34.429 15.418 34.429 34.437v169.641c0 19.012-15.41 34.43-34.429 34.43m-53.032-204.071c0-16.097-13.047-29.16-29.148-29.16h-233.231c-16.097 0-29.1481 13.063-29.1481 29.16v174.922c0 16.098 13.0511 29.149 29.1481 29.149h233.231c16.101 0 29.148-13.051 29.148-29.149z"/><path d="m248.039 32.6289c0 8.9961-5.793 15.7031-15.703 15.7031h-22.109v-30.6484h22.109c10.371 0 15.703 6.25 15.703 14.9453zm-37.812 31.8711h21.195c9.148 0 14.027 5.4844 14.027 13.8789 0 8.5352-5.488 13.7227-13.722 13.7227h-21.5zm58.398-33.3945c0-18.7578-12.957-29.58206-34.457-29.58206h-43.613v106.73856h43.914c21.043 0 31.109-10.9768 31.109-26.6839 0-12.8086-7.012-19.2109-14.793-22.875v-.9179c7.625-2.7383 17.84-10.2149 17.84-26.6797"/><path d="m413.203 1.52344h-20.133v106.73856h20.133z"/><path d="m628.266 54.8906c0 20.7422-14.485 36.2891-34.004 36.2891-19.52 0-34.004-15.5469-34.004-36.2891 0-20.7343 14.484-36.289 34.156-36.289 19.52 0 33.852 15.5547 33.852 36.289zm-88.598 0c0 31.2617 23.031 54.8984 54.594 54.8984 31.41 0 54.59-23.6367 54.59-54.8984 0-31.1054-22.872-54.8906-54.59-54.8906-31.41 0-54.594 23.4805-54.594 54.8906"/><path d="m880.348 1.52344h-19.672v70.90236h-1.223l-26.531-58.7031h-20.281l-26.688 58.7031h-1.219v-70.90236h-19.671v106.73856h24.707l32.48-73.1956h1.215l32.332 73.1956h24.551z"/><path d="m1081.76 19.0547v-17.53126h-73.04v106.73856h71.52v-17.5354h-51.85v-26.5313h44.68v-17.0781h-44.68v-28.0625z"/><path d="m1284.46 90.2734h-30.2v-88.74996h-20.13v88.74996h-30.19v17.9886h80.52z"/><path d="m1429.67 60.2266h20.28c10.37 0 16.62 6.5586 16.62 15.5547 0 9.4531-6.25 15.3984-16.62 15.3984h-20.28zm39.64-58.70316-22.25 41.62496h-17.39v-41.62496h-19.67v106.73856h42.23c21.36 0 34.47-12.6565 34.47-31.4143 0-14.4805-7.94-25.1563-20.59-30.0352l24.56-45.28906z"/><path d="m1639.42 1.52344h-20.13v106.73856h20.13z"/><path d="m1818.34 0c-32.63 0-52.45 23.0234-52.45 54.4375 0 32.3281 21.04 55.3515 52.45 55.3515 24.09 0 43.31-12.8085 46.97-36.4452h-21.65c-3.36 10.9804-12.36 17.8359-25.32 17.8359-19.05 0-31.87-16.0078-31.87-36.7422 0-21.5039 13.72-35.8359 31.87-35.8359 13.88 0 23.64 6.8632 26.99 17.2265h21.66c-3.51-22.8672-23.95-35.8281-48.65-35.8281"/><path d="m2017.06 0c-25.47 0-39.04 13.7227-39.8 34.1563h19.83c.91-10.6758 7.77-17.0782 19.97-17.0782 9.15 0 16.77 3.8125 16.77 13.1094 0 10.8242-10.52 14.332-20.28 17.2344l-6.1 1.8281c-13.11 3.9609-26.84 12.043-26.84 29.7344 0 19.0625 15.56 30.8046 36.14 30.8046 21.96 0 35.84-13.2656 36.45-31.4101h-19.82c-.92 8.3867-6.26 14.332-16.47 14.332-9.46 0-16.01-5.0351-16.01-12.8086 0-9.1484 9.29-12.1992 18.29-14.9453l5.34-1.6797c10.06-3.0507 29.58-10.2148 29.58-32.4765 0-20.89455-17.38-30.8008-37.05-30.8008"/></g></svg>