<svg height="384" viewBox="0 0 1984 384" width="1984" xmlns="http://www.w3.org/2000/svg"><g fill="none" fill-rule="evenodd"><path d="m0 0h1984v384h-1984z"/><path d="m595.785 112.21275c40.775 0 63.7475 21.31825 68.9225 63.955.8275 5.17425 1.2425 10.9695 1.2425 17.38575l-.3125 9.62425c0 2.48375-1.24 3.7255-3.725 3.7255h-97.1735c-1.03475 0-1.55225.5175-1.55225 1.55225l.185812 1.892358c.032378.305536.065461.606143.099248.901822l.211175 1.714934c.036604.275966.073913.547003.111927.813112l.236531 1.537516c.530796 3.203152 1.180605 5.573448 1.949307 7.111008 4.9675 14.902 17.0755 22.45675 36.324 22.66375 13.730976 0 24.703831-5.516002 32.919263-16.548239l.610987-.837761c.8275-1.24175 1.8625-1.86275 3.105-1.86275.8275 0 1.5525.3105 2.1725.9315l19.2475 15.8335c1.8625 1.44875 2.175 3.1045.9325 4.96725-6.4175 9.107-15.005 16.144-25.7675 21.1115-10.55675 4.96725-22.35425 7.451-35.3935 7.451-16.144 0-29.90775-3.622-41.29125-10.86625-10.80395-7.002533-18.803632-16.712853-23.998821-29.130733l-.527429-1.294267c-4.7605-11.17675-7.14075-26.69975-7.14075-46.56925 0-12.00425 1.24175-21.73225 3.7255-29.18325 4.1395-14.488 11.901-25.87175 23.2845-34.1505 11.5905-8.486 25.45775-12.729 41.60175-12.729zm1318.05 0c40.775 0 63.75 21.31825 68.9225 63.955.8275 5.17425 1.2425 10.9695 1.2425 17.38575l-.31 9.62425c0 2.48375-1.2425 3.7255-3.725 3.7255h-97.175c-1.035 0-1.5525.5175-1.5525 1.55225l.0907.960964.19414 1.833216.21113 1.714934.2281 1.596655c.55204 3.587537 1.2426 6.209148 2.07093 7.864981 4.9675 14.902 17.075 22.45675 36.3225 22.66375 13.73171 0 24.70553-5.516002 32.91915-16.548239l.61085-.837761c.8275-1.24175 1.8625-1.86275 3.105-1.86275.8275 0 1.5525.3105 2.1725.9315l19.25 15.8335c1.8625 1.44875 2.1725 3.1045.93 4.96725-6.415 9.107-15.005 16.144-25.7675 21.1115-10.555 4.96725-22.3525 7.451-35.3925 7.451-16.145 0-29.9075-3.622-41.2925-10.86625-11.175-7.244-19.35-17.38575-24.525-30.425-4.76-11.17675-7.14-26.69975-7.14-46.56925 0-12.00425 1.24-21.73225 3.725-29.18325 4.14-14.488 11.9-25.87175 23.285-34.1505 11.59-8.486 25.4575-12.729 41.6-12.729zm-753.17 0c40.775 0 63.7475 21.31825 68.9225 63.955.8275 5.17425 1.2425 10.9695 1.2425 17.38575l-.31 9.62425c0 2.48375-1.2425 3.7255-3.725 3.7255h-97.175c-1.035 0-1.5525.5175-1.5525 1.55225l.0907.960964.19414 1.833216.21113 1.714934.2281 1.596655c.55204 3.587537 1.2426 6.209148 2.07093 7.864981 4.9675 14.902 17.075 22.45675 36.3225 22.66375 13.73171 0 24.70315-5.516002 32.91898-16.548239l.61102-.837761c.8275-1.24175 1.8625-1.86275 3.105-1.86275.8275 0 1.5525.3105 2.1725.9315l19.25 15.8335c1.8625 1.44875 2.1725 3.1045.93 4.96725-6.415 9.107-15.005 16.144-25.7675 21.1115-10.555 4.96725-22.3525 7.451-35.3925 7.451-16.145 0-29.9075-3.622-41.2925-10.86625-11.175-7.244-19.35-17.38575-24.525-30.425-4.76-11.17675-7.14-26.69975-7.14-46.56925 0-12.00425 1.24-21.73225 3.725-29.18325 4.14-14.488 11.9-25.87175 23.285-34.1505 11.59-8.486 25.4575-12.729 41.6-12.729zm-408.0925 0c16.145 0 30.2175 4.036 42.2225 12.108s19.9725 18.21375 23.905 30.425c1.035 3.31175 1.76 6.62325 2.175 9.93475v.621c0 2.06975-1.14 3.3115-3.415 3.7255l-27.9425 4.036h-.62c-1.865 0-3.105-1.03475-3.7275-3.1045 0-1.035-.1025-1.86275-.31-2.48375-.4125-1.65575-.8275-3.1045-1.2425-4.3465-1.8625-5.79525-5.5875-10.5555-11.175-14.28125-5.59-3.7255-12.2125-5.58825-19.87-5.58825-7.865 0-14.5925 2.06975-20.18 6.20925-5.3825 3.9325-9.0025 9.41725-10.865 16.4545-2.07 6.623-3.105 15.8335-3.105 27.631 0 11.3835.93 20.59375 2.7925 27.631 2.07 7.244 5.795 13.03925 11.1775 17.38575 5.3825 4.1395 12.1075 6.20925 20.18 6.20925 7.865 0 14.5925-1.96625 20.18-5.89875 5.795-4.1395 9.52-9.62425 11.1775-16.4545.205-.414.31-.93125.31-1.55225.2075-.207.31-.5175.31-.9315.583529-2.337412 1.902284-3.391723 3.954179-3.162517l28.333321 4.404517c1.035.207 1.8625.72425 2.485 1.55225.8275.621 1.1375 1.55225.93 2.794l-.543195 2.792432-.369187 1.747078-.336435 1.44944-.206094.800938c-.033136.122466-.065666.23942-.097589.350862-3.9325 13.24625-11.9 23.802-23.905 31.667-12.005 7.658-26.0775 11.487-42.2225 11.487-15.9375 0-29.7-4.036-41.29-12.108-11.5925-8.279-19.6625-19.352-24.2175-33.21925-3.31-9.31375-4.9675-21.73225-4.9675-37.25525 0-14.90225 1.6575-27.1135 4.9675-36.63425 4.3475-13.6605 12.315-24.423 23.905-32.288 11.7975-8.072 25.665-12.108 41.6025-12.108zm763.36 0c13.04 0 24.525 2.27675 34.46 6.83025 9.935 4.55325 17.5925 10.866 22.975 18.938 5.38 7.865 8.0725 16.86825 8.0725 27.01v104.62525c0 1.035-.415 1.96625-1.2425 2.79425-.62.62075-1.45.93125-2.4825.93125h-28.5625c-1.035 0-1.9675-.3105-2.795-.93125-.62-.828-.9325-1.75925-.9325-2.79425v-9.93475c0-.621-.205-.93125-.62-.93125-.415-.207-.8275-.1035-1.2425.31025-10.14 11.17675-24.8375 16.765-44.085 16.765-15.5225 0-28.355-3.9325-38.4975-11.7975-9.935-7.865-14.9025-19.559-14.9025-35.082 0-16.144 5.59-28.666 16.765-37.56575 11.385-9.107 27.3225-13.66025 47.8125-13.66025h33.2175c1.035 0 1.5525-.5175 1.5525-1.55225v-7.45125c0-8.072-2.38-14.281-7.14-18.6275-4.76-4.5535-11.9-6.83025-21.4225-6.83025-7.865 0-14.28 1.449-19.2475 4.3465-4.76 2.69075-7.7625 6.51975-9.0025 11.487-.6225 2.48375-2.07 3.5185-4.3475 3.10475l-30.115-3.7255c-1.035-.207-1.965-.5175-2.7925-.9315-.6225-.621-.83-1.34525-.6225-2.17325 1.655-12.62525 8.3825-22.974 20.18-31.046 12.005-8.072 27.01-12.108 45.0175-12.108zm-646.55 2.48375c1.035 0 1.8625.414 2.485 1.24175.8275.621 1.2425 1.44875 1.2425 2.48375v94.38c0 9.72775 2.4825 17.48925 7.45 23.2845 5.175 5.79525 12.315 8.693 21.4225 8.693 9.3125 0 16.765-2.89775 22.3525-8.693s8.3825-13.55675 8.3825-23.2845v-94.38c0-1.035.31-1.86275.93-2.48375.83-.82775 1.76-1.24175 2.795-1.24175h28.2525c1.035 0 1.8625.414 2.4825 1.24175.83.621 1.2425 1.44875 1.2425 2.48375v151.19425c0 1.035-.4125 1.96625-1.2425 2.79425-.62.62075-1.4475.93125-2.4825.93125h-28.2525c-1.035 0-1.965-.3105-2.795-.93125-.62-.828-.93-1.75925-.93-2.79425v-9.93475c0-.621-.2075-1.03475-.62-1.24175-.415-.207-.83 0-1.2425.62075-8.4875 10.96975-21.215 16.4545-38.1875 16.4545-15.73 0-28.975-4.5535-39.7375-13.66025-10.5575-9.10675-15.835-22.04275-15.835-38.8075v-104.62525c0-1.035.31-1.86275.9325-2.48375.8275-.82775 1.7575-1.24175 2.7925-1.24175zm-421.738-1.86275c12.076326 0 22.732675 1.893684 31.968609 5.681053l1.250641.528197c9.52075 3.9325 16.86825 9.52075 22.04275 16.76475 5.17425 7.03725 7.7615 15.109 7.7615 24.216 0 1.03475-.414 1.96625-1.242 2.794-.62075.621-1.44875.9315-2.4835.9315h-26.38925c-1.03475 0-1.96625-.3105-2.79425-.9315-.62075-.82775-.93125-1.75925-.93125-2.794 0-5.3815-2.69075-9.83125-8.072-13.34975-5.17425-3.7255-12.315-5.5885-21.42175-5.5885-8.072 0-14.69525 1.5525-19.8695 4.657-4.9675 2.89775-7.451 7.037-7.451 12.4185 0 4.96725 2.38025 8.79625 7.1405 11.487.367963.183982.753527.369665 1.156692.557052l1.262298.567267c.438368.190791.894336.383286 1.367907.577483l1.473518.587701 1.579129.59792 1.684744.608139 1.79036.618362 1.895977.628583 2.001597.638808c.342401.10732.689204.215066 1.040407.323238l2.160029.654145 2.265654.664372 2.37128.674601 2.476908.684829 6.83 1.86275c10.96975 3.3115 20.18 6.7265 27.631 10.245 7.451 3.31175 13.76375 8.072 18.93825 14.28125 5.17425 6.00225 7.7615 13.86725 7.7615 23.595 0 14.69525-5.79525 26.28575-17.386 34.77175-11.5905 8.27875-27.01 12.41825-46.2585 12.41825-13.03925 0-24.5265-1.86275-34.46125-5.58825-9.727675-3.9325-17.2822-9.21025-22.663525-15.8335-5.381325-6.83-8.071975-14.38475-8.071975-22.6635v-2.79425c0-1.03475.31046-1.86275.93138-2.48375.827895-.82775 1.75927-1.24175 2.794145-1.24175h27.320475c1.035 0 1.86275.414 2.48375 1.24175.828.621 1.24175 1.449 1.24175 2.48375v.621c0 5.17425 2.79425 9.72775 8.3825 13.66025 5.79525 3.7255 13.03925 5.58825 21.73225 5.58825 8.279 0 15.0055-1.65575 20.18-4.96725 5.17425-3.51875 7.7615-7.865 7.7615-13.0395 0-4.76025-2.17325-8.279-6.51975-10.5555-1.552312-.931406-3.482977-1.877367-5.792005-2.837883l-1.595407-.6425c-.550487-.214885-1.119659-.430489-1.707516-.646812l-1.819625-.651125c-.312614-.108881-.629898-.21794-.951854-.32718l-1.987792-.657594-2.099904-.661906c-.359327-.110677-.723325-.221534-1.091994-.33257l-2.268074-.668375c-.387355-.111756-.779381-.22369-1.176079-.335805l-11.7975-3.7255c-10.55575-3.1045-19.45575-6.416-26.69975-9.93475-7.24405-3.5185-13.349775-8.27875-18.31715-14.281-4.967375-6.20925-7.451048-14.07425-7.451048-23.595 0-14.48825 5.691773-25.97525 17.075348-34.46125 11.3836-8.69275 26.3891-13.03925 45.01685-13.03925zm1327.3555-.621c15.52885 0 27.71589 4.617762 36.56345 13.853055l.69155.738695c9.1075 9.52075 13.66 22.8705 13.66 40.04925v102.7625c0 1.035-.415 1.96625-1.2425 2.79425-.62.62075-1.4475.93125-2.4825.93125h-28.2525c-1.035 0-1.9675-.3105-2.795-.93125-.62-.828-.93-1.75925-.93-2.79425v-95.31125c0-9.521-2.5875-17.0755-7.7625-22.66375-4.9675-5.58825-11.6925-8.3825-20.18-8.3825-8.485 0-15.42 2.79425-20.8 8.3825-5.3825 5.58825-8.0725 13.03925-8.0725 22.35325v95.62175c0 1.035-.415 1.96625-1.2425 2.79425-.62.62075-1.4475.93125-2.4825.93125h-28.2525c-1.035 0-1.965-.3105-2.795-.93125-.62-.828-.93-1.75925-.93-2.79425v-95.31125c0-9.521-2.5875-17.0755-7.7625-22.66375s-12.005-8.3825-20.49-8.3825c-7.865 0-14.385 2.27675-19.56 6.83025-4.965 4.55325-7.865 10.7625-8.6925 18.6275v100.89975c0 1.035-.4125 1.96625-1.24 2.79425-.6225.62075-1.45.93125-2.485.93125h-28.5625c-1.035 0-1.965-.3105-2.7925-.93125-.6225-.828-.9325-1.75925-.9325-2.79425v-151.19425c0-1.035.31-1.86275.9325-2.48375.8275-.82775 1.7575-1.24175 2.7925-1.24175h28.5625c1.035 0 1.8625.414 2.485 1.24175.8275.621 1.24 1.44875 1.24 2.48375v10.24525c0 .62075.2075 1.03475.6225 1.24175.4125.207.8275 0 1.24-.621 4.555-5.79525 10.1425-10.038 16.765-12.72875 6.83-2.89775 14.385-4.3465 22.665-4.3465 10.1425 0 19.04 2.06975 26.7 6.20925 7.6575 4.1395 13.555 10.14175 17.695 18.00675.6225.82775 1.345.82775 2.1725 0 4.555-8.279 10.8675-14.38475 18.94-18.31725 8.07-3.9325 17.075-5.89875 27.01-5.89875zm-706.6075.621c6.625 0 12.42 1.34525 17.3875 4.036 1.655.82775 2.275 2.38025 1.8625 4.65675l-5.2775 27.9415c-.2075 2.48375-1.6575 3.20825-4.3475 2.17325-3.105-1.03475-6.7275-1.55225-10.865-1.55225l-.78907.003105-1.4661.02484-1.3167.04968c-1.035.05175-1.91438.129375-2.63813.232875-8.6925.41375-15.9375 3.5185-21.7325 9.31375-5.795 5.58825-8.6925 12.93575-8.6925 22.04275v87.86025c0 1.035-.415 1.96625-1.2425 2.79425-.62.62075-1.4475.93125-2.4825.93125h-28.5625c-1.035 0-1.9675-.3105-2.795-.93125-.62-.828-.93-1.75925-.93-2.79425v-151.19425c0-1.035.31-1.86275.93-2.48375.8275-.82775 1.76-1.24175 2.795-1.24175h28.5625c1.035 0 1.8625.414 2.4825 1.24175.8275.621 1.2425 1.44875 1.2425 2.48375v13.97075c0 .82775.1025 1.34525.31 1.55225.415 0 .8275-.3105 1.2425-.93125 8.6925-13.4535 20.8-20.18 36.3225-20.18zm250.995-56.8143467h10.8675c1.035 0 1.8625.4139517 2.4825 1.2418467.83.620925 1.2425 1.448825 1.2425 2.483675v21.732325c0 1.03475-.4125 1.96625-1.2425 2.794-.62.621-1.4475.9315-2.4825.9315h-8.0725c-8.9 0-15.11 1.75925-18.6275 5.27775-3.3125 3.5185-4.9675 9.93475-4.9675 19.2485v3.10475c0 1.03475.5175 1.55225 1.5525 1.55225h30.735c1.035 0 1.8625.414 2.485 1.24175.8275.621 1.24 1.449 1.24 2.48375v24.5265c0 1.03475-.4125 1.96625-1.24 2.794-.6225.621-1.45.9315-2.485.9315h-30.735c-1.035 0-1.5525.51725-1.5525 1.55225v121.7005c0 1.035-.4125 1.96625-1.2425 2.79425-.62.62075-1.4475.93125-2.4825.93125h-28.5625c-1.035 0-1.9675-.3105-2.795-.93125-.62-.828-.93-1.75925-.93-2.79425v-121.7005c0-1.035-.5175-1.55225-1.5525-1.55225h-19.25c-1.035 0-1.965-.3105-2.7925-.9315-.6225-.82775-.9325-1.75925-.9325-2.794v-24.5265c0-1.03475.31-1.86275.9325-2.48375.8275-.82775 1.7575-1.24175 2.7925-1.24175h19.25c1.035 0 1.5525-.5175 1.5525-1.55225v-5.58825c0-13.4535 1.7575-23.802 5.2775-31.046175 3.5175-7.451025 9.3125-12.72885 17.385-15.833475 8.0725-3.1046 19.455-4.5534177 34.15-4.3464467zm107.1025 56.8143467c6.6225 0 12.42 1.34525 17.385 4.036 1.6575.82775 2.2775 2.38025 1.865 4.65675l-5.28 27.9415c-.205 2.48375-1.655 3.20825-4.345 2.17325-3.105-1.03475-6.7275-1.55225-10.8675-1.55225l-.7884.003105-1.46513.02484-1.31616.04968c-1.03468.05175-1.91406.129375-2.63781.232875-8.6925.41375-15.9375 3.5185-21.7325 9.31375-5.795 5.58825-8.6925 12.93575-8.6925 22.04275v87.86025c0 1.035-.415 1.96625-1.2425 2.79425-.62.62075-1.45.93125-2.485.93125h-28.56c-1.035 0-1.9675-.3105-2.795-.93125-.6225-.828-.9325-1.75925-.9325-2.79425v-151.19425c0-1.035.31-1.86275.9325-2.48375.8275-.82775 1.76-1.24175 2.795-1.24175h28.56c1.035 0 1.865.414 2.485 1.24175.8275.621 1.2425 1.44875 1.2425 2.48375v13.97075c0 .82775.1025 1.34525.31 1.55225.4125 0 .8275-.3105 1.2425-.93125 8.6925-13.4535 20.8-20.18 36.3225-20.18zm117.3825 89.723h-26.0775c-10.97 0-19.6625 2.06975-26.08 6.20925-6.2075 4.1395-9.3125 10.03825-9.3125 17.69625 0 6.62325 2.38 11.7975 7.14 15.523 4.9675 3.5185 11.28 5.27775 18.9375 5.27775 10.1425 0 18.835-2.6905 26.08-8.07175 7.245-5.3815 10.865-12.2115 10.865-20.4905v-14.59175c0-1.03475-.5175-1.55225-1.5525-1.55225zm-948.0875-59.298c-7.658 0-14.07425 1.96625-19.2485 5.89875-4.96725 3.7255-8.486 9.0035-10.55575 15.8335-1.24175 3.5185-2.06975 8.072-2.4835 13.66025-.414 1.035 0 1.5525 1.24175 1.5525h63.0235c1.035 0 1.55225-.5175 1.55225-1.5525-.41375-5.17425-1.03475-9.10675-1.86275-11.7975-1.86275-7.451-5.58825-13.24625-11.1765-17.38575-5.38125-4.1395-12.2115-6.20925-20.4905-6.20925zm564.88 0c-7.6575 0-14.0725 1.96625-19.2475 5.89875-4.9675 3.7255-8.485 9.0035-10.555 15.8335-1.2425 3.5185-2.07 8.072-2.485 13.66025-.4125 1.035 0 1.5525 1.2425 1.5525h63.0225c1.035 0 1.5525-.5175 1.5525-1.5525l-.17619-2.003473-.19852-1.87102c-.03494-.300799-.07081-.596079-.1076-.88584l-.23188-1.67234c-.32395-2.141485-.70698-3.92976-1.14831-5.364827-1.8625-7.451-5.5875-13.24625-11.1775-17.38575-5.38-4.1395-12.21-6.20925-20.49-6.20925zm753.17 0c-7.6575 0-14.0725 1.96625-19.2475 5.89875-4.9675 3.7255-8.485 9.0035-10.555 15.8335-1.2425 3.5185-2.07 8.072-2.485 13.66025-.4125 1.035 0 1.5525 1.2425 1.5525h63.0225c1.035 0 1.5525-.5175 1.5525-1.5525l-.17619-2.003473-.19852-1.87102c-.03494-.300799-.07081-.596079-.1076-.88584l-.23188-1.67234c-.32395-2.141485-.70698-3.92976-1.14831-5.364827-1.8625-7.451-5.5875-13.24625-11.175-17.38575-5.3825-4.1395-12.2125-6.20925-20.4925-6.20925z" fill="#000"/><path d="m.43825333 373.333333c5.42036-65.701333 60.46147997-117.333333 127.56201367-117.333333h127.999733c0 70.690667-57.307467 128-128 128h-117.3332c-6.66682667 0-10.6668-4-10.22854667-10.666667z" fill="#5656bf"/><path d="m128 256c-70.6914667 0-128-57.307733-128-128h128c70.691467 0 128 57.307733 128 128z" fill="#177ee5"/><path d="m0 128c0-70.6914667 57.3077333-128 128-128h117.333333c5.333334 0 10.8352 3.31285333 10.228534 10.6666667-5.420267 65.7008-60.4616 117.3333333-127.561867 117.3333333z" fill="#73e6d2"/></g></svg>