<svg enable-background="new 0 0 165.5 52.408" height="52.408" viewBox="0 0 165.5 52.408" width="165.5" xmlns="http://www.w3.org/2000/svg"><path d="m79.815 4.6-33.495 15.979-.016 1.144 33.499 15.858v-4.813l-8.565-3.628c1.157-2.546 1.781-5.304 1.831-8.1-.026-2.699-.654-5.357-1.842-7.781l8.589-3.867v-4.792zm-24.882 16.452 12.137-5.84c.835 1.832 1.279 3.816 1.309 5.829 0 2.676-.86 5.223-1.266 6.298z" fill="#f37324"/><path d="m89.878 33.581v-29.247h-4.327l-.013 33.508h16.92v-4.261z" fill="#101928"/><path d="m110.948 33.581v-29.247h-4.339v33.508h16.917v-4.261z" fill="#101928"/><path d="m127.461 10.046h4.338v27.802h-4.338z" fill="#101928"/><path d="m127.452 4.353h4.334v4.664h-4.334z" fill="#f37324"/><g fill="#101928"><path d="m151.149 20.547 10.018-16.213h-5.09l-7.473 12.101-7.506-12.101h-5.097l10.056 16.217-10.684 17.291h5.092l8.143-13.177 8.174 13.177h5.095z"/><path d="m46.32 4.375h-.019-4.48-.022l-1.726 6.114-4.572 15.965-8.733-22.079h-.075-1.38-.078l-8.729 22.052-6.305-22.052h-.009-4.486-.021l2.652 9.194 6.955 24.314h.052l.004.013.907-.013h.468l9.279-23.47 9.288 23.47h.452l.906.013.004-.013h.069z"/><path d="m10.115 47.925c-.214.302-.499.541-.831.699-.322.142-.672.213-1.022.213-.358 0-.713-.063-1.045-.194-.307-.122-.584-.307-.814-.546-.231-.234-.411-.519-.529-.831-.128-.333-.193-.689-.189-1.051-.004-.356.062-.713.189-1.048.118-.311.298-.592.529-.825.23-.241.507-.426.814-.552.332-.135.687-.197 1.045-.197.323 0 .646.063.948.18.304.135.569.344.77.604l-.382.317c-.142-.227-.35-.401-.594-.511-.232-.107-.487-.167-.742-.167-.3 0-.601.055-.877.171-.251.109-.479.263-.666.466s-.33.438-.422.7c-.194.55-.194 1.158 0 1.715.092.261.236.496.422.699.188.198.415.356.666.465.277.113.578.171.877.167.133 0 .264-.015.395-.045.138-.032.271-.077.397-.14.133-.063.257-.145.37-.245.12-.099.223-.216.308-.347z"/><path d="m14.904 46.554-1.833-2.834h.557l1.508 2.364 1.541-2.364h.518l-1.833 2.834v2.148h-.458z"/><path d="m20.629 43.72h1.432c.19 0 .382.017.572.044.185.026.361.09.519.189.156.101.287.234.375.402.104.212.154.446.142.681.004.239-.075.475-.226.659-.169.199-.406.334-.666.375v.014c.156.008.307.054.449.117.133.059.253.146.353.253s.178.234.228.378c.13.389.102.813-.081 1.179-.104.172-.249.321-.42.43-.165.099-.35.171-.539.207-.181.036-.364.055-.549.055h-1.588v-4.983zm.467 2.151h.965c.195.006.389-.021.572-.084.13-.051.25-.124.352-.219.079-.071.136-.167.169-.27.027-.087.041-.173.043-.263.004-.153-.025-.298-.088-.433-.054-.117-.135-.217-.235-.289-.106-.072-.223-.117-.347-.144-.135-.027-.275-.046-.415-.046h-1.027zm0 2.412h1.063c.225.003.448-.029.657-.101.15-.056.283-.139.391-.258.083-.085.145-.193.181-.307.029-.1.045-.203.045-.308.004-.162-.032-.323-.106-.47-.068-.126-.167-.237-.287-.319-.115-.085-.246-.14-.384-.175-.14-.042-.284-.06-.431-.06h-1.146z"/><path d="m27.896 43.72h3.039v.418h-2.574v1.783h2.421v.426h-2.421v1.944h2.697v.42h-3.151z"/><path d="m34.889 43.72h1.31.268c.125.008.246.017.368.044.135.023.271.063.4.108.135.055.258.131.368.226.109.108.201.234.266.376.074.17.109.359.105.544.007.209-.033.412-.125.597-.073.145-.18.271-.309.374-.123.096-.261.167-.413.213-.141.045-.282.08-.429.104l1.449 2.392h-.526l-1.404-2.365h-.859v2.365h-.462zm.465 2.193h.983c.203.008.404-.024.596-.091.136-.045.256-.127.355-.227.081-.081.141-.18.176-.288.027-.09.042-.19.045-.284-.002-.096-.018-.194-.045-.285-.035-.106-.095-.207-.176-.288-.1-.1-.222-.177-.355-.227-.192-.063-.393-.099-.596-.089h-.983z"/><path d="m42.016 47.781c.108.197.275.364.477.473.206.104.434.158.664.154.149.004.298-.023.438-.072.131-.04.25-.109.354-.194.102-.09.183-.19.241-.307.059-.127.091-.268.088-.406.007-.154-.032-.298-.11-.429-.072-.117-.169-.217-.287-.285-.131-.08-.269-.145-.413-.189l-.47-.152c-.159-.054-.318-.109-.471-.182-.152-.063-.29-.147-.413-.252-.125-.113-.221-.249-.287-.397-.079-.188-.115-.388-.108-.59-.005-.204.04-.407.128-.592.084-.168.205-.316.352-.43.154-.116.328-.203.511-.264.195-.057.401-.083.607-.083.258-.006.516.045.755.144.242.1.452.267.608.479l-.402.284c-.215-.319-.584-.51-.973-.492-.146 0-.291.019-.428.064-.128.035-.251.09-.358.171-.1.077-.183.171-.243.288-.063.128-.093.271-.09.416-.014.206.054.416.189.573.134.139.296.248.475.32.202.082.411.145.621.198.213.06.421.136.617.234.19.101.353.244.478.416.139.217.208.469.191.73.004.208-.038.407-.127.597-.081.171-.198.32-.342.441-.146.118-.314.212-.494.271-.188.059-.38.09-.574.09-.312 0-.62-.054-.911-.171-.284-.122-.531-.32-.709-.574z"/><path d="m48.615 43.72h3.049v.418h-2.576v1.783h2.421v.426h-2.421v1.944h2.696v.42h-3.149z"/><path d="m59.714 47.925c-.214.302-.5.541-.831.699-.322.142-.673.213-1.023.213-.359 0-.711-.063-1.044-.194-.308-.122-.583-.307-.814-.546-.229-.234-.409-.519-.525-.831-.136-.333-.206-.695-.204-1.056-.003-.36.061-.713.192-1.046.116-.308.298-.593.525-.832.23-.234.508-.419.815-.545.331-.132.686-.203 1.044-.194.325-.005.646.054.948.18.306.126.571.335.771.596l-.382.32c-.144-.225-.351-.401-.596-.509-.231-.108-.487-.163-.741-.163-.303-.01-.6.05-.877.163-.25.107-.477.266-.665.47-.185.197-.329.437-.425.693-.188.561-.188 1.165 0 1.72.096.258.24.492.425.7.188.198.415.353.665.461.277.117.574.171.877.171.135 0 .263-.019.396-.046.136-.03.271-.08.397-.144.132-.063.256-.144.37-.235.12-.104.227-.221.312-.352z"/><path d="m66.923 46.796c.004.257-.03.515-.09.769-.055.234-.162.451-.308.645-.149.194-.346.349-.572.451-.551.227-1.166.227-1.717 0-.224-.103-.423-.257-.575-.451-.143-.193-.248-.41-.305-.645-.06-.254-.09-.512-.09-.769v-3.076h.461v2.955c.002.195.017.384.051.573.031.199.097.397.192.573.101.178.242.32.413.43.436.225.957.225 1.397 0 .171-.109.312-.252.41-.43.098-.176.165-.374.196-.573.028-.189.047-.378.047-.573v-2.955h.466z"/><path d="m71.018 43.72h1.312.264c.125.008.248.017.37.044.134.023.269.06.397.108.137.055.263.126.37.226.113.108.205.234.27.376.147.364.141.78-.02 1.141-.075.149-.182.28-.312.38-.122.095-.259.166-.409.211-.141.046-.284.076-.432.104l1.449 2.393h-.526l-1.403-2.366h-.856v2.366h-.474zm.467 2.193h.984c.201.008.404-.024.594-.091.137-.045.256-.127.357-.227.081-.081.139-.18.171-.288.03-.09.045-.186.045-.284 0-.096-.015-.194-.045-.285-.032-.106-.092-.207-.171-.288-.101-.1-.224-.177-.357-.227-.189-.063-.393-.099-.594-.089h-.984z"/><path d="m78.009 43.72h.453v4.982h-.464z"/><path d="m83.763 44.138h-1.717v-.418h3.874v.418h-1.703v4.564h-.466z"/><path d="m90.625 46.554-1.833-2.834h.551l1.506 2.364 1.544-2.364h.519l-1.828 2.834v2.148h-.468z"/><path d="m101.159 47.781c.106.197.269.36.472.473.205.104.438.158.668.154.15.004.293-.023.434-.072.132-.04.252-.109.356-.194.105-.085.186-.19.239-.307.06-.127.096-.268.09-.406.006-.154-.03-.298-.113-.429-.073-.117-.167-.213-.28-.285-.134-.08-.271-.145-.414-.189l-.47-.152c-.17-.045-.333-.101-.487-.163-.154-.063-.289-.153-.415-.258-.122-.111-.218-.248-.29-.401-.071-.185-.107-.387-.107-.586 0-.208.044-.408.135-.591.081-.168.203-.312.352-.431.154-.116.325-.207.506-.261.196-.054.402-.086.604-.09.261 0 .523.05.758.149.244.104.451.265.605.481l-.402.285c-.213-.321-.583-.511-.97-.492-.145 0-.29.019-.429.06-.131.035-.248.095-.357.175-.101.078-.186.172-.244.288-.064.128-.1.271-.091.416-.018.209.055.415.19.574.134.139.299.248.474.32.203.081.41.145.617.197.218.06.425.137.624.234.19.101.352.244.474.416.139.217.203.469.189.731.005.202-.04.406-.125.597-.077.171-.195.32-.34.44-.15.119-.316.213-.502.271-.184.059-.374.091-.572.091-.308 0-.618-.054-.906-.171-.284-.122-.534-.321-.709-.578z"/><path d="m107.757 43.72h.459v4.982h-.459z"/><path d="m112.351 43.72h.705l1.813 4.179 1.813-4.179h.665v4.982h-.466v-4.396h-.012l-1.899 4.396h-.207l-1.929-4.396h-.013v4.396h-.47z"/><path d="m121.483 43.72h1.429c.181 0 .372.017.547.062.185.036.36.104.519.203.162.104.296.239.388.408.109.193.163.418.154.644 0 .199-.04.394-.125.569-.077.163-.19.298-.331.405-.139.108-.304.19-.477.235-.186.055-.38.082-.575.082h-1.074v2.365h-.47zm.463 2.193h1.058c.13 0 .263-.015.389-.046.116-.026.233-.077.334-.143.102-.075.183-.164.243-.273.064-.13.094-.27.09-.415.009-.145-.026-.284-.098-.41-.056-.113-.141-.212-.246-.284-.103-.078-.224-.132-.346-.162-.131-.032-.263-.045-.393-.045h-1.03v1.778z"/><path d="m128.337 43.72h.469v4.563h2.335v.419h-2.789z"/><path d="m134.679 43.72h.47v4.982h-.465z"/><path d="m139.327 43.72h2.979v.418h-2.522v1.783h2.347v.426h-2.347v2.364h-.458v-4.991z"/><path d="m146.057 43.72h.466v4.982h-.466z"/><path d="m150.708 43.72h3.05v.418h-2.579v1.783h2.425v.426h-2.425v1.944h2.696v.42h-3.146z"/><path d="m157.639 43.72h1.544c.37-.01.739.044 1.092.157.271.085.527.224.75.402.188.152.353.339.479.55.104.18.189.37.252.568.051.163.081.33.098.497.016.149.024.252.024.311s0 .168-.024.316c-.017.167-.054.335-.098.492-.063.203-.147.396-.252.578-.126.207-.291.387-.479.541-.223.181-.475.315-.75.406-.353.118-.722.166-1.092.157h-1.544zm.461 4.563h.962c.31.003.617-.043.92-.123.276-.077.528-.209.744-.379.218-.171.388-.394.506-.642.243-.596.243-1.263 0-1.854-.118-.249-.288-.475-.506-.646-.216-.172-.468-.303-.744-.379-.303-.081-.61-.123-.92-.123h-.962z"/></g></svg>