<svg fill="none" height="32" viewBox="0 0 120 32" width="120" xmlns="http://www.w3.org/2000/svg"><g fill="#84bd00"><path d="m10.5118 18.8441 4.168-11.80351h6.0205l-10.1474 24.95931h-6.3546l2.90308-6.8387-7.10138-18.12061h6.14738z"/><path d="m41.9473 25.3005h-5.8705v-2.0152c-.9245.7244-1.9199 1.3535-2.971 1.8777-.8992.4287-1.9711.6425-3.2157.6413-2.014 0-3.5623-.5794-4.6449-1.7383-1.0827-1.1588-1.6269-2.8721-1.6329-5.1398v-11.88561h5.8651v9.05761c0 .9218.0298 1.6888.0893 2.301.0364.5292.1772 1.0459.4145 1.5203.1985.3933.5293.704.9344.8772.418.1846 1.001.2769 1.749.2769.5631-.0108 1.1217-.1041 1.6578-.2769.6197-.1898 1.2105-.4633 1.7562-.8128v-12.94331h5.8687z"/><path d="m65.5649 15.9196c0 2.8727-.7932 5.2142-2.3796 7.0246-1.5864 1.8103-3.5647 2.7154-5.9348 2.7154-.9039.0141-1.8055-.0953-2.6798-.3251-.7684-.2181-1.5053-.5352-2.192-.9433l-.2448.9094h-5.6239v-25.3006h5.8705v8.94327c.8476-.68405 1.7714-1.26794 2.753-1.74006 1.0162-.46155 2.123-.68927 3.2389-.66637 2.3058 0 4.0816.83371 5.3274 2.50112 1.2458 1.66744 1.8675 3.96124 1.8651 6.88164zm-6.0312.1215c0-1.6246-.2763-2.8751-.829-3.7517-.5526-.8766-1.5364-1.3149-2.9513-1.3149-.5771.0037-1.1508.0885-1.7043.2519-.5854.1648-1.147.405-1.6704.7146v9.1559c.3886.1437.7909.2473 1.2005.3091.452.0588.9074.0863 1.3631.0821 1.5483 0 2.7001-.4549 3.4551-1.3648.7551-.91 1.1345-2.2707 1.1381-4.0822z"/><path d="m75.4622 4.43948h-6.1956v-4.43948h6.1956zm-.1626 20.86112h-5.8704v-18.25996h5.8704z"/><path d="m90.2902 25.7881c-1.4725.0152-2.9397-.1761-4.3591-.5681-1.2534-.3464-2.4234-.9439-3.439-1.7561-.9754-.8048-1.7446-1.8307-2.2439-2.9924-.53-1.2017-.7956-2.6107-.7968-4.2269 0-1.7031.2847-3.1722.854-4.4073.54-1.1979 1.3561-2.25094 2.3814-3.07282 1.0155-.78421 2.1765-1.35924 3.4158-1.69182 1.3082-.35981 2.6593-.54011 4.0161-.53595 1.1612-.00999 2.319.12626 3.4461.40553 1.0131.25725 1.999.61142 2.9442 1.05762v4.99154h-.8289c-.2263-.1954-.4997-.4228-.82-.6825-.367-.292-.7613-.5481-1.1773-.7646-.4652-.2467-.9543-.4454-1.4596-.5931-.605-.1661-1.2307-.2443-1.858-.2323-1.5602 0-2.7596.4961-3.598 1.4882-.8385.9921-1.2553 2.3391-1.2506 4.0411 0 1.7567.43 3.09 1.2899 4 .8599.9099 2.0807 1.3649 3.6623 1.3649.6713.0084 1.3405-.0764 1.9884-.2519.5126-.1366 1.0064-.3358 1.4703-.5932.3434-.1992.6692-.4275.9737-.6824.2822-.2394.5359-.4716.7789-.7003h.8289v5.0022c-.9309.4308-1.9005.7724-2.8959 1.0201-1.0877.2636-2.2038.3914-3.3229.3805z"/><path d="m119.905 16.1788c0 3.0037-.875 5.3696-2.626 7.0978-1.751 1.7281-4.209 2.5928-7.375 2.594-3.165 0-5.624-.8647-7.374-2.594-1.751-1.7294-2.6266-4.0953-2.6266-7.0978 0-3.0252.8816-5.3989 2.6436-7.12106 1.763-1.7222 4.215-2.58389 7.357-2.58508 3.187 0 5.651.86705 7.391 2.60116 1.74 1.73408 2.61 4.10238 2.61 7.10498zm-7.203 4.4394c.395-.4976.685-1.0701.852-1.6828.192-.6563.287-1.5644.286-2.7245.018-.908-.08-1.8147-.293-2.6976-.15-.6301-.429-1.2225-.818-1.7401-.321-.4251-.754-.7519-1.251-.9432-.504-.1874-1.039-.2812-1.577-.277-.511-.0075-1.019.0692-1.504.2269-.489.1907-.92.5046-1.251.9112-.404.5132-.695 1.1062-.854 1.74-.232.9078-.339 1.8431-.318 2.7798-.014.8727.079 1.7439.277 2.594.141.64.418 1.242.813 1.7651.331.4102.762.7293 1.25.9272 1.021.3803 2.143.3885 3.17.0232.481-.1825.903-.4947 1.218-.9022z"/></g></svg>