<svg height="255" viewBox="0 0 641.25 191.25" width="855" xmlns="http://www.w3.org/2000/svg" xmlns:xlink="http://www.w3.org/1999/xlink"><clipPath id="a"><path d="m379.42 76h31.582v15h-31.582z"/></clipPath><clipPath id="b"><path d="m497 74.898h35.059v17.102h-35.059z"/></clipPath><clipPath id="c"><path d="m379.42 100h152.64v20h-152.64z"/></clipPath><g stroke-width=".24182" transform="matrix(4.1354 0 0 4.1354 -1563.6 -305.63)"><path d="m411.59 83.816v-.40625c0-1.3477-1.0234-2.7578-2.8984-3.043l-5.0039-.77344c-.8125-.75781-3.4883-3.2891-3.8359-3.6328-.60938-.61328-1.4688-.92188-2.1211-.92188h-9.4297c-.18359 0-.41015.125-.51171.28516l-2.8789 4.4102h-.67188c-1.918 0-3.4688 1.5508-3.4688 3.4688v.61328c0 1.918 1.5508 3.4688 3.4688 3.4688h.57032c.42968 1.3086 1.6562 2.2461 3.1016 2.2461h.41016c1.4492 0 2.6758-.9375 3.1016-2.2461h9.3086c.42969 1.3086 1.6524 2.2461 3.1016 2.2461h.41016c1.4453 0 2.6719-.9375 3.1016-2.2461h.77344c1.918 0 3.4727-1.5508 3.4727-3.4688" fill="#fab800"/><g clip-path="url(#a)" stroke-width=".24182"><path d="m408.2 85.137c0 .79688-.63281 1.4297-1.4258 1.4297h-2.043c-.32422 0-.61328.28516-.61328.61328v.40625c0 .67578-.55078 1.2266-1.2227 1.2266h-.41015c-.67188 0-1.2227-.55078-1.2227-1.2266v-.40625c0-.32813-.28515-.61328-.61328-.61328h-11.84c-.32422 0-.60938.28516-.60938.61328v.40625c0 .67578-.55078 1.2266-1.2266 1.2266h-.40625c-.67578 0-1.2266-.55078-1.2266-1.2266v-.40625c0-.32813-.28516-.61328-.60938-.61328h-1.8398c-.79688 0-1.4297-.63281-1.4297-1.4297v-.60938c0-.79688.63281-1.4297 1.4297-1.4297h1.4492c.18359 0 .41015-.125.51172-.28516l2.8789-4.4102h8.6524c.14453 0 .48828.10156.69531.30859.40625.40625 4.1836 4 4.1836 4 .082.08203.22266.12109.32813.14062l5.4258.83594c.91797.14453 1.1836.75781 1.1836 1.043zm2.043 0v-.40625c0-1.3477-1.0195-2.7539-2.8984-3.043l-5-.77344c-.8164-.75781-3.4922-3.2852-3.8359-3.6328-.61329-.61328-1.4727-.92188-2.125-.92188h-9.4297c-.1836 0-.41016.125-.51172.28906l-2.875 4.4062h-.67578c-1.918 0-3.4688 1.5508-3.4688 3.4727v.60938c0 1.9219 1.5508 3.4727 3.4688 3.4727h.57422c.42578 1.3047 1.6523 2.2422 3.1016 2.2422h.40625c1.4492 0 2.6758-.9375 3.1016-2.2422h9.3086c.42968 1.3047 1.6523 2.2422 3.1016 2.2422h.41015c1.4492 0 2.6719-.9375 3.1016-2.2422h.77734c1.918 0 3.4688-1.5508 3.4688-3.4727" fill-rule="evenodd"/></g><path d="m463.04 85.043c0-.73438-.2461-1.4492-1.1836-2.2266l-4.2031-3.4688c-1.2266-1.0195-2.9844-1.043-4.125-1.043h-29.801c-1.7969 0-3.2656 1.4727-3.2656 3.2656v2.8594c0 1.7969 1.4688 3.2656 3.2656 3.2656h.59375c.40625 1.082 1.4492 1.8359 2.6719 1.8359h.41016c.79687 0 1.5078-.32422 2.0391-.85547.51172.53125 1.2461.85547 2.043.85547h.40625c1.2266 0 2.2656-.75391 2.6758-1.8359h14.859c.40625 1.082 1.4492 1.8359 2.6719 1.8359h.41016c.79297 0 1.5078-.32422 2.0391-.85547.51172.53125 1.2461.85547 2.043.85547h.40625c1.2266 0 2.2656-.75391 2.6758-1.8359h.61328c2 0 2.7539-1.4102 2.7539-2.6523" fill="#bfcf00"/><g fill-rule="evenodd"><path d="m459.66 86.363c0 .36719-.082.61328-.71484.61328h-1.8594c-.32422 0-.61328.28516-.61328.60938v.41016c0 .44922-.36719.81641-.8125.81641h-.41016c-.44922 0-.8164-.36719-.8164-.81641v-.41016c0-.32422-.28516-.60938-.61328-.60938h-1.2227c-.32813 0-.61328.28516-.61328.60938v.41016c0 .44922-.36719.81641-.81641.81641h-.41015c-.44922 0-.81641-.36719-.81641-.81641v-.41016c0-.32422-.28516-.60938-.60938-.60938h-17.352c-.32422 0-.60937.28516-.60937.60938v.41016c0 .44922-.36719.81641-.82032.81641h-.40625c-.44921 0-.8164-.36719-.8164-.81641v-.41016c0-.32422-.28516-.60938-.61328-.60938h-1.2227c-.32812 0-.61328.28516-.61328.60938v.41016c0 .44922-.36719.81641-.81641.81641h-.40625c-.44922 0-.82031-.36719-.82031-.81641v-.41016c0-.32422-.28516-.60938-.60937-.60938h-1.8398c-.67187 0-1.2226-.55469-1.2226-1.2266v-2.8555c0-.67578.55078-1.2266 1.2226-1.2266h29.801c1.1445 0 2.207.08203 2.8164.59375l4.2031 3.4688c.26563.22266.45313.38672.45313.63281m2.0391 0c0-.73438-.24609-1.4492-1.1836-2.2266l-4.2031-3.4688c-1.2266-1.0195-2.9805-1.043-4.125-1.043h-29.801c-1.793 0-3.2617 1.4727-3.2617 3.2695v2.8555c0 1.7969 1.4688 3.2656 3.2617 3.2656h.59375c.41016 1.082 1.4492 1.8359 2.6758 1.8359h.40625c.79688 0 1.5117-.32422 2.043-.85547.50781.53125 1.2422.85547 2.0391.85547h.40625c1.2266 0 2.2695-.75391 2.6758-1.8359h14.859c.40625 1.082 1.4492 1.8359 2.6719 1.8359h.41015c.79688 0 1.5117-.32422 2.0391-.85547.51172.53125 1.2461.85547 2.043.85547h.41016c1.2227 0 2.2617-.75391 2.6719-1.8359h.61329c2 0 2.7539-1.4062 2.7539-2.6523"/><path d="m482.13 78.512-1.7695-.58203-2.1055-.12891c0-.67188.54687-.71875 1.2226-.71875h1.4297c.67187 0 1.2227.55078 1.2227 1.2227zm6.3281 7.5508v-4.2852c0-1.7969-1.4688-3.2656-3.2656-3.2656h-1.0195v-.20703c0-1.793-1.4688-3.2656-3.2656-3.2656h-1.4297c-1.7969 0-3.2656 1.4727-3.2656 3.2656v.20703h-1.0195c-1.7969 0-3.2656 1.4688-3.2656 3.2656v4.2852c0 1.7969 1.4688 3.2656 3.2656 3.2656h10c1.7969 0 3.2656-1.4688 3.2656-3.2656" fill="#73c7e6"/><path d="m485.07 87.383c0 .67188-.55469 1.2266-1.2266 1.2266h-10c-.67578 0-1.2266-.55469-1.2266-1.2266v-4.2852c0-.67578.55078-1.2266 1.2266-1.2266h10c.67187 0 1.2266.55078 1.2266 1.2266zm-4.2852-7.5508h-3.8789v-.20312c0-.67578.55078-1.2266 1.2227-1.2266h1.4297c.67578 0 1.2266.55078 1.2266 1.2266zm6.3242 7.5508v-4.2852c0-1.7969-1.4688-3.2656-3.2656-3.2656h-1.0195v-.20312c0-1.7969-1.4727-3.2695-3.2656-3.2695h-1.4297c-1.7969 0-3.2656 1.4727-3.2656 3.2695v.20312h-1.0195c-1.7969 0-3.2656 1.4688-3.2656 3.2656v4.2852c0 1.7969 1.4688 3.2656 3.2656 3.2656h10c1.7969 0 3.2656-1.4688 3.2656-3.2656"/></g><g clip-path="url(#b)" stroke-width=".24182"><path d="m532.06 78.184c0-.42969-.0859-.85547-.26562-1.2852-.53125-1.2461-1.7578-2-3.0234-2-.42578 0-.85547.08203-1.2656.26562l-8.7969 3.7734-9.9414-4c-.0586-.01953-.14062-.03906-.20312-.03906-.10156 0-.18359.01953-.26563.05859l-4.957 2.125c-.24609.10156-.36718.34766-.36718.57031 0 .125.0391.24609.12109.36719l4.4297 5.6953-2.4922 1.0625-4.1836-1.9805c-.0586-.04297-.16407-.0625-.2461-.0625-.0976 0-.17969.01953-.26562.0625l-2.6094 1.1016c-.22656.10156-.38672.26562-.38672.57031 0 .08203.0195.16406.0586.24609l2.0195 4.6953c.42969 1 1.5312 1.6328 2.6953 1.6328h4.7773c.14063 0 .20313-.04297.20313-.04297l22.984-9.8164c1.2422-.53125 1.9805-1.7344 1.9805-3" fill="#ffde00"/></g><path d="m528.67 79.504c0 .46875-.28516.94141-.73438 1.125l-22.699 9.6953h-4.4688c-.46875 0-.6914-.125-.8164-.41016l-1.4492-3.3672.69922-.30469 4.1992 1.9766c.0625.04297.16406.0625.24609.0625.10156 0 .1875-.01953.26563-.0625l4.7773-2.0391c.24219-.10156.36719-.32813.36719-.57031 0-.125-.043-.24609-.125-.37109l-4.4453-5.6914 2.7109-1.1641 9.9609 3.9805c.0859.01953.14453.03906.22656.03906.082 0 .16406-.01953.22266-.03906l9.3672-4c.14453-.0625.30859-.10156.47265-.10156.46875 0 .91797.28516 1.1211.75391.0625.16406.10156.32422.10156.48828m2.043 0c0-.42969-.082-.85547-.26563-1.2852-.53125-1.2461-1.7578-2-3.0195-2-.42969 0-.85937.08203-1.2656.26562l-8.8008 3.7773-9.9375-4c-.0625-.02344-.14453-.04297-.20703-.04297-.0976 0-.17968.01953-.26562.0625l-4.957 2.1211c-.2461.10156-.36719.34766-.36719.57031 0 .125.0391.24609.12109.36719l4.4297 5.6953-2.4883 1.0625-4.1836-1.9805c-.0625-.03906-.16407-.0625-.2461-.0625-.10156 0-.18359.02344-.26562.0625l-2.6133 1.1016c-.22266.10156-.38672.26562-.38672.57422 0 .08203.0195.16016.0625.24219l2.0195 4.6953c.42578 1 1.5273 1.6328 2.6914 1.6328h4.7774c.14453 0 .20312-.03906.20312-.03906l22.984-9.8203c1.2461-.52734 1.9805-1.7344 1.9805-3" fill-rule="evenodd"/><g clip-path="url(#c)" stroke-width=".24182"><path d="m532.06 112.25c0 .45313-.0859.875-.25781 1.2734-.17187.39844-.40625.74609-.70703 1.0469-.30469.30469-.65234.53907-1.0508.71094-.39453.16797-.82031.25781-1.2734.25781-.45312 0-.875-.0898-1.2734-.25781-.39843-.17187-.74609-.40625-1.0469-.71094-.30078-.30078-.53516-.64843-.71094-1.0469-.16797-.39844-.25391-.82031-.25391-1.2734v-4.8281h-1.0273c-.16797 0-.30859-.0625-.42969-.1836-.125-.125-.1875-.26953-.1875-.43359v-.71875c0-.16406.0625-.3086.1875-.42969.1211-.125.26172-.1875.42969-.1875h1.0273v-3.0781c0-.16407.0586-.3086.1836-.4336.12109-.12109.26562-.18359.42969-.18359h.82421c.16407 0 .3086.0625.4336.18359.11719.125.18359.26953.18359.4336v3.0781h3.0781c.16406 0 .30859.0625.43359.1875.12109.12109.18359.26563.18359.42969v.71875c0 .16406-.0625.30859-.18359.43359-.125.1211-.26953.1836-.43359.1836h-3.0781v4.8281c0 .34375.11719.63281.35938.875.23828.23828.52734.35938.87109.35938s.63281-.1211.875-.35938c.23828-.24219.35547-.53125.35547-.875v-.41016c0-.16406.0664-.30859.1875-.43359.12109-.12109.26562-.18359.42969-.18359h.82422c.16406 0 .30859.0625.42968.18359.125.125.1875.26953.1875.43359zm-9.3476-6.3672c0 .1211-.0312.23047-.0859.32813l-.41016.71875c-.10547.20312-.28515.30859-.53125.30859-.10937 0-.21484-.0273-.30859-.082-.27344-.16406-.58203-.25-.92578-.25-.61328 0-1.0781.17969-1.3867.53516s-.46094.79687-.46094 1.3164v5.957c0 .16407-.0625.3086-.18359.4336-.125.12109-.26953.18359-.4336.18359h-.82421c-.16407 0-.30469-.0625-.42969-.18359-.1211-.125-.1836-.26953-.1836-.4336v-9.0391c0-.16406.0625-.30859.1836-.43359.125-.1211.26562-.1836.42969-.1836h.82421c.13672 0 .26172.043.3711.125.10937.082.18359.1836.22656.3086.13281-.125.35547-.26172.65625-.41406.30078-.14844.70703-.22266 1.2109-.22266.69922 0 1.3516.16797 1.9531.51172.20313.10937.3086.28125.3086.51562m-10.91 2.4648c0-.39844-.14062-.73828-.42187-1.0195s-.6211-.42188-1.0156-.42188h-.41016c-.39843 0-.73828.14063-1.0156.42188-.28516.28125-.42578.62109-.42578 1.0195v3.6953c0 .39844.14062.73828.42578 1.0195.27734.28125.61719.42188 1.0156.42188h.41016c.39453 0 .73438-.14063 1.0156-.42188s.42187-.62109.42187-1.0195zm2.0547 3.6953c0 .48047-.0937.93359-.27735 1.3555-.1875.42578-.43359.79687-.75 1.1094-.3164.31641-.68359.56641-1.1094.75-.42578.1875-.875.28125-1.3555.28125h-.41016c-.48046 0-.93359-.0937-1.3555-.28125-.42579-.18359-.79688-.43359-1.1094-.75-.31641-.3125-.56641-.68359-.75391-1.1094-.18359-.42188-.27734-.875-.27734-1.3555v-3.6953c0-.48047.0937-.9336.27734-1.3555.1875-.42578.4375-.79688.75391-1.1094.3125-.3164.68359-.5664 1.1094-.75.42187-.1875.875-.27734 1.3555-.27734h.41016c.48047 0 .92969.0898 1.3555.27734.42578.1836.79297.4336 1.1094.75.31641.3125.5625.6836.75 1.1094.1836.42187.27735.875.27735 1.3555zm-11.895-3.6953c0-.39844-.14063-.73828-.42188-1.0195s-.62109-.42188-1.0156-.42188h-.41016c-.39844 0-.73828.14063-1.0195.42188s-.42188.62109-.42188 1.0195v3.6953c0 .39844.14063.73828.42188 1.0195s.62109.42188 1.0195.42188h.41016c.39453 0 .73437-.14063 1.0156-.42188s.42188-.62109.42188-1.0195zm2.0508 3.6953c0 .48047-.082.93359-.25391 1.3555-.17187.42578-.41015.79687-.70703 1.1094-.30469.31641-.66406.56641-1.0781.75-.41797.1875-.86719.28125-1.3477.28125h-.20703c-.39453 0-.74219-.0664-1.0352-.19922-.29687-.1289-.53125-.2539-.71094-.3789v3.8633c0 .16406-.0625.30859-.18359.42969-.12109.125-.26562.1875-.42969.1875h-.82422c-.16406 0-.30859-.0625-.42968-.1875-.125-.1211-.1875-.26563-.1875-.42969v-13.148c0-.16406.0625-.30859.1875-.43359.12109-.1211.26562-.1836.42968-.1836h.82422c.1211 0 .23438.0391.33594.11329.10547.0742.18359.16796.23828.27734.16406-.10938.39844-.23438.70703-.37891.3086-.14453.66797-.21484 1.0781-.21484h.20703c.48047 0 .92969.0898 1.3477.27734.41406.1836.77343.4336 1.0781.75.29688.3125.53516.6836.70703 1.1094.17188.42187.25391.875.25391 1.3555zm-9.1367-6.1602c0 .1211-.0312.23047-.0859.32813l-.41015.71875c-.10938.20312-.28516.30859-.53125.30859-.10938 0-.21485-.0273-.3086-.082-.27344-.16406-.58203-.25-.92578-.25-.61719 0-1.0781.17969-1.3867.53516-.30859.35547-.46094.79687-.46094 1.3164v5.957c0 .16407-.0625.3086-.1875.4336-.12109.12109-.26562.18359-.42968.18359h-.82422c-.16406 0-.30469-.0625-.42969-.18359-.125-.125-.18359-.26953-.18359-.4336v-9.0391c0-.16406.0586-.30859.18359-.43359.125-.1211.26563-.1836.42969-.1836h.82422c.13672 0 .26172.043.37109.125.10938.082.18359.1836.22266.3086.13672-.125.35547-.26172.66015-.41406.30078-.14844.70703-.22266 1.2109-.22266.69922 0 1.3477.16797 1.9531.51172.20312.10937.30859.28125.30859.51562m-10.07-2.8789c0 .16406-.0586.30859-.1836.43359-.12109.12109-.26562.18359-.42968.18359h-1.4375c-.16797 0-.3125-.0625-.4336-.18359-.12109-.125-.1875-.26953-.1875-.43359v-1.4375c0-.16407.0664-.3086.1875-.42969.1211-.125.26563-.18359.4336-.18359h1.4375c.16406 0 .30859.0586.42968.18359.125.12109.1836.26562.1836.42969zm1.6445 11.711c0 .16407-.0625.3086-.1836.4336-.12109.12109-.26953.18359-.43359.18359h-4.9297c-.16406 0-.30859-.0625-.43359-.18359-.12109-.125-.18359-.26953-.18359-.4336v-.71875c0-.16406.0625-.30859.18359-.42968.125-.125.26953-.1875.43359-.1875h1.6445v-6.3672h-1.3359c-.16407 0-.3086-.0625-.42969-.18359-.125-.125-.1875-.26954-.1875-.4336v-.71875c0-.16406.0625-.30859.1875-.43359.12109-.1211.26562-.1836.42969-.1836h2.7734c.16407 0 .3086.0625.42969.1836.125.125.1875.26953.1875.43359v7.7031h1.2305c.16406 0 .3125.0625.43359.1875.1211.12109.1836.26562.1836.42968zm-12.305-11.711h-.65625l-1.5234 5.7539h3.6992zm3.8828 11.711c0 .16407-.0625.3086-.18359.4336-.125.12109-.26953.18359-.43359.18359h-.82032c-.16406 0-.30859-.0625-.43359-.18359-.12109-.125-.18359-.26953-.18359-.4336v-4.0039h-4.3125v4.0039c0 .16407-.0625.3086-.1875.4336-.1211.12109-.26563.18359-.42969.18359h-.82031c-.16797 0-.3125-.0625-.4336-.18359-.12109-.125-.18359-.26953-.18359-.4336v-5.0938c0-.0156.008-.0273.0195-.043l2.1562-8.1758c.0273-.12109.10156-.22656.21484-.3164.11719-.0898.24219-.13281.38282-.13281h2.875c.13671 0 .26562.043.3789.13281.11719.0898.1875.19531.21485.3164l2.1602 8.1758v.043c0 .0117.004.0273.008.0391.008.0156.0117.0352.0117.0625zm-16.949 0c0 .16407-.0586.3086-.18359.4336-.125.12109-.26953.18359-.43359.18359h-.82032c-.16406 0-.30859-.0508-.42968-.15625-.125-.10156-.1875-.2539-.1875-.46094v-6.3672c0-.39844-.14063-.73828-.41797-1.0195-.28516-.28125-.6211-.42188-1.0195-.42188h-.41016c-.39844 0-.73437.14063-1.0156.42188s-.42188.62109-.42188 1.0195v6.3672c0 .16407-.0625.3086-.1875.4336-.12109.12109-.26562.18359-.42969.18359h-.82031c-.16406 0-.30859-.0625-.43359-.18359-.1211-.125-.1836-.26953-.1836-.4336v-9.0391c0-.16406.0625-.30859.1836-.43359.125-.1211.26953-.1836.43359-.1836h.82031c.1211 0 .23828.0391.33985.11329.10156.0742.17968.16796.23437.27734.16406-.10938.40235-.23438.71094-.37891s.66406-.21484 1.0781-.21484h.20704c.47656 0 .92578.0898 1.3438.27734.41796.1836.77734.4336 1.0781.75.30078.3125.53906.6836.70703 1.1094.17188.42187.25781.875.25781 1.3555zm-10.168 0c0 .16407-.0625.3086-.1875.4336-.1211.12109-.26563.18359-.42969.18359h-.82031c-.16407 0-.3086-.0508-.4336-.15625-.12109-.10156-.18359-.2539-.18359-.46094v-6.3672c0-.39844-.14063-.73828-.42188-1.0195s-.61718-.42188-1.0156-.42188h-.41406c-.39454 0-.73438.14063-1.0156.42188s-.42187.62109-.42187 1.0195v6.3672c0 .16407-.0625.3086-.1836.4336-.125.12109-.26562.18359-.42969.18359h-.82421c-.16407 0-.3086-.0625-.42969-.18359-.125-.125-.1875-.26953-.1875-.4336v-9.0391c0-.16406.0625-.30859.1875-.43359.12109-.1211.26562-.1836.42969-.1836h.82421c.1211 0 .23438.0391.33594.11329.10547.0742.1836.16796.23828.27734.16407-.10938.39844-.23438.70703-.37891.3086-.14453.66797-.21484 1.082-.21484h.20312c.48047 0 .92969.0898 1.3477.27734.41406.1836.77734.4336 1.0781.75.30078.3125.53516.6836.70703 1.1094.17188.42187.25782.875.25782 1.3555zm-12.121-6.3672c0-.39844-.14062-.73828-.42187-1.0195s-.6211-.42188-1.0156-.42188h-.41015c-.39844 0-.73829.14063-1.0195.42188s-.42187.62109-.42187 1.0195v3.6953c0 .39844.14062.73828.42187 1.0195s.6211.42188 1.0195.42188h.41015c.39453 0 .73438-.14063 1.0156-.42188s.42187-.62109.42187-1.0195zm2.0547 3.6953c0 .48047-.0937.93359-.27734 1.3555-.1875.42578-.4375.79687-.75 1.1094-.31641.31641-.6836.56641-1.1094.75-.42578.1875-.87891.28125-1.3555.28125h-.41015c-.48047 0-.9336-.0937-1.3594-.28125-.42187-.18359-.79297-.43359-1.1094-.75-.3125-.3125-.5625-.68359-.75-1.1094-.1836-.42188-.27344-.875-.27344-1.3555v-3.6953c0-.48047.0898-.9336.27344-1.3555.1875-.42578.4375-.79688.75-1.1094.3164-.3164.6875-.5664 1.1094-.75.42578-.1875.87891-.27734 1.3594-.27734h.41015c.47656 0 .92969.0898 1.3555.27734.42578.1836.79297.4336 1.1094.75.3125.3125.5625.6836.75 1.1094.18359.42187.27734.875.27734 1.3555zm-11.609-1.2305c0-.51953-.17578-.96094-.53125-1.3164-.35937-.35546-.79687-.53125-1.3164-.53125h-2.2578v4.3125h2.2578c.51953 0 .95703-.17968 1.3164-.53515.35547-.35547.53125-.79297.53125-1.3164zm-.41015-5.957c0-.52344-.17578-.95703-.53516-1.3164-.35547-.35547-.79297-.53515-1.3125-.53515h-1.8476v3.9023h1.8476c.51953 0 .95703-.17578 1.3125-.53125.35938-.35547.53516-.79297.53516-1.3164zm2.4648 6.5703c0 .53516-.10156 1.043-.30859 1.5234-.20313.48047-.48047.89062-.83203 1.2422-.34766.34765-.76172.625-1.2422.83203s-.98438.30859-1.5195.30859h-3.6953c-.16797 0-.3125-.0625-.4336-.18359-.125-.125-.18359-.26953-.18359-.4336v-13.148c0-.16407.0586-.3086.18359-.42969.1211-.125.26563-.18359.4336-.18359h3.2852c.53125 0 1.0391.10156 1.5195.30468.48047.20703.89453.48438 1.2422.83203.34766.35157.62891.76563.83203 1.2422.20703.48047.3086.98828.3086 1.5234v.20312c0 .52344-.10157 1.0195-.3086 1.5-.20312.48047-.52734.87891-.96484 1.1914.53515.30078.94922.73438 1.2422 1.2969.29687.55859.4414 1.1484.4414 1.7656zm-17.152 3.2891c0 .16407-.0625.3086-.1836.4336-.125.12109-.26953.18359-.43359.18359h-.82031c-.16406 0-.3086-.0508-.4336-.15625-.12109-.10156-.18359-.2539-.18359-.46094v-6.3672c0-.39844-.14062-.73828-.42187-1.0195s-.6211-.42188-1.0156-.42188h-.41016c-.39843 0-.73828.14063-1.0195.42188-.27734.28125-.42187.62109-.42187 1.0195v6.3672c0 .16407-.0586.3086-.1836.4336-.12109.12109-.26562.18359-.42968.18359h-.82422c-.16406 0-.3086-.0625-.42969-.18359-.125-.125-.18359-.26953-.18359-.4336v-9.0391c0-.16406.0586-.30859.18359-.43359.12109-.1211.26563-.1836.42969-.1836h.82422c.12109 0 .23437.0391.33984.11329.10156.0742.17969.16796.23438.27734.16406-.10938.40234-.23438.70703-.37891.30859-.14453.66797-.21484 1.0781-.21484h.20703c.48047 0 .92969.0898 1.3438.27734.41797.1836.78125.4336 1.082.75.30079.3125.53516.6836.70704 1.1094.17187.42187.25781.875.25781 1.3555zm-9.7578 0c0 .16407-.0625.3086-.1875.4336-.1211.12109-.26563.18359-.42969.18359h-4.9297c-.16406 0-.30859-.0625-.43359-.18359-.1211-.125-.1836-.26953-.1836-.4336v-.71875c0-.16406.0625-.30859.1836-.42968.125-.125.26953-.1875.43359-.1875h1.6406v-10.477h-1.332c-.16796 0-.30859-.0625-.43359-.18359-.12109-.125-.18359-.26953-.18359-.43359v-.71875c0-.16407.0625-.3086.18359-.42969.125-.125.26563-.18359.43359-.18359h2.7734c.16406 0 .30469.0586.42969.18359.125.12109.18359.26562.18359.42969v11.812h1.2344c.16406 0 .30859.0625.42969.1875.125.12109.1875.26562.1875.42968zm-8.3203-11.504c0 .16406-.0625.30859-.1875.42969-.12109.125-.26562.1875-.42968.1875h-1.2344c-.16406 0-.30469-.0625-.42969-.1875-.125-.1211-.18359-.26563-.18359-.42969v-1.2344c0-.16406.0586-.30859.18359-.42968.125-.125.26563-.1836.42969-.1836h1.2344c.16406 0 .30859.0586.42968.1836.125.12109.1875.26562.1875.42968zm-1.6445 5.1367c0-.39844-.14062-.73828-.42187-1.0195s-.61719-.42188-1.0156-.42188h-.41015c-.39844 0-.73829.14063-1.0195.42188-.27734.28125-.41796.62109-.41796 1.0195v3.6953c0 .39844.14062.73828.41796 1.0195.28125.28125.6211.42188 1.0195.42188h.41015c.39844 0 .73438-.14063 1.0156-.42188s.42187-.62109.42187-1.0195zm-2.4648-5.1367c0 .16406-.0625.30859-.1875.42969-.1211.125-.26563.1875-.42969.1875h-1.2344c-.16016 0-.30469-.0625-.42969-.1875-.1211-.1211-.1836-.26563-.1836-.42969v-1.2344c0-.16406.0625-.30859.1836-.42968.125-.125.26953-.1836.42969-.1836h1.2344c.16406 0 .30859.0586.42969.1836.125.12109.1875.26562.1875.42968zm4.5195 8.832c0 .48047-.0937.93359-.27734 1.3555-.1836.42578-.4336.79687-.75 1.1094-.31641.31641-.6836.56641-1.1094.75-.42578.1875-.875.28125-1.3555.28125h-.41015c-.48047 0-.9336-.0937-1.3555-.28125-.42578-.18359-.79688-.43359-1.1133-.75-.3125-.3125-.5625-.68359-.7461-1.1094-.1875-.42188-.27734-.875-.27734-1.3555v-3.6953c0-.48047.0898-.9336.27734-1.3555.1836-.42578.4336-.79688.7461-1.1094.3164-.3164.6875-.5664 1.1133-.75.42187-.1875.875-.27734 1.3555-.27734h.41015c.48047 0 .92969.0898 1.3555.27734.42578.1836.79297.4336 1.1094.75.3164.3125.5664.6836.75 1.1094.18359.42187.27734.875.27734 1.3555zm-8.6289 2.7109c0 .15234-.0586.28515-.17578.40234-.11328.11719-.26953.17578-.46094.17578h-1.0078c-.10937 0-.20312-.0273-.28515-.082-.082-.0547-.15235-.11719-.20704-.1875l-3.8828-5.625-.34765.48828v4.7891c0 .16407-.0625.3086-.1875.4336-.1211.12109-.26563.18359-.42969.18359h-.82031c-.16407 0-.3086-.0625-.4336-.18359-.12109-.125-.18359-.26953-.18359-.4336v-13.148c0-.16407.0625-.3086.18359-.42969.125-.125.26953-.18359.4336-.18359h.82031c.16406 0 .30859.0586.42969.18359.125.12109.1875.26562.1875.42969v4.9102l3.6133-5.2578c.0547-.082.13281-.14844.22656-.19531.0977-.0469.1875-.0703.26953-.0703h1.0039c.1914 0 .34765.0547.46484.17187.11328.11719.17188.25.17188.40234 0 .13672-.0391.26563-.1211.38672l-4.0703 5.8164 4.6836 6.6367c.082.12109.125.2539.125.38672"/></g></g></svg>