<svg enable-background="new 0 0 173 173" viewBox="0 0 173 173" xmlns="http://www.w3.org/2000/svg"><g fill="#937df2"><path d="m102.8 66.1c-.2 0-.5-.1-.6-.3-.4-.4-.4-.9 0-1.3l21.4-21.4v-.1l-37.3-37.4h-.1l-37.5 37.4v.1l21.4 21.4c.4.4.4.9 0 1.3s-.9.4-1.3 0l-21.3-21.4c-.7-.7-.7-1.9 0-2.7l37.4-37.3c.7-.7 1.9-.7 2.7 0l37.3 37.4c.7.7.7 1.9 0 2.7l-21.4 21.4c-.2.1-.5.2-.7.2z"/><path d="m86.1 169.2c-.5 0-1-.2-1.3-.6l-37.3-37.4c-.4-.4-.6-.8-.6-1.3s.2-1 .6-1.3l21.4-21.4c.4-.4.9-.4 1.3 0s.4.9 0 1.3l-21.4 21.4v.1l37.2 37.4h.1l37.4-37.4v-.1l-21.4-21.4c-.4-.4-.4-.9 0-1.3s.9-.4 1.3 0l21.4 21.4c.7.8.7 1.9 0 2.7l-37.4 37.4c-.3.3-.8.5-1.3.5z"/><path d="m129.3 125.9c-.5 0-1-.2-1.3-.6l-21.4-21.4c-.4-.4-.4-.9 0-1.3s.9-.4 1.3 0l21.4 21.4s.1.1.1 0l37.3-37.4v-.1l-37.3-37.4h-.1l-21.4 21.4c-.4.4-.9.4-1.3 0s-.4-.9 0-1.3l21.4-21.3c.8-.8 1.9-.8 2.7 0l37.3 37.4c.4.4.6.8.6 1.3s-.2 1-.6 1.3l-37.3 37.4c-.4.4-.9.6-1.4.6z"/><path d="m43 125.8c-.5 0-1-.2-1.3-.6l-37.3-37.3c-.7-.7-.7-1.9 0-2.7l37.3-37.4c.7-.7 1.9-.8 2.7 0l21.4 21.4c.4.4.4.9 0 1.3s-.9.4-1.3 0l-21.4-21.4h-.1l-37.4 37.4v.1l37.3 37.4h.1l21.4-21.4c.4-.4.9-.4 1.3 0s.4.9 0 1.3l-21.4 21.4c-.3.3-.8.5-1.3.5z"/></g><path d="m85.4 139.6c-4.6 0-8.2-2.2-10-3.5-1.2-.8-2.2-1.8-3-3-.9-1.3-1-2.3-1-2.6 0-.7.4-1.7 1-2.6.6-.8 1.7-2 3-3 1.7-1.3 5.3-3.5 10-3.5s8.2 2.2 10 3.5c1.2.8 2.2 1.8 3 3 .6.9 1 1.9 1 2.6 0 .3-.1 1.2-1 2.6-.7 1-1.8 2-3 3-1.8 1.3-5.4 3.5-10 3.5zm-12-10.9c-.6.9-.8 1.6-.8 1.8 0 .3.2 1 .8 1.8.8 1.1 1.7 2 2.7 2.7 1.6 1.2 5 3.3 9.2 3.3 4.3 0 7.6-2.1 9.2-3.3 1.1-1 2.1-1.9 2.8-2.8.6-.9.8-1.5.8-1.8s-.2-1-.8-1.8c-.8-1.1-1.7-2-2.7-2.7-1.6-1.2-5-3.3-9.2-3.3s-7.6 2-9.2 3.3c-1.2.9-2.2 2-2.8 2.8z" fill="#fff"/><path clip-rule="evenodd" d="m94.6 125.9c-1.6-1.2-5-3.3-9.2-3.3s-7.6 2-9.2 3.3c-1.2.9-2.2 2-2.8 2.8-.6.9-.8 1.6-.8 1.8 0 .3.2 1 .8 1.8.8 1.1 1.7 2 2.7 2.7 1.6 1.2 5 3.3 9.2 3.3 4.3 0 7.6-2.1 9.2-3.3 1.1-1 2.1-1.9 2.8-2.8.6-.9.8-1.5.8-1.8s-.2-1-.8-1.8c-.7-1.1-1.6-1.9-2.7-2.7z" fill="#937df2" fill-rule="evenodd"/><path d="m88.5 127.6c-.8-.9-1.8-1.3-3.1-1.3-1.2 0-2.2.4-3 1.3-.8.8-1.3 1.9-1.3 3s.4 2.2 1.3 3c.8.8 1.9 1.3 3 1.3s2.2-.4 3-1.3c.8-.8 1.3-1.9 1.3-3 0-1.2-.4-2.2-1.2-3z" fill="#fff"/><path d="m125.1 96.5c.4.4.9.9 1.4 1.1s1.1.5 1.6.5c.8.1 1.4 0 1.8-.2.6-.2 1.2-.4 1.6-.8s.9-.9 1.1-1.4l4.6-9.7c.8-1.7 1.1-2.8 1.1-4.3s-.4-3-1.1-4.3c-.7-1.2-1.7-2.3-3.1-3.1-2.4-1.4-5.7-1.4-8-.3-1.1.5-2.1 1.3-3 2.4-.8.9-1.3 2-1.6 3.5-.3 1.2-.2 2.4.1 3.9.5 1.6 1.4 2.9 2.1 4 .9 1.3 1.6 2.4 1.1 3.4-.4.7-.6 1.3-.6 1.7-.1.6 0 1.2.1 1.8.2.8.4 1.4.8 1.8z" fill="#937df2"/><path d="m138.3 76.9c-.8-1.4-2-2.6-3.5-3.5-1.5-.8-3.2-1.3-4.9-1.3-1.5 0-3 .3-4.3 1-1.3.6-2.4 1.5-3.4 2.8-.9 1.1-1.5 2.4-1.8 4.1-.9 4.2 1.1 7 2.4 8.9.6.9 1.2 1.7 1 2.1-.4.8-.7 1.5-.8 2.1-.1.8 0 1.5.1 2.3.2.8.6 1.5 1 2 .5.6 1.1 1.1 1.8 1.5.6.3 1.4.7 2.1.7h.7c.7 0 1.2-.1 1.6-.3.8-.2 1.5-.6 2-1 .6-.5 1.1-1.1 1.5-1.8l4.6-9.7c.8-1.9 1.3-3.1 1.3-4.9-.1-1.8-.5-3.5-1.4-5zm-1.1 9.2-4.6 9.7c-.2.5-.7 1-1.1 1.4-.4.3-1 .6-1.6.8-.4.1-1 .3-1.8.2-.5 0-1.2-.3-1.6-.5-.5-.3-1-.7-1.4-1.1-.3-.4-.6-1-.8-1.5-.1-.6-.2-1.2-.1-1.8.1-.4.3-1 .6-1.7.6-1-.2-2.1-1.1-3.4-.7-1.1-1.6-2.4-2.1-4-.3-1.5-.4-2.8-.1-3.9.3-1.5.8-2.6 1.6-3.5.9-1.2 1.9-1.9 3-2.4 2.3-1.2 5.6-1.1 8 .3 1.3.8 2.4 1.9 3.1 3.1.7 1.3 1.1 2.8 1.1 4.3.1 1.2-.3 2.3-1.1 4z" fill="#fff"/><path d="m132.5 79c-.9-.6-2-.9-3.1-.7s-2 .8-2.6 1.7-.8 2-.7 3.1c.2 1.1.9 2.1 1.9 2.7l.6.4c.4.3.9.7.9 1.1 0 .3-.2.7-.8 1.3-.2.2-.2.6 0 .9.1.1.3.2.4.2s.3-.1.4-.2c.5-.5 1.2-1.3 1.1-2.3-.1-.7-.6-1.4-1.5-2l-.6-.4c-.7-.4-1.2-1.1-1.3-1.9s0-1.5.5-2.1c.4-.6 1.1-1 1.8-1.1.8-.1 1.5 0 2.1.5.6.4 1 1.1 1.1 1.8.1.3.4.6.7.5s.6-.4.5-.7c0-1.3-.5-2.2-1.4-2.8z" fill="#fff"/><path d="m99.8 37.9c0-1.3-.4-2.5-1.2-3.5-.1-.2-.2-.4-.1-.6s.1-.3.1-.6c.3-2.6-2-4.6-4.4-5.1-.2 0-.4-.2-.5-.5-.5-2-2.1-3.3-4-3.3-1 0-2.1.4-2.9 1.2v4.1c0 2.4 1.9 4.3 4.3 4.3.3 0 .6.3.6.6s-.3.6-.6.6c-1.7 0-3.3-.8-4.3-2v17.4c.3.2.6.4 1 .6s.9.3 1.4.3c1.7 0 2.6-1.3 2.9-2.1.1-.2.3-.3.6-.3 2.7 0 3.9-1.7 4.3-2.4.5-.9.6-2.2.2-3.3-.1-.2 0-.5.2-.6 1.1-.9 2.4-2.5 2.4-4.8z" fill="#937df2"/><path d="m81.3 34c2.4 0 4.3-1.9 4.3-4.3v-4s0 0 0-.1v-.1c-.8-.8-1.9-1.2-2.9-1.2-1.9 0-3.5 1.4-4 3.3-.1.2-.3.4-.5.5-2.4.4-4.7 2.4-4.4 5 0 .3 0 .5.1.7s0 .4-.1.6c-.8 1.1-1.2 2.3-1.2 3.5 0 2.3 1.3 3.9 2.4 4.8.2.2.3.4.2.6-.3 1.1-.2 2.4.3 3.3.4.7 1.6 2.4 4.1 2.4h.1c.2 0 .5.1.6.3.4.8 1.3 2.1 2.9 2.1.5 0 1-.1 1.4-.3.5-.2.8-.4 1.1-.7v-17.2c-1 1.2-2.6 2-4.3 2-.3 0-.6-.3-.6-.6s.2-.6.5-.6z" fill="#937df2"/><path d="m101 37.9c0-1.4-.4-2.8-1.2-4 0-.2 0-.4 0-.6.3-3.2-2.2-5.6-5-6.3-.7-2.3-2.8-3.9-5.1-3.9-1.3 0-2.5.5-3.6 1.4-1-.9-2.3-1.4-3.5-1.4-2.3 0-4.4 1.6-5.1 3.9-2.8.7-5.3 3.1-5 6.2v.7c-.8 1.2-1.2 2.6-1.2 4 0 2.6 1.3 4.4 2.5 5.5-.3 1.3-.1 2.7.5 3.9.4.7 1.9 2.9 5 3 .9 1.5 2.3 2.4 3.9 2.4.6 0 1.3-.1 1.8-.3s.9-.4 1.3-.7c.3.3.7.5 1.2.7s1.2.3 1.8.3c1.6 0 3-.9 3.9-2.4 3.1-.1 4.6-2.3 5-3 .6-1.1.7-2.5.4-3.9 1.1-1.1 2.4-2.9 2.4-5.5zm-16.5 13.3c-.4.2-.9.3-1.4.3-1.7 0-2.6-1.3-2.9-2.1-.1-.2-.3-.3-.6-.3h-.1c-2.6 0-3.8-1.7-4.1-2.4-.5-1-.6-2.2-.3-3.3.1-.2 0-.5-.2-.6-1.1-.9-2.4-2.5-2.4-4.8 0-1.3.4-2.5 1.2-3.5.1-.2.2-.4.1-.6s-.1-.3-.1-.7c-.3-2.6 2-4.6 4.4-5 .2 0 .4-.2.5-.5.5-2 2.1-3.3 4-3.3 1 0 2.1.5 2.9 1.2v.1.1 4c0 2.4-1.9 4.3-4.3 4.3-.3 0-.6.3-.6.6s.3.6.6.6c1.7 0 3.3-.8 4.3-2v17.3c-.2.2-.5.5-1 .6zm12.9-8.5c-.2.2-.3.4-.2.6.3 1.1.2 2.4-.2 3.3-.4.7-1.6 2.4-4.3 2.4-.2 0-.5.1-.6.3-.4.8-1.3 2.1-2.9 2.1-.5 0-1-.1-1.4-.3-.4-.1-.7-.3-1-.6v-17.3c1 1.2 2.6 2 4.3 2 .3 0 .6-.3.6-.6s-.3-.6-.6-.6c-2.4 0-4.3-1.9-4.3-4.3v-4.1c.8-.8 1.8-1.2 2.9-1.2 1.9 0 3.5 1.4 4 3.3.1.2.3.4.5.5 2.4.4 4.7 2.4 4.4 5.1 0 .3 0 .4-.1.6s0 .4.1.6c.8 1.1 1.2 2.3 1.2 3.5-0 2.2-1.3 3.8-2.4 4.7z" fill="#fff"/><path clip-rule="evenodd" d="m53.3 83.6c-.6-.9-1.5-1.8-2.8-2.9-2.8-2.2-5.9-2.4-9.1-.6-.1.1-.2.1-.3.1h-.3c-.1 0-.2 0-.3-.1-1.5-.8-2.9-1.2-4.2-1.2-1.7 0-3.3.6-4.9 1.8-1.3 1-2.2 1.9-2.7 2.8-.4.6-.7 1.1-.8 1.5h26.2c-.2-.4-.4-.9-.8-1.4z" fill="#937df2" fill-rule="evenodd"/><path clip-rule="evenodd" d="m31.4 90.3c1.6 1.2 5.1 3.4 9.4 3.4h.3c3.3 0 6.7-1.2 9.4-3.4 1.3-1 2.2-2 2.8-2.8.3-.5.6-.9.7-1.3h-26.1c.1.3.4.7.7 1.2.6.9 1.6 1.9 2.8 2.9z" fill="#937df2" fill-rule="evenodd"/><path d="m54.3 82.8c-.7-1-1.7-2-3-3.1-3.3-2.5-6.7-2.8-10.3-.8-3.6-1.9-7.1-1.6-10.3.8-1.4 1.1-2.4 2.1-3 3.1-.7 1-1.1 2-1.1 2.7s.4 1.6 1.1 2.7c.7 1 1.7 2 3 3.1 1.8 1.4 5.5 3.6 10.2 3.6h.3c3.6 0 7.3-1.3 10.2-3.6 1.4-1.1 2.4-2.1 3-3.1.7-1 1.1-2 1.1-2.7-.1-.7-.5-1.6-1.2-2.7zm-22.9-2.1c1.6-1.2 3.2-1.8 4.9-1.8 1.4 0 2.8.4 4.2 1.2.1 0 .2.1.3.1h.3c.1 0 .2 0 .3-.1 3.2-1.8 6.2-1.5 9.1.6 1.2 1 2.2 2 2.8 2.9.4.6.6 1.1.8 1.4h-26.3c.1-.4.4-.8.8-1.5.6-.9 1.5-1.8 2.8-2.8zm19.1 9.6c-2.7 2.1-6.1 3.4-9.4 3.4h-.3c-4.3 0-7.8-2.1-9.4-3.4-1.2-1-2.2-2-2.8-2.9-.3-.5-.6-.9-.7-1.2h26.1c-.1.3-.4.8-.7 1.3-.6.9-1.5 1.8-2.8 2.8z" fill="#fff"/><path d="m96.6 103.8-.3.2c-1.3.7-3.4 1.1-6.5.6-3-.5-6.9-1.9-11.5-4.6-4.6-2.6-7.7-5.3-9.7-7.7-1.9-2.4-2.7-4.4-2.7-5.9s.7-3.5 2.7-5.9c1.9-2.4 5-5 9.7-7.7 4.6-2.7 8.4-4.1 11.5-4.6 3-.5 5.2-.1 6.5.6s2.7 2.4 3.8 5.3 1.8 6.9 1.8 12.2c0 5.3-.7 9.4-1.8 12.2-1 2.8-2.3 4.5-3.5 5.3zm-10.4-39.7c-12.3 0-22.2 10-22.2 22.3s9.9 22.3 22.2 22.3 22.2-10 22.2-22.3-9.9-22.3-22.2-22.3z" fill="#22f7d2"/><path d="m86.2 109.3c-12.6 0-22.8-10.3-22.8-22.9s10.2-22.9 22.8-22.9 22.8 10.3 22.8 22.9-10.2 22.9-22.8 22.9zm0-44.6c-11.9 0-21.6 9.7-21.6 21.7s9.7 21.7 21.6 21.7 21.6-9.7 21.6-21.7-9.7-21.7-21.6-21.7zm6.2 40.7c-.8 0-1.7-.1-2.7-.2-3.4-.6-7.5-2.2-11.7-4.7-4.2-2.4-7.5-5-9.9-7.8-1.9-2.4-2.8-4.5-2.8-6.3 0-1.3.5-3.5 2.8-6.3 2.1-2.6 5.4-5.3 9.9-7.8 4.3-2.5 8.3-4.1 11.7-4.7 3.8-.6 5.9.1 6.9.7 1.6.9 3 2.9 4.1 5.6 1.2 3.2 1.8 7.4 1.8 12.4 0 5.1-.6 9.4-1.8 12.4-.9 2.6-2.3 4.6-3.7 5.6l-.3.2c-.9.5-2.3.9-4.3.9zm0-36.8c-.8 0-1.6.1-2.5.2-3.3.5-7.1 2.1-11.3 4.5-4.3 2.5-7.5 5-9.5 7.5-2.1 2.5-2.6 4.4-2.6 5.5 0 1 .4 2.8 2.6 5.5 2.3 2.7 5.5 5.3 9.5 7.5 5.2 3.1 9 4.1 11.3 4.5 3.3.5 5.1 0 6.1-.5l.2-.2c.7-.5 2.1-1.8 3.3-5 1.2-2.9 1.8-7.1 1.8-12s-.6-8.9-1.8-12c-1.3-3.4-2.7-4.6-3.5-5-.9-.2-2.2-.5-3.6-.5z" fill="#937df2"/></svg>