<svg enable-background="new 0 0 157.3 160" viewBox="0 0 157.3 160" xmlns="http://www.w3.org/2000/svg"><path d="m106 22.5c-1-1-2.4-1.6-3.8-1.6s-2.9.6-3.9 1.7c-.7.8-1.2 1.7-1.4 2.7-.1-.2-.2-.3-.4-.4-1-1-2.3-1.6-3.8-1.6-2.5 0-4.5 1.7-5.2 4-.2-.2-.3-.4-.5-.6-1-1-2.4-1.6-3.8-1.6-3 0-5.4 2.4-5.4 5.4v.7c-1-1.2-2.4-1.9-4.1-1.9-3 0-5.4 2.4-5.4 5.4v4 .1 13.5c0 4.9 1.8 9.4 4.9 12.9v.2l-3.7 82c0 .4.3.7.6.7s.6-.3.6-.6l3.7-81c3.5 3.4 8.3 5.5 13.5 5.5 5.1 0 9.8-2 13.3-5.3l3.9 90c0 .3.3.6.6.6.4 0 .6-.3.6-.7l-3.7-89.9-.1-1.3v-.3c3-3.5 5-8 5-13v-12.5-.2-13.2c0-1.4-.5-2.7-1.5-3.7zm-7.9 6.1c0-.1 0-.1 0-.2v-2.2c0-1.1.4-2.1 1.1-2.8.8-.8 1.8-1.3 2.9-1.3s2.1.4 2.9 1.2 1.2 1.8 1.2 2.9v9.3c-1.1-.5-2.4-.5-2.6-.5-.1 0-2.4 0-5.5.1zm-9.5.1c0-2.4 1.8-4.2 4.1-4.2 1.1 0 2.1.4 2.9 1.2.7.7 1.1 1.7 1.2 2.7v6.8c-2.7.1-5.7.1-8.2.2zm-9.5 5.8v-4.2c0-2.3 1.8-4.1 4.1-4.1 1.1 0 2.1.4 2.9 1.2s1.2 1.8 1.2 2.9v3.3.1 1.6c-1 0-1.9 0-2.5.1-2 0-2.3 1.4-2.3 2.7 0 1.7.8 3.1 2 4.3-.4.1-.9.2-1.3.2-2.3 0-4.1-1.8-4.1-4.1zm-9.4 0c0-2.3 1.8-4.1 4.1-4.1 2.2 0 4.1 1.8 4.1 4.1v4 4.1c0 2.2-1.8 4.1-4.1 4.1-2.2 0-4.1-1.8-4.1-4.1zm36.6 4.8v.2 12.6c0 10.1-8.2 18.3-18.3 18.3s-18.3-8.2-18.3-18.3v-6c1 1.2 2.4 1.9 4.1 1.9 3 0 5.4-2.4 5.4-5.4v-.7c1 1.2 2.4 1.9 4.1 1.9.8 0 1.6-.2 2.4-.6.7.5 1.4 1 2.1 1.3 1.5.7 3.3 1.1 5 1.2-2.4.9-4.2 2.3-5.6 4.2-3.2 4.4-2.2 9.6-2.1 9.9s.3.5.6.5h.1c.3-.1.6-.4.5-.8 0 0-.9-5 1.9-8.9 1.9-2.7 5.2-4.3 9.6-4.8.3 0 .6-.4.6-.7s-.3-.6-.7-.6c-.1 0-5.9.4-9.4-1.2-2.2-1-4.4-3.1-4.4-5.3 0-1.3.3-1.3 1-1.4 4.3-.1 18.6-.4 18.8-.4.7 0 2.2.2 2.5.8 0 0 0 .1.1.1z" fill="#937df2"/><path d="m132.6 153.3-1.9-25.8-.7-12.8c2.3-2.9 3.7-6.5 3.7-10.5v-11.7-.1c0-.1 0-.2 0-.3v-10.2c0-2.6-2.1-4.7-4.7-4.7-1.8 0-3.3 1-4.1 2.4-.8-1.4-2.3-2.4-4.1-2.4-1.2 0-2.4.5-3.3 1.4-.3.3-.6.7-.8 1.1-.2-.5-.6-.9-.9-1.2-1-.9-2.2-1.3-3.4-1.2-1.1.1-2.2.6-3 1.4-.3.3-.5.6-.7 1-.2-.3-.4-.7-.7-.9-.9-.9-2.1-1.5-3.4-1.5s-2.4.5-3.3 1.4-1.4 2.1-1.4 3.3v11.3 10.9c0 3.8 1.3 7.3 3.4 10.1v.1l-2 42.5c.4.1.9.2 1.3.2v.1c7.2 1.2 13.1 1.8 18.7.8l.7-.2c.5-.1 1 .1 1.5 0 .2 0 .4-.1.6-.1l7.8-3.2c.1-.3.4-1 .7-1.2zm-28.2-37.2v-.4z" fill="#937df2"/><path d="m104.4 115.8c3.1 3.3 7.5 5.4 12.3 5.4 4.7 0 9-1.9 12.1-5.1l2.5 37.9v.2c.4-.3.8-.5 1.2-.8l-2.5-38.6c2.3-2.9 3.7-6.5 3.7-10.5v-11.8-.1c0-.1 0-.2 0-.3v-10.2c0-2.6-2.1-4.7-4.7-4.7-1.8 0-3.3 1-4.1 2.4-.8-1.4-2.3-2.4-4.1-2.4-1.2 0-2.4.5-3.3 1.4-.3.3-.6.7-.8 1.1-.2-.5-.6-.9-.9-1.2-1-.9-2.2-1.3-3.4-1.2-1.1.1-2.2.6-3 1.4-.3.3-.5.6-.7 1-.2-.3-.4-.7-.7-.9-.9-.9-2.1-1.5-3.4-1.5s-2.4.5-3.3 1.4-1.4 2.1-1.4 3.3v11.3 10.9c0 3.8 1.3 7.3 3.4 10.1v.1l-2 42.5c.4.1.9.2 1.3.2l1.8-41.3c0-.1 0-.1 0 0zm21.2-33.9c0-1.9 1.5-3.4 3.4-3.4s3.4 1.5 3.4 3.4v10.2c0 1.9-1.5 3.4-3.4 3.4s-3.4-1.5-3.4-3.4zm-8.2.1c0-.9.4-1.8 1-2.4.7-.7 1.5-1 2.4-1 1.9 0 3.4 1.5 3.4 3.4v10.1c0 1.9-1.5 3.4-3.4 3.4-.2 0-.5 0-.7-.1.8-1 1.4-2.1 1.4-3.4 0-1.7-.7-2.7-2-2.7-.5 0-1.2 0-2 0v-7.3zm-8.1 5.8c0-.1 0-.1 0 0v-5.8c0-.9.4-1.8 1-2.4s1.3-.9 2.2-1 1.8.2 2.4.9c.8.7 1.2 1.8 1.2 2.8v5.4 1.7c-2.1 0-4.6 0-6.9 0v-1.6zm-8.2-5.9c0-.9.4-1.8 1-2.4.7-.7 1.5-1 2.4-1s1.8.4 2.5 1c.6.7 1 1.5 1 2.4v7.5c-2.6 0-4.6 0-4.7 0-.2 0-1.2 0-2.2.4zm0 22.3v-10.7-2c.5-.6 1.7-.7 2.2-.7.1 0 12.5-.1 16.1 0 .4 0 .8 0 .8 1.4 0 1.9-1.9 3.7-3.7 4.5-3 1.4-8 1-8 1-.3 0-.7.2-.7.6s.2.7.6.7c3.8.5 6.5 1.8 8.2 4.1 2.4 3.3 1.6 7.5 1.6 7.6-.1.4.2.7.5.8h.1c.3 0 .6-.2.6-.5 0-.2.9-4.8-1.9-8.6-1.1-1.5-2.6-2.7-4.5-3.5 1.3-.2 2.8-.5 4-1 .7-.3 1.4-.8 2-1.3.6.2 1.2.4 1.8.4 1.8 0 3.3-1 4.1-2.4.8 1.4 2.3 2.4 4.1 2.4 1.4 0 2.6-.6 3.4-1.5v8.9c0 8.6-7 15.7-15.7 15.7-8.6-.3-15.6-7.3-15.6-15.9z" fill="#d0c4ff"/><path d="m73 127.5-.7-12.8c2.3-2.9 3.7-6.5 3.7-10.5v-11.7-.1c0-.1 0-.2 0-.3v-10.2c0-2.6-2.1-4.7-4.7-4.7-1.8 0-3.3 1-4.1 2.4-.8-1.4-2.3-2.4-4.1-2.4-1.2 0-2.4.5-3.3 1.4-.3.3-.6.7-.8 1.1-.2-.5-.6-.9-1-1.2-1-.9-2.2-1.3-3.4-1.2-1.1.1-2.2.6-3 1.4-.3.3-.5.6-.7 1-.2-.3-.4-.7-.7-.9-.9-.9-2.1-1.5-3.4-1.5s-2.4.5-3.4 1.4c-.9.9-1.4 2.1-1.4 3.3v11.3 10.9c0 3.8 1.3 7.3 3.4 10.1v.1l-.8 17.5c.4.3.8.5 1.2.8l1.6 1c2.3 1.4 4.6 2.8 7.1 4.3 5.3 3.1 10.6 6 15.7 8.4l3.3 1.5c.2.1.4.2.6.3.1 0 .2.1.3.1z" fill="#22f7d2"/><g fill="#937df2"><path d="m72.3 114.7c2.3-2.9 3.7-6.5 3.7-10.5v-11.7-.1c0-.1 0-.2 0-.3v-10.2c0-2.6-2.1-4.7-4.7-4.7-1.8 0-3.3 1-4.1 2.4-.8-1.4-2.3-2.4-4.1-2.4-1.2 0-2.4.5-3.3 1.4-.3.3-.6.7-.8 1.1-.2-.5-.6-.9-1-1.2-1-.9-2.2-1.3-3.4-1.2-1.1.1-2.2.6-3 1.4-.3.3-.5.6-.7 1-.2-.3-.4-.7-.7-.9-.9-.9-2.1-1.5-3.4-1.5s-2.4.5-3.4 1.4c-.9.9-1.4 2.1-1.4 3.3v11.3 10.9c0 3.8 1.3 7.3 3.4 10.1v.1l-.8 17.5c.4.3.8.5 1.2.8l.8-17c3.1 3.3 7.5 5.4 12.3 5.4 4.7 0 9-1.9 12.1-5.1l2.1 31.7c.1.1.3.1.4.2.2.1.4.2.6.3.1.1.2.1.3.2zm-4.4-32.8c0-1.9 1.5-3.4 3.4-3.4s3.4 1.5 3.4 3.4v10.2c0 1.9-1.5 3.4-3.4 3.4s-3.4-1.5-3.4-3.4zm-8.2.1c0-.9.4-1.8 1-2.4.7-.7 1.5-1 2.4-1 1.9 0 3.4 1.5 3.4 3.4v10.1c0 1.9-1.5 3.4-3.4 3.4-.2 0-.5 0-.7-.1.8-1 1.4-2.1 1.4-3.4 0-1.7-.7-2.7-2-2.7-.5 0-1.2 0-2 0v-7.3zm-8.2 5.8c0-.1 0-.1 0 0v-5.8c0-.9.4-1.8 1-2.4s1.3-.9 2.2-1 1.8.2 2.4.9c.8.7 1.2 1.8 1.2 2.8v5.4 1.7c-2.1 0-4.6 0-6.9 0v-1.6zm-8.1-5.9c0-.9.4-1.8 1-2.4.7-.7 1.5-1 2.4-1s1.8.4 2.5 1c.6.7 1 1.5 1 2.4v7.5c-2.6 0-4.6 0-4.7 0-.2 0-1.2 0-2.2.4zm15.6 37.9c-8.6 0-15.7-7-15.7-15.7v-10.6-2c.5-.6 1.7-.7 2.1-.7.1 0 12.5-.1 16.2 0 .4 0 .8 0 .8 1.4 0 1.9-1.9 3.7-3.7 4.5-3 1.4-8 1-8 1-.3 0-.7.2-.7.6s.2.7.6.7c3.8.5 6.5 1.8 8.2 4.1 2.4 3.3 1.6 7.5 1.6 7.6-.1.4.2.7.5.8h.1c.3 0 .6-.2.6-.5 0-.2.9-4.8-1.9-8.6-1.1-1.5-2.6-2.7-4.5-3.5 1.3-.2 2.8-.5 4-1 .7-.3 1.4-.8 2-1.3.6.2 1.2.4 1.8.4 1.8 0 3.3-1 4.1-2.4.8 1.4 2.3 2.4 4.1 2.4 1.4 0 2.6-.6 3.4-1.5v8.9c.1 8.4-6.9 15.4-15.6 15.4z"/><path d="m131.7 4.1c-12.2-7.1-39.1-6.5-77.9 16.5-39.1 22.4-53 45.4-53 59.5 0 7.1 3.5 15.8 10 24.4 7.1 9.4 17.3 18.6 30.3 27.3 1.3.8 9.1 5.7 10.7 6.7.6.4 1.3.8 1.9 1.1 5.4 3.1 10.7 6 15.8 8.4 1.2.5 3.7 1.6 3.9 1.7 14.9 6.6 28.9 10.1 40.4 10.1 2.9 0 5.6-.2 8.1-.6h.1c.5-.1 1-.2 1.5-.3 3.1-.7 5.8-1.7 8.1-3 12.2-7.2 25.1-30.9 24.8-76 .4-45-12.5-68.7-24.7-75.8zm-.9 150.4c-2.1 1.2-4.6 2.2-7.5 2.8-.5.1-.9.2-1.4.3h-.1c-12.3 2.1-29.2-1.2-47.6-9.4-.2-.1-.4-.2-.6-.3-1.1-.5-2.2-1-3.3-1.5-5.1-2.4-10.4-5.3-15.7-8.4-2.5-1.4-4.8-2.9-7.1-4.3l-1.6-1c-32-20.3-43.4-40.5-43.4-52.7 0-13.6 13.7-36 52.2-58 25.1-14.8 45.1-20.2 59.1-20.2 7.3 0 13 1.5 17 3.9 11.7 6.9 24.2 30 23.9 74.4.3 44.3-12.2 67.5-23.9 74.4z"/></g></svg>