<svg enable-background="new 0 0 163 163" viewBox="0 0 163 163" xmlns="http://www.w3.org/2000/svg"><g fill="#937df2"><path d="m28.4 34.7c23.1-26.1 49.5-25.5 54.6-25.1.4 0 .9-.1 1.2-.4s.5-.7.5-1.1v-5.8l32 22.3-32 19.7v-6.4c0-.5-.2-.9-.5-1.2s-.8-.4-1.2-.4l-8.9 1c-.5.1-.8.5-.8 1 .1.5.5.8 1 .8l8.6-1v6.6c0 .6.3 1.1.8 1.4.2.1.5.2.7.2.3 0 .6-.1.8-.2l9.8-6c.1.1.2.2.3.2 10.6 3.7 19.4 11.7 24.3 21.7v.1l-.1 1.1 1.6.8.1-2.1 3.5-10.4 9.3 9.7.8-10.4 4.9 2.4 4.1-6.4.9-.1.2-1.1.4-.5-.8-1.4c-4-6.2-9-12.1-14.9-17.3-.4-.3-.9-.3-1.3.1-.3.4-.3.9.1 1.3 5.8 5.1 10.7 10.8 14.6 16.9l.3.5-4.1 6.4-5.5-2.7-.7 9.4-8.8-9.2-3.6 10.9c-5.1-9.6-13.6-17.3-23.8-21.1l21.1-13c.5-.3.7-.8.7-1.3s-.3-1-.7-1.3l-32.6-22.8c-.5-.3-1.1-.4-1.6-.1s-.9.8-.9 1.4v6c-5.8-.4-32.5-.6-55.8 25.8-.3.4-.3.9.1 1.3.4.2 1 .2 1.3-.2z"/><path d="m162.6 83c-.2-.5-.7-.8-1.2-.8h-.1-.1-5.9c.2-3.4.4-13.8-4.8-26.6-.1-.3-.2-.6-.4-.9-.1-.2-.2-.4-.3-.6l-.6-1.4-.8-1.9-.7.5-.1 1h-.1l-1.4 8.7c-2-1-7.3-3.6-8.1-3.9l-1.1-.5.2 1.2c.2.9 1.2 8 1.7 11.1l-9-6.2-2 11.3-2.7-2-.6-1.4-.8 1.1.3 1.8 1 8.6h-6.6c-.6 0-1.1.3-1.4.8-.2.3-.2.6-.2.9 0 .2.1.5.2.7l7.7 12.5c-4.4 11.1-13.2 20-24.4 24.4-.5.2-.7.7-.5 1.2.1.4.5.6.8.6.1 0 .2 0 .3-.1 11.2-4.4 20.2-13.3 24.9-24.3l11.3 18.4c.3.5.7.7 1.2.7h.1c.5 0 1-.2 1.3-.7l22.8-32.7c.3-.3.4-.9.1-1.5zm-33.9-6.7 2.1-11.4 9.8 6.7-.2-1.4c-.1-.4-1.2-8.2-1.7-11.3 2.4 1.2 7.8 3.8 7.8 3.8l.8.4 1.2-7.6c5.3 12.9 5.1 23.7 4.9 26.9 0 .5.3 1 .7 1.3.3.3.7.5 1.1.5h5.4l-22.1 31.7-19.6-31.8h6.4c.5 0 .9-.2 1.2-.5s.4-.8.4-1.2l-.9-8.1z"/><path d="m135.8 128.5c-23.1 26.1-49.5 25.5-54.6 25.1-.4 0-.9.1-1.2.4s-.5.7-.5 1.1v5.8l-32-22.3 32-19.7v6.4c0 .5.2.9.5 1.2s.8.4 1.2.4l8.9-1c.5-.1.8-.5.8-1-.1-.5-.5-.9-1-.8l-8.6 1v-6.6c0-.6-.3-1.1-.8-1.4s-1.1-.3-1.6 0l-9.2 5.7c-.1-.1-.2-.1-.3-.2-12.6-3.8-22.9-13.4-27.7-25.6-.2-.5-.7-.7-1.2-.5s-.7.7-.5 1.2c4.8 12.4 15.2 22.1 27.7 26.3l-21.6 13.3c-.5.3-.7.8-.7 1.3s.3 1 .7 1.3l32.7 22.8c.3.2.6.3.9.3.2 0 .5-.1.7-.2.5-.3.9-.8.9-1.4v-6c5.8.4 32.5.6 55.8-25.8.3-.4.3-.9-.1-1.3-.3-.2-.9-.2-1.2.2z"/><path d="m44.6 78c.6 0 1.1-.3 1.4-.8s.2-1.1-.1-1.5l-4.9-8c.1-.1.2-.2.3-.4 3.8-10.6 11.7-19.4 21.8-24.3.4-.2.6-.8.4-1.2s-.8-.6-1.2-.4c-10.2 5-18.3 13.9-22.4 24.5l-14.1-23c-.3-.5-.8-.7-1.3-.7s-1 .3-1.3.7l-22.8 32.6c-.3.5-.4 1.1-.1 1.6.3.6.8.9 1.4.9h6c-.4 5.8-.6 32.5 25.8 55.8.2.2.4.2.6.2s.5-.1.7-.3c.3-.4.3-.9-.1-1.3-26.2-23.1-25.6-49.5-25.2-54.5 0-.4-.1-.9-.4-1.2s-.7-.5-1.1-.5h-5.8l22.3-32 19.7 32h-6.4c-.5 0-.9.2-1.2.5s-.4.8-.4 1.2l1 8.9c.1.5.5.9 1 .8s.8-.5.8-1l-1-8.6z"/></g><path d="m96.5 64.3c-2.9-6.2-8.7-9.2-14.6-9.2h-.1c-5.8 0-11.6 3-14.4 9.2-2.6 5.6-1.5 12.4 2.4 17 .4.4.7.8 1.1 1.2l1.3 1.1c1.7 1.3 2.8 3 2.8 5.1l.1 3.3c0 .8.5 1.5 1.2 1.8.6.3 10.6.3 11.2 0 .7-.3 1.2-1 1.2-1.8l.1-3.3c.1-2.1 1.2-3.8 2.8-5.1l1.3-1.1c.7-.6 1.3-1.3 1.8-2 3.4-4.6 4.3-10.9 1.8-16.2z" fill="#22f7d2"/><path d="m89.5 88.7c0-1.8.9-3.2 2.6-4.7l1.3-1.1c.7-.6 1.3-1.3 1.9-2.1 3.6-4.8 4.3-11.4 1.8-16.7-2.7-5.9-8.5-9.5-15-9.5h-.1-.1c-6.5 0-12.3 3.7-15 9.5-2.7 5.7-1.7 12.8 2.5 17.6.3.4.7.8 1.2 1.2l1.3 1.1c1.7 1.4 2.6 2.9 2.6 4.6l.1 3.3c0 1 .7 1.9 1.5 2.3.4.2 3.2.3 5.9.3s5.4-.1 5.8-.3c.9-.4 1.5-1.3 1.6-2.3zm-1.2-.1-.1 3.4c0 .5-.4 1-.8 1.2-.8.2-9.9.2-10.7 0-.5-.2-.8-.7-.8-1.2l-.1-3.3c-.1-2.1-1.1-4-3-5.5l-1.3-1.2c-.4-.4-.8-.8-1.1-1.1-3.9-4.4-4.8-11-2.4-16.3 2.5-5.4 7.8-8.8 13.9-8.8h.2.1c6 0 11.3 3.4 13.9 8.8 2.3 5 1.6 11-1.7 15.4-.5.7-1.1 1.4-1.8 1.9l-1.2 1.1c-2.1 1.7-3.1 3.5-3.1 5.6z" fill="#937df2"/><path d="m87.3 99.5h-10.7c-1 0-1.8-.8-1.8-1.8 0-1 .8-1.8 1.8-1.8h10.7c1 0 1.8.8 1.8 1.8.1 1-.8 1.8-1.8 1.8z" fill="#937df2"/><path d="m86.2 104h-8.4c-1 0-1.8-.8-1.8-1.8 0-1 .8-1.8 1.8-1.8h8.4c1 0 1.8.8 1.8 1.8 0 1-.8 1.8-1.8 1.8z" fill="#937df2"/><path d="m85.7 105.5c-.3-.4-.7-.6-1.1-.6h-2.6-2.6c-.4 0-.8.2-1.1.6s-.3.8-.2 1.2c.1.6.6 1.7 1.5 1.7h2.4 2.4c.9 0 1.4-1.1 1.5-1.7.1-.4.1-.8-.2-1.2z" fill="#937df2"/></svg>