<svg viewBox="0 0 855 255" xmlns="http://www.w3.org/2000/svg" xmlns:xlink="http://www.w3.org/1999/xlink"><clipPath id="a"><path d="m7.3 11.5h174.1v82.7h-174.1z"/></clipPath><clipPath id="b"><path d="m7.3 143.9h841.6v110.3h-841.6z"/></clipPath><g clip-path="url(#a)"><path d="m166 61.9c0 4.4-3.5 7.9-7.9 7.9h-11.3c-1.8 0-3.4 1.6-3.4 3.4v2.2c0 3.7-3 6.8-6.7 6.8h-2.3c-3.7 0-6.7-3-6.7-6.8v-2.2c0-1.8-1.6-3.4-3.4-3.4h-65.3c-1.8 0-3.4 1.6-3.4 3.4v2.2c0 3.7-3 6.8-6.8 6.8h-2.2c-3.7 0-6.8-3-6.8-6.8v-2.2c0-1.8-1.6-3.4-3.4-3.4h-10.1c-4.4 0-7.9-3.5-7.9-7.9v-3.4c0-4.4 3.5-7.9 7.9-7.9h8c1 0 2.3-.7 2.8-1.6l15.9-24.3h47.7c.8 0 2.7.6 3.8 1.7 2.2 2.2 23.1 22.1 23.1 22.1.5.5 1.2.7 1.8.8l29.9 4.6c5.1.8 6.5 4.2 6.5 5.8v2.2zm11.2 0v-2.2c0-7.4-5.6-15.2-16-16.8l-27.6-4.3c-4.5-4.2-19.3-18.1-21.2-20-3.4-3.4-8.1-5.1-11.7-5.1h-52c-1 0-2.3.7-2.8 1.6l-15.9 24.3h-3.7c-10.6 0-19.1 8.6-19.1 19.1v3.4c0 10.6 8.6 19.1 19.1 19.1h3.2c2.3 7.2 9.1 12.4 17.1 12.4h2.2c8 0 14.8-5.2 17.1-12.4h51.3c2.4 7.2 9.1 12.4 17.1 12.4h2.3c8 0 14.7-5.2 17.1-12.4h4.3c10.6 0 19.1-8.6 19.1-19.1" fill-rule="evenodd"/></g><g fill-rule="evenodd"><path d="m449.7 68.7c0 2-.5 3.4-3.9 3.4h-10.3c-1.8 0-3.4 1.6-3.4 3.4v2.3c0 2.5-2 4.5-4.5 4.5h-2.3c-2.5 0-4.5-2-4.5-4.5v-2.3c0-1.8-1.6-3.4-3.4-3.4h-6.7c-1.8 0-3.4 1.6-3.4 3.4v2.3c0 2.5-2 4.5-4.5 4.5h-2.3c-2.5 0-4.5-2-4.5-4.5v-2.3c0-1.8-1.6-3.4-3.4-3.4h-95.7c-1.8 0-3.4 1.6-3.4 3.4v2.3c0 2.5-2 4.5-4.5 4.5h-2.2c-2.5 0-4.5-2-4.5-4.5v-2.3c0-1.8-1.6-3.4-3.4-3.4h-6.7c-1.8 0-3.4 1.6-3.4 3.4v2.3c0 2.5-2 4.5-4.5 4.5h-2.2c-2.5 0-4.5-2-4.5-4.5v-2.3c0-1.8-1.6-3.4-3.4-3.4h-10.1c-3.7 0-6.7-3.1-6.7-6.8v-15.7c0-3.7 3-6.8 6.7-6.8h164.3c6.3 0 12.2.5 15.5 3.3l23.2 19.1c1.5 1.2 2.5 2.1 2.5 3.5m11.3-0c0-4-1.4-8-6.5-12.3l-23.2-19.1c-6.8-5.6-16.4-5.8-22.7-5.8h-164.3c-9.9 0-18 8.1-18 18v15.7c0 9.9 8.1 18 18 18h3.3c2.3 6 8 10.1 14.8 10.1h2.2c4.4 0 8.3-1.8 11.3-4.7 2.8 2.9 6.8 4.7 11.2 4.7h2.2c6.8 0 12.5-4.2 14.8-10.1h81.9c2.2 6 8 10.1 14.7 10.1h2.3c4.4 0 8.3-1.8 11.2-4.7 2.8 2.9 6.9 4.7 11.3 4.7h2.3c6.7 0 12.5-4.2 14.7-10.1h3.4c11 0 15.2-7.8 15.2-14.6"/><path d="m589.8 74.3c0 3.7-3.1 6.8-6.8 6.8h-55.1c-3.7 0-6.8-3.1-6.8-6.8v-23.6c0-3.7 3-6.8 6.8-6.8h55.1c3.7 0 6.8 3 6.8 6.8zm-23.6-41.6h-21.4v-1.1c0-3.7 3-6.8 6.7-6.8h7.9c3.7 0 6.8 3 6.8 6.8zm34.9 41.6v-23.6c0-9.9-8.1-18-18-18h-5.6v-1.1c0-9.9-8.1-18-18-18h-7.9c-9.9 0-18 8.1-18 18v1.1h-5.6c-9.9 0-18 8.1-18 18v23.6c0 9.9 8.1 18 18 18h55.1c9.9 0 18-8.1 18-18"/><path d="m830.2 30.9c0 2.6-1.6 5.2-4 6.2l-125.2 53.5h-24.6c-2.6 0-3.8-.7-4.5-2.3l-8-18.6 3.9-1.7 23.2 10.9c.3.2.9.3 1.4.3s1-.1 1.5-.3l26.3-11.2c1.3-.6 2-1.8 2-3.1s-.2-1.4-.7-2l-24.5-31.4 14.9-6.4 54.9 21.9c.5.1.8.2 1.2.2s.9-.1 1.2-.2l51.6-22.1c.8-.3 1.7-.6 2.6-.6 2.6 0 5.1 1.6 6.2 4.2.3.9.6 1.8.6 2.7m11.3 0c0-2.4-.5-4.7-1.5-7.1-2.9-6.9-9.7-11-16.6-11s-4.7.5-7 1.5l-48.5 20.8-54.8-22.1c-.3-.1-.8-.2-1.1-.2-.5 0-1 .1-1.5.3l-27.3 11.7c-1.4.6-2 1.9-2 3.1s.2 1.4.7 2l24.4 31.4-13.7 5.9-23.1-10.9c-.3-.2-.9-.3-1.4-.3s-1 .1-1.5.3l-14.4 6.1c-1.2.6-2.1 1.5-2.1 3.2s.1.9.3 1.3l11.1 25.9c2.3 5.5 8.4 9 14.8 9h26.3c.8 0 1.1-.2 1.1-.2l126.7-54.1c6.9-2.9 10.9-9.6 10.9-16.5"/></g><g clip-path="url(#b)"><path d="m848.9 211.4c0 2.5-.5 4.8-1.4 7s-2.2 4.1-3.9 5.8-3.6 3-5.8 3.9-4.5 1.4-7 1.4-4.8-.5-7-1.4-4.1-2.2-5.8-3.9-3-3.6-3.9-5.8-1.4-4.5-1.4-7v-26.6h-5.7c-.9 0-1.7-.3-2.4-1s-1-1.5-1-2.4v-4c0-.9.3-1.7 1-2.4s1.4-1 2.4-1h5.7v-17c0-.9.3-1.7 1-2.4s1.5-1 2.4-1h4.5c.9 0 1.7.3 2.4 1 .6.7 1 1.5 1 2.4v17h17c.9 0 1.7.3 2.4 1s1 1.5 1 2.4v4c0 .9-.3 1.7-1 2.4s-1.5 1-2.4 1h-17v26.6c0 1.9.6 3.5 2 4.8s2.9 2 4.8 2 3.5-.7 4.8-2 2-2.9 2-4.8v-2.3c0-.9.4-1.7 1-2.4.7-.7 1.5-1 2.4-1h4.5c.9 0 1.7.3 2.4 1s1 1.5 1 2.4zm-51.5-35.1c0 .7-.2 1.3-.5 1.8l-2.3 4c-.6 1.1-1.6 1.7-2.9 1.7s-1.2-.2-1.7-.5c-1.5-.9-3.2-1.4-5.1-1.4-3.4 0-5.9 1-7.6 3s-2.5 4.4-2.5 7.3v32.8c0 .9-.3 1.7-1 2.4s-1.5 1-2.4 1h-4.5c-.9 0-1.7-.3-2.4-1s-1-1.5-1-2.4v-49.8c0-.9.3-1.7 1-2.4s1.5-1 2.4-1h4.5c.8 0 1.4.2 2 .7s1 1 1.2 1.7c.7-.7 2-1.4 3.6-2.3 1.7-.8 3.9-1.2 6.7-1.2s7.5.9 10.8 2.8c1.1.6 1.7 1.6 1.7 2.8m-60.2 13.6c0-2.2-.8-4.1-2.3-5.6s-3.4-2.3-5.6-2.3h-2.3c-2.2 0-4.1.8-5.6 2.3-1.6 1.6-2.3 3.4-2.3 5.6v20.4c0 2.2.8 4.1 2.3 5.6 1.5 1.6 3.4 2.3 5.6 2.3h2.3c2.2 0 4-.8 5.6-2.3s2.3-3.4 2.3-5.6zm11.3 20.4c0 2.6-.5 5.1-1.5 7.5-1 2.3-2.4 4.4-4.1 6.1s-3.8 3.1-6.1 4.1-4.8 1.6-7.5 1.6h-2.3c-2.6 0-5.1-.5-7.5-1.6-2.3-1-4.4-2.4-6.1-4.1s-3.1-3.8-4.2-6.1c-1-2.3-1.5-4.8-1.5-7.5v-20.4c0-2.6.5-5.1 1.5-7.5 1-2.3 2.4-4.4 4.2-6.1 1.7-1.7 3.8-3.1 6.1-4.1s4.8-1.5 7.5-1.5h2.3c2.6 0 5.1.5 7.5 1.5 2.3 1 4.4 2.4 6.1 4.1s3.1 3.8 4.1 6.1 1.5 4.8 1.5 7.5zm-65.5-20.4c0-2.2-.8-4.1-2.3-5.6s-3.4-2.3-5.6-2.3h-2.3c-2.2 0-4.1.8-5.6 2.3s-2.3 3.4-2.3 5.6v20.4c0 2.2.8 4.1 2.3 5.6s3.4 2.3 5.6 2.3h2.3c2.2 0 4-.8 5.6-2.3s2.3-3.4 2.3-5.6zm11.3 20.4c0 2.6-.5 5.1-1.4 7.5-.9 2.3-2.3 4.4-3.9 6.1-1.7 1.7-3.7 3.1-5.9 4.1-2.3 1-4.8 1.6-7.4 1.6h-1.1c-2.2 0-4.1-.4-5.7-1.1s-2.9-1.4-3.9-2.1v21.3c0 .9-.3 1.7-1 2.4s-1.5 1-2.4 1h-4.5c-.9 0-1.7-.3-2.4-1s-1-1.5-1-2.4v-72.5c0-.9.3-1.7 1-2.4s1.5-1 2.4-1h4.5c.7 0 1.3.2 1.9.6s1 .9 1.3 1.5c.9-.6 2.2-1.3 3.9-2.1s3.7-1.2 5.9-1.2h1.1c2.6 0 5.1.5 7.4 1.5s4.3 2.4 5.9 4.1 3 3.8 3.9 6.1 1.4 4.8 1.4 7.5v20.4zm-50.4-34c0 .7-.2 1.3-.5 1.8l-2.3 4c-.6 1.1-1.6 1.7-2.9 1.7s-1.2-.2-1.7-.5c-1.5-.9-3.2-1.4-5.1-1.4-3.4 0-5.9 1-7.6 3s-2.5 4.4-2.5 7.3v32.8c0 .9-.3 1.7-1 2.4s-1.5 1-2.4 1h-4.5c-.9 0-1.7-.3-2.4-1s-1-1.5-1-2.4v-49.8c0-.9.3-1.7 1-2.4s1.5-1 2.4-1h4.5c.8 0 1.4.2 2 .7s1 1 1.2 1.7c.8-.7 2-1.4 3.6-2.3 1.7-.8 3.9-1.2 6.7-1.2s7.4.9 10.8 2.8c1.1.6 1.7 1.6 1.7 2.8m-55.5-15.9c0 .9-.3 1.7-1 2.4s-1.5 1-2.4 1h-7.9c-.9 0-1.7-.3-2.4-1s-1-1.5-1-2.4v-7.9c0-.9.4-1.7 1-2.4.7-.7 1.5-1 2.4-1h7.9c.9 0 1.7.3 2.4 1s1 1.5 1 2.4zm9 64.6c0 .9-.3 1.7-1 2.4s-1.5 1-2.4 1h-27.2c-.9 0-1.7-.3-2.4-1s-1-1.5-1-2.4v-4c0-.9.3-1.7 1-2.4s1.5-1 2.4-1h9.1v-35.1h-7.4c-.9 0-1.7-.3-2.4-1s-1-1.5-1-2.4v-4c0-.9.3-1.7 1-2.4s1.5-1 2.4-1h15.3c.9 0 1.7.3 2.4 1s1 1.5 1 2.4v42.5h6.8c.9 0 1.7.3 2.4 1s1 1.5 1 2.4zm-67.8-64.6h-3.6l-8.4 31.7h20.4zm21.4 64.6c0 .9-.3 1.7-1 2.4s-1.5 1-2.4 1h-4.5c-.9 0-1.7-.3-2.4-1s-1-1.5-1-2.4v-22.1h-23.8v22.1c0 .9-.3 1.7-1 2.4s-1.5 1-2.4 1h-4.5c-.9 0-1.7-.3-2.4-1s-1-1.5-1-2.4v-28.1s0-.2.1-.2l11.9-45.1c.2-.7.6-1.2 1.2-1.7s1.3-.7 2.1-.7h15.9c.8 0 1.5.2 2.1.7s1 1.1 1.2 1.7l11.9 45.1v.2.2.3 27.5zm-93.5 0c0 .9-.3 1.7-1 2.4s-1.5 1-2.4 1h-4.5c-.9 0-1.7-.3-2.4-.9s-1-1.4-1-2.5v-35.1c0-2.2-.8-4.1-2.3-5.6-1.6-1.6-3.4-2.3-5.6-2.3h-2.3c-2.2 0-4 .8-5.6 2.3s-2.3 3.4-2.3 5.6v35.1c0 .9-.3 1.7-1 2.4s-1.5 1-2.4 1h-4.5c-.9 0-1.7-.3-2.4-1s-1-1.5-1-2.4v-49.8c0-.9.3-1.7 1-2.4s1.5-1 2.4-1h4.5c.7 0 1.3.2 1.9.6s1 .9 1.3 1.5c.9-.6 2.2-1.3 3.9-2.1s3.7-1.2 5.9-1.2h1.1c2.6 0 5.1.5 7.4 1.5s4.3 2.4 5.9 4.1c1.7 1.7 3 3.8 3.9 6.1s1.4 4.8 1.4 7.5v35.1zm-56 0c0 .9-.3 1.7-1 2.4s-1.5 1-2.4 1h-4.5c-.9 0-1.7-.3-2.4-.9s-1-1.4-1-2.5v-35.1c0-2.2-.8-4.1-2.3-5.6s-3.4-2.3-5.6-2.3h-2.3c-2.2 0-4 .8-5.6 2.3s-2.3 3.4-2.3 5.6v35.1c0 .9-.3 1.7-1 2.4s-1.5 1-2.4 1h-4.5c-.9 0-1.7-.3-2.4-1s-1-1.5-1-2.4v-49.8c0-.9.3-1.7 1-2.4s1.5-1 2.4-1h4.5c.7 0 1.3.2 1.9.6s1 .9 1.3 1.5c.9-.6 2.2-1.3 3.9-2.1s3.7-1.2 6-1.2h1.1c2.6 0 5.1.5 7.4 1.5s4.3 2.4 5.9 4.1c1.7 1.7 3 3.8 3.9 6.1s1.4 4.8 1.4 7.5v35.1zm-66.9-35.1c0-2.2-.8-4.1-2.3-5.6s-3.4-2.3-5.6-2.3h-2.3c-2.2 0-4.1.8-5.6 2.3s-2.3 3.4-2.3 5.6v20.4c0 2.2.8 4.1 2.3 5.6s3.4 2.3 5.6 2.3h2.3c2.2 0 4-.8 5.6-2.3s2.3-3.4 2.3-5.6zm11.4 20.4c0 2.6-.5 5.1-1.5 7.5-1 2.3-2.4 4.4-4.1 6.1s-3.8 3.1-6.1 4.1-4.8 1.6-7.5 1.6h-2.3c-2.6 0-5.1-.5-7.5-1.6-2.3-1-4.4-2.4-6.1-4.1s-3.1-3.8-4.1-6.1-1.5-4.8-1.5-7.5v-20.4c0-2.6.5-5.1 1.5-7.5 1-2.3 2.4-4.4 4.1-6.1s3.8-3.1 6.1-4.1 4.8-1.5 7.5-1.5h2.3c2.6 0 5.1.5 7.5 1.5 2.3 1 4.4 2.4 6.1 4.1s3.1 3.8 4.1 6.1 1.5 4.8 1.5 7.5zm-64-6.8c0-2.9-1-5.3-2.9-7.3-2-2-4.4-2.9-7.3-2.9h-12.4v23.8h12.4c2.9 0 5.3-1 7.3-3s2.9-4.4 2.9-7.3v-3.4zm-2.3-32.8c0-2.9-1-5.3-3-7.3s-4.4-3-7.2-3h-10.2v21.5h10.2c2.9 0 5.3-1 7.2-2.9 2-2 3-4.4 3-7.3v-1.1zm13.6 36.2c0 3-.6 5.8-1.7 8.4s-2.6 4.9-4.6 6.8c-1.9 1.9-4.2 3.4-6.8 4.6s-5.4 1.7-8.4 1.7h-20.4c-.9 0-1.7-.3-2.4-1s-1-1.5-1-2.4v-72.5c0-.9.3-1.7 1-2.4s1.5-1 2.4-1h18.1c2.9 0 5.7.6 8.4 1.7 2.6 1.1 4.9 2.7 6.8 4.6s3.5 4.2 4.6 6.8 1.7 5.4 1.7 8.4v1.1c0 2.9-.6 5.6-1.7 8.3-1.1 2.6-2.9 4.8-5.3 6.6 3 1.7 5.2 4 6.8 7.2 1.6 3.1 2.4 6.3 2.4 9.7v3.4zm-94.6 18.1c0 .9-.3 1.7-1 2.4s-1.5 1-2.4 1h-4.5c-.9 0-1.7-.3-2.4-.9s-1-1.4-1-2.5v-35.1c0-2.2-.8-4.1-2.3-5.6s-3.4-2.3-5.6-2.3h-2.3c-2.2 0-4.1.8-5.6 2.3-1.5 1.6-2.3 3.4-2.3 5.6v35.1c0 .9-.3 1.7-1 2.4s-1.5 1-2.4 1h-4.5c-.9 0-1.7-.3-2.4-1s-1-1.5-1-2.4v-49.8c0-.9.3-1.7 1-2.4s1.5-1 2.4-1h4.5c.7 0 1.3.2 1.9.6s1 .9 1.3 1.5c.9-.6 2.2-1.3 3.9-2.1s3.7-1.2 5.9-1.2h1.1c2.6 0 5.1.5 7.4 1.5s4.3 2.4 6 4.1 3 3.8 3.9 6.1 1.4 4.8 1.4 7.5v35.1zm-53.8 0c0 .9-.3 1.7-1 2.4s-1.5 1-2.4 1h-27.2c-.9 0-1.7-.3-2.4-1s-1-1.5-1-2.4v-4c0-.9.3-1.7 1-2.4s1.5-1 2.4-1h9v-57.8h-7.3c-.9 0-1.7-.3-2.4-1s-1-1.5-1-2.4v-4c0-.9.3-1.7 1-2.4s1.5-1 2.4-1h15.3c.9 0 1.7.3 2.4 1s1 1.5 1 2.4v65.1h6.8c.9 0 1.7.3 2.4 1s1 1.5 1 2.4v4zm-45.9-63.4c0 .9-.3 1.7-1 2.4s-1.5 1-2.4 1h-6.8c-.9 0-1.7-.3-2.4-1s-1-1.5-1-2.4v-6.8c0-.9.3-1.7 1-2.4s1.5-1 2.4-1h6.8c.9 0 1.7.3 2.4 1s1 1.5 1 2.4zm-9 28.3c0-2.2-.8-4.1-2.3-5.6s-3.4-2.3-5.6-2.3h-2.3c-2.2 0-4.1.8-5.6 2.3-1.5 1.6-2.3 3.4-2.3 5.6v20.4c0 2.2.8 4.1 2.3 5.6 1.6 1.6 3.4 2.3 5.6 2.3h2.3c2.2 0 4-.8 5.6-2.3s2.3-3.4 2.3-5.6zm-13.6-28.3c0 .9-.3 1.7-1 2.4s-1.5 1-2.4 1h-6.8c-.9 0-1.7-.3-2.4-1s-1-1.5-1-2.4v-6.8c0-.9.3-1.7 1-2.4s1.5-1 2.4-1h6.8c.9 0 1.7.3 2.4 1s1 1.5 1 2.4zm24.9 48.7c0 2.6-.5 5.1-1.5 7.5-1 2.3-2.4 4.4-4.1 6.1s-3.8 3.1-6.1 4.1-4.8 1.6-7.5 1.6h-2.3c-2.6 0-5.1-.5-7.5-1.6-2.3-1-4.4-2.4-6.1-4.1s-3.1-3.8-4.1-6.1-1.5-4.8-1.5-7.5v-20.4c0-2.6.5-5.1 1.5-7.5 1-2.3 2.4-4.4 4.1-6.1s3.8-3.1 6.1-4.1 4.8-1.5 7.5-1.5h2.3c2.6 0 5.1.5 7.5 1.5 2.3 1 4.4 2.4 6.1 4.1s3.1 3.8 4.1 6.1 1.5 4.8 1.5 7.5zm-47.6 14.9c0 .8-.3 1.6-1 2.2-.6.6-1.5 1-2.5 1h-5.6c-.6 0-1.1-.2-1.6-.5s-.8-.6-1.1-1l-21.4-31-1.9 2.7v26.4c0 .9-.3 1.7-1 2.4s-1.5 1-2.4 1h-4.5c-.9 0-1.7-.3-2.4-1s-1-1.5-1-2.4v-72.5c0-.9.3-1.7 1-2.4s1.5-1 2.4-1h4.5c.9 0 1.7.3 2.4 1s1 1.5 1 2.4v27.1l19.9-29c.3-.5.7-.8 1.2-1.1s1-.4 1.5-.4h5.5c1.1 0 1.9.3 2.6.9.6.6.9 1.4.9 2.2s-.2 1.5-.7 2.1l-22.4 32.1 25.8 36.6c.5.7.7 1.4.7 2.1"/></g></svg>