<svg enable-background="new 0 0 136 163" viewBox="0 0 136 163" xmlns="http://www.w3.org/2000/svg"><g fill="#937df2"><path d="m68 154.8-.2-.1c-13.3-4-24.6-11.1-33.7-21-.2-.3-.2-.7 0-.9.3-.2.6-.2.9 0 8.9 9.7 19.9 16.6 32.9 20.6 12.2-3.8 22.7-10.1 31.3-18.9.2-.2.6-.3.9 0 .2.2.3.6 0 .9-8.8 9-19.5 15.5-32 19.3z"/><path d="m8.6 87.1c-.3 0-.6-.3-.6-.6v-52l53.9-22.3c.3-.1.7 0 .8.3s0 .7-.3.8l-53.1 22v51.2c0 .3-.3.6-.7.6z"/><path d="m68.2 161.7c-.2 0-.3 0-.5 0-46.1-13.6-60.8-51.3-64.9-66.9-.4-1.6-.7-3.3-.7-5.1l-.9-59.7 66.6-28.7h.6l.1.1 66.4 28.7v.6l-.9 59.1c0 1.8-.3 3.4-.7 5.1-4.1 15.6-18.8 53.3-64.9 66.9 0-.1-.1-.1-.2-.1zm-65.2-130.5.9 58.5c0 1.6.2 3.1.6 4.6 4.1 15.3 18.4 52.2 63.5 65.6 45.1-13.4 59.5-50.3 63.5-65.6.4-1.5.6-3 .6-4.6l.9-58.5-64.9-28.1z"/><path d="m71.2 100.5c-1.3-1.3-3.2-1.7-4.9-1.2.1-.5.2-.9.2-1.4 0-1.3-.5-2.6-1.5-3.5-1.3-1.3-3.2-1.7-4.9-1.2.1-.5.2-.9.2-1.4 0-1.3-.5-2.6-1.5-3.5-1.3-1.3-3.2-1.7-4.9-1.2.5-1.7.1-3.6-1.2-4.9-.9-.9-2.2-1.5-3.5-1.5s-2.6.5-3.5 1.5l-7.3 7.3c-1.9 1.9-1.9 5.1 0 7 1 1 2.2 1.5 3.5 1.5.5 0 .9-.1 1.4-.2-.5 1.7-.1 3.6 1.2 4.9.9.9 2.2 1.5 3.5 1.5.5 0 1-.1 1.4-.2-.5 1.7-.1 3.6 1.2 4.9.9.9 2.2 1.5 3.5 1.5.5 0 1-.1 1.4-.2-.5 1.7-.1 3.6 1.2 4.9 1 1 2.2 1.5 3.5 1.5s2.6-.5 3.5-1.5l7.3-7.3c2.1-2.2 2.1-5.4.2-7.3z"/></g><path d="m87.7 98-12.8-12.6c-.2-.2-.2-.6 0-.9.2-.2.2-.2.5 0l13.2 12.7c1.8 1.8 4.6 1.8 6.4 0l.3-.3c.8-.8 1.3-2 1.3-3.2s-.1-2.6-.9-3.5l-18.3-21.5c.1-.1-1.1-.2-1.1-.3-1.9 2.6-3.5 6.4-6.9 6.6l-.8.6c-3.2.4-5 .8-6.5-.4h-.6c-.4-.5-1.7-1.1-1.2-2.6.2-.5.7-1.3 1.2-2.2.7-1.1 1.4-2.4 1.8-3.5.2-.5.4-1.2.7-1.9.9-2.5 2.1-6 3.6-8.6 0-.1.1-.1.1-.2-5.4-6.5-13.8-9.4-17.7-9-11.6.6-20.2 9-21.3 19.9 0 .2 0 .5-.1.7v.3.1 1.2c0 7.1 4.7 13.7 9 18.4.6.5 1.2.9 1.9 1.3l6.4-6.4c.9-.9 2.2-1.5 3.5-1.5s2.6.5 3.5 1.5c1.3 1.3 1.1 3.1.6 4.8 1.7-.5 4.2 0 5.5 1.3.9.9.9 1.9.9 3.2 0 .5-.2 1.2-.3 1.6 1.7-.5 4.4 0 5.7 1.3.9.9 1 1.9 1 3.2 0 .5-.2 1.5-.3 1.9 1.7-.5 4-.1 5.3 1.2 1.9 1.9 1.4 4.6-.5 6.5l-.7-.4-.6 2 .4.5c2.3 4.4 5.7 4.5 6.1 4.5 3.5 0 5.8-4.6 6-7.6 2.3-.3 7.1-.6 7.5-7.1-.6-.2-1.2-.9-1.8-1.6z" fill="#22f7d2"/><path d="m68.9 108.6c.2-.1.5 0 .6.2l.5.5 3 3c1.8 1.8 4.6 1.8 6.4 0l.3-.3c.9-.9 1.4-2.1 1.4-3.3s-.5-2.3-1.3-3.1c-.2-.2-.1-.6.1-.9.2-.2.3-.3.6-.1 1 1 1.9 2.5 1.9 4 0 1.6-.6 3.1-1.8 4.2l-.3.3c-1.1 1.1-2.6 1.7-4.1 1.7s-2.9-.6-4.1-1.7l-3-3-.5-.5c-.2-.2-.2-.4-.2-.6z" fill="#937df2"/><path d="m83.8 107.2c-1.5 0-2.9-.6-4.1-1.7l-9.2-9.3c-.2-.2-.2-.6 0-.9.2-.2.6-.2.9 0l9.2 9.3c1.8 1.7 4.6 1.7 6.4 0l.3-.3c.8-.8 1.3-2 1.3-3.2s-.5-2.3-1.3-3.2l-1.2-1.4c-.2-.3-.2-.7.1-.9s.7-.2.9.1l1.2 1.4c1.1 1.1 1.7 2.5 1.7 4s-.6 3-1.7 4.1l-.3.3c-1.2 1.1-2.7 1.7-4.2 1.7z" fill="#937df2"/><path d="m38.6 89.7.9-.9c-.2-.3-.5-.6-.8-1-1.8-2.3-6.1-7.7-6.5-8.3-1.9-3.2-3-7-3-10.8 0-11.6 9.4-21 21-21 6.8 0 13.2 3.3 17.1 8.8.1-.1.1-.2.2-.4s.3-.5.5-.8c-4.2-5.6-10.8-9-17.8-9-12.3 0-22.3 10-22.3 22.3 0 4 1.1 8 3.2 11.5.3.6 3.6 4.6 6.5 8.3.5.7.8 1.1 1 1.3z" fill="#937df2"/><path d="m71.2 100.5c-1.3-1.3-3.2-1.7-4.9-1.2.1-.5.2-.9.2-1.4 0-1.3-.5-2.6-1.5-3.5-1.3-1.3-3.2-1.7-4.9-1.2.1-.5.2-.9.2-1.4 0-1.3-.5-2.6-1.5-3.5-1.3-1.3-3.2-1.7-4.9-1.2.5-1.7.1-3.6-1.2-4.9-.9-.9-2.2-1.5-3.5-1.5s-2.6.5-3.5 1.5l-7.3 7.3c-1.9 1.9-1.9 5.1 0 7 1 1 2.2 1.5 3.5 1.5.5 0 .9-.1 1.4-.2-.5 1.7-.1 3.6 1.2 4.9.9.9 2.2 1.5 3.5 1.5.5 0 1-.1 1.4-.2-.5 1.7-.1 3.6 1.2 4.9.9.9 2.2 1.5 3.5 1.5.5 0 1-.1 1.4-.2-.5 1.7-.1 3.6 1.2 4.9 1 1 2.2 1.5 3.5 1.5s2.6-.5 3.5-1.5l7.3-7.3c2.1-2.2 2.1-5.4.2-7.3zm-32-5c-1.5-1.5-1.5-3.8 0-5.3l7.3-7.3c.7-.7 1.6-1.1 2.6-1.1s1.9.4 2.6 1.1c1.4 1.4 1.5 3.8 0 5.2l-7.3 7.3c-1.4 1.5-3.7 1.5-5.2.1zm6.2 6.1c-1.4-1.4-1.5-3.8 0-5.2l7.3-7.3c.7-.7 1.7-1.1 2.6-1.1 1 0 1.9.4 2.6 1.1s1.1 1.6 1.1 2.6-.4 1.9-1.1 2.6l-7.3 7.3c-1.3 1.4-3.8 1.4-5.2 0zm6.2 6.2c-1.5-1.5-1.5-3.8 0-5.3l7.3-7.3c.7-.7 1.7-1.1 2.6-1.1s1.9.4 2.6 1.1 1.1 1.6 1.1 2.6-.4 1.9-1.1 2.6l-7.3 7.3c-1.4 1.5-3.8 1.5-5.2.1zm18.7-1.1-7.3 7.3c-1.5 1.5-3.8 1.5-5.3 0s-1.5-3.8 0-5.3l7.3-7.3c.7-.7 1.7-1.1 2.6-1.1 1 0 1.9.4 2.6 1.1 1.5 1.4 1.5 3.8.1 5.3z" fill="#d0c4ff"/><path d="m76.3 68.4h.5l19.5 21.8c-.1-.1 0-.3-.1-.4.2.3.4.6.6.9.2-.3.6-.8 1-1.3 3.9-5.2 6.4-8.4 6.5-8.6l.1-.2c2.3-3.6 3.5-7.7 3.5-11.9 0-12.3-10-22.3-22.2-22.3-7.9 0-16.4 6.3-18.4 9.7-1.5 2.6-2.7 6.1-3.6 8.6-.3.8-.5 1.4-.7 1.9-.4 1.1-1.2 2.4-1.8 3.5-.5.9-1 1.7-1.2 2.2-.5 1.5.6 2.6 1 3.1l.1.1c1.5 1.1 7.5.5 7.5.5 3.5-.2 6.2-5 7.8-7.8" fill="#937df2"/><path d="m85.7 46.4c-7.9 0-16.4 6.3-18.4 9.7-1.5 2.6-2.7 6.1-3.6 8.6-.3.8-.5 1.4-.7 1.9-.4 1.1-1.2 2.4-1.8 3.5-.5.9-1 1.7-1.2 2.2-.5 1.5.6 2.6 1 3.1l.1.1c1.5 1.1 7.5.5 7.5.5 3.5-.2 6.2-5 7.8-7.8l.2-.4c1.5-2.6 3.2-5.3 4.6-6.2 1-.6 6.4-.7 9.6-.6.3 0 .6-.3.6-.6s-.3-.6-.6-.6c-1.4 0-8.6-.2-10.3.8s-3.4 3.8-5.1 6.6l-.2.4c-1.5 2.6-4 7.1-6.8 7.2 0 0-5.5.6-6.5-.2-.5-.5-.9-1.1-.7-1.8.2-.4.6-1.2 1.1-2 .7-1.2 1.5-2.5 1.9-3.7.2-.5.4-1.2.7-2 .9-2.5 2-5.9 3.5-8.4 1.8-3.1 10-9.1 17.3-9.1 11.6 0 21 9.4 21 21 0 4-1.1 7.9-3.2 11.2l-.1.2c-.2.3-4.6 6.1-6.5 8.6-.2.3-.6.7-.8 1 .3.3.5.7.7 1.1.2-.3.6-.8 1-1.3 3.9-5.2 6.4-8.4 6.5-8.6l.1-.2c2.3-3.6 3.5-7.7 3.5-11.9 0-12.3-10-22.3-22.2-22.3z" fill="#d0c4ff"/><path d="m96.6 90.2c-.2-.3-.4-.6-.7-.8l-19-22.1-.7 1.2 18.8 21.6c.8.8 1.3 2 1.3 3.2s-.5 2.3-1.3 3.2l-.3.3c-1.8 1.8-4.6 1.7-6.4 0l-12.9-12.6c-.2-.2-.6-.2-.9 0-.2.2-.2.6 0 .9l12.9 12.7c1.1 1.1 2.6 1.7 4.1 1.7s2.9-.6 4.1-1.7l.3-.3c1.1-1.1 1.7-2.5 1.7-4.1 0-1.2-.4-2.3-1-3.2z" fill="#937df2"/></svg>