<svg fill="none" height="153" viewBox="0 0 182 153" width="182" xmlns="http://www.w3.org/2000/svg" xmlns:xlink="http://www.w3.org/1999/xlink"><mask id="a" height="153" maskUnits="userSpaceOnUse" width="151" x="16" y="0"><path d="m16.5039 0h149.6791v152.133h-149.6791z" fill="#fff"/></mask><mask id="b" height="27" maskUnits="userSpaceOnUse" width="35" x="0" y="97"><path d="m0 97.938h34.0255v26.033h-34.0255z" fill="#fff"/></mask><mask id="c" height="27" maskUnits="userSpaceOnUse" width="35" x="0" y="97"><path d="m0 97.938h34.6798v26.033h-34.6798z" fill="#fff"/></mask><mask id="d" height="6" maskUnits="userSpaceOnUse" width="6" x="29" y="118"><path d="m29.4451 118.223h4.5803v5.748h-4.5803z" fill="#fff"/></mask><mask id="e" height="7" maskUnits="userSpaceOnUse" width="7" x="28" y="117"><path d="m28.7905 117.568h5.889v6.403h-5.889z" fill="#fff"/></mask><mask id="f" height="27" maskUnits="userSpaceOnUse" width="35" x="147" y="97"><path d="m147.88 97.938h34.025v26.033h-34.025z" fill="#fff"/></mask><mask id="g" height="27" maskUnits="userSpaceOnUse" width="35" x="147" y="97"><path d="m147.225 97.938h34.68v26.033h-34.68z" fill="#fff"/></mask><mask id="h" height="7" maskUnits="userSpaceOnUse" width="7" x="147" y="117"><path d="m147.88 117.568h5.234v6.403h-5.234z" fill="#fff"/></mask><mask id="i" height="27" maskUnits="userSpaceOnUse" width="126" x="28" y="92"><path d="m28.7905 92.563h124.3235v26.314h-124.3235z" fill="#fff"/></mask><mask id="j" height="16" maskUnits="userSpaceOnUse" width="12" x="102" y="61"><path d="m102.076 61.2954h11.124v14.7941h-11.124z" fill="#fff"/></mask><mask id="k" height="16" maskUnits="userSpaceOnUse" width="13" x="111" y="61"><path d="m111.891 61.2954h11.124v14.7941h-11.124z" fill="#fff"/></mask><mask id="l" height="16" maskUnits="userSpaceOnUse" width="12" x="121" y="61"><path d="m121.706 61.2954h10.47v14.7941h-10.47z" fill="#fff"/></mask><mask id="m" height="16" maskUnits="userSpaceOnUse" width="12" x="130" y="61"><path d="m130.867 61.9497h10.855v14.1398h-10.855z" fill="#fff"/></mask><mask id="n" height="6" maskUnits="userSpaceOnUse" width="13" x="59" y="43"><path d="m59.5444 43.2188h11.7781v5.6436h-11.7781z" fill="#fff"/></mask><mask id="o" height="16" maskUnits="userSpaceOnUse" width="15" x="40" y="61"><path d="m40.6274 61.2954h14.3366v14.7941h-14.3366z" fill="#fff"/></mask><mask id="p" height="12" maskUnits="userSpaceOnUse" width="17" x="52" y="65"><path d="m52.3464 65.2212h16.3584v10.8681h-16.3584z" fill="#fff"/></mask><mask id="q" height="12" maskUnits="userSpaceOnUse" width="11" x="67" y="65"><path d="m67.3965 65.2212h10.4694v10.8681h-10.4694z" fill="#fff"/></mask><mask id="r" height="12" maskUnits="userSpaceOnUse" width="8" x="77" y="65"><path d="m77.2117 65.2212h7.1977v10.8681h-7.1977z" fill="#fff"/></mask><mask id="s" height="16" maskUnits="userSpaceOnUse" width="12" x="83" y="61"><path d="m83.1006 61.2954h11.1237v14.7941h-11.1237z" fill="#fff"/></mask><mask id="t" height="12" maskUnits="userSpaceOnUse" width="11" x="93" y="65"><path d="m93.5698 65.2212h9.8152v10.8681h-9.8152z" fill="#fff"/></mask><g mask="url(#a)"><path d="m165.79 22.4979c0 110.5191-74.5181 129.5231-74.5181 129.5231s-74.5048-15.993-74.5048-129.5231c31.2956 5.797 56.1323-1.6946 74.5176-22.4979 18.3883 20.8033 43.2223 28.2949 74.5053 22.4979z" fill="#041732"/></g><g mask="url(#b)"><path d="m33.8487 123.669h-33.225409l11.064909-12.611-11.064909-12.6142h31.083509z" fill="#a05eb5"/></g><g mask="url(#c)"><path d="m34.1429 123.937h-34.1175094l11.3026094-12.882-11.3026094-12.8821h31.9295094zm-32.92386-.542h32.33336l-2.0959-24.6803h-30.23746l10.82976 12.3433-10.82976 12.34z" fill="#29abe2"/></g><g mask="url(#d)"><path d="m29.478 118.284 4.3708 5.385z" fill="#a05eb5"/></g><g mask="url(#e)"><path d="m33.849 123.938c-.0792 0-.1559-.033-.2096-.1l-4.3733-5.385c-.092-.115-.0767-.287.0409-.381.115-.092.2863-.077.3808.041l4.3708 5.385c.0946.115.0767.286-.0383.378-.0512.041-.1125.062-.1713.062z" fill="#29abe2"/></g><g mask="url(#f)"><path d="m148.082 123.585h33.225l-11.075-12.611 11.075-12.6117h-31.086z" fill="#a05eb5"/></g><g mask="url(#g)"><path d="m181.9 123.856h-34.12l2.188-25.7647h31.93l-11.303 12.8827 11.303 12.882zm-33.53-.542h32.334l-10.83-12.34 10.83-12.3408h-30.238z" fill="#29abe2"/></g><g mask="url(#h)"><path d="m152.69 118.207-4.534 5.283z" fill="#a05eb5"/><path d="m148.156 123.758c-.064 0-.126-.02-.177-.064-.115-.097-.128-.268-.03-.383l4.539-5.281c.097-.115.266-.128.381-.03.112.099.125.268.028.383l-4.537 5.281c-.054.064-.13.094-.204.094z" fill="#29abe2"/></g><path d="m29.478 92.8335h123.184v25.2225h-123.184z" fill="#a05eb5"/><g mask="url(#i)"><path d="m152.941 118.327h-123.7362v-25.764h123.7362zm-123.1866-.541h122.6466v-24.6811h-122.6466z" fill="#29abe2"/></g><g mask="url(#j)"><path d="m103.306 65.1163c.207-.6773.521-1.2677.94-1.7738.419-.5036.946-.8972 1.58-1.1809.634-.2812 1.362-.4243 2.188-.4243.628 0 1.227.0997 1.794.2965.57.1968 1.071.478 1.503.846.429.3681.774.8231 1.03 1.3598.253.5393.381 1.1451.381 1.8122 0 .6697-.11 1.2934-.332 1.7943-.223.4985-.517.9432-.885 1.3292-.365.3885-.779.7386-1.245 1.053-.465.317-.933.6288-1.403.9355-.47.3093-.928.6416-1.372.9969-.445.3527-.839.7668-1.179 1.2396h6.495v2.4027h-10.086c0-.8001.115-1.4978.345-2.0883.228-.5904.539-1.1195.931-1.5847.393-.4652.853-.8972 1.385-1.2908.529-.3936 1.089-.7949 1.677-1.2013.301-.2096.621-.4243.961-.6416.34-.2172.649-.4549.933-.7182.281-.2633.516-.5598.705-.8869.189-.3297.284-.7029.284-1.1221 0-.6697-.194-1.1937-.578-1.5668-.386-.3732-.882-.5624-1.482-.5624-.404 0-.747.0972-1.03.2863-.282.1917-.507.4396-.675.7489-.171.3093-.292.6492-.363 1.025-.072.3732-.11.7438-.11 1.1118h-2.666c-.028-.7872.064-1.5182.274-2.1956z" fill="#a05eb5"/></g><g mask="url(#k)"><path d="m112.712 65.4716c.268-.9125.631-1.646 1.089-2.1981.46-.5496.991-.9458 1.6-1.1809.608-.2377 1.252-.3553 1.932-.3553.683 0 1.345.1176 1.953.3553.608.2351 1.145.6313 1.608 1.1809.465.5521.83 1.2831 1.099 2.1981.268.9125.404 2.0372.404 3.3765s-.136 2.533-.404 3.4583c-.269.9252-.634 1.6639-1.099 2.216-.463.5521-1 .9457-1.608 1.1809-.608.2377-1.26.3553-1.953.3553s-1.324-.1176-1.932-.3553c-.609-.2352-1.14-.6288-1.6-1.1809-.458-.5521-.821-1.2908-1.089-2.216-.269-.9253-.401-2.0781-.401-3.4583 0-1.3777.132-2.464.401-3.3765zm2.423 4.8053c.028.5572.11 1.0965.245 1.6154.138.5189.358.961.66 1.3291.299.3681.731.5521 1.293.5521s1.017-.184 1.324-.5521c.307-.3655.532-.8102.67-1.3291.135-.5189.217-1.0582.243-1.6154.028-.5572.04-1.0352.04-1.4288 0-.2352-.002-.5214-.01-.8563-.007-.3348-.033-.6799-.079-1.0351-.046-.3528-.112-.7055-.197-1.0531-.084-.3476-.212-.6595-.383-.9355-.169-.2761-.386-.4984-.647-.6697-.261-.1712-.583-.2556-.961-.2556s-.698.0844-.951.2556c-.255.1713-.465.3936-.629.6697-.163.276-.291.5879-.383.9355s-.156.7003-.197 1.0531c-.038.3552-.061.7003-.066 1.0351-.008.3349-.01.6211-.01.8563 0 .3936.012.8716.038 1.4288z" fill="#a05eb5"/></g><g mask="url(#l)"><path d="m122.493 65.1163c.21-.6773.524-1.2677.944-1.7738.416-.5036.943-.8972 1.579-1.1809.634-.2812 1.363-.4243 2.188-.4243.626 0 1.227.0997 1.794.2965.57.1968 1.069.478 1.501.846.432.3681.774.8231 1.03 1.3598.255.5393.383 1.1451.383 1.8122 0 .6697-.112 1.2934-.332 1.7943-.225.4985-.516.9432-.884 1.3292-.366.3885-.783.7386-1.245 1.053-.465.317-.933.6288-1.403.9355-.473.3093-.931.6416-1.376.9969-.444.3527-.835.7668-1.175 1.2396h6.494v2.4027h-10.085c0-.8001.115-1.4978.342-2.0883.23-.5904.542-1.1195.933-1.5847s.854-.8972 1.383-1.2908 1.089-.7949 1.679-1.2013c.299-.2096.619-.4243.961-.6416.34-.2172.649-.4549.93-.7182.282-.2633.517-.5598.706-.8869.192-.3297.286-.7029.286-1.1221 0-.6697-.194-1.1937-.577-1.5668-.386-.3732-.882-.5624-1.483-.5624-.404 0-.749.0972-1.03.2863-.281.1917-.506.4396-.677.7489-.169.3093-.292.6492-.363 1.025-.072.3732-.108.7438-.108 1.1118h-2.668c-.026-.7872.066-1.5182.276-2.1956z" fill="#a05eb5"/></g><g mask="url(#m)"><path d="m135.23 64.3192-.549 3.1311.038.0409c.378-.3809.785-.6544 1.217-.8179.432-.1636.922-.2454 1.472-.2454.68 0 1.283.1252 1.805.3732.523.2504.963.5853 1.326 1.0045.358.4217.634.9176.823 1.4876.189.5725.286 1.1783.286 1.8224 0 .708-.138 1.3674-.414 1.9809-.273.6109-.644 1.14-1.106 1.5847-.466.4447-1.005.7898-1.621 1.0326-.613.2454-1.268.3579-1.96.3451-.668 0-1.307-.0869-1.915-.2658-.608-.179-1.147-.4499-1.618-.818-.47-.3655-.846-.823-1.13-1.3674-.281-.547-.426-1.1783-.439-1.9017h2.786c.064.6314.299 1.1323.705 1.5081.407.3731.923.5597 1.549.5597.366 0 .698-.0741.992-.2249s.542-.3476.746-.593c.202-.2428.358-.524.471-.846.112-.3221.166-.6518.166-.9943s-.051-.6901-.156-1.0045c-.105-.317-.261-.5905-.47-.8282-.21-.2351-.461-.4192-.747-.5521-.289-.1303-.621-.1968-1.002-.1968-.496 0-.902.0895-1.216.2658-.312.179-.606.4576-.882.8384h-2.513l1.355-7.6245h7.673v2.3055z" fill="#a05eb5"/></g><path d="m54.3557 51.5002v1.848h-2.0116v4.974c0 .4677.0767.7796.2326.9329.1534.1559.4627.2352.9279.2352.1559 0 .3041-.0077.4447-.0205.1406-.0127.2786-.0332.4064-.0588v2.1394c-.23.0384-.4907.0639-.7745.0767-.2811.0128-.5597.0204-.8307.0204-.4268 0-.8307-.0306-1.2089-.0869-.3809-.0588-.7183-.1738-1.0097-.3425-.2888-.1661-.5188-.4064-.685-.7182-.1712-.3118-.253-.7182-.253-1.2243v-5.9274h-1.664v-1.848h1.664v-3.0109h2.7502v3.0109z" fill="#fff"/><path d="m57.3181 59.1408c.4141.4013 1.0071.6032 1.7841.6032.5521 0 1.0301-.1406 1.4314-.4192.3987-.2786.6441-.5725.7361-.8843h2.418c-.386 1.2038-.9815 2.0652-1.7816 2.5841-.8.5188-1.7687.7795-2.9036.7795-.7872 0-1.4953-.1278-2.1291-.3808-.6339-.2505-1.1681-.6109-1.6052-1.0786-.4396-.4652-.7796-1.0224-1.0173-1.6717-.2377-.6466-.3578-1.3597-.3578-2.1368 0-.7795.1227-1.4518.368-2.0984.2429-.6493.593-1.209 1.0454-1.6819.4499-.4728.9892-.846 1.6154-1.117.6262-.2735 1.3189-.4089 2.0806-.4089.8512 0 1.595.1661 2.2263.4958.6339.3298 1.1527.7745 1.5591 1.3317s.7004 1.1911.8819 1.9042c.1789.7132.2428 1.457.1942 2.234h-7.2232c.0383.8946.2632 1.5438.6773 1.9451zm3.1081-5.2858c-.3272-.363-.8281-.547-1.5004-.547-.4396 0-.8026.0767-1.0939.2249-.2914.1483-.5215.3323-.6978.5521-.1738.2224-.2965.455-.3681.7004-.069.2454-.1125.4677-.1252.662h4.473c-.1278-.7004-.3579-1.232-.6876-1.595z" fill="#fff"/><path d="m64.2705 51.5005h2.7477v10.0502h-2.7477z" fill="#fff"/><path d="m70.203 59.0533c.1227.2121.2811.3885.4754.524.1917.1354.4141.2377.6671.3016.2505.0639.5138.0971.7822.0971.1942 0 .3987-.023.6108-.069.2147-.046.4064-.115.5828-.2122.1738-.0971.3195-.2274.4345-.3885.115-.1635.1738-.368.1738-.6134 0-.4141-.2735-.7259-.8256-.9329-.5469-.2071-1.3112-.4141-2.2927-.6212-.3987-.092-.7898-.1968-1.1706-.322-.3809-.1227-.7208-.2837-1.0173-.4856-.2965-.1994-.5368-.4525-.7157-.7566-.1815-.3042-.2709-.6774-.2709-1.117 0-.6492.1252-1.1809.3757-1.5949.253-.4141.5853-.7413.9994-.9815.4115-.2403.8767-.409 1.393-.5061.5138-.0946 1.0454-.1432 1.5873-.1432s1.0684.0512 1.577.1534c.5112.1048.9662.2786 1.3649.524.4013.2479.7336.5751.9994.984.2633.409.4218.9227.4729 1.5439h-2.6122c-.0409-.5317-.2403-.8921-.6007-1.0787-.3629-.1866-.7872-.2811-1.278-.2811-.1559 0-.3246.0102-.5035.0306-.1815.0179-.3476.0588-.4959.1253-.1457.0639-.2735.1585-.3757.2811-.1048.1227-.1559.2889-.1559.4959 0 .2454.0894.4473.2709.6007.1815.1559.4166.2837.7055.3808.2913.0971.6236.184.9994.2607.3731.0793.754.1636 1.1399.2531.4013.092.7924.2019 1.1732.3297.3809.1303.7183.3016 1.0173.5163.2965.2121.5342.4805.7157.7975.1789.3169.2684.708.2684 1.1757 0 .6595-.1304 1.2141-.3936 1.6614-.2659.4473-.6109.8077-1.0378 1.0787-.4243.2709-.915.4626-1.462.5725-.5496.1099-1.1068.1661-1.6742.1661s-1.1502-.0587-1.7048-.1763c-.5547-.115-1.048-.3093-1.4825-.5828-.432-.2709-.7873-.6313-1.0633-1.0786-.2786-.4448-.4294-1.0071-.455-1.6793h2.6122c0 .2965.0614.5521.1841.7668z" fill="#fff"/><path d="m67.0182 48.809c0 .184-.0358.3603-.1048.529s-.1687.317-.2965.4473c-.1303.1304-.2786.2301-.4473.2991s-.3425.1048-.5265.1048c-.1815 0-.3579-.0358-.5266-.1048-.1661-.069-.3169-.1687-.4447-.2991-.1278-.1303-.2275-.2786-.2991-.4473-.069-.1687-.1022-.345-.1022-.529 0-.1815.0332-.3579.1022-.5266.0716-.1712.1713-.3195.2991-.4498.1278-.1278.2786-.2275.4447-.2991.1687-.069.3451-.1048.5266-.1048.184 0 .3578.0358.5265.1048.1687.0716.317.1713.4473.2991.1278.1303.2275.2786.2965.4498.069.1687.1048.3451.1048.5266z" fill="#fff"/><g mask="url(#n)"><path d="m71.2022 48.8245h-2.1317c0-1.9298-1.5387-3.4761-3.4276-3.4761-1.8863 0-3.425 1.5463-3.425 3.4761h-2.1317c0-3.0876 2.4819-5.6155 5.5593-5.6155 3.0748 0 5.5593 2.5279 5.5593 5.6155z" fill="#a05eb5"/></g><path d="m79.7418 59.0611c.1227.2147.2812.3885.4754.5265.1917.1355.4141.2352.6671.3016.2505.0639.5138.0946.7822.0946.1942 0 .3987-.0204.6109-.0664.2147-.046.4064-.1176.5827-.2147.1738-.0972.3195-.2275.4345-.3886.1151-.161.1739-.3655.1739-.6108 0-.4167-.2735-.7259-.8231-.933-.5495-.207-1.3138-.4166-2.2953-.6236-.3987-.0895-.7898-.1969-1.1706-.3195-.3809-.1227-.7208-.2838-1.0173-.4857s-.5368-.4549-.7157-.7591c-.1815-.3042-.2709-.6748-.2709-1.117 0-.6467.1252-1.1783.3757-1.5924.2531-.4166.5853-.7412.9994-.9815.4115-.2402.8767-.4089 1.393-.5061.5163-.0971 1.0454-.1457 1.5873-.1457s1.0684.0512 1.5771.156c.5112.1048.9661.2786 1.3649.5239.4013.248.7335.5726.9994.9815.2632.409.4217.9228.4728 1.5464h-2.6122c-.0409-.5316-.2403-.892-.6007-1.0786s-.7872-.2812-1.278-.2812c-.1559 0-.3246.0077-.5035.0281-.1815.0205-.3476.0614-.4959.1278-.1457.064-.2735.1585-.3757.2812-.1048.1227-.1559.2888-.1559.4933 0 .2479.0894.4473.2709.6032s.4166.2812.7055.3783c.2914.0997.6236.1866.9994.2633.3731.0767.754.161 1.1399.253.4013.0895.7924.1994 1.1732.3298.3809.1303.7183.3016 1.0173.5137.2965.2147.5342.4805.7157.7975.1789.3169.2684.7106.2684 1.1757 0 .662-.1304 1.2167-.3936 1.664-.2659.4447-.6109.8051-1.0378 1.0761-.4243.2735-.915.4652-1.462.5751-.5495.1099-1.1067.1636-1.6742.1636-.5674 0-1.1502-.0563-1.7048-.1738-.5547-.1176-1.048-.3119-1.4825-.5828-.4294-.2735-.7873-.6339-1.0633-1.0786-.2786-.4473-.4294-1.0097-.455-1.6819h2.6123c0 .2991.0613.5547.1865.7668z" fill="#fff"/><g mask="url(#o)"><path d="m49.1464 61.7886 5.2322 14.0452h-3.195l-1.0582-3.1286h-5.2296l-1.0965 3.1286h-3.0979l5.2909-14.0452zm.1764 8.6162-1.7636-5.1554h-.0384l-1.8224 5.1554z" fill="#a05eb5"/></g><g mask="url(#p)"><path d="m62.0056 75.8334-1.802-6.8271h-.0384l-1.7253 6.8271h-2.8806l-3.2129-10.1703h2.9394l1.8608 6.9037h.0409l1.6844-6.9037h2.7017l1.7253 6.8833h.0383l1.8608-6.8833h2.8602l-3.1925 10.1703z" fill="#a05eb5"/></g><g mask="url(#q)"><path d="m67.8055 68.7917c.0383-.6569.2019-1.2013.4907-1.6333.2863-.432.6518-.7796 1.0966-1.0428.4447-.2608.9431-.4473 1.5003-.5598.5547-.1099 1.1119-.1662 1.6742-.1662.5087 0 1.025.0358 1.5489.1074.5215.0716.9969.2147 1.4288.4243.432.2096.7847.501 1.0582.8741.2735.3732.4115.8691.4115 1.4851v5.2909c0 .4601.0256.8972.0767 1.3189.0537.4192.1457.7336.2761.9432h-2.8218c-.0537-.1585-.0946-.317-.1278-.4831-.0333-.1636-.0563-.3297-.0691-.501-.4421.4601-.9661.7796-1.5668.9636-.6006.184-1.2141.2761-1.8403.2761-.4831 0-.9355-.0588-1.3521-.1764-.4192-.1176-.7847-.3016-1.0991-.5521-.3144-.2479-.5572-.5623-.7336-.9432-.1763-.3808-.2632-.8332-.2632-1.3572 0-.5777.0996-1.0531.3016-1.4262.2044-.3732.4652-.6723.7847-.8946.3195-.2224.685-.3911 1.0965-.501s.8256-.1994 1.2447-.2658c.4192-.0639.8307-.1176 1.2346-.1585.4064-.0384.7642-.0971 1.0786-.1764.3144-.0767.5598-.1917.7438-.3425.1815-.1508.2684-.3706.2556-.6594 0-.3016-.0485-.5419-.1482-.7183-.0972-.1763-.2275-.3144-.3911-.414-.1636-.0972-.3527-.1636-.57-.1943-.2147-.0332-.4473-.0486-.6952-.0486-.5496 0-.979.1176-1.2933.3528-.3144.2351-.4959.6287-.5496 1.1808h-2.7809zm6.4258 2.0652c-.1176.1048-.2633.1866-.4397.2454-.1763.0588-.3655.1074-.57.1483-.2019.0383-.414.0715-.6364.0971-.2224.0281-.4422.0588-.6671.0997-.207.0409-.4141.092-.616.1584-.2019.0665-.3783.1534-.5291.2659-.1482.1099-.2709.2505-.363.4217-.0894.1713-.1354.386-.1354.6492 0 .2633.046.4601.1354.6288.0921.1713.2173.3042.3732.4039.1585.0996.34.1661.5496.207.2096.0383.4243.0588.6466.0588.5496 0 .9713-.092 1.2729-.2761.2991-.184.5214-.4038.6671-.6594.1432-.2556.2301-.5138.2633-.777.0332-.2608.0486-.4703.0486-.6288z" fill="#a05eb5"/></g><g mask="url(#r)"><path d="m80.5012 65.6631v1.8889h.0383c.1329-.3144.3067-.6057.5291-.8741s.478-.4984.7642-.6901c.2889-.1892.5956-.3374.9202-.4422.3272-.1048.6671-.156 1.0199-.156.1814 0 .3859.0307.6083.0972v2.5969c-.1304-.0256-.2888-.0486-.4703-.069-.1841-.0205-.3604-.0307-.5291-.0307-.5087 0-.9406.0869-1.2934.2556-.3527.1712-.6364.4038-.8511.6978-.2173.2965-.3706.6415-.4626 1.0326-.0895.3936-.1355.8205-.1355 1.278v4.5855h-2.7835v-10.1704z" fill="#a05eb5"/></g><g mask="url(#s)"><path d="m91.0036 74.5353c-.3272.5521-.754.9483-1.2831 1.1886-.5291.2428-1.1272.3655-1.7943.3655-.7566 0-1.4237-.1483-1.9988-.4422-.5751-.2965-1.048-.6952-1.4186-1.2013-.3732-.5035-.6543-1.0838-.8435-1.7407-.1891-.6543-.2837-1.3367-.2837-2.0448 0-.7105.0946-1.3419.2837-1.9783.1892-.6339.4703-1.1962.8435-1.6818.3732-.4857.8384-.8742 1.4007-1.1707.5597-.2939 1.2141-.4422 1.9579-.4422.6006 0 1.1732.1278 1.715.3834.5419.2556.9688.6339 1.2832 1.1323h.0383v-5.1145h2.7835v14.0426h-2.6455v-1.2984h-.0383zm-.1176-5.0251c-.0792-.3885-.2121-.7284-.4013-1.0249-.1917-.2939-.4345-.5317-.7361-.7157s-.6799-.276-1.1349-.276c-.4575 0-.8435.092-1.1578.276-.3119.184-.5649.4243-.7541.7259-.1891.3042-.3271.6467-.4115 1.0326-.0843.3886-.1278.7898-.1278 1.2116 0 .3936.046.7872.138 1.1809.0895.3936.2378.7438.4397 1.0505.2019.3092.4575.5572.7642.7489.3067.1891.6748.2837 1.1068.2837.4575 0 .8383-.092 1.1451-.2761.3067-.1814.552-.4268.7361-.7361.1815-.3093.3118-.6594.391-1.0531.0793-.3936.1176-.8.1176-1.2192 0-.4191-.0383-.823-.1176-1.209z" fill="#a05eb5"/></g><g mask="url(#t)"><path d="m96.8109 73.3056c.1253.2172.2837.3936.4805.5316.1969.1355.4218.2377.6748.3042.2556.0664.5215.0997.7949.0997.1943 0 .4013-.023.616-.0716.2147-.0434.4116-.1176.5879-.2147.176-.0997.322-.23.44-.3936.117-.1636.176-.3706.176-.6211 0-.4192-.276-.7336-.8307-.9432-.5572-.2096-1.3291-.4192-2.3234-.6288-.4038-.092-.8-.1993-1.1834-.3246-.386-.1227-.7285-.2888-1.0301-.4933-.299-.2019-.5418-.4575-.7233-.7668-.1841-.3067-.2761-.685-.2761-1.1297 0-.6569.1278-1.1937.3834-1.6129.2531-.4192.5905-.7514 1.0071-.9943.4192-.2402.8895-.4115 1.4109-.5112.524-.0971 1.0582-.1457 1.6077-.1457.5496 0 1.0812.0512 1.5949.156.516.1048.976.2811 1.383.5316.404.2479.741.5802 1.009.9943.266.4115.427.9329.481 1.5643h-2.645c-.041-.5393-.243-.9023-.6088-1.094-.3655-.1891-.7974-.2837-1.2933-.2837-.1585 0-.3272.0102-.5087.0281-.184.0204-.3501.0639-.5009.1278-.1483.0665-.2761.161-.3809.2863-.1048.1252-.1584.2914-.1584.5009 0 .2505.092.4525.276.6109.1815.1559.4217.2837.7157.3834.2914.0972.6288.1866 1.007.2659.3783.0766.7643.1635 1.1553.253.406.092.803.2045 1.186.3348.386.1329.729.3068 1.028.5215.301.2172.541.4856.725.8077.182.322.277.7182.277 1.1885 0 .6697-.136 1.2294-.404 1.6844-.266.4524-.616.8154-1.048 1.0914-.432.2761-.923.4678-1.48.5802-.5549.1099-1.1198.1662-1.6949.1662-.5725 0-1.1629-.0588-1.7227-.1764-.5623-.1176-1.0607-.3144-1.5004-.5904-.437-.2761-.7974-.639-1.076-1.0914-.2812-.4525-.4346-1.0199-.4627-1.7023h2.6455c0 .3016.0613.5623.1866.777z" fill="#a05eb5"/></g><g fill="#fff"><path d="m70.2454 105.186-.9099 8.547h-3.4659l-1.779-16.0313h2.4435l1.3496 12.6373 1.2166-12.6373h2.4333l1.2576 12.7293 1.2984-12.7293h2.2084l-1.7892 16.0313h-3.3432z"/><path d="m77.554 97.7017h2.5151v16.0313h-2.5151z"/><path d="m84.1433 102.118v11.615h-2.2698v-16.0313h3.1593l2.5968 9.6003v-9.6003h2.2391v16.0313h-2.5867z"/><path d="m93.9199 102.118v11.615h-2.2698v-16.0313h3.1593l2.5969 9.6003v-9.6003h2.239v16.0313h-2.5867z"/><path d="m103.973 104.46h3.456v2.29h-3.456v4.693h4.356v2.29h-6.871v-16.0313h6.871v2.2901h-4.356z"/><path d="m115.149 113.733c-.036-.107-.069-.207-.102-.297-.028-.094-.051-.209-.072-.347-.02-.136-.038-.309-.051-.522-.008-.217-.01-.485-.01-.807v-2.515c0-.749-.131-1.273-.389-1.575-.26-.307-.68-.46-1.257-.46h-.869v6.523h-2.515v-16.0313h3.793c1.313 0 2.264.3067 2.852.9201.593.6083.89 1.5312.89 2.7712v1.257c0 1.651-.552 2.735-1.657 3.251.639.261 1.079.683 1.319 1.268.238.588.358 1.304.358 2.147v2.474c0 .397.013.744.041 1.043.033.294.112.593.235.9zm-2.75-13.7412v4.9282h.981c.476 0 .849-.123 1.115-.368.265-.246.398-.688.398-1.329v-1.585c0-.578-.102-.997-.306-1.258-.205-.258-.53-.3882-.972-.3882z"/></g></svg>