<svg enable-background="new 0 0 246 158" viewBox="0 0 246 158" xmlns="http://www.w3.org/2000/svg"><path d="m226.4 93.8c-11.8.5-14.9-7.4-17.4-13.2-.8-1.8-2-3.6-2.9-4.8-4.7-6.4-10.1-4.9-13-3.3 3 2.7 3.1 6.2 3.1 6.2.1 7 .1 29.1-2 33.1 2.2 7.1 9.5 14.8 18.6 18.9 8.4 3.8 22.2-2.5 24.6-3.7l6.2-36c-3.3 1-10.5 2.6-17.2 2.8z" fill="#22f7d2"/><path d="m39.7 75.9c-.9 1.2-1.6 3-2.5 4.8-2.5 5.8-6 13.7-17.8 13.2-6.6-.3-13.4-1.8-16.8-2.5l6.1 35.6c2.5 1.2 16 7.1 24.3 3.4 9.1-4.1 16.8-11.3 19-18.5-2-4-2.1-26.3-2.1-33.2 0-.1.3-3.5 3.3-6.2-2.8-1.5-8.8-3.1-13.5 3.4z" fill="#d0c4ff"/><g fill="#937df2"><path d="m74.6 65.4c6.1 0 11.1-5 11.1-11.1s-5-11.1-11.1-11.1-11.1 5-11.1 11.1 5 11.1 11.1 11.1zm0-20.4c5.1 0 9.3 4.2 9.3 9.3s-4.2 9.3-9.3 9.3-9.3-4.2-9.3-9.3 4.2-9.3 9.3-9.3z"/><path d="m160.7 54.3c0 5.8 4.7 10.5 10.5 10.5s10.5-4.7 10.5-10.5-4.7-10.5-10.5-10.5-10.5 4.7-10.5 10.5zm10.5-8.7c4.8 0 8.7 3.9 8.7 8.7s-3.9 8.7-8.7 8.7-8.7-3.9-8.7-8.7 3.9-8.7 8.7-8.7z"/><path d="m226.4 92.1c-10.6.5-13.5-6.2-16.1-12.1-.8-1.9-1.6-3.7-2.6-5.1-6-8.3-13.3-5.1-16.1-3.4-1.2-.7-2.7-1.2-4.5-1.5-8.9-1.5-57.6-8.7-63.1-9.5v-30.3h18.3v8h25l-9.2-11.6 4.4-5.8 4.4-5.8-23.9-.3-.2-8.3-18.9.2v-5.7h-1.8v59.5c-5 .7-54.2 8-63.2 9.5-1.9.3-3.3.9-4.5 1.5-2.8-1.7-10.1-4.9-16.1 3.4-1 1.4-1.8 3.2-2.6 5.1-2.7 5.9-5.6 12.6-16.2 12.1-7.3-.3-14.8-2-17.6-2.7l-1.5-.3 6.5 38.1.2 1.2.4.2c.5.3 10 5 19 5 2.6 0 5.1-.4 7.3-1.4 9.1-4.1 16.5-11.3 19.2-18.6 2.2 2.2 5.9 5.6 7.7 7.3l1 37.2h1.8l-1.9-72.3h-1.8l.8 32.5c-2.4-2.3-6-5.6-7.5-7.1-1.2-1.5-1.9-17.6-1.7-32.3 0-.2.2-6 7.8-7.2 8.7-1.4 55.2-8.3 62.6-9.4 0 1.7-.3 5.3-2.7 6.4-3.7 1.8-28.7 11.6-29 11.7l-.5.2-6.3 77.3 1.8.1 6.2-76.2c3.7-1.5 25-9.9 28.6-11.5 1-.5 1.7-1.2 2.2-2v89.8h1.8v-89.5c.5.7 1.2 1.4 2.1 1.8 3.5 1.7 24.9 10.1 28.6 11.5l6.2 76.2 1.8-.1-6.3-77.3-.5-.2c-.3-.1-25.3-9.9-29-11.7-2.4-1.1-2.7-4.7-2.7-6.4 7.4 1.1 53.9 8 62.6 9.4 7.5 1.2 7.8 6.9 7.8 7.2.1 14.7-.5 30.8-1.7 32.3-1.5 1.5-5 4.8-7.5 7.1l.8-32.5h-1.8l-1.9 72.3h1.8l1-37.2c2-1.9 5.6-5.2 7.7-7.3 2.7 7.3 10 14.5 19.2 18.6 2.2 1 4.8 1.4 7.3 1.4 8.9 0 18.4-4.7 19-5l.4-.2 6.7-39.2s-11.8 2.6-19.1 2.9zm-176.8-13.3c-.1 6.9-.1 29.1 2 33.1-2.2 7.1-9.4 14.4-18.5 18.5-8.4 3.8-21.9-2.2-24.3-3.4l-6.2-35.6c3.4.8 10.2 2.2 16.9 2.5 11.8.5 15.3-7.4 17.8-13.2.8-1.8 1.6-3.6 2.5-4.8 4.7-6.4 10.1-4.9 13-3.3-3.1 2.6-3.2 6.2-3.2 6.2zm187.6 47.9-.1.3c-2.5 1.2-16 7.1-24.3 3.4-9.1-4.1-16.3-11.3-18.5-18.5 2-4 2-26.2 2-33.1 0-.1-.1-3.6-3.1-6.2 3-1.6 8.4-3.1 13 3.3.9 1.2 1.6 3 2.5 4.8 2.5 5.8 6 13.7 17.8 13.2 6.7-.3 13.4-1.7 16.9-2.5z"/><path d="m170.8 114.9h1.8v43.1h-1.8z"/><path d="m73.3 114.9v43.1h1.8v-43.1z"/></g></svg>