<svg viewBox="0 0 263 390" xmlns="http://www.w3.org/2000/svg"><path d="m121.7 2.3c-5.6.1-11.5 2-15.7 5.6-7.5 6.5-15 13.2-14.8 22 .3 8.8 5.2 13.8 5.2 13.8s3.4 2.6 0 5.2-43.3 28-41.2 80.4c0 0 1 13.6-.5 28.2-1.1 10.4 2.5 23.1 4.7 29.4 0 0 1.1 2.7-1.2 1.1-10.8-6.8-19.7-16.9-27.1-29.6-6.8-12.3-10.7-26.6-10.7-41.8 0-32.2 17.5-60.3 43.3-74.8-35.3 9.9-61.4 43-61.4 82.4s.1 6 .4 8.9c.3 6.8 1 17.6 2.9 21.9 2.9 6.5 2.6 20.5 2.6 22.8s.8 79.1 46.2 78.9c0 0 21.6.5 21.8-8.3.1-7.8-2.1-8.6-4.1-13.1-1.9-4.3-3.4-4.5-2.3-18.3 0 0 0-2.8 1.1-2.8s13.7 37.6 30 57.3 32.7 21.8 45.1 21.8c0 0 23.3 0 23.3-11.7s-10.6-7-10.6-44.1 17.9-35.3 20-26.2 3.9 16.3.3 40.7 6.2 27.2 15.3 27.2 56.8 1.5 65.1-134.9c0 0 1-22-6.2-41 0 0 3.1 36.3-19.5 55.8s-35.5 16.6-35.5 16.6-10.9-.8-15.3 4.7c-4.4 5.4-3.6 9.3-13 6.5-9.3-2.9-9.4-5.2-17.9-4.1s-13.7 2.1-17.1-4.9-7.1-11.5-14.1-12.8-37.8-15.9-37-57.2c.8-38.4 18.2-51.6 18.2-51.6s2.9-3.1 5.7-1.8c2.9 1.3 7.5 1.6 13-3.4s9.1-8.8 18.9-12.2c0 0 6.8-1 6.5-7.8s-5.7-21.5-12.7-25.9c-3.1-1.9-7.2-2.9-11.6-2.8zm23.6 185.7c1.6 0 3.8 1 6.2 1.9 3.5 1.3 11.4.7 14.5.5s5.2 1.1 2.7 4.1c-3.4 4.1-7.5 3.9-12.7 4.3s-10.7-4.7-10.7-4.7c-.3-.5-2.8-3.2-1.6-5.1.4-.6.9-.9 1.6-.9zm-26.5-82.8c6-7.4 9.3-8.3 14.5-8.3s12.4 3.3 14.5 11.4c2.3 8.8 3.5 10.2-4.9 20-6 7.1-16.9 22.5-27.8 12.7-10.9-9.9-6.8-22.9 3.6-35.8zm97.4 13.7c-3.5-8.8-6.4-10.7-11.4-12.3-4.9-1.6-12.8-.5-17.3 6.5-4.9 7.7-6.6 8.4-1.5 20.4 3.6 8.5 9.5 26.8 22.9 20.6 13.4-6.1 13.4-19.8 7.3-35.2zm-57.4 57.9c2.8-4.3 9.2-5.8 13-5.9 4.9-.2 4.8-4.4 4.8-4.4s.3-4.3-17.4-6-18.2 2.8-18.2 2.8-.8 4.2 4 5.2c3.7.8 9.7 3.5 11.7 8.2.4 1.1 1.5 1.2 2.1.1zm83.6-106.4c-3 1-7.6.7-12.5-4.8s-8-9.8-17.5-14.2c0 0-6.6-1.8-5.6-8.5s8.1-20.8 15.5-24.4 20-1.4 26.8 5.9 13.5 14.8 12.3 23.6c-1.2 8.7-6.7 13.1-6.7 13.1-2.6 3.4-12.4 9.3-12.4 9.3z"/><path d="m10.7 319.2h13.2s3.4-.6 4.8 2.9c1.6 4.1 8.1 30.3 8.1 30.3l9.4-13.9s-3.8-19.4 2.9-19.3c8.1.1 12.6 0 12.6 0s3.2-.3 5.2 5.1c2.4 6.3 8.1 28.5 8.1 28.5l13.3-30.4s1.8-3.2 4.8-3.2 5.1 2.2 4.4 4.7c-1.1 3.8-23.1 61.8-23.1 61.8s-1.5 3.5-4.6 3.5-4.4-1.8-6.1-6.1-12.1-32.5-12.1-32.5l-15.8 35.8s-1.2 2.8-3.7 2.8-4-1.3-5.5-4c-1.5-2.8-20-55.8-20-55.8s-3.7-10.2 4-10.2zm97.5 0h13.2s3.4-.6 4.8 2.9c1.6 4.1 8.1 30.3 8.1 30.3l9.4-13.9s-3.8-19.4 2.9-19.3c8.1.1 12.6 0 12.6 0s3.2-.3 5.2 5.1c2.4 6.3 8.1 28.5 8.1 28.5l13.3-30.4s1.8-3.2 4.8-3.2 5.1 2.2 4.4 4.7c-1 3.8-23.1 61.8-23.1 61.8s-1.5 3.5-4.6 3.5-4.4-1.8-6.1-6.1c-1.7-4.2-12.1-32.5-12.1-32.5l-15.8 35.8s-1.2 2.8-3.7 2.8-4-1.3-5.5-4c-1.5-2.8-20-55.8-20-55.8s-3.7-10.2 4-10.2zm97.6 70s-4.5.4-4.5-6.8v-58.9s0-4.4 6.5-4.4h44.4s5.4-.3 5.4 4.9-5 4.7-5 4.7h-26.5s-3.1 0-3.1 3v14.5h20.4s5.5 0 5.5 4.3-4.6 4.5-4.6 4.5h-21.4v28.3s.3 5.8-3.4 5.8c-2.6 0-13.5-.1-13.5 0z"/></svg>