<svg fill="none" height="27" viewBox="0 0 167 27" width="167" xmlns="http://www.w3.org/2000/svg"><g fill="#000"><path clip-rule="evenodd" d="m161.783 10.0354c0 1.4662 1.165 2.6501 2.608 2.6501 1.444 0 2.62-1.1947 2.609-2.6501 0-1.46619-1.165-2.65002-2.609-2.65002-1.443 0-2.608 1.18383-2.608 2.65002zm.299-.0108c0-1.29248 1.037-2.37856 2.309-2.37856 1.273 0 2.31 1.08608 2.31 2.37856 0 1.2924-1.037 2.3785-2.31 2.3785-1.272 0-2.309-1.0861-2.309-2.3785zm3.004 1.401-.716-1.1947h-.481v1.1947h-.321v-2.86726h.92c.481 0 .898.35841.898.84715 0 .42357-.278.69511-.652.80371l.727 1.2273h-.375zm-1.197-2.55229h.567c.352 0 .609.20635.609.52132 0 .31496-.267.52132-.609.52132h-.567z" fill-rule="evenodd"/><path d="m126.963 7.43964c-.085 0-.118.03258-.909.06516-.812.03258-2.341.06517-5.452.06517h-1.443-.877-1.443c-3.1 0-4.64-.03259-5.452-.06517-.781-.03258-.813-.06516-.909-.06516-.363 0-.363.2498-.363.94489v2.81297c0 .152 0 .5213.299.5213.331 0 .395-.1195.93-1.249.353-.78197 1.069-1.92236 5.164-1.95494.427.01086.609.10861.609.79284v14.2277c0 1.1947 0 2.0201-1.507 2.107-.631.0651-1.048.0869-1.048.5213 0 .4561.385.4561.631.4561.577 0 3.014-.1194 3.517-.1194.994 0 2.566.1194 3.549.1194.246 0 .631 0 .631-.4561 0-.4562-.417-.4887-1.058-.5213-1.508-.0869-1.508-.9232-1.508-2.1722v-13.94529c0-.79284.096-.96661.973-.99919 3.752.09775 4.426 1.19469 4.768 1.94408.545 1.1295.599 1.249.93 1.249.3 0 .3-.3693.3-.5213v-2.81297c.032-.70596.032-.94489-.332-.94489z"/><path d="m94.4205 21.7542c-.2672 0-.3314.1195-.8766 1.1947-1.3257 2.6066-3.1858 2.6066-4.5115 2.6066-2.5337 0-3.1644-.3367-3.1644-2.5089v-5.2566c0-.9123.2351-.9123 1.6784-.9123 2.4696 0 3.3141.0326 3.9449 2.3894.1496.5865.3314.7385.5666.7385.3635 0 .3635-.4236.3635-.6082 0-.2498-.0856-1.3142-.0856-1.5314 0-.6733.2139-3.823.2139-4.2465 0-.3367-.1497-.4345-.3315-.4345-.1496 0-.2993.0652-.449.4562-.5452 1.6182-.8125 2.2916-4.1587 2.2916-1.7425 0-1.7425-.2498-1.7425-1.2273v-4.4312c0-1.53136.1176-1.73771 1.6249-1.73771 4.2763 0 5.0033 1.1621 5.3561 1.95491.5452 1.1296.5987 1.249.9301 1.249.2993 0 .2993-.3692.2993-.5213v-2.81294c0-.70596 0-.9449-.3634-.9449-.0856 0-.1176.03259-.8981.06517-.8125.03258-2.3519.06516-5.4522.06516h-1.4433c-2.5658 0-3.8593-.03258-4.5222-.06516-.6628-.03258-.6949-.06517-.759-.06517-.2138 0-.5987 0-.5987.43444 0 .45615.4276.48873 1.0798.52132 1.5074.09774 1.5074.91231 1.5074 2.17218v12.9135c0 1.249 0 2.0853-1.5074 2.1722-.6308.0651-1.0798.0868-1.0798.5213 0 .4561.3956.4561.6308.4561.2138 0 .449-.0325.9301-.0651.481-.0326 1.2294-.0652 2.4695-.0652h.3635c.1817 0 1.5929.0326 3.3141.0652 1.7426.0326 3.8487.0651 5.3882.0651.8766 0 1.1759-.3366 1.208-.9231.0962-1.1296.4276-3.0954.4276-3.4864 0-.2063-.0855-.4887-.3528-.4887z"/><path d="m143.566 21.7542c-.267 0-.332.1195-.877 1.1947-1.325 2.6066-3.186 2.6066-4.511 2.6066-2.534 0-3.165-.3367-3.165-2.5089v-5.2566c0-.9123.235-.9123 1.679-.9123 2.469 0 3.314.0326 3.945 2.3894.149.5865.331.7385.566.7385.364 0 .364-.4236.364-.6082 0-.2498-.086-1.3142-.086-1.5314 0-.6733.214-3.823.214-4.2465 0-.3367-.15-.4345-.331-.4345-.15 0-.3.0652-.449.4562-.546 1.6182-.813 2.2916-4.159 2.2916-1.743 0-1.743-.2498-1.743-1.2273v-4.4312c0-1.53136.118-1.73771 1.625-1.73771 4.277 0 5.003 1.1621 5.356 1.95491.545 1.1296.599 1.249.93 1.249.3 0 .3-.3692.3-.5213v-2.81294c0-.70596 0-.9449-.364-.9449-.085 0-.117.03259-.898.06517-.812.03258-2.352.06516-5.452.06516h-1.443c-2.566 0-3.86-.03258-4.523-.06516-.662-.03258-.694-.06517-.759-.06517-.213 0-.598 0-.598.43444 0 .45615.427.48873 1.08.52132 1.507.09774 1.507.91231 1.507 2.17218v12.9135c0 1.249 0 2.0853-1.507 2.1722-.631.0651-1.08.0868-1.08.5213 0 .4561.395.4561.631.4561.213 0 .449-.0325.93-.0651s1.229-.0652 2.469-.0652h.364c.181 0 1.593.0326 3.314.0652 1.742.0326 3.848.0651 5.388.0651.877 0 1.176-.3366 1.208-.9231.096-1.1296.428-3.0954.428-3.4864 0-.2063-.086-.4887-.353-.4887z"/><path d="m103.903 14.825c-2.459-1.0318-4.244-1.8138-4.244-4.0294 0-1.21638.962-2.9867 3.346-2.95412 2.555.02173 3.1 1.7486 3.475 2.95412.31.9666.427 1.1513.737 1.1513.428 0 .428-.2498.428-.9341 0-2.74774 0-3.03012-.374-3.24734-.428-.21722-2.245-.71681-4.02-.71681-3.9021 0-6.0509 2.49798-6.0509 5.36525 0 3.3125 2.4268 4.529 4.9179 5.6476 2.213 1.0318 4.298 2.2156 4.298 4.6484 0 2.5306-2.427 3.3886-3.71 3.3886-2.181 0-4.2872-1.868-4.8752-4.5941-.0641-.2824-.0962-.5973-.3741-.5973-.3742 0-.3849.4344-.3849.5647-.0214 1.1295.1176 2.4654.1604 2.8673.0855.7711.2031 1.401.5452 1.6617.5559.4018 2.074.9992 4.4686.9992 4.084 0 6.607-2.8999 6.607-6.3645 0-3.5297-3.229-5.0611-4.95-5.8105z"/><path clip-rule="evenodd" d="m21.1677 16.9863c0-5.6259 4.4474-9.92679 10.3487-9.92679 5.6981 0 10.1348 4.27919 10.1455 9.64439 0 6.0495-5.0568 10.2961-10.2311 10.2961-5.324 0-10.2631-4.0511-10.2631-10.0137zm3.5493-.6516c0 5.0285 2.8972 9.8073 6.949 9.8073 4.2122 0 6.4145-4.8114 6.4145-9.3186 0-3.6927-2.1489-8.90589-6.9276-8.90589-3.7204 0-6.4359 4.00769-6.4359 8.41719z" fill-rule="evenodd"/><path d="m19.2433 0c-.0427 0-.0855.0434433-1.2615.0868866-1.1332.0434434-3.4103.0868864-7.9325.0868864h-.95149c-4.30836 0-5.8799-.043443-7.01312-.0868864-1.090452-.0434433-1.133215-.0868866-1.218741-.0868866-.29934 0-.865949 0-.865949.619067 0 .619063.652135.662513 1.56085.749393 2.18091.13033 2.18091 1.32502 2.18091 3.13878v11.92516 6.3862c0 1.4662 0 2.4871-1.86019 2.5957-.78042.076-1.29358.1086-1.29358.6408 0 .5648.48108.5648.78042.5648.70559 0 3.77383-.1521 4.40459-.1521 1.22943 0 3.21791.1521 4.4366.1521.2994 0 .7805 0 .7805-.5648s-.5132-.6082-1.29361-.6408c-1.84949-.1086-1.84949-1.1295-1.84949-2.6717v-6.3102-.4779c0-1.2489 0-1.7485.70559-1.944.4597-.1304 2.46951-.1304 3.75241-.1304 1.0905 0 3.8701 0 4.4794 2.3894.0856.2172.3742 1.3685.4811 1.6834.0749.2173.2459.7277.6949.706.5239-.0217.5239-.5322.5239-.8363l-.1711-2.0744c-.0855-1.0209-.0855-1.7703-.0855-2.1613 0-.6625.1283-3.67097.1283-4.29004 0-.44529-.1283-.72767-.5239-.74939-.3848-.02173-.6093.3584-.6949.70595-.5559 2.29168-1.1759 3.26908-4.7039 3.26908-.6521 0-3.23927 0-3.89141-.0869-.5666-.0868-.69489-.1303-.69489-2.51967v-6.17981c0-2.07441.73766-2.1613 2.2237-2.1613 6.7672 0 7.3338.94489 8.6381 3.88817.1603.36927.3314.87973.8125.87973s.4811-.70595.4811-.83628v-4.681018c-.0214-.608206-.0642-.825422-.7591-.825422z"/><g clip-rule="evenodd" fill-rule="evenodd"><path d="m57.4013 23.7848c.5858 1.0418 1.0028 1.7833 1.836 1.9119.6307.0977.7697.2172.8018.543 0 .315-.2994.3693-.5132.3693h-3.9662c-.5188 0-.6504-.2556-.9475-.8324-.0151-.0294-.0307-.0597-.0468-.0908l-3.6455-6.9726c-.6628-1.3142-.8125-1.4337-2.1702-1.4337-.5132 0-.5773.1847-.5773.706v5.5064c0 1.2816 0 2.1179 1.5074 2.2048.6521.0326 1.0797.0651 1.0797.5213 0 .407-.3472.4041-.5844.4021-.016-.0001-.0315-.0003-.0463-.0003-.3893 0-1.8937-.0563-2.8354-.0916-.4291-.0161-.7413-.0278-.7781-.0278-.2527 0-.972.0289-1.7022.0584-.7527.0303-1.5169.061-1.7937.061-.0142 0-.029.0002-.0443.0003-.2373.0019-.5864.0047-.5864-.4238 0-.4236.449-.4562 1.0797-.4888 1.4754-.1194 1.4754-.9231 1.4754-2.2047v-12.9678c0-1.24902 0-2.08531-1.4754-2.17219-.6521-.03259-1.0797-.06517-1.0797-.48874 0-.43443.1176-.43443 1.1118-.43443.1424 0 .551.02704.9794.05539.4721.03124.9682.06408 1.1588.06408.3948 0 1.5422-.02822 2.7218-.05723 1.2473-.03068 2.5306-.06224 2.9977-.06224 5.3347 0 5.7837 3.72526 5.7837 4.80046 0 3.5841-3.1003 4.3118-4.1266 4.529.0211.0137.0422.0273.0633.0408.3625.2326.7232.4641 1.3799 1.6752l2.9186 5.2566zm-9.2503-8.4168c0 1.0644 0 1.1296 1.5074 1.1296 1.0904 0 4.0624 0 4.0624-3.8122 0-1.1078-.4276-4.3769-4.1586-4.3769-1.3792 0-1.4112.72768-1.4112 1.9224z"/><path d="m76.2919 23.7848c.5859 1.0418 1.0029 1.7833 1.836 1.9119.6307.0977.7697.2172.8018.543 0 .315-.2993.3693-.5132.3693h-3.9662c-.5188 0-.6504-.2556-.9474-.8324-.0152-.0294-.0308-.0597-.0469-.0908l-3.6455-6.9726c-.6628-1.3142-.8125-1.4337-2.1702-1.4337-.5132 0-.5773.1847-.5773.706v5.5064c0 1.2816 0 2.1179 1.5074 2.2048.6521.0326 1.0797.0651 1.0797.5213 0 .407-.3472.4041-.5844.4021-.016-.0001-.0315-.0003-.0463-.0003-.3893 0-1.8937-.0563-2.8354-.0916-.429-.0161-.7413-.0278-.7781-.0278-.2527 0-.972.0289-1.7022.0584-.7526.0303-1.5169.061-1.7936.061-.0143 0-.0291.0002-.0444.0003-.2373.0019-.5864.0047-.5864-.4238 0-.4236.449-.4562 1.0798-.4888 1.4753-.1194 1.4753-.9231 1.4753-2.2047v-12.9678c0-1.24902 0-2.08531-1.4753-2.17219-.6522-.03259-1.0798-.06517-1.0798-.48874 0-.43443.1176-.43443 1.1118-.43443.1424 0 .551.02704.9794.05539.4721.03124.9682.06408 1.1588.06408.3949 0 1.5423-.02822 2.7218-.05723 1.2474-.03068 2.5307-.06224 2.9977-.06224 5.3347 0 5.7837 3.72526 5.7837 4.80046 0 3.5841-3.1003 4.3118-4.1266 4.529.0211.0137.0422.0273.0633.0408.3625.2326.7232.4641 1.3799 1.6752l2.9186 5.2566zm-9.2503-8.4168c0 1.0644 0 1.1296 1.5074 1.1296 1.0905 0 4.0625 0 4.0625-3.8122 0-1.1078-.4277-4.3769-4.1587-4.3769-1.3791 0-1.4112.72768-1.4112 1.9224z"/><path d="m160.642 23.7848c.586 1.0418 1.003 1.7833 1.836 1.9119.63.0977.78.2172.802.543 0 .315-.3.3693-.514.3693h-3.966c-.519 0-.65-.2556-.947-.8324-.015-.0294-.031-.0597-.047-.0908l-3.646-6.9726c-.662-1.3142-.812-1.4337-2.17-1.4337-.513 0-.577.1847-.577.706v5.5064c0 1.2816 0 2.1179 1.507 2.2048.652.0326 1.08.0651 1.08.5213 0 .407-.347.4041-.584.4021-.016-.0001-.032-.0003-.047-.0003-.389 0-1.893-.0563-2.835-.0916-.429-.0161-.741-.0278-.778-.0278-.253 0-.972.0289-1.702.0584-.753.0303-1.517.061-1.794.061-.014 0-.029.0002-.044.0003-.238.0019-.587.0047-.587-.4238 0-.4236.449-.4562 1.08-.4888 1.475-.1194 1.475-.9231 1.475-2.2047v-12.9678c0-1.24902 0-2.08531-1.475-2.17219-.652-.03259-1.08-.06517-1.08-.48874 0-.43443.118-.43443 1.112-.43443.142 0 .551.02704.979.05539.472.03124.969.06408 1.159.06408.395 0 1.542-.02822 2.722-.05723 1.247-.03068 2.531-.06224 2.998-.06224 5.334 0 5.783 3.72526 5.783 4.80046 0 3.5841-3.1 4.3118-4.126 4.529.021.0137.042.0273.063.0408.363.2326.723.4641 1.38 1.6752l2.919 5.2566zm-9.24-8.4168c0 1.0644 0 1.1296 1.508 1.1296 1.079 0 4.062 0 4.062-3.8122 0-1.1078-.428-4.3769-4.159-4.3769-1.379 0-1.411.72768-1.411 1.9224z"/></g></g></svg>