<svg fill="none" height="13" viewBox="0 0 14 13" width="14" xmlns="http://www.w3.org/2000/svg"><path clip-rule="evenodd" d="m1.47786 2.95455c-.817224 0-1.47786-.66241-1.47786-1.47787 0-.815453.661818-1.47668 1.47786-1.47668.81428 0 1.47669.662409 1.47669 1.47668 0 .81546-.66241 1.47787-1.47669 1.47787zm1.47669 10.04545h-2.95455v-8.86364h2.95455zm7.79585 0h2.8405v-4.86495c0-2.38846-.5318-4.2256-3.4095-4.2256-1.38276 0-2.3099.7351-2.68926 1.43237h-.03841v-1.21196h-2.72646v8.87014h2.83991v-4.38809c0-1.157.2275-2.27736 1.70655-2.27736 1.45717 0 1.47667 1.32304 1.47667 2.35181z" fill="#fff" fill-rule="evenodd"/></svg>