<svg viewBox="0 0 165 38.66" xmlns="http://www.w3.org/2000/svg"><g fill="#fff"><path d="m30.35 3.52a19.38 19.38 0 0 1 8 12.4 19.27 19.27 0 0 1 -19 22.74 19 19 0 0 1 -10.5-3.15 19.27 19.27 0 1 1 21.47-32zm-18.82 3.48a34.2 34.2 0 0 0 -9.16 7.88c-2.26 2.83-2.26 6.12 0 8.78a38.32 38.32 0 0 0 6.15 5.86 34.47 34.47 0 0 0 10.59 5.48 21.15 21.15 0 0 0 6.82 1.21 5 5 0 0 0 5-3.21 32.64 32.64 0 0 0 2.68-10.7 37.3 37.3 0 0 0 -1.61-14.76 7.29 7.29 0 0 0 -5-5.06 6.35 6.35 0 0 0 -1.89-.27 12.41 12.41 0 0 0 -2.78.38 35.45 35.45 0 0 0 -10.8 4.41z" fill-rule="evenodd"/><path d="m59.85 18.31-4-.57c-2-.28-2.9-1.11-2.9-2.61 0-1.93 1.51-2.94 4.35-2.94s4.7 1.3 4.92 3.58v.19h3.43v-.23c-.24-3.89-3.42-6.3-8.27-6.3s-7.82 2.23-7.82 5.93c0 3 1.9 4.89 5.35 5.36l4.41.65c2.27.33 3.28 1.24 3.28 2.95 0 2.12-1.42 3.1-4.45 3.1-3.66 0-5.57-1.46-5.83-4.46v-.2h-3.32v.24c.09 4.64 3.28 7.19 9 7.19 5.21 0 8-2.08 8-6 0-3.44-1.89-5.25-6.15-5.88z"/><path d="m69.77 19.76c0-6.37 3.8-10.33 9.92-10.33s9.88 4 9.88 10.33-3.76 10.41-9.88 10.41-9.92-3.99-9.92-10.41zm3.55 0c0 5.08 2 7.45 6.37 7.45 4.31.04 6.31-2.32 6.31-7.4s-2-7.45-6.33-7.45-6.35 2.37-6.35 7.45z" fill-rule="evenodd"/><path d="m103.22 18.31-4-.57c-2-.28-2.89-1.11-2.89-2.61 0-1.93 1.5-2.94 4.34-2.94s4.7 1.3 4.92 3.58v.19h3.41v-.23c-.25-3.89-3.42-6.3-8.28-6.3s-7.82 2.23-7.82 5.93c0 3 1.9 4.89 5.36 5.36l4.41.65c2.26.33 3.28 1.24 3.28 2.95 0 2.12-1.42 3.1-4.46 3.1-3.66 0-5.57-1.46-5.83-4.46v-.2h-3.26v.24c.09 4.64 3.28 7.19 9 7.19 5.22 0 8-2.08 8-6-.02-3.44-1.92-5.25-6.18-5.88z"/><path d="m155.93 27.41c3.23 0 5.19-1.35 5.82-4v-.16h3.25v.24c-.21 1.57-1.48 6.68-9.14 6.68-6.06 0-9.68-3.89-9.68-10.41s3.71-10.33 9.68-10.33c5.57 0 9.18 3.82 9.18 9.72a8.92 8.92 0 0 1 -.08 1.37v.18h-15.36c.26 4.51 2.33 6.71 6.33 6.71zm5.65-9.41c-.2-3.85-2.13-5.79-5.73-5.79s-5.73 1.89-6.17 5.79z" fill-rule="evenodd"/><path d="m129.85 24.71a43.93 43.93 0 0 0 .23 4.73v.23h-3.28v-.19c-.1-1.16-.21-2.3-.25-3.43-.84 1.72-2.8 4.12-7.17 4.12-4.12 0-6.22-2.29-6.22-5.85a5.51 5.51 0 0 1 3.94-5.73 9 9 0 0 1 3-.53h6.51v-2.54c0-2.25-1.41-3.24-4.59-3.24-2.44 0-4 .72-4.77 2.17a4.74 4.74 0 0 0 -.45 1.56h-3.57a6.72 6.72 0 0 1 .94-3.14c1.35-2.2 4-3.44 7.72-3.44 5.1 0 8 2.22 8 6.08zm-9.85 2.62h.68a6.18 6.18 0 0 0 5.87-5.59v-.94h-6.74a3.43 3.43 0 0 0 -3.5 3.49c.01 3 3.12 3.04 3.69 3.04z" fill-rule="evenodd"/><path d="m135.67 9.5v-2.25a5.42 5.42 0 0 1 5.42-5.36h5a0 0 0 0 1 0 0v2.82h-4.65a2.43 2.43 0 0 0 -2.4 2.38v2.41h6v2.75h-6v17h-3.3v-17c-1 0-2.09.08-3.41.21h-.26v-2.46a17.32 17.32 0 0 1 3.66-.48z"/></g></svg>