<svg fill="none" height="12" viewBox="0 0 15 12" width="15" xmlns="http://www.w3.org/2000/svg"><path clip-rule="evenodd" d="m13.3605.3135c.645.1725 1.1535.681 1.326 1.326.3135 1.17.3135 4.3605.3135 4.3605s0 3.1905-.3135 4.3605c-.1725.645-.6802 1.1535-1.326 1.326-1.17.3135-5.8605.3135-5.8605.3135s-4.6905 0-5.8605-.3135c-.645-.1725-1.1535-.681-1.326-1.326-.3135-1.17-.3135-4.3605-.3135-4.3605s0-3.1905.3135-4.3605c.1725-.645.681-1.1535 1.326-1.326 1.17-.3135 5.8605-.3135 5.8605-.3135s4.6905 0 5.8605.3135zm-2.8605 5.6865-4.5-2.598v5.196z" fill="#fff" fill-rule="evenodd"/></svg>