<svg enable-background="new 0 0 132.5 20" height="19.25" viewBox="0 0 130.3 19.25" width="129.8" xmlns="http://www.w3.org/2000/svg"><g clip-rule="evenodd" fill-rule="evenodd"><g fill="#293e40"><path d="m31.7 5.862c-1.4 0-2.6.5-3.6 1.3v-1.1h-3.4v12.9h3.5v-8.2c.5-.7 1.7-1.6 3.2-1.6.5 0 1 .1 1.4.2v-3.3c-.4-.1-.8-.2-1.1-.2"/><path d="m1.6 14.96c.9.8 2.3 1.3 3.5 1.3.9 0 1.7-.5 1.7-1.1 0-2-6.3-1.3-6.3-5.4 0-2.5 2.4-4 4.9-4 1.7 0 3.5.6 4.4 1.3l-1.6 2.5c-.7-.4-1.5-.9-2.5-.9s-1.7.4-1.7 1.1c0 1.7 6.3 1 6.3 5.5 0 2.5-2.4 4-5.1 4-1.8 0-3.7-.6-5.2-1.7z"/><path d="m23.2 12.36c0-3.6-2.5-6.6-6.1-6.6-3.8 0-6.3 3.2-6.3 6.7 0 4.1 2.9 6.7 6.7 6.7 2 0 4-.8 5.3-2.3l-2-2c-.6.7-1.8 1.5-3.2 1.5-1.8 0-3.3-1.3-3.5-3.1h8.9c.2-.2.2-.5.2-.9zm-8.8-1.5c.2-1.2 1.4-2.3 2.8-2.3s2.4 1.1 2.6 2.3z"/><path d="m48.3 6.6-5.9 12.9h-2.4l-5.9-12.9h3.5l3.6 7.9 3.5-7.9z" transform="translate(-.3 -.5379)"/><path d="m50.9-.03788c1.3 0 2.3 1 2.3 2.2 0 1.3-1 2.2-2.3 2.2s-2.2-1-2.2-2.2c0-1.3.9-2.2 2.2-2.2"/><path d="m49.2 6.062h3.5v12.9h-3.5z"/><path d="m66.9 16.26c-1.5 2-3.4 2.9-5.8 2.9-4 0-6.9-3-6.9-6.7 0-3.8 3-6.7 6.9-6.7 2.3 0 4.2 1.1 5.4 2.6l-2.3 2.1c-.7-.9-1.7-1.5-2.9-1.5-2 0-3.5 1.6-3.5 3.5 0 2 1.4 3.5 3.5 3.5 1.4 0 2.5-.8 3.1-1.7z"/><path d="m79.4 16.86c-1.3 1.5-3.3 2.3-5.3 2.3-3.8 0-6.7-2.6-6.7-6.7 0-3.6 2.4-6.7 6.3-6.7 3.5 0 6.1 3 6.1 6.6 0 .4 0 .7-.1 1h-9c.2 1.8 1.7 3.1 3.5 3.1 1.4 0 2.6-.8 3.2-1.5zm-3.2-6c-.1-1.1-1.1-2.3-2.6-2.3-1.4 0-2.6 1.1-2.8 2.3z"/><path d="m81.1 18.96v-12.9h3.3v1.1c1-.8 2.2-1.3 3.6-1.3 1.8 0 3.4.8 4.5 2.1.8 1 1.4 2.3 1.4 4.5v6.6h-3.5v-6.9c0-1.3-.3-2-.8-2.4-.5-.5-1.1-.8-2-.8-1.4 0-2.6.9-3.2 1.6v8.4z"/></g><path d="m102.8 5.762c-4.2 0-7.5 3.3-7.5 7.5 0 2.2.9 4.2 2.3 5.6.5.5 1.4.5 2 .1.8-.7 2-1.1 3.2-1.1 1.3 0 2.3.4 3.2 1.1.6.5 1.4.4 2-.2 1.4-1.4 2.3-3.3 2.3-5.5-.1-4.1-3.4-7.5-7.5-7.5m-.1 11.4c-2.3 0-3.8-1.7-3.8-3.8s1.5-3.8 3.8-3.8 3.8 1.7 3.8 3.8-1.5 3.8-3.8 3.8" fill="#81b5a1"/><path d="m109.7 6.6h3.4l2.8 7.4 2.8-7.4h2.9l2.7 7.4 2.8-7.4h3.5l-5.1 12.9h-2.6l-2.8-7.3-2.7 7.3h-2.6z" fill="#293e40" transform="translate(-.3 -.5379)"/></g></svg>