<svg height="402" overflow="hidden" width="1189" xmlns="http://www.w3.org/2000/svg" xmlns:xlink="http://www.w3.org/1999/xlink"><clipPath id="a"><path d="m73 93h1189v447h-1189z"/></clipPath><clipPath id="b"><path d="m74 94h1187v446h-1187z"/></clipPath><clipPath id="c"><path d="m74 94h1187v446h-1187z"/></clipPath><clipPath id="d"><path d="m74-524h1187v1680h-1187z"/></clipPath><g clip-path="url(#a)" transform="translate(-73 -93)"><g clip-path="url(#b)"><g clip-path="url(#c)"><g clip-path="url(#d)" fill="#e50043" transform="translate(1.172108 27.542611)"><path d="m204.706 895.395c14.138 0 19.123 8.554 19.123 18.903 0 7.796-4.407 19.222-18.963 19.222-12.902 0-19.422-8.913-19.422-18.584-.02-11.805 7.338-19.541 19.262-19.541" transform="matrix(1 0 0 1.00006 74 -523.411)"/><path d="m330.987 941.775c-77.049 0-115.573-76.829-115.573-145.962 0-65.144 34.756-157.946 127.837-157.946 9.77 0 20.319 1.077 29.69 4.526 1.795.658.459 2.772.459 2.772s-1.535 2.532-3.45 4.566c-.977 1.057-4.127 4.746-6.979 4.587-20.797-1.097-35.473 3.23-40.997 5.703-20.498 9.192-32.582 22.113-42.712 39.501-15.752 27.039-22.153 60.738-22.153 98.804 0 59.043 27.856 119.122 77.069 119.122 54.137 0 79.741-67.019 79.741-124.785 0-65.344-26.92-104.965-65.245-104.965-16.111 0-28.295 4.107-44.107 11.984-1.037.518-4.308 1.355-2.353-2.393 4.566-8.814 17.667-29.651 58.285-29.651 69.651 0 88.714 73.041 88.714 124.845.02 76.391-49.791 149.292-118.226 149.292z" transform="matrix(1 0 0 1.00006 74 -523.411)"/><path d="m1133.56 759.582c-52.06-5.444-79.38 61.117-79.66 61.695l.24-4.108c-.36-4.367 2.07-38.504.28-52.183-.24-1.855-1.52-8.654-7.14-6.561-9.81 3.649-27.42 13.759-27.42 20.28 0 5.044.36 15.533.4 19.78.18 19.801-.64 30.19-.64 30.19-.32 3.888-.44 7.557-3.77 16.271-3.85 10.05-9.37 19.422-17.165 29.272-20.598 23.709-35.932 29.113-52.164 29.113-29.75 0-38.783-29.292-41.555-41.695-.339-1.556.638-1.595 1.695-1.635 44.885-1.496 79.003-24.726 79.003-60.24 0-19.92-12.124-42.831-45.005-42.831-45.823 0-67.558 43.669-70.708 81.854-.02.26-.06.419-.06.419-16.969-5.364-28.774-15.613-28.774-15.613-1.375-1.276-1.495-2.752-1.296-4.407.818-6.54 4.208-42.074.937-57.966-1.136-5.503-4.446-7.178-7.816-7.178-5.224 0-14.477 6.021-19.92 9.93-10.409 7.457-13.879 15.334-13.44 22.891.638 11.107 3.569 26.939 15.474 42.094.837 1.077 1.475 2.253 1.455 3.35-.02 1.794-3.21 11.246-3.828 13.28-6.062 19.402-17.847 53.699-33.5 53.699-7.079 0-36.371-27.099-32.443-123.49.16-3.729.419-7.318.519-10.548.1-3.131-1.216-5.424-3.589-5.304-.439.02-1.197 0-2.573.598-5.782 2.513-22.273 12.921-27.836 16.451-1.356.857-1.954 1.734-2.433 3.07-.658 1.875-.399 5.664-.399 6.361.1 13.42 2.134 54.577 2.134 54.577-2.473 29.451-26.959 57.328-40.838 61.675-14.775 4.626-17.368-11.905-17.986-15.115-1.794-9.252-1.874-18.823-2.073-28.275-.3-13.539.299-25.643.398-39.163.04-5.404 2.194-42.592 1.237-51.725-.2-1.894-.419-3.449-1.835-4.586-1.256-.997-3.35-1.057-5.184-.119-6.501 3.369-20.459 10.548-26.9 15.114-2.831 2.014-2.931 5.145-2.931 6.122-.02 10.648 0 20.738.02 31.027.02 28.554-2.114 34.277-2.114 34.277-7.397 26.68-37.447 53.918-56.331 54.178-22.173.299-29.99-28.056-34.018-43.091-.02-.1.2-.359.658-.758 19.861-17.428 63.031-53.519 64.367-135.294.459-27.637-4.745-69.572-43.768-69.572-49.013 0-64.407 70.09-64.407 135.634 0 33.14 4.506 57.467 5.503 64.387.04.219.08.658.16 1.216-2.931 2.752-16.451 11.625-30.808 17.089-.877.339-1.934.737-2.771 1.116-1.037.459-1.496.957-2.633 3.829-1.714 4.347-4.107 11.346-6.899 17.208-.259.539-.578 1.237-.698 1.615-.219.678.2 1.097 1.276.858 20.898-4.766 43.65-18.086 46.72-20.399 3.27 10.09 17.887 53.739 54.676 53.739 32.722 0 64.926-33.121 72.284-46.441h.099c1.775 16.431 11.207 46.162 37.887 46.162 15.992 0 41.535-13.779 66.081-54.198.319-.498.399-.658.439-.598 3.789 9.492 20.279 54.357 49.193 54.357 38.584 0 60.817-80.698 62.592-86.162.778.459 12.981 8.575 35.573 13.061.18.579 2.592 69.253 66.64 71.266 56.491 1.775 84.588-53.858 84.588-53.858 0 12.064.04 39.083.08 40.199.16 4.327.06 7.917 4.31 9.811 1.11.499 4.48 1.635 12.72 1.635 5.44 0 11.68-.877 13.34-1.515 3.09-1.217 3.39-4.307 3.65-8.076.1-1.675.12-32.881.08-34.895-.08-4.866-.08-12.463 1.07-21.057 1.64-12.124 9.04-68.136 63.83-67.318.4 0 11.49-15.055 17.55-23.689 1.71-2.433 3.39-5.065 3.39-7.697 0-.917-.54-1.755-1.12-2.054-1.95-.997-5.48-1.276-6.1-1.336zm-587.059-79.442c14.816 0 17.647 21.097 17.647 45.643 0 41.017-14.696 83.37-43.45 108.993 0 0-3.489-21.356-3.489-54.057 0-31.207 4.606-100.579 29.292-100.579zm356.311 160.359c.519-20.478 7.917-58.704 37.249-58.704 14.815 0 21.475 10.768 20.618 23.909-.957 14.855-15.414 34.337-55.992 36.331-1.117.059-1.915-.12-1.875-1.536z" transform="matrix(1 0 0 1.00006 74 -523.411)"/><path d="m132.124 893.68c.458-6.142-1.296-10.828-4.467-14.357-5.284-5.903-14.058-10.588-16.57-12.024-12.5027-7.179-25.5236-12.862-34.9753-17.727-6.3609-3.27-12.2034-7.338-15.9521-11.605-6.1815-6.979-9.1127-15.853-9.1127-26.222 0-25.124 17.687-49.631 58.7441-52.921 3.051-.239 11.545-.638 20.399.778 6.859 1.097 16.031 3.37 26.021 8.275 1.755.857 4.706 2.453 6.96 3.988.578.379 1.455 1.037 1.954 1.775.339.498.159 1.037-.06 1.376-.479.757-.937 1.276-1.196 1.535-4.507 4.566-12.264 11.924-15.334 13.599-.339.18-.958.618-1.955.539-.717-.06-1.575-.599-2.053-.878-.938-.578-3.37-2.153-4.148-2.612-9.412-5.543-19.262-7.537-25.982-7.537-21.356.02-27.0789 11.206-28.036 18.404-.4786 3.61-.7179 12.643 8.5145 19.542 3.6091 2.692 13.2205 7.737 16.7695 9.292 14.796 6.54 35.354 14.855 44.766 27.876 5.942 8.216 8.594 16.93 8.594 25.584 0 13.001-7.477 28.813-22.094 39.521-11.705 8.574-25.044 12.164-43.0904 12.164-10.4686 0-27.5374-2.573-40.6979-8.076-2.1934-.917-7.7568-3.29-12.5225-6.7-.2193-.16-2.9312-2.054-2.7118-4.347.1196-1.296.7776-2.612 2.2133-4.168 2.3929-2.612 10.0698-8.773 12.7817-10.568.4985-.339.9571-.498 1.5952-.558.7976-.08 1.5354.259 1.6152.299 19.8604 10.668 34.0578 14.098 44.2072 14.098 14.038.02 25.025-7.657 25.823-18.345z" transform="matrix(1 0 0 1.00006 74 -523.411)"/><path d="m659.522 723.909c0 10.349-8.953 18.744-19.98 18.744s-19.98-8.395-19.98-18.744 8.953-18.744 19.98-18.744 19.98 8.395 19.98 18.744z" transform="matrix(1 0 0 1.00006 74 -523.411)"/></g></g></g></g><path d="m284.40585 369.72763h620.18829v80.734566h-620.18829z" fill="#ff0080" fill-rule="evenodd" opacity="0" stroke="#3673c6" stroke-width=".15"/></svg>