<?xml version="1.0" encoding="UTF-8"?>
<svg id="Layer_1" xmlns="http://www.w3.org/2000/svg" version="1.1" viewBox="0 0 953.4 384">
  <!-- Generator: Adobe Illustrator 29.5.1, SVG Export Plug-In . SVG Version: 2.1.0 Build 141)  -->
  <defs>
    <style>
      .st0, .st1 {
        fill: #e30234;
      }

      .st1 {
        fill-rule: evenodd;
      }

      .st2 {
        fill: none;
        stroke: #e30234;
        stroke-miterlimit: 10;
        stroke-width: 11px;
      }
    </style>
  </defs>
  <path class="st1" d="M79.2,339c2.4,0,5.3-.2,7.3-1.8,1.6-1.3,2.4-3.3,2.8-5.5l32.1-81.7c.9-5.8,1.4-11.9-.6-18.1-.4-1.3-.8-2.1-1.4-3.2l-40.1-69-1-1.4c-3.7-4-9.3-3-11.7,2.7L1,327.6c-1.9,5-1.4,9,4.3,10.7,2.2.7,4.8.8,7.2.8l66.7-.2h0Z"/>
  <path class="st1" d="M214.7,202.7l11.8-2.5,6.3-2,6.1-2.5,5.8-3,5.5-3.4,5.2-3.8,4.8-4.2,4.5-4.6,4.1-4.9,3.7-5.2,3.3-5.5,2.8-5.8,2.4-6,1.9-6.2,1.4-6.4.9-6.6.4-7.8-.4-7.6-1.1-7.4-1.8-7.2-2.4-6.9-3-6.6-3.6-6.3-4.1-5.9-4.6-5.6-5.1-5.1-5.5-4.7-5.9-4.2-6.3-3.7-6.6-3.1-6.9-2.5-7.2-1.9-7.4-1.3-10.3-.7H54.3c-11.3,0-21.7,1.6-14.3,15.7l34.8,58.7c3.8,4.7,6.8,4.9,12.3,5h119.5c4.9,0,8.9,4,8.9,9s-4,8.9-8.9,8.9l-107.8.4c-6,1.9-6.2,7.3-3.1,12.7l103.1,179.1c3.9,6.6,6.6,8.1,13.6,8.1l73.4-.2c3.5-.9,5-5,3.1-8.5l-73.9-127.9h0Z"/>
  <path class="st0" d="M761.4,372.8c-99.8,0-181-81.2-181-181S661.6,10.9,761.4,10.9s181,81.2,181,181-81.2,181-181,181h0ZM761.4,21.7c-93.8,0-170.1,76.3-170.1,170.1s76.3,170.1,170.1,170.1,170.1-76.3,170.1-170.1S855.2,21.7,761.4,21.7h0Z"/>
  <path class="st0" d="M912.3,188.8c5.1-11.8,3.2-25.9-5.8-35.3-27.5-24.1-67.1-.9-91.3,19.6-4.7,4-18.2,17.7-18.2,17.6s59.3-86-35.6-147.1,0,0,0,0h0c-94.8,61.1-35.6,147.1-35.6,147.1,0,0-13.5-13.6-18.2-17.6-24.2-20.5-63.9-43.7-91.3-19.6-9,9.4-10.9,23.5-5.8,35.3,5.2,14.4,13.7,27.5,19.4,41.7,3.6,7.9,3.2,14.8-7.1,13.9,4.3,15.3,28.3,35.1,41.4,21,10.8-11.6,38.7-7,36,7.4-2.3,12.1-14.2,20.3-24.4,27.4,18,.9,30.1-5.9,37.1-15.6,3.7-5.2,5.1-14,11.8-15.5,4.1-.9,8.7,2.1,8.2,9.3-.8,10.9-6.6,18.1-17.3,28.8,13.8,10.2,31.9,23.6,45.7,33.7s0,0,0,0c13.8-10.1,31.9-23.5,45.7-33.7-10.7-10.6-16.5-17.9-17.3-28.8-.5-7.2,4-10.2,8.2-9.3,6.7,1.5,8.1,10.4,11.8,15.5,7.1,9.7,19.1,16.5,37.1,15.6-10.2-7.1-22.1-15.3-24.4-27.4-2.7-14.4,25.2-19,36-7.4,13.1,14.1,37.1-5.7,41.4-21-10.4.9-10.8-6-7.1-13.9,5.7-14.1,14.3-27.3,19.4-41.7h0ZM689.4,213.2h-15.5c-2.1,0-3.9.9-5.3,2.3-1.4,1.4-2.2,3.2-2.2,5.3v21.3h-10.2v-21.3c0-4.9,2-9.3,5.2-12.5,3.2-3.2,7.6-5.2,12.4-5.3h15.7v10.3h0ZM704,242.1h-10.8v-39h10.8v39ZM753.1,227.6h-26v-7.8h15.6c0-.4,0-1.1-.3-1.9-.3-.7-.6-1.1-1.1-1.6-1.1-1.1-2.9-2.2-5.3-2.8-1.6-.4-3.5-.7-5.4-.7-3,0-5.6.7-7.6,1.7-2,1.1-3.3,2.5-4.1,4.1-.5,1.1-.8,2.3-.8,3.8,0,2.2.6,3.9,1.6,5.3,1,1.4,2.5,2.5,4.6,3.2,1.4.5,3.1.8,5.1.8h23.5v10.3h-23.5c-4.5,0-8.7-1-12.2-3-3.5-2-6.2-5-7.8-8.7-1-2.4-1.6-5.1-1.6-7.9s.7-5.8,1.9-8.3c1.2-2.5,3-4.7,5.1-6.4,4.2-3.5,9.8-5.2,15.8-5.2s6.2.4,9,1.3c2.8.9,5.4,2.1,7.6,3.9,1.5,1.2,2.8,2.6,3.8,4.3,1.3,2.2,2.1,4.9,2.1,7.7v7.8h0ZM788.7,242.1l-19.3-15.1h-1.1v14.8h-10.8v-56.9h10.8v31.9h1l18-14.1h16.2s-24,19.2-24,19.2l25.8,20.2h-16.6s0,0,0,0ZM843.1,227.6h-26v-7.8h15.6c0-.4,0-1.1-.3-1.9-.3-.7-.6-1.1-1.1-1.6-1.1-1.1-2.9-2.2-5.3-2.8-1.6-.4-3.4-.7-5.4-.7-3,0-5.6.7-7.6,1.7-2,1.1-3.3,2.5-4.1,4.1-.5,1.1-.8,2.3-.8,3.8,0,2.2.6,3.9,1.6,5.3,1,1.4,2.5,2.5,4.6,3.2,1.4.5,3.1.8,5.1.8h23.5v10.3h-23.5c-4.5,0-8.7-1-12.2-3-3.5-2-6.2-5-7.8-8.7-1-2.4-1.6-5.1-1.6-7.9s.7-5.8,1.9-8.3c1.2-2.5,3-4.7,5.1-6.4,4.2-3.5,9.8-5.2,15.8-5.2s6.2.4,9,1.3c2.8.9,5.4,2.1,7.6,3.9,1.5,1.2,2.8,2.6,3.8,4.3,1.3,2.2,2.1,4.9,2.1,7.7v7.8h0ZM880.1,213.2h-15.5c-2.1,0-3.9.9-5.3,2.3-1.4,1.4-2.2,3.2-2.2,5.3v21.3h-10.2v-21.3c0-4.9,2-9.3,5.2-12.5,3.2-3.2,7.6-5.2,12.4-5.3h15.7v10.3Z"/>
  <path class="st2" d="M430.4,10.9v361.9"/>
</svg>