<svg viewBox="0 0 452.16 159.59" xmlns="http://www.w3.org/2000/svg"><path d="m198.62 92.03-32.63-52.25h-14.86v79.72h16.09v-51.8l32.73 51.8h14.76v-79.72h-16.09z" fill="#2d2c30"/><path d="m272.77 67.64a25.57 25.57 0 0 0 -9.27-6.08 35.88 35.88 0 0 0 -24.3 0 25.62 25.62 0 0 0 -9.26 6.08 26.71 26.71 0 0 0 -5.88 9.71 38.11 38.11 0 0 0 -2.06 12.9q0 15 7.66 23t21.64 8a32.86 32.86 0 0 0 12.09-2.12 25.16 25.16 0 0 0 9.27-6.14 27.22 27.22 0 0 0 5.88-9.77 38.43 38.43 0 0 0 2-13 39.47 39.47 0 0 0 -2-12.9 26.21 26.21 0 0 0 -5.77-9.68zm-11.54 36.36q-3.27 4.8-9.93 4.8t-10-4.75q-3.23-4.74-3.23-13.79t3.28-13.62q3.27-4.68 9.93-4.68t9.93 4.68q3.27 4.69 3.28 13.62t-3.26 13.74z" fill="#2d2c30"/><path d="m303.18 70.32v-9.61h-15.09v58.78h15.54v-33.72c0-6.49 4.9-9.65 9.62-11a26.94 26.94 0 0 1 9.66-.9v-13.16c-.74-.15-16.09-.34-19.73 9.61z" fill="#2d2c30"/><path d="m363.93 107.5a30.82 30.82 0 0 1 -3.16.16 7.27 7.27 0 0 1 -4.88-1.61c-1.26-1.09-1.89-3.15-1.89-6.2v-26h13.32v-13.08h-13.32v-15.51h-15.53v15.51h-10.66v13.11h10.65v26.31q0 10.82 4.6 15.4t14.15 4.58a46.21 46.21 0 0 0 5.83-.4 51.51 51.51 0 0 0 7.37-1.74l-3.32-11.15a18.9 18.9 0 0 1 -3.16.62z" fill="#2d2c30"/><path d="m422.17 65.68a18.27 18.27 0 0 0 -7.49-4.63 34.7 34.7 0 0 0 -11.32-1.62q-10.87 0-17.31 4.08t-8 13.23l14.21 1.33c.88-4.68 4.4-7 10.53-7a12 12 0 0 1 6.94 2q2.94 2 2.94 7.37v2.9l-7.44.34a87.81 87.81 0 0 0 -10.92 1.12 34.93 34.93 0 0 0 -9.71 3 18.1 18.1 0 0 0 -7 5.92 16.69 16.69 0 0 0 -2.67 9.82 18.2 18.2 0 0 0 1.56 7.87 15.09 15.09 0 0 0 4.16 5.42 17.12 17.12 0 0 0 6.1 3.12 26.68 26.68 0 0 0 7.38 1q6.77 0 11-2.46a30.35 30.35 0 0 0 7.72-6.36v7.37h14.64v-36.85a33.87 33.87 0 0 0 -1.21-9.65 18.11 18.11 0 0 0 -4.11-7.32zm-9.6 30.82a11.57 11.57 0 0 1 -4.77 9.93 15.93 15.93 0 0 1 -9.76 2.8 8.36 8.36 0 0 1 -5.55-1.68 5.66 5.66 0 0 1 -2-4.57 10.35 10.35 0 0 1 .55-3.47 5.88 5.88 0 0 1 2.17-2.73 13.82 13.82 0 0 1 4.61-2 38.67 38.67 0 0 1 7.88-1l6.87-.33z" fill="#2d2c30"/><path d="m436.63 39.79h15.53v79.71h-15.53z" fill="#2d2c30"/><g fill="#009639"><path d="m3.32 6.65a3.33 3.33 0 0 0 -3.32 3.35v139.61a3.33 3.33 0 1 0 6.65 0v-139.61a3.33 3.33 0 0 0 -3.33-3.35z"/><path d="m29.92 6.65a3.33 3.33 0 0 0 -3.33 3.35v139.61a3.33 3.33 0 1 0 6.65 0v-139.61a3.33 3.33 0 0 0 -3.32-3.35z"/><path d="m43.22 26.6a3.33 3.33 0 0 0 -3.33 3.33v73.14a3.33 3.33 0 0 0 6.65 0v-73.14a3.33 3.33 0 0 0 -3.32-3.33z"/><path d="m69.81 53.2a3.32 3.32 0 0 0 -3.32 3.32v73.14a3.33 3.33 0 1 0 6.65 0v-73.14a3.32 3.32 0 0 0 -3.33-3.32z"/><path d="m56.52 39.9a3.33 3.33 0 0 0 -3.33 3.32v73.14a3.33 3.33 0 1 0 6.65 0v-73.14a3.32 3.32 0 0 0 -3.32-3.32z"/><path d="m83.11 6.65a3.33 3.33 0 0 0 -3.32 3.35v139.61a3.33 3.33 0 1 0 6.65 0v-139.61a3.33 3.33 0 0 0 -3.33-3.35z"/><path d="m109.71 6.65a3.33 3.33 0 0 0 -3.32 3.35v139.61a3.33 3.33 0 1 0 6.65 0v-139.61a3.33 3.33 0 0 0 -3.33-3.35z"/><path d="m96.41 0a3.32 3.32 0 0 0 -3.32 3.32v152.94a3.33 3.33 0 1 0 6.65 0v-152.94a3.33 3.33 0 0 0 -3.33-3.32z"/><path d="m16.62 0a3.33 3.33 0 0 0 -3.33 3.32v152.94a3.33 3.33 0 1 0 6.65 0v-152.94a3.32 3.32 0 0 0 -3.32-3.32z"/></g></svg>