<svg enable-background="new 0 0 197 58" viewBox="0 0 197 58" xmlns="http://www.w3.org/2000/svg"><g fill="#00ace9"><path d="m49.4 4.5h.7c.4 0 .6-.1.7-.2.2-.1.2-.2.2-.4 0-.1 0-.2-.1-.3s-.1-.2-.3-.2c-.1 0-.3-.1-.6-.1h-.7v1.2zm-.6 2.1v-3.7h1.2c.4 0 .8 0 1 .1s.4.2.5.4.2.4.2.5c0 .3-.1.5-.3.7s-.5.3-.8.3c.1.1.2.1.3.2.2.1.3.4.6.7l.5.7h-.7l-.5-.5c-.3-.5-.5-.7-.6-.9-.1 0-.3-.1-.5-.1h-.4v1.6zm1.5-4.8c-.5 0-1 .1-1.4.4-.5.2-.8.6-1.1 1.1s-.4.9-.4 1.4.1 1 .4 1.4c.3.5.6.8 1.1 1.1s.9.4 1.4.4 1-.1 1.4-.4.8-.6 1.1-1.1.4-.9.4-1.4-.1-1-.4-1.4c-.3-.5-.6-.8-1.1-1.1-.4-.3-.9-.4-1.4-.4m0-.6c.6 0 1.2.1 1.7.4.6.3 1 .7 1.3 1.3s.5 1.1.5 1.7-.2 1.2-.5 1.7c-.3.7-.7 1.1-1.3 1.4s-1.1.5-1.7.5-1.2-.2-1.7-.5c-.6-.3-1-.7-1.3-1.3s-.5-1.1-.5-1.7.2-1.2.5-1.7c.3-.6.7-1 1.3-1.3.5-.4 1.1-.5 1.7-.5"/><path d="m96.6 20.8c.3 0 .5.2.5.5v23.1c0 .3-.2.5-.5.5h-1.9c-.5 0-.8-.1-1.1-.6l-12.7-18.9v19c0 .3-.2.5-.5.5h-2.3c-.3 0-.5-.2-.5-.5v-23.1c0-.4.2-.5.5-.5h2.2c1.1 0 1.3.2 1.8.9l11.6 17.5v-17.9c0-.4.2-.5.5-.5z"/><path d="m105.6 20.8c.3 0 .5.2.5.5v23.1c0 .3-.2.5-.5.5h-2.3c-.3 0-.5-.2-.5-.5v-23.1c0-.4.2-.5.5-.5z"/><path d="m127.3 20.8c.3 0 .5.2.5.5v1.9c0 .3-.2.5-.5.5h-12.1v8.2h11.1c.3 0 .5.2.5.5v1.8c0 .3-.2.5-.5.5h-11.1v7.3h12.1c.3 0 .5.2.5.5v1.9c0 .3-.2.5-.5.5h-14.9c-.3 0-.5-.2-.5-.5v-23.1c0-.3.2-.5.5-.5z"/><path d="m135.8 23.5v18.7h6c4.9 0 6.6-2.8 6.6-9.4 0-6.5-1.9-9.3-7.1-9.3zm15.9 9.3c0 8.6-2.7 12.2-9.9 12.2-2.8 0-6.5-.1-8.7-.2-.4 0-.5-.1-.5-.4v-23c0-.4.1-.4.5-.5 2.3-.2 5.9-.2 8.7-.2 7.2-.1 9.9 3.6 9.9 12.1"/><path d="m162.6 25.1-2.6 9.4h8l-2.5-9.4c-.4-1.5-.5-1.7-1.6-1.7-.9 0-.9.3-1.3 1.7m6-.7 5.4 20c.1.4 0 .5-.4.5h-2.5c-.3 0-.3-.1-.4-.5l-2-7h-9.6l-2 7c-.1.4-.1.5-.4.5h-2.5c-.4 0-.4-.1-.4-.5l5.6-20c.9-3.3 1.5-3.7 4.4-3.7 3.4-.1 3.9.4 4.8 3.7"/><path d="m194.5 20.8c.5 0 .6.3.4.7l-7.3 10.8 7.9 11.8c.4.5.1.7-.3.7h-2.4c-.5 0-.6-.2-.9-.5l-6.2-9.3-6.1 9.3c-.3.4-.4.5-.9.5h-2.5c-.4 0-.7-.2-.4-.7l7.9-11.8-7.3-10.8c-.3-.4-.1-.7.4-.7h2.4c.5 0 .7.2.9.5l5.5 8.3 5.5-8.3c.2-.3.4-.5.9-.5z"/><path d="m8.9 39.3c-2.9-5.3.3-9.2 7-12 0 0 .3-.9.5-1.6s.3-1.1.3-1.1c-11.5 2.6-18.3 7.9-14.6 14.6 4.3 7.7 21.9 14.7 39 17.2 4.3.6 12.9 1.3 13.2.9.2-.3-4.4-.6-7.4-1-16.9-2.4-33.8-9.2-38-17"/><path d="m66.6 30.3c-4.3-7.8-20.4-14.5-36.9-17.1 0 0-.3.4-.6.8-.2.3-.6.8-.6.8 15.1 3 27.5 8.5 31.4 15.5 3.6 6.5-2.9 12-13.5 14.6-2.6.6-5.2 1-7.4 1.3-4.4.5-7.3.5-7.5.7-.1.3 1.9.2 2.9.2 20.1 0 37.5-7.1 32.2-16.8"/><path d="m21.3 12.5-.2.4c-.2.5-.3.7-.3.7-4.5-.7-8.4-.8-8.4-1.1 0-.2 2.2-.2 4.4-.2s4.5.2 4.5.2"/><path d="m45.5 21.4c2.4 9.4 2.4 14.9 2.7 14.9.4 0 .5-8.3-.3-13.8 0 0-.5-.2-1.1-.5-.6-.4-1.3-.6-1.3-.6"/><path d="m22.9 25.1c9-2.1 14.3-1.9 14.3-2.3s-8.9-.2-13.6.5c0 0-.2.4-.4.8-.1.5-.3 1-.3 1"/><path d="m13.8 57.5c.3.1.8-4.8 1.2-6.9 0 0-.2-.1-.6-.3s-.6-.3-.6-.3c-.1 1.4-.4 7.4 0 7.5"/><path d="m46.9 16s-1.1-.4-1.8-.6-1.5-.5-1.5-.5c-2.5-5.5-6.2-8.1-9-7.3-7.7 2.4-16.2 20.3-18.8 36.6 0 0 .1 0-.5-.4s-.8-.6-.8-.6c1.9-18.1 9.1-36.4 17.1-41.5 7.5-4.8 12.8 4.1 15.3 14.3"/></g></svg>