<svg fill="none" height="75" viewBox="0 0 250 75" width="250" xmlns="http://www.w3.org/2000/svg" xmlns:xlink="http://www.w3.org/1999/xlink"><clipPath id="a"><path d="m14 21h222.993v34.6934h-222.993z"/></clipPath><g clip-path="url(#a)"><path d="m43.382 48.7199c-1.6611-.0026-3.2985-.3942-4.781-1.1434-1.4825-.7493-2.7689-1.8353-3.7562-3.1711-.9874-1.3358-1.6481-2.8842-1.9294-4.5213-.2812-1.6371-.1752-3.3173.3097-4.906.4849-1.5888 1.3351-3.0419 2.4826-4.2429 1.1474-1.2011 2.5602-2.1167 4.1252-2.6735 1.5649-.5569 3.2385-.7395 4.8868-.5332 1.6482.2063 3.2252.7957 4.6046 1.7211.3635.2654.6102.6612.6884 1.1045.0782.4432-.0182.8995-.269 1.2733s-.6365.636-1.0763.7316c-.4399.0957-.8996.0175-1.2831-.2183-1.1987-.8063-2.6135-1.2306-4.0581-1.2172s-2.8513.4639-4.0349 1.2923c-1.1835.8284-2.0885 1.9957-2.5958 3.3484-.5072 1.3527-.593 2.8273-.2459 4.2296.347 1.4024 1.1106 2.6668 2.1902 3.6268 1.0796.9599 2.4245 1.5705 3.8578 1.7513 1.4334.1807 2.8878-.0768 4.1719-.7387s2.3377-1.6971 3.0221-2.9694c.2192-.4058.5906-.708 1.0325-.84.442-.132.9183-.0831 1.3242.1361.4058.2192.708.5906.84 1.0325.132.442.0831.9183-.1361 1.3242-.9134 1.689-2.2665 3.0997-3.9159 4.0828-1.6495.983-3.5341 1.5019-5.4543 1.5016z" fill="#f39200"/><path d="m43.335 42.608c-.6732.002-1.3384-.1451-1.9479-.4308-.6095-.2856-1.1482-.7027-1.5773-1.2213s-.7381-1.1258-.9046-1.778c-.1666-.6522-.1866-1.3332-.0587-1.994.1279-.6609.4006-1.2852.7985-1.8282.3979-.5429.9111-.991 1.5028-1.312.5916-.321 1.247-.5069 1.9191-.5445s1.3441.0741 1.9679.3272c.3809.1542.6849.4534.8452.8318.1602.3784.1636.8049.0094 1.1858s-.4534.6849-.8318.8452-.805.1637-1.1859.0094c-.228-.0919-.4756-.1247-.7198-.0953-.2441.0294-.4769.1199-.6767.2633s-.3601.3349-.4661.5568c-.106.2218-.1542.4669-.1402.7124s.0898.4835.2204.6919c.1306.2083.3117.3803.5265.5.2149.1197.4564.1832.7023.1845.2459.0014.4882-.0594.7043-.1767.1691-.0911.3183-.2151.4388-.3647s.2098-.3218.2628-.5064c.1174-.394.3865-.7252.7481-.9208s.7861-.2396 1.1801-.1222.7252.3865.9208.7481.2396.7861.1222 1.1801c-.2789.9403-.854 1.7654-1.6396 2.3525-.7857.5871-1.7399.9048-2.7206.9059z" fill="#1a1a27"/><path d="m42.8641 55.6934c-15.6327 0-27.9223-15.4632-28.4403-16.1224-.3247-.414-.4716-.94-.4085-1.4624.0632-.5223.3312-.9981.7452-1.3228s.94-.4717 1.4623-.4085c.5223.0631.9982.3312 1.3229.7451.1177.146 11.6351 14.5969 25.3184 14.5969 11.3008 0 21.1278-9.8646 24.2684-13.3773-3.1453-3.5127-12.9676-13.3585-24.2684-13.3585-5.1418 0-10.5521 2.0059-16.0753 5.9706-.2118.1518-.4514.2604-.7052.3196s-.5167.0679-.7738.0254c-.2571-.0424-.5033-.135-.7246-.2726-.2213-.1375-.4133-.3174-.5651-.5291-.1518-.2118-.2604-.4514-.3197-.7052-.0592-.2537-.0678-.5167-.0254-.7738s.1351-.5033.2726-.7246c.1376-.2213.3174-.4133.5292-.5651 6.206-4.4685 12.3932-6.7287 18.3873-6.7287 15.6328 0 27.9224 15.4632 28.4403 16.1224.2742.3492.4232.7803.4232 1.2243s-.149.8751-.4232 1.2243c-.5227.6592-12.8122 16.1224-28.4403 16.1224z" fill="#1a1a27"/><g fill="#f39200"><path d="m85.0442 41.073c.4085.412.8971.7357 1.4357.9512.5386.2154 1.1157.318 1.6956.3013.7625.0038 1.5159-.1653 2.2037-.4944.556-.2361 1.0636-.573 1.4973-.9935l.4709-.4709 2.4061 2.6322c-.0565.0847-.1413.1977-.2543.339-.2387.2621-.4952.5075-.7675.7345-.4042.3542-.8409.6695-1.3043.9418-.5852.3169-1.2065.562-1.8505.7298-.7778.2221-1.5831.3331-2.392.3296-1.1175.023-2.2285-.1766-3.2681-.5873s-1.9871-1.0242-2.7872-1.8047c-.7847-.7306-1.4106-1.6149-1.8385-2.598s-.6488-2.0438-.6488-3.1159c0-1.0722.2209-2.1329.6488-3.1159.4279-.9831 1.0538-1.8675 1.8385-2.5981.8004-.7799 1.748-1.3926 2.7876-1.8025s2.1505-.6086 3.2677-.5848c.7961-.0064 1.5889.1014 2.3543.3202.6425.172 1.2586.4302 1.8317.7675.4408.2705.8625.571 1.2619.8994.2875.2252.5482.4827.777.7675l.2448.3108-2.5238 2.6321-.1695-.2213c-.1457-.1679-.303-.3252-.4709-.4709-.2509-.2198-.5185-.4197-.8005-.598-.3446-.2022-.7131-.3604-1.0971-.4708-.4455-.1368-.9089-.2066-1.3749-.2072-.8653.0093-1.7089.2721-2.4265.7558-.7175.4838-1.2775 1.1672-1.6107 1.9659-.3332.7986-.4249 1.6774-.2639 2.5277.161.8502.5677 1.6346 1.1698 2.2562z"/><path d="m110.061 30.276-5.471 9.8552v5.4762h-4.163v-5.4762l-5.471-9.8552h4.4921l3.0649 5.9094 3.061-5.9094z"/><path d="m111.578 45.6074v-15.3314h6.898c1.371-.0679 2.722.36 3.804 1.2055.44.3297.799.7557 1.05 1.2453s.386 1.03.396 1.5799c0 .4102-.068.8177-.203 1.2054-.109.3312-.277.6404-.494.9135-.182.217-.379.4215-.589.6121-.151.139-.318.2592-.499.3578l-.202.1036.292.1272c.228.1079.448.2322.659.3719.304.1879.584.4125.833.6687.277.3019.5.6491.66 1.0265.195.4451.295.9264.292 1.4126-.009.6072-.153 1.2049-.424 1.7486-.27.5437-.66 1.0195-1.14 1.392-1.127.9292-2.557 1.4103-4.016 1.3514zm4.162-12.04v2.618h2.298c.379.0208.751-.1077 1.036-.3578.242-.254.376-.5911.376-.9418 0-.3506-.134-.6878-.376-.9417-.285-.2502-.657-.3787-1.036-.3579zm2.825 8.7581c.217.0079.434-.0272.638-.1031.203-.076.39-.1913.549-.3395.145-.1432.259-.3137.338-.5016.078-.1879.119-.3895.119-.5932 0-.2036-.041-.4052-.119-.5931-.079-.188-.193-.3584-.338-.5016-.159-.1476-.346-.2622-.55-.3374-.203-.0751-.42-.1093-.637-.1005h-2.825v3.07z"/><path d="m139.043 42.0994v3.508h-12.04v-15.3314h11.824v3.5032h-7.666v2.4062h5.914v3.296h-5.914v2.618z"/><path d="m141.746 30.276h7.228c.734-.0254 1.467.0951 2.155.3546.687.2594 1.317.6526 1.852 1.1569.513.4812.919 1.0657 1.19 1.715s.401 1.3486.382 2.0519c.005.5822-.086 1.1611-.268 1.714-.15.4637-.372.9008-.659 1.2949-.232.303-.491.585-.772.8428-.192.1846-.407.343-.641.4709l-.287.1601 3.174 5.5845h-4.37l-2.632-4.8217h-2.19v4.8075h-4.162zm8.193 4.1625c-.323-.2945-.75-.4501-1.187-.4332h-2.825v3.0559h2.825c.217.0088.434-.0254.637-.1006.204-.0751.391-.1898.55-.3373.145-.1428.259-.3129.338-.5004.078-.1875.119-.3888.119-.592 0-.2033-.041-.4045-.119-.592-.079-.1875-.193-.3576-.338-.5004z"/></g><path d="m163.001 41.073c.408.412.897.7357 1.435.9512.539.2154 1.116.318 1.696.3013.762.0033 1.516-.1657 2.204-.4944.556-.2361 1.063-.573 1.497-.9935l.471-.4709 2.406 2.6322c-.056.0847-.141.1977-.25.339-.239.263-.497.5084-.772.7345-.401.3553-.837.6706-1.299.9418-.586.3153-1.207.5603-1.851.7298-.778.2221-1.583.3331-2.392.3296-1.117.023-2.228-.1766-3.268-.5873s-1.987-1.0242-2.787-1.8047c-.785-.7306-1.411-1.6149-1.839-2.598s-.648-2.0438-.648-3.1159c0-1.0722.22-2.1329.648-3.1159.428-.9831 1.054-1.8675 1.839-2.5981.8-.7799 1.748-1.3926 2.787-1.8025 1.04-.4099 2.151-.6086 3.268-.5848.796-.0069 1.589.101 2.354.3202.645.1711 1.263.4293 1.837.7675.44.2716.861.572 1.262.8994.286.2251.545.4827.772.7675l.25.3108-2.524 2.6321c-.043-.0565-.099-.1318-.174-.2213-.146-.1684-.303-.3258-.471-.4709-.251-.2198-.519-.4197-.801-.598-.344-.2022-.713-.3604-1.097-.4708-.445-.1368-.909-.2066-1.375-.2072-.866.0072-1.711.2687-2.43.7521-.719.4833-1.28 1.1673-1.614 1.9668-.333.7995-.425 1.6794-.262 2.5304.162.851.571 1.6356 1.175 2.2563z" fill="#1a1a27"/><path d="m188.578 45.6074h-4.158v-5.9141h-5.579v5.9141h-4.163v-15.3314h4.163v5.6975h5.579v-5.6975h4.158z" fill="#1a1a27"/><path d="m204.004 42.0994v3.508h-12.04v-15.3314h11.823v3.5032h-7.661v2.4062h5.891v3.296h-5.891v2.618z" fill="#1a1a27"/><path d="m210.86 41.073c.408.412.897.7357 1.435.9512.539.2154 1.116.318 1.696.3013.762.0033 1.516-.1657 2.204-.4944.556-.2362 1.063-.573 1.497-.9935l.471-.4709 2.406 2.6322c-.057.0847-.141.1977-.25.339-.241.2617-.498.5071-.772.7345-.896.8073-1.978 1.3799-3.15 1.6669-.778.2221-1.583.3331-2.392.3296-1.118.0235-2.229-.1759-3.268-.5866-1.04-.4107-1.988-1.0244-2.787-1.8054-.785-.7306-1.411-1.615-1.839-2.598-.428-.9831-.649-2.0438-.649-3.1159 0-1.0722.221-2.1329.649-3.116.428-.983 1.054-1.8674 1.839-2.598.8-.7801 1.747-1.393 2.787-1.8029s2.151-.6085 3.268-.5844c.796-.0069 1.589.1009 2.354.3202.644.172 1.262.4302 1.837.7675.44.2716.861.572 1.262.8994.286.2251.545.4826.772.7675l.245.3107-2.519 2.6322-.175-.2213c-.146-.1673-.303-.3246-.471-.4709-.252-.2176-.52-.4174-.8-.598-.345-.2014-.713-.3595-1.097-.4709-.446-.1361-.909-.2059-1.375-.2071-.866.0072-1.711.2687-2.43.752-.719.4834-1.28 1.1673-1.614 1.9669-.333.7995-.425 1.6794-.263 2.5304.163.851.571 1.6355 1.176 2.2563z" fill="#1a1a27"/><path d="m226.695 41.6615v3.9459h-4.158v-15.3314h4.158v5.9094l5.038-5.9094h4.822l-5.476 6.3473 5.914 8.9841h-4.841l-3.828-5.8058z" fill="#1a1a27"/></g></svg>