<svg fill="none" height="53" viewBox="0 0 299 53" width="299" xmlns="http://www.w3.org/2000/svg"><path clip-rule="evenodd" d="m22.8026.522903c5.5797 0 10.5271 1.083157 14.8421 3.249467 4.315 2.16632 7.6628 5.22904 10.0807 9.22553 2.3807 3.9591 3.5711 8.5532 3.5711 13.7449s-1.1904 9.7857-3.5711 13.7449c-2.3807 3.9591-5.7285 7.0218-10.0807 9.2255-4.315 2.1663-9.2624 3.2494-14.8421 3.2494h-22.8026v-52.439697zm-13.13104 44.147997h12.68464c3.8314 0 7.1793-.747 10.1179-2.2037 2.9015-1.4566 5.1334-3.5856 6.6957-6.2748 1.5623-2.7266 2.3435-5.864 2.3435-9.4496s-.7812-6.7604-2.3435-9.4496c-1.5623-2.7266-3.7942-4.8182-6.6957-6.2749-2.9014-1.45664-6.2865-2.20364-10.1179-2.20364h-12.68464zm278.09444 8.217c-4.575-4.0338-10.564-6.4616-17.111-6.4616s-12.536 2.4278-17.111 6.4616h-11.234l.26-.3735 7.44-13.7448 11.569-21.4017 5.579 10.2713-6.323 11.6906c3.124-.9338 6.398-1.4193 9.82-1.4193s6.733.5229 9.857 1.4567l-3.571-6.6484-.744-1.3819-2.566-4.7435-2.976-5.4905-5.58-10.2713 2.232-4.10856 3.385-6.237486 28.048 52.028846.26.3735zm-118.105-.4855c-4.575-4.0338-10.527-6.4616-17.111-6.4616-6.547 0-12.536 2.4278-17.111 6.4616h-11.234l.261-.3735 7.439-13.7449 11.569-21.4017 5.58 10.2713-6.324 11.6907c3.125-.9338 6.398-1.4194 9.82-1.4194 3.423 0 6.733.4856 9.858 1.4567l-3.311-6.1254v-.0374l-.744-1.3819-3.236-5.9761-2.567-4.7435-5.579-10.2713 2.231-4.10851 3.385-6.23749 28.048 52.0289.26.3735zm-71.0855.4855-10.6387-15.3136h-.0744l-5.5425-7.9182h3.1618c4.2406 0 7.4397-.9338 9.6344-2.7266 2.1947-1.8301 3.2734-4.4073 3.2734-7.7315 0-3.3241-1.0787-5.9013-3.2734-7.6941-2.1947-1.79284-5.3938-2.68924-9.6344-2.68924h-17.7808l-5.7657-8.217056h23.9557c4.5382 0 8.4812.747006 11.8291 2.241016 3.348 1.49401 5.914 3.66032 7.7 6.42424 1.786 2.80124 2.678 6.12544 2.678 9.97254 0 3.9591-.967 7.3206-2.864 10.1966-1.897 2.8386-4.65 4.9676-8.2208 6.3495l12.0148 17.2185zm89.3875-44.14794v-8.217057h48.73v8.217057h-19.529v44.14794h-9.672v-44.14794z" fill="#000" fill-rule="evenodd"/></svg>