<svg viewBox="0 0 239 52.7" xmlns="http://www.w3.org/2000/svg"><path d="m54.7 51.4c-1.5 0-2.8-.6-3.9-1.7s-1.7-2.6-1.7-4.4v-27.4c0-1.7.6-3.1 1.7-4.1 1.2-1 2.5-1.5 3.9-1.5h27.9c1.5 0 2.8.5 3.9 1.5 1.2 1 1.7 2.4 1.7 4.1v27.4c0 1.7-.6 3.2-1.7 4.4-1.2 1.2-2.5 1.7-3.9 1.7zm2.2-7.8h23.5v-23.6h-23.5z"/><path d="m103.9 51.4h-7.8v-33.5c0-1.7.6-3.1 1.7-4.1 1.2-1 2.5-1.5 3.9-1.5h27.4v7.8h-25.3v31.3z"/><path d="m137 0h7.8v51.4h-7.8z"/><path d="m158.4 51.4c-1.5 0-2.8-.6-3.9-1.7-1.2-1.2-1.7-2.6-1.7-4.4v-11.7c0-1.7.6-3.1 1.7-4.1 1.2-1 2.5-1.5 3.9-1.5h21.8v7.8h-19.6v7.8h23.5v-23.5h-31.4v-7.8h33.5c.9 0 1.7.2 2.6.7.9.4 1.6 1.1 2.2 2s.9 1.9.9 3v27.4c0 1.7-.6 3.2-1.7 4.4-1.2 1.2-2.5 1.7-3.9 1.7h-27.9z"/><path d="m205.4 51.4c-1.5 0-2.8-.6-3.9-1.7-1.2-1.2-1.7-2.6-1.7-4.4v-45.3h7.8v43.6h23.5v-23.5h-19.6v-7.8h21.8c.9 0 1.7.2 2.6.7.9.4 1.6 1.1 2.2 2s.9 1.9.9 3v27.4c0 1.7-.6 3.2-1.7 4.4-1.2 1.2-2.5 1.7-3.9 1.7h-28z"/><path d="m42.7 15.7-5.6-5.2-15.8 15.5-15.7-15.5-5.6 5.2 15.7 15.9-15.7 15.4 5.6 5.7 15.7-15.5-5.6-5.6 5.6-5.6 5.6 5.6-5.6 5.6 15.8 15.5 5.6-5.7-15.7-15.4z"/></svg>