<svg enable-background="new 0 0 24 24" viewBox="0 0 24 24" xmlns="http://www.w3.org/2000/svg"><path d="m8 16.9s-1.6 0-3.5 0-3.5-1.6-3.5-3.6v-7.6c0-2 1.6-3.6 3.6-3.6h14.5c2 0 3.6 1.6 3.6 3.6v7.6c0 2-1.6 3.6-3.6 3.6h-6.2" style="fill:none;stroke:#ccbaf2;stroke-width:2;stroke-linecap:round;stroke-linejoin:round;stroke-miterlimit:10"/><path d="m8 16.9v5l5.1-5" style="fill:none;stroke:#ccbaf2;stroke-width:2;stroke-linecap:round;stroke-linejoin:round;stroke-miterlimit:10"/><path d="m11.6 5.4c.2-.5.6-.5.8 0l.7 1.4c.2.5.8.9 1.3 1l1.6.1c.5.1.6.4.3.8l-1.1 1.1c-.4.4-.6 1.1-.5 1.6l.3 1.5c.1.5-.2.7-.7.5l-1.4-.7c-.5-.2-1.2-.2-1.7 0l-1.4.7c-.5.2-.8 0-.7-.5l.3-1.5c.1-.5-.1-1.2-.5-1.6l-1.1-1.1c-.4-.3-.3-.7.2-.8l1.5-.2c.5-.1 1.1-.5 1.3-1z" fill="#ccbaf2"/></svg>