<svg height="91.5" viewBox="0 0 91.5 91.5" width="91.5" xmlns="http://www.w3.org/2000/svg" xmlns:xlink="http://www.w3.org/1999/xlink"><clipPath id="a"><path d="m0 0h91.5v91.5h-91.5z"/></clipPath><g style="clip-path:url(#a);fill:none;stroke:#8c7ade;stroke-linecap:round;stroke-linejoin:round;stroke-width:3.5"><path d="m44.695 34.518a22.167 22.167 0 0 0 2.14-9.222v-15.896l-20.247-9.025-20.247 9.025v15.9c0 5.144 2.2 12.022 8.567 17.91 7.505 6.946 11.68 7.445 11.68 7.445s2.128-.253 6.081-2.928" transform="translate(19.162 1.133)"/><path d="m19.741 46.775-5.474-12.923a5.489 5.489 0 0 1 -.414-2.634l-.72-16.92a5.323 5.323 0 0 0 -10.642.261l-.4 28.154a17.593 17.593 0 0 0 7.232 14.68l6.805 4.959h23.317v-14.069c-.648-1.532-5.273-3.765-6.588-4.778l-6.749-4.223-.426-.555-3.487-8.233a5.529 5.529 0 0 0 -8.1-2.474v.008" transform="translate(6.305 27.64)"/><path d="m36.734 28.029v-.008a5.529 5.529 0 0 0 -8.1 2.474l-3.487 8.233-.426.555-6.749 4.223c-1.315 1.014-5.944 3.25-6.592 4.778v14.068h23.314l6.806-4.959a17.593 17.593 0 0 0 7.232-14.68l-.4-28.154a5.321 5.321 0 0 0 -10.641-.259l-.724 16.92a5.489 5.489 0 0 1 -.414 2.634l-5.47 12.923" transform="translate(34.375 27.64)"/><path d="m0 0v12.066" transform="translate(7.541 14.634)"/><path d="m12.066 0h-12.066" transform="translate(1.508 20.667)"/><path d="m0 0v12.066" transform="translate(83.959 6.588)"/><path d="m12.066 0h-12.066" transform="translate(77.926 12.621)"/><path d="m0 0v12.066" transform="translate(57.816 36.785)"/><path d="m12.066 0h-12.066" transform="translate(51.783 42.818)"/></g></svg>