<svg height="91.501" viewBox="0 0 96.269 91.501" width="96.269" xmlns="http://www.w3.org/2000/svg" xmlns:xlink="http://www.w3.org/1999/xlink"><clipPath id="a"><path d="m0 0h95.269v91.5h-95.269z"/></clipPath><g fill="none" stroke="#8c7ade" stroke-linecap="round" stroke-linejoin="round" stroke-width="3.3"><g clip-path="url(#a)" transform="translate(0 .001)"><path d="m36.912 5.417a17.266 17.266 0 0 0 -12.255-5.05h-.127a17.4 17.4 0 0 0 -12.415 29.449 14.309 14.309 0 0 1 3.977 9.984v7.26a3.171 3.171 0 0 0 2.426 3.076v.964a3.357 3.357 0 0 0 3.351 3.355h5.548a3.358 3.358 0 0 0 3.355-3.355v-.959a3.179 3.179 0 0 0 2.447-3.085v-7.256a14.678 14.678 0 0 1 4.081-10.1 17.4 17.4 0 0 0 -.393-24.285z" transform="translate(23.423 1.185)"/><path d="m0 0h12.534" transform="translate(41.66 51.409)"/><path d="m0 0h17.127" transform="translate(39.514 42.232)"/><path d="m22.8 9.256a12.243 12.243 0 0 0 -11.452-7.67" transform="translate(36.603 5.117)"/><path d="m0 0 3.461 3.461" transform="translate(26.046 6.813)"/><path d="m0 0h4.898" transform="translate(21.02 18.946)"/><path d="m0 3.461 3.461-3.461" transform="translate(26.046 27.618)"/><path d="m0 0 3.461 3.461" transform="translate(66.624 27.617)"/><path d="m0 0h4.898" transform="translate(70.215 18.946)"/><path d="m0 3.461 3.461-3.461" transform="translate(66.624 6.814)"/></g><g clip-path="url(#a)" transform="translate(1)"><path d="m1.662 16.276c6.064-1.437 18.471-3.389 31.659 2.071a47.389 47.389 0 0 1 9.254 5.113 52.827 52.827 0 0 1 9.149-4.771 56.6 56.6 0 0 1 31.4-2.776" transform="translate(5.361 47.5)"/><path d="m.25 28.161q16.62-4.386 33.244-8.768a14.772 14.772 0 0 0 27.155-.123q16.379 4.386 32.758 8.768" transform="translate(.806 62.161)"/><path d="m1.374 33.945q.057-4.881.11-9.766c4.8-2.971 16-8.916 30.332-7.551a45.353 45.353 0 0 1 11.566 2.679 50.515 50.515 0 0 1 11.811-2.434 53.879 53.879 0 0 1 30.244 6.795q.228 5.73.452 11.46" transform="translate(4.432 52.992)"/></g></g></svg>