<svg height="91.5" viewBox="0 0 91.5 91.5" width="91.5" xmlns="http://www.w3.org/2000/svg" xmlns:xlink="http://www.w3.org/1999/xlink"><clipPath id="a"><path d="m0 0h91.5v91.5h-91.5z"/></clipPath><g clip-path="url(#a)" fill="none" stroke="#8c7ade" stroke-linejoin="round" stroke-width="3.5"><circle cx="6.1" cy="6.1" r="6.1" stroke-linecap="square" transform="translate(39.65 1.017)"/><circle cx="6.1" cy="6.1" r="6.1" stroke-linecap="square" transform="translate(78.283 20.479)"/><circle cx="6.1" cy="6.1" r="6.1" stroke-linecap="square" transform="translate(78.283 58.821)"/><circle cx="6.1" cy="6.1" r="6.1" stroke-linecap="square" transform="translate(1.017 20.479)"/><circle cx="6.1" cy="6.1" r="6.1" stroke-linecap="square" transform="translate(1.017 58.821)"/><circle cx="6.1" cy="6.1" r="6.1" stroke-linecap="square" transform="translate(39.65 78.283)"/><path d="m0 0v26.145" stroke-linecap="square" transform="translate(84.383 32.679)"/><path d="m0 0v26.145" stroke-linecap="square" transform="translate(7.117 32.679)"/><path d="m0 0 27.495 15.876" transform="translate(51.674 8.118)"/><path d="m27.495 0-27.495 15.876" transform="translate(12.267 8.118)"/><path d="m0 15.876 27.495-15.876" transform="translate(51.706 67.883)"/><path d="m27.495 15.876-27.495-15.876" transform="translate(12.299 67.883)"/><g stroke-linecap="round"><path d="m22.294 11.341v15.319a7.3 7.3 0 0 1 -14.6 0 8.192 8.192 0 0 1 2.217-6.36" transform="translate(23.456 34.779)"/><path d="m22.294 28.216v-15.316a7.3 7.3 0 1 0 -14.6 0 8.192 8.192 0 0 0 2.216 6.364" transform="translate(23.456 17.164)"/><path d="m14.661 6.654s-10.248 1.619-8.961 10.752" transform="translate(17.144 20.406)"/><path d="m14.352 23.978s-10.252-1.618-8.958-10.752" transform="translate(16.196 40.56)"/><path d="m12.971 9.3s-8.308.643-8.308 8.3 8.308 7.666 8.308 7.666" transform="translate(14.3 28.517)"/><path d="m11.25 11.341v15.319a7.3 7.3 0 0 0 14.6 0 8.192 8.192 0 0 0 -2.217-6.36" transform="translate(34.5 34.779)"/><path d="m11.25 28.216v-15.316a7.3 7.3 0 1 1 14.6 0 8.192 8.192 0 0 1 -2.216 6.364" transform="translate(34.5 17.164)"/><path d="m14.679 6.654s10.248 1.619 8.959 10.752" transform="translate(45.016 20.406)"/><path d="m14.988 23.978s10.248-1.619 8.959-10.752" transform="translate(45.963 40.56)"/><path d="m15.8 9.3s8.3.643 8.3 8.3-8.3 7.666-8.3 7.666" transform="translate(48.438 28.517)"/></g></g></svg>