<svg height="116" viewBox="0 0 104 116" width="104" xmlns="http://www.w3.org/2000/svg" xmlns:xlink="http://www.w3.org/1999/xlink"><clipPath id="a"><path d="m0 .438h104v116h-104z"/></clipPath><g clip-path="url(#a)" fill="none" stroke="#8c7ade" stroke-linejoin="round" stroke-width="4" transform="translate(0 -.438)"><path d="m0 0h47" stroke-linecap="round" transform="translate(22 38.438)"/><path d="m0 0h30.188" stroke-linecap="round" transform="translate(21.563 23.719)"/><path d="m0 0h31.516" stroke-linecap="round" transform="translate(21.563 51.75)"/><path d="m0 0h17.617" stroke-linecap="round" transform="translate(21.563 64.688)"/><path d="m14.5 2.5v17.25h17.25" transform="translate(48.031 8.281)"/><g stroke-linecap="round"><path d="m71.5 92.235v.828a4.314 4.314 0 0 1 -4.312 4.313h-60.375a4.314 4.314 0 0 1 -4.313-4.313v-86.25a4.314 4.314 0 0 1 4.313-4.313h47.437l17.25 17.25v26.47" transform="translate(8.281 8.281)"/><circle cx="17.25" cy="17.25" r="17.25" transform="translate(58.219 60.375)"/><path d="m15.843 23.734 5.826 5.266 8.461-12.442" transform="translate(52.481 54.847)"/><path d="m0 0h30.188" transform="translate(21.563 91.928)"/><path d="m0 0h17.617" transform="translate(21.563 77.625)"/></g></g></svg>