<svg height="23.3" viewBox="0 0 27.564 23.3" width="27.564" xmlns="http://www.w3.org/2000/svg" xmlns:xlink="http://www.w3.org/1999/xlink"><clipPath id="a"><path d="m0 0h27.564v23.3h-27.564z"/></clipPath><g clip-path="url(#a)" stroke="#ccbaf2"><g fill="none"><circle cx="4.83" cy="4.83" r="4.83" stroke-linecap="round" stroke-linejoin="round" stroke-width="1.75" transform="translate(4.901 .875)"/><path d="m0 4.052v-4.052" stroke-linecap="round" stroke-linejoin="round" stroke-width="1.75" transform="translate(4.589 18.124)"/><path d="m0 4.052v-4.052" stroke-linecap="round" stroke-linejoin="round" stroke-width="1.75" transform="translate(14.97 18.124)"/><path d="m9.73 10.523a8.855 8.855 0 0 0 -8.855 8.855v3.047h17.71v-3.047a8.855 8.855 0 0 0 -8.855-8.855z" stroke-linecap="round" stroke-linejoin="round" stroke-width="1.75"/></g><path d="m22.685 17.145-.428-.517a.076.076 0 0 0 -.077-.022.267.267 0 0 1 -.119-.52.608.608 0 0 1 .606.2l.43.521a.071.071 0 0 0 .088.015l1.059-.573a.069.069 0 0 0 .032-.083l-.2-.649a.612.612 0 0 1 .166-.616 4.422 4.422 0 0 0 .726-.893.6.6 0 0 1 .571-.289l.67.062a.07.07 0 0 0 .076-.051l.343-1.153a.072.072 0 0 0 -.035-.085l-.6-.314a.608.608 0 0 1 -.319-.554 4.427 4.427 0 0 0 -.12-1.146.615.615 0 0 1 .2-.608l.522-.432a.069.069 0 0 0 .016-.086l-.573-1.059a.071.071 0 0 0 -.083-.035l-.646.2a.608.608 0 0 1 -.615-.165 4.546 4.546 0 0 0 -.9-.73.608.608 0 0 1 -.29-.572l.063-.669a.072.072 0 0 0 -.051-.077l-1.147-.345a.073.073 0 0 0 -.085.035l-.312.593a.609.609 0 0 1 -.557.323 4.531 4.531 0 0 0 -1.15.12.612.612 0 0 1 -.608-.2l-.43-.52a.072.072 0 0 0 -.089-.015l-1.054.57a.074.074 0 0 0 -.037.085l.2.646a.612.612 0 0 1 -.165.615c-.1.094-.194.193-.282.293a.266.266 0 0 1 -.4-.352c.1-.112.2-.222.315-.327a.077.077 0 0 0 .022-.073l-.2-.642a.608.608 0 0 1 .289-.712l1.057-.572a.6.6 0 0 1 .753.145l.428.518a.078.078 0 0 0 .077.022 5.1 5.1 0 0 1 1.286-.134.075.075 0 0 0 .07-.035l.314-.6a.607.607 0 0 1 .707-.3l1.152.343a.608.608 0 0 1 .43.636l-.063.669a.074.074 0 0 0 .039.069 5.083 5.083 0 0 1 1 .815.074.074 0 0 0 .075.024l.642-.2a.6.6 0 0 1 .712.29l.578 1.071a.6.6 0 0 1 -.146.751l-.517.429a.077.077 0 0 0 -.025.078 4.983 4.983 0 0 1 .134 1.281.073.073 0 0 0 .036.07l.6.314a.608.608 0 0 1 .3.708l-.346 1.151a.608.608 0 0 1 -.636.43l-.669-.063a.076.076 0 0 0 -.069.039 4.975 4.975 0 0 1 -.812 1 .077.077 0 0 0 -.024.077l.2.644a.6.6 0 0 1 -.287.71l-1.059.574a.609.609 0 0 1 -.462.047.593.593 0 0 1 -.292-.193m-4.29-6.39a2.717 2.717 0 1 1 1.829 3.375 2.718 2.718 0 0 1 -1.829-3.375m.511.152a2.184 2.184 0 1 0 2.714-1.47 2.184 2.184 0 0 0 -2.714 1.47" fill="#8f80cb"/><path d="m22.685 17.145-.428-.517a.076.076 0 0 0 -.077-.022.267.267 0 0 1 -.119-.52.608.608 0 0 1 .606.2l.43.521a.071.071 0 0 0 .088.015l1.059-.573a.069.069 0 0 0 .032-.083l-.2-.649a.612.612 0 0 1 .166-.616 4.422 4.422 0 0 0 .726-.893.6.6 0 0 1 .571-.289l.67.062a.07.07 0 0 0 .076-.051l.343-1.153a.072.072 0 0 0 -.035-.085l-.6-.314a.608.608 0 0 1 -.319-.554 4.427 4.427 0 0 0 -.12-1.146.615.615 0 0 1 .2-.608l.522-.432a.069.069 0 0 0 .016-.086l-.573-1.059a.071.071 0 0 0 -.083-.035l-.646.2a.608.608 0 0 1 -.615-.165 4.546 4.546 0 0 0 -.9-.73.608.608 0 0 1 -.29-.572l.063-.669a.072.072 0 0 0 -.051-.077l-1.147-.345a.073.073 0 0 0 -.085.035l-.312.593a.609.609 0 0 1 -.557.323 4.531 4.531 0 0 0 -1.15.12.612.612 0 0 1 -.608-.2l-.43-.52a.072.072 0 0 0 -.089-.015l-1.054.57a.074.074 0 0 0 -.037.085l.2.646a.612.612 0 0 1 -.165.615c-.1.094-.194.193-.282.293a.266.266 0 0 1 -.4-.352c.1-.112.2-.222.315-.327a.077.077 0 0 0 .022-.073l-.2-.642a.608.608 0 0 1 .289-.712l1.057-.572a.6.6 0 0 1 .753.145l.428.518a.078.078 0 0 0 .077.022 5.1 5.1 0 0 1 1.286-.134.075.075 0 0 0 .07-.035l.314-.6a.607.607 0 0 1 .707-.3l1.152.343a.608.608 0 0 1 .43.636l-.063.669a.074.074 0 0 0 .039.069 5.083 5.083 0 0 1 1 .815.074.074 0 0 0 .075.024l.642-.2a.6.6 0 0 1 .712.29l.578 1.071a.6.6 0 0 1 -.146.751l-.517.429a.077.077 0 0 0 -.025.078 4.983 4.983 0 0 1 .134 1.281.073.073 0 0 0 .036.07l.6.314a.608.608 0 0 1 .3.708l-.346 1.151a.608.608 0 0 1 -.636.43l-.669-.063a.076.076 0 0 0 -.069.039 4.975 4.975 0 0 1 -.812 1 .077.077 0 0 0 -.024.077l.2.644a.6.6 0 0 1 -.287.71l-1.059.574a.609.609 0 0 1 -.462.047.593.593 0 0 1 -.297-.195zm-4.285-6.388a2.717 2.717 0 1 1 1.829 3.375 2.718 2.718 0 0 1 -1.829-3.375zm.511.152a2.184 2.184 0 1 0 2.714-1.47 2.184 2.184 0 0 0 -2.717 1.47z" fill="none" stroke-miterlimit="10" stroke-width=".8"/></g></svg>