<svg height="114.818" viewBox="0 0 87.629 114.818" width="87.629" xmlns="http://www.w3.org/2000/svg" xmlns:xlink="http://www.w3.org/1999/xlink"><clipPath id="a"><path d="m0 0h87.629v114.818h-87.629z"/></clipPath><g style="clip-path:url(#a);fill:none;stroke:#8c7ade;stroke-linecap:round;stroke-linejoin:round;stroke-width:4"><path d="m11.831 27.048a10.931 10.931 0 1 1 12.3-.093" transform="translate(25.538 25.717)"/><path d="m22.81 52.531a24.708 24.708 0 0 1 -18.899-23.831c0-13.585 11.252-24.6 25.125-24.6s25.13 11.014 25.13 24.6a24.712 24.712 0 0 1 -18.745 23.8" transform="translate(14.303 14.983)"/><path d="m17.307 4.1a36.319 36.319 0 0 1 9.957 24.962 36.475 36.475 0 0 1 -12.864 27.738" transform="translate(52.648 14.983)"/><path d="m10.377 61.86a36.465 36.465 0 0 1 27.584-60.31" transform="translate(5.486 5.669)"/><circle cx="2.329" cy="2.329" r="2.329" transform="translate(65.067 14.018)"/><path d="m11.506 1.733a.233.233 0 1 1 -.233-.233.231.231 0 0 1 .233.233z" transform="translate(40.375 5.486)"/><circle cx="2.329" cy="2.329" r="2.329" transform="translate(16.524 68.697)"/><path d="m61.456 69.592c0-4.1-.014-7.167-.009-9.645.009-6.641 0-9.091-.014-16.4a6.767 6.767 0 0 0 -6.595-6.9h-.116a6.328 6.328 0 0 0 -4.261 1.616 6.638 6.638 0 0 0 -6.166-4.5 6.381 6.381 0 0 0 -4.569 1.965 6.552 6.552 0 0 0 -5.845-3.735h-.121a5.977 5.977 0 0 0 -3.76 1.249m0 15.723v-32.865a5.686 5.686 0 0 0 -11.373 0l-.027 32.758-1.9-2.315a8.814 8.814 0 0 0 -6.231-3.19h-.075a4.833 4.833 0 0 0 -4.774 6.664l8.137 19.733" transform="translate(19.188 38.082)"/><path d="m0 0v11.089" transform="translate(58.91 73.808)"/><path d="m0 0v6.138" transform="translate(69.649 76.342)"/></g></svg>