<svg enable-background="new 0 0 24 24" viewBox="0 0 24 24" xmlns="http://www.w3.org/2000/svg"><g fill="none" stroke="#ccbaf2" stroke-miterlimit="10" stroke-width="2"><path d="m20.2 9.3c1.4 0 2.5 1.1 2.5 2.5s-1.1 2.5-2.5 2.5"/><path d="m18.7 2.3c-.8 0-1.4.6-1.4 1.4v16c0 .8.6 1.4 1.4 1.4.8 0 1.4-.6 1.4-1.4v-16c.1-.7-.6-1.4-1.4-1.4z"/><path d="m17.3 3.6c-2.8 3.3-4.1 4.8-7.7 4.8h-3.3c-1.3 0-2.3 1-2.3 2.2v2.4c0 1.2 1 2.2 2.2 2.2h3.3c3.6 0 4.9 1.5 7.7 4.8"/><path d="m4 13.6h-1.8c-.5 0-.8-.4-.8-.8v-2c0-.5.4-.8.8-.8h1.8"/><path d="m8.3 21.7h-.5c-.6 0-1.1-.5-1.1-1.1v-4.3c0-.6.5-1.1 1.1-1.1h.5c.6 0 1.1.5 1.1 1.1v4.3c0 .6-.5 1.1-1.1 1.1z"/></g></svg>