<?xml version="1.0" encoding="utf-8"?>
<!-- Generator: Adobe Illustrator 26.5.0, SVG Export Plug-In . SVG Version: 6.00 Build 0)  -->
<svg version="1.1" id="Ebene_1" xmlns="http://www.w3.org/2000/svg" xmlns:xlink="http://www.w3.org/1999/xlink" x="0px" y="0px"
	 viewBox="0 0 170.1 31.2" style="enable-background:new 0 0 170.1 31.2;" xml:space="preserve">
<style type="text/css">
	.st0{fill:#2F393A;}
	.st1{fill:#87BD22;}
</style>
<g>
	<path class="st0" d="M10.2,21.6c0-0.7-0.3-1.2-0.8-1.6c-0.5-0.4-1.5-0.8-2.9-1.1c-2-0.4-3.5-1-4.6-1.8c-1-0.8-1.5-1.8-1.5-3.1
		c0-1.4,0.6-2.5,1.7-3.5C3.3,9.5,4.8,9,6.7,9c1.9,0,3.5,0.5,4.6,1.5c1.1,1,1.7,2.2,1.6,3.6l0,0.1H10c0-0.7-0.3-1.4-0.9-2
		c-0.6-0.6-1.4-0.9-2.4-0.9c-1.1,0-1.9,0.2-2.4,0.7c-0.5,0.5-0.8,1-0.8,1.7c0,0.7,0.2,1.2,0.7,1.6s1.4,0.7,2.8,1
		c2.1,0.5,3.7,1.1,4.7,1.8c1,0.8,1.5,1.8,1.5,3.1c0,1.5-0.6,2.7-1.8,3.6c-1.2,0.9-2.8,1.4-4.7,1.4c-2.1,0-3.8-0.5-5-1.6
		c-1.2-1.1-1.8-2.3-1.7-3.8l0-0.1h2.9c0.1,1.1,0.5,1.9,1.2,2.4C4.9,23.7,5.8,24,6.8,24c1.1,0,1.9-0.2,2.5-0.7
		C9.9,22.9,10.2,22.3,10.2,21.6z"/>
	<path class="st0" d="M27.6,23.6c-0.5,0.9-1.2,1.6-2,2.1c-0.8,0.5-1.8,0.7-2.8,0.7c-1.8,0-3.2-0.6-4.2-1.7s-1.5-3-1.5-5.4V9.4h3v9.9
		c0,1.8,0.3,3,0.8,3.7c0.5,0.7,1.3,1,2.4,1c1.1,0,2-0.2,2.7-0.7c0.7-0.4,1.2-1.1,1.6-1.9v-12h3V26h-2.7L27.6,23.6z"/>
	<path class="st0" d="M42.8,12l-1.6-0.1c-0.8,0-1.5,0.2-2,0.6c-0.5,0.4-1,0.9-1.3,1.6V26h-3V9.4h2.7l0.3,2.4c0.5-0.9,1.1-1.5,1.7-2
		S41.2,9,42.1,9c0.2,0,0.4,0,0.6,0.1c0.2,0,0.4,0.1,0.5,0.1L42.8,12z"/>
	<path class="st0" d="M52.4,26.3c-2.3,0-4.2-0.8-5.5-2.3c-1.4-1.5-2.1-3.5-2.1-6v-0.7c0-2.4,0.7-4.3,2.1-5.9C48.3,9.8,50,9,51.9,9
		c2.2,0,3.9,0.7,5.1,2c1.1,1.4,1.7,3.2,1.7,5.4v1.9H47.9l0,0.1c0,1.6,0.4,2.9,1.2,3.9c0.8,1,1.9,1.5,3.3,1.5c1,0,1.9-0.1,2.7-0.4
		c0.8-0.3,1.4-0.7,2-1.2l1.2,2c-0.6,0.6-1.4,1.1-2.4,1.5C54.9,26.1,53.8,26.3,52.4,26.3z M51.9,11.4c-1,0-1.9,0.4-2.6,1.3
		c-0.7,0.9-1.2,1.9-1.3,3.2l0,0.1h7.7v-0.4c0-1.2-0.3-2.2-1-3C54.1,11.8,53.2,11.4,51.9,11.4z"/>
	<path class="st1" d="M68.2,3.1h-2.5v25h2.5V31H62V0.2h6.3V3.1z"/>
	<path class="st0" d="M80.5,21.6c0-0.7-0.3-1.2-0.8-1.6c-0.5-0.4-1.5-0.8-2.9-1.1c-2-0.4-3.5-1-4.6-1.8c-1-0.8-1.5-1.8-1.5-3.1
		c0-1.4,0.6-2.5,1.7-3.5c1.1-1,2.6-1.4,4.5-1.4c1.9,0,3.5,0.5,4.6,1.5c1.1,1,1.7,2.2,1.6,3.6l0,0.1h-2.9c0-0.7-0.3-1.4-0.9-2
		c-0.6-0.6-1.4-0.9-2.4-0.9c-1.1,0-1.9,0.2-2.4,0.7c-0.5,0.5-0.8,1-0.8,1.7c0,0.7,0.2,1.2,0.7,1.6s1.4,0.7,2.8,1
		c2.1,0.5,3.7,1.1,4.7,1.8c1,0.8,1.5,1.8,1.5,3.1c0,1.5-0.6,2.7-1.8,3.6c-1.2,0.9-2.8,1.4-4.7,1.4c-2.1,0-3.8-0.5-5-1.6
		c-1.2-1.1-1.8-2.3-1.7-3.8l0-0.1h2.9c0.1,1.1,0.5,1.9,1.2,2.4C75.1,23.7,76,24,77,24c1.1,0,1.9-0.2,2.5-0.7
		C80.1,22.9,80.5,22.3,80.5,21.6z"/>
	<path class="st0" d="M94.2,26.3c-2.3,0-4.2-0.8-5.5-2.3c-1.4-1.5-2.1-3.5-2.1-6v-0.7c0-2.4,0.7-4.3,2.1-5.9c1.4-1.6,3.1-2.4,5-2.4
		c2.2,0,3.9,0.7,5.1,2c1.1,1.4,1.7,3.2,1.7,5.4v1.9H89.7l0,0.1c0,1.6,0.4,2.9,1.2,3.9c0.8,1,1.9,1.5,3.3,1.5c1,0,1.9-0.1,2.7-0.4
		c0.8-0.3,1.4-0.7,2-1.2l1.2,2c-0.6,0.6-1.4,1.1-2.4,1.5C96.7,26.1,95.6,26.3,94.2,26.3z M93.7,11.4c-1,0-1.9,0.4-2.6,1.3
		c-0.7,0.9-1.2,1.9-1.3,3.2l0,0.1h7.7v-0.4c0-1.2-0.3-2.2-1-3C95.9,11.8,95,11.4,93.7,11.4z"/>
	<path class="st0" d="M110.7,24c1,0,1.9-0.3,2.7-0.9c0.8-0.6,1.1-1.4,1.1-2.3h2.7l0,0.1c0.1,1.4-0.6,2.7-1.9,3.8
		c-1.3,1.1-2.9,1.7-4.6,1.7c-2.4,0-4.3-0.8-5.6-2.4c-1.3-1.6-1.9-3.6-1.9-6v-0.6c0-2.4,0.6-4.3,1.9-5.9c1.3-1.6,3.1-2.4,5.6-2.4
		c1.9,0,3.5,0.6,4.8,1.7c1.2,1.1,1.8,2.6,1.8,4.2l0,0.1h-2.7c0-1-0.4-1.9-1.1-2.6c-0.7-0.7-1.6-1.1-2.7-1.1c-1.6,0-2.7,0.6-3.4,1.7
		c-0.7,1.1-1,2.5-1,4.2V18c0,1.7,0.3,3.1,1,4.3C108,23.4,109.1,24,110.7,24z"/>
	<path class="st0" d="M131.2,23.6c-0.5,0.9-1.2,1.6-2,2.1c-0.8,0.5-1.8,0.7-2.8,0.7c-1.8,0-3.2-0.6-4.2-1.7s-1.5-3-1.5-5.4V9.4h3
		v9.9c0,1.8,0.3,3,0.8,3.7c0.5,0.7,1.3,1,2.4,1c1.1,0,2-0.2,2.7-0.7c0.7-0.4,1.2-1.1,1.6-1.9v-12h3V26h-2.7L131.2,23.6z"/>
	<path class="st0" d="M146.5,12l-1.6-0.1c-0.8,0-1.5,0.2-2,0.6c-0.5,0.4-1,0.9-1.3,1.6V26h-3V9.4h2.7l0.3,2.4c0.5-0.9,1.1-1.5,1.7-2
		c0.7-0.5,1.5-0.7,2.4-0.7c0.2,0,0.4,0,0.6,0.1c0.2,0,0.4,0.1,0.5,0.1L146.5,12z"/>
	<path class="st0" d="M156,26.3c-2.3,0-4.2-0.8-5.5-2.3c-1.4-1.5-2.1-3.5-2.1-6v-0.7c0-2.4,0.7-4.3,2.1-5.9c1.4-1.6,3.1-2.4,5-2.4
		c2.2,0,3.9,0.7,5.1,2c1.1,1.4,1.7,3.2,1.7,5.4v1.9h-10.8l0,0.1c0,1.6,0.4,2.9,1.2,3.9c0.8,1,1.9,1.5,3.3,1.5c1,0,1.9-0.1,2.7-0.4
		c0.8-0.3,1.4-0.7,2-1.2l1.2,2c-0.6,0.6-1.4,1.1-2.4,1.5C158.6,26.1,157.4,26.3,156,26.3z M155.6,11.4c-1,0-1.9,0.4-2.6,1.3
		c-0.7,0.9-1.2,1.9-1.3,3.2l0,0.1h7.7v-0.4c0-1.2-0.3-2.2-1-3C157.8,11.8,156.8,11.4,155.6,11.4z"/>
	<path class="st1" d="M163.8,0.2h6.3V31h-6.3v-2.9h2.6v-25h-2.6V0.2z"/>
</g>
</svg>
