<svg enable-background="new 0 0 366 82" viewBox="0 0 366 82" xmlns="http://www.w3.org/2000/svg"><g fill="#203656"><path d="m38.1 62.4c-.1.2-.1.5-.2.7-.3.8-.7 1.6-1.2 2.3-1.9 2.8-5.1 4.6-8.6 4.6-5.7 0-10.4-4.7-10.4-10.4v-4.7h-8.7v4.7c0 10.5 8.6 19.1 19.1 19.1 8.1 0 15.3-5.1 18-12.7.4-1.2.7-2.4.9-3.6z"/><path d="m29.1 3.3h-2c-13.3 0-24.2 10.8-24.2 24.1v22.6h50.3v-22.6c0-13.3-10.8-24.1-24.1-24.1z"/><path d="m70.4 6.5h14.4c13.8 0 22.6 8.9 22.6 21.8 0 12.8-8.4 21.7-22.4 21.7h-6.6c-4.4 0-8-3.6-8-8zm14 35.8c8.4 0 14-6.1 14-14 0-8.1-5.6-14.1-13.5-14.1h-6v26.6c0 .9.7 1.6 1.6 1.6h3.9z"/><path d="m109.7 35.1c0-9.1 6.1-15.5 14.1-15.5 3.5 0 6.7 1.3 8.8 3.9l.1-.1v-3.4h8v29.9h-7.7v-3.6l-.1-.1c-2.1 2.7-5.1 4.2-9 4.2-8.2.1-14.2-6.1-14.2-15.3zm23.4 0c0-4.8-3.3-8.4-7.6-8.4s-7.7 3.2-7.7 8.4c0 4.8 3.1 8.1 7.7 8.1 4.1.1 7.6-3.2 7.6-8.1z"/><path d="m148 40.5v-13.8h-3.6v-6.7h3.6v-9.7l8-.9v10.6h8.1v6.7h-8.1v12.7c0 2.6.7 3.9 2.6 3.9 1 0 2.4-.4 3.8-1l2 6.4c-1.9 1-3.9 1.9-7.9 1.9-5.2-.1-8.5-3.3-8.5-10.1z"/><path d="m165 35.1c0-9.1 6.1-15.5 14.1-15.5 3.5 0 6.7 1.3 8.8 3.9l.1-.1v-3.4h8v29.9h-7.7v-3.6l-.1-.1c-2.1 2.7-5.1 4.2-9 4.2-8.1.1-14.2-6.1-14.2-15.3zm23.4 0c0-4.8-3.3-8.4-7.6-8.4s-7.7 3.2-7.7 8.4c0 4.8 3.1 8.1 7.7 8.1 4.1.1 7.6-3.2 7.6-8.1z"/><path d="m199.9 28.3c0-12.7 8.2-22.3 21.8-22.3 6.2 0 12.8 2.4 17.3 7.4l-6.1 5.3c-2.7-2.7-6.4-4.5-11.2-4.5-7.2 0-12.8 5.3-12.8 14.2 0 8 5 14.3 13.2 14.3 3.1 0 6-.8 8.8-2.5v-6.4h-9.9v-7.4h18.1v18.6c-4 3.2-10.5 5.4-17.1 5.4-12.5 0-22.1-8.2-22.1-22.1z"/><path d="m244 38.1v-18.1h8v16c0 5.4 1.7 7.3 5.4 7.3 3.5 0 6.6-2.9 6.6-8.7v-14.6h8.1v29.9h-8.1v-3.6l-.1-.1c-2.3 2.8-5.4 4.2-8.8 4.2-6.6.1-11.1-3.2-11.1-12.3z"/><path d="m275.8 35.1c0-9.1 6.1-15.5 14.1-15.5 3.5 0 6.7 1.3 8.8 3.9l.1-.1v-3.4h8v29.9h-7.7v-3.6l-.1-.1c-2.1 2.7-5.1 4.2-9 4.2-8.2.1-14.2-6.1-14.2-15.3zm23.3 0c0-4.8-3.3-8.4-7.6-8.4s-7.7 3.2-7.7 8.4c0 4.8 3.1 8.1 7.7 8.1 4.2.1 7.6-3.2 7.6-8.1z"/><path d="m312.5 20h8v4.3h.1c2.3-3.1 5.5-4.8 9-4.8h.6v8.8c-.9-.1-1.7-.1-2.1-.1-5 0-7.6 3.3-7.6 7.8v13.8h-8z"/><path d="m331.8 35.1c0-9.1 6.1-15.5 14.1-15.5 3.7 0 6.9 1.3 9.1 3.9h.1v-18.6c4.4 0 8 3.6 8 8v37.1h-7.7v-3.7h-.1c-2.1 2.7-5.2 4.2-9.2 4.2-8.3 0-14.3-6.2-14.3-15.4zm23.6 0c0-4.8-3.2-8.4-7.8-8.4-4.3 0-7.7 3.2-7.7 8.4 0 4.8 3.2 8.1 7.7 8.1 4.4.1 7.8-3.2 7.8-8.1z"/></g></svg>