<svg enable-background="new 0 0 304.4 114" viewBox="0 0 304.4 114" xmlns="http://www.w3.org/2000/svg"><path d="m43.3 81h-43.3v8h32c5.2 0 9.6-3.4 11.3-8z" fill="#1c9045"/><path d="m98 0h-82c-8.8 0-16 7.2-16 16v51h44v-10l16-16v26h1.2c6.7 0 11.8-5 11.8-11.7v-27.3l16-16v42.7c0 14.5-11.3 26.3-25.8 26.3h-3.6c-2.2 12.3-12.7 22-25.6 22h-33.2c2.1 6.4 8.1 11 15.2 11h82c8.8 0 16-7.2 16-16v-82c0-8.8-7.2-16-16-16z" fill="#1c9045"/><g fill="#161616"><path d="m148.7 61.9v18.8h-10.5v-48.1h30.6v9.8h-20.1v10.1h16.9v9.5z"/><path d="m172.3 32.6h37.8v9.8h-13.6v38.3h-10.5v-38.3h-13.6z"/><path d="m206.4 80.7 17.2-48.1h10.3l17.1 48.1h-11.2l-3.4-10.1h-15.5l-3.4 10.1zm17.5-18.9h9.5l-3.4-10.3c-.5-1.6-1.1-3.5-1.3-4.7-.2 1.1-.7 2.9-1.3 4.7z"/><path d="m264.5 64.7v16h-10.5v-48.1h19.5c9.8 0 16.4 6.4 16.4 16.1s-6.6 16.1-16.4 16.1zm0-22.7v13.4h6.6c5.1 0 7.6-2.2 7.6-6.7s-2.5-6.7-7.6-6.7z"/><path d="m304.4 80.7h-10.5v-48.1h10.5z"/></g></svg>