<svg width="115" height="32" viewBox="0 0 115 32" fill="none" xmlns="http://www.w3.org/2000/svg">
<path d="M48.6952 14.7917L44.3658 13.1799C44.0128 13.0503 43.8257 12.8692 43.8257 12.5585C43.8257 12.2479 44.0322 12.0402 44.3923 12.0402H51.0143V8.09924H44.5988C41.5843 8.09924 39.4963 9.96675 39.4963 12.6881C39.4963 14.7616 40.4494 16.2119 42.3043 16.9113L46.7167 18.5711C47.1297 18.7256 47.2585 18.9084 47.2585 19.1676C47.2585 19.5226 47.0255 19.7374 46.639 19.7374H39.9111V23.6766H46.6355C49.4965 23.6766 51.6356 21.7328 51.6356 19.1143C51.6338 16.9948 50.6278 15.5178 48.6952 14.7917Z" fill="#0f0825"/>
<path d="M52.4579 17.1513C52.4579 21.4277 54.9059 23.897 59.2088 23.897C60.7284 23.897 62.1721 23.6378 63.2029 23.1443V18.8608C62.4298 19.5354 61.2614 19.8975 59.8795 19.8975C57.9716 19.8975 56.9409 19.1466 56.7344 17.54H61.2191V13.7553H56.6779V12.0458H63.2082V8.10486H52.4579V17.1513Z" fill="#0f0825"/>
<path d="M15.015 13.7634C14.6812 13.7634 14.4697 13.9449 14.4697 14.2201C14.4705 14.3295 14.5062 14.4358 14.5715 14.5232C14.6368 14.6107 14.7283 14.6748 14.8326 14.706L17.1339 15.6507C18.1706 16.0678 18.6786 16.8373 18.6786 17.8737C18.6786 19.3335 17.6191 20.2469 15.9542 20.2469H12.6597L14.1733 32H16.9515C17.7995 27.5853 18.436 25.1809 19.3731 23.3833C19.7342 22.6818 20.1928 22.0358 20.7353 21.4647C21.3407 20.8558 22.1286 20.3699 23.188 19.8819C24.884 19.1208 27.7286 18.2136 31.7239 17.3544V14.7373L18.2846 13.7634H15.015Z" fill="#0f0825"/>
<path d="M16.5285 17.8174C16.5277 17.7157 16.495 17.6168 16.435 17.5348C16.3751 17.4528 16.291 17.3919 16.1947 17.3608L13.9037 16.4119C12.867 15.9948 12.359 15.2232 12.359 14.1889C12.359 12.7291 13.4185 11.8137 15.0834 11.8137H18.2576L16.9514 0H14.167C13.2298 4.62953 12.7157 6.91302 11.7764 8.70853C11.4159 9.41028 10.9572 10.0564 10.4143 10.6271C9.70051 11.302 8.86899 11.8386 7.96154 12.2099C5.39032 13.2898 2.72506 14.1275 0 14.7123V17.3316L12.5933 18.3054H15.977C16.317 18.2992 16.5285 18.1157 16.5285 17.8174Z" fill="#0f0825"/>
<path d="M111.672 18.9655C111.675 18.6218 111.783 18.2874 111.98 18.0069L113.991 14.4565C114.45 13.6713 114.691 12.7758 114.686 11.8647C114.686 9.48057 113.064 8.10657 110.203 8.10657H102.55V23.6839H106.776V12.0457H109.739C110.074 12.0457 110.281 12.2517 110.281 12.5108C110.277 12.6869 110.223 12.8581 110.125 13.0043L108.348 16.166C107.704 17.3323 107.466 17.9287 107.466 19.1199C107.466 21.7827 109.347 23.6822 112.801 23.6822H114.398V19.7483H112.549C111.98 19.7483 111.672 19.4057 111.672 18.9655Z" fill="#0f0825"/>
<path d="M63.6671 15.88C63.6671 20.6499 66.8881 23.8897 71.5511 23.8897C72.6847 23.9175 73.8081 23.6683 74.825 23.1636V18.7061C74.1191 19.457 73.046 19.8458 71.8617 19.8458C69.5673 19.8458 67.9965 18.2658 67.9965 15.88C67.9965 13.5225 69.5673 11.9408 71.8617 11.9408C73.046 11.9408 74.1279 12.3296 74.825 13.0823V8.62296C73.808 8.11878 72.6846 7.87025 71.5511 7.89868C66.8881 7.89868 63.6671 11.1384 63.6671 15.88Z" fill="#0f0825"/>
<path d="M97.0367 17.2631C97.0367 18.9744 96.2636 19.8549 94.7934 19.8549C93.3233 19.8549 92.552 18.9673 92.552 17.2631V8.10486H88.3267V17.2809C88.3267 21.3496 90.8259 23.8899 94.7934 23.8899C98.761 23.8899 101.262 21.3461 101.262 17.2809V8.10486H97.0367V17.2631Z" fill="#0f0825"/>
<path d="M76.1379 12.0458H82.8129V16.0879C82.8129 18.5501 81.5775 19.846 79.2054 19.846C78.0799 19.8497 76.9908 19.4451 76.1379 18.7063V23.1639C76.9375 23.5526 78.2259 23.8899 79.8231 23.8899C84.359 23.8899 87.0382 20.8046 87.0382 15.9583V8.10486H76.1379V12.0458Z" fill="#0f0825"/>
</svg>
