<svg enable-background="new 0 0 528.7 38.3" viewBox="0 0 528.7 38.3" xmlns="http://www.w3.org/2000/svg"><path d="m47.4 18.2c0-2.1-.3-4-.8-5.7s-1.2-3.1-2.2-4.3c-.9-1.2-2.1-2.1-3.4-2.7s-2.8-1-4.3-1c-1.7 0-3.2.4-4.5 1.2s-2.4 1.9-3.4 3.3c-.9 1.4-1.6 3-2.1 4.8s-.7 3.8-.7 5.9c0 2.6.3 4.8.8 6.6.6 1.8 1.3 3.2 2.3 4.3.9 1.1 2 1.9 3.3 2.4 1.2.5 2.5.7 3.9.7 1.5 0 2.9-.3 4.2-.9s2.5-1.6 3.5-2.8c1-1.3 1.8-2.9 2.4-4.9.7-1.9 1-4.3 1-6.9zm-29.4 1c0-2.4.4-4.7 1.3-6.8s2.2-4 3.8-5.6 3.6-2.9 5.9-3.8 4.9-1.4 7.7-1.4c2.6 0 5 .4 7.3 1.1 2.4.8 4.4 1.9 6 3.3 1.7 1.4 3 3.3 3.9 5.5 1 2.2 1.4 4.8 1.4 7.7 0 2.5-.5 4.7-1.4 6.9-.9 2.1-2.2 4-3.9 5.6s-3.6 2.8-5.9 3.7-4.8 1.3-7.5 1.3c-2.6 0-5-.3-7.3-1-2.3-.6-4.2-1.7-5.9-3.1s-3-3.2-4-5.4c-.9-2.3-1.4-4.9-1.4-8z"/><g fill="#ee312e"><path d="m108.8 4.7c-1.5 0-2.7.4-3.7 1.3-.9.9-1.4 1.9-1.4 3.1s.4 2.2 1.1 3 1.7 1.5 2.8 2.1 2.3 1.2 3.6 1.8 2.5 1.3 3.6 2.1 2 1.8 2.8 3c.7 1.2 1.1 2.7 1.1 4.6 0 1.6-.3 3.1-.9 4.5s-1.5 2.5-2.6 3.5-2.5 1.7-4.1 2.2-3.4.8-5.3.8c-1.8 0-3.3-.2-4.7-.6s-2.4-.8-3.2-1.4c.3-1.1.6-2.2.8-3.1s.4-2 .6-3.1h.9c.1.7.4 1.4.7 2 .4.6.8 1.2 1.4 1.7s1.2.9 2 1.2 1.7.4 2.6.4c2 0 3.4-.5 4.3-1.5s1.4-2.2 1.4-3.5c0-1.2-.4-2.3-1.1-3-.7-.8-1.6-1.5-2.7-2.1s-2.3-1.2-3.5-1.8c-1.3-.6-2.5-1.3-3.5-2.1-1.1-.8-2-1.8-2.7-3s-1.1-2.7-1.1-4.6c0-1.7.3-3.2.9-4.5s1.4-2.4 2.4-3.3 2.2-1.6 3.5-2c1.3-.5 2.7-.7 4.2-.7 1.8 0 3.3.2 4.6.6s2.5 1 3.4 1.8c-.3.8-.5 1.5-.8 2.2s-.5 1.6-.8 2.7h-.7c-1-2.9-3-4.3-5.9-4.3z"/><path d="m135 8.7c-.1-2.1-.2-4.2-.3-6.3 1.5 0 2.9.1 4.4.1 1.4.1 2.9.1 4.4.1 2.4 0 4.6 0 6.4-.1 1.9 0 3.1-.1 3.8-.2-.1.5-.2 1.2-.2 2.1v1.2c0 .3.1.6.1 1-.9-.1-2-.1-3.1-.2s-2.2-.1-3.3-.2-2-.1-2.9-.1c-.8 0-1.5 0-1.8 0-.1 1.8-.2 3.6-.2 5.3v5.3c2.1 0 4-.1 5.8-.1 1.7-.1 3.5-.1 5.4-.2-.1.6-.2 1-.2 1.3v.9c0 .3 0 .5.1.8 0 .3.1.7.2 1.2-3.7-.3-7.4-.4-11.1-.4v3.1 3.1c0 2.1 0 4.2.1 6.1 1.9 0 3.7-.1 5.6-.1 1.9-.1 3.7-.3 5.6-.5-.1.4-.1.7-.1 1v1.2 1.2c0 .3.1.5.1.7-.9 0-2-.1-3.3-.1s-3.1 0-5.3 0h-7.8c-.7 0-1.3 0-1.7 0s-.7 0-1 .1c.1-2 .2-4.1.3-6.2s.1-4.5.1-7.2v-6.7c0-2.7 0-5.1-.1-7.2z"/><path d="m196.7 32.5c-.2.7-.3 1.4-.4 2.1-2.6 1.3-6 2-10 2-2.8 0-5.4-.4-7.6-1.2s-4.1-1.9-5.7-3.4-2.7-3.2-3.6-5.2c-.8-2-1.2-4.1-1.2-6.5 0-3.4.5-6.3 1.6-8.7s2.5-4.3 4.3-5.8 3.8-2.6 6.2-3.3 4.8-1 7.4-1c.9 0 1.7.1 2.7.2.9.1 1.9.3 2.7.5.9.2 1.7.5 2.5.8s1.5.6 2 .9c-.3.8-.6 1.6-.8 2.5-.2.8-.3 1.7-.4 2.5h-.7c-1.2-1.6-2.5-2.7-3.8-3.4s-2.8-1-4.6-1c-1.3 0-2.6.3-3.9.9s-2.5 1.5-3.6 2.7-2 2.8-2.6 4.6c-.7 1.9-1 4.1-1 6.7 0 2.5.3 4.7 1 6.4.7 1.8 1.6 3.2 2.7 4.4 1.1 1.1 2.3 2 3.7 2.5s2.8.8 4.2.8c.8 0 1.6-.1 2.4-.3s1.6-.4 2.4-.7 1.5-.7 2.2-1.2 1.3-1 1.8-1.5l.6.4c-.1.9-.3 1.6-.5 2.3z"/><path d="m229.3 36.6c-2.1 0-4-.2-5.9-.7-1.8-.4-3.4-1.2-4.7-2.2s-2.4-2.4-3.2-4-1.2-3.6-1.2-5.9c0-1.3 0-2.5 0-3.5s0-2 0-2.9 0-1.7 0-2.5 0-1.7 0-2.5c0-2.6 0-4.8 0-6.4s-.1-2.9-.1-3.7c.7.1 1.3.1 2 .2.7 0 1.4.1 2 .1.7 0 1.3 0 2-.1.7 0 1.4-.1 2-.2-.3 3.2-.5 6.1-.6 8.8s-.1 5.5-.1 8.3c0 3 .2 5.4.6 7.2s1.1 3.2 1.9 4.2 1.9 1.7 3.1 2 2.6.5 4.2.5c2 0 3.5-.5 4.6-1.5s2-2.3 2.5-3.9c.6-1.6.9-3.5 1.1-5.6.1-2.1.2-4.3.2-6.6s0-4.5-.1-6.7-.2-4.5-.3-6.7c.5.1.9.1 1.3.2.4 0 .8.1 1.2.1s.8 0 1.2-.1c.4 0 .8-.1 1.2-.2-.1.7-.1 1.7-.2 2.9s-.1 2.6-.2 4.2-.1 3.3-.2 5.2-.1 3.9-.1 6.1c0 5.7-1.2 9.8-3.7 12.2-2.2 2.5-5.8 3.7-10.5 3.7z"/><path d="m278.2 11.5c0-1.4-.1-2.6-.4-3.4s-.7-1.5-1.3-1.9-1.4-.7-2.4-.9c-1-.1-2.1-.2-3.5-.2-.1 4.4-.1 8.9-.1 13.3.2 0 .4.1.6.1h.5c2.2 0 3.8-.6 5-1.7 1.1-1.2 1.6-2.9 1.6-5.3zm-7.7 9.1v2c0 2.7 0 5.1.1 7.2s.2 4.2.3 6.2c-.6-.1-1.2-.1-1.8-.1h-4.4c-.7 0-1.3 0-1.8.1.1-2 .2-4.1.3-6.2s.1-4.5.1-7.2v-6.7c0-2.7 0-5.1-.1-7.2s-.2-4.2-.3-6.3c.6.1 1.2.1 1.8.2.7 0 1.4.1 2.2.1.9 0 1.9 0 3-.1s2.5-.1 4.2-.1c1.2 0 2.3 0 3.2.1s1.6.2 2.3.3c.6.1 1.2.3 1.7.5s.9.5 1.3.8c1 .7 1.8 1.6 2.3 2.7.6 1.1.9 2.3.9 3.8 0 2.4-.7 4.3-2 5.8s-3.2 2.6-5.6 3.2c1.6 2.8 3.3 5.5 5.1 8.3s3.6 5.5 5.4 8.2c-.8-.1-1.5-.1-2.2-.1h-4.4c-.7 0-1.5 0-2.2.1l-8.8-15.4h-.6z"/><path d="m303.4 8.7c-.1-2.1-.2-4.2-.3-6.3 1.5 0 2.9.1 4.4.1 1.4.1 2.9.1 4.4.1 2.4 0 4.6 0 6.4-.1 1.9 0 3.1-.1 3.8-.2-.1.5-.2 1.2-.2 2.1v1.2c0 .3.1.6.1 1-.9-.1-2-.1-3.1-.2s-2.2-.1-3.3-.2-2-.1-2.9-.1c-.8 0-1.5 0-1.8 0-.1 1.8-.2 3.6-.2 5.3v5.3c2.1 0 4-.1 5.8-.1 1.7-.1 3.5-.1 5.4-.2-.1.6-.2 1-.2 1.3v.9c0 .3 0 .5.1.8 0 .3.1.7.2 1.2-3.7-.3-7.4-.4-11.1-.4v3.1 3.1c0 2.1 0 4.2.1 6.1 1.9 0 3.7-.1 5.6-.1 1.9-.1 3.7-.3 5.6-.5-.1.4-.1.7-.1 1v1.2 1.2c0 .3.1.5.1.7-.9 0-2-.1-3.3-.1s-3.1 0-5.3 0h-7.8c-.7 0-1.3 0-1.7 0s-.7 0-1 .1c.1-2 .2-4.1.3-6.2s.1-4.5.1-7.2v-6.7c0-2.7 0-5.1-.1-7.2z"/><path d="m353.4 11.7c0-1.2-.1-2.3-.4-3.1s-.7-1.5-1.1-2c-.5-.5-1-.9-1.7-1.1-.6-.2-1.3-.3-2-.3h-1.6c-.2 0-.3 0-.4 0 0 2.4-.1 4.7-.1 6.9v6.8c.8 0 1.7-.1 2.5-.2.9-.2 1.7-.5 2.4-1s1.3-1.2 1.8-2.2c.4-.9.6-2.2.6-3.8zm-14.6 4.2c0-2.7 0-5.1-.1-7.2s-.2-4.2-.3-6.3c.6.1 1.2.1 1.8.2.7 0 1.4.1 2.2.1 1.1 0 2.3 0 3.6-.1 1.2-.1 2.4-.1 3.6-.1 2.3 0 4.1.2 5.4.5s2.3.8 3.1 1.5c1 .9 1.8 1.8 2.3 2.8s.7 2.3.7 3.8c0 1.9-.3 3.5-.9 4.8s-1.5 2.4-2.6 3.3c-1.1.8-2.5 1.4-4 1.8s-3.2.6-5.1.6h-2.5c0 2.5 0 4.9.1 7.3 0 2.4.2 4.8.3 7.2-.6-.1-1.2-.1-1.8-.1h-4.4c-.7 0-1.3 0-1.8.1.1-2 .2-4.1.3-6.2s.1-4.5.1-7.2z"/><path d="m404 18.2c0-2.1-.3-4-.8-5.7s-1.2-3.1-2.2-4.3c-.9-1.2-2.1-2.1-3.4-2.7s-2.8-1-4.3-1c-1.7 0-3.2.4-4.5 1.2s-2.4 1.9-3.4 3.3c-.9 1.4-1.6 3-2.1 4.8s-.7 3.8-.7 5.9c0 2.6.3 4.8.8 6.6.6 1.8 1.3 3.2 2.3 4.3.9 1.1 2 1.9 3.3 2.4 1.2.5 2.5.7 3.9.7 1.5 0 2.9-.3 4.2-.9s2.5-1.6 3.5-2.8c1-1.3 1.8-2.9 2.4-4.9.7-1.9 1-4.3 1-6.9zm-29.3 1c0-2.4.4-4.7 1.3-6.8s2.2-4 3.8-5.6 3.6-2.9 5.9-3.8 4.9-1.4 7.7-1.4c2.6 0 5.1.4 7.3 1.1 2.3.7 4.2 1.8 5.9 3.2s3 3.3 3.9 5.5c1 2.2 1.4 4.8 1.4 7.7 0 2.5-.5 4.7-1.4 6.9-.9 2.1-2.2 4-3.9 5.6s-3.6 2.8-5.9 3.7-4.8 1.3-7.5 1.3c-2.6 0-5-.3-7.3-1-2.3-.6-4.2-1.7-5.9-3.1s-3-3.2-4-5.4c-.8-2.2-1.3-4.8-1.3-7.9z"/><path d="m429 8.7c-.1-2.1-.2-4.2-.3-6.3.6.1 1.2.1 1.8.2.7 0 1.4.1 2.2.1s1.6 0 2.2-.1c.7 0 1.3-.1 1.8-.2-.1 2.1-.2 4.2-.3 6.3s-.1 4.5-.1 7.2v6.7c0 2.7 0 5.1.1 7.2s.2 4.2.3 6.2c-.6-.1-1.2-.1-1.8-.1h-4.4c-.7 0-1.3 0-1.8.1.1-2 .2-4.1.3-6.2s.1-4.5.1-7.2v-6.7c0-2.7 0-5.1-.1-7.2z"/><path d="m456.5 12.1c0-2.3 0-4.2-.1-5.7s-.1-2.9-.1-4.1c.9.2 1.6.2 2.2.2s1.3-.1 2.2-.2c3.6 4 7.1 7.8 10.6 11.7 3.5 3.8 7.1 7.7 10.7 11.7v-9c0-1.6 0-3.2 0-4.7 0-1.6 0-3 0-4.3s-.1-2.4-.1-3.4c0-.9-.1-1.6-.2-1.9.9.2 1.7.2 2.2.2.6 0 1.3-.1 2.2-.2-.2 3-.3 5.7-.4 8.1s-.2 4.7-.2 6.8c-.1 2.1-.1 4.2-.1 6.3v6.6 5.8c-.7-.1-1.3-.1-2-.1s-1.4 0-1.9.1c-6.7-7.8-13.9-15.7-21.4-23.7 0 .9-.1 1.9-.1 2.8v2.9 5.7 5c0 1.4 0 2.5.1 3.5 0 .9.1 1.7.1 2.3s.1 1.1.1 1.4c-.4-.1-.8-.1-1.2-.1s-.8 0-1.1 0c-.8 0-1.5 0-2.3.1.1-.3.1-1.2.2-2.8s.2-3.6.3-5.9.2-4.8.3-7.5c-.1-2.6 0-5.1 0-7.6z"/><path d="m510.7 7.7c0-.8-.1-1.4-.1-1.7-.5 0-1.1 0-1.8 0s-1.5.1-2.3.1-1.7.1-2.5.2c-.9.1-1.6.2-2.4.3.1-.4.1-.7.2-1.1 0-.4.1-.7.1-1.1s0-.7-.1-1.1c0-.4-.1-.7-.2-1.1 1.1 0 2.1.1 3 .1s1.8.1 2.7.1h3 3.9 3.9 3c.9 0 1.8 0 2.7-.1.9 0 1.8-.1 2.8-.1-.1.4-.1.7-.2 1.1 0 .4-.1.7-.1 1.1s0 .7.1 1.1c0 .4.1.7.2 1.1-.7-.1-1.4-.2-2.2-.3s-1.6-.1-2.4-.2-1.6-.1-2.3-.1-1.3 0-1.8 0c0 .2-.1.4-.1.7v1 14.9c0 2.7 0 5.1.1 7.2s.2 4.2.3 6.2c-.6-.1-1.2-.1-1.8-.1h-4.4c-.7 0-1.3 0-1.8.1.1-2 .2-4.1.3-6.2s.1-4.5.1-7.2v-12.3c.2-.9.1-1.8.1-2.6z"/><path d="m1.8 19.3c0-.8.1-1.5.4-2.1.3-.7.7-1.2 1.2-1.7s1.1-.9 1.7-1.2c.7-.3 1.4-.4 2.1-.4.8 0 1.5.1 2.1.4.7.3 1.2.7 1.7 1.2s.9 1.1 1.2 1.7c.3.7.4 1.4.4 2.1 0 .8-.1 1.5-.4 2.1-.3.7-.7 1.2-1.2 1.7s-1.1.9-1.7 1.2c-.7.3-1.4.4-2.1.4-.8 0-1.5-.1-2.1-.4-.7-.3-1.2-.7-1.7-1.2s-.9-1.1-1.2-1.7c-.2-.6-.4-1.4-.4-2.1z"/><path d="m31.8 19.3c0-.8.1-1.5.4-2.1.3-.7.7-1.2 1.2-1.7s1.1-.9 1.7-1.2c.7-.3 1.4-.4 2.1-.4.8 0 1.5.1 2.1.4.7.3 1.2.7 1.7 1.2s.9 1.1 1.2 1.7c.3.7.4 1.4.4 2.1 0 .8-.1 1.5-.4 2.1-.3.7-.7 1.2-1.2 1.7s-1.1.9-1.7 1.2c-.7.3-1.4.4-2.1.4-.8 0-1.5-.1-2.1-.4-.7-.3-1.2-.7-1.7-1.2s-.9-1.1-1.2-1.7c-.2-.6-.4-1.4-.4-2.1z"/><path d="m61.8 19.3c0-.8.1-1.5.4-2.1.3-.7.7-1.2 1.2-1.7s1.1-.9 1.7-1.2c.7-.3 1.4-.4 2.1-.4.8 0 1.5.1 2.1.4s1.2.7 1.7 1.2.9 1.1 1.2 1.7c.3.7.4 1.4.4 2.1 0 .8-.1 1.5-.4 2.1-.3.7-.7 1.2-1.2 1.7s-1.1.9-1.7 1.2c-.7.3-1.4.4-2.1.4-.8 0-1.5-.1-2.1-.4-.7-.3-1.2-.7-1.7-1.2s-.9-1.1-1.2-1.7-.4-1.4-.4-2.1z"/></g></svg>