<svg viewBox="0 0 103.82 103.82" xmlns="http://www.w3.org/2000/svg" xmlns:xlink="http://www.w3.org/1999/xlink"><linearGradient id="a" gradientUnits="userSpaceOnUse" x1="44.82" x2="87.7" y1="86.92" y2="12.65"><stop offset="0" stop-color="#9182d1"/><stop offset=".2" stop-color="#887ac8"/><stop offset=".52" stop-color="#7067af"/><stop offset=".92" stop-color="#494788"/><stop offset="1" stop-color="#414180"/></linearGradient><clipPath id="b"><path d="m43.41-1.98v104.22h62.41v-104.22zm8.5 15c-1.16 0-2.3.06-3.43.16-2.41-1.25-4.07-3.76-4.07-6.66 0-2.66 1.4-5 3.5-6.33 1.32-.1 2.66-.17 4-.17z"/></clipPath><g fill="none" stroke-miterlimit="10" stroke-width="13"><circle cx="51.91" cy="51.91" r="45.41" stroke="#e4e4e4"/><path d="m69.65 93.75c16.27-6.91 27.67-23.03 27.67-41.82 0-25.08-20.33-45.41-45.41-45.41" stroke="url(#a)" stroke-linecap="round"/><path d="m11.98 73.58c-3.5-6.43-5.48-13.81-5.48-21.64 0-25.09 20.33-45.42 45.41-45.42" stroke="#e4e4e4"/></g><g clip-path="url(#b)"><path d="m69.65 93.75c16.27-6.91 27.67-23.03 27.67-41.82 0-25.08-20.33-45.41-45.41-45.41" fill="none" stroke="url(#a)" stroke-linecap="round" stroke-miterlimit="10" stroke-width="13"/></g><path d="m43.08 62.65v-3.23h-8.38v-2.55l6.03-12.77h3.08l-6.03 12.77h5.29v-5.02h2.73v5.02h1.84v2.55h-1.84v3.23h-2.73z" fill="#333132"/><path d="m50.69 62.65 6.52-15.99h-8.26v-2.56h11.16v2.56l-6.51 15.99z" fill="#333132"/><path d="m64.73 49.25c-.46 0-.89-.11-1.27-.34s-.69-.53-.92-.91-.34-.81-.34-1.28.12-.88.35-1.26.54-.69.93-.92c.38-.23.8-.34 1.25-.34s.89.11 1.27.34.69.53.92.91.34.81.34 1.28-.12.89-.34 1.28-.54.69-.92.91c-.38.23-.8.34-1.27.34zm-1.12 5.27-.98-.98 9.14-9.14.98.99zm1.12-6.54c.23 0 .43-.06.63-.17.19-.12.35-.27.46-.46.12-.19.17-.4.17-.62s-.06-.43-.17-.63c-.11-.19-.27-.34-.46-.46-.19-.11-.4-.17-.63-.17s-.43.06-.62.17c-.19.12-.34.27-.46.46s-.18.4-.18.63.06.43.18.62.27.35.46.46.4.17.62.17zm5.91 6.75c-.46 0-.89-.11-1.27-.34s-.69-.53-.92-.91-.34-.81-.34-1.28.12-.88.35-1.26.54-.69.93-.92c.38-.23.8-.34 1.25-.34s.89.11 1.27.34.69.53.92.91.34.81.34 1.28-.11.89-.34 1.28-.53.69-.92.91-.81.34-1.27.34zm0-1.27c.23 0 .44-.06.63-.17s.34-.27.46-.46.17-.4.17-.63-.06-.43-.17-.62-.27-.35-.46-.46-.4-.17-.63-.17-.43.06-.62.17c-.19.12-.34.27-.46.46s-.17.4-.17.62.06.43.17.63c.11.19.27.35.46.46.19.12.4.17.62.17z" fill="#333132"/></svg>