<svg enable-background="new 0 0 942.4 435.5" viewBox="0 0 942.4 435.5" xmlns="http://www.w3.org/2000/svg" xmlns:xlink="http://www.w3.org/1999/xlink"><linearGradient id="a"><stop offset="0" stop-color="#5454a8"/><stop offset=".28" stop-color="#6661b3"/><stop offset=".73" stop-color="#7f71c2"/><stop offset="1" stop-color="#8878c8"/></linearGradient><linearGradient id="b" gradientTransform="matrix(.75 .0010472 .00074176 -1 -93.4566 -577.6124)" gradientUnits="userSpaceOnUse" x1="223.4163" x2="605.2064" xlink:href="#a" y1="-949.4083" y2="-949.4083"/><linearGradient id="c"><stop offset="0" stop-color="#8878c8"/><stop offset=".27" stop-color="#7f71c2"/><stop offset=".72" stop-color="#6661b3"/><stop offset="1" stop-color="#5454a8"/></linearGradient><linearGradient id="d" gradientTransform="matrix(1 0 0 -1 0 -578)" gradientUnits="userSpaceOnUse" x1="-.2451" x2="82.2649" xlink:href="#c" y1="-949.71" y2="-949.71"/><linearGradient id="e" gradientTransform="matrix(1 0 0 -1 0 -578)" gradientUnits="userSpaceOnUse" x1="72.1049" x2="361.4049" xlink:href="#a" y1="-784.28" y2="-784.28"/><linearGradient id="f" gradientTransform="matrix(1 0 0 -1 0 -578)" gradientUnits="userSpaceOnUse" x1="-.2451" x2="82.2649" xlink:href="#c" y1="-784.28" y2="-784.28"/><linearGradient id="g" gradientTransform="matrix(1 0 0 -1 0 -578)" gradientUnits="userSpaceOnUse" x1="72.1049" x2="361.4049" xlink:href="#a" y1="-618.84" y2="-618.84"/><linearGradient id="h" gradientTransform="matrix(1 0 0 -1 0 -578)" gradientUnits="userSpaceOnUse" x1="-.2451" x2="82.2649" xlink:href="#c" y1="-618.84" y2="-618.84"/><path d="m409.1 382.5v-28.4h4.1v12.2h14.2v-12.2h4.1v28.4h-4.1v-12.2h-14.2v12.2z"/><path d="m440.1 391.9 4.1-11.2.1 3.3-9.3-22.8h4.3l6.9 17.6h-1.2l6.6-17.6h4.2l-11.7 30.7z"/><path d="m459.4 382.5v-28.4h4.1v13.1h-.5v15.3zm10 .6c-2 0-3.7-.5-5.1-1.5s-2.4-2.3-3.1-4-1.1-3.6-1.1-5.7.4-4 1-5.7 1.7-3 3.1-4 3.1-1.5 5.1-1.5 3.7.5 5.2 1.5 2.6 2.3 3.4 4 1.2 3.6 1.2 5.7-.4 4-1.2 5.7-1.9 3-3.3 4c-1.5 1-3.3 1.5-5.2 1.5zm-.6-3.8c1.3 0 2.4-.3 3.3-1s1.5-1.6 1.9-2.7.6-2.4.6-3.8-.2-2.6-.6-3.8-1.1-2-2-2.7-2-1-3.4-1c-1.3 0-2.4.3-3.2 1s-1.5 1.5-1.9 2.6-.6 2.4-.6 3.9.2 2.8.6 3.9 1 2 1.9 2.7 2 1 3.4.9z"/><path d="m483.7 382.5v-21.3h3.7v5.2l-.5-.7c.3-.7.6-1.3 1-1.9s.9-1 1.5-1.4c.5-.4 1.1-.7 1.8-.9s1.3-.4 2-.4 1.4 0 2 .1v3.9c-.7-.2-1.5-.2-2.3-.2s-1.6.4-2.3.8-1.2 1-1.6 1.6-.7 1.3-.8 2.1c-.2.8-.3 1.5-.3 2.4v10.7z"/><path d="m499.3 357.7v-4h4.1v4zm0 24.8v-21.3h4.1v21.3z"/><path d="m518 383.1c-2 0-3.7-.5-5.1-1.5s-2.5-2.3-3.3-4-1.2-3.6-1.2-5.7.4-4 1.2-5.7 1.9-3 3.4-4 3.2-1.5 5.2-1.5 3.7.5 5.1 1.5 2.4 2.3 3.1 4 1 3.6 1 5.7-.3 4-1.1 5.7-1.8 3-3.1 4-3.2 1.5-5.2 1.5zm.5-3.8c1.3 0 2.5-.3 3.3-1s1.5-1.5 1.9-2.7.6-2.4.6-3.9-.2-2.8-.6-3.9-1-2-1.8-2.6-1.9-1-3.2-1c-1.4 0-2.5.3-3.4 1s-1.5 1.6-2 2.7-.6 2.4-.6 3.8.2 2.7.6 3.8 1.1 2 1.9 2.7c.9.8 2 1.1 3.3 1.1zm5.8 3.2v-15.3h-.5v-13.1h4.1v28.4z"/><path d="m543.3 383.1c-2.1 0-4-.5-5.6-1.4s-2.8-2.2-3.7-3.9-1.3-3.6-1.3-5.8c0-2.3.4-4.3 1.3-6s2.1-3 3.7-4 3.4-1.4 5.5-1.4 4 .5 5.5 1.5 2.7 2.4 3.4 4.3c.8 1.9 1 4 .9 6.6h-4.1v-1.5c0-2.5-.5-4.3-1.4-5.5s-2.3-1.8-4.2-1.8c-2.1 0-3.6.6-4.7 2-1 1.3-1.6 3.2-1.6 5.6s.5 4.1 1.6 5.4 2.5 1.9 4.5 1.9c1.3 0 2.4-.3 3.3-.9s1.7-1.4 2.2-2.5l4 1.3c-.8 1.9-2.1 3.4-3.8 4.4s-3.4 1.7-5.5 1.7zm-7.6-10.1v-3.2h15.2v3.2z"/><path d="m564.9 382.5 9.2-28.4h5.9l9.2 28.4h-4.2l-8.5-25.9h1.1l-8.4 25.9zm4.8-6.4v-3.9h14.8v3.9z"/><path d="m592.8 382.5v-21.3h3.7v5.2l-.5-.7c.3-.7.6-1.3 1-1.9s.9-1 1.5-1.4c.5-.4 1.1-.7 1.8-.9s1.3-.4 2-.4 1.4 0 2 .1v3.9c-.7-.2-1.5-.2-2.3-.2s-1.6.4-2.3.8-1.2 1-1.6 1.6-.7 1.3-.8 2.1c-.2.8-.3 1.5-.3 2.4v10.7z"/><path d="m608.2 382.5v-28.4h4.1v13.1h-.5v15.3zm10 .6c-2 0-3.7-.5-5.1-1.5s-2.4-2.3-3.1-4-1.1-3.6-1.1-5.7.3-4 1-5.7 1.7-3 3.1-4 3.1-1.5 5.1-1.5 3.7.5 5.2 1.5 2.6 2.3 3.4 4 1.2 3.6 1.2 5.7-.4 4-1.2 5.7-1.9 3-3.3 4-3.2 1.5-5.2 1.5zm-.6-3.8c1.3 0 2.4-.3 3.3-1s1.5-1.6 1.9-2.7.6-2.4.6-3.8-.2-2.6-.6-3.8-1.1-2-2-2.7-2-1-3.4-1c-1.3 0-2.3.3-3.2 1s-1.5 1.5-1.8 2.6c-.4 1.1-.6 2.4-.6 3.9s.2 2.8.6 3.9 1 2 1.9 2.7 2 1 3.3.9z"/><path d="m642.1 383.1c-2.1 0-4-.5-5.6-1.4s-2.8-2.2-3.7-3.9-1.3-3.6-1.3-5.8c0-2.3.4-4.3 1.3-6s2.1-3 3.7-4 3.4-1.4 5.5-1.4 4 .5 5.5 1.5 2.7 2.4 3.4 4.3c.8 1.9 1 4 .9 6.6h-4.1v-1.5c0-2.5-.5-4.3-1.4-5.5s-2.3-1.8-4.2-1.8c-2.1 0-3.6.6-4.7 2-1 1.3-1.6 3.2-1.6 5.6s.5 4.1 1.6 5.4 2.5 1.9 4.5 1.9c1.3 0 2.4-.3 3.3-.9s1.7-1.4 2.2-2.5l4 1.3c-.8 1.9-2.1 3.4-3.8 4.4s-3.4 1.7-5.5 1.7zm-7.5-10.1v-3.2h15.2v3.2z"/><path d="m656.7 357.7v-4h4.1v4zm0 24.8v-21.3h4.1v21.3z"/><path d="m664.6 364.5v-3.3h14.5v3.3zm14.6 18c-1.3.3-2.7.4-3.9.3s-2.4-.3-3.5-.8-1.8-1.2-2.3-2.2c-.5-.9-.7-1.8-.7-2.7s0-2 0-3.1v-18.8h4.1v18.6 2.2c0 .6.2 1.2.4 1.6.5.8 1.2 1.3 2.2 1.4s2.2.1 3.6-.1z"/><path d="m691.8 383c-2.6 0-4.7-.6-6.3-1.7s-2.6-2.8-3-4.8l4.2-.6c.3 1.1.9 2 1.8 2.6 1 .6 2.1 1 3.5 1 1.3 0 2.3-.3 3-.8s1.1-1.2 1.1-2.2c0-.5-.1-1-.4-1.3s-.8-.6-1.6-1c-.8-.3-2.1-.7-3.7-1.1-1.8-.5-3.3-1-4.3-1.5s-1.8-1.2-2.3-1.9-.7-1.6-.7-2.6c0-1.3.3-2.4 1-3.4s1.6-1.7 2.9-2.2c1.2-.5 2.7-.8 4.4-.8s3.1.3 4.3.8 2.3 1.2 3.1 2.2c.8.9 1.3 2 1.4 3.3l-4.2.8c-.1-1-.6-1.8-1.4-2.4s-1.9-.9-3.2-1c-1.2 0-2.3.1-3 .6s-1.2 1.1-1.2 1.9c0 .5.2.9.4 1.2.3.3.9.6 1.7 1 .8.3 2.1.7 3.8 1.1 1.8.5 3.2 1 4.2 1.5s1.8 1.2 2.2 2 .7 1.7.7 2.8c0 2.1-.8 3.8-2.3 4.9-1.3 1-3.4 1.6-6.1 1.6z"/><path d="m705.3 382.5v-21.3h3.7v6.1h.5v15.1zm12.7 0v-13.2c0-1.5-.4-2.8-1.2-3.6-.8-.9-1.8-1.3-3.1-1.3s-2.3.5-3.1 1.3c-.8.9-1.2 2.1-1.2 3.5l-2-1.3c0-1.4.3-2.6 1-3.7s1.6-2 2.7-2.6 2.4-1 3.9-1 2.8.3 3.9 1c1.1.6 1.9 1.5 2.4 2.7s.8 2.5.8 4v14.2zm12.8 0v-13.2c0-1.5-.4-2.7-1.2-3.6s-1.8-1.3-3.1-1.3c-.8 0-1.5.2-2.2.5-.7.4-1.2.9-1.6 1.6s-.6 1.6-.6 2.7l-2-1c0-1.5.3-2.8 1-3.9s1.6-2 2.7-2.6 2.4-.9 3.8-.9c2.3 0 4.1.7 5.3 2.1s1.9 3.2 1.9 5.5v14.2z"/><path d="m749.8 383.1c-2.1 0-4-.5-5.5-1.4s-2.8-2.3-3.6-4-1.3-3.6-1.3-5.8.4-4.2 1.3-5.9 2.1-3 3.6-3.9 3.4-1.4 5.5-1.4 4 .5 5.5 1.4c1.6 1 2.8 2.3 3.6 4s1.3 3.6 1.3 5.8-.4 4.2-1.3 5.9-2.1 3-3.6 4c-1.6.8-3.4 1.3-5.5 1.3zm0-3.9c2 0 3.5-.7 4.6-2.1 1-1.4 1.5-3.1 1.5-5.3s-.5-4-1.5-5.3-2.5-2-4.5-2c-1.4 0-2.5.3-3.4.9s-1.6 1.5-2 2.6-.7 2.4-.7 3.8c0 2.2.5 4 1.5 5.4 1 1.3 2.5 2 4.5 2z"/><path d="m773.4 383.1c-2 0-3.7-.5-5.1-1.5s-2.5-2.3-3.3-4-1.2-3.6-1.2-5.7.4-4 1.2-5.7 1.9-3 3.4-4 3.2-1.5 5.2-1.5 3.7.5 5.1 1.5 2.4 2.3 3.1 4 1 3.6 1 5.7-.3 4-1.1 5.7-1.8 3-3.1 4-3.1 1.5-5.2 1.5zm.6-3.8c1.3 0 2.5-.3 3.3-1s1.5-1.5 1.9-2.7.6-2.4.6-3.9-.2-2.8-.6-3.9-1-2-1.8-2.6-1.9-1-3.2-1c-1.4 0-2.5.3-3.4 1s-1.5 1.6-2 2.7-.6 2.4-.6 3.8.2 2.7.6 3.8 1.1 2 1.9 2.7c.9.8 2 1.1 3.3 1.1zm5.8 3.2v-15.3h-.5v-13.1h4.1v28.4z"/><path d="m798.8 383.1c-2.1 0-4-.5-5.6-1.4s-2.8-2.2-3.7-3.9-1.3-3.6-1.3-5.8c0-2.3.4-4.3 1.3-6s2.1-3 3.7-4 3.4-1.4 5.5-1.4 4 .5 5.5 1.5 2.7 2.4 3.4 4.3c.8 1.9 1 4 .9 6.6h-4.1v-1.5c0-2.5-.5-4.3-1.4-5.5s-2.3-1.8-4.2-1.8c-2.1 0-3.6.6-4.7 2-1 1.3-1.6 3.2-1.6 5.6s.5 4.1 1.6 5.4 2.5 1.9 4.5 1.9c1.3 0 2.4-.3 3.3-.9s1.7-1.4 2.2-2.5l4 1.3c-.8 1.9-2.1 3.4-3.8 4.4s-3.4 1.7-5.5 1.7zm-7.6-10.1v-3.2h15.2v3.2z"/><path d="m813.4 382.5v-29h4.1v29z"/><path d="m823.7 382.5v-29h4.1v29z"/><path d="m843.4 383.1c-2.1 0-4-.5-5.6-1.4s-2.8-2.2-3.7-3.9-1.3-3.6-1.3-5.8c0-2.3.4-4.3 1.3-6s2.1-3 3.7-4 3.4-1.4 5.5-1.4 4 .5 5.5 1.5 2.7 2.4 3.4 4.3c.8 1.9 1 4 .9 6.6h-4.1v-1.5c0-2.5-.5-4.3-1.4-5.5s-2.3-1.8-4.2-1.8c-2.1 0-3.6.6-4.7 2-1 1.3-1.6 3.2-1.6 5.6s.5 4.1 1.6 5.4 2.5 1.9 4.5 1.9c1.3 0 2.4-.3 3.3-.9s1.7-1.4 2.2-2.5l4 1.3c-.8 1.9-2.1 3.4-3.8 4.4s-3.4 1.7-5.5 1.7zm-7.6-10.1v-3.2h15.2v3.2z"/><path d="m409.1 429.7v-28.4h4.1v13.1h-.5v15.3zm10 .6c-2 0-3.7-.5-5.1-1.5s-2.4-2.3-3.1-4-1.1-3.6-1.1-5.7.4-4 1-5.7 1.7-3 3.1-4 3.1-1.5 5.1-1.5 3.7.5 5.2 1.5 2.6 2.3 3.4 4 1.2 3.6 1.2 5.7-.4 4-1.2 5.7-1.9 3-3.3 4c-1.5 1-3.2 1.5-5.2 1.5zm-.6-3.7c1.3 0 2.4-.3 3.3-1s1.5-1.6 1.9-2.7.6-2.4.6-3.8-.2-2.6-.6-3.8c-.4-1.1-1.1-2-2-2.7s-2-1-3.4-1c-1.3 0-2.4.3-3.2 1s-1.5 1.5-1.9 2.6-.6 2.4-.6 3.9.2 2.8.6 3.9 1 2 1.9 2.7 2.1.9 3.4.9z"/><path d="m443 430.3c-2.1 0-4-.5-5.6-1.4s-2.8-2.2-3.7-3.9-1.3-3.6-1.3-5.8c0-2.3.4-4.3 1.3-6s2.1-3 3.6-4 3.4-1.4 5.5-1.4 4 .5 5.5 1.5 2.7 2.4 3.4 4.3c.8 1.9 1 4 .9 6.6h-4.1v-1.5c0-2.5-.5-4.3-1.4-5.5s-2.3-1.8-4.2-1.8c-2.1 0-3.6.6-4.6 2-1 1.3-1.6 3.2-1.6 5.6s.5 4.1 1.6 5.4 2.5 1.9 4.5 1.9c1.3 0 2.4-.3 3.3-.9s1.7-1.4 2.2-2.5l4 1.3c-.8 1.9-2.1 3.4-3.8 4.4-1.5 1.2-3.4 1.7-5.5 1.7zm-7.5-10v-3.2h15.2v3.2z"/><path d="m465.5 430.3c-2.6 0-4.7-.6-6.3-1.7s-2.6-2.8-3-4.8l4.2-.6c.3 1.1.9 2 1.8 2.6 1 .6 2.1 1 3.5 1 1.3 0 2.3-.3 3-.8s1.1-1.2 1.1-2.2c0-.5-.1-1-.4-1.3s-.8-.6-1.6-1c-.8-.3-2.1-.7-3.7-1.1-1.8-.5-3.3-1-4.3-1.5s-1.8-1.2-2.3-1.9-.7-1.6-.7-2.6c0-1.3.3-2.4 1-3.4s1.6-1.7 2.9-2.2 2.7-.8 4.4-.8 3.1.3 4.4.8 2.3 1.2 3.1 2.2 1.3 2 1.4 3.3l-4.2.8c-.1-1-.6-1.8-1.4-2.4s-1.9-.9-3.2-1c-1.2 0-2.3.1-3 .6s-1.2 1.1-1.2 1.9c0 .5.1.9.4 1.2s.9.6 1.7 1c.9.3 2.1.7 3.8 1.1 1.8.5 3.2 1 4.2 1.5s1.8 1.2 2.2 2 .7 1.7.7 2.8c0 2.1-.8 3.8-2.3 4.9-1.4 1-3.5 1.6-6.2 1.6z"/><path d="m487.1 430.3c-2.6 0-4.7-.6-6.3-1.7s-2.6-2.8-3-4.8l4.2-.6c.3 1.1.9 2 1.8 2.6 1 .6 2.1 1 3.5 1 1.3 0 2.3-.3 3-.8s1.1-1.2 1.1-2.2c0-.5-.1-1-.4-1.3s-.8-.6-1.6-1c-.8-.3-2.1-.7-3.7-1.1-1.8-.5-3.3-1-4.3-1.5s-1.8-1.2-2.3-1.9-.7-1.6-.7-2.6c0-1.3.3-2.4 1-3.4s1.6-1.7 2.9-2.2 2.7-.8 4.4-.8 3.1.3 4.4.8 2.3 1.2 3.1 2.2 1.3 2 1.4 3.3l-4.2.8c-.1-1-.6-1.8-1.4-2.4s-1.9-.9-3.2-1c-1.2 0-2.3.1-3 .6s-1.2 1.1-1.2 1.9c0 .5.1.9.4 1.2s.9.6 1.7 1c.9.3 2.1.7 3.8 1.1 1.8.5 3.2 1 4.2 1.5s1.8 1.2 2.2 2 .7 1.7.7 2.8c0 2.1-.8 3.8-2.3 4.9-1.5 1-3.6 1.6-6.2 1.6z"/><path d="m509.8 430.3c-2.1 0-4-.5-5.6-1.4s-2.8-2.2-3.7-3.9-1.3-3.6-1.3-5.8c0-2.3.4-4.3 1.3-6s2.1-3 3.6-4 3.4-1.4 5.5-1.4 4 .5 5.5 1.5 2.7 2.4 3.4 4.3c.8 1.9 1 4 .9 6.6h-4.1v-1.5c0-2.5-.5-4.3-1.4-5.5s-2.3-1.8-4.2-1.8c-2.1 0-3.6.6-4.6 2-1 1.3-1.6 3.2-1.6 5.6s.5 4.1 1.6 5.4 2.5 1.9 4.5 1.9c1.3 0 2.4-.3 3.3-.9s1.7-1.4 2.2-2.5l4 1.3c-.8 1.9-2.1 3.4-3.8 4.4s-3.4 1.7-5.5 1.7zm-7.6-10v-3.2h15.2v3.2z"/><path d="m524.2 429.7v-21.3h3.7v5.2l-.5-.7c.3-.7.6-1.3 1-1.9s.9-1 1.5-1.4c.5-.4 1.1-.7 1.8-.9s1.3-.4 2-.4 1.4 0 2 .1v3.9c-.7-.2-1.5-.2-2.3-.2s-1.6.4-2.3.8-1.2 1-1.6 1.6-.7 1.3-.8 2.1c-.2.8-.3 1.5-.3 2.4v10.7z"/><path d="m554.8 430.3c-1.6 0-2.9-.3-4-.9s-1.9-1.4-2.4-2.3c-.5-1-.8-2-.8-3.2 0-1.1.2-2 .6-2.8s1-1.5 1.7-2.1c.8-.6 1.7-1 2.8-1.4 1-.3 2-.5 3.2-.7s2.5-.4 3.8-.6 2.6-.4 3.9-.5l-1.5.8c0-1.7-.3-2.9-1-3.7s-2-1.2-3.8-1.2c-1.1 0-2.1.3-3.1.8s-1.6 1.4-2 2.6l-3.8-1.2c.5-1.8 1.5-3.3 3-4.4s3.4-1.6 5.9-1.6c1.9 0 3.6.3 5 1s2.4 1.7 3.1 3.1c.3.7.5 1.4.6 2.2s.1 1.6.1 2.5v13.1h-3.6v-4.9l.7.6c-.9 1.6-2 2.8-3.4 3.6s-3 1.2-5 1.2zm.8-3.3c1.2 0 2.2-.2 3-.6s1.5-.9 2-1.6c.5-.6.8-1.3 1-2 .2-.6.3-1.3.4-2.1s0-1.4 0-1.9l1.3.5c-1.3.2-2.5.4-3.5.5s-2 .3-2.9.5-1.6.3-2.3.5c-.6.2-1.1.4-1.5.7s-.8.6-1 1c-.3.4-.4.9-.4 1.4s.1 1.1.4 1.5c.3.5.7.8 1.3 1.1s1.3.4 2.2.5z"/><path d="m571.8 429.7v-28.4h4.1v13.1h-.5v15.3zm10 .6c-2 0-3.7-.5-5.1-1.5s-2.4-2.3-3.1-4-1.1-3.6-1.1-5.7.3-4 1-5.7 1.7-3 3.1-4 3.1-1.5 5.1-1.5 3.7.5 5.2 1.5 2.6 2.3 3.4 4 1.2 3.6 1.2 5.7-.4 4-1.2 5.7-1.9 3-3.3 4c-1.6 1-3.3 1.5-5.2 1.5zm-.6-3.7c1.3 0 2.4-.3 3.3-1s1.5-1.6 1.9-2.7.6-2.4.6-3.8-.2-2.6-.6-3.8-1.1-2-2-2.7-2-1-3.4-1c-1.3 0-2.3.3-3.2 1s-1.5 1.5-1.8 2.6-.6 2.4-.6 3.9.2 2.8.6 3.9 1 2 1.9 2.7 1.9.9 3.3.9z"/><path d="m604 430.3c-2.6 0-4.7-.6-6.3-1.7s-2.6-2.8-3-4.8l4.2-.6c.3 1.1.9 2 1.8 2.6 1 .6 2.1 1 3.5 1 1.3 0 2.3-.3 3-.8s1.1-1.2 1.1-2.2c0-.5-.1-1-.4-1.3s-.8-.6-1.6-1c-.8-.3-2.1-.7-3.7-1.1-1.8-.5-3.3-1-4.3-1.5s-1.8-1.2-2.3-1.9-.7-1.6-.7-2.6c0-1.3.3-2.4 1-3.4s1.6-1.7 2.9-2.2 2.7-.8 4.4-.8 3.1.3 4.3.8 2.3 1.2 3.1 2.2c.8.9 1.3 2 1.4 3.3l-4.2.8c-.1-1-.6-1.8-1.4-2.4s-1.9-.9-3.2-1c-1.2 0-2.3.1-3 .6s-1.2 1.1-1.2 1.9c0 .5.2.9.4 1.2.3.3.9.6 1.7 1 .8.3 2.1.7 3.8 1.1 1.8.5 3.2 1 4.2 1.5s1.8 1.2 2.2 2 .7 1.7.7 2.8c0 2.1-.8 3.8-2.3 4.9-1.3 1-3.4 1.6-6.1 1.6z"/><path d="m617.7 405v-4h4.1v4zm0 24.7v-21.3h4.1v21.3z"/><path d="m637 430.3c-2.2 0-4-.5-5.5-1.5s-2.7-2.3-3.5-4-1.2-3.6-1.2-5.8.4-4.1 1.3-5.8 2-3 3.5-4 3.4-1.4 5.5-1.4c2.3 0 4.3.6 6 1.7 1.7 1.2 2.7 2.7 3.3 4.8l-4.1 1.2c-.4-1.2-1.1-2.1-2-2.8s-2-1-3.2-1c-1.3 0-2.5.3-3.3 1-.9.6-1.5 1.5-1.9 2.6s-.6 2.4-.7 3.8c0 2.2.5 4 1.5 5.3s2.5 2 4.4 2c1.3 0 2.4-.3 3.2-.9s1.5-1.5 1.9-2.6l4.2 1c-.7 2.1-1.8 3.7-3.5 4.8s-3.6 1.6-5.9 1.6z"/><path d="m650.7 429.7v-28.4h3.7v15.3h.5v13.1zm14.9 0v-10.5c0-.8-.1-1.7-.2-2.5s-.4-1.7-.8-2.4c-.4-.8-.9-1.4-1.6-1.8s-1.6-.7-2.8-.7c-.7 0-1.4.1-2.1.4-.7.2-1.2.6-1.7 1.2s-.9 1.2-1.2 2.1-.4 2-.4 3.2l-2.6-1c0-1.9.4-3.6 1.1-5.1s1.8-2.6 3.1-3.5 3-1.2 4.9-1.2c1.5 0 2.7.2 3.7.7s1.8 1.1 2.4 1.9 1.1 1.6 1.4 2.5.5 1.8.7 2.7.2 1.6.2 2.3v11.8z"/><path d="m684.8 430.3c-2.1 0-4-.5-5.6-1.4s-2.8-2.2-3.7-3.9-1.3-3.6-1.3-5.8c0-2.3.4-4.3 1.3-6s2.1-3 3.7-4 3.4-1.4 5.5-1.4 4 .5 5.5 1.5 2.7 2.4 3.4 4.3c.8 1.9 1 4 .9 6.6h-4.1v-1.5c0-2.5-.5-4.3-1.4-5.5s-2.3-1.8-4.2-1.8c-2.1 0-3.6.6-4.7 2-1 1.3-1.6 3.2-1.6 5.6s.5 4.1 1.6 5.4 2.5 1.9 4.5 1.9c1.3 0 2.4-.3 3.3-.9s1.7-1.4 2.2-2.5l4 1.3c-.8 1.9-2.1 3.4-3.8 4.4s-3.4 1.7-5.5 1.7zm-7.6-10v-3.2h15.2v3.2z"/><path d="m699.2 429.7v-21.3h3.7v5.2l-.5-.7c.3-.7.6-1.3 1-1.9s.9-1 1.5-1.4c.5-.4 1.1-.7 1.8-.9s1.3-.4 2-.4 1.4 0 2 .1v3.9c-.7-.2-1.5-.2-2.3-.2s-1.6.4-2.3.8-1.2 1-1.6 1.6-.7 1.3-.8 2.1c-.2.8-.3 1.5-.3 2.4v10.7z"/><path d="m714.5 429.7v-21.3h3.7v6.1h.5v15.1zm15 0v-10.5c0-.8-.1-1.7-.2-2.5s-.4-1.7-.8-2.4c-.4-.8-.9-1.4-1.6-1.8s-1.6-.7-2.8-.7c-.7 0-1.4.1-2.1.4-.7.2-1.2.6-1.7 1.2s-.9 1.2-1.2 2.1-.4 2-.4 3.2l-2.6-1c0-1.9.4-3.6 1.1-5.1s1.8-2.6 3.1-3.5 3-1.2 4.9-1.2c1.5 0 2.7.2 3.7.7s1.8 1.1 2.4 1.9 1.1 1.6 1.4 2.5.5 1.8.7 2.7.2 1.6.2 2.3v11.8z"/><path d="m409.5 217.6v-28.4h4.1v28.4z"/><path d="m428.1 218.2c-2 0-3.7-.5-5.1-1.5s-2.5-2.3-3.3-4-1.2-3.6-1.2-5.7.4-4.1 1.2-5.7c.8-1.7 1.9-3 3.4-4s3.2-1.5 5.2-1.5 3.7.5 5.1 1.5 2.4 2.3 3.1 4 1 3.6 1 5.7-.4 4-1.1 5.7-1.8 3-3.1 4-3.1 1.5-5.2 1.5zm.6-3.8c1.4 0 2.5-.3 3.3-1s1.5-1.5 1.9-2.7c.4-1.1.6-2.4.6-3.9s-.2-2.8-.6-3.9-1-2-1.9-2.6c-.8-.6-1.9-.9-3.2-.9-1.4 0-2.5.3-3.4 1s-1.5 1.6-2 2.7-.6 2.4-.6 3.8.2 2.7.6 3.8 1.1 2 1.9 2.7c1 .7 2.1 1 3.4 1zm5.8 3.2v-15.3h-.5v-13.1h4.1v28.4z"/><path d="m453.5 218.2c-2.1 0-4-.5-5.6-1.4s-2.8-2.2-3.7-3.9-1.3-3.6-1.3-5.8c0-2.3.4-4.3 1.3-6.1s2.1-3 3.6-4 3.4-1.4 5.5-1.4 4 .5 5.5 1.5 2.7 2.4 3.4 4.3c.8 1.9 1 4.1.9 6.6h-4.1v-1.5c0-2.5-.5-4.3-1.4-5.5s-2.3-1.8-4.2-1.8c-2.1 0-3.6.6-4.6 1.9s-1.6 3.2-1.6 5.6.5 4.1 1.6 5.4 2.5 1.9 4.5 1.9c1.3 0 2.4-.3 3.3-.9s1.7-1.4 2.2-2.5l4 1.3c-.8 1.9-2.1 3.4-3.8 4.4-1.6 1.3-3.4 1.9-5.5 1.9zm-7.6-10.1v-3.2h15.2v3.2z"/><path d="m467.8 217.6v-21.3h3.7v6.1h.5v15.1zm15 0v-10.5c0-.8-.1-1.7-.2-2.6s-.4-1.7-.8-2.4-.9-1.4-1.6-1.8c-.7-.5-1.6-.7-2.8-.7-.7 0-1.4.1-2.1.4-.7.2-1.2.6-1.7 1.2s-.9 1.2-1.2 2.1-.4 1.9-.4 3.2l-2.6-1c0-1.9.4-3.6 1.1-5.1s1.8-2.6 3.1-3.5c1.4-.8 3-1.2 4.9-1.2 1.5 0 2.7.2 3.7.7s1.8 1.1 2.4 1.9 1.1 1.6 1.4 2.5.5 1.8.7 2.7.2 1.6.2 2.3v11.8z"/><path d="m489.8 199.6v-3.3h14.5v3.3zm14.6 18c-1.3.3-2.6.4-3.9.3-1.3 0-2.4-.3-3.5-.8s-1.8-1.2-2.3-2.2c-.5-.9-.7-1.8-.7-2.7s0-1.9 0-3.1v-18.8h4.1v18.7 2.2c0 .6.1 1.2.4 1.6.5.8 1.2 1.3 2.2 1.4s2.2.1 3.6-.1z"/><path d="m508.8 192.8v-4h4.1v4zm0 24.8v-21.3h4.1v21.3z"/><path d="m516.7 199.6v-3.3h14.5v3.3zm14.5 18c-1.3.3-2.7.4-3.9.3-1.3 0-2.4-.3-3.5-.8s-1.8-1.2-2.3-2.2c-.5-.9-.7-1.8-.7-2.7s0-1.9 0-3.1v-18.8h4.1v18.7 2.2c0 .6.2 1.2.4 1.6.5.8 1.2 1.3 2.2 1.4s2.2.1 3.6-.1z"/><path d="m539.5 227 4.1-11.2.1 3.3-9.3-22.8h4.3l6.9 17.6h-1.3l6.6-17.6h4.2l-11.7 30.7z"/><path d="m575.7 218.1c-1.5 0-2.7-.2-3.7-.7s-1.8-1.1-2.4-1.9-1.1-1.6-1.4-2.5-.5-1.8-.7-2.7c-.1-.9-.2-1.6-.2-2.3v-11.8h4.2v10.5c0 .8.1 1.7.2 2.6s.4 1.7.8 2.4c.4.8.9 1.4 1.6 1.8.7.5 1.6.7 2.8.7.7 0 1.4-.1 2.1-.4.7-.2 1.2-.6 1.7-1.2s.9-1.2 1.2-2.1.4-1.9.4-3.2l2.6 1c0 1.9-.4 3.6-1.1 5.1s-1.8 2.6-3.1 3.5-3.1 1.2-5 1.2zm7-.5v-6.1h-.5v-15.1h4.2v21.3z"/><path d="m592.2 217.6v-21.3h3.7v6.1h.5v15.1zm14.9 0v-10.5c0-.8-.1-1.7-.2-2.6s-.4-1.7-.8-2.4c-.4-.8-.9-1.4-1.6-1.8-.7-.5-1.6-.7-2.8-.7-.7 0-1.4.1-2.1.4-.7.2-1.2.6-1.7 1.2s-.9 1.2-1.2 2.1-.4 1.9-.4 3.2l-2.6-1c0-1.9.4-3.6 1.1-5.1s1.8-2.6 3.1-3.5 3-1.2 4.9-1.2c1.5 0 2.7.2 3.7.7s1.8 1.1 2.4 1.9 1.1 1.6 1.4 2.5.5 1.8.7 2.7.2 1.6.2 2.3v11.8z"/><path d="m625.3 218.2c-2 0-3.7-.5-5.1-1.5s-2.5-2.3-3.3-4-1.2-3.6-1.2-5.7.4-4.1 1.2-5.7 1.9-3 3.4-4 3.2-1.5 5.2-1.5 3.7.5 5.1 1.5 2.4 2.3 3.1 4 1 3.6 1 5.7-.3 4-1.1 5.7-1.8 3-3.1 4-3.2 1.5-5.2 1.5zm.6-3.8c1.3 0 2.5-.3 3.3-1s1.5-1.5 1.9-2.7.6-2.4.6-3.9-.2-2.8-.6-3.9-1-2-1.8-2.6-1.9-.9-3.2-.9c-1.4 0-2.5.3-3.4 1s-1.5 1.6-2 2.7-.6 2.4-.6 3.8.2 2.7.6 3.8 1.1 2 1.9 2.7c.9.7 2 1 3.3 1zm5.7 3.2v-15.3h-.5v-13.1h4.1v28.4z"/><path d="m648.3 217.6 9.2-28.4h5.9l9.2 28.4h-4.3l-8.5-25.9h1.1l-8.4 25.9zm4.8-6.4v-3.9h14.8v3.9z"/><path d="m684.8 218.2c-2.2 0-4-.5-5.5-1.5s-2.7-2.3-3.5-4-1.2-3.6-1.2-5.8.4-4.1 1.3-5.8 2-3 3.5-4 3.4-1.4 5.5-1.4c2.3 0 4.3.6 6 1.7 1.7 1.2 2.7 2.7 3.3 4.8l-4.1 1.2c-.4-1.2-1.1-2.1-2-2.8s-2-1-3.2-1c-1.3 0-2.5.3-3.3 1s-1.5 1.5-1.9 2.6-.6 2.4-.7 3.8c0 2.2.5 4 1.5 5.3s2.5 2 4.4 2c1.3 0 2.4-.3 3.2-.9s1.5-1.5 1.9-2.6l4.2 1c-.7 2.1-1.8 3.7-3.5 4.8s-3.6 1.6-5.9 1.6z"/><path d="m707.5 218.2c-2.2 0-4-.5-5.5-1.5s-2.7-2.3-3.5-4-1.2-3.6-1.2-5.8.4-4.1 1.3-5.8 2-3 3.5-4 3.4-1.4 5.5-1.4c2.3 0 4.3.6 6 1.7 1.7 1.2 2.7 2.7 3.3 4.8l-4.1 1.2c-.4-1.2-1.1-2.1-2-2.8s-2-1-3.2-1c-1.3 0-2.5.3-3.3 1s-1.5 1.5-1.9 2.6-.6 2.4-.7 3.8c0 2.2.5 4 1.5 5.3s2.5 2 4.4 2c1.3 0 2.4-.3 3.2-.9s1.5-1.5 1.9-2.6l4.2 1c-.7 2.1-1.8 3.7-3.5 4.8s-3.6 1.6-5.9 1.6z"/><path d="m730.5 218.2c-2.1 0-4-.5-5.6-1.4s-2.8-2.2-3.7-3.9-1.3-3.6-1.3-5.8c0-2.3.4-4.3 1.3-6.1s2.1-3 3.7-4 3.4-1.4 5.5-1.4 4 .5 5.5 1.5 2.7 2.4 3.4 4.3c.8 1.9 1 4.1.9 6.6h-4.1v-1.5c0-2.5-.5-4.3-1.4-5.5s-2.3-1.8-4.2-1.8c-2.1 0-3.6.6-4.7 1.9-1 1.3-1.6 3.2-1.6 5.6s.5 4.1 1.6 5.4 2.5 1.9 4.5 1.9c1.3 0 2.4-.3 3.3-.9s1.7-1.4 2.2-2.5l4 1.3c-.8 1.9-2.1 3.4-3.8 4.4s-3.4 1.9-5.5 1.9zm-7.6-10.1v-3.2h15.2v3.2z"/><path d="m753 218.1c-2.6 0-4.7-.6-6.3-1.7s-2.6-2.8-3-4.8l4.2-.6c.3 1.1.9 2 1.8 2.6s2.1 1 3.5 1c1.3 0 2.3-.3 3-.8s1.1-1.2 1.1-2.2c0-.5-.1-1-.4-1.3s-.8-.6-1.6-1c-.8-.3-2.1-.7-3.7-1.1-1.8-.5-3.3-1-4.3-1.5s-1.8-1.2-2.3-1.9-.7-1.6-.7-2.6c0-1.3.3-2.4 1-3.4s1.6-1.7 2.9-2.2c1.2-.5 2.7-.8 4.4-.8s3.1.3 4.3.8c1.3.5 2.3 1.2 3.1 2.2.8.9 1.3 2 1.4 3.3l-4.2.8c-.1-1-.6-1.8-1.4-2.4s-1.9-.9-3.2-1c-1.2-.1-2.3.1-3 .6s-1.2 1.1-1.2 1.9c0 .5.2.9.4 1.2s.9.6 1.7.9 2.1.7 3.8 1.1c1.8.5 3.2 1 4.2 1.5s1.8 1.2 2.2 2 .7 1.7.7 2.8c0 2.1-.8 3.8-2.3 4.9-1.3 1.2-3.4 1.8-6.1 1.7z"/><path d="m774.5 218.1c-2.6 0-4.7-.6-6.3-1.7s-2.6-2.8-3-4.8l4.2-.6c.3 1.1.9 2 1.8 2.6s2.1 1 3.5 1c1.3 0 2.3-.3 3-.8s1.1-1.2 1.1-2.2c0-.5-.1-1-.4-1.3s-.8-.6-1.6-1c-.8-.3-2.1-.7-3.7-1.1-1.8-.5-3.3-1-4.3-1.5s-1.8-1.2-2.3-1.9-.7-1.6-.7-2.6c0-1.3.3-2.4 1-3.4s1.6-1.7 2.9-2.2c1.2-.5 2.7-.8 4.4-.8s3.1.3 4.3.8c1.3.5 2.3 1.2 3.1 2.2.8.9 1.3 2 1.4 3.3l-4.2.8c-.1-1-.6-1.8-1.4-2.4s-1.9-.9-3.2-1c-1.2-.1-2.3.1-3 .6s-1.2 1.1-1.2 1.9c0 .5.2.9.4 1.2s.9.6 1.7.9 2.1.7 3.8 1.1c1.8.5 3.2 1 4.2 1.5s1.8 1.2 2.2 2 .7 1.7.7 2.8c0 2.1-.8 3.8-2.3 4.9-1.3 1.2-3.4 1.8-6.1 1.7z"/><path d="m409.1 264.8v-28.4h3.7l10.3 21.3 10.2-21.3h3.8v28.3h-3.9v-19.4l-9.2 19.4h-1.9l-9.2-19.4v19.4z"/><path d="m448.9 265.4c-1.6 0-2.9-.3-4-.9s-1.9-1.4-2.4-2.3c-.5-1-.8-2-.8-3.2 0-1.1.2-2 .6-2.8s1-1.5 1.7-2.1c.8-.6 1.7-1 2.8-1.4 1-.3 2-.5 3.2-.7s2.5-.4 3.8-.6 2.6-.4 3.9-.6l-1.5.8c0-1.7-.3-2.9-1-3.7s-2-1.2-3.8-1.2c-1.1 0-2.1.3-3.1.8s-1.6 1.4-2 2.6l-3.8-1.2c.5-1.8 1.5-3.3 3-4.4s3.4-1.6 5.9-1.6c1.9 0 3.6.3 5 1 1.4.6 2.4 1.7 3.1 3.1.3.7.5 1.4.6 2.2s.1 1.6.1 2.5v13.1h-3.6v-4.8l.7.6c-.9 1.6-2 2.8-3.4 3.6s-3 1.2-5 1.2zm.7-3.3c1.2 0 2.2-.2 3-.6s1.5-.9 2-1.6c.5-.6.9-1.3 1-2 .2-.6.4-1.3.4-2.1s0-1.4 0-1.9l1.3.5c-1.3.2-2.5.4-3.5.5s-2 .3-2.9.5c-.9.1-1.6.3-2.3.5-.6.2-1.1.4-1.5.7s-.8.6-1 1c-.3.4-.4.9-.4 1.4s.1 1.1.4 1.5c.3.5.7.8 1.3 1.1s1.3.4 2.2.5z"/><path d="m465.8 264.8v-21.3h3.7v6.1h.5v15.1h-4.2zm14.9 0v-10.5c0-.8-.1-1.7-.2-2.6s-.4-1.7-.8-2.4-.9-1.4-1.6-1.8c-.7-.5-1.6-.7-2.8-.7-.7 0-1.4.1-2.1.4s-1.2.6-1.7 1.2-.9 1.2-1.2 2.1-.4 1.9-.4 3.2l-2.6-1c0-1.9.4-3.6 1.1-5.1s1.8-2.6 3.1-3.5c1.4-.8 3-1.2 4.9-1.2 1.5 0 2.7.2 3.7.7s1.8 1.1 2.4 1.9 1.1 1.6 1.4 2.5.5 1.8.7 2.7c.1.9.2 1.6.2 2.3v11.8z"/><path d="m496.4 265.4c-1.6 0-2.9-.3-4-.9s-1.9-1.4-2.4-2.3c-.5-1-.8-2-.8-3.2 0-1.1.2-2 .6-2.8s1-1.5 1.7-2.1c.8-.6 1.7-1 2.8-1.4 1-.3 2-.5 3.2-.7s2.5-.4 3.8-.6 2.6-.4 3.9-.6l-1.5.8c0-1.7-.3-2.9-1-3.7s-2-1.2-3.8-1.2c-1.1 0-2.1.3-3.1.8s-1.6 1.4-2 2.6l-3.8-1.1c.5-1.8 1.5-3.3 3-4.4s3.4-1.6 5.9-1.6c1.9 0 3.6.3 5 1 1.4.6 2.4 1.7 3.1 3.1.3.7.5 1.4.6 2.2s.1 1.6.1 2.5v13.1h-3.6v-4.9l.7.6c-.9 1.6-2 2.8-3.4 3.6s-3 1.2-5 1.2zm.7-3.3c1.2 0 2.2-.2 3-.6s1.5-.9 2-1.6c.5-.6.9-1.3 1-2 .2-.6.4-1.3.4-2.1s0-1.4 0-1.9l1.3.5c-1.3.2-2.5.4-3.5.5s-2 .3-2.9.5c-.9.1-1.6.3-2.3.5-.6.2-1.1.4-1.5.7s-.8.6-1 1c-.3.4-.4.9-.4 1.4s.1 1.1.4 1.5c.3.5.7.8 1.3 1.1s1.3.4 2.2.5z"/><path d="m521.8 265.4c-2 0-3.7-.5-5.1-1.5s-2.5-2.3-3.3-4-1.2-3.6-1.2-5.7.4-4.1 1.2-5.7 1.9-3 3.4-4 3.2-1.5 5.2-1.5 3.7.5 5.1 1.5 2.4 2.3 3.1 4 1 3.6 1 5.7-.3 4-1.1 5.7-1.8 3-3.1 4-3.2 1.5-5.2 1.5zm.3 9.5c-1.1 0-2.2-.2-3.3-.5s-2-.9-2.9-1.6-1.6-1.5-2.2-2.5l3.8-1.9c.5.9 1.1 1.6 2 2s1.8.6 2.7.6c1.2 0 2.2-.2 3-.6s1.5-1 1.9-1.9.6-1.9.6-3.1v-6h.5v-15.8h3.6v21.8c0 .6 0 1.1-.1 1.6 0 .5-.1 1-.2 1.5-.3 1.4-.9 2.6-1.7 3.5s-1.9 1.6-3.2 2.1-2.8.8-4.5.8zm.3-13.2c1.3 0 2.5-.3 3.3-1 .8-.6 1.5-1.5 1.9-2.7s.6-2.4.6-3.9-.2-2.8-.6-3.9-1-2-1.8-2.6-1.9-.9-3.2-.9c-1.4 0-2.5.3-3.4 1s-1.5 1.6-2 2.7c-.4 1.1-.6 2.4-.6 3.8s.2 2.7.6 3.8 1.1 2 1.9 2.7c.9.7 2 1 3.3 1z"/><path d="m547.1 265.4c-2.1 0-4-.5-5.6-1.4s-2.8-2.2-3.7-3.9-1.3-3.6-1.3-5.8c0-2.3.4-4.3 1.3-6.1s2.1-3 3.7-4 3.4-1.4 5.5-1.4 4 .5 5.5 1.5 2.7 2.4 3.4 4.3c.8 1.9 1 4.1.9 6.6h-4.1v-1.5c0-2.5-.5-4.3-1.4-5.5s-2.3-1.8-4.2-1.8c-2.1 0-3.6.6-4.7 1.9-1 1.3-1.6 3.2-1.6 5.6s.5 4.1 1.6 5.4c1 1.3 2.5 1.9 4.5 1.9 1.3 0 2.4-.3 3.3-.9s1.7-1.4 2.2-2.5l4 1.3c-.8 1.9-2.1 3.4-3.8 4.4s-3.4 1.9-5.5 1.9zm-7.5-10v-3.2h15.2v3.2z"/><path d="m561.5 264.8v-21.3h3.7v6.1h.5v15.1h-4.2zm12.8 0v-13.2c0-1.6-.4-2.8-1.2-3.6-.8-.9-1.8-1.3-3.1-1.3s-2.3.4-3.1 1.3-1.2 2.1-1.2 3.5l-2-1.3c0-1.4.3-2.6 1-3.7s1.6-1.9 2.7-2.6c1.1-.6 2.4-.9 3.9-.9s2.8.3 3.9 1 1.9 1.5 2.4 2.7.8 2.5.8 4v14.2h-4.1zm12.7 0v-13.2c0-1.5-.4-2.7-1.2-3.6s-1.8-1.3-3.1-1.3c-.8 0-1.5.2-2.2.5-.7.4-1.2.9-1.6 1.6s-.6 1.6-.6 2.7l-2-1c0-1.5.3-2.8 1-3.9s1.6-2 2.7-2.6 2.4-.9 3.8-.9c2.3 0 4.1.7 5.3 2.1s1.9 3.2 1.9 5.5v14.2z"/><path d="m606.2 265.4c-2.1 0-4-.5-5.6-1.4s-2.8-2.2-3.7-3.9-1.3-3.6-1.3-5.8c0-2.3.4-4.3 1.3-6.1s2.1-3 3.7-4 3.4-1.4 5.5-1.4 4 .5 5.5 1.5 2.7 2.4 3.4 4.3c.8 1.9 1 4.1.9 6.6h-4.1v-1.5c0-2.5-.5-4.3-1.4-5.5s-2.3-1.8-4.2-1.8c-2.1 0-3.6.6-4.7 1.9-1 1.3-1.6 3.2-1.6 5.6s.5 4.1 1.6 5.4c1 1.3 2.5 1.9 4.5 1.9 1.3 0 2.4-.3 3.3-.9s1.7-1.4 2.2-2.5l4 1.3c-.8 1.9-2.1 3.4-3.8 4.4s-3.4 1.9-5.5 1.9zm-7.6-10v-3.2h15.2v3.2z"/><path d="m620.6 264.8v-21.3h3.7v6.1h.5v15.1h-4.2zm14.9 0v-10.5c0-.8-.1-1.7-.2-2.6s-.4-1.7-.8-2.4c-.4-.8-.9-1.4-1.6-1.8-.7-.5-1.6-.7-2.8-.7-.7 0-1.4.1-2.1.4-.7.2-1.2.6-1.7 1.2s-.9 1.2-1.2 2.1-.4 1.9-.4 3.2l-2.6-1c0-1.9.4-3.6 1.1-5.1s1.8-2.6 3.1-3.5 3-1.2 4.9-1.2c1.5 0 2.7.2 3.7.7s1.8 1.1 2.4 1.9 1.1 1.6 1.4 2.5.5 1.8.7 2.7c.1.9.2 1.6.2 2.3v11.8z"/><path d="m642.5 246.9v-3.3h14.5v3.3zm14.6 17.9c-1.3.3-2.7.4-3.9.3s-2.4-.3-3.5-.8-1.8-1.2-2.3-2.2c-.5-.9-.7-1.8-.7-2.7s0-2 0-3.1v-18.8h4.1v18.6 2.2c0 .6.2 1.2.4 1.6.5.8 1.2 1.3 2.2 1.4s2.2.1 3.6-.1z"/><path d="m676.7 264.8-7.7-21.3h4.2l5.7 16.1 5.7-16.1h4.2l-7.7 21.3z"/><path d="m701.1 265.4c-2.1 0-4-.5-5.6-1.4s-2.8-2.2-3.7-3.9-1.3-3.6-1.3-5.8c0-2.3.4-4.3 1.3-6.1s2.1-3 3.7-4 3.4-1.4 5.5-1.4 4 .5 5.5 1.5 2.7 2.4 3.4 4.3c.8 1.9 1 4.1.9 6.6h-4.1v-1.5c0-2.5-.5-4.3-1.4-5.5s-2.3-1.8-4.2-1.8c-2.1 0-3.6.6-4.7 1.9-1 1.3-1.6 3.2-1.6 5.6s.5 4.1 1.6 5.4c1 1.3 2.5 1.9 4.5 1.9 1.3 0 2.4-.3 3.3-.9s1.7-1.4 2.2-2.5l4 1.3c-.8 1.9-2.1 3.4-3.8 4.4s-3.4 1.9-5.5 1.9zm-7.6-10v-3.2h15.2v3.2z"/><path d="m715.5 264.8v-21.3h3.7v5.2l-.5-.7c.3-.7.6-1.3 1-1.9s.9-1 1.5-1.4c.5-.4 1.1-.7 1.8-.9s1.3-.4 2-.4c.7-.1 1.4 0 2 .1v3.9c-.7-.2-1.5-.2-2.3-.2-.8.1-1.6.4-2.3.8s-1.2 1-1.6 1.6-.7 1.3-.8 2.1c-.2.8-.3 1.6-.3 2.4v10.7z"/><path d="m730.8 264.8v-28.4h4.1v13.1h-.5v15.3zm10 .6c-2 0-3.7-.5-5.1-1.5s-2.4-2.3-3.1-4-1.1-3.6-1.1-5.7.3-4 1-5.7 1.7-3 3.1-4 3.1-1.5 5.1-1.5 3.7.5 5.2 1.5 2.6 2.3 3.4 4 1.2 3.6 1.2 5.7-.4 4-1.2 5.7-1.9 3-3.3 4c-1.5 1-3.2 1.5-5.2 1.5zm-.5-3.7c1.3 0 2.4-.3 3.3-1s1.5-1.6 1.9-2.7.6-2.4.6-3.8-.2-2.6-.6-3.8-1.1-2-2-2.7-2-1-3.4-1c-1.3 0-2.3.3-3.2.9-.8.6-1.5 1.5-1.8 2.6s-.6 2.4-.6 3.9.2 2.8.6 3.9 1 2 1.9 2.7 1.9 1 3.3 1z"/><path d="m764.8 265.4c-2.1 0-4-.5-5.6-1.4s-2.8-2.2-3.7-3.9-1.3-3.6-1.3-5.8c0-2.3.4-4.3 1.3-6.1s2.1-3 3.7-4 3.4-1.4 5.5-1.4 4 .5 5.5 1.5 2.7 2.4 3.4 4.3c.8 1.9 1 4.1.9 6.6h-4.1v-1.5c0-2.5-.5-4.3-1.4-5.5s-2.3-1.8-4.2-1.8c-2.1 0-3.6.6-4.7 1.9-1 1.3-1.6 3.2-1.6 5.6s.5 4.1 1.6 5.4c1 1.3 2.5 1.9 4.5 1.9 1.3 0 2.4-.3 3.3-.9s1.7-1.4 2.2-2.5l4 1.3c-.8 1.9-2.1 3.4-3.8 4.4s-3.4 1.9-5.5 1.9zm-7.6-10v-3.2h15.2v3.2z"/><path d="m787.2 265.4c-2.6 0-4.7-.6-6.3-1.7s-2.6-2.8-3-4.8l4.2-.6c.3 1.1.9 2 1.8 2.6 1 .6 2.1 1 3.5 1 1.3 0 2.3-.3 3-.8s1.1-1.2 1.1-2.2c0-.5-.1-1-.4-1.3s-.8-.6-1.6-1c-.8-.3-2.1-.7-3.7-1.1-1.8-.5-3.3-1-4.3-1.5s-1.8-1.2-2.3-1.9-.7-1.6-.7-2.6c0-1.3.3-2.4 1-3.4s1.6-1.7 2.9-2.2c1.2-.5 2.7-.8 4.4-.8s3.1.3 4.3.8c1.3.5 2.3 1.2 3.1 2.2.8.9 1.3 2 1.4 3.3l-4.2.8c-.1-1-.6-1.8-1.4-2.4s-1.9-.9-3.2-1c-1.2-.1-2.3.1-3 .6s-1.2 1.1-1.2 1.9c0 .5.2.9.4 1.2s.9.6 1.7.9 2.1.7 3.8 1.1c1.8.5 3.2 1 4.2 1.5s1.8 1.2 2.2 2c.5.8.7 1.7.7 2.8 0 2.1-.8 3.8-2.3 4.9s-3.4 1.7-6.1 1.7z"/><path d="m808.8 265.4c-2.6 0-4.7-.6-6.3-1.7s-2.6-2.8-3-4.8l4.2-.6c.3 1.1.9 2 1.8 2.6 1 .6 2.1 1 3.5 1 1.3 0 2.3-.3 3-.8s1.1-1.2 1.1-2.2c0-.5-.1-1-.4-1.3s-.8-.6-1.6-1c-.8-.3-2.1-.7-3.7-1.1-1.8-.5-3.3-1-4.3-1.5s-1.8-1.2-2.3-1.9-.7-1.6-.7-2.6c0-1.3.3-2.4 1-3.4s1.6-1.7 2.9-2.2c1.2-.5 2.7-.8 4.4-.8s3.1.3 4.3.8c1.3.5 2.3 1.2 3.1 2.2.8.9 1.3 2 1.4 3.3l-4.2.8c-.1-1-.6-1.8-1.4-2.4s-1.9-.9-3.2-1c-1.2-.1-2.3.1-3 .6s-1.2 1.1-1.2 1.9c0 .5.2.9.4 1.2s.9.6 1.7.9 2.1.7 3.8 1.1c1.8.5 3.2 1 4.2 1.5s1.8 1.2 2.2 2c.5.8.7 1.7.7 2.8 0 2.1-.8 3.8-2.3 4.9s-3.4 1.7-6.1 1.7z"/><path d="m831.5 265.4c-2.1 0-4-.5-5.6-1.4s-2.8-2.2-3.7-3.9-1.3-3.6-1.3-5.8c0-2.3.4-4.3 1.3-6.1s2.1-3 3.7-4 3.4-1.4 5.5-1.4 4 .5 5.5 1.5 2.7 2.4 3.4 4.3c.8 1.9 1 4.1.9 6.6h-4.1v-1.5c0-2.5-.5-4.3-1.4-5.5s-2.3-1.8-4.2-1.8c-2.1 0-3.6.6-4.7 1.9-1 1.3-1.6 3.2-1.6 5.6s.5 4.1 1.6 5.4c1 1.3 2.5 1.9 4.5 1.9 1.3 0 2.4-.3 3.3-.9s1.7-1.4 2.2-2.5l4 1.3c-.8 1.9-2.1 3.4-3.8 4.4s-3.4 1.9-5.5 1.9zm-7.5-10v-3.2h15.2v3.2z"/><path d="m845.9 264.8v-21.3h3.7v5.2l-.5-.7c.3-.7.6-1.3 1-1.9s.9-1 1.5-1.4c.5-.4 1.1-.7 1.8-.9s1.3-.4 2-.4c.7-.1 1.4 0 2 .1v3.9c-.7-.2-1.5-.2-2.3-.2-.8.1-1.6.4-2.3.8s-1.2 1-1.6 1.6-.7 1.3-.8 2.1c-.2.8-.3 1.6-.3 2.4v10.7z"/><path d="m861.3 264.8v-21.3h3.7v6.1h.5v15.1h-4.2zm14.9 0v-10.5c0-.8-.1-1.7-.2-2.6s-.4-1.7-.8-2.4c-.4-.8-.9-1.4-1.6-1.8-.7-.5-1.6-.7-2.8-.7-.7 0-1.4.1-2.1.4-.7.2-1.2.6-1.7 1.2s-.9 1.2-1.2 2.1-.4 1.9-.4 3.2l-2.6-1c0-1.9.4-3.6 1.1-5.1s1.8-2.6 3.1-3.5 3-1.2 4.9-1.2c1.5 0 2.7.2 3.7.7s1.8 1.1 2.4 1.9 1.1 1.6 1.4 2.5.5 1.8.7 2.7c.1.9.2 1.6.2 2.3v11.8z"/><path d="m409.1 49.2v-28.4h8.9 1.5c.7 0 1.4.1 2.1.2 2.2.3 4.1 1.1 5.6 2.4s2.7 3 3.4 5 1.2 4.2 1.2 6.6-.4 4.6-1.2 6.7-1.9 3.7-3.4 5-3.4 2.1-5.6 2.4c-.7.1-1.3.1-2.1.2-.7 0-1.2 0-1.5 0h-8.9zm4.2-3.9h4.7 1.6s1.2-.1 1.6-.2c1.4-.3 2.6-.9 3.5-1.9s1.6-2.2 2-3.6.6-3 .6-4.6-.2-3.2-.6-4.6-1.1-2.6-2-3.6-2.1-1.6-3.5-1.8c-.5-.1-1-.1-1.6-.2s-1.1 0-1.6 0h-4.7z"/><path d="m436.7 24.4v-4h4.1v4zm0 24.8v-21.3h4.1v21.3z"/><path d="m456.4 49.8c-2.1 0-4-.5-5.6-1.4s-2.8-2.2-3.7-3.9-1.3-3.6-1.3-5.8c0-2.3.4-4.3 1.3-6s2.1-3 3.6-4 3.4-1.4 5.5-1.4 4 .5 5.5 1.5 2.7 2.4 3.4 4.3c.8 1.8 1 4 .9 6.6h-4v-1.5c0-2.5-.5-4.3-1.4-5.5s-2.3-1.8-4.2-1.8c-2.1 0-3.6.7-4.6 2s-1.6 3.2-1.6 5.6.5 4.2 1.6 5.4 2.5 1.9 4.5 1.9c1.3 0 2.4-.3 3.3-.9s1.7-1.4 2.2-2.5l4 1.3c-.8 1.9-2.1 3.4-3.8 4.4-1.6 1.1-3.5 1.7-5.6 1.7zm-7.6-10.1v-3.2h15.2v3.2z"/><path d="m490.2 49.8c-2 0-3.9-.3-5.5-1s-3-1.7-4-3c-1.1-1.3-1.7-2.9-2.1-4.7l4.3-.7c.4 1.7 1.3 3.1 2.7 4 1.4 1 3 1.5 4.8 1.5 1.1 0 2.2-.2 3.1-.5s1.7-.9 2.3-1.6.9-1.5.9-2.4c0-.5-.1-1-.3-1.4s-.4-.7-.7-1-.7-.5-1.1-.8-.9-.4-1.5-.6l-7.3-2.2c-.7-.2-1.4-.5-2.2-.8-.7-.3-1.4-.8-2-1.3s-1.1-1.2-1.5-2-.6-1.8-.6-2.9c0-1.8.5-3.2 1.4-4.4s2.1-2.1 3.6-2.8 3.3-.9 5.2-.9 3.6.4 5.1 1c1.5.7 2.8 1.6 3.8 2.8s1.7 2.7 2.1 4.5l-4.4.8c-.2-1.1-.6-2-1.3-2.8s-1.4-1.4-2.4-1.8-1.9-.6-3-.6c-1 0-2 .1-2.9.5s-1.6.8-2.1 1.4-.8 1.3-.8 2.1.2 1.4.7 1.9 1 .9 1.7 1.1c.7.3 1.4.5 2 .7l5.2 1.5c.7.2 1.4.4 2.2.7s1.6.7 2.4 1.3 1.4 1.3 1.9 2.2.8 2.1.8 3.4-.3 2.7-.9 3.8-1.4 2-2.4 2.7-2.2 1.3-3.5 1.6c-.8.5-2.2.7-3.7.7z"/><path d="m515 49.8c-2.1 0-4-.5-5.6-1.4s-2.8-2.2-3.7-3.9-1.3-3.6-1.3-5.8c0-2.3.4-4.3 1.3-6s2.1-3 3.6-4 3.4-1.4 5.5-1.4 4 .5 5.5 1.5 2.7 2.4 3.4 4.3c.8 1.8 1 4 .9 6.6h-4.1v-1.5c0-2.5-.5-4.3-1.4-5.5s-2.3-1.8-4.2-1.8c-2.1 0-3.6.7-4.6 2s-1.6 3.2-1.6 5.6.5 4.2 1.6 5.4 2.5 1.9 4.5 1.9c1.3 0 2.4-.3 3.3-.9s1.7-1.4 2.2-2.5l4 1.3c-.8 1.9-2.1 3.4-3.8 4.4-1.5 1.1-3.4 1.7-5.5 1.7zm-7.5-10.1v-3.2h15.2v3.2z"/><path d="m538.6 49.8c-2.2 0-4-.5-5.5-1.5s-2.7-2.3-3.5-4-1.2-3.6-1.2-5.8.4-4.1 1.3-5.8 2-3 3.5-4 3.4-1.4 5.5-1.4c2.3 0 4.3.6 6 1.7 1.7 1.2 2.7 2.7 3.3 4.8l-4.1 1.2c-.4-1.2-1.1-2.1-2-2.8s-2-1-3.2-1c-1.3 0-2.5.3-3.3 1-.9.6-1.5 1.5-1.9 2.6s-.6 2.4-.7 3.8c0 2.2.5 4 1.5 5.3s2.5 2 4.4 2c1.3 0 2.4-.3 3.2-.9s1.5-1.5 1.9-2.6l4.2 1c-.7 2.1-1.8 3.7-3.5 4.8s-3.6 1.6-5.9 1.6z"/><path d="m560.2 49.8c-1.5 0-2.7-.2-3.7-.7s-1.8-1.1-2.4-1.9-1.1-1.6-1.4-2.5-.5-1.8-.7-2.7-.2-1.6-.2-2.3v-11.8h4.2v10.5c0 .8.1 1.7.2 2.5s.4 1.7.8 2.4c.4.8.9 1.3 1.6 1.8s1.6.7 2.8.7c.7 0 1.4-.1 2.1-.4.7-.2 1.2-.6 1.7-1.2.5-.5.9-1.2 1.2-2.1s.4-2 .4-3.2l2.6 1c0 1.9-.4 3.6-1.1 5.1s-1.8 2.6-3.1 3.5-3 1.2-5 1.3zm7.1-.6v-6.2h-.5v-15.1h4.2v21.3z"/><path d="m576.7 49.2v-21.3h3.7v5.2l-.5-.7c.3-.7.6-1.3 1-1.9s.9-1 1.5-1.4c.5-.4 1.1-.7 1.8-.9s1.3-.4 2-.4 1.4 0 2 .1v3.9c-.7-.2-1.5-.2-2.3-.2-.8.1-1.6.3-2.3.8-.7.4-1.2 1-1.6 1.6s-.7 1.3-.8 2.1c-.2.8-.3 1.5-.3 2.4v10.7z"/><path d="m592.3 24.4v-4h4.1v4zm0 24.8v-21.3h4.1v21.3z"/><path d="m600.2 31.2v-3.3h14.5v3.3zm14.5 18c-1.3.3-2.7.4-3.9.3s-2.4-.3-3.5-.8-1.8-1.2-2.3-2.2c-.5-.9-.7-1.8-.7-2.7s0-2 0-3.1v-18.7h4.1v18.6 2.2c0 .6.2 1.2.4 1.6.5.8 1.2 1.3 2.2 1.4s2.2.1 3.6-.1z"/><path d="m623 58.6 4.1-11.2.1 3.3-9.3-22.8h4.3l6.9 17.6h-1.3l6.6-17.6h4.2l-11.7 30.7z"/><path d="m649.2 49.2 9.2-28.4h5.9l9.2 28.4h-4.3l-8.5-25.9h1.1l-8.4 25.9zm4.8-6.4v-3.9h14.8v3.9z"/><path d="m680.6 49.2-6.5-21.3h4.1l4.5 14.6 4.5-14.6h3.5l4.5 14.6 4.5-14.6h4.1l-6.5 21.3h-3.3l-5-15.4-5 15.4c-.1 0-3.4 0-3.4 0z"/><path d="m713 49.8c-1.6 0-2.9-.3-4-.9s-1.9-1.4-2.4-2.3-.8-2-.8-3.2c0-1.1.2-2 .6-2.8s1-1.5 1.7-2.1c.8-.6 1.7-1 2.8-1.4 1-.3 2-.5 3.2-.7s2.5-.4 3.8-.6 2.6-.4 3.9-.5l-1.5.8c0-1.7-.3-2.9-1-3.7s-2-1.2-3.8-1.2c-1.1 0-2.1.3-3.1.8-.9.5-1.6 1.4-2 2.6l-3.8-1.2c.5-1.8 1.5-3.3 3-4.4s3.4-1.6 5.9-1.6c1.9 0 3.6.3 5 1s2.4 1.7 3.1 3.1c.3.7.5 1.4.6 2.2s.1 1.6.1 2.5v13.1h-3.6v-4.9l.7.6c-.9 1.6-2 2.8-3.4 3.6s-3 1.2-5 1.2zm.7-3.4c1.2 0 2.2-.2 3-.6s1.5-.9 2-1.6c.5-.6.8-1.3 1-2 .2-.6.3-1.3.4-2.1s0-1.4 0-1.9l1.3.5c-1.3.2-2.5.4-3.5.5s-2 .3-2.9.5-1.6.3-2.3.5c-.6.2-1.1.4-1.5.7s-.8.6-1 1-.4.9-.4 1.4.1 1.1.4 1.5c.3.5.7.8 1.3 1.1.6.4 1.3.5 2.2.5z"/><path d="m729.9 49.2v-21.3h3.7v5.2l-.5-.7c.3-.7.6-1.3 1-1.9s.9-1 1.5-1.4c.5-.4 1.1-.7 1.8-.9s1.3-.4 2-.4 1.4 0 2 .1v3.9c-.7-.2-1.5-.2-2.3-.2-.8.1-1.6.3-2.3.8-.7.4-1.2 1-1.6 1.6s-.7 1.3-.8 2.1c-.2.8-.3 1.5-.3 2.4v10.7z"/><path d="m754.5 49.8c-2.1 0-4-.5-5.6-1.4s-2.8-2.2-3.7-3.9-1.3-3.6-1.3-5.8c0-2.3.4-4.3 1.3-6s2.1-3 3.7-4 3.4-1.4 5.5-1.4 4 .5 5.5 1.5 2.7 2.4 3.4 4.3c.8 1.8 1 4 .9 6.6h-4.2v-1.5c0-2.5-.5-4.3-1.4-5.5s-2.3-1.8-4.2-1.8c-2.1 0-3.6.7-4.7 2-1 1.3-1.6 3.2-1.6 5.6s.5 4.2 1.6 5.4 2.5 1.9 4.5 1.9c1.3 0 2.4-.3 3.3-.9s1.7-1.4 2.2-2.5l4 1.3c-.8 1.9-2.1 3.4-3.8 4.4-1.5 1.1-3.3 1.7-5.4 1.7zm-7.6-10.1v-3.2h15.2v3.2z"/><path d="m768.8 49.2v-21.3h3.7v6.1h.5v15.1zm15 0v-10.5c0-.8-.1-1.7-.2-2.5s-.4-1.7-.8-2.4c-.4-.8-.9-1.3-1.6-1.8s-1.6-.7-2.8-.7c-.7 0-1.4.1-2.1.4-.7.2-1.2.6-1.7 1.2-.5.5-.9 1.2-1.2 2.1s-.4 2-.4 3.2l-2.6-1c0-1.9.4-3.6 1.1-5.1s1.8-2.6 3.1-3.5c1.3-.8 3-1.2 4.9-1.2 1.5 0 2.7.2 3.7.7s1.8 1.1 2.4 1.9 1.1 1.6 1.4 2.5.5 1.8.7 2.7.2 1.6.2 2.3v11.8z"/><path d="m803 49.8c-2.1 0-4-.5-5.6-1.4s-2.8-2.2-3.7-3.9-1.3-3.6-1.3-5.8c0-2.3.4-4.3 1.3-6s2.1-3 3.7-4 3.4-1.4 5.5-1.4 4 .5 5.5 1.5 2.7 2.4 3.4 4.3c.8 1.8 1 4 .9 6.6h-4.1v-1.5c0-2.5-.5-4.3-1.4-5.5s-2.3-1.8-4.2-1.8c-2.1 0-3.6.7-4.7 2-1 1.3-1.6 3.2-1.6 5.6s.5 4.2 1.6 5.4 2.5 1.9 4.5 1.9c1.3 0 2.4-.3 3.3-.9s1.7-1.4 2.2-2.5l4 1.3c-.8 1.9-2.1 3.4-3.8 4.4-1.6 1.1-3.5 1.7-5.5 1.7zm-7.6-10.1v-3.2h15.2v3.2z"/><path d="m825.4 49.8c-2.6 0-4.7-.6-6.3-1.7s-2.6-2.8-3-4.8l4.2-.7c.3 1.1.9 2 1.8 2.6s2.1 1 3.5 1c1.3 0 2.3-.3 3-.8s1.1-1.2 1.1-2.2c0-.5-.1-1-.4-1.3s-.8-.7-1.6-1-2.1-.7-3.7-1.1c-1.8-.5-3.3-1-4.3-1.5s-1.8-1.2-2.3-1.9-.7-1.6-.7-2.7c0-1.3.3-2.4 1-3.4s1.6-1.7 2.9-2.2c1.2-.5 2.7-.8 4.4-.8s3.1.3 4.3.8c1.3.5 2.3 1.2 3.1 2.2.8.9 1.3 2 1.4 3.3l-4.2.8c-.1-1-.6-1.8-1.4-2.4s-1.9-.9-3.2-1c-1.2 0-2.3.1-3 .6-.8.5-1.2 1.1-1.2 1.9 0 .5.2.9.4 1.2s.9.6 1.7 1c.8.3 2.1.7 3.8 1.1 1.8.5 3.2 1 4.2 1.5 1 .6 1.8 1.2 2.2 2s.7 1.7.7 2.8c0 2.1-.8 3.8-2.3 4.9-1.3 1.2-3.4 1.8-6.1 1.8z"/><path d="m847 49.8c-2.6 0-4.7-.6-6.3-1.7s-2.6-2.8-3-4.8l4.2-.7c.3 1.1.9 2 1.8 2.6s2.1 1 3.5 1c1.3 0 2.3-.3 3-.8s1.1-1.2 1.1-2.2c0-.5-.1-1-.4-1.3s-.8-.7-1.6-1-2.1-.7-3.7-1.1c-1.8-.5-3.3-1-4.3-1.5s-1.8-1.2-2.3-1.9-.7-1.6-.7-2.7c0-1.3.3-2.4 1-3.4s1.6-1.7 2.9-2.2c1.2-.5 2.7-.8 4.4-.8s3.1.3 4.3.8c1.3.5 2.3 1.2 3.1 2.2.8.9 1.3 2 1.4 3.3l-4.2.8c-.1-1-.6-1.8-1.4-2.4s-1.9-.9-3.2-1c-1.2 0-2.3.1-3 .6-.8.5-1.2 1.1-1.2 1.9 0 .5.2.9.4 1.2s.9.6 1.7 1c.8.3 2.1.7 3.8 1.1 1.8.5 3.2 1 4.2 1.5 1 .6 1.8 1.2 2.2 2s.7 1.7.7 2.8c0 2.1-.8 3.8-2.3 4.9-1.3 1.2-3.4 1.8-6.1 1.8z"/><path d="m417.6 97c-2 0-3.7-.5-5.1-1.5s-2.5-2.3-3.3-4-1.2-3.6-1.2-5.7.4-4.1 1.2-5.7c.8-1.7 1.9-3 3.4-4s3.2-1.5 5.2-1.5 3.7.5 5.1 1.5 2.4 2.3 3.1 4 1 3.6 1 5.7-.4 4-1.1 5.7-1.8 3-3.1 4c-1.5 1-3.2 1.5-5.2 1.5zm.5-3.7c1.4 0 2.5-.3 3.3-1 .9-.6 1.5-1.5 1.9-2.7s.6-2.4.6-3.9-.2-2.8-.6-3.9-1-2-1.9-2.6c-.8-.6-1.9-.9-3.2-.9-1.4 0-2.5.3-3.4 1s-1.5 1.6-2 2.7c-.4 1.1-.6 2.4-.6 3.8s.2 2.7.6 3.8 1.1 2 1.9 2.7 2.1 1 3.4 1zm5.8 3.1v-15.3h-.5v-13h4.1v28.4h-3.6z"/><path d="m442.9 97c-2.1 0-4-.5-5.6-1.4s-2.8-2.2-3.7-3.9-1.3-3.6-1.3-5.8c0-2.3.4-4.3 1.3-6.1.9-1.7 2.1-3 3.6-4 1.6-.9 3.4-1.4 5.5-1.4s4 .5 5.5 1.5 2.7 2.4 3.4 4.3c.8 1.8 1 4.1.9 6.6h-4.1v-1.5c0-2.5-.5-4.3-1.4-5.5s-2.3-1.8-4.2-1.8c-2.1 0-3.6.6-4.6 1.9s-1.6 3.2-1.6 5.6.5 4.1 1.6 5.4c1 1.3 2.5 1.9 4.5 1.9 1.3 0 2.4-.3 3.3-.9s1.7-1.4 2.2-2.5l4 1.3c-.8 1.9-2.1 3.4-3.8 4.4-1.5 1.4-3.4 1.9-5.5 1.9zm-7.6-10v-3.2h15.2v3.2z"/><path d="m457.3 96.5v-21.3h3.7v5.2l-.5-.7c.3-.7.6-1.3 1-1.9s.9-1 1.5-1.4c.5-.4 1.1-.7 1.8-.9s1.3-.3 2-.4 1.4 0 2 .1v3.8c-.7-.2-1.5-.2-2.3-.2-.9.1-1.6.4-2.3.8s-1.2 1-1.6 1.6-.7 1.3-.8 2.1c-.2.8-.3 1.6-.3 2.4v10.7z"/><path d="m482 96.5v-28.4h3.7l10.3 21.3 10.2-21.3h3.8v28.3h-4v-19.4l-9.2 19.4h-1.8l-9.2-19.4v19.4z"/><path d="m515.8 71.7v-4h4.1v4zm0 24.8v-21.3h4.1v21.3z"/><path d="m523.8 78.5v-3.3h14.5v3.3zm14.5 18c-1.3.3-2.7.4-3.9.3-1.3 0-2.4-.3-3.5-.8-1-.5-1.8-1.2-2.3-2.2-.5-.9-.7-1.8-.7-2.7s0-1.9 0-3.1v-18.7h4.1v18.6 2.2c0 .6.2 1.2.4 1.6.5.8 1.2 1.3 2.2 1.4s2.2.1 3.6-.1z"/><path d="m549 97c-1.6 0-2.9-.3-4-.9s-1.9-1.4-2.4-2.3c-.5-1-.8-2-.8-3.2 0-1.1.2-2 .6-2.8s1-1.5 1.7-2.1c.8-.6 1.7-1 2.8-1.4 1-.3 2-.5 3.2-.7s2.5-.4 3.8-.6 2.6-.4 3.9-.6l-1.5.8c0-1.7-.3-2.9-1-3.7s-2-1.2-3.8-1.2c-1.1 0-2.1.3-3.1.8-.9.5-1.6 1.4-2 2.6l-3.8-1.2c.5-1.8 1.5-3.3 3-4.4s3.4-1.6 5.9-1.6c1.9 0 3.6.3 5 1 1.4.6 2.4 1.7 3.1 3.1.3.7.5 1.4.6 2.2s.1 1.6.1 2.5v13.1h-3.6v-4.9l.7.6c-.9 1.6-2 2.8-3.4 3.6-1.3.9-3 1.3-5 1.3zm.7-3.3c1.2 0 2.2-.2 3-.6s1.5-.9 2-1.6.8-1.3 1-2c.2-.6.3-1.3.4-2.1 0-.8 0-1.4 0-1.9l1.3.5c-1.3.2-2.5.4-3.5.5-1.1.2-2 .3-2.9.5-.9.1-1.6.3-2.3.5-.6.2-1.1.4-1.5.7s-.8.6-1 1c-.3.4-.4.9-.4 1.4 0 .6.1 1.1.4 1.5.3.5.7.8 1.3 1.1s1.4.5 2.2.5z"/><path d="m565.9 96.5v-21.3h3.7v5.2l-.5-.7c.3-.7.6-1.3 1-1.9s.9-1 1.5-1.4c.5-.4 1.1-.7 1.8-.9s1.3-.3 2-.4 1.4 0 2 .1v3.8c-.7-.2-1.5-.2-2.3-.2-.8.1-1.6.4-2.3.8s-1.2 1-1.6 1.6-.7 1.3-.8 2.1c-.2.8-.3 1.6-.3 2.4v10.7z"/><path d="m581.3 96.5v-28.4h4.1v13.1h-.5v15.3zm10 .5c-2 0-3.7-.5-5.1-1.5s-2.4-2.3-3.1-4-1.1-3.6-1.1-5.7.3-4 1-5.7 1.7-3 3.1-4 3.1-1.5 5.1-1.5 3.7.5 5.2 1.5 2.6 2.3 3.4 4 1.2 3.6 1.2 5.7-.4 4-1.2 5.7-1.9 3-3.3 4c-1.5 1-3.2 1.5-5.2 1.5zm-.6-3.7c1.3 0 2.4-.3 3.3-1s1.5-1.6 1.9-2.7.6-2.4.6-3.8-.2-2.6-.6-3.8c-.4-1.1-1.1-2-2-2.7s-2-1-3.4-1c-1.3 0-2.3.3-3.2.9-.8.6-1.5 1.5-1.8 2.6-.4 1.1-.6 2.4-.6 3.9s.2 2.8.6 3.9 1 2 1.9 2.7 2 1 3.3 1z"/><path d="m615.2 97c-2.1 0-4-.5-5.6-1.4s-2.8-2.2-3.7-3.9-1.3-3.6-1.3-5.8c0-2.3.4-4.3 1.3-6.1.9-1.7 2.1-3 3.7-4 1.6-.9 3.4-1.4 5.5-1.4s4 .5 5.5 1.5 2.7 2.4 3.4 4.3c.8 1.8 1 4.1.9 6.6h-4.1v-1.5c0-2.5-.5-4.3-1.4-5.5s-2.3-1.8-4.2-1.8c-2.1 0-3.6.6-4.7 1.9-1 1.3-1.6 3.2-1.6 5.6s.5 4.1 1.6 5.4c1 1.3 2.5 1.9 4.5 1.9 1.3 0 2.4-.3 3.3-.9s1.7-1.4 2.2-2.5l4 1.3c-.8 1.9-2.1 3.4-3.8 4.4-1.5 1.4-3.4 1.9-5.5 1.9zm-7.6-10v-3.2h15.2v3.2z"/><path d="m629.8 71.7v-4h4.1v4zm0 24.8v-21.3h4.1v21.3z"/><path d="m637.7 78.5v-3.3h14.5v3.3zm14.6 18c-1.3.3-2.7.4-3.9.3-1.3 0-2.4-.3-3.5-.8-1-.5-1.8-1.2-2.3-2.2-.5-.9-.7-1.8-.7-2.7s0-1.9 0-3.1v-18.7h4.1v18.6 2.2c0 .6.2 1.2.4 1.6.5.8 1.2 1.3 2.2 1.4s2.2.1 3.6-.1z"/><path d="m665.6 97c-2.1 0-4-.5-5.6-1.4s-2.8-2.2-3.7-3.9-1.3-3.6-1.3-5.8c0-2.3.4-4.3 1.3-6.1.9-1.7 2.1-3 3.7-4 1.6-.9 3.4-1.4 5.5-1.4s4 .5 5.5 1.5 2.7 2.4 3.4 4.3c.8 1.8 1 4.1.9 6.6h-4.1v-1.5c0-2.5-.5-4.3-1.4-5.5s-2.3-1.8-4.2-1.8c-2.1 0-3.6.6-4.7 1.9-1 1.3-1.6 3.2-1.6 5.6s.5 4.1 1.6 5.4c1 1.3 2.5 1.9 4.5 1.9 1.3 0 2.4-.3 3.3-.9s1.7-1.4 2.2-2.5l4 1.3c-.8 1.9-2.1 3.4-3.8 4.4-1.6 1.4-3.4 1.9-5.5 1.9zm-7.6-10v-3.2h15.2v3.2z"/><path d="m680 96.5v-21.3h3.7v6.1h.5v15.1zm14.9 0v-10.5c0-.8-.1-1.7-.2-2.6s-.4-1.7-.8-2.4c-.4-.8-.9-1.4-1.6-1.8-.7-.5-1.6-.7-2.8-.7-.7 0-1.4.1-2.1.4-.7.2-1.2.6-1.7 1.2-.5.5-.9 1.2-1.2 2.1s-.4 1.9-.4 3.2l-2.6-1c0-1.9.4-3.6 1.1-5.1s1.8-2.6 3.1-3.5 3-1.2 4.9-1.2c1.5 0 2.7.2 3.7.7s1.8 1.1 2.4 1.9 1.1 1.6 1.4 2.5.5 1.8.7 2.7c.1.9.2 1.6.2 2.3v11.8z"/><path d="m713.1 97c-2 0-3.7-.5-5.1-1.5s-2.5-2.3-3.3-4-1.2-3.6-1.2-5.7.4-4.1 1.2-5.7 1.9-3 3.4-4 3.2-1.5 5.2-1.5 3.7.5 5.1 1.5 2.4 2.3 3.1 4 1 3.6 1 5.7-.3 4-1.1 5.7-1.8 3-3.1 4c-1.5 1-3.2 1.5-5.2 1.5zm.6-3.7c1.3 0 2.5-.3 3.3-1 .8-.6 1.5-1.5 1.9-2.7s.6-2.4.6-3.9-.2-2.8-.6-3.9-1-2-1.8-2.6-1.9-.9-3.2-.9c-1.4 0-2.5.3-3.4 1s-1.5 1.6-2 2.7c-.4 1.1-.6 2.4-.6 3.8s.2 2.7.6 3.8 1.1 2 1.9 2.7 2 1 3.3 1zm5.7 3.1v-15.3h-.4v-13h4.1v28.4h-3.7z"/><path d="m738.5 97c-2.1 0-4-.5-5.6-1.4s-2.8-2.2-3.7-3.9-1.3-3.6-1.3-5.8c0-2.3.4-4.3 1.3-6.1.9-1.7 2.1-3 3.7-4 1.6-.9 3.4-1.4 5.5-1.4s4 .5 5.5 1.5 2.7 2.4 3.4 4.3c.8 1.8 1 4.1.9 6.6h-4.2v-1.5c0-2.5-.5-4.3-1.4-5.5s-2.3-1.8-4.2-1.8c-2.1 0-3.6.6-4.7 1.9-1 1.3-1.6 3.2-1.6 5.6s.5 4.1 1.6 5.4c1 1.3 2.5 1.9 4.5 1.9 1.3 0 2.4-.3 3.3-.9s1.7-1.4 2.2-2.5l4 1.3c-.8 1.9-2.1 3.4-3.8 4.4-1.5 1.4-3.4 1.9-5.4 1.9zm-7.6-10v-3.2h15.2v3.2z"/><path d="m752.8 96.5v-21.3h3.7v6.1h.5v15.1zm15 0v-10.5c0-.8-.1-1.7-.2-2.6s-.4-1.7-.8-2.4c-.4-.8-.9-1.4-1.6-1.8-.7-.5-1.6-.7-2.8-.7-.7 0-1.4.1-2.1.4-.7.2-1.2.6-1.7 1.2-.5.5-.9 1.2-1.2 2.1s-.4 1.9-.4 3.2l-2.6-1c0-1.9.4-3.6 1.1-5.1s1.8-2.6 3.1-3.5 3-1.2 4.9-1.2c1.5 0 2.7.2 3.7.7s1.8 1.1 2.4 1.9 1.1 1.6 1.4 2.5.5 1.8.7 2.7c.1.9.2 1.6.2 2.3v11.8z"/><path d="m795.9 97c-2.1 0-4-.5-5.6-1.4s-2.8-2.2-3.7-3.9-1.3-3.6-1.3-5.8c0-2.3.4-4.3 1.3-6.1.9-1.7 2.1-3 3.7-4 1.6-.9 3.4-1.4 5.5-1.4s4 .5 5.5 1.5 2.7 2.4 3.4 4.3c.8 1.8 1 4.1.9 6.6h-4.1v-1.5c0-2.5-.5-4.3-1.4-5.5s-2.3-1.8-4.2-1.8c-2.1 0-3.6.6-4.7 1.9-1 1.3-1.6 3.2-1.6 5.6s.5 4.1 1.6 5.4c1 1.3 2.5 1.9 4.5 1.9 1.3 0 2.4-.3 3.3-.9s1.7-1.4 2.2-2.5l4 1.3c-.8 1.9-2.1 3.4-3.8 4.4-1.5 1.4-3.4 1.9-5.5 1.9zm-7.5-10v-3.2h15.2v3.2z"/><path d="m810.3 96.5v-21.3h3.7v5.2l-.5-.7c.3-.7.6-1.3 1-1.9s.9-1 1.5-1.4c.5-.4 1.1-.7 1.8-.9s1.3-.3 2-.4 1.4 0 2 .1v3.8c-.7-.2-1.5-.2-2.3-.2-.8.1-1.6.4-2.3.8s-1.2 1-1.6 1.6-.7 1.3-.8 2.1c-.2.8-.3 1.6-.3 2.4v10.7z"/><path d="m825.7 96.5v-28.4h3.7v15.3h.5v13.1zm14.9 0v-10.5c0-.8-.1-1.7-.2-2.6s-.4-1.7-.8-2.4c-.4-.8-.9-1.4-1.6-1.8-.7-.5-1.6-.7-2.8-.7-.7 0-1.4.1-2.1.4-.7.2-1.2.6-1.7 1.2-.5.5-.9 1.2-1.2 2.1s-.4 1.9-.4 3.2l-2.6-1c0-1.9.4-3.6 1.1-5.1s1.8-2.6 3.1-3.5 3-1.2 4.9-1.2c1.5 0 2.7.2 3.7.7s1.8 1.1 2.4 1.9 1.1 1.6 1.4 2.5.5 1.8.7 2.7c.1.9.2 1.6.2 2.3v11.8z"/><path d="m859.6 97c-2.1 0-4-.5-5.5-1.4-1.6-1-2.8-2.3-3.6-4s-1.3-3.6-1.3-5.8.4-4.2 1.3-5.9 2.1-3 3.6-3.9 3.4-1.4 5.5-1.4 4 .5 5.5 1.4c1.6 1 2.8 2.3 3.6 4s1.3 3.6 1.3 5.8-.4 4.2-1.3 5.9-2.1 3-3.6 4-3.4 1.3-5.5 1.3zm0-3.8c2 0 3.5-.7 4.6-2.1 1-1.4 1.5-3.1 1.5-5.3s-.5-4-1.5-5.3-2.5-2-4.5-2c-1.4 0-2.5.3-3.4.9s-1.6 1.5-2 2.6-.7 2.4-.7 3.8c0 2.2.5 4 1.5 5.4 1 1.3 2.5 2 4.5 2zm-5.9-21.6v-3.9h3.9v3.9zm7.9 0v-3.9h3.9v3.9z"/><path d="m874.8 96.5v-28.4h3.7v15.3h.5v13.1zm14.9 0v-10.5c0-.8-.1-1.7-.2-2.6s-.4-1.7-.8-2.4c-.4-.8-.9-1.4-1.6-1.8-.7-.5-1.6-.7-2.8-.7-.7 0-1.4.1-2.1.4-.7.2-1.2.6-1.7 1.2-.5.5-.9 1.2-1.2 2.1s-.4 1.9-.4 3.2l-2.6-1c0-1.9.4-3.6 1.1-5.1s1.8-2.6 3.1-3.5 3-1.2 4.9-1.2c1.5 0 2.7.2 3.7.7s1.8 1.1 2.4 1.9 1.1 1.6 1.4 2.5.5 1.8.7 2.7c.1.9.2 1.6.2 2.3v11.8z"/><path d="m908.9 97c-2.1 0-4-.5-5.6-1.4s-2.8-2.2-3.7-3.9-1.3-3.6-1.3-5.8c0-2.3.4-4.3 1.3-6.1.9-1.7 2.1-3 3.7-4 1.6-.9 3.4-1.4 5.5-1.4s4 .5 5.5 1.5 2.7 2.4 3.4 4.3c.8 1.8 1 4.1.9 6.6h-4.1v-1.5c0-2.5-.5-4.3-1.4-5.5s-2.3-1.8-4.2-1.8c-2.1 0-3.6.6-4.7 1.9-1 1.3-1.6 3.2-1.6 5.6s.5 4.1 1.6 5.4c1 1.3 2.5 1.9 4.5 1.9 1.3 0 2.4-.3 3.3-.9s1.7-1.4 2.2-2.5l4 1.3c-.8 1.9-2.1 3.4-3.8 4.4-1.6 1.4-3.4 1.9-5.5 1.9zm-7.6-10v-3.2h15.2v3.2z"/><path d="m923.2 96.5v-21.3h3.7v6.1h.5v15.1zm15 0v-10.5c0-.8-.1-1.7-.2-2.6s-.4-1.7-.8-2.4c-.4-.8-.9-1.4-1.6-1.8-.7-.5-1.6-.7-2.8-.7-.7 0-1.4.1-2.1.4-.7.2-1.2.6-1.7 1.2-.5.5-.9 1.2-1.2 2.1s-.4 1.9-.4 3.2l-2.6-1c0-1.9.4-3.6 1.1-5.1s1.8-2.6 3.1-3.5 3-1.2 4.9-1.2c1.5 0 2.7.2 3.7.7s1.8 1.1 2.4 1.9 1.1 1.6 1.4 2.5.5 1.8.7 2.7c.1.9.2 1.6.2 2.3v11.8z"/><path d="m77.3 372.2h278.9" fill="none" stroke="url(#b)" stroke-linecap="round" stroke-miterlimit="10" stroke-width="10.37"/><circle cx="41" cy="371.7" fill="none" r="36.1" stroke="url(#d)" stroke-linecap="round" stroke-miterlimit="10" stroke-width="10.37"/><path d="m41.8 388.7c-1.5 0-2.9-.3-4.2-.9s-2.5-1.4-3.5-2.5-1.7-2.3-2.1-3.8l4.8-1.3c.3 1.2 1 2.1 1.9 2.8.9.6 1.9 1 3 .9 1 0 1.9-.2 2.6-.7.8-.5 1.4-1.1 1.8-1.9s.7-1.6.7-2.6c0-1.5-.5-2.7-1.4-3.7-1-1-2.2-1.5-3.7-1.5-.5 0-.9.1-1.3.2s-.8.3-1.2.5l-2.3-3.9 10-8.6.4 1.2h-14.1v-4.7h18.3v4.7l-8.1 7.8v-1.5c1.8.1 3.3.6 4.6 1.5s2.3 2 2.9 3.4 1 2.9 1 4.6c0 1.9-.5 3.6-1.4 5.1s-2.2 2.7-3.7 3.5-3.1 1.4-5 1.4z"/><path d="m77.3 206.3h278.9" fill="none" stroke="url(#e)" stroke-linecap="round" stroke-miterlimit="10" stroke-width="10.37"/><circle cx="41" cy="206.3" fill="none" r="36.1" stroke="url(#f)" stroke-linecap="round" stroke-miterlimit="10" stroke-width="10.37"/><path d="m30.7 219.9v-4.4l12.8-11.4c1-.9 1.7-1.7 2.1-2.5s.6-1.6.6-2.3c0-1-.2-1.9-.6-2.7s-1-1.4-1.8-1.9-1.6-.7-2.6-.7-2 .2-2.8.7-1.4 1.1-1.9 1.9c-.4.8-.7 1.6-.6 2.6h-5.1c0-2 .5-3.7 1.3-5.2s2.1-2.6 3.7-3.4 3.4-1.2 5.4-1.2c1.9 0 3.6.4 5.1 1.3s2.7 2 3.6 3.5 1.3 3.2 1.3 5.2c0 1.4-.2 2.6-.6 3.6s-1 1.9-1.7 2.7-1.7 1.7-2.8 2.7l-9.1 8-.5-1.2h14.7v4.7z"/><path d="m77.3 40.8h278.9" fill="none" stroke="url(#g)" stroke-linecap="round" stroke-miterlimit="10" stroke-width="10.37"/><circle cx="41" cy="40.8" fill="none" r="36.1" stroke="url(#h)" stroke-linecap="round" stroke-miterlimit="10" stroke-width="10.37"/><path d="m40.9 54.5v-24.4l-5.6 3.4v-5.5l5.6-3.4h5.1v29.9z"/></svg>