<svg enable-background="new 0 0 942.4 435.5" viewBox="0 0 942.4 435.5" xmlns="http://www.w3.org/2000/svg" xmlns:xlink="http://www.w3.org/1999/xlink"><linearGradient id="a"><stop offset="0" stop-color="#5454a8"/><stop offset=".28" stop-color="#6661b3"/><stop offset=".73" stop-color="#7f71c2"/><stop offset="1" stop-color="#8878c8"/></linearGradient><linearGradient id="b" gradientTransform="matrix(.75 .0010472 .00074176 -1 -622.2566 -575.4424)" gradientUnits="userSpaceOnUse" x1="927.8565" x2="1309.6465" xlink:href="#a" y1="-946.9096" y2="-946.9096"/><linearGradient id="c"><stop offset="0" stop-color="#8878c8"/><stop offset=".27" stop-color="#7f71c2"/><stop offset=".72" stop-color="#6661b3"/><stop offset="1" stop-color="#5454a8"/></linearGradient><linearGradient id="d" gradientTransform="matrix(1 0 0 -1 0 -578)" gradientUnits="userSpaceOnUse" x1="-.005" x2="82.505" xlink:href="#c" y1="-950.12" y2="-950.12"/><linearGradient id="e" gradientTransform="matrix(1 0 0 -1 0 -578)" gradientUnits="userSpaceOnUse" x1="72.345" x2="361.645" xlink:href="#a" y1="-784.69" y2="-784.69"/><linearGradient id="f" gradientTransform="matrix(1 0 0 -1 0 -578)" gradientUnits="userSpaceOnUse" x1="-.005" x2="82.505" xlink:href="#c" y1="-784.69" y2="-784.69"/><linearGradient id="g" gradientTransform="matrix(1 0 0 -1 0 -578)" gradientUnits="userSpaceOnUse" x1="72.345" x2="361.645" xlink:href="#a" y1="-619.25" y2="-619.25"/><linearGradient id="h" gradientTransform="matrix(1 0 0 -1 0 -578)" gradientUnits="userSpaceOnUse" x1="-.005" x2="82.505" xlink:href="#c" y1="-619.25" y2="-619.25"/><path d="m422.9 381.4c-2.7 0-5-.6-6.9-1.8s-3.4-2.8-4.4-5-1.5-4.6-1.5-7.4.5-5.2 1.5-7.4c1-2.1 2.5-3.8 4.4-5s4.2-1.8 6.9-1.8c3.1 0 5.7.8 7.8 2.4s3.5 3.7 4.3 6.4l-4 1.1c-.5-1.9-1.5-3.4-2.8-4.5-1.4-1.1-3.1-1.6-5.2-1.6-1.9 0-3.5.4-4.8 1.3s-2.2 2.1-2.9 3.6-1 3.4-1 5.4c0 2.1.3 3.9 1 5.4.6 1.5 1.6 2.8 2.9 3.6 1.3.9 2.9 1.3 4.8 1.3 2.1 0 3.9-.5 5.2-1.6s2.3-2.6 2.8-4.4l4 1.1c-.8 2.7-2.2 4.8-4.3 6.4-2.1 1.8-4.6 2.6-7.8 2.5z"/><path d="m446.8 381.4c-1.4 0-2.6-.2-3.5-.7-1-.5-1.7-1-2.3-1.8-.6-.7-1-1.5-1.4-2.4-.3-.9-.5-1.7-.6-2.5s-.2-1.5-.2-2.2v-11.3h4v10c0 .8.1 1.6.2 2.4s.4 1.6.8 2.3.9 1.3 1.6 1.7 1.5.7 2.6.7c.7 0 1.4-.1 2-.4.6-.2 1.2-.6 1.6-1.1s.8-1.2 1.1-2 .4-1.9.4-3.1l2.4.9c0 1.8-.3 3.5-1 4.9s-1.7 2.5-3 3.3c-1.3.9-2.9 1.3-4.7 1.3zm6.7-.5v-5.9h-.5v-14.4h4v20.3z"/><path d="m470.5 381.4c-2.5 0-4.5-.5-6-1.6s-2.5-2.6-2.9-4.6l4-.6c.2 1 .8 1.9 1.7 2.5s2 .9 3.4.9c1.2 0 2.2-.2 2.9-.8s1-1.2 1-2.1c0-.5-.1-.9-.4-1.2s-.8-.6-1.5-.9-2-.6-3.5-1.1c-1.7-.5-3.1-.9-4.1-1.5-1-.5-1.8-1.1-2.2-1.8s-.6-1.5-.6-2.5c0-1.2.3-2.3 1-3.2s1.6-1.6 2.8-2.1 2.6-.8 4.2-.8 2.9.2 4.1.7 2.2 1.2 3 2.1 1.2 2 1.4 3.1l-4 .7c-.1-1-.6-1.8-1.4-2.3s-1.8-.9-3-.9-2.1.1-2.9.6c-.7.5-1.1 1-1.1 1.8 0 .5.1.8.4 1.1s.8.6 1.6.9 2 .6 3.6 1c1.7.4 3.1.9 4.1 1.5 1 .5 1.7 1.2 2.1 1.9s.6 1.6.6 2.7c0 2-.7 3.6-2.2 4.7-1.6 1.2-3.6 1.8-6.1 1.8z"/><path d="m481.5 363.8v-3.2h13.9v3.2zm13.9 17.1c-1.3.2-2.5.4-3.8.3-1.2 0-2.3-.3-3.3-.7s-1.7-1.1-2.2-2.1c-.4-.8-.7-1.7-.7-2.6s0-1.9 0-3v-17.8h3.9v17.8 2.1c0 .6.1 1.1.4 1.5.5.8 1.2 1.2 2.1 1.3 1 .1 2.1.1 3.5-.1z"/><path d="m508.1 381.4c-2 0-3.8-.5-5.3-1.4s-2.6-2.2-3.5-3.8-1.2-3.5-1.2-5.6.4-4 1.2-5.6 2-2.9 3.5-3.8 3.2-1.3 5.2-1.3 3.8.5 5.3 1.4 2.6 2.2 3.5 3.8c.8 1.6 1.2 3.5 1.2 5.5s-.4 4-1.2 5.6-2 2.9-3.5 3.8c-1.4 1-3.1 1.4-5.2 1.4zm0-3.7c1.9 0 3.4-.6 4.4-2 1-1.3 1.4-3 1.4-5.1s-.5-3.8-1.5-5.1-2.4-1.9-4.3-1.9c-1.3 0-2.4.3-3.2.9s-1.5 1.4-1.9 2.5c-.4 1-.6 2.3-.6 3.6 0 2.1.5 3.8 1.5 5.1.9 1.4 2.3 2 4.2 2z"/><path d="m522.8 380.9v-20.3h3.5v5.9h.5v14.4zm12.2 0v-12.6c0-1.5-.4-2.6-1.1-3.5-.8-.8-1.7-1.3-3-1.3s-2.2.4-3 1.3-1.1 2-1.1 3.3l-1.9-1.2c0-1.3.3-2.5 1-3.5s1.5-1.9 2.6-2.5 2.3-.9 3.7-.9 2.7.3 3.7.9 1.8 1.5 2.3 2.5.8 2.4.8 3.8v13.5zm12.1 0v-12.6c0-1.5-.4-2.6-1.1-3.4s-1.7-1.2-3-1.2c-.8 0-1.4.2-2.1.5-.6.3-1.1.9-1.5 1.5-.4.7-.6 1.5-.6 2.6l-1.9-1c0-1.4.3-2.7.9-3.8s1.5-1.9 2.6-2.5 2.3-.9 3.7-.9c2.2 0 3.9.7 5.1 2s1.8 3.1 1.8 5.2v13.6z"/><path d="m556.8 357.3v-3.8h3.9v3.8zm0 23.6v-20.3h3.9v20.3z"/><path d="m564.7 380.9v-.6l11.5-16.1h-10.5v-3.5h16.7v.6l-11.4 16.1h10.9v3.5z"/><path d="m592.6 381.4c-1.5 0-2.8-.3-3.8-.8-1-.6-1.8-1.3-2.3-2.2s-.8-1.9-.8-3c0-1 .2-1.9.5-2.7s.9-1.4 1.6-2c.7-.5 1.6-1 2.6-1.3.9-.3 1.9-.5 3.1-.7 1.1-.2 2.3-.4 3.6-.6s2.5-.4 3.8-.5l-1.4.8c0-1.6-.3-2.8-1-3.5s-1.9-1.1-3.6-1.1c-1.1 0-2 .2-2.9.7s-1.5 1.3-1.9 2.5l-3.7-1.1c.5-1.7 1.5-3.1 2.9-4.1s3.3-1.5 5.6-1.5c1.8 0 3.4.3 4.7.9s2.3 1.6 3 2.9c.3.7.5 1.4.6 2.1s.1 1.5.1 2.4v12.5h-3.5v-4.6l.7.6c-.8 1.5-1.9 2.7-3.2 3.5s-2.8.8-4.7.8zm.7-3.2c1.1 0 2.1-.2 2.9-.6s1.5-.9 1.9-1.5c.5-.6.8-1.2 1-1.9.2-.6.3-1.3.4-2 0-.8 0-1.4 0-1.8l1.3.5c-1.2.2-2.4.4-3.4.5s-1.9.3-2.8.4-1.5.3-2.2.5c-.5.2-1 .4-1.4.7s-.8.6-1 1-.4.8-.4 1.4.1 1 .4 1.5.7.8 1.2 1.1c.6.1 1.3.2 2.1.2z"/><path d="m606.6 363.8v-3.2h13.9v3.2zm13.9 17.1c-1.3.2-2.5.4-3.8.3-1.2 0-2.3-.3-3.3-.7s-1.7-1.1-2.2-2.1c-.4-.8-.7-1.7-.7-2.6s0-1.9 0-3v-17.8h3.9v17.8 2.1c0 .6.2 1.1.4 1.5.5.8 1.2 1.2 2.2 1.3s2.1.1 3.5-.1z"/><path d="m624.9 357.3v-3.8h3.9v3.8zm0 23.6v-20.3h3.9v20.3z"/><path d="m643.7 381.4c-2 0-3.8-.5-5.3-1.4s-2.6-2.2-3.5-3.8-1.2-3.5-1.2-5.6.4-4 1.2-5.6 2-2.9 3.5-3.8 3.2-1.3 5.2-1.3 3.8.5 5.3 1.4 2.6 2.2 3.5 3.8c.8 1.6 1.2 3.5 1.2 5.5s-.4 4-1.2 5.6-2 2.9-3.5 3.8c-1.5 1-3.2 1.4-5.2 1.4zm0-3.7c1.9 0 3.4-.6 4.3-2 1-1.3 1.4-3 1.4-5.1s-.5-3.8-1.5-5.1-2.4-1.9-4.3-1.9c-1.3 0-2.4.3-3.2.9s-1.5 1.4-1.9 2.5c-.4 1-.6 2.3-.6 3.6 0 2.1.5 3.8 1.5 5.1.9 1.4 2.4 2 4.3 2z"/><path d="m658.3 380.9v-20.3h3.5v5.9h.5v14.4zm14.3 0v-10c0-.8-.1-1.6-.2-2.4s-.4-1.6-.8-2.3-.9-1.3-1.6-1.7-1.5-.7-2.6-.7c-.7 0-1.4.1-2 .4-.6.2-1.2.6-1.6 1.1-.5.5-.8 1.2-1.1 2s-.4 1.9-.4 3.1l-2.4-.9c0-1.8.3-3.5 1-4.9s1.7-2.5 3-3.3 2.8-1.2 4.7-1.2c1.4 0 2.6.2 3.5.7 1 .5 1.7 1 2.3 1.8s1 1.5 1.4 2.4c.3.9.5 1.7.6 2.5s.2 1.5.2 2.2v11.3z"/><path d="m698.9 381.4c-1.9 0-3.5-.5-4.9-1.4s-2.4-2.2-3.2-3.8-1.1-3.5-1.1-5.5.4-3.9 1.1-5.5c.8-1.6 1.8-2.9 3.2-3.8s3-1.4 4.9-1.4 3.5.5 4.8 1.4 2.3 2.2 3 3.8 1 3.4 1 5.5-.3 3.9-1 5.5-1.7 2.9-3 3.8c-1.2 1-2.8 1.4-4.8 1.4zm.5-3.5c1.3 0 2.3-.3 3.2-.9.8-.6 1.4-1.5 1.8-2.5.4-1.1.6-2.3.6-3.7s-.2-2.6-.6-3.7-1-1.9-1.8-2.5-1.8-.9-3-.9c-1.3 0-2.4.3-3.2 1-.8.6-1.5 1.5-1.9 2.6s-.6 2.3-.6 3.6.2 2.5.6 3.6 1 1.9 1.8 2.6c.9.5 1.9.8 3.1.8zm5.5 3v-14.6h-.5v-12.5h3.9v27z"/><path d="m723.3 381.4c-2 0-3.8-.4-5.3-1.3s-2.7-2.1-3.5-3.7-1.3-3.4-1.3-5.5c0-2.2.4-4.1 1.2-5.8.8-1.6 2-2.9 3.5-3.8s3.2-1.3 5.2-1.3 3.8.5 5.3 1.4 2.5 2.3 3.3 4.1c.7 1.8 1 3.9.8 6.3h-3.9v-1.4c0-2.4-.5-4.1-1.3-5.2s-2.2-1.7-4-1.7c-2 0-3.4.6-4.4 1.9s-1.5 3-1.5 5.4.5 4 1.5 5.2 2.4 1.8 4.3 1.8c1.2 0 2.3-.3 3.2-.8.9-.6 1.6-1.4 2.1-2.4l3.8 1.2c-.8 1.8-2 3.2-3.6 4.2-1.7.9-3.5 1.4-5.4 1.4zm-7.2-9.6v-3.1h14.5v3.1z"/><path d="m744.9 381.4c-2.5 0-4.5-.5-6-1.6s-2.5-2.6-2.8-4.6l4-.6c.2 1 .8 1.9 1.7 2.5s2 .9 3.4.9c1.2 0 2.2-.2 2.9-.8s1-1.2 1-2.1c0-.5-.1-.9-.4-1.2s-.8-.6-1.5-.9-2-.6-3.5-1.1c-1.7-.5-3.1-.9-4.1-1.5s-1.8-1.1-2.2-1.8-.7-1.5-.7-2.5c0-1.2.3-2.3 1-3.2s1.6-1.6 2.8-2.1 2.6-.8 4.2-.8 2.9.2 4.2.7c1.2.5 2.2 1.2 3 2.1s1.2 2 1.3 3.1l-4 .7c-.1-1-.6-1.8-1.4-2.3-.8-.6-1.8-.9-3-.9s-2.2.1-2.9.6-1.1 1-1.1 1.8c0 .5.1.8.4 1.1s.8.6 1.6.9 2 .6 3.6 1c1.7.4 3.1.9 4.1 1.5 1 .5 1.7 1.2 2.2 1.9.4.7.7 1.6.7 2.7 0 2-.7 3.6-2.2 4.7-1.7 1.2-3.7 1.8-6.3 1.8z"/><path d="m409.8 426 8.8-27h5.6l8.8 27h-4.1l-8.1-24.7h1l-8 24.7zm4.5-6.1v-3.7h14.1v3.7z"/><path d="m439.9 426-6.2-20.3h3.9l4.2 13.9 4.3-13.9h3.4l4.3 13.9 4.2-13.9h3.9l-6.2 20.3h-3.2l-4.7-14.7-4.8 14.7z"/><path d="m471 426.5c-1.5 0-2.8-.3-3.8-.8s-1.8-1.3-2.3-2.2-.8-1.9-.8-3c0-1 .2-1.9.5-2.7.4-.8.9-1.4 1.6-2 .7-.5 1.6-1 2.6-1.3.9-.3 1.9-.5 3.1-.7s2.3-.4 3.6-.6 2.5-.4 3.8-.5l-1.4.8c0-1.6-.3-2.8-1-3.5-.7-.8-1.9-1.1-3.6-1.1-1.1 0-2 .2-2.9.7s-1.5 1.3-1.9 2.5l-3.7-1.1c.5-1.7 1.5-3.1 2.9-4.1s3.3-1.5 5.6-1.5c1.8 0 3.4.3 4.7.9 1.4.6 2.3 1.6 3 2.9.3.7.5 1.4.6 2.1s.1 1.5.1 2.4v12.5h-3.5v-4.6l.7.6c-.8 1.5-1.9 2.7-3.2 3.5s-2.8.8-4.7.8zm.7-3.2c1.1 0 2.1-.2 2.9-.6s1.5-.9 1.9-1.5c.5-.6.8-1.2 1-1.9.2-.6.3-1.3.4-2 0-.8 0-1.4 0-1.8l1.3.5c-1.2.2-2.4.4-3.4.5s-1.9.3-2.8.4-1.5.3-2.2.5c-.5.2-1 .4-1.4.7s-.8.6-1 1-.4.8-.4 1.4.1 1 .4 1.5.7.8 1.2 1.1 1.3.2 2.1.2z"/><path d="m487.3 426v-20.3h3.5v4.9l-.5-.6c.2-.6.6-1.2 1-1.8.4-.5.9-1 1.4-1.3.5-.4 1.1-.7 1.7-.9s1.3-.3 1.9-.4 1.3 0 1.9.1v3.7c-.7-.2-1.4-.2-2.2-.1s-1.5.3-2.2.8c-.6.4-1.1.9-1.5 1.5s-.6 1.2-.8 2-.2 1.5-.2 2.3v10.2z"/><path d="m511 426.5c-2 0-3.8-.4-5.3-1.3s-2.7-2.1-3.5-3.7c-.9-1.6-1.3-3.4-1.3-5.5 0-2.2.4-4.1 1.2-5.8.8-1.6 2-2.9 3.5-3.8s3.2-1.3 5.2-1.3 3.8.5 5.3 1.4 2.5 2.3 3.3 4.1c.7 1.8 1 3.9.8 6.3h-3.9v-1.4c0-2.4-.5-4.1-1.3-5.2s-2.2-1.7-4-1.7c-2 0-3.4.6-4.4 1.9s-1.5 3-1.5 5.4.5 4 1.5 5.2 2.4 1.8 4.3 1.8c1.2 0 2.3-.3 3.2-.8s1.6-1.4 2.1-2.4l3.8 1.2c-.8 1.8-2 3.2-3.6 4.2s-3.4 1.4-5.4 1.4zm-7.2-9.6v-3.1h14.5v3.1z"/><path d="m524.9 426v-20.3h3.5v5.9h.5v14.4zm14.3 0v-10c0-.8-.1-1.6-.2-2.4s-.4-1.6-.8-2.3-.9-1.3-1.6-1.7-1.5-.7-2.6-.7c-.7 0-1.4.1-2 .4s-1.2.6-1.6 1.1-.8 1.2-1.1 2-.4 1.9-.4 3.1l-2.4-.9c0-1.8.3-3.5 1-4.9s1.7-2.5 3-3.3 2.8-1.2 4.7-1.2c1.4 0 2.6.2 3.5.7 1 .5 1.7 1 2.3 1.8s1 1.5 1.4 2.4c.3.9.5 1.7.6 2.5s.2 1.5.2 2.2v11.2z"/><path d="m557.7 426.5c-2 0-3.8-.4-5.3-1.3s-2.7-2.1-3.5-3.7-1.3-3.4-1.3-5.5c0-2.2.4-4.1 1.2-5.8.8-1.6 2-2.9 3.5-3.8s3.2-1.3 5.2-1.3 3.8.5 5.3 1.4 2.5 2.3 3.3 4.1c.7 1.8 1 3.9.8 6.3h-3.9v-1.4c0-2.4-.5-4.1-1.3-5.2s-2.2-1.7-4-1.7c-2 0-3.4.6-4.4 1.9s-1.5 3-1.5 5.4.5 4 1.5 5.2 2.4 1.8 4.3 1.8c1.2 0 2.3-.3 3.2-.8s1.6-1.4 2.1-2.4l3.8 1.2c-.8 1.8-2 3.2-3.6 4.2s-3.5 1.4-5.4 1.4zm-7.3-9.6v-3.1h14.5v3.1z"/><path d="m579.3 426.5c-2.5 0-4.5-.5-6-1.6s-2.5-2.6-2.8-4.6l4-.6c.2 1 .8 1.9 1.7 2.5s2 .9 3.4.9c1.2 0 2.2-.2 2.9-.8s1-1.2 1-2.1c0-.5-.1-.9-.4-1.2-.2-.3-.8-.6-1.5-.9s-2-.6-3.5-1.1c-1.7-.5-3.1-.9-4.1-1.5s-1.8-1.1-2.2-1.8-.7-1.5-.7-2.5c0-1.2.3-2.3 1-3.2s1.6-1.6 2.8-2.1 2.6-.8 4.2-.8 2.9.2 4.2.7c1.2.5 2.2 1.2 3 2.1s1.2 1.9 1.3 3.1l-4 .7c-.1-1-.6-1.8-1.4-2.3s-1.8-.9-3-.9-2.2.1-2.9.6-1.1 1.1-1.1 1.8c0 .5.1.8.4 1.1s.8.6 1.6.9 2 .6 3.6 1c1.7.4 3.1.9 4.1 1.5 1 .5 1.7 1.2 2.2 1.9.4.7.7 1.6.7 2.7 0 2-.7 3.6-2.2 4.7-1.7 1.2-3.7 1.8-6.3 1.8z"/><path d="m600 426.5c-2.5 0-4.5-.5-6-1.6s-2.5-2.6-2.8-4.6l4-.6c.2 1 .8 1.9 1.7 2.5s2 .9 3.4.9c1.2 0 2.2-.2 2.9-.8s1-1.2 1-2.1c0-.5-.1-.9-.4-1.2-.2-.3-.8-.6-1.5-.9s-2-.6-3.5-1.1c-1.7-.5-3.1-.9-4.1-1.5s-1.8-1.1-2.2-1.8-.7-1.5-.7-2.5c0-1.2.3-2.3 1-3.2s1.6-1.6 2.8-2.1 2.6-.8 4.2-.8 2.9.2 4.2.7c1.2.5 2.2 1.2 3 2.1s1.2 1.9 1.3 3.1l-4 .7c-.1-1-.6-1.8-1.4-2.3s-1.8-.9-3-.9-2.2.1-2.9.6-1.1 1.1-1.1 1.8c0 .5.1.8.4 1.1s.8.6 1.6.9 2 .6 3.6 1c1.7.4 3.1.9 4.1 1.5 1 .5 1.7 1.2 2.2 1.9.4.7.7 1.6.7 2.7 0 2-.7 3.6-2.2 4.7-1.7 1.2-3.7 1.8-6.3 1.8z"/><path d="m611.7 415.7v-3.2h11.3v3.2z"/><path d="m627.8 426v-27h10.9 1c.4 0 .8.1 1.1.1 1.5.2 2.8.8 3.8 1.5s1.8 1.8 2.3 3 .8 2.5.8 4-.2 2.8-.8 4-1.3 2.2-2.3 3-2.3 1.3-3.8 1.5c-.3 0-.7.1-1.1.1s-.7 0-1 0h-7v9.7h-3.9zm4-13.5h6.9.8c.3 0 .6-.1.9-.1.8-.2 1.5-.5 1.9-1 .5-.5.8-1.1 1-1.8s.3-1.3.3-2-.1-1.3-.3-2-.6-1.2-1-1.8-1.1-.9-1.9-1c-.3-.1-.6-.1-.9-.1s-.6 0-.8 0h-6.9z"/><path d="m651.5 426v-20.3h3.5v4.9l-.5-.6c.2-.6.6-1.2 1-1.8.4-.5.9-1 1.4-1.3.5-.4 1.1-.7 1.7-.9s1.3-.3 1.9-.4 1.3 0 1.9.1v3.7c-.7-.2-1.4-.2-2.2-.1s-1.5.3-2.2.8c-.6.4-1.1.9-1.5 1.5s-.6 1.2-.8 2-.2 1.5-.2 2.3v10.2z"/><path d="m675 426.5c-2 0-3.8-.5-5.3-1.4s-2.6-2.2-3.5-3.8c-.8-1.6-1.2-3.5-1.2-5.6s.4-4 1.2-5.6 2-2.9 3.5-3.8 3.2-1.3 5.2-1.3 3.8.5 5.3 1.4 2.6 2.2 3.5 3.8c.8 1.6 1.2 3.5 1.2 5.5s-.4 4-1.2 5.6-2 2.9-3.5 3.8c-1.5 1-3.2 1.4-5.2 1.4zm0-3.7c1.9 0 3.4-.6 4.3-2 1-1.3 1.4-3 1.4-5.1s-.5-3.8-1.5-5.1-2.4-1.9-4.3-1.9c-1.3 0-2.4.3-3.2.9s-1.5 1.4-1.9 2.5-.6 2.3-.6 3.6c0 2.1.5 3.8 1.5 5.1.9 1.4 2.4 2 4.3 2z"/><path d="m697.8 426.5c-1.9 0-3.5-.5-4.9-1.4s-2.4-2.2-3.2-3.8-1.1-3.5-1.1-5.5.4-3.9 1.1-5.5c.8-1.6 1.8-2.9 3.2-3.8s3-1.4 4.9-1.4 3.5.5 4.8 1.4 2.3 2.2 3 3.8 1 3.4 1 5.5-.3 3.9-1 5.5-1.7 2.9-3 3.8-2.9 1.4-4.8 1.4zm.3 9c-1.1 0-2.1-.2-3.2-.5-1-.3-2-.8-2.8-1.5s-1.5-1.5-2.1-2.4l3.6-1.8c.4.9 1.1 1.5 1.9 1.9s1.7.6 2.6.6c1.1 0 2.1-.2 2.9-.6s1.4-1 1.8-1.8.6-1.8.6-2.9v-5.7h.5v-15.1h3.5v20.8c0 .5 0 1-.1 1.5 0 .5-.1 1-.2 1.5-.3 1.4-.8 2.5-1.6 3.4s-1.8 1.5-3.1 2-2.8.6-4.3.6zm.2-12.5c1.3 0 2.3-.3 3.2-.9.8-.6 1.4-1.5 1.8-2.5.4-1.1.6-2.3.6-3.7s-.2-2.6-.6-3.7-1-1.9-1.8-2.5-1.8-.9-3-.9c-1.3 0-2.4.3-3.2 1s-1.5 1.5-1.9 2.6-.6 2.3-.6 3.6.2 2.5.6 3.6 1 1.9 1.8 2.6c.8.4 1.8.8 3.1.8z"/><path d="m713 426v-20.3h3.5v4.9l-.5-.6c.2-.6.6-1.2 1-1.8.4-.5.9-1 1.4-1.3.5-.4 1.1-.7 1.7-.9s1.3-.3 1.9-.4 1.3 0 1.9.1v3.7c-.7-.2-1.4-.2-2.2-.1s-1.5.3-2.2.8c-.6.4-1.1.9-1.5 1.5s-.6 1.2-.8 2-.2 1.5-.2 2.3v10.2z"/><path d="m733.7 426.5c-1.5 0-2.8-.3-3.8-.8s-1.8-1.3-2.3-2.2-.8-1.9-.8-3c0-1 .2-1.9.5-2.7s.9-1.4 1.6-2c.7-.5 1.6-1 2.6-1.3.9-.3 1.9-.5 3.1-.7s2.3-.4 3.6-.6 2.5-.4 3.8-.5l-1.4.8c0-1.6-.3-2.8-1-3.5-.7-.8-1.9-1.1-3.6-1.1-1.1 0-2 .2-2.9.7s-1.5 1.3-1.9 2.5l-3.7-1.1c.5-1.7 1.5-3.1 2.9-4.1s3.3-1.5 5.6-1.5c1.8 0 3.4.3 4.7.9s2.3 1.6 3 2.9c.3.7.5 1.4.6 2.1s.1 1.5.1 2.4v12.5h-3.4v-4.6l.7.6c-.8 1.5-1.9 2.7-3.2 3.5s-2.9.8-4.8.8zm.7-3.2c1.1 0 2.1-.2 2.9-.6s1.5-.9 1.9-1.5c.5-.6.8-1.2 1-1.9.2-.6.3-1.3.4-2 0-.8 0-1.4 0-1.8l1.3.5c-1.2.2-2.4.4-3.4.5s-1.9.3-2.8.4-1.5.3-2.2.5c-.5.2-1 .4-1.4.7s-.8.6-1 1-.4.8-.4 1.4.1 1 .4 1.5.7.8 1.2 1.1c.5.1 1.2.2 2.1.2z"/><path d="m750 426v-20.3h3.5v5.9h.5v14.4zm12.2 0v-12.6c0-1.5-.4-2.6-1.1-3.5-.8-.8-1.7-1.3-3-1.3s-2.2.4-3 1.3-1.1 2-1.1 3.3l-1.9-1.2c0-1.3.3-2.5 1-3.5s1.5-1.9 2.6-2.5 2.3-.9 3.7-.9 2.7.3 3.7.9 1.8 1.5 2.3 2.5c.5 1.1.8 2.4.8 3.8v13.5zm12.1 0v-12.6c0-1.5-.4-2.6-1.1-3.4s-1.7-1.2-3-1.2c-.8 0-1.4.2-2.1.5s-1.1.9-1.5 1.5c-.4.7-.6 1.5-.6 2.6l-1.9-1c0-1.4.3-2.7.9-3.8s1.5-1.9 2.6-2.5 2.3-.9 3.7-.9c2.2 0 3.9.7 5.1 2s1.8 3.1 1.8 5.2v13.6z"/><path d="m783.8 426v-20.3h3.5v5.9h.5v14.4zm12.2 0v-12.6c0-1.5-.4-2.6-1.1-3.5-.8-.8-1.7-1.3-3-1.3s-2.2.4-3 1.3-1.1 2-1.1 3.3l-1.9-1.2c0-1.3.3-2.5 1-3.5s1.5-1.9 2.6-2.5 2.3-.9 3.7-.9 2.7.3 3.7.9 1.8 1.5 2.3 2.5c.5 1.1.8 2.4.8 3.8v13.5zm12.1 0v-12.6c0-1.5-.4-2.6-1.1-3.4s-1.7-1.2-3-1.2c-.8 0-1.4.2-2.1.5s-1.1.9-1.5 1.5c-.4.7-.6 1.5-.6 2.6l-1.9-1c0-1.4.3-2.7.9-3.8s1.5-1.9 2.6-2.5 2.3-.9 3.7-.9c2.2 0 3.9.7 5.1 2s1.8 3.1 1.8 5.2v13.6z"/><path d="m825.3 426.5c-2.5 0-4.5-.5-6-1.6s-2.5-2.6-2.8-4.6l4-.6c.2 1 .8 1.9 1.7 2.5s2 .9 3.4.9c1.2 0 2.2-.2 2.9-.8s1-1.2 1-2.1c0-.5-.1-.9-.4-1.2-.2-.3-.8-.6-1.5-.9s-2-.6-3.5-1.1c-1.7-.5-3.1-.9-4.1-1.5s-1.8-1.1-2.2-1.8-.7-1.5-.7-2.5c0-1.2.3-2.3 1-3.2s1.6-1.6 2.8-2.1 2.6-.8 4.2-.8 2.9.2 4.2.7c1.2.5 2.2 1.2 3 2.1s1.2 1.9 1.3 3.1l-4 .7c-.1-1-.6-1.8-1.4-2.3s-1.8-.9-3-.9-2.2.1-2.9.6-1.1 1.1-1.1 1.8c0 .5.1.8.4 1.1s.8.6 1.6.9 2 .6 3.6 1c1.7.4 3.1.9 4.1 1.5 1 .5 1.7 1.2 2.2 1.9.4.7.7 1.6.7 2.7 0 2-.7 3.6-2.2 4.7-1.7 1.2-3.8 1.8-6.3 1.8z"/><path d="m411.6 216v-27.1h10.9 1c.4 0 .8.1 1.1.1 1.5.2 2.8.8 3.8 1.5s1.8 1.8 2.3 3 .8 2.5.8 4-.2 2.8-.8 4-1.3 2.2-2.3 3-2.3 1.3-3.8 1.5c-.4.1-.7.1-1.1.1s-.7 0-1 0h-7v9.7zm4-13.5h6.9.8c.3 0 .6-.1.9-.1.8-.2 1.5-.5 1.9-1 .5-.5.8-1.1 1-1.8s.3-1.3.3-2-.1-1.3-.3-2-.6-1.2-1-1.8-1.1-.9-1.9-1c-.3-.1-.6-.1-.9-.1s-.6 0-.8 0h-6.9z"/><path d="m444.3 216.5c-2 0-3.8-.4-5.3-1.3s-2.7-2.1-3.5-3.7c-.9-1.6-1.3-3.4-1.3-5.5 0-2.2.4-4.1 1.2-5.8s2-2.9 3.5-3.8 3.2-1.3 5.2-1.3 3.8.5 5.3 1.4 2.5 2.3 3.3 4.1c.7 1.8 1 3.9.9 6.3h-3.9v-1.4c0-2.4-.5-4.1-1.3-5.2s-2.2-1.7-4-1.7c-2 0-3.4.6-4.4 1.9s-1.5 3-1.5 5.4.5 3.9 1.5 5.2 2.4 1.8 4.3 1.8c1.2 0 2.3-.3 3.2-.8s1.6-1.4 2.1-2.4l3.9 1.2c-.8 1.8-2 3.2-3.6 4.2s-3.7 1.4-5.6 1.4zm-7.3-9.6v-3.1h14.5v3.1z"/><path d="m458.2 216v-20.3h3.5v4.9l-.5-.6c.2-.6.6-1.2 1-1.8.4-.5.9-1 1.4-1.3.5-.4 1.1-.7 1.7-.9s1.3-.3 1.9-.4 1.3 0 1.9.1v3.7c-.7-.2-1.4-.2-2.2-.1s-1.5.3-2.2.8c-.6.4-1.1.9-1.5 1.5s-.6 1.2-.8 2-.2 1.5-.2 2.3v10.1z"/><path d="m481 216.5c-2.5 0-4.5-.5-6-1.6s-2.5-2.6-2.9-4.6l4-.6c.2 1.1.8 1.9 1.7 2.5s2 .9 3.4.9c1.2 0 2.2-.2 2.9-.8s1-1.2 1-2.1c0-.5-.1-.9-.4-1.2-.2-.3-.8-.6-1.5-.9-.8-.3-2-.6-3.5-1.1-1.7-.4-3.1-.9-4.1-1.5-1-.5-1.8-1.1-2.2-1.8s-.6-1.5-.6-2.5c0-1.2.3-2.3 1-3.2s1.6-1.6 2.8-2.1 2.6-.8 4.2-.8 2.9.2 4.1.7 2.2 1.2 3 2.1 1.2 1.9 1.4 3.1l-4 .7c-.1-1-.6-1.8-1.4-2.3s-1.8-.9-3-.9c-1.2-.1-2.1.1-2.9.6-.7.4-1.1 1.1-1.1 1.8 0 .4.1.8.4 1.1s.8.6 1.6.9 2 .6 3.6 1c1.7.4 3.1.9 4.1 1.5 1 .5 1.7 1.2 2.1 1.9s.6 1.6.6 2.7c0 2-.7 3.6-2.2 4.7-1.5 1.3-3.6 1.8-6.1 1.8z"/><path d="m502.7 216.5c-2 0-3.8-.5-5.3-1.4s-2.6-2.2-3.5-3.8-1.2-3.5-1.2-5.6.4-4 1.2-5.6 2-2.9 3.5-3.8 3.2-1.3 5.2-1.3 3.8.5 5.3 1.4 2.6 2.2 3.5 3.8c.8 1.6 1.2 3.4 1.2 5.5s-.4 4-1.2 5.6-2 2.9-3.5 3.8c-1.4 1-3.2 1.4-5.2 1.4zm0-3.7c1.9 0 3.4-.6 4.4-2 1-1.3 1.4-3 1.4-5.1s-.5-3.8-1.5-5.1-2.4-1.9-4.3-1.9c-1.3 0-2.4.3-3.2.9-.9.6-1.5 1.4-1.9 2.5s-.6 2.3-.6 3.6c0 2.1.5 3.8 1.5 5.1.9 1.4 2.3 2 4.2 2z"/><path d="m517.4 216v-20.3h3.5v5.9h.5v14.4zm14.2 0v-10c0-.8-.1-1.6-.2-2.4s-.4-1.6-.8-2.3-.9-1.3-1.6-1.7-1.5-.7-2.6-.7c-.7 0-1.4.1-2 .4s-1.2.6-1.6 1.1-.8 1.2-1.1 2-.4 1.9-.4 3.1l-2.4-.9c0-1.8.3-3.5 1-4.9s1.7-2.5 3-3.3 2.8-1.2 4.7-1.2c1.4 0 2.6.2 3.5.7s1.7 1 2.3 1.8 1 1.5 1.4 2.4.5 1.7.6 2.5.2 1.6.2 2.2v11.2z"/><path d="m546.8 216.5c-1.5 0-2.8-.3-3.8-.8s-1.8-1.3-2.3-2.2-.8-1.9-.8-3c0-1 .2-1.9.5-2.7.4-.8.9-1.4 1.6-2 .7-.5 1.6-1 2.6-1.3.9-.3 1.9-.5 3.1-.7s2.3-.4 3.6-.6 2.5-.4 3.8-.5l-1.4.8c0-1.6-.3-2.8-1-3.5-.7-.8-1.9-1.1-3.6-1.1-1.1 0-2 .2-2.9.7s-1.5 1.3-1.9 2.4l-3.7-1.1c.5-1.7 1.5-3.1 2.9-4.1s3.3-1.5 5.6-1.5c1.8 0 3.4.3 4.7.9s2.3 1.6 3 2.9c.3.7.5 1.4.6 2.1s.1 1.5.1 2.4v12.4h-3.5v-4.6l.7.6c-.8 1.6-1.9 2.7-3.2 3.5s-2.8 1-4.7 1zm.7-3.2c1.1 0 2.1-.2 2.9-.6s1.5-.9 1.9-1.5c.5-.6.8-1.2 1-1.9.2-.6.3-1.3.4-2 0-.8 0-1.4 0-1.8l1.3.5c-1.2.2-2.4.4-3.4.5s-1.9.3-2.8.4-1.5.3-2.2.5c-.5.2-1 .4-1.4.7s-.8.6-1 1-.4.8-.4 1.4.1 1 .4 1.5c.3.4.7.8 1.2 1.1.5.1 1.2.2 2.1.2z"/><path d="m563.3 216v-27.6h3.9v27.6z"/><path d="m573.3 192.4v-3.8h3.9v3.8zm0 23.6v-20.3h3.9v20.3z"/><path d="m590.9 216.5c-2.5 0-4.5-.5-6-1.6s-2.5-2.6-2.8-4.6l4-.6c.2 1.1.8 1.9 1.7 2.5s2 .9 3.4.9c1.2 0 2.2-.2 2.9-.8s1-1.2 1-2.1c0-.5-.1-.9-.4-1.2-.2-.3-.8-.6-1.5-.9-.8-.3-2-.6-3.5-1.1-1.7-.4-3.1-.9-4.1-1.5s-1.8-1.1-2.2-1.8-.7-1.5-.7-2.5c0-1.2.3-2.3 1-3.2s1.6-1.6 2.8-2.1 2.6-.8 4.2-.8 2.9.2 4.2.7c1.2.5 2.2 1.2 3 2.1s1.2 1.9 1.3 3.1l-4 .7c-.1-1-.6-1.8-1.4-2.3s-1.8-.9-3-.9c-1.2-.1-2.2.1-2.9.6-.7.4-1.1 1.1-1.1 1.8 0 .4.1.8.4 1.1s.8.6 1.6.9 2 .6 3.6 1c1.7.4 3.1.9 4.1 1.5 1 .5 1.7 1.2 2.2 1.9.4.7.7 1.6.7 2.7 0 2-.7 3.6-2.2 4.7-1.8 1.3-3.8 1.8-6.3 1.8z"/><path d="m604.1 192.4v-3.8h3.9v3.8zm0 23.6v-20.3h3.9v20.3z"/><path d="m623.1 216.5c-2 0-3.8-.4-5.3-1.3s-2.7-2.1-3.5-3.7-1.3-3.4-1.3-5.5c0-2.2.4-4.1 1.2-5.8s2-2.9 3.5-3.8 3.2-1.3 5.2-1.3 3.8.5 5.3 1.4 2.5 2.3 3.3 4.1c.7 1.8 1 3.9.8 6.3h-3.9v-1.4c0-2.4-.5-4.1-1.3-5.2s-2.2-1.7-4-1.7c-2 0-3.4.6-4.4 1.9s-1.5 3-1.5 5.4.5 3.9 1.5 5.2 2.4 1.8 4.3 1.8c1.2 0 2.3-.3 3.2-.8s1.6-1.4 2.1-2.4l3.8 1.2c-.8 1.8-2 3.2-3.6 4.2s-3.5 1.4-5.4 1.4zm-7.2-9.6v-3.1h14.5v3.1z"/><path d="m637 216v-20.3h3.5v4.9l-.5-.6c.2-.6.6-1.2 1-1.8.4-.5.9-1 1.4-1.3.5-.4 1.1-.7 1.7-.9s1.3-.3 1.9-.4 1.3 0 1.9.1v3.7c-.7-.2-1.4-.2-2.2-.1s-1.5.3-2.2.8c-.6.4-1.1.9-1.5 1.5s-.6 1.2-.8 2-.2 1.5-.2 2.3v10.1z"/><path d="m650.8 198.9v-3.2h13.9v3.2zm13.8 17.1c-1.3.2-2.5.4-3.8.3s-2.3-.3-3.3-.7-1.7-1.1-2.2-2.1c-.4-.8-.7-1.7-.7-2.6s0-1.9 0-3v-17.9h3.9v17.8 2.1s.2 1.1.4 1.5c.5.8 1.2 1.2 2.2 1.3s2.1.1 3.5-.1z"/><path d="m677.6 216.5c-2 0-3.8-.4-5.3-1.3s-2.7-2.1-3.5-3.7-1.3-3.4-1.3-5.5c0-2.2.4-4.1 1.2-5.8s2-2.9 3.5-3.8 3.2-1.3 5.2-1.3 3.8.5 5.3 1.4 2.5 2.3 3.3 4.1c.7 1.8 1 3.9.8 6.3h-3.9v-1.4c0-2.4-.5-4.1-1.3-5.2s-2.2-1.7-4-1.7c-2 0-3.4.6-4.4 1.9s-1.5 3-1.5 5.4.5 3.9 1.5 5.2 2.4 1.8 4.3 1.8c1.2 0 2.3-.3 3.2-.8s1.6-1.4 2.1-2.4l3.8 1.2c-.8 1.8-2 3.2-3.6 4.2s-3.5 1.4-5.4 1.4zm-7.2-9.6v-3.1h14.5v3.1z"/><path d="m412 261.1v-27.1h3.9v23.3h12.2v3.7h-16.1z"/><path d="m440.6 261.6c-2 0-3.8-.4-5.3-1.3s-2.7-2.1-3.5-3.7c-.9-1.6-1.3-3.4-1.3-5.5 0-2.2.4-4.1 1.2-5.8s2-2.9 3.5-3.8 3.2-1.3 5.2-1.3 3.8.5 5.3 1.4 2.5 2.3 3.3 4.1c.7 1.8 1 3.9.9 6.3h-3.9v-1.4c0-2.4-.5-4.1-1.3-5.2s-2.2-1.7-4-1.7c-2 0-3.4.6-4.4 1.9s-1.5 3-1.5 5.4.5 3.9 1.5 5.2c1 1.2 2.4 1.8 4.3 1.8 1.2 0 2.3-.3 3.2-.8.9-.6 1.6-1.4 2.1-2.4l3.9 1.2c-.8 1.8-2 3.2-3.6 4.2s-3.7 1.4-5.6 1.4zm-7.2-9.6v-3h14.5v3.1h-14.5z"/><path d="m454.5 261.1v-20.3h3.5v4.9l-.5-.6c.2-.6.6-1.2 1-1.8s.9-1 1.4-1.3c.5-.4 1.1-.7 1.7-.9s1.3-.3 1.9-.4c.7 0 1.3 0 1.9.1v3.7c-.7-.2-1.4-.2-2.2-.1s-1.5.3-2.2.8c-.6.4-1.1.9-1.5 1.5s-.6 1.2-.8 2c-.2.7-.2 1.5-.2 2.3v10.2z"/><path d="m469.4 261.1v-20.3h3.5v5.9h.5v14.4zm14.2 0v-10c0-.8-.1-1.6-.2-2.4s-.4-1.6-.8-2.3-.9-1.3-1.6-1.7-1.5-.7-2.6-.7c-.7 0-1.4.1-2 .4-.6.2-1.2.6-1.6 1.1s-.8 1.2-1.1 2-.4 1.9-.4 3.1l-2.4-.9c0-1.8.3-3.5 1-4.9s1.7-2.5 3-3.3 2.9-1.2 4.7-1.2c1.4 0 2.6.2 3.5.7 1 .4 1.7 1 2.3 1.8s1 1.5 1.4 2.4.5 1.7.6 2.5.2 1.6.2 2.2v11.3z"/><path d="m493.1 261.1v-20.3h3.5v5.9h.5v14.4zm12.2 0v-12.6c0-1.5-.4-2.6-1.1-3.5-.8-.8-1.7-1.3-3-1.3s-2.2.4-3 1.3-1.1 2-1.1 3.3l-1.9-1.2c0-1.3.3-2.5 1-3.6.6-1 1.5-1.9 2.6-2.5s2.3-.9 3.7-.9 2.7.3 3.7.9 1.8 1.5 2.3 2.6.8 2.4.8 3.8v13.5h-4zm12.1 0v-12.6c0-1.5-.4-2.6-1.1-3.4-.8-.8-1.7-1.2-3-1.2-.8 0-1.4.2-2.1.5-.6.3-1.1.9-1.5 1.5s-.6 1.5-.6 2.6l-1.9-1c0-1.4.3-2.7.9-3.8s1.5-1.9 2.6-2.5 2.3-.9 3.7-.9c2.2 0 3.9.7 5.1 2s1.8 3.1 1.8 5.2v13.6z"/><path d="m535.8 261.6c-2 0-3.8-.5-5.3-1.4s-2.6-2.2-3.5-3.8-1.2-3.5-1.2-5.6.4-4 1.2-5.6 2-2.9 3.5-3.8 3.2-1.3 5.2-1.3 3.8.5 5.3 1.4 2.6 2.2 3.5 3.8c.8 1.6 1.2 3.4 1.2 5.5s-.4 4-1.2 5.6-2 2.9-3.5 3.8c-1.5 1-3.2 1.4-5.2 1.4zm0-3.7c1.9 0 3.4-.6 4.3-2s1.4-3 1.4-5.1-.5-3.8-1.5-5.1-2.4-1.9-4.3-1.9c-1.3 0-2.4.3-3.2.9s-1.5 1.4-1.9 2.5-.6 2.3-.6 3.6c0 2.1.5 3.8 1.5 5.1s2.3 2 4.3 2zm-5.7-20.5v-3.8h3.8v3.8zm7.6 0v-3.8h3.8v3.8z"/><path d="m558.5 261.6c-1.9 0-3.5-.5-4.9-1.4s-2.4-2.2-3.2-3.8-1.1-3.4-1.1-5.5.4-3.9 1.1-5.5c.8-1.6 1.8-2.9 3.2-3.8s3-1.4 4.9-1.4 3.5.5 4.8 1.4 2.3 2.2 3 3.8 1 3.4 1 5.5-.3 3.9-1 5.5-1.7 2.9-3 3.8c-1.2 1-2.8 1.4-4.8 1.4zm.3 9c-1.1 0-2.1-.2-3.2-.5-1-.3-2-.8-2.8-1.5s-1.5-1.5-2.1-2.4l3.6-1.8c.4.9 1.1 1.5 1.9 1.9s1.7.6 2.6.6c1.1 0 2.1-.2 2.9-.6s1.4-1 1.8-1.8.6-1.8.6-2.9v-5.7h.5v-15.1h3.5v20.8c0 .5 0 1-.1 1.5 0 .5-.1 1-.2 1.5-.3 1.4-.8 2.5-1.6 3.4s-1.8 1.5-3.1 2-2.7.6-4.3.6zm.3-12.5c1.3 0 2.3-.3 3.2-.9.8-.6 1.4-1.5 1.8-2.5.4-1.1.6-2.3.6-3.7s-.2-2.6-.6-3.7-1-1.9-1.8-2.5-1.8-.9-3-.9c-1.3 0-2.4.3-3.2 1s-1.5 1.5-1.9 2.6-.6 2.3-.6 3.6.2 2.6.6 3.6 1 1.9 1.8 2.6c.8.5 1.8.8 3.1.8z"/><path d="m574 261.1v-27.6h3.9v27.6z"/><path d="m584 237.4v-3.8h3.9v3.8zm0 23.7v-20.3h3.9v20.3z"/><path d="m602.7 261.6c-2.1 0-3.8-.5-5.3-1.4s-2.6-2.2-3.3-3.8c-.8-1.6-1.2-3.4-1.2-5.5s.4-3.9 1.2-5.6c.8-1.6 1.9-2.9 3.4-3.8s3.2-1.4 5.3-1.4c2.2 0 4.1.6 5.7 1.6 1.6 1.1 2.6 2.6 3.1 4.5l-3.9 1.1c-.4-1.1-1-2-1.9-2.7-.9-.6-1.9-.9-3-.9-1.3 0-2.3.3-3.2.9s-1.4 1.4-1.8 2.5-.6 2.2-.6 3.6c0 2.1.5 3.8 1.4 5.1 1 1.3 2.3 1.9 4.2 1.9 1.3 0 2.3-.3 3.1-.9s1.4-1.4 1.8-2.5l4 .9c-.7 2-1.8 3.5-3.3 4.6-1.7 1.3-3.5 1.8-5.7 1.8z"/><path d="m615.9 261.1v-27.1h3.5v14.6h.5v12.4zm14.3 0v-10c0-.8-.1-1.6-.2-2.4s-.4-1.6-.8-2.3-.9-1.3-1.6-1.7-1.5-.7-2.6-.7c-.7 0-1.4.1-2 .4-.6.2-1.2.6-1.6 1.1s-.8 1.2-1.1 2-.4 1.9-.4 3.1l-2.4-.9c0-1.8.3-3.5 1-4.9s1.7-2.5 3-3.3 2.8-1.2 4.7-1.2c1.4 0 2.6.2 3.5.7 1 .4 1.7 1 2.3 1.8s1 1.5 1.4 2.4.5 1.7.6 2.5.2 1.6.2 2.2v11.3z"/><path d="m639.6 261.1v-27.1h4v16.5l8-9.8h5l-8.4 10.1 9.3 10.1h-5.3l-8.5-9.8v9.8z"/><path d="m668.2 261.6c-2 0-3.8-.4-5.3-1.3s-2.7-2.1-3.5-3.7-1.3-3.4-1.3-5.5c0-2.2.4-4.1 1.2-5.8s2-2.9 3.5-3.8 3.2-1.3 5.2-1.3 3.8.5 5.3 1.4 2.5 2.3 3.3 4.1c.7 1.8 1 3.9.8 6.3h-3.9v-1.4c0-2.4-.5-4.1-1.3-5.2s-2.2-1.7-4-1.7c-2 0-3.4.6-4.4 1.9s-1.5 3-1.5 5.4.5 3.9 1.5 5.2c1 1.2 2.4 1.8 4.3 1.8 1.2 0 2.3-.3 3.2-.8.9-.6 1.6-1.4 2.1-2.4l3.8 1.2c-.8 1.8-2 3.2-3.6 4.2-1.7.9-3.5 1.4-5.4 1.4zm-7.2-9.6v-3h14.5v3.1h-14.5z"/><path d="m682.3 237.4v-3.8h3.9v3.8zm0 23.7v-20.3h3.9v20.3z"/><path d="m690.1 243.9v-3.2h13.9v3.2zm13.8 17.2c-1.3.2-2.5.4-3.8.3-1.2 0-2.3-.3-3.3-.7s-1.7-1.1-2.2-2.1c-.4-.8-.7-1.7-.7-2.6s0-1.9 0-3v-17.9h3.9v17.8 2.1c0 .6.2 1.1.4 1.5.5.8 1.2 1.2 2.2 1.3s2.1.1 3.5-.1z"/><path d="m716.9 261.6c-2 0-3.8-.4-5.3-1.3s-2.7-2.1-3.5-3.7-1.3-3.4-1.3-5.5c0-2.2.4-4.1 1.2-5.8s2-2.9 3.5-3.8 3.2-1.3 5.2-1.3 3.8.5 5.3 1.4 2.5 2.3 3.3 4.1c.7 1.8 1 3.9.8 6.3h-3.9v-1.4c0-2.4-.5-4.1-1.3-5.2s-2.2-1.7-4-1.7c-2 0-3.4.6-4.4 1.9s-1.5 3-1.5 5.4.5 3.9 1.5 5.2c1 1.2 2.4 1.8 4.3 1.8 1.2 0 2.3-.3 3.2-.8.9-.6 1.6-1.4 2.1-2.4l3.8 1.2c-.8 1.8-2 3.2-3.6 4.2-1.7.9-3.5 1.4-5.4 1.4zm-7.2-9.6v-3h14.5v3.1h-14.5z"/><path d="m730.8 261.1v-20.3h3.5v5.9h.5v14.4zm14.2 0v-10c0-.8-.1-1.6-.2-2.4s-.4-1.6-.8-2.3-.9-1.3-1.6-1.7-1.5-.7-2.6-.7c-.7 0-1.4.1-2 .4-.6.2-1.2.6-1.6 1.1s-.8 1.2-1.1 2-.4 1.9-.4 3.1l-2.4-.9c0-1.8.3-3.5 1-4.9s1.7-2.5 3-3.3 2.8-1.2 4.7-1.2c1.4 0 2.6.2 3.5.7 1 .4 1.7 1 2.3 1.8s1 1.5 1.4 2.4.5 1.7.6 2.5.2 1.6.2 2.2v11.3z"/><path d="m409.8 47.6 8.8-27h5.6l8.8 27h-4.1l-8.1-24.7h1l-8 24.7zm4.5-6.1v-3.7h14.1v3.7z"/><path d="m439.9 47.6-6.2-20.3h3.9l4.2 13.9 4.3-13.9h3.4l4.3 13.9 4.2-13.9h3.9l-6.2 20.3h-3.2l-4.7-14.7-4.8 14.7z"/><path d="m471 48.2c-1.5 0-2.8-.3-3.8-.8s-1.8-1.3-2.3-2.2-.8-1.9-.8-3c0-1 .2-1.9.5-2.7.4-.8.9-1.4 1.6-2 .7-.5 1.6-1 2.6-1.3.9-.3 1.9-.5 3.1-.7s2.3-.4 3.6-.6 2.5-.3 3.8-.5l-1.4.8c0-1.6-.3-2.8-1-3.5-.7-.8-1.9-1.1-3.6-1.1-1.1 0-2 .2-2.9.7s-1.5 1.3-1.9 2.5l-3.7-1.1c.5-1.7 1.5-3.1 2.9-4.1s3.3-1.5 5.6-1.5c1.8 0 3.4.3 4.7.9 1.4.6 2.3 1.6 3 2.9.3.7.5 1.4.6 2.1s.1 1.5.1 2.4v12.5h-3.5v-4.6l.7.6c-.8 1.5-1.9 2.7-3.2 3.5s-2.8.7-4.7.8zm.7-3.2c1.1 0 2.1-.2 2.9-.6s1.5-.9 1.9-1.5c.5-.6.8-1.2 1-1.9.2-.6.3-1.3.4-2 0-.8 0-1.3 0-1.8l1.3.5c-1.2.2-2.4.4-3.4.5-1 .2-1.9.3-2.8.4s-1.5.3-2.2.5c-.5.2-1 .4-1.4.7s-.8.6-1 1-.4.8-.4 1.4.1 1 .4 1.5.7.8 1.2 1.1c.6 0 1.3.2 2.1.2z"/><path d="m487.3 47.6v-20.3h3.5v4.9l-.5-.6c.2-.6.6-1.2 1-1.8.4-.5.9-1 1.4-1.3.5-.4 1.1-.7 1.7-.9s1.3-.3 1.9-.4 1.3 0 1.9.1v3.7c-.7-.2-1.4-.2-2.2-.1s-1.5.3-2.2.8c-.6.4-1.1.9-1.5 1.5s-.6 1.2-.8 2-.2 1.5-.2 2.3v10.2z"/><path d="m511 48.2c-2 0-3.8-.4-5.3-1.3s-2.7-2.1-3.5-3.7c-.9-1.6-1.3-3.4-1.3-5.5 0-2.2.4-4.1 1.2-5.8.8-1.6 2-2.9 3.5-3.8s3.2-1.3 5.2-1.3 3.8.5 5.3 1.4c1.5 1 2.5 2.3 3.3 4.1.7 1.8 1 3.9.8 6.3h-3.9v-1.4c0-2.3-.5-4.1-1.3-5.2s-2.2-1.7-4-1.7c-2 0-3.4.6-4.4 1.9-1 1.2-1.5 3-1.5 5.4s.5 4 1.5 5.2 2.4 1.8 4.3 1.8c1.2 0 2.3-.3 3.2-.8s1.6-1.3 2.1-2.4l3.8 1.2c-.8 1.8-2 3.2-3.6 4.2s-3.4 1.4-5.4 1.4zm-7.2-9.6v-3.1h14.5v3.1z"/><path d="m524.9 47.6v-20.3h3.5v5.9h.5v14.4zm14.3 0v-10c0-.8-.1-1.6-.2-2.4s-.4-1.6-.8-2.3-.9-1.3-1.6-1.7-1.5-.7-2.6-.7c-.7 0-1.4.1-2 .4s-1.2.6-1.6 1.1-.8 1.2-1.1 2-.4 1.9-.4 3.1l-2.4-.9c0-1.8.3-3.5 1-4.9s1.7-2.5 3-3.3 2.8-1.2 4.7-1.2c1.4 0 2.6.2 3.5.7s1.7 1 2.3 1.8 1 1.5 1.4 2.4c.3.9.5 1.7.6 2.5s.2 1.5.2 2.2v11.3z"/><path d="m557.7 48.2c-2 0-3.8-.4-5.3-1.3s-2.7-2.1-3.5-3.7-1.3-3.4-1.3-5.5c0-2.2.4-4.1 1.2-5.8.8-1.6 2-2.9 3.5-3.8s3.2-1.3 5.2-1.3 3.8.5 5.3 1.4c1.5 1 2.5 2.3 3.3 4.1.7 1.8 1 3.9.8 6.3h-3.9v-1.4c0-2.3-.5-4.1-1.3-5.2s-2.2-1.7-4-1.7c-2 0-3.4.6-4.4 1.9-1 1.2-1.5 3-1.5 5.4s.5 4 1.5 5.2 2.4 1.8 4.3 1.8c1.2 0 2.3-.3 3.2-.8s1.6-1.3 2.1-2.4l3.8 1.2c-.8 1.8-2 3.2-3.6 4.2s-3.5 1.4-5.4 1.4zm-7.3-9.6v-3.1h14.5v3.1z"/><path d="m579.3 48.1c-2.5 0-4.5-.5-6-1.6s-2.5-2.6-2.8-4.6l4-.6c.2 1 .8 1.9 1.7 2.5s2 .9 3.4.9c1.2 0 2.2-.2 2.9-.8s1-1.2 1-2.1c0-.5-.1-.9-.4-1.2-.2-.3-.8-.6-1.5-.9s-2-.7-3.5-1.1c-1.7-.5-3.1-.9-4.1-1.5s-1.8-1.1-2.2-1.8-.7-1.5-.7-2.5c0-1.2.3-2.3 1-3.2s1.6-1.6 2.8-2.1 2.6-.8 4.2-.8 2.9.2 4.2.7 2.2 1.2 3 2.1 1.2 1.9 1.3 3.1l-4 .7c-.1-1-.6-1.8-1.4-2.3s-1.8-.9-3-.9-2.2.1-2.9.6-1.1 1.1-1.1 1.8c0 .5.1.8.4 1.2.3.3.8.6 1.6.9s2 .6 3.6 1c1.7.4 3.1.9 4.1 1.5 1 .5 1.7 1.2 2.2 1.9.4.7.7 1.6.7 2.7 0 2-.7 3.6-2.2 4.7-1.7 1.2-3.7 1.8-6.3 1.7z"/><path d="m600 48.1c-2.5 0-4.5-.5-6-1.6s-2.5-2.6-2.8-4.6l4-.6c.2 1 .8 1.9 1.7 2.5s2 .9 3.4.9c1.2 0 2.2-.2 2.9-.8s1-1.2 1-2.1c0-.5-.1-.9-.4-1.2-.2-.3-.8-.6-1.5-.9s-2-.7-3.5-1.1c-1.7-.5-3.1-.9-4.1-1.5s-1.8-1.1-2.2-1.8-.7-1.5-.7-2.5c0-1.2.3-2.3 1-3.2s1.6-1.6 2.8-2.1 2.6-.8 4.2-.8 2.9.2 4.2.7 2.2 1.2 3 2.1 1.2 1.9 1.3 3.1l-4 .7c-.1-1-.6-1.8-1.4-2.3s-1.8-.9-3-.9-2.2.1-2.9.6-1.1 1.1-1.1 1.8c0 .5.1.8.4 1.2.3.3.8.6 1.6.9s2 .6 3.6 1c1.7.4 3.1.9 4.1 1.5 1 .5 1.7 1.2 2.2 1.9.4.7.7 1.6.7 2.7 0 2-.7 3.6-2.2 4.7-1.7 1.2-3.7 1.8-6.3 1.7z"/><path d="m611.7 37.3v-3.2h11.3v3.2z"/><path d="m627.8 47.6v-27h3.5l9.8 20.3 9.8-20.3h3.6v27h-3.7v-18.5l-8.7 18.5h-1.8l-8.8-18.5v18.5z"/><path d="m666 48.2c-1.5 0-2.8-.3-3.8-.8s-1.8-1.3-2.3-2.2-.8-1.9-.8-3c0-1 .2-1.9.5-2.7s.9-1.4 1.6-2c.7-.5 1.6-1 2.6-1.3.9-.3 1.9-.5 3.1-.7s2.3-.4 3.6-.6 2.5-.3 3.8-.5l-1.4.8c0-1.6-.3-2.8-1-3.5-.7-.8-1.9-1.1-3.6-1.1-1.1 0-2 .2-2.9.7s-1.5 1.3-1.9 2.5l-3.7-1.1c.5-1.7 1.5-3.1 2.9-4.1s3.3-1.5 5.6-1.5c1.8 0 3.4.3 4.7.9s2.3 1.6 3 2.9c.3.7.5 1.4.6 2.1s.1 1.5.1 2.4v12.5h-3.5v-4.6l.7.6c-.8 1.5-1.9 2.7-3.2 3.5s-2.8.7-4.7.8zm.7-3.2c1.1 0 2.1-.2 2.9-.6s1.5-.9 1.9-1.5c.5-.6.8-1.2 1-1.9.2-.6.3-1.3.4-2 0-.8 0-1.3 0-1.8l1.3.5c-1.2.2-2.4.4-3.4.5-1 .2-1.9.3-2.8.4s-1.5.3-2.2.5c-.5.2-1 .4-1.4.7s-.8.6-1 1-.4.8-.4 1.4.1 1 .4 1.5.7.8 1.2 1.1c.5 0 1.2.2 2.1.2z"/><path d="m692.2 48.1c-.7 0-1.4 0-1.9-.1s-1-.2-1.5-.4v-3.8c.4.2.9.3 1.3.4.5.1 1 .2 1.6.2 1.5 0 2.8-.4 3.7-1.2s1.4-1.9 1.4-3.4-.6-2.7-1.8-3.5-2.7-1.2-4.6-1.2v-3.5c.8-.1 1.5-.3 2.2-.6s1.1-.8 1.5-1.3.5-1.2.5-2.1c0-1.2-.4-2.2-1.2-2.8s-1.8-1-3-1c-.8 0-1.5.2-2.2.5s-1.2.9-1.5 1.6c-.2.4-.3.8-.3 1.3-.1.5-.1 1-.1 1.6v18.9h-4v-20c0-.5 0-1 .1-1.5s.2-.9.3-1.3c.4-1.1 1-2 1.7-2.8.8-.7 1.7-1.2 2.7-1.6 1-.3 2.1-.5 3.3-.5 1.5 0 2.9.3 4.2.9 1.2.6 2.2 1.5 2.9 2.6s1.1 2.4 1.1 3.9c0 1.1-.2 2.1-.7 3-.4.9-1.1 1.6-2 2.2.6.2 1.2.5 1.8.9s1.1.9 1.6 1.5.8 1.3 1.1 2.1.4 1.6.4 2.5c0 2.6-.7 4.6-2.2 6.2s-3.6 2.3-6.4 2.3z"/><path d="m705.8 47.6v-20.3h3.5v5.9h.5v14.4zm14.3 0v-10c0-.8-.1-1.6-.2-2.4s-.4-1.6-.8-2.3-.9-1.3-1.6-1.7-1.5-.7-2.6-.7c-.7 0-1.4.1-2 .4s-1.2.6-1.6 1.1-.8 1.2-1.1 2-.4 1.9-.4 3.1l-2.4-.9c0-1.8.3-3.5 1-4.9s1.7-2.5 3-3.3 2.8-1.2 4.7-1.2c1.4 0 2.6.2 3.5.7s1.7 1 2.3 1.8 1 1.5 1.4 2.4c.3.9.5 1.7.6 2.5s.2 1.5.2 2.2v11.3z"/><path d="m735.2 48.2c-1.5 0-2.8-.3-3.8-.8s-1.8-1.3-2.3-2.2-.8-1.9-.8-3c0-1 .2-1.9.5-2.7s.9-1.4 1.6-2c.7-.5 1.6-1 2.6-1.3.9-.3 1.9-.5 3.1-.7s2.3-.4 3.6-.6 2.5-.3 3.8-.5l-1.4.8c0-1.6-.3-2.8-1-3.5-.7-.8-1.9-1.1-3.6-1.1-1.1 0-2 .2-2.9.7s-1.5 1.3-1.9 2.5l-3.7-1.1c.5-1.7 1.5-3.1 2.9-4.1s3.3-1.5 5.6-1.5c1.8 0 3.4.3 4.7.9s2.3 1.6 3 2.9c.3.7.5 1.4.6 2.1s.1 1.5.1 2.4v12.5h-3.5v-4.6l.7.6c-.8 1.5-1.9 2.7-3.2 3.5s-2.8.7-4.7.8zm.7-3.2c1.1 0 2.1-.2 2.9-.6s1.5-.9 1.9-1.5c.5-.6.8-1.2 1-1.9.2-.6.3-1.3.4-2 0-.8 0-1.3 0-1.8l1.3.5c-1.2.2-2.4.4-3.4.5-1 .2-1.9.3-2.8.4s-1.5.3-2.2.5c-.5.2-1 .4-1.4.7s-.8.6-1 1-.4.8-.4 1.4.1 1 .4 1.5.7.8 1.2 1.1c.6 0 1.3.2 2.1.2z"/><path d="m751.6 47.6v-27h3.5v14.6h.5v12.5zm14.2 0v-10c0-.8-.1-1.6-.2-2.4s-.4-1.6-.8-2.3-.9-1.3-1.6-1.7-1.5-.7-2.6-.7c-.7 0-1.4.1-2 .4s-1.2.6-1.6 1.1-.8 1.2-1.1 2-.4 1.9-.4 3.1l-2.4-.9c0-1.8.3-3.5 1-4.9s1.7-2.5 3-3.3 2.8-1.2 4.7-1.2c1.4 0 2.6.2 3.5.7s1.7 1 2.3 1.8 1 1.5 1.4 2.4c.3.9.5 1.7.6 2.5s.2 1.5.2 2.2v11.3z"/><path d="m775.3 47.6v-20.3h3.5v5.9h.5v14.4zm12.2 0v-12.6c0-1.5-.4-2.6-1.1-3.5-.8-.8-1.7-1.3-3-1.3s-2.2.4-3 1.3-1.1 2-1.1 3.3l-1.9-1.2c0-1.3.3-2.5 1-3.5s1.5-1.9 2.6-2.5 2.3-.9 3.7-.9 2.7.3 3.7.9 1.8 1.5 2.3 2.5c.5 1.1.8 2.3.8 3.8v13.5zm12.1 0v-12.6c0-1.5-.4-2.6-1.1-3.4s-1.7-1.2-3-1.2c-.8 0-1.4.2-2.1.5s-1.1.9-1.5 1.5-.6 1.5-.6 2.6l-1.9-1c0-1.4.3-2.7.9-3.8s1.5-1.9 2.6-2.5 2.3-.9 3.7-.9c2.2 0 3.9.7 5.1 2s1.8 3.1 1.8 5.2v13.6z"/><path d="m818.2 48.2c-2 0-3.8-.4-5.3-1.3s-2.7-2.1-3.5-3.7-1.3-3.4-1.3-5.5c0-2.2.4-4.1 1.2-5.8.8-1.6 2-2.9 3.5-3.8s3.2-1.3 5.2-1.3 3.8.5 5.3 1.4c1.5 1 2.5 2.3 3.3 4.1.7 1.8 1 3.9.8 6.3h-3.9v-1.4c0-2.3-.5-4.1-1.3-5.2s-2.2-1.7-4-1.7c-2 0-3.4.6-4.4 1.9-1 1.2-1.5 3-1.5 5.4s.5 4 1.5 5.2 2.4 1.8 4.3 1.8c1.2 0 2.3-.3 3.2-.8s1.6-1.3 2.1-2.4l3.8 1.2c-.8 1.8-2 3.2-3.6 4.2s-3.5 1.4-5.4 1.4zm-7.3-9.6v-3.1h14.5v3.1z"/><path d="m832 47.6v-20.3h3.5v5.9h.5v14.4zm14.3 0v-10c0-.8-.1-1.6-.2-2.4s-.4-1.6-.8-2.3-.9-1.3-1.6-1.7-1.5-.7-2.6-.7c-.7 0-1.4.1-2 .4s-1.2.6-1.6 1.1-.8 1.2-1.1 2-.4 1.9-.4 3.1l-2.4-.9c0-1.8.3-3.5 1-4.9s1.7-2.5 3-3.3 2.8-1.2 4.7-1.2c1.4 0 2.6.2 3.5.7s1.7 1 2.3 1.8 1 1.5 1.4 2.4c.3.9.5 1.7.6 2.5s.2 1.5.2 2.2v11.3z"/><path d="m417.1 92.7-7.4-20.3h4l5.4 15.4 5.4-15.4h4l-7.4 20.3z"/><path d="m432.5 69.1v-3.8h3.9v3.8zm0 23.6v-20.3h3.9v20.3z"/><path d="m448.1 93.2c-1.5 0-2.8-.3-3.8-.8-1-.6-1.8-1.3-2.3-2.2s-.8-1.9-.8-3c0-1 .2-1.9.5-2.7s.9-1.4 1.6-2c.7-.5 1.6-1 2.6-1.3.9-.3 1.9-.5 3.1-.7 1.1-.2 2.3-.4 3.6-.6s2.5-.3 3.8-.5l-1.4.8c0-1.6-.3-2.8-1-3.5s-1.9-1.2-3.6-1.2c-1.1 0-2 .2-2.9.7s-1.5 1.3-1.9 2.4l-3.7-1.1c.5-1.7 1.5-3.1 2.9-4.2 1.4-1 3.3-1.5 5.6-1.5 1.8 0 3.4.3 4.7.9 1.4.6 2.3 1.6 3 2.9.3.7.5 1.4.6 2.1s.1 1.5.1 2.4v12.5h-3.5v-4.6l.7.6c-.8 1.6-1.9 2.7-3.2 3.5-1.2.7-2.8 1.1-4.7 1.1zm.7-3.2c1.1 0 2.1-.2 2.9-.6s1.5-.9 1.9-1.5.8-1.2 1-1.9c.2-.6.3-1.3.4-2 0-.8 0-1.3 0-1.8l1.3.5c-1.2.2-2.4.4-3.4.5s-1.9.3-2.8.4-1.5.3-2.2.5c-.5.2-1 .4-1.4.7s-.8.6-1 1-.4.8-.4 1.4.1 1 .4 1.5.7.8 1.2 1.1c.6.1 1.3.2 2.1.2z"/><path d="m473.2 92.7v-27.1h3.9v12.6l11.3-12.6h4.9l-12 13.2 12.9 13.8h-5l-12.1-12.9v12.9z"/><path d="m504.7 93.2c-2 0-3.8-.5-5.3-1.4s-2.6-2.2-3.5-3.8-1.2-3.5-1.2-5.6.4-4 1.2-5.6 2-2.9 3.5-3.8 3.2-1.3 5.2-1.3 3.8.5 5.3 1.4 2.6 2.2 3.5 3.8c.8 1.6 1.2 3.4 1.2 5.5s-.4 4-1.2 5.6-2 2.9-3.5 3.8c-1.4 1-3.2 1.4-5.2 1.4zm0-3.7c1.9 0 3.4-.7 4.4-2s1.4-3 1.4-5.1-.5-3.8-1.5-5.1-2.4-1.9-4.3-1.9c-1.3 0-2.4.3-3.2.9s-1.5 1.4-1.9 2.5-.6 2.3-.6 3.6c0 2.1.5 3.8 1.5 5.1s2.3 2 4.2 2z"/><path d="m519.4 92.7v-20.3h3.5v5.9h.5v14.4zm12.1 0v-12.6c0-1.5-.4-2.6-1.1-3.5-.8-.8-1.7-1.3-3-1.3s-2.2.4-3 1.3-1.1 2-1.1 3.3l-1.9-1.2c0-1.3.3-2.5 1-3.6s1.5-1.9 2.6-2.5 2.3-.9 3.7-.9 2.7.3 3.7.9 1.8 1.5 2.3 2.6.8 2.3.8 3.8v13.5h-4zm12.2 0v-12.6c0-1.5-.4-2.6-1.1-3.4s-1.7-1.2-3-1.2c-.8 0-1.4.2-2.1.5-.6.3-1.1.9-1.5 1.5s-.6 1.5-.6 2.6l-1.9-1c0-1.4.3-2.7.9-3.8s1.5-1.9 2.6-2.5 2.3-.9 3.7-.9c2.2 0 3.9.7 5.1 2s1.8 3.1 1.8 5.2v13.6z"/><path d="m553.2 92.7v-20.3h3.5v5.9h.5v14.4zm12.2 0v-12.6c0-1.5-.4-2.6-1.1-3.5-.8-.8-1.7-1.3-3-1.3s-2.2.4-3 1.3-1.1 2-1.1 3.3l-1.9-1.2c0-1.3.3-2.5 1-3.6s1.5-1.9 2.6-2.5 2.3-.9 3.7-.9 2.7.3 3.7.9 1.8 1.5 2.3 2.6.8 2.3.8 3.8v13.5h-4zm12.1 0v-12.6c0-1.5-.4-2.6-1.1-3.4s-1.7-1.2-3-1.2c-.8 0-1.4.2-2.1.5-.6.3-1.1.9-1.5 1.5s-.6 1.5-.6 2.6l-1.9-1c0-1.4.3-2.7.9-3.8s1.5-1.9 2.6-2.5 2.3-.9 3.7-.9c2.2 0 3.9.7 5.1 2s1.8 3.1 1.8 5.2v13.6z"/><path d="m594.7 93.2c-1.4 0-2.6-.2-3.5-.7s-1.7-1-2.3-1.8c-.6-.7-1-1.5-1.4-2.4-.3-.9-.5-1.7-.6-2.5s-.2-1.6-.2-2.2v-11.2h4v10c0 .8.1 1.6.2 2.4s.4 1.6.8 2.3.9 1.3 1.6 1.7 1.5.7 2.6.7c.7 0 1.4-.1 2-.3s1.2-.6 1.6-1.1c.5-.5.8-1.2 1.1-2s.4-1.9.4-3.1l2.4.9c0 1.8-.3 3.5-1 4.9s-1.7 2.5-3 3.3-2.9 1.1-4.7 1.1zm6.7-.5v-5.9h-.5v-14.4h4v20.3z"/><path d="m610.6 92.7v-20.3h3.5v5.9h.5v14.4zm14.3 0v-10c0-.8-.1-1.6-.2-2.4s-.4-1.6-.8-2.3-.9-1.3-1.6-1.7-1.5-.7-2.6-.7c-.7 0-1.4.1-2 .3s-1.2.6-1.6 1.1-.8 1.2-1.1 2-.4 1.9-.4 3.1l-2.4-.9c0-1.8.3-3.5 1-4.9s1.7-2.5 3-3.3 2.8-1.2 4.7-1.2c1.4 0 2.6.2 3.5.7 1 .4 1.7 1 2.3 1.8s1 1.5 1.4 2.4.5 1.7.6 2.5.2 1.6.2 2.2v11.3z"/><path d="m634.6 69.1v-3.8h3.9v3.8zm0 23.6v-20.3h3.9v20.3z"/><path d="m644.4 92.7v-27.1h4v16.5l8-9.8h5l-8.4 10.2 9.3 10.1h-5.3l-8.5-9.8v9.8z"/><path d="m670.5 93.2c-1.5 0-2.8-.3-3.8-.8-1-.6-1.8-1.3-2.3-2.2s-.8-1.9-.8-3c0-1 .2-1.9.5-2.7s.9-1.4 1.6-2c.7-.5 1.6-1 2.6-1.3.9-.3 1.9-.5 3.1-.7 1.1-.2 2.3-.4 3.6-.6s2.5-.3 3.8-.5l-1.4.8c0-1.6-.3-2.8-1-3.5s-1.9-1.2-3.6-1.2c-1.1 0-2 .2-2.9.7s-1.5 1.3-1.9 2.4l-3.7-1.1c.5-1.7 1.5-3.1 2.9-4.2 1.4-1 3.3-1.5 5.6-1.5 1.8 0 3.4.3 4.7.9s2.3 1.6 3 2.9c.3.7.5 1.4.6 2.1s.1 1.5.1 2.4v12.5h-3.5v-4.6l.7.6c-.8 1.6-1.9 2.7-3.2 3.5-1.2.7-2.8 1.1-4.7 1.1zm.7-3.2c1.1 0 2.1-.2 2.9-.6s1.5-.9 1.9-1.5.8-1.2 1-1.9c.2-.6.3-1.3.4-2 0-.8 0-1.3 0-1.8l1.3.5c-1.2.2-2.4.4-3.4.5s-1.9.3-2.8.4-1.5.3-2.2.5c-.5.2-1 .4-1.4.7s-.8.6-1 1-.4.8-.4 1.4.1 1 .4 1.5.7.8 1.2 1.1c.6.1 1.3.2 2.1.2z"/><path d="m684.5 75.5v-3.2h13.9v3.2zm13.9 17.2c-1.3.2-2.5.4-3.8.3s-2.3-.3-3.3-.7-1.7-1.1-2.2-2.1c-.4-.8-.7-1.7-.7-2.6s0-1.9 0-3v-17.8h3.9v17.8 2.1c0 .6.2 1.1.4 1.5.5.8 1.2 1.2 2.2 1.3s2.1.1 3.5-.1z"/><path d="m702.8 69.1v-3.8h3.9v3.8zm0 23.6v-20.3h3.9v20.3z"/><path d="m721.6 93.2c-2 0-3.8-.5-5.3-1.4s-2.6-2.2-3.5-3.8-1.2-3.5-1.2-5.6.4-4 1.2-5.6 2-2.9 3.5-3.8 3.2-1.3 5.2-1.3 3.8.5 5.3 1.4 2.6 2.2 3.5 3.8c.8 1.6 1.2 3.4 1.2 5.5s-.4 4-1.2 5.6-2 2.9-3.5 3.8c-1.5 1-3.2 1.4-5.2 1.4zm0-3.7c1.9 0 3.4-.7 4.3-2s1.4-3 1.4-5.1-.5-3.8-1.5-5.1-2.4-1.9-4.3-1.9c-1.3 0-2.4.3-3.2.9s-1.5 1.4-1.9 2.5-.6 2.3-.6 3.6c0 2.1.5 3.8 1.5 5.1s2.4 2 4.3 2z"/><path d="m736.2 92.7v-20.3h3.5v5.9h.5v14.4zm14.3 0v-10c0-.8-.1-1.6-.2-2.4s-.4-1.6-.8-2.3-.9-1.3-1.6-1.7-1.5-.7-2.6-.7c-.7 0-1.4.1-2 .3s-1.2.6-1.6 1.1-.8 1.2-1.1 2-.4 1.9-.4 3.1l-2.4-.9c0-1.8.3-3.5 1-4.9s1.7-2.5 3-3.3 2.8-1.2 4.7-1.2c1.4 0 2.6.2 3.5.7 1 .4 1.7 1 2.3 1.8s1 1.5 1.4 2.4.5 1.7.6 2.5.2 1.6.2 2.2v11.3z"/><path d="m767.5 93.2c-2.5 0-4.5-.5-6-1.6s-2.5-2.6-2.8-4.6l4-.6c.2 1.1.8 1.9 1.7 2.5s2 .9 3.4.9c1.2 0 2.2-.2 2.9-.8s1-1.2 1-2.1c0-.5-.1-.9-.4-1.2-.2-.3-.8-.6-1.5-.9s-2-.7-3.5-1.1c-1.7-.4-3.1-.9-4.1-1.5s-1.8-1.1-2.2-1.8-.7-1.5-.7-2.5c0-1.2.3-2.3 1-3.2s1.6-1.6 2.8-2.1 2.6-.8 4.2-.8 2.9.2 4.2.7c1.2.5 2.2 1.2 3 2.1s1.2 1.9 1.3 3.2l-4 .7c-.1-1-.6-1.8-1.4-2.3-.8-.6-1.8-.9-3-.9-1.2-.1-2.2.2-2.9.6s-1.1 1.1-1.1 1.8c0 .4.1.8.4 1.2.3.3.8.6 1.6.9s2 .6 3.6 1c1.7.4 3.1.9 4.1 1.5 1 .5 1.7 1.2 2.2 1.9s.7 1.6.7 2.7c0 2-.7 3.6-2.2 4.7s-3.7 1.6-6.3 1.6z"/><path d="m778.6 75.5v-3.2h13.9v3.2zm13.9 17.2c-1.3.2-2.5.4-3.8.3s-2.3-.3-3.3-.7-1.7-1.1-2.2-2.1c-.4-.8-.7-1.7-.7-2.6s0-1.9 0-3v-17.8h3.9v17.8 2.1c0 .6.2 1.1.4 1.5.5.8 1.2 1.2 2.2 1.3s2.1.1 3.5-.1z"/><path d="m805.2 93.2c-2 0-3.8-.5-5.3-1.4s-2.6-2.2-3.5-3.8-1.2-3.5-1.2-5.6.4-4 1.2-5.6 2-2.9 3.5-3.8 3.2-1.3 5.2-1.3 3.8.5 5.3 1.4 2.6 2.2 3.5 3.8c.8 1.6 1.2 3.4 1.2 5.5s-.4 4-1.2 5.6-2 2.9-3.5 3.8c-1.4 1-3.2 1.4-5.2 1.4zm0-3.7c1.9 0 3.4-.7 4.3-2s1.4-3 1.4-5.1-.5-3.8-1.5-5.1-2.4-1.9-4.3-1.9c-1.3 0-2.4.3-3.2.9s-1.5 1.4-1.9 2.5-.6 2.3-.6 3.6c0 2.1.5 3.8 1.5 5.1s2.4 2 4.3 2z"/><path d="m828.8 93.2c-2 0-3.8-.5-5.3-1.4s-2.6-2.2-3.5-3.8-1.2-3.5-1.2-5.6.4-4 1.2-5.6 2-2.9 3.5-3.8 3.2-1.3 5.2-1.3 3.8.5 5.3 1.4 2.6 2.2 3.5 3.8c.8 1.6 1.2 3.4 1.2 5.5s-.4 4-1.2 5.6-2 2.9-3.5 3.8c-1.5 1-3.2 1.4-5.2 1.4zm0-3.7c1.9 0 3.4-.7 4.3-2s1.4-3 1.4-5.1-.5-3.8-1.5-5.1-2.4-1.9-4.3-1.9c-1.3 0-2.4.3-3.2.9s-1.5 1.4-1.9 2.5-.6 2.3-.6 3.6c0 2.1.5 3.8 1.5 5.1s2.4 2 4.3 2z"/><path d="m843.7 92.7v-27.6h3.9v27.6z"/><path d="m861.2 93.2c-2.5 0-4.5-.5-6-1.6s-2.5-2.6-2.8-4.6l4-.6c.2 1.1.8 1.9 1.7 2.5s2 .9 3.4.9c1.2 0 2.2-.2 2.9-.8s1-1.2 1-2.1c0-.5-.1-.9-.4-1.2-.2-.3-.8-.6-1.5-.9s-2-.7-3.5-1.1c-1.7-.4-3.1-.9-4.1-1.5s-1.8-1.1-2.2-1.8-.7-1.5-.7-2.5c0-1.2.3-2.3 1-3.2s1.6-1.6 2.8-2.1 2.6-.8 4.2-.8 2.9.2 4.2.7c1.2.5 2.2 1.2 3 2.1s1.2 1.9 1.3 3.2l-4 .7c-.1-1-.6-1.8-1.4-2.3-.8-.6-1.8-.9-3-.9-1.2-.1-2.2.2-2.9.6s-1.1 1.1-1.1 1.8c0 .4.1.8.4 1.2.3.3.8.6 1.6.9s2 .6 3.6 1c1.7.4 3.1.9 4.1 1.5 1 .5 1.7 1.2 2.2 1.9s.7 1.6.7 2.7c0 2-.7 3.6-2.2 4.7s-3.7 1.6-6.3 1.6z"/><path d="m77.5 372.6h279" fill="none" stroke="url(#b)" stroke-linecap="round" stroke-miterlimit="10" stroke-width="10.37"/><circle cx="41.2" cy="372.1" fill="none" r="36.1" stroke="url(#d)" stroke-linecap="round" stroke-miterlimit="10" stroke-width="10.37"/><path d="m42 389.1c-1.5 0-2.9-.3-4.2-.9s-2.5-1.4-3.5-2.5-1.7-2.3-2.1-3.8l4.8-1.3c.3 1.2 1 2.1 1.9 2.8.9.6 1.9 1 3 .9 1 0 1.9-.2 2.6-.7.8-.5 1.4-1.1 1.8-1.9s.7-1.7.7-2.6c0-1.5-.5-2.7-1.4-3.7-1-1-2.2-1.5-3.7-1.5-.5 0-.9.1-1.3.2s-.8.3-1.2.5l-2.3-3.9 10-8.6.4 1.2h-14.1v-4.7h18.3v4.7l-8.1 7.8v-1.5c1.8.1 3.3.6 4.6 1.5s2.3 2 2.9 3.4c.7 1.4 1 2.9 1 4.6 0 1.9-.5 3.6-1.4 5.1s-2.2 2.7-3.7 3.5c-1.4 1-3.1 1.4-5 1.4z"/><path d="m77.5 206.7h279" fill="none" stroke="url(#e)" stroke-linecap="round" stroke-miterlimit="10" stroke-width="10.37"/><circle cx="41.2" cy="206.7" fill="none" r="36.1" stroke="url(#f)" stroke-linecap="round" stroke-miterlimit="10" stroke-width="10.37"/><path d="m31 220.3v-4.3l12.8-11.4c1-.9 1.7-1.7 2.1-2.5s.6-1.6.6-2.3c0-1-.2-1.9-.6-2.7s-1-1.4-1.8-1.9-1.6-.7-2.6-.7-2 .2-2.8.7-1.4 1.1-1.9 1.9c-.4.8-.7 1.6-.6 2.6h-5.2c0-2 .5-3.7 1.3-5.2s2.1-2.6 3.7-3.4 3.4-1.2 5.4-1.2c1.9 0 3.6.4 5.1 1.3s2.7 2 3.6 3.5 1.3 3.2 1.3 5.2c0 1.4-.2 2.6-.6 3.6s-1 1.9-1.7 2.7-1.7 1.7-2.8 2.7l-9.1 8-.5-1.2h14.7v4.7z"/><path d="m77.5 41.2h279" fill="none" stroke="url(#g)" stroke-linecap="round" stroke-miterlimit="10" stroke-width="10.37"/><circle cx="41.2" cy="41.2" fill="none" r="36.1" stroke="url(#h)" stroke-linecap="round" stroke-miterlimit="10" stroke-width="10.37"/><path d="m41.1 54.9v-24.4l-5.6 3.5v-5.5l5.6-3.4h5.1v29.9h-5.1z"/></svg>