<svg viewBox="0 0 103.82 103.82" xmlns="http://www.w3.org/2000/svg" xmlns:xlink="http://www.w3.org/1999/xlink"><linearGradient id="a" gradientUnits="userSpaceOnUse" x1="52.25" x2="87.7" y1="74.05" y2="12.65"><stop offset="0" stop-color="#9182d1"/><stop offset=".2" stop-color="#887ac8"/><stop offset=".52" stop-color="#7067af"/><stop offset=".92" stop-color="#494788"/><stop offset="1" stop-color="#414180"/></linearGradient><clipPath id="b"><path d="m43.41-1.98v95.05h62.41v-95.05zm8.5 15c-1.16 0-2.3.06-3.43.16-2.41-1.25-4.07-3.76-4.07-6.66 0-2.66 1.4-5 3.5-6.33 1.32-.1 2.66-.17 4-.17z"/></clipPath><circle cx="51.91" cy="51.91" fill="none" r="45.41" stroke="#e4e4e4" stroke-miterlimit="10" stroke-width="13"/><text fill="#333132" font-family="Manrope-SemiBold, Manrope" font-size="25.77" font-weight="600" letter-spacing="-.04em" transform="translate(33.42 62.65)"><tspan x="0" y="0">39</tspan></text><text fill="#333132" font-family="Manrope-SemiBold, Manrope" font-size="14.06" font-weight="600" transform="translate(62.36 54.52)"><tspan x="0" y="0">%</tspan></text><path d="m83.48 84.57c8.54-8.26 13.84-19.83 13.84-32.64 0-25.08-20.33-45.41-45.41-45.41" fill="none" stroke="url(#a)" stroke-linecap="round" stroke-miterlimit="10" stroke-width="13"/><path d="m11.98 73.58c-3.5-6.43-5.48-13.81-5.48-21.64 0-25.09 20.33-45.42 45.41-45.42" fill="none" stroke="#e4e4e4" stroke-miterlimit="10" stroke-width="13"/><g clip-path="url(#b)"><path d="m83.48 84.57c8.54-8.26 13.84-19.83 13.84-32.64 0-25.08-20.33-45.41-45.41-45.41" fill="none" stroke="url(#a)" stroke-linecap="round" stroke-miterlimit="10" stroke-width="13"/></g></svg>