<svg enable-background="new 0 0 287.3 103.9" viewBox="0 0 287.3 103.9" xmlns="http://www.w3.org/2000/svg"><path d="m50.9 48.5c-2.6-.2-4.8 1.7-5.1 4.3-.2 2.6 1.7 4.8 4.3 5.1 2.6.2 4.8-1.7 5.1-4.3.2-2.6-1.7-4.9-4.3-5.1z" fill="none"/><path d="m47.5 87.3c-18.9-1.7-32.8-18.3-31.1-37.1 1.6-18.9 18.3-32.8 37.1-31.1 4.9.4 9.6 1.9 13.6 4.2v-9.6c-4-1.7-8.3-2.8-12.9-3.2-23.5-2.1-44.3 15.3-46.4 38.9s15.3 44.4 38.9 46.5c7.2.6 14.2-.6 20.4-3.2v-9.6c-5.8 3.2-12.5 4.8-19.6 4.2z" fill="#4d4d4d"/><path d="m16.4 50.2c-1.7 18.8 12.2 35.4 31.1 37.1 7.1.6 13.9-1 19.7-4.2v-8.2c-5.3 4-12 6.2-19.1 5.6-15.1-1.3-26.2-14.7-24.9-29.7 1.3-15.1 14.7-26.2 29.7-24.9 5.4.5 10.2 2.5 14.2 5.6v-8.2c-4.1-2.3-8.7-3.8-13.6-4.2-18.8-1.7-35.5 12.2-37.1 31.1z" fill="#fff"/><path d="m23.2 50.8c-1.3 15 9.8 28.4 24.9 29.7 7.1.6 13.8-1.5 19.1-5.6v-14.2c-3.1 6.9-10.3 11.4-18.2 10.7-10-.9-17.5-9.8-16.6-19.8.9-10.1 9.8-17.5 19.9-16.7 6.8.6 12.4 4.9 15 10.7v-14.2c-4-3.1-8.9-5.1-14.2-5.6-15.3-1.3-28.6 9.9-29.9 25z" fill="#4d4d4d"/><path d="m52.1 35c-10-.9-19 6.6-19.9 16.7-.9 10 6.6 18.9 16.6 19.8 8 .7 15.1-3.8 18.2-10.7v-15c-2.5-6-8.1-10.2-14.9-10.8zm9.8 19.2c-.6 6.3-6.1 10.9-12.4 10.4-6.3-.6-10.9-6.1-10.4-12.4.6-6.3 6.1-10.9 12.4-10.4 6.2.5 10.9 6.1 10.4 12.4z" fill="#fff"/><path d="m51.5 41.8c-6.3-.6-11.8 4.1-12.4 10.4s4.1 11.8 10.4 12.4c6.2.6 11.8-4.1 12.4-10.4.5-6.3-4.2-11.9-10.4-12.4zm-1.4 16c-2.6-.2-4.5-2.5-4.3-5.1s2.5-4.5 5.1-4.3 4.5 2.5 4.3 5.1c-.3 2.7-2.6 4.6-5.1 4.3z" fill="#4d4d4d"/><path d="m0 52.9 71.7.4" fill="none" stroke="#fff" stroke-width="3"/><path d="m50.5 103.9.4-103.9" fill="none" stroke="#fff" stroke-width="3"/><g fill="#c00222"><path d="m79.6 39.2c.1 1.9.8 3.3 1.9 4.2s2.7 1.3 4.9 1.3c1 0 1.9-.1 2.6-.3s1.3-.5 1.7-.9.8-.8.9-1.3c.2-.5.3-1 .3-1.6 0-.8-.3-1.6-.9-2.3s-1.7-1.2-3.4-1.6l-4.1-.7c-1.6-.3-3-.7-4.3-1.1-1.2-.5-2.3-1.1-3.1-1.8s-1.5-1.7-1.9-2.8-.7-2.4-.7-3.9.3-2.8.9-4c.6-1.1 1.4-2.1 2.5-2.9s2.4-1.3 3.9-1.7 3.1-.6 4.9-.6c2.3 0 4.2.3 5.7.8s2.8 1.2 3.7 2.1 1.6 1.9 2.1 3 .8 2.3.9 3.6l-6.2.8c-.3-1.7-.9-3-1.9-3.7-.9-.8-2.3-1.1-4.2-1.1-1.1 0-2 .1-2.8.3-.7.2-1.3.4-1.7.7s-.7.7-.9 1.1-.3.8-.3 1.3c0 1.2.3 2.1 1 2.6.7.6 1.8 1 3.4 1.4l4.3.8c3.4.7 5.9 1.8 7.5 3.3s2.4 3.7 2.4 6.5c0 1.4-.3 2.6-.8 3.8s-1.3 2.2-2.3 3c-1 .9-2.3 1.5-3.8 2s-3.3.7-5.4.7c-4.3 0-7.6-.9-9.8-2.8-2.3-1.8-3.5-4.6-3.7-8.3z"/><path d="m103.3 18h21.4v5.6h-14.9v6.9h14v5.6h-14v7.7h15.8l-.7 5.6h-21.7z"/><path d="m156.7 38.5c-.1 1.7-.5 3.2-1.2 4.6-.6 1.4-1.5 2.7-2.6 3.7s-2.4 1.9-4 2.4c-1.6.6-3.5.9-5.6.9-2.4 0-4.5-.4-6.3-1.2s-3.3-1.9-4.5-3.3-2.1-3.2-2.8-5.2c-.6-2-.9-4.3-.9-6.8 0-2.6.3-4.8 1-6.9.7-2 1.6-3.8 2.9-5.2s2.8-2.5 4.6-3.3 3.8-1.1 6.1-1.1c2 0 3.7.2 5.2.7s2.7 1.2 3.7 2.2c1 .9 1.8 2.1 2.4 3.4s1.1 2.8 1.4 4.4l-6.5.8c-.3-1.8-.9-3.3-1.9-4.4-.9-1.1-2.4-1.6-4.4-1.6-2.5 0-4.4.9-5.7 2.8s-2 4.6-2 8c0 3.5.7 6.2 2.1 8.1s3.3 2.8 5.6 2.8c2 0 3.5-.5 4.5-1.6 1-1 1.5-2.5 1.8-4.5h7.1z"/><path d="m160.6 18h6.6v18.7c0 2.7.5 4.6 1.4 5.9s2.5 1.9 4.7 1.9 3.8-.6 4.7-1.9 1.4-3.3 1.4-5.9v-18.7h6.6v18.7c0 2.4-.3 4.4-.9 6.1s-1.4 3.1-2.5 4.2-2.4 1.9-4 2.4-3.3.8-5.3.8-3.8-.3-5.3-.8c-1.6-.5-2.9-1.3-4-2.4s-1.9-2.5-2.5-4.2-.8-3.8-.8-6.2z"/><path d="m191.7 18h11.1c2.5 0 4.5.3 6.1.9s2.9 1.3 3.8 2.2 1.5 2 1.9 3.1.5 2.2.5 3.3c0 2-.4 3.7-1.1 5.1s-2 2.5-3.7 3.5l6.4 13.3h-7.1l-5.3-11.8h-6.2v11.8h-6.5v-31.4zm11.6 14.2c1 0 1.9-.1 2.6-.3s1.2-.5 1.6-.9.7-.9.8-1.4c.1-.6.2-1.2.2-1.8s-.1-1.1-.3-1.6-.5-1-.9-1.4-1-.7-1.8-.9c-.7-.2-1.7-.3-2.8-.3h-4.5v8.8h5.1z"/><path d="m220.5 18h6.6v31.4h-6.6z"/><path d="m240.6 23.7h-9.5v-5.7h25.5v5.7h-9.5v25.7h-6.6v-25.7z"/><path d="m270.1 36.6-10.8-18.6h7.3l6.8 12.7 7-12.7h7l-10.6 18.6v12.8h-6.6z"/></g><path d="m74.9 57.4h6.6v31.4h-6.6z" fill="#19191e"/><path d="m87.9 57.4h5.9l12.9 20.6v-20.6h6.4v31.4h-5.9l-13-20.4v20.4h-6.4v-31.4z" fill="#19191e"/><path d="m124.2 78.6c.1 1.9.8 3.3 1.9 4.2s2.7 1.3 4.9 1.3c1 0 1.9-.1 2.6-.3s1.3-.5 1.7-.9.8-.8.9-1.3c.2-.5.3-1 .3-1.6 0-.8-.3-1.6-.9-2.3s-1.7-1.2-3.4-1.6l-4.1-.7c-1.6-.3-3-.7-4.3-1.1-1.2-.5-2.3-1.1-3.1-1.8s-1.5-1.7-1.9-2.8-.7-2.4-.7-3.9.3-2.8.9-4c.6-1.1 1.4-2.1 2.5-2.9s2.4-1.3 3.9-1.7 3.1-.6 4.9-.6c2.3 0 4.2.3 5.7.8s2.8 1.2 3.7 2.1 1.6 1.9 2.1 3 .8 2.3.9 3.6l-6.2.8c-.3-1.7-.9-3-1.9-3.7-.9-.8-2.3-1.1-4.2-1.1-1.1 0-2 .1-2.8.3-.7.2-1.3.4-1.7.7s-.7.7-.9 1.1-.3.8-.3 1.3c0 1.2.3 2.1 1 2.6.7.6 1.8 1 3.4 1.4l4.3.8c3.4.7 5.9 1.8 7.5 3.3s2.4 3.7 2.4 6.5c0 1.4-.3 2.6-.8 3.8s-1.3 2.2-2.3 3c-1 .9-2.3 1.5-3.8 2s-3.3.7-5.4.7c-4.3 0-7.6-.9-9.8-2.8-2.3-1.8-3.5-4.6-3.7-8.3h6.7z" fill="#19191e"/><path d="m147.9 57.4h6.6v31.4h-6.6z" fill="#19191e"/><path d="m160.9 57.4h11.7c4.8 0 8.6 1.3 11.2 3.9 2.7 2.6 4 6.5 4 11.6 0 2.6-.4 4.9-1.1 6.9s-1.8 3.6-3.2 5c-1.4 1.3-3.1 2.4-5.1 3-2 .7-4.3 1-6.9 1h-10.6zm10.8 25.8c1.7 0 3.2-.2 4.4-.7s2.2-1.2 2.9-2.1 1.3-2 1.6-3.2c.4-1.2.5-2.6.5-4.2 0-1.5-.2-2.9-.5-4.2-.3-1.2-.8-2.3-1.5-3.1-.7-.9-1.5-1.5-2.6-2s-2.4-.7-3.9-.7h-5.2v20.2z" fill="#19191e"/><path d="m193.3 57.4h21.4v5.6h-14.9v6.9h14v5.6h-14v7.7h15.8l-.7 5.6h-21.7z" fill="#19191e"/><path d="m220.3 57.4h11.1c2.5 0 4.5.3 6.1.9s2.9 1.3 3.8 2.2 1.5 2 1.9 3.1.5 2.2.5 3.3c0 2-.4 3.7-1.1 5.1s-2 2.5-3.7 3.5l6.4 13.3h-7.1l-5.2-11.8h-6.2v11.8h-6.5zm11.6 14.2c1 0 1.9-.1 2.6-.3s1.2-.5 1.6-.9.7-.9.8-1.4c.1-.6.2-1.2.2-1.8s-.1-1.1-.3-1.6-.5-1-.9-1.4-1-.7-1.8-.9c-.7-.2-1.7-.3-2.8-.3h-4.5v8.8h5.1z" fill="#19191e"/></svg>