<svg fill="none" height="212" viewBox="0 0 533 212" width="533" xmlns="http://www.w3.org/2000/svg"><g stroke="#ccbaf2" stroke-width="3"><path d="m242.5 1.5h46"/><path d="m215.5 12.5h100"/><path d="m204.5 23.5h122"/><path d="m195.5 34.5h139"/><path d="m190.5 45.5h49"/><path d="m187.5 56.5h44"/><path d="m186.5 67.5h42"/><path d="m301.5 67.5h42"/><path d="m186.5 78.5h42"/><path d="m301.5 78.5h42"/><path d="m298.5 56.5h44"/><path d="m290.5 45.5h49"/><path d="m186.5 89.5h42"/><path d="m301.5 89.5h42"/><path d="m186.5 100.5h42"/><path d="m301.5 100.5h42"/><path d="m186.5 111.5h42"/><path d="m301.5 111.5h42"/><path d="m186.5 122.5h42"/><path d="m301.5 122.5h42"/><path d="m186.5 133.5h42"/><path d="m301.5 133.5h42"/><path d="m242.5 210.5h46"/><path d="m215.5 199.5h100"/><path d="m204.5 188.5h122"/><path d="m195.5 177.5h139"/><path d="m190.5 166.5h49"/><path d="m187.5 155.5h44"/><path d="m186.5 144.5h42"/><path d="m301.5 144.5h42"/><path d="m186.5 133.5h42"/><path d="m301.5 133.5h42"/><path d="m298.5 155.5h44"/><path d="m290.5 166.5h49"/><path d="m65.5 1.5h46"/><path d="m60.5 12.5h46"/><path d="m55.5 23.5h46"/><path d="m50.5 34.5h46"/><path d="m45.5 45.5h46"/><path d="m40.5 56.5h46"/><path d="m35.5 67.5h46"/><path d="m30.5 78.5h46"/><path d="m25.5 89.5h46"/><path d="m20.5 100.5h46"/><path d="m15.5 111.5h46"/><path d="m10.5 122.5h46"/><path d="m5.5 133.5h46"/><path d="m.5 144.5h151"/><path d="m.5 155.5h151"/><path d="m.5 166.5h151"/><path d="m.5 177.5h151"/><path d="m91.5 188.5h40"/><path d="m91.5 199.5h40"/><path d="m91.5 210.5h40"/><path d="m91.5 133.5h40"/><path d="m91.5 122.5h40"/><path d="m91.5 111.5h40"/><path d="m91.5 100.5h40"/><path d="m91.5 89.5h40"/><path d="m446.5 1.5h46"/><path d="m441.5 12.5h46"/><path d="m436.5 23.5h46"/><path d="m431.5 34.5h46"/><path d="m426.5 45.5h46"/><path d="m421.5 55.5h46"/><path d="m416.5 66.5h46"/><path d="m411.5 77.5h46"/><path d="m406.5 88.5h46"/><path d="m401.5 99.5h46"/><path d="m396.5 110.5h46"/><path d="m391.5 121.5h46"/><path d="m386.5 132.5h46"/><path d="m381.5 143.5h151"/><path d="m381.5 154.5h151"/><path d="m381.5 165.5h151"/><path d="m381.5 176.5h151"/><path d="m472.5 187.5h40"/><path d="m472.5 198.5h40"/><path d="m472.5 209.5h40"/><path d="m472.5 132.5h40"/><path d="m472.5 121.5h40"/><path d="m472.5 110.5h40"/><path d="m472.5 99.5h40"/><path d="m472.5 88.5h40"/></g></svg>