<svg viewBox="0 0 740.77 745.86" xmlns="http://www.w3.org/2000/svg"><path d="m739.36 405.2a371.86 371.86 0 0 1 -129.2 252.33l-.09.05a369 369 0 0 1 -520.85-42 379.85 379.85 0 0 1 -39.75-56.29 367.46 367.46 0 0 1 -48.85-205.47c5.99-104.23 51.27-197.82 127.38-263.63a373 373 0 0 1 275-88.83c203 18.08 354.06 199.1 336.36 403.84zm-237.84-280c-76.28-41.57-148-66.84-219.36-77.21-69.61-10.09-124.71 21.6-146.72 84.76a725.45 725.45 0 0 0 -38.24 158.76 665.5 665.5 0 0 0 10.66 229.49c10.78 50.69 25.27 90.49 45.74 125.38 23.19 39.57 56.25 56.59 101.05 52a625 625 0 0 0 203.79-58 713.38 713.38 0 0 0 230.24-168.52c35.29-39.29 47-82.56 35.74-132.25a121.61 121.61 0 0 0 -13.67-34.24 245.44 245.44 0 0 0 -33.11-42.83 689.35 689.35 0 0 0 -176.12-137.39z" fill="#fff" fill-rule="evenodd" opacity=".05"/></svg>