<svg fill="none" height="643" viewBox="0 0 720 643" width="720" xmlns="http://www.w3.org/2000/svg"><g opacity=".5" stroke="#e8e8e8" stroke-linecap="square" stroke-width="3"><path d="m440.581 16.5h34.838"/><path d="m384.113 29.5h126.774"/><path d="m343.177 41.5h190.646"/><path d="m309 54.5h240"/><path d="m279.677 66.5h280.646"/><path d="m254.242 79.5h314.516"/><path d="m229.742 92.5h344.516"/><path d="m210.177 104.5h370.646"/><path d="m189.581 117.5h394.838"/><path d="m171.952 130.5h417.096"/><path d="m154.29 143.5h437.42"/><path d="m138.613 154.5h456.774"/><path d="m122.903 167.5h474.194"/><path d="m109.194 180.5h491.612"/><path d="m95.4516 192.5h507.0964"/><path d="m82.7097 206.5h522.5803"/><path d="m70.9516 218.5h537.0964"/><path d="m59.1613 231.5h549.6777"/><path d="m48.371 242.5h562.258"/><path d="m39.5323 255.5h571.9357"/><path d="m31.6774 268.5h580.6456"/><path d="m25.7903 281.5h587.4197"/><path d="m21.871 294.5h592.258"/><path d="m19.9194 306.5h595.1616"/><path d="m19.9355 319.5h596.1295"/><path d="m19.9355 331.5h596.1295"/><path d="m20.9032 343.5h594.1938"/><path d="m22.8226 356.5h589.3544"/><path d="m26.7581 369.5h585.4839"/><path d="m33.629 382.5h577.742"/><path d="m43.4355 395.5h566.1295"/><path d="m54.2258 406.5h553.5482"/><path d="m64.0645 419.5h543.8705"/><path d="m75.8387 431.5h530.3223"/><path d="m87.5968 445.5h515.8062"/><path d="m99.3387 457.5h500.3223"/><path d="m114.065 470.5h483.87"/><path d="m126.79 483.5h467.42"/><path d="m142.484 494.5h449.032"/><path d="m161.113 507.5h426.774"/><path d="m176.758 520.5h405.484"/><path d="m195.387 533.5h383.226"/><path d="m214.968 545.5h358.064"/><path d="m236.532 558.5h331.936"/><path d="m262 571.5h300"/><path d="m287.484 582.5h269.032"/><path d="m319.79 595.5h227.42"/><path d="m356.952 608.5h177.096"/><path d="m403.79 621.5h107.42"/></g></svg>