<svg fill="none" height="895" viewBox="0 0 684 895" width="684" xmlns="http://www.w3.org/2000/svg"><path clip-rule="evenodd" d="m56.5782 343.18c53.9908-68.196 123.8108-127.86 213.4438-182.399 77.108-46.921 161.345-80.9221 250.37-101.0479 21.007-4.7528 42.878-8.7331 64.884-8.7331 14.73 0 29.519 1.7867 44.149 6.3155 58.843 18.2269 97.022 56.4975 116.735 117.0045 35.14 107.875 47.695 222.91 37.31 341.907-7.957 91.153-28.397 172.163-62.491 247.659-22.355 49.504-60.167 73.746-115.588 74.105-48.901.325-99.404-8.515-158.993-27.809-93.954-30.398-172.356-70.803-246.722-127.152l-.089-.071c-45.868-33.228-96.726-81.376-143.2098-135.573-52.57182-61.303-52.50089-137.643.201-204.206zm836.8168 25.434c-21.712-116.622-87.816-218.595-186.139-287.1398-203.643-141.9743-484.535-93.6131-626.1449 107.8018-69.183 98.587-95.8764 222.803-73.23101 340.806 22.88171 119.242 93.55991 222.991 199.00991 292.131 73.053 47.901 157.755 72.787 244.714 72.787 27.532 0 55.301-2.502 82.987-7.546 117.866-21.499 220.119-87.56 287.913-186.023 67.439-97.937 92.614-216.135 70.891-332.817z" fill="#e8e8e8" fill-rule="evenodd" opacity=".496681"/></svg>