<svg fill="none" height="407" viewBox="0 0 403 407" width="403" xmlns="http://www.w3.org/2000/svg"><path clip-rule="evenodd" d="m402.01 221.093c-4.35 53.18-29.564 102.472-70.136 137.112l-.045.027c-40.519 34.564-93.132 51.574-146.222 47.273s-102.2899-29.559-136.7377-70.198c-8.1157-9.524-15.3487-19.766-21.6095-30.6-19.59361-33.833-28.83552-72.67-26.581164-111.699 3.229644-56.65 27.811764-107.5186 69.166364-143.2559 41.273-35.5059 95.109-52.88713 149.358-48.22112 110.265 9.87172 192.377 108.28702 182.807 219.56202zm-129.851-151.9794c-41.452-22.5671-80.435-36.2833-119.21-41.9057-37.834-5.4676-67.7864 11.7645-79.7657 46.0832-10.1659 27.8919-17.1487 56.8359-20.8156 86.2829-5.328 41.584-3.3839 83.766 5.7454 124.662 5.8498 27.542 13.7155 49.16 24.8384 68.11 12.5929 21.496 30.5595 30.735 54.9085 28.256 38.446-4.137 75.912-14.808 110.778-31.553 47.466-21.803 90.045-52.964 125.175-91.61 19.191-21.355 25.569-44.862 19.457-71.858-1.515-6.542-4.02-12.813-7.427-18.598-5.116-8.395-11.148-16.197-17.986-23.262-27.62-29.907-59.944-55.1071-95.698-74.6074z" fill="#2f284f" fill-rule="evenodd"/></svg>