<svg fill="none" height="438" viewBox="0 0 435 438" width="435" xmlns="http://www.w3.org/2000/svg"><path clip-rule="evenodd" d="m358.104 385.768c43.761-37.366 70.956-90.539 75.645-147.908 10.315-120.04-78.266-226.2143-197.209-236.871664-58.518-5.037526-116.589 13.709064-161.1071 52.008864-44.6062 38.5495-71.11899 93.4228-74.598665 154.5358-2.428905 42.104 7.543075 84 28.680965 120.5 6.7543 11.688 14.5572 22.738 23.3123 33.013 37.1615 43.842 90.2355 71.093 147.5025 75.737 57.268 4.644 114.02-13.702 157.725-50.987zm-192.813-356.55c41.81 6.0658 83.845 20.8597 128.543 45.1982 38.554 21.031 73.41 48.2078 103.194 80.4598 7.373 7.62 13.878 16.034 19.396 25.087 3.674 6.239 6.375 13.001 8.01 20.056 6.592 29.111-.284 54.46-20.975 77.487-37.877 41.671-83.785 75.27-134.965 98.778-37.594 18.054-77.991 29.559-119.446 34.017-26.255 2.672-45.628-7.293-59.2085-30.474-11.9948-20.435-20.4778-43.748-26.7876-73.448-9.8469-44.102-11.9463-89.589-6.2045-134.43 3.9517-31.755 11.4788-62.967 22.4382-93.043 12.9143-37.0069 45.2094-55.587 86.0054-49.688z" fill="#014750" fill-rule="evenodd"/></svg>