<svg enable-background="new 0 0 2350.3 2348.6" viewBox="0 0 2350.3 2348.6" xmlns="http://www.w3.org/2000/svg"><g fill="#fff"><path d="m1772.2 725.3c83.5-45.7 173.1-60.7 267-64.3 182.8-7 328.1-182.7 303.5-363.1-21.8-160-136.1-271.2-297.7-289.5-185-20.9-355.7 130.1-357.9 316.2-.5 38-2.6 76-11.7 113.1-51 208.5-179 346.3-388.7 392.7-211 46.7-388.6-21.1-522.3-192.4-72.3-92.6-98.8-200.8-103.3-317.4-7.8-205.3-192.3-346.9-394.7-306.5-162.2 32.3-273 180.1-260.6 347.7 11.8 160.3 145 291.2 305.7 299.7 52.4 2.7 104.5 5.1 155.6 18.9 200 54.2 376.6 246 376.6 496 0 185.1 147.5 328.9 330.6 329.1 282.5.3 511.2 227.5 513 509.6 1.2 184.2 144.9 327.1 332.5 327 25.4 1.2 53.8-3.1 81.6-10.6 151.5-40.6 251.4-180.9 242-339.4-9.1-153.8-127.6-280.6-281.9-302.2-44.1-6.2-88.8-3.1-133-10.8-214.5-37.8-379-207.1-416.1-430.1-34-205.1 74.2-422 259.8-523.7z"/><path d="m334.3 1686.4c-182.5-.1-328.9 145.7-329.1 327.7-.1 181.7 145.1 327.9 325.9 328 185.8.1 330.6-143.2 330.7-327.1 0-182.9-145.1-328.5-327.5-328.6z"/></g></svg>