<svg height="394" viewBox="0 0 1390 394" width="1390" xmlns="http://www.w3.org/2000/svg" xmlns:xlink="http://www.w3.org/1999/xlink"><clipPath id="a"><path d="m245 91h1390v394h-1390z"/></clipPath><clipPath id="b"><path d="m0 0h1208.623v1208.623h-1208.623z"/></clipPath><g clip-path="url(#a)" transform="translate(-245 -91)"><g clip-path="url(#b)" opacity=".41" transform="translate(356.2 108.7)"><path d="m604.311 0c-333.751 0-604.311 270.561-604.311 604.312s270.56 604.311 604.311 604.311 604.311-270.56 604.311-604.311-270.559-604.312-604.311-604.312m291.6 1109.29-.03.02c-80.059 45.96-259.43 42.314-519.642-109.954-261.928-149.312-354.833-302.738-355.026-395.044s93.1-245.742 355.026-395.065c260.212-152.258 439.583-155.904 519.642-109.947h-.051c79.856 46.305 166.282 203.488 164.647 504.979 1.777 301.48-84.74 458.654-164.566 505.009" fill="#22f7d2" transform="translate(0 .009)"/></g></g></svg>