<svg fill="none" height="440" viewBox="0 0 605 440" width="605" xmlns="http://www.w3.org/2000/svg"><path clip-rule="evenodd" d="m40.4758 158.132c38.8451-49.046 89.0792-91.9553 153.5682-131.1793 55.478-33.74478 116.085-58.1978 180.136-72.6719 15.115-3.4182 30.85-6.2808 46.683-6.2808 10.598 0 21.239 1.285 31.765 4.542 42.336 13.1086 69.805 40.63199 83.988 84.1478 25.283 77.5832 34.316 160.3142 26.844 245.8952-5.724 65.556-20.431 123.817-44.961 178.113-16.084 35.603-43.289 53.037-83.163 53.296-35.184.233-71.52-6.124-114.392-20-67.598-21.862-124.008-50.921-177.512-91.447l-.064-.051c-33.002-23.897-69.5928-58.524-103.0368-97.502-37.82447-44.088-37.77344-98.991.1446-146.862m602.0542 18.106c-15.615-83.9164-63.157-157.2916-133.871-206.613-146.46-102.158-348.478-67.3596-450.3238 77.5694-49.75648 70.9386-68.9544 160.3186-52.66783 245.2276 16.45653 85.801 67.28833 160.454 143.12763 210.204 52.541 34.468 113.458 52.374 175.999 52.374 19.801 0 39.773-1.8 59.684-5.43 84.77-15.469 158.31-63.004 207.067-133.853 48.503-70.471 66.609-155.521 50.985-239.479" fill="#d6d6d6" fill-rule="evenodd" opacity=".496681"/></svg>