<svg enable-background="new 0 0 1000 356.1" viewBox="0 0 1000 356.1" xmlns="http://www.w3.org/2000/svg"><g fill="#fff"><path d="m94.2 266.8-31.7 18.6v35.6l31.2-18.1 31.3-18.2v-35.7z"/><path d="m30.8 231.2 31.7 18.6v35.6l-31.2-18.1-31.3-18.2v-35.7z"/><path d="m94.2 195.7-31.7 18.5v35.6l31.2-18.1 31.3-18.2v-35.7z"/><path d="m30.8 160.1 31.7 18.6v35.5l-31.2-18.1-31.3-18.2v-35.7z"/><path d="m94.2 338-31.7 18.6v35.5l31.2-18 31.3-18.3v-35.7z"/><path d="m30.8 302.4 31.7 18.6v35.6l-31.2-18.1-31.3-18.2v-35.7z"/><path d="m94.2 53.3-31.7 18.6v35.6l31.2-18.1 31.3-18.2v-35.7z"/><path d="m30.8 17.8 31.7 18.5v35.6l-31.2-18.1-31.3-18.2v-35.7z"/><path d="m94.2-17.8-31.7 18.5v35.6l31.2-18.1 31.3-18.2v-35.7z"/><path d="m94.2 124.5-31.7 18.6v35.6l31.2-18.1 31.3-18.3v-35.6z"/><path d="m30.8 88.9 31.7 18.6v35.6l-31.2-18.1-31.3-18.2v-35.7z"/><path d="m219.2 266.9-31.7 18.6v35.6l31.2-18.1 31.3-18.2v-35.7z"/><path d="m155.8 231.3 31.7 18.6v35.6l-31.2-18.1-31.3-18.2v-35.7z"/><path d="m219.2 195.8-31.7 18.5v35.6l31.2-18.1 31.3-18.2v-35.7z"/><path d="m155.8 160.2 31.7 18.6v35.5l-31.2-18-31.3-18.3v-35.7z"/><path d="m219.2 338.1-31.7 18.6v35.5l31.2-18 31.3-18.3v-35.6z"/><path d="m155.8 302.5 31.7 18.6v35.6l-31.2-18.1-31.3-18.2v-35.7z"/><path d="m219.2 53.4-31.7 18.6v35.6l31.2-18.1 31.3-18.2v-35.7z"/><path d="m155.8 17.9 31.7 18.5v35.6l-31.2-18.1-31.3-18.2v-35.7z"/><path d="m219.2-17.7-31.7 18.5v35.6l31.2-18.1 31.3-18.2v-35.7z"/><path d="m219.2 124.6-31.7 18.6v35.6l31.2-18.1 31.3-18.3v-35.6z"/><path d="m155.8 89 31.7 18.6v35.6l-31.2-18.1-31.3-18.2v-35.7z"/><path d="m344.3 267-31.7 18.6v35.6l31.2-18.1 31.3-18.2v-35.7z"/><path d="m280.8 231.5 31.8 18.5v35.6l-31.3-18.1-31.3-18.2v-35.7z"/><path d="m344.3 195.9-31.7 18.5v35.6l31.2-18.1 31.3-18.2v-35.7z"/><path d="m280.8 160.3 31.8 18.6v35.5l-31.3-18-31.3-18.3v-35.7z"/><path d="m344.3 338.2-31.7 18.6v35.5l31.2-18 31.3-18.3v-35.6z"/><path d="m280.8 302.6 31.8 18.6v35.6l-31.3-18.1-31.3-18.2v-35.7z"/><path d="m344.3 53.5-31.7 18.6v35.6l31.2-18.1 31.3-18.2v-35.7z"/><path d="m280.8 18 31.8 18.5v35.6l-31.3-18.1-31.3-18.2v-35.7z"/><path d="m344.3-17.6-31.7 18.5v35.6l31.2-18.1 31.3-18.2v-35.7z"/><path d="m344.3 124.7-31.7 18.6v35.6l31.2-18.1 31.3-18.3v-35.6z"/><path d="m280.8 89.1 31.8 18.6v35.6l-31.3-18.1-31.3-18.2v-35.7z"/><path d="m469.3 267.1-31.7 18.6v35.6l31.2-18.1 31.3-18.2v-35.7z"/><path d="m405.9 231.6 31.7 18.5v35.6l-31.2-18.1-31.3-18.2v-35.7z"/><path d="m469.3 196-31.7 18.5v35.6l31.2-18.1 31.3-18.2v-35.7z"/><path d="m405.9 160.4 31.7 18.6v35.5l-31.2-18-31.3-18.3v-35.7z"/><path d="m469.3 338.3-31.7 18.6v35.5l31.2-18 31.3-18.3v-35.6z"/><path d="m405.9 302.7 31.7 18.6v35.6l-31.2-18.1-31.3-18.2v-35.7z"/><path d="m469.3 53.6-31.7 18.6v35.6l31.2-18.1 31.3-18.2v-35.7z"/><path d="m405.9 18.1 31.7 18.5v35.6l-31.2-18.1-31.3-18.2v-35.7z"/><path d="m469.3-17.5-31.7 18.5v35.6l31.2-18.1 31.3-18.2v-35.7z"/><path d="m469.3 124.8-31.7 18.6v35.6l31.2-18.1 31.3-18.3v-35.6z"/><path d="m405.9 89.2 31.7 18.6v35.6l-31.2-18.1-31.3-18.2v-35.7z"/><path d="m594.3 267.2-31.7 18.6v35.6l31.2-18.1 31.3-18.2v-35.7z"/><path d="m530.9 231.7 31.7 18.5v35.6l-31.2-18.1-31.3-18.2v-35.7z"/><path d="m594.3 196.1-31.7 18.5v35.6l31.2-18.1 31.3-18.2v-35.7z"/><path d="m530.9 160.5 31.7 18.6v35.5l-31.2-18-31.3-18.3v-35.7z"/><path d="m594.3 338.4-31.7 18.6v35.6l31.2-18.1 31.3-18.3v-35.6z"/><path d="m530.9 302.8 31.7 18.6v35.6l-31.2-18.1-31.3-18.2v-35.7z"/><path d="m594.3 53.7-31.7 18.6v35.6l31.2-18.1 31.3-18.2v-35.7z"/><path d="m530.9 18.2 31.7 18.5v35.6l-31.2-18.1-31.3-18.2v-35.7z"/><path d="m594.3-17.4-31.7 18.6v35.5l31.2-18.1 31.3-18.2v-35.7z"/><path d="m594.3 124.9-31.7 18.6v35.6l31.2-18.1 31.3-18.2v-35.7z"/><path d="m530.9 89.3 31.7 18.6v35.6l-31.2-18.1-31.3-18.2v-35.7z"/><path d="m719.3 267.3-31.7 18.6v35.6l31.2-18.1 31.3-18.2v-35.7z"/><path d="m655.9 231.8 31.7 18.5v35.6l-31.2-18.1-31.3-18.2v-35.7z"/><path d="m719.3 196.2-31.7 18.5v35.6l31.2-18.1 31.3-18.2v-35.7z"/><path d="m655.9 160.6 31.7 18.6v35.5l-31.2-18-31.3-18.3v-35.6z"/><path d="m719.3 338.5-31.7 18.6v35.6l31.2-18.1 31.3-18.3v-35.6z"/><path d="m655.9 302.9 31.7 18.6v35.6l-31.2-18.1-31.3-18.2v-35.7z"/><path d="m719.3 53.8-31.7 18.6v35.6l31.2-18.1 31.3-18.2v-35.7z"/><path d="m655.9 18.3 31.7 18.5v35.6l-31.2-18.1-31.3-18.2v-35.7z"/><path d="m719.3-17.3-31.7 18.6v35.5l31.2-18.1 31.3-18.2v-35.7z"/><path d="m719.3 125-31.7 18.6v35.6l31.2-18.1 31.3-18.2v-35.7z"/><path d="m655.9 89.4 31.7 18.6v35.6l-31.2-18.1-31.3-18.2v-35.7z"/><path d="m844.3 267.4-31.7 18.6v35.6l31.2-18.1 31.3-18.2v-35.7z"/><path d="m780.9 231.9 31.7 18.5v35.6l-31.2-18.1-31.3-18.2v-35.7z"/><path d="m844.3 196.3-31.7 18.5v35.6l31.2-18.1 31.3-18.2v-35.7z"/><path d="m780.9 160.7 31.7 18.6v35.5l-31.2-18-31.3-18.3v-35.6z"/><path d="m844.3 338.6-31.7 18.6v35.6l31.2-18.1 31.3-18.3v-35.6z"/><path d="m780.9 303 31.7 18.6v35.6l-31.2-18.1-31.3-18.2v-35.7z"/><path d="m844.3 54-31.7 18.5v35.6l31.2-18.1 31.3-18.2v-35.7z"/><path d="m780.9 18.4 31.7 18.5v35.6l-31.2-18.1-31.3-18.2v-35.7z"/><path d="m844.3-17.2-31.7 18.6v35.5l31.2-18 31.3-18.3v-35.7z"/><path d="m844.3 125.1-31.7 18.6v35.6l31.2-18.1 31.3-18.2v-35.7z"/><path d="m780.9 89.5 31.7 18.6v35.6l-31.2-18.1-31.3-18.2v-35.7z"/><path d="m969.4 267.5-31.7 18.6v35.6l31.2-18.1 31.3-18.2v-35.7z"/><path d="m905.9 232 31.8 18.5v35.6l-31.3-18.1-31.3-18.2v-35.7z"/><path d="m969.4 196.4-31.7 18.5v35.6l31.2-18.1 31.3-18.2v-35.7z"/><path d="m905.9 160.8 31.8 18.6v35.5l-31.3-18-31.3-18.3v-35.6z"/><path d="m969.4 338.7-31.7 18.6v35.6l31.2-18.1 31.3-18.3v-35.6z"/><path d="m905.9 303.1 31.8 18.6v35.6l-31.3-18.1-31.3-18.2v-35.7z"/><path d="m969.4 54.1-31.7 18.5v35.6l31.2-18.1 31.3-18.2v-35.7z"/><path d="m905.9 18.5 31.8 18.5v35.6l-31.3-18.1-31.3-18.2v-35.7z"/><path d="m969.4-17.1-31.7 18.6v35.5l31.2-18 31.3-18.3v-35.7z"/><path d="m969.4 125.2-31.7 18.6v35.6l31.2-18.1 31.3-18.2v-35.7z"/><path d="m905.9 89.6 31.8 18.6v35.6l-31.3-18.1-31.3-18.2v-35.7z"/></g></svg>