<svg height="28" viewBox="0 0 332.538 28" width="332.538" xmlns="http://www.w3.org/2000/svg"><rect fill="#dedede" height="28" rx="14" width="154.722" x="34.094"/><path d="m.506 10.1a.505.505 0 1 1 0-1.011h15.167a.505.505 0 1 1 0 1.011zm0-5.044a.505.505 0 1 1 0-1.011h15.167a.505.505 0 1 1 0 1.011zm0-5.045a.5.5 0 0 1 -.506-.505.505.505 0 0 1 .506-.506h15.167a.506.506 0 0 1 .506.506.505.505 0 0 1 -.506.5z" opacity=".35" transform="translate(0 10.119)"/><g fill="#9a9a9a"><path d="m10.259 14.156 6.215-6.215h-16.474v-1.011h16.474l-6.215-6.215.716-.715 7.435 7.436-7.435 7.435z" transform="translate(278.442 6.729)"/><path d="m12.133 1.011a1.011 1.011 0 1 1 1.011 1.011 1.011 1.011 0 0 1 -1.011-1.011zm-6.066 0a1.011 1.011 0 1 1 1.011 1.011 1.011 1.011 0 0 1 -1.011-1.011zm-6.067 0a1.011 1.011 0 1 1 1.011 1.011 1.011 1.011 0 0 1 -1.011-1.011z" transform="translate(318.382 13.153)"/><path d="m-7.381 6.568-.9.9-1.651-1.661-.968-.967-1.1-1.107 3.723-3.733.9.9-2.279 2.142h3.24a6.66 6.66 0 0 1 4 1.383 6.556 6.556 0 0 1 2.55 5.185 6.6 6.6 0 0 1 -6.549 6.568 6.646 6.646 0 0 1 -4.274-1.59l.965-.968a5.1 5.1 0 0 0 3.308 1.18 5.216 5.216 0 0 0 5.171-5.19 5.216 5.216 0 0 0 -5.171-5.185h-3.309l.758.691z" transform="translate(221.18 6.075)"/><g transform="translate(245.926 5.746)"><path d="m-7.381 6.568-.9.9-1.651-1.661-.968-.967-1.1-1.107 3.723-3.733.9.9-2.279 2.142h3.24a6.66 6.66 0 0 1 4 1.383 6.556 6.556 0 0 1 2.55 5.185 6.6 6.6 0 0 1 -6.549 6.568 6.646 6.646 0 0 1 -4.274-1.59l.965-.968a5.1 5.1 0 0 0 3.308 1.18 5.216 5.216 0 0 0 5.171-5.19 5.216 5.216 0 0 0 -5.171-5.185h-3.309l.758.691z" transform="translate(15.699 .329)"/><path d="m3.315 0 .768.658-2.752 3.21 2.752 3.21-.768.658-3.315-3.868z"/></g></g><path d="m26.8 25.864-3.847-3.847a6.737 6.737 0 1 0 -.944.944l3.851 3.839a.666.666 0 0 0 .944-.94zm-9.061-2.72a5.4 5.4 0 1 1 5.4-5.4 5.408 5.408 0 0 1 -5.396 5.4z" fill="#333" opacity=".4" transform="translate(33.094 -4.53)"/></svg>