<svg height="16.507" viewBox="0 0 123.358 16.507" width="123.358" xmlns="http://www.w3.org/2000/svg"><g fill="#bfbfbf"><path d="m10.259 14.156 6.215-6.215h-16.474v-1.011h16.474l-6.215-6.215.716-.715 7.435 7.436-7.435 7.435z" transform="translate(69.262 .983)"/><path d="m12.133 1.011a1.011 1.011 0 1 1 1.011 1.011 1.011 1.011 0 0 1 -1.011-1.011zm-6.066 0a1.011 1.011 0 1 1 1.011 1.011 1.011 1.011 0 0 1 -1.011-1.011zm-6.067 0a1.011 1.011 0 1 1 1.011 1.011 1.011 1.011 0 0 1 -1.011-1.011z" transform="translate(109.202 7.407)"/><path d="m-7.381 6.568-.9.9-1.651-1.661-.968-.967-1.1-1.107 3.723-3.733.9.9-2.279 2.142h3.24a6.66 6.66 0 0 1 4 1.383 6.556 6.556 0 0 1 2.55 5.185 6.6 6.6 0 0 1 -6.549 6.568 6.646 6.646 0 0 1 -4.274-1.59l.965-.968a5.1 5.1 0 0 0 3.308 1.18 5.216 5.216 0 0 0 5.171-5.19 5.216 5.216 0 0 0 -5.171-5.185h-3.309l.758.691z" transform="translate(12 .329)"/><g transform="translate(36.746)"><path d="m-7.381 6.568-.9.9-1.651-1.661-.968-.967-1.1-1.107 3.723-3.733.9.9-2.279 2.142h3.24a6.66 6.66 0 0 1 4 1.383 6.556 6.556 0 0 1 2.55 5.185 6.6 6.6 0 0 1 -6.549 6.568 6.646 6.646 0 0 1 -4.274-1.59l.965-.968a5.1 5.1 0 0 0 3.308 1.18 5.216 5.216 0 0 0 5.171-5.19 5.216 5.216 0 0 0 -5.171-5.185h-3.309l.758.691z" transform="translate(15.699 .329)"/><path d="m3.315 0 .768.658-2.752 3.21 2.752 3.21-.768.658-3.315-3.868z"/></g></g></svg>