<svg id="Group_8135" data-name="Group 8135" xmlns="http://www.w3.org/2000/svg" xmlns:xlink="http://www.w3.org/1999/xlink" width="144.592" height="127.993" viewBox="0 0 144.592 127.993">
  <defs>
    <clipPath id="clip-path">
      <rect id="Rectangle_5142" data-name="Rectangle 5142" width="144.592" height="127.993" fill="#f5f5f5" stroke="rgba(1,61,68,0.13)" stroke-width="1"/>
    </clipPath>
  </defs>
  <g id="Group_8134" data-name="Group 8134" clip-path="url(#clip-path)">
    <path id="Path_16950" data-name="Path 16950" d="M580.766.269A.316.316,0,0,0,580.5,0c-.008.168-.127.209,0,.338.128.015.149-.076.27-.068" transform="translate(-476.275 0.001)" fill="#f5f5f5" stroke="rgba(1,61,68,0.13)" stroke-width="1"/>
    <path id="Path_16951" data-name="Path 16951" d="M578.389,1.16a.948.948,0,0,0-.541-.406c-.05.176-.249.407-.068.608.3-.057.559-.051.608-.2" transform="translate(-474.033 -0.619)" fill="#f5f5f5" stroke="rgba(1,61,68,0.13)" stroke-width="1"/>
    <path id="Path_16952" data-name="Path 16952" d="M386.784,9.4c.214.034.187.309.271.473.349-.031.19-.579.068-.609.185.022.026-.642-.068-.609.076.273-.208.335-.338.2.168.18.276.31.067.541" transform="translate(-317.319 -7.105)" fill="#f5f5f5" stroke="rgba(1,61,68,0.13)" stroke-width="1"/>
    <path id="Path_16953" data-name="Path 16953" d="M466.99,9.388c-.383-.068-.247.384-.338.609-.476.109-.421.75-.812.946.744-.157.831-.972,1.149-1.555" transform="translate(-382.243 -7.697)" fill="#f5f5f5" stroke="rgba(1,61,68,0.13)" stroke-width="1"/>
    <path id="Path_16954" data-name="Path 16954" d="M405.515,18.839h-.339v.135c.128-.03.408.092.339-.135" transform="translate(-332.465 -15.458)" fill="#f5f5f5" stroke="rgba(1,61,68,0.13)" stroke-width="1"/>
    <path id="Path_16955" data-name="Path 16955" d="M460.826,18.839c-.265.383-1,.34-1.014.811a1.523,1.523,0,0,1,.811-.338c-.133-.318.448-.267.2-.473" transform="translate(-377.296 -15.458)" fill="#f5f5f5" stroke="rgba(1,61,68,0.13)" stroke-width="1"/>
    <path id="Path_16956" data-name="Path 16956" d="M404.831,20.71c-.27-.022-.4.094-.406.338.124-.1.334-.117.473-.2-.053-.015-.079-.057-.068-.135" transform="translate(-331.849 -16.991)" fill="#f5f5f5" stroke="rgba(1,61,68,0.13)" stroke-width="1"/>
    <path id="Path_16957" data-name="Path 16957" d="M456.278,21.853c-.157.023-.317.043-.271.27a.254.254,0,0,0,.271-.27" transform="translate(-374.167 -17.931)" fill="#f5f5f5" stroke="rgba(1,61,68,0.13)" stroke-width="1"/>
    <path id="Path_16958" data-name="Path 16958" d="M459.907,28.636c-.014.356-.307.081-.474.2-.02.434.89-.074.474-.2" transform="translate(-376.986 -23.497)" fill="#f5f5f5" stroke="rgba(1,61,68,0.13)" stroke-width="1"/>
    <path id="Path_16959" data-name="Path 16959" d="M384.415,30.786c.1-.293-.309-.365-.338-.135.256-.1.13.185.338.135" transform="translate(-315.152 -25.039)" fill="#f5f5f5" stroke="rgba(1,61,68,0.13)" stroke-width="1"/>
    <path id="Path_16960" data-name="Path 16960" d="M458.756,56.895c-.184.477-.235.191.068.609-.058-.216.107-.209.135-.338-.139-.019-.064-.252-.2-.27" transform="translate(-376.308 -46.685)" fill="#f5f5f5" stroke="rgba(1,61,68,0.13)" stroke-width="1"/>
    <path id="Path_16961" data-name="Path 16961" d="M459.463,63.288c.155-.211.359-.762-.135-.744-.088.11-.043.5-.271.27v.406c.279-.267.153-.119.406.068" transform="translate(-376.677 -51.32)" fill="#f5f5f5" stroke="rgba(1,61,68,0.13)" stroke-width="1"/>
    <path id="Path_16962" data-name="Path 16962" d="M464.99,64.3c-.2.46-.381-.16-.744.135v-.405a.329.329,0,0,0,.338-.135c-.241-.057-.008-.166-.068-.406.35.079.738-.618.2-.609-.17.128.142.352-.135.406-.4-.091-.437-.408-.271-.744-.394.044-.172.245-.541.068-.036.239.109.3.2.406-.191-.056-.175.1-.338.068v-.338h-.271c-.08.305.3.151.2.474-.268.087-.138-.223-.406-.135.019.574.21,1.348-.338,1.555.082.164.261-.138.406-.135.4.477,1.18.162,1.758.406.133-.163.2-.487,0-.609" transform="translate(-379.769 -51.322)" fill="#f5f5f5" stroke="rgba(1,61,68,0.13)" stroke-width="1"/>
    <path id="Path_16963" data-name="Path 16963" d="M241.355,79.043c-.081-.284.109-.3.135-.474-.217.06-.092-.223-.27-.2-.065.276-.263.414-.135.743.128.015.149-.076.27-.067" transform="translate(-197.787 -64.303)" fill="#f5f5f5" stroke="rgba(1,61,68,0.13)" stroke-width="1"/>
    <path id="Path_16964" data-name="Path 16964" d="M450.818,86.612c.1-.008.278-.371,0-.338.088.168-.2.281,0,.338" transform="translate(-369.858 -70.79)" fill="#f5f5f5" stroke="rgba(1,61,68,0.13)" stroke-width="1"/>
    <path id="Path_16965" data-name="Path 16965" d="M236.774,89.019a.644.644,0,0,0-.271-.473c-.015.052-.057.078-.135.067-.024.3.258.283.406.406" transform="translate(-193.95 -72.656)" fill="#f5f5f5" stroke="rgba(1,61,68,0.13)" stroke-width="1"/>
    <path id="Path_16966" data-name="Path 16966" d="M228.614,95.317c.234.054.26-.1.473-.068.007-.322-.285-.346-.27-.676-.718.4-.032.512-.2.743" transform="translate(-187.48 -77.602)" fill="#f5f5f5" stroke="rgba(1,61,68,0.13)" stroke-width="1"/>
    <path id="Path_16967" data-name="Path 16967" d="M467.015,99.781c-.026.177-.217.189-.135.473.31.062.309-.186.406-.338-.219.084-.052-.219-.27-.135" transform="translate(-383.079 -81.862)" fill="#f5f5f5" stroke="rgba(1,61,68,0.13)" stroke-width="1"/>
    <path id="Path_16968" data-name="Path 16968" d="M472.246,100.186c.213-.077.164.106.271.135.015-.053.057-.079.135-.068v-.406h-.2c.086.267-.2.164-.2.338" transform="translate(-387.499 -81.93)" fill="#f5f5f5" stroke="rgba(1,61,68,0.13)" stroke-width="1"/>
    <path id="Path_16969" data-name="Path 16969" d="M475.229,102.2c.253.062.221.411.541.406.072-.289.042-.9-.406-.879.011.214-.18.226-.135.474" transform="translate(-389.941 -83.472)" fill="#f5f5f5" stroke="rgba(1,61,68,0.13)" stroke-width="1"/>
    <path id="Path_16970" data-name="Path 16970" d="M209.451,110.358c-.008-.172-.013-.348-.2-.338.062.118,0,.363.2.338" transform="translate(-171.697 -90.276)" fill="#f5f5f5" stroke="rgba(1,61,68,0.13)" stroke-width="1"/>
    <path id="Path_16971" data-name="Path 16971" d="M206.977,111.421c.178.02.222-.093.2-.271h-.135c-.041,0-.08.011-.067.068.115.028-.014.088,0,.2" transform="translate(-169.832 -91.204)" fill="#f5f5f5" stroke="rgba(1,61,68,0.13)" stroke-width="1"/>
    <path id="Path_16972" data-name="Path 16972" d="M201.771,117.564c-.042-.144-.417-.063-.474,0-.087.214.561.214.474,0" transform="translate(-165.167 -96.401)" fill="#f5f5f5" stroke="rgba(1,61,68,0.13)" stroke-width="1"/>
    <path id="Path_16973" data-name="Path 16973" d="M519.515,118.5c.178.019.142.4.338.2-.292-.547.318-.847.812-.609-.015-.128.076-.149.068-.27-.431.115-.352-.28-.676-.271-.763.283-1.566.59-1.487,1.353.3-.185.84.073.947-.406" transform="translate(-425.504 -96.459)" fill="#f5f5f5" stroke="rgba(1,61,68,0.13)" stroke-width="1"/>
    <path id="Path_16974" data-name="Path 16974" d="M524.347,130.464c.116-.1.246.023.473-.068.054-.3-.12-.376-.339-.406.035.2-.336.332-.135.474" transform="translate(-430.2 -106.663)" fill="#f5f5f5" stroke="rgba(1,61,68,0.13)" stroke-width="1"/>
    <path id="Path_16975" data-name="Path 16975" d="M209.5,133.381c-.073.168-.234.445.068.473-.041-.14.084-.444-.068-.473" transform="translate(-171.819 -109.445)" fill="#f5f5f5" stroke="rgba(1,61,68,0.13)" stroke-width="1"/>
    <path id="Path_16976" data-name="Path 16976" d="M656.5,154.551c.014.437.521.38.473.879a.574.574,0,0,0,.406-.068c.108-.5-.437-.359-.2-.812a.314.314,0,0,1-.2-.067c-.012.1.024.249-.068.27-.2,0-.148-.258-.406-.2" transform="translate(-538.686 -126.761)" fill="#f5f5f5" stroke="rgba(1,61,68,0.13)" stroke-width="1"/>
    <path id="Path_16977" data-name="Path 16977" d="M670.2,172.8c.191.01.17-.191.27-.27-.119.039-.4-.082-.406.068a.184.184,0,0,1,.135.2" transform="translate(-549.814 -141.557)" fill="#f5f5f5" stroke="rgba(1,61,68,0.13)" stroke-width="1"/>
    <path id="Path_16978" data-name="Path 16978" d="M77.6,198.4c-.005-.3-.484-.489-.609-.27.373-.08.214.372.609.27" transform="translate(-63.177 -162.499)" fill="#f5f5f5" stroke="rgba(1,61,68,0.13)" stroke-width="1"/>
    <path id="Path_16979" data-name="Path 16979" d="M714.521,200.028c-.006.184.113.136,0,.271.241.015.405-.046.473-.2-.158-.021-.254-.107-.473-.068" transform="translate(-586.296 -164.123)" fill="#f5f5f5" stroke="rgba(1,61,68,0.13)" stroke-width="1"/>
    <path id="Path_16980" data-name="Path 16980" d="M73.127,202.245c-.03-.128.092-.408-.135-.338-.044.165-.137.348.135.338" transform="translate(-59.851 -165.664)" fill="#f5f5f5" stroke="rgba(1,61,68,0.13)" stroke-width="1"/>
    <path id="Path_16981" data-name="Path 16981" d="M716.752,204.43h.2c-.015-.12.068-.338-.135-.27-.021.092-.1.129-.068.27" transform="translate(-588.122 -167.512)" fill="#f5f5f5" stroke="rgba(1,61,68,0.13)" stroke-width="1"/>
    <path id="Path_16982" data-name="Path 16982" d="M47.562,204.6c-.112.272-.619.506-.338.946.252-.1.74-.636.338-.946" transform="translate(-38.68 -167.881)" fill="#f5f5f5" stroke="rgba(1,61,68,0.13)" stroke-width="1"/>
    <path id="Path_16983" data-name="Path 16983" d="M719.228,206.846c-.178-.02-.222.093-.2.27.178.02.222-.094.2-.27" transform="translate(-589.989 -169.725)" fill="#f5f5f5" stroke="rgba(1,61,68,0.13)" stroke-width="1"/>
    <path id="Path_16984" data-name="Path 16984" d="M725.411,208.48a.216.216,0,0,0-.338.068c.086.092.331.1.338-.068" transform="translate(-594.955 -171.021)" fill="#f5f5f5" stroke="rgba(1,61,68,0.13)" stroke-width="1"/>
    <path id="Path_16985" data-name="Path 16985" d="M721.951,209.7v-.2c-.1.012-.249-.024-.27.068.106.029.058.212.27.135" transform="translate(-592.172 -171.898)" fill="#f5f5f5" stroke="rgba(1,61,68,0.13)" stroke-width="1"/>
    <path id="Path_16986" data-name="Path 16986" d="M738.692,224.806c-.2,0-.343-.2-.474-.068-.083.225.457.166.474.068" transform="translate(-605.734 -184.372)" fill="#f5f5f5" stroke="rgba(1,61,68,0.13)" stroke-width="1"/>
    <path id="Path_16987" data-name="Path 16987" d="M736.256,231.927c.01-.19-.166-.2-.338-.2-.085.266.159.2.338.2" transform="translate(-603.839 -190.14)" fill="#f5f5f5" stroke="rgba(1,61,68,0.13)" stroke-width="1"/>
    <path id="Path_16988" data-name="Path 16988" d="M752.336,256.592c-.015.053-.057.079-.135.068v.2h.135c.117-.062.187-.249,0-.271" transform="translate(-617.215 -210.545)" fill="#f5f5f5" stroke="rgba(1,61,68,0.13)" stroke-width="1"/>
    <path id="Path_16989" data-name="Path 16989" d="M791.765,292.377c.294.134.151.705.473.811a24.7,24.7,0,0,1,1.082-3.11c-.565.047-.136-.9-.473-1.082.022.293-.374.166-.338.473.739.468-.032,1.21-.473,1.487a1.332,1.332,0,0,1-.27,1.42" transform="translate(-649.679 -237.134)" fill="#f5f5f5" stroke="rgba(1,61,68,0.13)" stroke-width="1"/>
    <path id="Path_16990" data-name="Path 16990" d="M3.492,291.623c.25.019.395-.695.135-.744.1.256-.185.13-.135.338.16.265.034.079,0,.406" transform="translate(-2.86 -238.679)" fill="#f5f5f5" stroke="rgba(1,61,68,0.13)" stroke-width="1"/>
    <path id="Path_16991" data-name="Path 16991" d="M2.81,297.033c.035-.326.233-.488.2-.879h-.2c.09.342-.2.65,0,.879" transform="translate(-2.246 -243.008)" fill="#f5f5f5" stroke="rgba(1,61,68,0.13)" stroke-width="1"/>
    <path id="Path_16992" data-name="Path 16992" d="M.835,307.439c-.382-.212-.519-1-.473-1.42a.379.379,0,0,1-.27-.068c-.368,1.045.463,1.771.947,2.5.254-.415-.437-.629-.2-1.014" transform="translate(0 -251.046)" fill="#f5f5f5" stroke="rgba(1,61,68,0.13)" stroke-width="1"/>
    <path id="Path_16993" data-name="Path 16993" d="M18.541,312.694c-.246.043-.084-.322-.27-.338-.015.052,0,.134-.068.135-.033.174.239.384.338.2" transform="translate(-14.934 -256.302)" fill="#f5f5f5" stroke="rgba(1,61,68,0.13)" stroke-width="1"/>
    <path id="Path_16994" data-name="Path 16994" d="M472.663,525.1c-.15.143-.168.417-.473.405v-.271c-.291.008-.5.138-.676-.067-.05-.208.185-.13.135-.338-.457.069.167-.192-.135-.338-1.27.14-2.307.586-3.651.811-.478,2.082,2.428.5,3.245,1.353.084-.187.327-.214.473-.339.027-.163-.124-.146-.068-.338.645-.621,1.463.335,1.893-.338a1.456,1.456,0,0,0-.744-.541" transform="translate(-383.859 -430.368)" fill="#f5f5f5" stroke="rgba(1,61,68,0.13)" stroke-width="1"/>
    <path id="Path_16995" data-name="Path 16995" d="M640.991,587.443c.048-.554-.487-.107-.676-.406-.021.158-.107.254-.067.473.279.273.377-.075.744-.068" transform="translate(-525.343 -481.69)" fill="#f5f5f5" stroke="rgba(1,61,68,0.13)" stroke-width="1"/>
    <path id="Path_16996" data-name="Path 16996" d="M637.658,591.082c.4-.008.458-.066.744.068,0-.206-.243-.162-.2-.406-.352-.059-.5.082-.54.338" transform="translate(-523.227 -484.721)" fill="#f5f5f5" stroke="rgba(1,61,68,0.13)" stroke-width="1"/>
    <path id="Path_16997" data-name="Path 16997" d="M612.374,616.8c.044.315-.024.517-.338.473a6.151,6.151,0,0,0,.2,1.893,1.324,1.324,0,0,0,.88-.744,4.666,4.666,0,0,1-.136-1.284c-.26-.056-.318-.313-.609-.338" transform="translate(-502.203 -506.114)" fill="#f5f5f5" stroke="rgba(1,61,68,0.13)" stroke-width="1"/>
    <path id="Path_16998" data-name="Path 16998" d="M689.277,620.628c.247.1.362-.1.473.135.049.206-.069.246-.068.406.483-.011.672.691.541.879.428.233.8-.122,1.15-.2-.476.013-.058-.367-.406-.406a.318.318,0,0,0,.2-.067c-.015-.248-.093-.26,0-.474-.624-.142-.846-.686-1.217-1.082.081.283-.285.121-.338.271.18.207-.332.3-.338.541" transform="translate(-565.583 -508.587)" fill="#f5f5f5" stroke="rgba(1,61,68,0.13)" stroke-width="1"/>
    <path id="Path_16999" data-name="Path 16999" d="M688.522,627.608c.157-.023.317-.043.271-.27-.212-.032-.191.17-.271.27" transform="translate(-564.963 -514.756)" fill="#f5f5f5" stroke="rgba(1,61,68,0.13)" stroke-width="1"/>
    <path id="Path_17000" data-name="Path 17000" d="M695.016,633.759c-.348.274-.685.142-1.217.2.052.9,1.13.059,1.42.542.169.01.21-.107.338-.136-.056-.328-.357-.409-.541-.609" transform="translate(-569.293 -520.028)" fill="#f5f5f5" stroke="rgba(1,61,68,0.13)" stroke-width="1"/>
    <path id="Path_17001" data-name="Path 17001" d="M632.112,636.047c.288.062.289-.162.271-.406h-.271c.034.213-.147.265,0,.406" transform="translate(-518.628 -521.572)" fill="#f5f5f5" stroke="rgba(1,61,68,0.13)" stroke-width="1"/>
    <path id="Path_17002" data-name="Path 17002" d="M629.461,636.4c.019.25-.377.677.068.744-.11-.285.273-.665-.068-.744" transform="translate(-516.383 -522.191)" fill="#f5f5f5" stroke="rgba(1,61,68,0.13)" stroke-width="1"/>
    <path id="Path_17003" data-name="Path 17003" d="M696.524,637.9c-.013.1-.163.061-.27.067-.117.23.03.419.338.406.036-.148.164-.437-.068-.473" transform="translate(-571.275 -523.429)" fill="#f5f5f5" stroke="rgba(1,61,68,0.13)" stroke-width="1"/>
    <path id="Path_17004" data-name="Path 17004" d="M632.349,642.007c.214.033.239-.122.473-.068.048-.25-.237-.169-.338-.271.05.209-.186.13-.136.338" transform="translate(-518.865 -526.518)" fill="#f5f5f5" stroke="rgba(1,61,68,0.13)" stroke-width="1"/>
    <path id="Path_17005" data-name="Path 17005" d="M695.024,688.113a.672.672,0,0,0-.27-.473c-.108.049.015.331-.2.27a.373.373,0,0,1,0,.541c.128.015.15-.076.271-.068.056-.191-.1-.175-.068-.338.128-.015.149.076.27.068" transform="translate(-569.91 -564.239)" fill="#f5f5f5" stroke="rgba(1,61,68,0.13)" stroke-width="1"/>
    <path id="Path_17006" data-name="Path 17006" d="M680.33,700.209c-.1-.035-.17-.1-.27-.135a.553.553,0,0,1-.2.406c.047.133.378-.017.406.135-.029.106-.212.058-.135.27.212.078.164-.106.27-.135.015.052,0,.133.068.135.019-.289-.206-.334-.135-.676" transform="translate(-557.853 -574.442)" fill="#f5f5f5" stroke="rgba(1,61,68,0.13)" stroke-width="1"/>
    <path id="Path_17007" data-name="Path 17007" d="M676.961,705.067c0-.223.028-.479-.2-.474-.206.476-.3.259-.406.744-.135,0-.086-.184-.271-.135-.026.229.3.107.2.406.283.081.12-.285.271-.338.015.053.056.079.135.068-.013.194-.008.369.2.338.005-.333.264-.412.27-.743-.133-.02-.134.091-.2.135" transform="translate(-554.754 -578.15)" fill="#f5f5f5" stroke="rgba(1,61,68,0.13)" stroke-width="1"/>
    <path id="Path_17008" data-name="Path 17008" d="M148.4,69.04c-.632-.342.215-1.924-.678-2.1-.269-1.018.184-1.549.34-2.571-.192.058-.177-.094-.34-.067-.173.537-.167.952-.269,1.284-.207-.357-.207-.92-.678-1.014.1-.436-.317-.359-.338-.676.067-.09.182-.132.2-.271-.1-.036-.349.079-.338-.067.027-.355.317-.418.609-.34a6.066,6.066,0,0,1-.271-2.772c-.5-.3.044-1.186.134-1.555-.321.006-.152-.478-.472-.472.161.169.031.357-.136.541-.052-.255.083-.324.069-.541-.081-.167-.255.138-.338-.067-.1-.257.3-.013.2-.271-.551,0-.386-.791-.2-1.016-.092-.165-.205.123-.273-.067.219-.075.215-.372.2-.676-.44-.248-.845.1-1.014-.338-.223-.568-.584-.777-.541-1.555a3.107,3.107,0,0,1-2.029-2.367c-.374.06-.418-.213-.405-.541-.33.123-.459-.3-.676-.067.175-.033.382.238.2.338.025-.332-.405-.207-.405,0v-.271c-.653,0-.563-.745-1.284-.676a2.991,2.991,0,0,0-.676-1.083c-.008.107.008.234-.136.2-.119-.24-.119-.181-.338-.067.071-.253-.142-.219-.2-.338h.271c-.1-.257-.319-.4-.338-.745.063-.071.25-.021.2-.2-.413-.4-.134-.843-.338-1.284.282-.1.171-.6.338-.812-.276.048-.148-.66-.271-.539a.33.33,0,0,1-.136.338c.121-.346-.178-.273-.2-.474.027-.152.371.012.338-.2-.309-.345-.708-.6-1.014-.948,0,.127-.054.144-.136.069-.063.265.234.169.136.472.115.027.173-.1.2,0-.081.555.332.614.338,1.083a11.52,11.52,0,0,0-1.555-1.083c-.083-.413-.409-.582-.539-.946-.169-.01-.211.106-.34.136-.117-.042.006-.321-.134-.34-.109.1-.294.747,0,.812.136-.042.044-.317.2-.338-.374.526.173,1.136.069,1.555-.221-.234-.328-.653-.609-.743.017.006-.25.238-.136-.136-.85-.04-1.016-1.444-.946-1.96-.424-.207-.081-.818,0-1.15-.305.179-.53-.223-.743-.136a1.941,1.941,0,0,0,.067-.743c-.113-.111-.3-.148-.405-.271-.083-.284.107-.3.134-.472a.991.991,0,0,0-.743-.474c.021-.09.1-.129.067-.271-.348.038-.44-.251-.676-.134a7.8,7.8,0,0,0-.678-1.083c.265-.052.163-.468.541-.405.079.085.284.386.407.2-.177-.121-.413-.551-.136-.541-.217-.121-.311-.365-.472-.541a.186.186,0,0,1-.2.134c-.052-.376-.555-.3-.474-.81-.219-.084-.052.219-.271.134-.127-.219.129-.428-.271-.405.28.288-.111.44.2.609-.359.171-.956-.2-.743-.609-.175-.188-.576-.148-.678-.407-.48.411-.854-.146-.877-.609h-.271c-.154.181.1.346-.069.474-.6.032-.38-.745-.946-.745-.236.058-.15.436-.539.34-.063.117-.023.336-.136.405,0-.751.749-.812,1.083-.879-.23-.311-.378-.7-.609-1.014-.052.207.184.131.134.338-.255.015-.612-.071-.676.134-.415-.2-.831-.417-.812-.879-.038.278-.355.277-.541.407.023-.294-.374-.167-.338-.474a1.948,1.948,0,0,1-1.284-.472c-.733-.639-.394-1.035-.271-1.895-.119-.015-.338.069-.271-.134-.132-.021-.134.092-.2.134.054-.234-.1-.259-.069-.472-1.294-.564-.027-1.73-.2-2.908-.311-.682-.534-1.449-.879-2.1.186-.061.2-.3.271-.472-.244.033-.4-.086-.609.067-.39-.626-.975-1.056-1.353-1.691.284-.58.154-.806.2-1.555-.144-.15-.328-.257-.407-.472.271-.157-.154-.309.136-.541-.38-.259-.2-.693-.474-1.083.017-.278.417-.528.271-.743-.017.159-.3.04-.271-.067-.075-.5.278-.58.338-.946-.294,0-.507-.079-.472-.407-.467-.1-.735-.1-.946-.338-.132-.152-.065-.388-.271-.541.046.034-.05.171-.134.136-.113-.046-.353-.445-.609-.271a.693.693,0,0,1-.069-.678c-.252-.015-.19-.238-.134-.405-.3-.065-.3-.378-.338-.541-.052.434-.515.9-.879.609.134-.132.042-.386,0-.539-.409.038-.182.336-.067.539-.086,0-.094-.086-.2-.067.092.215.013.226,0,.474-.987.952-1.968-.134-1.758-1.353-.682-.361-.514-1.367-.338-2.164-.205-.109-.152-.478-.338-.609.194-.123-.219-1.121.134-1.419a2.363,2.363,0,0,0-.676.067c-.117-.363.355-.4.067-.541.284.058.148-.3.271-.405-.173-.1-.428-.113-.541-.271-.021-.159-.13-.28,0-.407a.364.364,0,0,1-.269-.271c-.989.031-.211-1.075-.069-1.351.054-.015.134,0,.136-.067-.336.109-.215-.236-.474-.2-.142.038-.192.167-.405.136-.177-.161-.48-.2-.541-.474.411-.524-.418-1.133.136-1.555-.419-.313-.232-.81-.407-1.353-.357-.127-.43-.177-.541-.472-.271,0-.223.317-.4.405-.027-.5.332-.612.474-.946-.121-.015-.34.069-.271-.134-.113.155-.453.086-.609.2.365.482-.626.662-.946.745.338,1.3-.42,2.332-.609,3.651.1.146.294.2.269.472-.182-.19-.167-.052-.405,0a.9.9,0,0,0-.134-.472A15.443,15.443,0,0,0,105.6,9.469h.338c.011-.192-.228-.132-.134-.405h.338c0,.134-.184.086-.134.271.265.228.66.13.946.2a1.5,1.5,0,0,1-.407.136c-.067.209.361.263.136.405-.09-.067-.132-.182-.271-.2-.079.53-.5.718-.812,1.016a2.172,2.172,0,0,0,.407,1.081c-.259.307-.324.8-.676,1.016.013.726-.476,1.542.2,1.826.271.491,0,1.085-.2,1.622.374.384,0,1.474.607,1.758.029.344-.173.459-.2.743.279-.008.422.119.743.069.056.125.088.273.2.338a2.081,2.081,0,0,0-1.083-.271c-.336.814-.528,1.77-.81,2.638a.715.715,0,0,1,.271.539c-.555,1.136-.816,2.567-1.758,3.313a4.389,4.389,0,0,1-.338,1.826c.153.094.253-.175.269,0v.2c-.284-.073-.507-.1-.472-.338-.664.626-2.459,1.131-3.381.472.011.223.156.438-.136.474-.14-.017-.017-.3-.134-.338-.136-.015-.275.3-.407.067.232-.017.351-.144.34-.405-.207.048-.2-.117-.407-.067-.225-.71-.914-.426-1.284-.678-.338-.228-.286-.808-.472-1.014.006-.107.171-.054.134-.2-.305.037-.442-.1-.405-.405-.461-.148-1.138-.081-1.353-.474-1.762.159-2.371-.82-3.246-1.689-.056.086-.236.386-.338.2.115-.132.342-.154.271-.472-.4-.006-.994-.382-1.15-.2a.794.794,0,0,0-.539-.338c-.188.042-.251.557-.474.338.226-.111.3-.376.405-.609-.445-.073-.647-.388-1.014-.539-.115.042-.111.2-.2.269-.175-.05-.4-.054-.472-.2.021.179-.142.173-.271.2.211-.23-.094-.355-.067-.609.161-.169.178-.063.472-.067.023-.24.186-.167.069-.405h-.34c.023.338-.449.183-.607.338-.309-.436-1.173-.317-1.083-1.15-1.075-.277-1.459-1.246-2.638-1.421-.056-.259-.278-.351-.405-.539.013-.2-.017-.344-.136-.407-.242-.115-.914.4-1.15.069.361.115.72-.305,1.083-.407.582.467.6-.49,1.016-.609-.081-.011-.075-.107-.069-.2a4.8,4.8,0,0,0,1.624-2.841c-.309.008-.184.449-.609.338.052-.465-.192-.468-.069-1.081.213.075.154.006.407,0-.017-.209-.29-.163-.338-.338-.029-.163.123-.148.067-.34.273.094.213-.146.405-.134.037.1-.079.349.067.338a1.19,1.19,0,0,1,.407-.676c.048.207-.117.2-.069.405.276.257.409-.588.609-.2.01-.217-.065-.518.2-.474a1.708,1.708,0,0,0,.067.676.2.2,0,0,0-.2.338c.284-.052.215-.461.609-.405-.046-.4.077-.238.2-.405.088-.253-.282-.388-.136-.474.2.1.349-.094.474.136.142-.346-.641-.292-.541-.812.213.219.05-.177.2-.2.057.083.082.539.269.271-.282.029.209-.248-.134-.338a.415.415,0,0,1,.338,0,.9.9,0,0,1,.225-.61c-.2-.017-.044-.328.046-.336.181.052-.038.152-.013.3.236-.251.572-.4.756-.7-.211-.244-.681-.981-1.014-.472.119.015.338-.069.271.134a.3.3,0,0,1-.271.136,1.645,1.645,0,0,1-.541-1.15c-.246.177-.223.106-.338-.134a7.229,7.229,0,0,1-1.15.946,2.564,2.564,0,0,1,.879.134c-.219.209-.188.668-.472.812-.4-.015-.459-.109-.812,0,.056-.217.058-.14-.067-.271.073-.2.286-.255.271-.541-.257-.1-.13.186-.34.136.084-.219-.217-.052-.134-.271.309.109.213-.328.405-.136-.036-.1.081-.349-.067-.338-.167.464-.9.361-1.081.812-.038-.188-.234-.219-.271-.407a6.541,6.541,0,0,0,.676-.743c-.822.566-1.841.2-2.367,1.083.035-.274-.407-.115-.405,0-.056-.284-.349-.328-.474-.541.046-.217.225-.129.271-.2-.165-.29-.177-.111-.405,0-.248-.159-.249-.28-.609-.405-.215.553-1.311.5-1.624.067.034.24-.173.238-.252.367.081-.2-.1-.294-.086-.57-.192-.008-.374-.021-.472-.271-.015.211-.24.211-.407.271a3.281,3.281,0,0,1-.338-.338c.159-.065.43-.021.407-.271-.275.094-.215-.146-.407-.134A1.613,1.613,0,0,1,77,6.764v-.2c-.307.146-.4-.154-.745,0,.036-.1.1-.171.136-.271-.278-.01-.424.117-.745.067-.275-.537-.455-1.167-1.014-1.421-.056.192.1.175.067.338-.411-.211-.271.539-.81.407.015-.626-.681-.537-.676-1.15-.248-.044-.085.322-.271.338a.474.474,0,0,0-.2-.541c-.012.079-.108.073-.2.067-.088.169.152.328,0,.338-.069-.18-.292-.558-.474-.405.265.227.129.447.271.812-.3-.05.056.134-.134.134a1.725,1.725,0,0,0-.676-1.014c-.159.265-.035.079,0,.405-.177.019-.34.023-.271-.2-.163-.029-.148.123-.338.067-.077.213.106.163.134.271-.2-.077-.251-.04-.338.134.221.04.315-.046.474-.067.015.317.3.146.134.405.207-.048.2.117.405.069-.148.14-.013.3.069.405.658-.223.639-.37,1.421-.338a1.758,1.758,0,0,0,.539.743c-.194.1-.369-.209-.338.069.161.351.382-.073.609-.069-.035.259-.292.3-.338.541.528.14.033.553.067.946.171.1.5.036.474.338a1.762,1.762,0,0,1-.745-.2c-.088.136-.288.161-.405.269-.056.626.125.983-.067,1.353.075-.369-.115-.472-.2-.676.017-.1.148-.077.2-.136,0-.159-.117-.2-.067-.405-.19-.2-.432.277-.407-.136-.526.077-.57.626-1.217.407-.021-.092-.1-.129-.067-.271-.321-.027-.4.19-.609.271H69.427c-.357-.1-.115-.785-.474-.879a1.386,1.386,0,0,1-.134.676,1.943,1.943,0,0,1-.745-.541c-.108.386.065.735-.067.946-.165-.067-.144-.021-.405-.067-.069.158-.232.219-.2.474a.4.4,0,0,1,.474.338c-.042-.038-.321-.159-.338,0,.1.1.384.021.338.271-.409.046-.326-.253-.745-.136V9c-.225-.023-.3-.2-.609-.136-.015.472.065.635-.067.946.13.14.564-.023.541.271-.228-.063-.687.052-.676-.405-.179-.081-.175.324-.2,0-.24.027-.134.3-.405.134.109.351-.211,1.417-.609.812A2.251,2.251,0,0,0,64.83,11.7c.53.044.611.626,1.014.609-.006.106-.173.052-.134.2.18-.046.13.14.2.2.328-.232.635.3.541.472a.954.954,0,0,0-.271-.405.492.492,0,0,1-.743-.541c-.344.136-.9,1.042-1.284.474-.209-.052-.083.232-.34.134.027.831-.522,1.127-.269,1.826-.459-.052-.48.334-.745.474-.031-.129.092-.407-.134-.338.027.612-.49.682-.474,1.284a1.29,1.29,0,0,0,1.488.541.751.751,0,0,1-.743.271c-.027.294.324.1.338.2-.161.058.056.3.067.407.284.063.5-.29.338.067a.567.567,0,0,0,.474-.405c.117.355.079.01.338,0-.033.286-.234.273.067.405-.207.048-.248-.069-.405-.067.075.209.042.242-.136.134-.019.184.1.5-.2.407-.056-.192.1-.177.069-.34-.413.117-.722-.221-.946-.067.211-.01.232.173.269.338-.261-.054-.248-.382-.472-.472.369.418.3,1.273,1.014,1.351.2.372.384.944.609,1.083-.2-.048-.294-.2-.609-.136a.835.835,0,0,0-.134-.879c.011.148-.24.031-.338.069.086-.418-.265.021-.338-.2.319-.188-.32-.518-.34-.812-.49.086-.436-.374-.877-.338-.092.5.28,1.079-.2,1.217.34-.2-.115-.365,0-.743-.712-.294-1.916-.9-2.7-.474.213.035.186.309.271.474-.286-.19.044.165-.136.2-.056-.169-.088-.361-.338-.338.021.159.107.255.067.474.182.121.132-.3.2-.067a.183.183,0,0,1-.2.134c-.253.006-.017-.478-.269-.472-.463.217-.361,1.06,0,1.351-.263-.136-.415-.382-.649-.543h0c.156-.029.157.1.31.07,0-.273-.065-.476-.338-.473v.405h0v-.021c-.023-.013-.042-.035-.067-.046-.021-.791.413-1.081.474-1.622-.219-.1-.535-.1-.541-.407-.2-.117-.344.023-.474-.067.094-.159-.1-.5-.405-.472-.133-.818-1.15-1.328-1.691-1.962-.011.1.025.25-.067.271-.134-.069-.106-.3-.338-.271.033.277-.171,0-.271,0-.015.119.069.338-.134.271.075-.324-.211-.286-.136-.609-.53-.326-.635-.157-1.148-.067-.077.413.34.336.338.676-.255-.052-.324.083-.541.067.1.169.184.3,0,.474-.073-.063-.021-.249-.2-.2.033.324-.06.526-.271.609-.056-.19.1-.175.069-.338-.443.094-.144-.443-.474-.136.106-.417.63-.643.541-.877-.058.2-.219-.042-.338,0-.079.211.106.163.134.269-.221.138-.428.378-.676.136.123.3-.349.513-.067.81-.221-.083-.052.221-.273.136-.361-.434-.071-.624-.269-1.15-.294.05-.418-.154-.541.067.063.117.25.111.2.338-.173-.277-.163.079-.407-.067-.1.255.186.13.136.338.219.085.052-.219.271-.134-.052.253.257.148.269.338-.019.347-.365.309-.539.338.242-.038.205.2.2.405-.142.023-.4.194-.338-.134.134-.019.134.092.2.134.213-.363-.342-.305-.338,0,.238.1.586.553.2.678-.129-.125-.052-.125-.269-.067-.073.173.205.321,0,.405a.588.588,0,0,1-.271-.676c-.273.092-.24-.123-.338-.2-.156.025-.09.271-.2.338.048-.205-.117-.2-.067-.405.05-.107.33.015.271-.2a.717.717,0,0,0-.541-.338c-.142.192-.086.635.134.676-.3-.056.015.511-.271.474-.011-.192.059-.465-.134-.474.344.511-.549.15-.067.407-.219-.06-.094.223-.271.2a1.069,1.069,0,0,0-.271-.271,3.774,3.774,0,0,0-.743.879c.14.179.177.144.2.338.244-.04.382.025.405.2-.1.109-.386-.107-.405.2.346-.031.384.246.676.271-.038.119.083.4-.067.405h-.271c.035-.286-.409-.441-.539-.338.109-.031.109.369,0,.338.071-.409-.125-.347-.271-.405.029-.107.211-.058.134-.271-.47-.019-.094.806-.812.539a.486.486,0,0,0,0,.407c.278.071.443-.319.609-.136-.1.221-.15.171-.405.136.1.255-.186.131-.134.338.236.2.664-.3.879.067-.215-.033-.027.336-.271.271-.052.23.248.111.271.271-.672.184-.691-.532-1.217-.676.146.012.215-.056.2-.2-.309-.106-.125.28-.338.271.1-.2-.349-.179-.338-.067.33.021-.1.069-.067.2.1.011.249-.023.269.069a2.88,2.88,0,0,1-.472.472,1.505,1.505,0,0,0-.405-.134c-.079.171-.109.386-.271.472.315.006-.027.207-.067.271-.048.3.113.382.067.678.42-.217.252.259.405.472,0-.1.426-.1.2-.2a.069.069,0,0,1-.136,0c.146-.171.345-.645.676-.405-.322.128-.653.737-.338,1.083-.29-.065-.261.188-.472.2a.33.33,0,0,0-.136-.338c.1.371-.171.369-.269.541.148.008.029.286.067.405a3.1,3.1,0,0,1,1.826.271c-.367.194-1.18-.348-1.555.067-.088-.111-.328-.413-.407-.134.334-.094.319.2.136.271.1.036.349-.079.338.067-.169.058-.142.309-.405.271-.058-.192.094-.175.067-.338-.107-.184-.378.192-.474,0,0-.111.188-.038.2-.136-.332.094-.211-.47-.405-.134.042-.539-.816-.535-1.016-.609.184.063.156.342.2.541-.238-.3-.288.084-.474.2.106-.388,0-.355-.2-.539.211-.311-.073-.324.067-.609-.194.094-.344-.184-.405,0,.088,0,.085.186,0,.2.013-.205-.313.142-.474-.134.01.167.011.328-.134.338-.09-.067-.253-.063-.271-.2.088,0,.086-.186,0-.2-.1.351.1.38-.136.676.213-.142.261-.142.474,0,.015-.121-.069-.338.134-.271.029.163-.123.146-.067.338.305-.156.662.192.271.067-.1.221.38.2.134.338-.054-.119-.63-.307-.609-.067.067.159.392.061.474.2-.2.228-.4.032-.609-.067-.008.083-.021.159-.134.134.013.234.275.221.338.405-.107.008-.236-.008-.2.136.223,0,.336.113.609.067.13.342.432.514.541.879.173.052.311-.265.405-.067-.465.221-.371.967,0,1.217-.467-.188-.447-.862-1.15-.812a.5.5,0,0,0,.2.609c-.061.622-.459,1.1,0,1.555-.006.107-.173.054-.136.2.524.084.687.891.812,1.15-.3-.359-.441-.866-.879-1.083-.1-1.179-.835-1.342-1.014-2.367-.551-.175-.453-.8-.609-1.15-.017.175-.117-.092-.271,0,.109-.334-.236-.215-.2-.472,0-.159.117-.2.067-.405.086,0,.094.086.2.067.017-.2-.152-.207-.134-.407-.159,0-.2.117-.407.069.031.609-.944.728-.472,1.351-.263.04-.515.226-.676,0-.282.286-.044.464-.136.745-.257.1-.013-.3-.271-.2-.217.413-.555.436-.81.812-.169.246-.2.7-.407,1.148.357.046-.111.123,0,.34.349.279.313,1.161.2,1.689.238-.161.207-.188.609-.134.213.752-.6,1-1.083,1.284-.077.372-.392.509-.877.472a.584.584,0,0,1-.273.474c.081.01.194-.011.2.067v.271c-.217-.013-.286.119-.541.067-.033.213.123.24.069.474a1.511,1.511,0,0,0-.474,1.014c-.353.2-.342.562-.541.812-1.1,1.369-3.475,1.822-5.34,2.3h-.474c-.277.814-1.482-.163-1.96-.134,0,.006-.062.194-.136.2a1.428,1.428,0,0,0-.541.2,1.3,1.3,0,0,1-1.622.948,1.415,1.415,0,0,1-1.284.2c-.585.221-1.031,1.248-1.622,1.016-.042.119.2.28,0,.338.054-.257-.321-.086-.474-.136-.154.411-1.106.311-1.353.067-.163-.134.115-.288-.134-.338-.088.294-.739.077-.879.474-.179,0-.4.036-.405-.136-.09-.407.457-.532.2-.877-.255.2.184-.2-.2-.2a1.129,1.129,0,0,1-.541,1.15c-.008-.083-.019-.161-.136-.136a1.574,1.574,0,0,1-1.555.745c-.132.814-1.221.672-1.351,1.488-.833.18-1.039.991-1.758,1.284-.424-.175-.754.434-1.217.2-.392.465-1.184.528-1.284,1.284a.431.431,0,0,1-.338,0c.138.7-.418,1.234-.541,1.893a.313.313,0,0,0-.271-.271c-.138.132-.165.376-.405.405-.029-.129-.146-.169-.136-.338.044-.2.261-.236.2-.539-.132-.021-.134.09-.2.134a6.112,6.112,0,0,1,.2-2.1c-1.278.367-1.033,2.258-1.893,3.043.169.056.142.309.134.541.459.111.8,1.215.271,1.488.129.781.157,1.747-.541,1.893-.1.188.008.6-.338.541-.271.614-.084,1.357-.472,1.826.294.065.06.66.134.946a1.7,1.7,0,0,1,.743,1.421c0,.111.188.037.2.134-.309.547.248.545.541,1.014.269.43.537,1.434.743,1.758.011.017.182.046.2.067.342.355.224.718.609.745-.033.154-.134.345,0,.474h-.2c.161.392.069.511-.134.81.449.34.013.824-.338.946-.524-.33-.42-1.292-.745-1.826.029.48-.1.8-.405.946-.3-.494.077-1.21-.067-1.622-.463-.156-.762-.856-.812-1.014-.706.647.3,1.935.676,2.7.841.036.8,1.067.338,1.419-.1.081-.323-.025-.39.144.025-.146-.125-.117-.15-.211.146-.058.155-.248.134-.472-.372-.058-.184.445-.338.609-.177-.361.2-1.054-.2-1.286-.226.09.128.762-.2.745A2.31,2.31,0,0,0,5.326,59.1a2.073,2.073,0,0,1-.067,1.217c-.123-.4.052-1.039-.134-1.15a.782.782,0,0,1-.136.609c-.067-.052-.251-.324-.338-.134,1.227,1.906,2.937,3.329,3.517,5.882-.373.432-.013.9,0,1.488.084.094.33.029.338.2.363.774,1.607,1.561,1.15,2.5.079.01.192-.011.2.067a4.777,4.777,0,0,1,1.217,2.638c.031.672-.106,1.541-.067,2.163.052.106.215.1.2.271-.006.107-.173.054-.136.2.008.127.225.046.2.2.038,1.63.858,2.478,1.351,3.651.514,1.267,1.394,2.169,1.217,4.125a.34.34,0,0,1-.2.2c.313.491.017.854-.183,1.28.177-.025.273-.244.453-.063-.006.2-.025.38-.271.338-.011.213.179.226.134.472-.19-.056-.175.1-.338.069.138-.4.065-.369.006-.779a1.124,1.124,0,0,0-.006,1.05c.217.04.092-.244.271-.069-.209.28-.044.524,0,.879-.259-.035-.006.526,0,.879a.429.429,0,0,1-.338.067c-.2.8-.824,1.639-1.826,1.217.015-.24-.1-.353-.338-.338.186.457-.39.785,0,1.217-.472.159.238.885-.136.946.3.307.154,1.063.678,1.15-.013-.148.054-.215.2-.2a3.615,3.615,0,0,1,2.772,2.029c1.056-.157,1.564.931,2.571.812.011-.1-.025-.25.067-.271a.72.72,0,0,0,.676.338c.107-.05-.015-.33.2-.271v.2a5.219,5.219,0,0,1,2.367.338c-.019-.154.015-.253.134-.271.44-.079.482.24.812.271.121-.038.28-.035.338-.136-.382.111-.313-.47-.134-.539-.09.2,0,.269.2.338.081-.28.509-.234.609,0,.05-.207-.069-.246-.067-.407.353,0,.518-.3.743-.067-.194-.8.8-.829,1.286-1.15-.2-.8,1.29-.779,1.758-.405.14-.205.211-.33.539-.2.038-.119-.081-.4.069-.405.2.046.332.24.472,0-.094-.109-.323-.084-.271-.338a3.58,3.58,0,0,1,1.962-1.488c.251-.071.106.253.338.2.332-.424.816.115,1.217.067.609-.641,2.142-.369,2.839-.474.067-.069.134-.136.2-.2.77.035,1.332.426,2.029.338.182-.545,1,.081.676.474a2.985,2.985,0,0,0,.743-.069c-.085-.57.862-.317,1.016-.134-.019-.155.015-.255.134-.271.726.236,1.781-.611,1.893.474.566-.063.76-.76,1.421-.34a2.213,2.213,0,0,1,.743-.541c-.067-.63.455-.672.745-.946.01-.777.48-1.1.541-1.826.559-.658,1.864-.57,2.7-.946,1.108-.965,2.833-1.311,3.92-2.3,1.263-.3,2.209.426,3.72.134.015-.052,0-.132.067-.134a20.236,20.236,0,0,0,7.032-2.367,60.614,60.614,0,0,1,6.763-.338,2.562,2.562,0,0,1,.81-.474A9.4,9.4,0,0,1,72.2,82.292c.43.033.816-.117.979-.081-.042-.033-.036-.109-.032-.188a2.408,2.408,0,0,1,2.367.877,4.781,4.781,0,0,0,1.351,0c-.023-.154-.3-.064-.269-.269.37-.125.213.28.472.269.1-.15.1-.4.405-.338-.048.207.117.2.069.407.177-.019.338-.023.271.2.321-.173.708.376.539.678-.008-.083-.019-.161-.134-.136.031.173-.246.586.067.609a1.289,1.289,0,0,1,.879-.338.832.832,0,0,1,.2,1.353A.443.443,0,0,0,79.3,85h-.407c-.044.29.284.211.271.472.035.213-.336.025-.271.271.088.161.44.058.474.271-.075.025-.257.271-.067.338.2-.152.344.328.405.541.482-.2.872-.228,1.15.2.086-.267-.223-.138-.136-.405.117.109.418.033.474.2-.006.5.77.937.472,1.757.649.461,1.634.933,1.421,2.029.572.1.338,1.234.541,1.488.2-.217.169.275.348.334-.163,0-.2.121-.415.071-.025-.2-.28-.171-.2-.472-.167-.06-.367-.085-.405-.271-.14.177-.338.294-.338.609.372-.23.994-.088.81.405.691.008.68.718,1.15.946.29.067.119-.332.338-.338-.011.148.24.031.338.069.021.294.257.374.405.539.213-.259.038-.679.2-1.081-.294.023-.484.5-.81.271.207.05.081-.234.338-.136.013-.217-.121-.286-.069-.541.1-.025.115-.081.2,0-.075-.213-.006-.152,0-.405.226-.027.543-.278.676,0a1.3,1.3,0,0,0,0-.676c.271.067.2-.2.474-.136.175-.816.793-1.19,1.284-1.689.489.015.489-.457,1.014-.407-.008-.232.132-.319.2-.472.125.01.042.228.136.271,1.106-.225,1.388-1.271,1.622-2.367.361-.113.488-.457.676-.743.271-.067.2.2.474.134.171-.426-.117-1.182,0-1.691a6.792,6.792,0,0,0,.472.745c-.24.674.4.983.474,1.555-.551-.077-.67.278-.879.541.424.226.342.589.472,1.15A6.043,6.043,0,0,0,91.2,90.137c.2-.069.119.15.134.269-.177.05-.23.221-.405.271.367.334-.069,1.063,0,1.284.015-.052,0-.132.067-.134.113.637.211,1.7-.338,2.029-.251-.545-.875.079-1.217-.271-.426.273-.163.756-.338,1.083-.119.219-.463.054-.405.405.058.1.1.213.269.2a.982.982,0,0,1,1.083-.271c-.033-.438.632-.182.676-.541a1.5,1.5,0,0,1,.946.269c.551-.232.271-.656.474-1.215.668-.415-.006-1.758.81-2.029a1.12,1.12,0,0,1,.2-.879c.618.735.812,1.893,1.624,2.434-.138.111-.177.319-.271.474.169.1.392.846,0,.877.219,1.394-.966,1.38-1.286,2.233a.474.474,0,0,1,.2.134c.459.017.981-.217,1.353-.067.8-1.29,2.1.438,2.839.609.038.708,1,.513.879,1.217-.061-.211-.344-.553-.474-.472.276.181.394.626.676.609-.081.762,1.28,2.019.611,3.177a.477.477,0,0,0-.474.271c.188.217.3.507.474.743.048.184-.319-.048-.271.136.367.447.538,1.363,1.217,1.284a8.035,8.035,0,0,0,.946,1.351c.123-.307-.359-.355-.136-.539.363.079.369.6.271.946.86.95,3.521.211,3.45,1.96.466-.271.507.242,1.014.069.05-.207-.117-.2-.067-.407,1.054-.764,1.709.875,2.7.2a.341.341,0,0,1,.2.2c.607-.152.806.516,1.217.743.537.3,1.309.177,1.691.743.572-.3.589.415,1.15.34.094-.042.01-.261.134-.271,1.353-.528,1.881-2.208,3.72-2.029a.316.316,0,0,1,.269-.472c-.023-.2-.18-.271-.338-.34a.7.7,0,0,1-.946.136v-.2c.181,0,.386-.025.474.067.184-.513.983-.415,1.15-.946.249.048.29-.115.539-.067a.852.852,0,0,0,.2.676c.015-.052,0-.132.067-.134.042.273.3.328.2.743-.434.384-.837,1.284-1.555.609.077.42.658.332.743.745h.474c.063-.275.278-.4.676-.338-.334-.923,1.348-1.111,1.15,0h-.407c.067.292-.075.374-.134.539a.832.832,0,0,1,.676.541c.829-.244,1,.394,1.217.946.324.077.238-.257.407-.338.743.067.868.754,1.148,1.284.566-.109.557-1.2.271-1.419a.506.506,0,0,1-.541.405c.033-.347-.3-.33-.269-.676.18-.1.4.04.539-.2.15.18.7.762.879.271-.219,0-.365.142-.405-.134.338.067.372-.169.609-.2.021.09.1.129.067.271,1.482-.707,2.267-2.106,3.651-2.908.058-.371.14-.33-.067-.676.253-.006.547-.052.474.271-.019.138-.253.063-.271.2,1.86-.883,3.918-.662,6.22-.745a.624.624,0,0,1,.609-.338c.128-.3.374-.535.405-.745.1.328.349-.192.541.136a2.7,2.7,0,0,0,.067-1.284c.163-.029.148.123.338.067a.7.7,0,0,0-.539-.676c-.013-.148.056-.215.2-.2-.232-1.09.466-2.235.745-3.246a.831.831,0,0,1,.067-1.081c-.163-.213-.065-.741.2-.745.056-.177-.205-.371,0-.472-.01.121.067.157.2.134a10.354,10.354,0,0,0,.338-1.15c.052-.117.282-.156.338-.269.132-.273.006-.511.134-.678.276-.357.774.079.879-.405-.309.125-.349-.367-.2-.474h.2V94.4c.25.048.3-.106.271-.338-.357,0-.319-.4-.338-.743.361-.219.419-.561.405-1.014-.119-.015-.338.067-.271-.136.121-.207.286-.113.407-.2a1.3,1.3,0,0,1,.879-1.351c0-.4-.129-.609.134-.812-.012.192.192.171.271.271,0-.179-.025-.386.067-.472-.213.01-.407,0-.472-.136.549.228.693-1.065.472-.743-.04-.121.2-.28,0-.338-.008.083-.019.159-.134.134.056-.192-.1-.175-.069-.338.213.284.307-.128.609.067.134-.183.161-.47.34-.609.027-.161-.309.038-.2-.2,0-.386.426-.163.474-.2.011-.474.752-1.119.743-1.622a5.877,5.877,0,0,0,1.488-.541c-.29-.207-.812.194-.879-.271a2.315,2.315,0,0,0,.879.067c-.077-.369.351-.234.405-.474-.119-.015-.338.069-.271-.134.228-.088.3-.336.407-.541.1.037.349-.079.338.067v.2c-.271,0-.507.036-.474.338.232-.128.394-.328.745-.338-.159-.267.065-.326.134-.541a.39.39,0,0,0-.271.067c-.034-.146-.163-.436.067-.472-.011.259.056.025.2.067-.461-.5.109-1.317.609-1.488-.058-.409.415-.582,0-.609a.974.974,0,0,1,.405-.271c-.154-.524.543-.576.136-.946.467-.186.134-1.173.676-1.284-.246-.244-.067-.459.067-.676-.806-.695.021-2.258.407-2.839,0-.962.461-1.772.47-2.567-.035.077-.131.09-.2.13,0-.067-.056-.079-.069-.134-.019-.179.142-.175.271-.2.052-.23-.274-.087-.2-.338.09-.165.251.075.271-.067-.155-.53.561-1.05.269-1.42.422.084.251-.426.609-.405-.052-.392.1-.578.069-.946M16.145,93.787c.04-.215-.127-.207,0-.338.192.079.271.271.474.338-.059.261-.273-.011-.474,0M57.662,20.018a4.93,4.93,0,0,1,0-1.014c.294.3.144.649,0,1.014M69.022,9c.079-.269-.315-.81.134-.812-.374.1.207.384-.134.405.211.106.232.4.338.609-.159-.021-.127-.234-.338-.2m30.36,94.054c.2.39.611.56.676,1.083a1.488,1.488,0,0,1-.676-1.083m3.11-75.189c-.188-.086.083-.271.134-.338.219.128.044.259.2.472-.148.023-.273-.5-.338-.134m9.8,79.044c.058.215-.058.255-.134.338-.011.148.056.215.2.2,0,.134-.184.085-.136.269a.632.632,0,0,1-.4-.676c.021-.092.169-.056.271-.067.134-.361-.29-.161-.2-.472a2.39,2.39,0,0,1,.676.269.16.16,0,0,1-.271.136m11.562-72.418a.382.382,0,0,0,.069-.271c.025.155.3.063.271.271Zm2.436,72.418c-.365-.023-.441.167-.676-.067.092-.351.328-.152.607-.271a.437.437,0,0,1,.069.338m.2-.271c-.029-.276.461-.036.474-.271.24-.058-.351.474-.474.271m11.293-11.967a.318.318,0,0,1-.271-.273c.158.025.317.044.271.273m3.244-7.913c-.148-.008-.029-.286-.067-.405.1.1.215.052.2-.134h.2c.029.321-.167.417-.338.539m5.139-13.793c-.1.111.119-.53.474-.407-.083.211-.445.142-.474.407m.338-.474c.071-.261-.035-.278.069-.472.251.134.5-.15.539.2-.328-.035-.4.188-.609.271" transform="translate(-3.816 -2.167)" fill="#f5f5f5" stroke="rgba(1,61,68,0.13)" stroke-width="1"/>
    <path id="Path_17009" data-name="Path 17009" d="M800.038,390.867a.2.2,0,0,0,0-.139c0,.046,0,.092,0,.139" transform="translate(-656.467 -320.61)" fill="#f5f5f5" stroke="rgba(1,61,68,0.13)" stroke-width="1"/>
    <path id="Path_17010" data-name="Path 17010" d="M53.635,458.911c0,.012,0,.02.005.032l.017-.036c-.007,0-.014,0-.022,0" transform="translate(-44.01 -376.554)" fill="#f5f5f5" stroke="rgba(1,61,68,0.13)" stroke-width="1"/>
    <path id="Path_17011" data-name="Path 17011" d="M471.617,40.116a.187.187,0,0,0,.045,0,.124.124,0,0,1-.012-.043c-.012.013-.022.027-.033.04" transform="translate(-386.983 -32.884)" fill="#f5f5f5" stroke="rgba(1,61,68,0.13)" stroke-width="1"/>
    <path id="Path_17012" data-name="Path 17012" d="M449.484,24.139c.053-.015.134,0,.135-.068-.207-.049-.2.117-.406.068,0,.785-1.042.416-1.082,1.014a1.911,1.911,0,0,0,1.352-1.014" transform="translate(-367.712 -19.744)" fill="#f5f5f5" stroke="rgba(1,61,68,0.13)" stroke-width="1"/>
    <path id="Path_17013" data-name="Path 17013" d="M754.491,264.591a.579.579,0,0,0,.406-.068c.08.167.115.38.338.405-.166-.5-.726-.845-.609-1.42-.227.2-.5-.128-.743-.135-.246.6.606.647.608,1.217" transform="translate(-618.558 -216.11)" fill="#f5f5f5" stroke="rgba(1,61,68,0.13)" stroke-width="1"/>
    <path id="Path_17014" data-name="Path 17014" d="M340.205,14.75c.094-.042.01-.261.135-.271.324.261.884.287,1.082.676.58-.39,1.324-.615,1.623-1.285-.068.2.151.12.271.135-.1-.42.187-.444.27-.676a.626.626,0,0,1-.338-.609c-.471.138-.334-.162-.744-.27-.186.016-.072.333-.2.406a.3.3,0,0,0-.27-.135c-.083.12-.21.2-.27.338-.28.054-.206-.246-.474-.2-.152.231-.545.221-.743.405.1,0,.34.188.135.271-.1-.122-.244-.207-.2-.473-.267-.087-.163.2-.338.2-.17-.169.078-.265.068-.473-.616.188-.344-.512-.879-.406a10.5,10.5,0,0,1,.473,1.758c.271-.064.555.206.406.338-.061-.248-.486-.2-.541-.27a11.754,11.754,0,0,0-.338-1.285,1.7,1.7,0,0,0-.676.473c.156.24.152.781.406.946-.279-.275-.487.162-.744-.135.1.328-.2.254-.2.473a6.165,6.165,0,0,1,2.1.068" transform="translate(-277.434 -10.152)" fill="#f5f5f5" stroke="rgba(1,61,68,0.13)" stroke-width="1"/>
    <path id="Path_17015" data-name="Path 17015" d="M465.6,25c.146-.191.219-.457.473-.541-.44-.068-.625.4-.473.541" transform="translate(-382.004 -20.066)" fill="#f5f5f5" stroke="rgba(1,61,68,0.13)" stroke-width="1"/>
    <path id="Path_17016" data-name="Path 17016" d="M357.7,29.854c.289-.157.345.2.473-.068-.167.053-.468-.245-.473.068" transform="translate(-293.511 -24.377)" fill="#f5f5f5" stroke="rgba(1,61,68,0.13)" stroke-width="1"/>
    <path id="Path_17017" data-name="Path 17017" d="M225.275,95.115a.317.317,0,0,0-.067-.2c.159,0,.2-.117.406-.068-.011-.1.024-.249-.068-.27-.039.254-.446.14-.473.406.218-.138.1.384.2.135" transform="translate(-184.682 -77.602)" fill="#f5f5f5" stroke="rgba(1,61,68,0.13)" stroke-width="1"/>
    <path id="Path_17018" data-name="Path 17018" d="M223.219,95.44c.068-.2-.151-.12-.271-.135-.008.083-.02.16-.135.135.009.317.153-.138.405,0" transform="translate(-182.828 -78.198)" fill="#f5f5f5" stroke="rgba(1,61,68,0.13)" stroke-width="1"/>
    <path id="Path_17019" data-name="Path 17019" d="M206.122,120.388c-.123-.124.061-.476-.067-.338-.027.116-.088-.014-.2,0-.014.217.113.293.27.338" transform="translate(-168.909 -98.481)" fill="#f5f5f5" stroke="rgba(1,61,68,0.13)" stroke-width="1"/>
    <path id="Path_17020" data-name="Path 17020" d="M664.1,162c.126.027.5.065.2.27.218-.038.34.02.405.136.177-.323-.444-.425-.541-.473-.03-.128.092-.408-.135-.338,0,.159.117.2.068.406" transform="translate(-544.868 -132.584)" fill="#f5f5f5" stroke="rgba(1,61,68,0.13)" stroke-width="1"/>
    <path id="Path_17021" data-name="Path 17021" d="M712.155,192.258c-.034.169-.179.226-.2.406.391-.031.092.208.068.338.295.022.165-.381.522-.3-.255-.122-.306-.633-.522-.92a.549.549,0,0,0-.135.406c.1.011.249-.024.27.068" transform="translate(-584.134 -157.368)" fill="#f5f5f5" stroke="rgba(1,61,68,0.13)" stroke-width="1"/>
    <path id="Path_17022" data-name="Path 17022" d="M27.3,224.564c-.127.08-.566.2-.338.406.089-.159.291-.2.338-.406" transform="translate(-22.072 -184.265)" fill="#f5f5f5" stroke="rgba(1,61,68,0.13)" stroke-width="1"/>
    <path id="Path_17023" data-name="Path 17023" d="M800.756,339.515c-.235-.418.07-.876.136-1.217-.191-.056-.175.1-.339.068-.116.4-.05,1.087.2,1.149" transform="translate(-656.844 -277.578)" fill="#f5f5f5" stroke="rgba(1,61,68,0.13)" stroke-width="1"/>
    <path id="Path_17024" data-name="Path 17024" d="M691.137,632.695c-.019.154.017.254.136.271.075-.046.268-.307.135-.339-.013.1-.163.062-.271.068" transform="translate(-567.105 -519.099)" fill="#f5f5f5" stroke="rgba(1,61,68,0.13)" stroke-width="1"/>
    <path id="Path_17025" data-name="Path 17025" d="M640.43,648.065c.158-1.188-.2-2.259.2-3.449-.468.013-.285-.965,0-1.014a1.833,1.833,0,0,0-1.352-1.15c-.049.335-.292.475-.541.609-.275-.063-.365-.311-.744-.27-.106.345-.25.652-.609.744-.177-.049-.207-.244-.405-.271-.029.325-.025-.08-.2,0-.289.584-.98.1-1.555.473-.146.464.709.281.405.676-.273-.215-.08-.124-.405,0-.057-.146-.175-.23-.135-.473-.447-.211-.551.355-.743.609a.552.552,0,0,1-.135-.406c-.176.05-.4.054-.473.2-.854-.3-1.927-.372-2.367-1.082-.362,0-.706-.015-.744-.338-.294.093-.377-.02-.743,0a.254.254,0,0,0-.271-.271,2,2,0,0,1-1.826-.609c-.075.105-.219.141-.2.338a.553.553,0,0,1,.2.609c-.778.393-.035,1.584.2,2.164-.157.57.575.756.474,1.488.587.511,1.4,1.1,1.217,2.164.245.065.057-.3.27-.27a1.5,1.5,0,0,0,.744.879c.052.38-.223.175-.338.271-.156-.431-.791-.741-.947-.947.035.527.495,1.309.271,1.826.62.147.517,1.016.811,1.488.871.008.879,1.239,1.42,1.352-.144-.208-.015-.027.135,0,.038-.119-.082-.4.067-.406.173.008.134.226.135.406.331.173.678-.141.946.2-.078.011-.073.107-.067.2a1.988,1.988,0,0,1-.879-.2,1.584,1.584,0,0,0,.339.879c.222-.327.389.022.676-.2.167.26.667.07,1.149.136.12.477.861.474,1.217.271a.3.3,0,0,1-.135-.271c.3.1.158-.384.406-.136.057-.418,0-.672.2-.946-.026-.266-.37-.215-.405-.473.156-.025.065-.3.271-.271.034.213-.148.265,0,.406.208.051.082-.233.338-.135-.04.243.079.327.135.473.664-.017.224-.838.473-1.149a.187.187,0,0,0,.135.2c.135-.654-.2-.836-.271-1.285-.231-.029-.2.2-.338.271-.112-.3-.879-.292-.676-.676.2.658.887.056,1.285.405-.231.388.363.561.473.609-.068.252.039.675.27.406-.128-.224-.3-.451-.067-.676-.234.009-.393-.058-.339-.338a1.26,1.26,0,0,0,.541.068c.039.142.168.193.135.406a1.953,1.953,0,0,0,.744.068c-.039.245.2.561,0,.744-.393-.028-.295-.37-.473-.473a.441.441,0,0,1-.338.27c.256.308.3.825.744.947.159-.089.191-.305.27-.474V653c.191-.056.175.1.338.068a1.037,1.037,0,0,0-.135-.812c.021-.16.235-.126.2-.338-.028-.179-.237-.525-.406-.338.083.008.16.02.135.136a.329.329,0,0,1-.338-.136c.244-.525.672-.927.2-1.487a.476.476,0,0,0,.406,0,4.7,4.7,0,0,1,.473-2.231c.354.092.191-.161.27-.2,0,.134.185.086.135.271-.128.076-.311.095-.339.27.266-.041.352.1.474.2-.076.408.031.64-.135.878h.338c-.1-.4.056-.6.068-1.014a1.147,1.147,0,0,1-.27-.2" transform="translate(-514.842 -526.828)" fill="#f5f5f5" stroke="rgba(1,61,68,0.13)" stroke-width="1"/>
  </g>
</svg>