<svg viewBox="0 0 721.81 738.4" xmlns="http://www.w3.org/2000/svg"><path d="m41.91 249.86c53.6-61.42 121.61-114.13 207.92-161.15a781 781 0 0 1 238.76-83.27c19.86-3.5 40.5-6.23 61.08-5.23a138.58 138.58 0 0 1 41 7.92c54.21 19.74 88.18 57.32 103.86 114.87 27.96 102.66 34.47 211 19.34 322-11.58 85-34.39 160-69.71 229.13-23.16 45.35-59.62 66.34-111.47 64.15-45.75-1.91-92.59-12.49-147.44-33.26-86.49-32.74-158-74.15-225-130.3l-.08-.08c-41.35-33.24-86.73-80.64-127.74-133.52-46.38-59.81-42.84-131.31 9.48-191.26z" fill="#014750" fill-rule="evenodd"/></svg>