<svg height="40" viewBox="0 0 160 40" width="160" xmlns="http://www.w3.org/2000/svg" xmlns:xlink="http://www.w3.org/1999/xlink"><linearGradient id="a" x1="50%" x2="50%" y1="0%" y2="100%"><stop offset="0" stop-color="#f452ff"/><stop offset="1" stop-color="#832bc1"/></linearGradient><g fill="none" fill-rule="evenodd"><rect fill="#000" height="40" rx="7" width="160"/><g transform="translate(9 7)"><path d="m24.2135577 21.3731731c-.2351923.5974038-.7778846 1.4385577-1.5475 2.0310577-.4443269.3422115-.9748077.6693269-1.7034615.8851923-.7767308.2301923-1.7334616.3079807-2.9242308.3079807h-10.88778848c-1.19067307 0-2.14740384-.0777884-2.92423077-.3079807-.72865384-.2158654-1.25903846-.5429808-1.70346153-.8851923-.76951924-.5925962-1.3123077-1.4336539-1.5475-2.0310577-.47375001-1.2036539-.4785577-2.5693269-.4785577-3.4294231v-10.88788462c0-.86009615.00480769-2.22576923.4785577-3.42942307.2351923-.59740385.77788461-1.43855769 1.5475-2.03105769.44432692-.34221154.97480769-.66932693 1.70346153-.88519231.77673077-.23019231 1.73346154-.30798077 2.92423077-.30798077h10.88788458c1.1906731 0 2.1474039.07778846 2.9242308.30798077.7286539.21586538 1.2590385.54307692 1.7034615.88519231.7695193.59259615 1.3123077 1.43365384 1.5475 2.03105769.47375 1.20365384.4785577 2.56932692.4785577 3.42942307v10.88788462c0 .86-.0049038 2.2256731-.4786538 3.4294231z" fill="url(#a)"/><path d="m24.2135577 21.3731731c-.2351923.5974038-.7778846 1.4385577-1.5475 2.0310577-.4443269.3422115-.9748077.6693269-1.7034615.8851923-.7767308.2301923-1.7334616.3079807-2.9242308.3079807h-10.88778848c-1.19067307 0-2.14740384-.0777884-2.92423077-.3079807-.72865384-.2158654-1.25903846-.5429808-1.70346153-.8851923-.76951924-.5925962-1.3123077-1.4336539-1.5475-2.0310577-.47375001-1.2036539-.4785577-2.5693269-.4785577-3.4294231v-10.88788462c0-.86009615.00480769-2.22576923.4785577-3.42942307.2351923-.59740385.77788461-1.43855769 1.5475-2.03105769.44432692-.34221154.97480769-.66932693 1.70346153-.88519231.77673077-.23019231 1.73346154-.30798077 2.92423077-.30798077h10.88788458c1.1906731 0 2.1474039.07778846 2.9242308.30798077.7286539.21586538 1.2590385.54307692 1.7034615.88519231.7695193.59259615 1.3123077 1.43365384 1.5475 2.03105769.47375 1.20365384.4785577 2.56932692.4785577 3.42942307v10.88788462c0 .86-.0049038 2.2256731-.4786538 3.4294231z"/><path d="m10.5030769 11.4245192c-.3630769-.3830769-1.00076921-.6286538-1.75355767-.6286538-.75288461 0-1.39057692.2455769-1.75365385.6286538-.18942307.1999039-.28961538.4048077-.32115384.6967308-.06115385.5652885-.02682692 1.0520192.03942308 1.8301923.06307692.7415385.18288461 1.7303846.33923076 2.7375.11125.7167308.20163462 1.1035577.28394231 1.3805769.13346154.4489423.63221154.8415385 1.41221154.8415385.77990385 0 1.27865387-.3926923 1.41211537-.8415385.0823077-.2770192.1726923-.6638461.2839423-1.3805769.1563462-1.0071154.2761539-1.9959615.3392308-2.7375.06625-.7782692.1005769-1.265.0394231-1.8301923-.0315385-.2918269-.1317308-.4968269-.3211539-.6967308zm-3.7318269-3.41086535c0 1.09355769.88653846 1.98009615 1.98009615 1.98009615 1.09365385 0 1.98019235-.88653846 1.98019235-1.98009615 0-1.09365385-.8865385-1.98019231-1.98019235-1.98019231-1.09355769 0-1.98009615.88653846-1.98009615 1.98019231zm1.95557692-7.81445853c-4.63105769.01320853-8.42576923 3.77022776-8.48307692 8.40099699-.04653846 3.75124999 2.34807692 6.96009619 5.69182692 8.13624999.08115385.0285577.1635577-.0388461.15076923-.1239423-.04384615-.29125-.0851923-.5839423-.12317307-.8717308-.01346154-.1017307-.07826923-.189423-.17221154-.2304807-2.64288462-1.1546154-4.48836539-3.8051923-4.45875-6.87548081.03884615-4.02923077 3.32903846-7.31403846 7.35826923-7.34663461 4.11913463-.03326923 7.48076923 3.30788461 7.48076923 7.41942307 0 3.03951925-1.8374038 5.65759615-4.4597115 6.80298075-.0939423.0410577-.1583654.1290385-.1717308.2306731-.0379808.2876923-.0793269.5802885-.1230769.87125-.0128846.0850962.0695192.1525.150673.1240385 3.311827-1.1649039 5.6925-4.3238462 5.6925-8.02884619-.0001923-4.69990385-3.8302884-8.52192308-8.53307688-8.50849699zm-.15375 3.90340083c2.62528848-.10163461 4.79336538 2.00451923 4.79336538 4.60759616 0 1.32384619-.5608654 2.51903849-1.4573077 3.36076919-.0760577.0713462-.1169231.1726923-.1110577.276827.0178846.3166346.0113462.6243269-.0097115.9718269-.0056731.0925961.0981731.1517308.1748077.0995192 1.5032692-1.0273077 2.4920192-2.7547115 2.4920192-4.70894229 0-3.21769231-2.6801923-5.82125-5.92528845-5.69548077-3.01576923.11692308-5.43528847 2.60336538-5.47394231 5.62125-.02538462 1.98480766.96942308 3.74317306 2.49201923 4.78336536.07644231.0522116.18-.0070192.17432692-.0995192-.02115384-.3476923-.02759615-.6553846-.00980769-.9720192.00586538-.1040385-.03490385-.2053847-.11076923-.2766347-.92442308-.8678846-1.49211539-2.11163457-1.45596154-3.48471149.06365385-2.41634616 2.01182692-4.39028846 4.42730769-4.48384616z" fill="#fff" fill-rule="nonzero" transform="translate(3.846154 2.884615)"/></g><g fill="#fff" fill-rule="nonzero"><path d="m43 14.8958032v-5.79160638h.9101895v5.02749638h2.7578743v.76411zm5.0087195-4.89725038c-.2821588 0-.52791-.2170767-.52791-.49493487 0-.27785818.2457512-.50361795.52791-.50361795.2912606 0 .5279099.22575977.5279099.50361795 0 .27785817-.2366493.49493487-.5279099.49493487zm-.4004834 4.89725038v-4.1939219h.8191705v4.1939219zm1.6956295-.5470333.3913815-.5730825c.3003626.3125905.8828839.5991317 1.4745071.5991317.6189289 0 .9465971-.2431259.9465971-.5991317 0-.4167873-.5006043-.5557163-1.0649218-.6772793-.7463554-.1649783-1.6201373-.3560058-1.6201373-1.2590449 0-.6685962.6007251-1.2416787 1.6747487-1.2416787.7554573 0 1.301571.2604921 1.6747487.5991317l-.3640758.5470333c-.254853-.2952243-.7463554-.512301-1.301571-.512301s-.9010876.2083936-.9010876.5470333c0 .3646888.4732985.4862518 1.0194122.6078147.7645592.1649783 1.6747488.3646889 1.6747488 1.3285094 0 .7206947-.6189289 1.2850941-1.7748696 1.2850941-.7372535 0-1.3834881-.2170767-1.829481-.6512301zm5.8096863.6512301c-.6917441 0-1.046718-.3733719-1.046718-1.0332851v-2.5788712h-.7281516v-.6859624h.7281516v-1.14616495h.8191706v1.14616495h.8919857v.6859624h-.8919857v2.4052098c0 .2952244.1456303.5123011.4277891.5123011.1911398 0 .3640758-.0781477.4459928-.1649783l.2093436.5904486c-.172936.1562952-.427789.2691751-.8555781.2691751zm1.2587386-2.2054993c0-1.2156295.9192914-2.1968162 2.2026586-2.1968162 1.3197749 0 2.1389454.9811867 2.1389454 2.2662808v.1910275h-3.476924c.0637133.7120115.609827 1.3024602 1.4927109 1.3024602.4641966 0 .9739028-.1736614 1.301571-.4949349l.3822796.512301c-.436891.4081042-1.0558199.6251809-1.7657677.6251809-1.3106729 0-2.2754738-.8856729-2.2754738-2.2054993zm2.2026586-1.5542692c-.8828838 0-1.301571.6772794-1.3470805 1.2503618h2.6850592c-.0182038-.5557163-.4095853-1.2503618-1.3379787-1.2503618zm6.091845 3.6555717v-2.683068c0-.6946455-.3731777-.9204052-.9374952-.9204052-.5097061 0-.9739028.2952243-1.2105521.6078147v2.9956585h-.8191705v-4.1939219h.8191705v.5904487c.2912607-.3386397.873782-.6946455 1.5564241-.6946455.9283934 0 1.4107938.4688857 1.4107938 1.3545586v2.9435601zm6.3311714.1041968c-1.3652843 0-2.2208625-.9898698-2.2208625-2.2054993 0-1.2069464.8555782-2.1968162 2.2208625-2.1968162 1.3743862 0 2.2208624.9898698 2.2208624 2.1968162 0 1.2156295-.8464762 2.2054993-2.2208624 2.2054993zm0-.6946454c.8828838 0 1.3652843-.7120116 1.3652843-1.5108539 0-.7901592-.4824005-1.5021707-1.3652843-1.5021707-.873782 0-1.3652843.7120115-1.3652843 1.5021707 0 .7988423.4915023 1.5108539 1.3652843 1.5108539zm6.1828639.5904486v-2.683068c0-.6946455-.3731777-.9204052-.9374952-.9204052-.5097061 0-.9739028.2952243-1.2105521.6078147v2.9956585h-.8191706v-4.1939219h.8191706v.5904487c.2912607-.3386397.873782-.6946455 1.5564241-.6946455.9283933 0 1.4107938.4688857 1.4107938 1.3545586v2.9435601z"/><path d="m45.0234375 31 1.03125-3.046875h4.296875l1.03125 3.046875h1.8515625l-4.0703125-11.2734375h-1.890625l-4.0703125 11.2734375zm4.8828125-4.453125h-3.40625l1.6796875-4.9453125h.046875zm6.0546875 7.171875v-4.0703125h.0390625c.46875.9140625 1.40625 1.4921875 2.5859375 1.4921875 2.0625 0 3.4296875-1.6484375 3.4296875-4.25s-1.375-4.2421875-3.4609375-4.2421875c-1.1875 0-2.1328125.6015625-2.6171875 1.546875h-.03125v-1.4140625h-1.6328125v10.9375zm2.1484375-4.0078125c-1.296875 0-2.15625-1.109375-2.15625-2.8203125 0-1.6953125.8671875-2.8203125 2.15625-2.8203125 1.3359375 0 2.171875 1.1015625 2.171875 2.8203125 0 1.7265625-.8359375 2.8203125-2.171875 2.8203125zm6.890625 4.0078125v-4.0703125h.0390625c.46875.9140625 1.40625 1.4921875 2.5859375 1.4921875 2.0625 0 3.4296875-1.6484375 3.4296875-4.25s-1.375-4.2421875-3.4609375-4.2421875c-1.1875 0-2.1328125.6015625-2.6171875 1.546875h-.03125v-1.4140625h-1.6328125v10.9375zm2.1484375-4.0078125c-1.296875 0-2.15625-1.109375-2.15625-2.8203125 0-1.6953125.8671875-2.8203125 2.15625-2.8203125 1.3359375 0 2.171875 1.1015625 2.171875 2.8203125 0 1.7265625-.8359375 2.8203125-2.171875 2.8203125zm6.953125 1.2890625v-11.2734375h-1.6875v11.2734375zm5.2421875.15625c1.8828125 0 3.3046875-1.0703125 3.5390625-2.5703125h-1.6015625c-.2265625.71875-.9375 1.203125-1.8984375 1.203125-1.3515625 0-2.2109375-.9453125-2.2109375-2.375v-.1015625h5.8046875v-.578125c0-2.4921875-1.421875-4.1015625-3.703125-4.1015625-2.3203125 0-3.8046875 1.71875-3.8046875 4.296875 0 2.59375 1.4609375 4.2265625 3.875 4.2265625zm1.9453125-5.0234375h-4.109375c.0859375-1.2421875.9140625-2.140625 2.09375-2.140625s1.9765625.8828125 2.015625 2.140625zm8.1875 4.8671875v-3.8515625h2.421875c2.2109375 0 3.765625-1.515625 3.765625-3.71875 0-2.1953125-1.5234375-3.703125-3.7109375-3.703125h-4.2265625v11.2734375zm2.0078125-5.3203125h-2.0078125v-4.4765625h2.015625c1.515625 0 2.3828125.8125 2.3828125 2.234375s-.8671875 2.2421875-2.390625 2.2421875zm9.039063 5.4765625c2.351562 0 3.898437-1.6171875 3.898437-4.265625 0-2.640625-1.554687-4.2578125-3.898437-4.2578125-2.3437505 0-3.898438 1.6171875-3.898438 4.2578125 0 2.6484375 1.546875 4.265625 3.898438 4.265625zm0-1.390625c-1.320313 0-2.179688-1.046875-2.179688-2.875 0-1.8203125.859375-2.8671875 2.179688-2.8671875 1.320312 0 2.179687 1.046875 2.179687 2.8671875 0 1.828125-.851563 2.875-2.179687 2.875zm8.289062 1.375c1.195312 0 2.132812-.6015625 2.617188-1.5390625h.03125v1.3984375h1.640624v-11.2734375h-1.695312v4.421875h-.03125c-.460938-.90625-1.398438-1.5-2.578125-1.5-2.0625 0-3.4375 1.6484375-3.4375 4.2421875s1.375 4.25 3.453125 4.25zm.445312-1.4296875c-1.335937 0-2.171874-1.0859375-2.171874-2.8203125 0-1.7265625.835937-2.8203125 2.171874-2.8203125 1.296876 0 2.164063 1.1171875 2.164063 2.8203125 0 1.71875-.867187 2.8203125-2.164063 2.8203125zm9.085938 1.4453125c1.976562 0 3.375-1.1875 3.554688-2.9375h-1.625c-.195313.953125-.875 1.5234375-1.914063 1.5234375-1.3125 0-2.179687-1.046875-2.179687-2.8515625 0-1.765625.859374-2.8515625 2.164062-2.8515625 1.101562 0 1.757812.6953125 1.929688 1.5703125h1.609374c-.148437-1.6171875-1.4375-2.9765625-3.554687-2.9765625-2.335937 0-3.867187 1.6484375-3.867187 4.2578125 0 2.65625 1.53125 4.265625 3.882812 4.265625zm7.15625-.015625c1.078125 0 2.117188-.578125 2.59375-1.4921875h.039062v1.3515625h1.617188v-5.6640625c0-1.6484375-1.273438-2.703125-3.265625-2.703125-2.03125 0-3.296875 1.09375-3.390625 2.578125h1.59375c.148438-.734375.757812-1.203125 1.734375-1.203125 1.03125 0 1.648437.546875 1.648437 1.4609375v.6328125l-2.25.1328125c-1.953124.109375-3.054687.9921875-3.054687 2.4296875 0 1.4765625 1.125 2.4765625 2.734375 2.4765625zm.46875-1.3359375c-.90625 0-1.5-.46875-1.5-1.1875 0-.703125.570312-1.1484375 1.578125-1.21875l2.023437-.125v.6484375c0 1.0703125-.921874 1.8828125-2.101562 1.8828125zm8.5 1.3515625c1.9375 0 3.335938-1.03125 3.335938-2.53125 0-1.1875-.640626-1.84375-2.320313-2.234375l-1.335937-.3046875c-.890626-.203125-1.265626-.5546875-1.265626-1.0703125 0-.65625.609376-1.1015625 1.523438-1.1015625.945312 0 1.53125.5 1.625 1.296875h1.585938c-.054688-1.515625-1.296876-2.578125-3.210938-2.578125-1.890625 0-3.171875 1.0078125-3.171875 2.4765625 0 1.1953125.773437 1.9453125 2.335937 2.3046875l1.335938.3125c.898438.203125 1.203125.515625 1.203125 1.046875 0 .671875-.625 1.09375-1.640625 1.09375-1.03125 0-1.617188-.421875-1.773438-1.28125h-1.671874c.15625 1.5625 1.390624 2.5703125 3.445312 2.5703125zm7.445312-.1015625c.375 0 .75-.03125.9375-.078125v-1.3359375c-.109374.0234375-.382812.0390625-.554687.0390625-.6875 0-1-.3203125-1-1.03125v-4.53125h1.5625v-1.3359375h-1.5625v-1.9453125h-1.695313v1.9453125h-1.195312v1.3359375h1.195312v4.71875c0 1.5859375.648438 2.21875 2.3125 2.21875zm5.414063.1015625c1.9375 0 3.335937-1.03125 3.335937-2.53125 0-1.1875-.640624-1.84375-2.320312-2.234375l-1.335938-.3046875c-.890624-.203125-1.265624-.5546875-1.265624-1.0703125 0-.65625.609374-1.1015625 1.523437-1.1015625.945313 0 1.53125.5 1.625 1.296875h1.585937c-.054687-1.515625-1.296874-2.578125-3.210937-2.578125-1.890625 0-3.171875 1.0078125-3.171875 2.4765625 0 1.1953125.773438 1.9453125 2.335938 2.3046875l1.335937.3125c.898437.203125 1.203125.515625 1.203125 1.046875 0 .671875-.625 1.09375-1.640625 1.09375-1.03125 0-1.617187-.421875-1.773437-1.28125h-1.671876c.15625 1.5625 1.390626 2.5703125 3.445313 2.5703125z"/></g></g></svg>