<svg height="40" viewBox="0 0 160 40" width="160" xmlns="http://www.w3.org/2000/svg" xmlns:xlink="http://www.w3.org/1999/xlink"><mask id="a" fill="#fff"><path d="m.00457944.03877259h13.52667176v4.32276168h-13.52667176z" fill="#fff" fill-rule="evenodd"/></mask><g fill="none" fill-rule="evenodd"><rect fill="#000" height="40" rx="7" width="160"/><g fill="#fff"><path d="m43 14.8958032v-5.79160638h.9101895v5.02749638h2.7578743v.76411zm5.0087195-4.89725038c-.2821588 0-.52791-.2170767-.52791-.49493487 0-.27785818.2457512-.50361795.52791-.50361795.2912606 0 .5279099.22575977.5279099.50361795 0 .27785817-.2366493.49493487-.5279099.49493487zm-.4004834 4.89725038v-4.1939219h.8191705v4.1939219zm1.6956295-.5470333.3913815-.5730825c.3003626.3125905.8828839.5991317 1.4745071.5991317.6189289 0 .9465971-.2431259.9465971-.5991317 0-.4167873-.5006043-.5557163-1.0649218-.6772793-.7463554-.1649783-1.6201373-.3560058-1.6201373-1.2590449 0-.6685962.6007251-1.2416787 1.6747487-1.2416787.7554573 0 1.301571.2604921 1.6747487.5991317l-.3640758.5470333c-.254853-.2952243-.7463554-.512301-1.301571-.512301s-.9010876.2083936-.9010876.5470333c0 .3646888.4732985.4862518 1.0194122.6078147.7645592.1649783 1.6747488.3646889 1.6747488 1.3285094 0 .7206947-.6189289 1.2850941-1.7748696 1.2850941-.7372535 0-1.3834881-.2170767-1.829481-.6512301zm5.8096863.6512301c-.6917441 0-1.046718-.3733719-1.046718-1.0332851v-2.5788712h-.7281516v-.6859624h.7281516v-1.14616495h.8191706v1.14616495h.8919857v.6859624h-.8919857v2.4052098c0 .2952244.1456303.5123011.4277891.5123011.1911398 0 .3640758-.0781477.4459928-.1649783l.2093436.5904486c-.172936.1562952-.427789.2691751-.8555781.2691751zm1.2587386-2.2054993c0-1.2156295.9192914-2.1968162 2.2026586-2.1968162 1.3197749 0 2.1389454.9811867 2.1389454 2.2662808v.1910275h-3.476924c.0637133.7120115.609827 1.3024602 1.4927109 1.3024602.4641966 0 .9739028-.1736614 1.301571-.4949349l.3822796.512301c-.436891.4081042-1.0558199.6251809-1.7657677.6251809-1.3106729 0-2.2754738-.8856729-2.2754738-2.2054993zm2.2026586-1.5542692c-.8828838 0-1.301571.6772794-1.3470805 1.2503618h2.6850592c-.0182038-.5557163-.4095853-1.2503618-1.3379787-1.2503618zm6.091845 3.6555717v-2.683068c0-.6946455-.3731777-.9204052-.9374952-.9204052-.5097061 0-.9739028.2952243-1.2105521.6078147v2.9956585h-.8191705v-4.1939219h.8191705v.5904487c.2912607-.3386397.873782-.6946455 1.5564241-.6946455.9283934 0 1.4107938.4688857 1.4107938 1.3545586v2.9435601zm6.3311714.1041968c-1.3652843 0-2.2208625-.9898698-2.2208625-2.2054993 0-1.2069464.8555782-2.1968162 2.2208625-2.1968162 1.3743862 0 2.2208624.9898698 2.2208624 2.1968162 0 1.2156295-.8464762 2.2054993-2.2208624 2.2054993zm0-.6946454c.8828838 0 1.3652843-.7120116 1.3652843-1.5108539 0-.7901592-.4824005-1.5021707-1.3652843-1.5021707-.873782 0-1.3652843.7120115-1.3652843 1.5021707 0 .7988423.4915023 1.5108539 1.3652843 1.5108539zm6.1828639.5904486v-2.683068c0-.6946455-.3731777-.9204052-.9374952-.9204052-.5097061 0-.9739028.2952243-1.2105521.6078147v2.9956585h-.8191706v-4.1939219h.8191706v.5904487c.2912607-.3386397.873782-.6946455 1.5564241-.6946455.9283933 0 1.4107938.4688857 1.4107938 1.3545586v2.9435601z" fill-rule="nonzero"/><path d="m44.0234375 31 1.03125-3.046875h4.296875l1.03125 3.046875h1.8515625l-4.0703125-11.2734375h-1.890625l-4.0703125 11.2734375zm4.8828125-4.453125h-3.40625l1.6796875-4.9453125h.046875zm6.0546875 4.453125v-5.078125c0-1.0546875.7109375-1.8359375 1.7109375-1.8359375.953125 0 1.5546875.6015625 1.5546875 1.546875v5.3671875h1.65625v-5.1328125c0-1.0390625.6953125-1.78125 1.6953125-1.78125s1.5703125.609375 1.5703125 1.671875v5.2421875h1.6953125v-5.6484375c0-1.6328125-1.0625-2.7109375-2.6875-2.7109375-1.171875 0-2.140625.609375-2.5625 1.609375h-.0390625c-.328125-1.0234375-1.15625-1.609375-2.296875-1.609375-1.109375 0-1.96875.609375-2.3359375 1.5234375h-.0390625v-1.3828125h-1.609375v8.21875zm13.9140625.140625c1.078125 0 2.1171875-.578125 2.59375-1.4921875h.0390625v1.3515625h1.6171875v-5.6640625c0-1.6484375-1.2734375-2.703125-3.265625-2.703125-2.03125 0-3.296875 1.09375-3.390625 2.578125h1.59375c.1484375-.734375.7578125-1.203125 1.734375-1.203125 1.03125 0 1.6484375.546875 1.6484375 1.4609375v.6328125l-2.25.1328125c-1.953125.109375-3.0546875.9921875-3.0546875 2.4296875 0 1.4765625 1.125 2.4765625 2.734375 2.4765625zm.46875-1.3359375c-.90625 0-1.5-.46875-1.5-1.1875 0-.703125.5703125-1.1484375 1.578125-1.21875l2.0234375-.125v.6484375c0 1.0703125-.921875 1.8828125-2.1015625 1.8828125zm11.609375 1.1953125v-1.34375h-4.3203125v-.03125l4.2734375-5.6875v-1.15625h-6.2890625v1.34375h4.3515625v.03125l-4.3828125 5.7578125v1.0859375zm5.0390625.15625c2.3515625 0 3.8984375-1.6171875 3.8984375-4.265625 0-2.640625-1.5546875-4.2578125-3.8984375-4.2578125s-3.8984375 1.6171875-3.8984375 4.2578125c0 2.6484375 1.546875 4.265625 3.8984375 4.265625zm0-1.390625c-1.3203125 0-2.1796875-1.046875-2.1796875-2.875 0-1.8203125.859375-2.8671875 2.1796875-2.8671875s2.1796875 1.046875 2.1796875 2.8671875c0 1.828125-.8515625 2.875-2.1796875 2.875zm6.890625 1.234375v-4.7890625c0-1.2734375.765625-2.1171875 1.953125-2.1171875 1.171875 0 1.75.6796875 1.75 1.9140625v4.9921875h1.6953125v-5.3203125c0-1.8828125-1.0390625-3.0390625-2.8515625-3.0390625-1.265625 0-2.140625.578125-2.5859375 1.515625h-.0390625v-1.375h-1.609375v8.21875zm12.0624995 0v-8.296875h.054688l3.40625 8.296875h1.296875l3.398437-8.296875h.054688v8.296875h1.601562v-11.2734375h-2.03125l-3.640624 8.984375h-.0625l-3.648438-8.984375h-2.023438v11.2734375zm14.53125.1484375c1.257813 0 2.09375-.5546875 2.546876-1.5390625h.039062v1.390625h1.617188v-8.21875h-1.6875v4.7890625c0 1.28125-.734376 2.125-1.953126 2.125-1.164062 0-1.757812-.671875-1.757812-1.921875v-4.9921875h-1.6875v5.3203125c0 1.8828125 1.09375 3.046875 2.882812 3.046875zm8.953126.0078125c1.9375 0 3.335937-1.03125 3.335937-2.53125 0-1.1875-.640625-1.84375-2.320313-2.234375l-1.335937-.3046875c-.890625-.203125-1.265625-.5546875-1.265625-1.0703125 0-.65625.609375-1.1015625 1.523438-1.1015625.945312 0 1.53125.5 1.625 1.296875h1.585937c-.054687-1.515625-1.296875-2.578125-3.210937-2.578125-1.890626 0-3.171876 1.0078125-3.171876 2.4765625 0 1.1953125.773438 1.9453125 2.335938 2.3046875l1.335938.3125c.898437.203125 1.203124.515625 1.203124 1.046875 0 .671875-.625 1.09375-1.640624 1.09375-1.03125 0-1.617188-.421875-1.773438-1.28125h-1.671875c.15625 1.5625 1.390625 2.5703125 3.445313 2.5703125zm5.539062-9.703125c.539062 0 .96875-.4375.96875-.96875 0-.5390625-.429688-.96875-.96875-.96875s-.976562.4296875-.976562.96875c0 .53125.4375.96875.976562.96875zm.84375 9.546875v-8.21875h-1.6875v8.21875zm5.242188.15625c1.976562 0 3.375-1.1875 3.554687-2.9375h-1.625c-.195313.953125-.875 1.5234375-1.914063 1.5234375-1.3125 0-2.179687-1.046875-2.179687-2.8515625 0-1.765625.859375-2.8515625 2.164063-2.8515625 1.101562 0 1.757812.6953125 1.929687 1.5703125h1.609375c-.148438-1.6171875-1.4375-2.9765625-3.554688-2.9765625-2.335937 0-3.867187 1.6484375-3.867187 4.2578125 0 2.65625 1.53125 4.265625 3.882813 4.265625z" fill-rule="nonzero"/><g transform="translate(9 16)"><path d="m16.6166592 6.31916667c-.1686111.11222222-.42125.19652777-.7302778.19652777-.4773611 0-.9268055-.05611111-1.3761111-.19652777-.1123611-.02819445-.1966666-.05625-.2527778-.05625-.0843055 0-.1123611.05625-.1123611.16847222v.28097222c0 .08416667.0280556.14041667.0561111.19652778.0281945.02805555.0843056.08430555.1686112.11236111.4493055.19652778.9548611.28083333 1.5165277.28083333.5898611 0 1.0391667-.14041666 1.4043056-.42125.365-.28083333.5336111-.64597222.5336111-1.12333333 0-.33708333-.0843056-.58986111-.2527778-.81458333-.1684722-.19652778-.4494444-.39319445-.8426389-.53361111l-.7863889-.30888889c-.3088888-.11236111-.5336111-.22472223-.6177777-.33708334-.1123611-.11222222-.1684723-.22458333-.1684723-.42125 0-.42125.3088889-.64597222.9548612-.64597222.3651388 0 .7301388.05625 1.0672222.16861111.1123611.02805556.1965278.05611111.2245833.05611111.0843056 0 .1404167-.05611111.1404167-.16847222v-.28083333c0-.08430556-.0280556-.14041667-.0561111-.19666667-.0280556-.05611111-.0843056-.08416667-.1684723-.11236111-.42125-.14027778-.8425-.22458333-1.2638888-.22458333-.5336112 0-.9829167.14041666-1.32.39319444-.3369445.25263889-.5055556.61777778-.5055556 1.03902778 0 .64597222.3651389 1.12347222 1.0954167 1.40430555l.8425.30888889c.2808333.11236111.4493055.19666667.5616666.30902778.1123611.11222222.1404167.22458333.1404167.39319445 0 .22458333-.0841667.42125-.2526389.53361111z"/><path d="m19.6216592.16847222c-.1123611-.11222222-.2808333-.16847222-.4773611-.16847222-.1966667 0-.3370833.05625-.4494444.16847222-.1123612.1125-.1684723.25277778-.1684723.42138889 0 .16847222.0561111.33694445.1684723.42125.1123611.11236111.2527777.16847222.4494444.16847222.1965278 0 .3369444-.05611111.4493056-.16847222.1123611-.11236111.1684722-.25277778.1684722-.42125 0-.16861111-.0280556-.33708333-.1404167-.42138889z"/><path d="m19.453187 2.07833333h-.5898611c-.1402778 0-.1965278.05611111-.1965278.19652778v4.66208333c0 .14041667.05625.19666667.1965278.19666667h.5898611c.1404167 0 .1965278-.05625.1965278-.19666667v-4.66208333c0-.11236111-.0561111-.19652778-.1965278-.19652778z"/><path d="m22.093187 3.20166667c.2527778-.28083334.6458333-.42125 1.2076389-.42125.2808333 0 .5616666.02805555.8144444.11236111.0843056.02805555.1123611.02805555.1684722.02805555.0843056 0 .1404167-.05611111.1404167-.19652777v-.28083334c0-.08430555-.0280555-.16861111-.0561111-.19666666-.0281944-.02805556-.0843056-.08430556-.1404167-.11236112-.3651389-.08416666-.7302777-.16847222-1.0672222-.16847222-.7863889 0-1.37625.22472222-1.8255555.70208334-.42125.44944444-.6459723 1.12347222-.6459723 1.96597222s.1966667 1.48847222.6179167 1.93791666c.42125.44930556 1.0109722.67388889 1.7973611.67388889.42125 0 .8145833-.05611111 1.1234722-.19652777.0843056-.02805556.1404167-.05611112.1684723-.11236112.0280555-.02805555.0280555-.11236111.0280555-.19652777v-.28083334c0-.14055555-.0561111-.19666666-.1404167-.19666666-.0280555 0-.0841666 0-.1404166.02805555-.3088889.08430556-.6177778.14041667-.89875.14041667-.5334722 0-.9266667-.14041667-1.1794445-.42125-.2527777-.28083333-.3651389-.73013889-.3651389-1.32v-.14041667c.0280556-.61777778.1404167-1.06722222.3931945-1.34805555z"/><path d="m6.87110366 7.13361111h.58986111c.14041667 0 .19652778-.05625.19652778-.19666667v-3.51055555c0-.4775-.11236111-.84263889-.365-1.09527778-.25277778-.25277778-.58986111-.39319444-1.06736111-.39319444-.64583334 0-1.31986112.22458333-1.96583334.70208333-.22472222-.4775-.64597222-.70208333-1.26388889-.70208333-.61777777 0-1.23569444.22458333-1.85361111.64583333l-.05611111-.30888889c0-.08416667-.02805555-.11236111-.08430555-.14041667-.02805556-.02805555-.08416667-.02805555-.14041667-.02805555h-.44930556c-.14041666 0-.19652777.05611111-.19652777.19666667v4.66208333c0 .14041667.05611111.19652778.19652777.19652778h.58972223c.14041666 0 .19666666-.05611111.19666666-.19652778v-3.79152778c.47736111-.28083333.95486111-.44930555 1.46041667-.44930555.28083333 0 .4775.08416666.58972222.25277777.11236111.16847223.19666667.39305556.19666667.73013889v3.22972222c0 .14041667.05611111.19666667.19652778.19666667h.58986111c.14041666 0 .19652777-.05625.19652777-.19666667v-3.62291666c0-.05611111 0-.11236111 0-.14041667.50555556-.30888889.98291667-.44930555 1.46041667-.44930555.28083333 0 .4775.08416666.58986111.25277777.11236111.16847223.19652778.39319445.19652778.73013889v3.22972222c0 .14041667.05611111.19666667.19652778.19666667z"/><path d="m12.2072148 2.27486111v3.73527778c-.4773611.30902778-.9548611.4775-1.4322223.4775-.3090277 0-.5336111-.08430556-.6740277-.25277778-.1404167-.16847222-.1966667-.42125-.1966667-.78638889v-3.17361111c0-.14041667-.05611111-.19652778-.19652778-.19652778h-.58986111c-.14041666 0-.19652777.05611111-.19652777.19652778v3.48263889c0 .47736111.11236111.87055556.365 1.12333333.25291666.25277778.61791666.39319445 1.09541666.39319445.6459722 0 1.2919444-.22472222 1.9097222-.67402778l.05625.33694444c0 .08430556.0280556.11236112.0841667.14041667.0281944.02819445.0843055.02819445.1684722.02819445h.4213889c.1404167 0 .1965278-.05625.1965278-.19666667v-4.63402778c0-.14041667-.0561111-.19652778-.1965278-.19652778h-.5898611c-.1684722 0-.2247222.08416667-.2247222.19652778z"/><path d="m23.356937 13.5088889c1.4604167-1.2358333 1.8536111-3.79152779 1.5447222-4.18472223-.1404167-.16847223-.8144444-.33694445-1.6570833-.33694445-.8986111 0-1.9658334.19652778-2.7802778.75819445-.2527778.16861111-.1966667.39319443.0561111.36513893.8706945-.11236116 2.8365278-.33694449 3.2016667.1123611.3369444.4493055-.3931945 2.3030555-.7301389 3.1175-.0843056.2526389.1122222.3369444.365.1684722z"/><path d="m22.1773537 10.8688889c-3.06125 1.2919444-6.4033334 1.9377778-9.4363889 1.9377778-4.49361114 0-8.84680559-1.2356945-12.35736114-3.28583337-.05625-.02805555-.11236111-.05625-.16847222-.05625-.19666667 0-.30902778.22472223-.11236111.42125 3.25777777 2.94902777 7.58291666 4.71833337 12.35722217 4.71833337 3.4263889 0 7.3863889-1.0672223 10.1105556-3.0893056.4775-.3370833.0843056-.8426389-.3931944-.6459722z"/></g><g transform="translate(9 11)"><path d="m14.1262726.84315109v-.55472274c.0005343-.08449065.0640358-.14066511.1406651-.14043614l2.4862539-.00022897c.0795296 0 .1433364.05777726.1433364.13997819v.47572742c-.0007632.07983489-.0680046.18386448-.1871464.34918224l-1.2878909 1.83879751c.4779408-.01121963.9836635.06052492 1.4180996.30460903.0979237.0550296.1241792.13646729.1318879.21645483v.59196885c0 .08143769-.0893754.17592679-.1831776.12669782-.765148-.40085358-1.7806386-.44458723-2.626919.00496106-.0864751.04602336-.176919-.04701558-.176919-.12868225v-.56258411c0-.09013863.0017555-.24400779.092581-.38123832l1.4920576-2.14065887-1.2991105-.00015265c-.0794533 0-.1431838-.05655608-.1437181-.1396729"/><path d="m5.05715109 4.30780218h-.75637072c-.07197352-.00465576-.12944548-.05869315-.13532243-.12784268l.0006106-3.88206698c0-.07769782.06525701-.13967289.14600778-.13967289l.70439408-.00022898c.07365265.00373988.13280374.05953271.13738318.1304377v.50679128h.01427259c.18355919-.49015265.52953582-.71897197.99541744-.71897197.47305608 0 .76965109.22881932.98145016.71897197.18363551-.49015265.60021184-.71897197 1.04502804-.71897197.31773676 0 .66363707.13074299.87543613.42481932.24003894.32689564.19080997.8005623.19080997 1.21721495l-.00076324 2.44984735c0 .07746885-.06518068.1396729-.14593146.1396729h-.75537851c-.07601869-.00480841-.13570405-.06487539-.13570405-.1393676l-.00022897-2.05815265c0-.16310436.01411994-.57166667-.02129439-.72683333-.05640343-.26156231-.22584268-.33513863-.44466355-.33513863-.18363552 0-.37429284.12257632-.45206698.31857632-.07754517.19615265-.07052336.52281932-.07052336.74339564v2.05784735c0 .07746885-.06525701.1396729-.14585514.1396729h-.75545483c-.07601869-.00480841-.1358567-.06487539-.1358567-.1393676l-.00076324-2.05815265c0-.43290966.07059969-1.06990966-.46588162-1.06990966-.54380841 0-.52251402.62066667-.52251402 1.06990966l-.0003053 2.05784735c0 .07746885-.06533333.1396729-.14593146.1396729"/><path d="m19.0437508.86879595c-.5576994 0-.5929648.7595-.5929648 1.23339564 0 .47381931-.0070181 1.48671495.5860956 1.48671495.5861682 0 .6142555-.81689564.6142555-1.31498598 0-.32674299-.01412-.71897196-.1131122-1.02938162-.0846433-.26972897-.2542352-.37574299-.4942741-.37574299zm-.0068692-.79254829c1.1226496 0 1.7297305.96412461 1.7297305 2.18942991 0 1.18431931-.6705825 2.12402025-1.7297305 2.12402025-1.1015078 0-1.7016433-.96420094-1.7016433-2.16492991 0-1.20904828.6071573-2.14852025 1.7016433-2.14852025z"/><path d="m22.2225685 4.30780218h-.753623c-.0757134-.00480841-.1357041-.06487539-.1357041-.1393676l-.0012975-3.88351713c.0064112-.07105764.0691496-.12669782.1453209-.12669782l.7015701-.00022898c.0660966.00351091.1205919.04846574.1344829.10868536v.59380063h.0141962c.2119517-.53113863.5082415-.78422898 1.0307555-.78422898.3388785 0 .6708115.1225.8826106.45756231.1976791.31033333.1976791.83307632.1976791 1.20897196v2.44290187c-.0083956.06869159-.0702181.12211838-.1449393.12211838h-.7582025c-.0700654-.00442679-.1265451-.05594548-.1346355-.12211838v-2.10776324c0-.42489564.049458-1.0458676-.473056-1.0458676-.1836356 0-.3530748.12257632-.4377944.31040966-.1059377.23698598-.120134.47374299-.120134.73545794v2.09020872c-.0012975.07746885-.0666308.1396729-.147229.1396729"/><path d="m12.9067679 4.29810903c-.0499159.04495483-.1221184.04793147-.1785218.01763085-.2511822-.20874611-.2962134-.30521963-.4336729-.50404362-.4151262.42291122-.7091262.54983801-1.2469813.54983801-.636771 0-1.13211371-.39306854-1.13211371-1.17890031 0-.61402648.33261991-1.0315187.80659191-1.23621963.4103178-.18012461.9835872-.2128676 1.4223738-.2621729v-.09815264c0-.18020094.01412-.39283957-.0920467-.54846418-.0921231-.13929128-.2688894-.19653427-.4245903-.19653427-.2885047 0-.544877.14776324-.6079969.45412773-.0131278.06815732-.0628147.13570405-.1312773.13921495l-.7331682-.07945327c-.0619751-.01404361-.1306667-.0636542-.1129595-.15821963.168676-.88940342.9718333-1.15798753 1.6914922-1.15798753.3681106 0 .8491044.09807632 1.1392118.37658255.3680343.34383956.3325436.80239408.3325436 1.30193458v1.17813707c0 .35467757.1473053.51007321.2855281.7009595.0483894.06899689.0591511.15073988-.0025187.20111371-.1544034.12952181-.4289408.36788162-.5799097.50236449zm-.762324-1.84421651c0 .29491589.0069455.54029751-.1416573.80247041-.1202103.21271495-.3114019.34383956-.5235826.34383956-.2900311 0-.459852-.22118691-.459852-.54869314 0-.64417446.5778489-.76125546 1.1250919-.76125546z" mask="url(#a)"/><path d="m2.99136604 4.29810903c-.04991588.04495483-.12227102.04793147-.17867445.01763085-.25133489-.20874611-.29636604-.30521963-.43352025-.50404362-.41535514.42291122-.70935514.54983801-1.24705763.54983801-.63684735 0-1.13211371-.39306854-1.13211371-1.17890031 0-.61402648.33246729-1.0315187.8065919-1.23621963.41031776-.18012461.98358723-.2128676 1.42214486-.2621729v-.09815264c0-.18020094.01427259-.39283957-.09181776-.54846418-.09212305-.13929128-.26904205-.19653427-.42459034-.19653427-.28850467 0-.54510592.14776324-.60792056.45412773-.01312773.06815732-.06289097.13570405-.13142991.13921495l-.7330919-.07945327c-.06197507-.01404361-.13081931-.0636542-.1129595-.15821963.16844704-.88940342.97160436-1.15798753 1.69149221-1.15798753.36795795 0 .84910436.09807632 1.13921184.37658255.36788162.34383956.33261994.80239408.33261994 1.30193458v1.17813707c0 .35467757.14715265.51007321.28537539.7009595.04816043.06899689.05922741.15073988-.00236605.20111371-.15455607.12952181-.42916978.36788162-.58013862.50236449zm-.76262928-1.84421651c0 .29491589.00709813.54029751-.14142835.80247041-.12021028.21271495-.31132554.34383956-.52365888.34383956-.28995483 0-.45992835-.22118691-.45992835-.54869314 0-.64417446.57800156-.76125546 1.12501558-.76125546z" mask="url(#a)"/></g></g></g></svg>