<svg height="40" viewBox="0 0 160 40" width="160" xmlns="http://www.w3.org/2000/svg"><g fill="none" fill-rule="evenodd"><rect fill="#000" height="40" rx="7" width="160"/><path d="m43 14.8958032v-5.79160638h.9101895v5.02749638h2.7578743v.76411zm5.0087195-4.89725038c-.2821588 0-.52791-.2170767-.52791-.49493487 0-.27785818.2457512-.50361795.52791-.50361795.2912606 0 .5279099.22575977.5279099.50361795 0 .27785817-.2366493.49493487-.5279099.49493487zm-.4004834 4.89725038v-4.1939219h.8191705v4.1939219zm1.6956295-.5470333.3913815-.5730825c.3003626.3125905.8828839.5991317 1.4745071.5991317.6189289 0 .9465971-.2431259.9465971-.5991317 0-.4167873-.5006043-.5557163-1.0649218-.6772793-.7463554-.1649783-1.6201373-.3560058-1.6201373-1.2590449 0-.6685962.6007251-1.2416787 1.6747487-1.2416787.7554573 0 1.301571.2604921 1.6747487.5991317l-.3640758.5470333c-.254853-.2952243-.7463554-.512301-1.301571-.512301s-.9010876.2083936-.9010876.5470333c0 .3646888.4732985.4862518 1.0194122.6078147.7645592.1649783 1.6747488.3646889 1.6747488 1.3285094 0 .7206947-.6189289 1.2850941-1.7748696 1.2850941-.7372535 0-1.3834881-.2170767-1.829481-.6512301zm5.8096863.6512301c-.6917441 0-1.046718-.3733719-1.046718-1.0332851v-2.5788712h-.7281516v-.6859624h.7281516v-1.14616495h.8191706v1.14616495h.8919857v.6859624h-.8919857v2.4052098c0 .2952244.1456303.5123011.4277891.5123011.1911398 0 .3640758-.0781477.4459928-.1649783l.2093436.5904486c-.172936.1562952-.427789.2691751-.8555781.2691751zm1.2587386-2.2054993c0-1.2156295.9192914-2.1968162 2.2026586-2.1968162 1.3197749 0 2.1389454.9811867 2.1389454 2.2662808v.1910275h-3.476924c.0637133.7120115.609827 1.3024602 1.4927109 1.3024602.4641966 0 .9739028-.1736614 1.301571-.4949349l.3822796.512301c-.436891.4081042-1.0558199.6251809-1.7657677.6251809-1.3106729 0-2.2754738-.8856729-2.2754738-2.2054993zm2.2026586-1.5542692c-.8828838 0-1.301571.6772794-1.3470805 1.2503618h2.6850592c-.0182038-.5557163-.4095853-1.2503618-1.3379787-1.2503618zm6.091845 3.6555717v-2.683068c0-.6946455-.3731777-.9204052-.9374952-.9204052-.5097061 0-.9739028.2952243-1.2105521.6078147v2.9956585h-.8191705v-4.1939219h.8191705v.5904487c.2912607-.3386397.873782-.6946455 1.5564241-.6946455.9283934 0 1.4107938.4688857 1.4107938 1.3545586v2.9435601zm6.3311714.1041968c-1.3652843 0-2.2208625-.9898698-2.2208625-2.2054993 0-1.2069464.8555782-2.1968162 2.2208625-2.1968162 1.3743862 0 2.2208624.9898698 2.2208624 2.1968162 0 1.2156295-.8464762 2.2054993-2.2208624 2.2054993zm0-.6946454c.8828838 0 1.3652843-.7120116 1.3652843-1.5108539 0-.7901592-.4824005-1.5021707-1.3652843-1.5021707-.873782 0-1.3652843.7120115-1.3652843 1.5021707 0 .7988423.4915023 1.5108539 1.3652843 1.5108539zm6.1828639.5904486v-2.683068c0-.6946455-.3731777-.9204052-.9374952-.9204052-.5097061 0-.9739028.2952243-1.2105521.6078147v2.9956585h-.8191706v-4.1939219h.8191706v.5904487c.2912607-.3386397.873782-.6946455 1.5564241-.6946455.9283933 0 1.4107938.4688857 1.4107938 1.3545586v2.9435601z" fill="#fff" fill-rule="nonzero"/><path d="m29.8942001 18.0815232c-4.029292-2.3928865-10.6755191-2.6129049-14.52196-1.4454939-.6178129.1874783-1.2710018-.1612075-1.4581816-.7788711-.1871798-.6181114.1612075-1.2708525.7793189-1.4586294 4.4154436-1.3402612 11.7556094-1.0814336 16.394206 1.6720801.5555689.3298783.7378229 1.047401.4085416 1.6020742-.3295797.5555688-1.0476995.7387184-1.6019249.4088401zm-.1319513 3.5441769c-.2827102.458695-.8824618.6025876-1.3405598.3209223-3.359236-2.0647994-8.4816045-2.6630584-12.4558172-1.4566889-.5154162.1556846-1.0596408-.1347874-1.2162211-.649308-.1552368-.515267.1353845-1.058596.6499051-1.2153255 4.5399317-1.3777271 10.1838362-.7105071 14.0420692 1.6605866.458098.2821131.6022891.8821633.3206238 1.3398135zm-1.5295308 3.4037173c-.2246457.368389-.704238.4837718-1.0712836.2592754-2.93532-1.7940306-6.6299571-2.199139-10.9810671-1.2053246-.4192888.0961274-.8372341-.1665811-.9329138-.5858699-.0959782-.4191395.1658348-.8370849.5860191-.9327645 4.7615921-1.0884492 8.8459633-.6200519 12.1407163 1.3932507.3673441.2243472.4830254.704238.2585291 1.0714329zm-5.732718-18.0294174c-6.9034128 0-12.5 5.5964379-12.5 12.4998507 0 6.9041592 5.5965872 12.5001493 12.5 12.5001493 6.9037114 0 12.5-5.5959901 12.5-12.5001493 0-6.9034128-5.5962886-12.4998507-12.5-12.4998507z" fill="#1ed760"/><path d="m47.1879883 31.1992188c2.7890625 0 4.5654297-1.4194336 4.5654297-3.6772461 0-1.7431641-1.0292969-2.7475586-3.5361328-3.2788086l-1.3115235-.2739258c-1.5522461-.3320313-2.1665039-.913086-2.1665039-1.784668 0-1.0957031 1.0292969-1.7763672 2.4321289-1.7763672 1.4526367 0 2.4404297.7387696 2.5566406 1.9423828h1.8012696c-.0581055-2.0917968-1.7929688-3.527832-4.3330078-3.527832-2.5483399 0-4.3496094 1.4111328-4.3496094 3.4614258 0 1.7265625 1.0874023 2.8388672 3.4863281 3.3452148l1.3032227.2739258c1.6020507.3486328 2.2329101.9296875 2.2329101 1.859375 0 1.0708008-1.0874023 1.8510742-2.6064453 1.8510742-1.59375 0-2.7226562-.7138672-2.8886719-1.9008789h-1.8095703c.116211 2.1333008 1.9174805 3.4863282 4.6235352 3.4863282zm7.8110351 2.6894531v-4.3247071h.0415039c.4980469.9711914 1.4941407 1.5854493 2.7475586 1.5854493 2.1914063 0 3.644043-1.7514649 3.644043-4.515625 0-2.7641602-1.4609375-4.5073243-3.6772461-4.5073243-1.2617187 0-2.2661133.6391602-2.7807617 1.6435547h-.0332031v-1.5024414h-1.7348633v11.6210938zm2.2827149-4.2583008c-1.3779297 0-2.2910156-1.1787109-2.2910156-2.996582 0-1.8012696.9213867-2.9965821 2.2910156-2.9965821 1.4194336 0 2.3076172 1.1704102 2.3076172 2.9965821 0 1.8344726-.8881836 2.996582-2.3076172 2.996582zm9.2802734 1.5356445c2.4985352 0 4.1420899-1.7182617 4.1420899-4.5322265 0-2.8056641-1.6518555-4.5239258-4.1420899-4.5239258s-4.1420898 1.7182617-4.1420898 4.5239258c0 2.8139648 1.6435547 4.5322265 4.1420898 4.5322265zm0-1.477539c-1.402832 0-2.3159179-1.1123047-2.3159179-3.0546875 0-1.9340821.9130859-3.0463868 2.3159179-3.0463868 1.4028321 0 2.315918 1.1123047 2.315918 3.0463868 0 1.9423828-.9047852 3.0546875-2.315918 3.0546875zm8.5083008 1.3696289c.3984375 0 .796875-.0332032.9960937-.0830078v-1.4194336c-.1162109.0249023-.4067382.0415039-.5893554.0415039-.7304688 0-1.0625-.3403321-1.0625-1.0957032v-4.8144531h1.6601562v-1.4194336h-1.6601562v-2.0668945h-1.8012696v2.0668945h-1.2700195v1.4194336h1.2700195v5.0136719c0 1.6850586.6889649 2.3574219 2.4570313 2.3574219zm3.4282227-10.2016602c.5727539 0 1.0292968-.4648437 1.0292968-1.0292969 0-.5727539-.4565429-1.0292968-1.0292968-1.0292968-.572754 0-1.0375977.4565429-1.0375977 1.0292968 0 .5644532.4648437 1.0292969 1.0375977 1.0292969zm.8964843 10.1435547v-8.7324219h-1.7929687v8.7324219zm4.1586914 0v-7.3129883h1.7431641v-1.402832h-1.7680664v-.8217774c0-.7719726.3652344-1.1621093 1.1455078-1.1621093.2407227 0 .4814453.0166015.6557617.0498047v-1.328125c-.2324219-.0415039-.6391601-.0830079-1.0043945-.0830079-1.7763672 0-2.5732422.796875-2.5732422 2.4902344v.8549805h-1.2036133v1.402832h1.2036133v7.3129883zm4.0258789 3.2539062c1.8095704 0 2.6728516-.680664 3.4199219-2.7973632l3.2705078-9.1889649h-1.8925781l-2.2080078 7.1054688h-.0332031l-2.2080078-7.1054688h-1.9423829l3.1542969 8.7407227c0 .0083008-.1577148.5229492-.1577148.5395508-.2739258.8964843-.722168 1.2451172-1.5522461 1.2451172-.1494141 0-.4482422 0-.5810547-.0332032v1.4526367c.1328125.0249024.5810547.0415039.7304687.0415039z" fill="#fff" fill-rule="nonzero"/></g></svg>