<svg height="959.769" viewBox="0 0 931.561 959.769" width="931.561" xmlns="http://www.w3.org/2000/svg" xmlns:xlink="http://www.w3.org/1999/xlink"><linearGradient id="a" gradientUnits="objectBoundingBox" x1=".5" x2=".5" y2="1"><stop offset="0" stop-color="#c2b8ed"/><stop offset="1" stop-color="#ebe7fd"/></linearGradient><clipPath id="b"><path d="m0 0h761.801v778.136h-761.801z"/></clipPath><clipPath id="c"><path d="m0 0h551.308v563.13h-551.308z"/></clipPath><g clip-path="url(#b)" fill="url(#a)" opacity=".304" transform="matrix(-.225 .974 -.974 -.225 931.561 217.492)"><path d="m641.1 18.9h.031c-58.681-33.69-190.159-31.013-380.9 80.6-191.994 109.443-260.376 221.909-260.231 289.567s68.237 180.124 260.229 289.572c190.739 111.61 322.217 114.287 380.9 80.6l.025-.013c58.51-33.98 121.928-149.187 120.624-370.176 1.2-220.989-62.152-336.2-120.681-370.144" transform="translate(0 .001)"/><path d="m641.152 759.219-.025.013c-58.681 33.69-190.159 31.013-380.9-80.6-191.99-109.44-260.088-221.9-260.227-289.564s68.237-180.124 260.229-289.568c190.739-111.616 322.217-114.287 380.9-80.6h-.029c58.529 33.955 121.884 149.155 120.681 370.144 1.3 221-62.114 336.2-120.624 370.176"/></g><g clip-path="url(#c)" fill="none" opacity=".158" stroke="#8c7ade" stroke-width="2" transform="matrix(.32556815 .94551858 -.94551858 .32556815 532.449 0)"><path d="m463.955 13.681h.023c-42.467-24.381-137.617-22.444-275.652 58.327-138.943 79.202-188.426 160.592-188.326 209.556s49.383 130.354 188.326 209.561c138.036 80.771 233.185 82.708 275.652 58.327l.018-.009c42.343-24.591 88.238-107.965 87.295-267.893.871-159.928-44.979-243.3-87.336-267.87" transform="translate(0 .001)"/><path d="m464 549.439-.018.009c-42.467 24.381-137.616 22.444-275.652-58.327-138.947-79.202-188.23-160.588-188.33-209.556s49.383-130.354 188.326-209.556c138.035-80.776 233.185-82.709 275.651-58.328h-.023c42.357 24.573 88.206 107.942 87.336 267.87.944 159.932-44.951 243.3-87.295 267.893"/></g></svg>