<svg height="36.265" viewBox="0 0 33.281 36.265" width="33.281" xmlns="http://www.w3.org/2000/svg" xmlns:xlink="http://www.w3.org/1999/xlink"><clipPath id="a"><path d="m0 0h33.281v36.265h-33.281z"/></clipPath><g clip-path="url(#a)" fill="none" stroke="#c2b8ed" stroke-linecap="round" stroke-miterlimit="10"><path d="m87.486 38.214a.981.981 0 0 0 .221-1.651l-3.122-2.57a1.032 1.032 0 0 1 -.376-.8v-6.305a.994.994 0 0 1 .6-.913c6.461-2.766 7.515-8.224 7.591-16.565a1.117 1.117 0 0 0 -1.114-1.126h-19.421a1.116 1.116 0 0 0 -1.114 1.126c.078 8.341 1.132 13.8 7.591 16.565a.994.994 0 0 1 .6.913v6.312a1.032 1.032 0 0 1 -.376.8l-3.122 2.57a.981.981 0 0 0 .189 1.636" transform="translate(-64.936 -7.603)"/><path d="m13.449 41.964h-3.935a1.235 1.235 0 0 0 -1.229 1.312c.372 6.363 3.515 9.724 8.726 10.924" transform="translate(-7.603 -38.515)"/><path d="m294.024 41.964h3.934a1.235 1.235 0 0 1 1.229 1.312c-.372 6.363-3.511 9.72-8.725 10.926" transform="translate(-266.589 -38.515)"/><rect height="4.973" rx="2.487" transform="translate(7.515 30.61)" width="18.251"/><path d="m264.193 43.456c-.174 5.129-.922 8.119-2.7 10.055" transform="translate(-240.002 -39.884)"/></g></svg>