<svg height="37.687" viewBox="0 0 37.758 37.687" width="37.758" xmlns="http://www.w3.org/2000/svg" xmlns:xlink="http://www.w3.org/1999/xlink"><clipPath id="a"><path d="m0 0h37.758v37.687h-37.758z"/></clipPath><g clip-path="url(#a)" fill="#c2b8ed"><path d="m2.3 16.706a1.142 1.142 0 0 1 -.713-2.033l16.579-13.261a1.135 1.135 0 0 1 1.426 0l16.576 13.261a1.142 1.142 0 0 1 -.713 2.033h-.1a2.3 2.3 0 0 0 -2.3 2.3v16.382a1.143 1.143 0 0 1 -1.145 1.142h-13.022v-3.769a.579.579 0 0 0 -.579-.579h-3.872v-3.044a.579.579 0 0 0 -.579-.579h-4.235v-3.525a.579.579 0 0 0 -.579-.579h-4.444v-5.45a2.3 2.3 0 0 0 -2.3-2.3m2.3 18.683v-9.776h3.866v3.525a.579.579 0 0 0 .579.579h4.235v3.044a.579.579 0 0 0 .579.579h3.872v3.19h-11.987a1.143 1.143 0 0 1 -1.144-1.141m-1.158 0a2.3 2.3 0 0 0 2.3 2.3h26.168a2.3 2.3 0 0 0 2.3-2.3v-16.383a1.143 1.143 0 0 1 1.142-1.142h.1a2.3 2.3 0 0 0 1.436-4.095l-16.573-13.26a2.287 2.287 0 0 0 -2.873 0l-16.575 13.261a2.3 2.3 0 0 0 1.433 4.095 1.143 1.143 0 0 1 1.142 1.142z" transform="translate(0 -.001)"/><path d="m241.528 219.028v.006l.007.008c.01.014.02.027.032.04l.015.016.031.031.016.014c.013.011.027.022.041.032l.008.006a.577.577 0 0 0 .056.034l.01.005.048.022.017.006.046.014h.019l.048.009h.017a.552.552 0 0 0 .132 0h.017l.048-.009h.018l.046-.014.016-.006.049-.022h.01a.567.567 0 0 0 .056-.034l.008-.006c.015-.01.029-.021.042-.033l.015-.014.031-.031.015-.016c.011-.013.022-.026.031-.04l.007-.008v-.006l2.868-4.134a.579.579 0 1 0 -.951-.66l-1.818 2.621v-9.692a.579.579 0 1 0 -1.158 0v9.692l-1.818-2.621a.579.579 0 0 0 -.951.66z" transform="translate(-216.038 -187.083)"/></g></svg>