<svg height="37.775" viewBox="0 0 34.824 37.775" width="34.824" xmlns="http://www.w3.org/2000/svg"><circle cx="9.673" cy="6.82" fill="none" r="5.32" stroke="#ccbaf2" stroke-width="3"/><circle cx="25.15" cy="6.82" fill="#00474f" r="6.771"/><path d="m14.016 36.342a6.765 6.765 0 0 1 -11.116-5.188v-7.254a.485.485 0 0 1 .484-.484h10.183a5.293 5.293 0 0 1 1.2-2.9h-11.381a3.389 3.389 0 0 0 -3.386 3.384v7.255a9.659 9.659 0 0 0 15.219 7.913 11.542 11.542 0 0 1 -1.2-2.724z" fill="#ccbaf2" transform="translate(0 -4.986)"/><path d="m36.474 20.513h-12.574a3.389 3.389 0 0 0 -3.387 3.387v9.19a9.673 9.673 0 1 0 19.347 0v-9.19a3.389 3.389 0 0 0 -3.386-3.387z" fill="#00474f" transform="translate(-5.035 -4.986)"/></svg>