<svg height="34.553" viewBox="0 0 40.022 34.553" width="40.022" xmlns="http://www.w3.org/2000/svg"><path d="m0 6.466v2.793h5.37a4.156 4.156 0 0 1 3.156 1.441l4.989 5.743 1.853-2.132-4.729-5.443a6.987 6.987 0 0 0 -5.269-2.4zm20.925 14.223-1.853 2.132 4.728 5.445a6.987 6.987 0 0 0 5.269 2.4h5.723l-3.2 3.2 1.974 1.974 6.456-6.623-6.457-6.517-1.974 1.974 3.2 3.2h-5.721a4.156 4.156 0 0 1 -3.156-1.443z" fill="#ccbaf2" transform="translate(0 -1.29)"/><path d="m31.591 1.975 3.2 3.2h-5.718a6.987 6.987 0 0 0 -5.269 2.4l-15.276 17.57a4.185 4.185 0 0 1 -3.161 1.44h-5.367v2.793h5.367a6.984 6.984 0 0 0 5.269-2.4l15.276-17.57a4.188 4.188 0 0 1 3.161-1.44h5.719l-3.2 3.2 1.974 1.974 6.456-6.542-6.457-6.6z" fill="#00474f"/></svg>