<svg viewBox="0 0 42.4 41.2" xmlns="http://www.w3.org/2000/svg"><path d="m26.3 0c-1.9 0-3.6.8-4.8 2.2-1.3-1.4-3.1-2.2-4.9-2.2-3.2 0-5.9 2.5-5.9 5.7 0 4.3 5.3 8.5 6.8 9.9 1.7 1.5 4 3.5 4 3.5s2.3-2 4-3.5c1.5-1.3 6.8-5.5 6.8-9.9 0-3.2-2.7-5.8-5.9-5.7z" fill="#00474f"/><g fill="none" stroke="#ccbaf2" stroke-linejoin="round" stroke-width="2"><path d="m31 27.9 3.8-4.5c.9-1 .8-2.6-.2-3.5-1-.9-2.6-.8-3.5.2l-2.4 2.8c-3.1 3.7-3.8 3.3-5.7 5.4-3.5 4.1 0 11.2 0 11.2"/><path d="m32.6 40.3s-2-2.8.1-5.4 5-4.7 7.1-7.2 1.1-4.9 1.1-16.8c0-1.2-1.2-2.2-2.6-2.2 0 0 0 0-.1 0-1.4.1-2.2 1.1-2.3 2.7s-.6 10.5-.6 10.5"/><path d="m11.3 27.9-3.8-4.5c-.9-1-.8-2.6.2-3.5 1-.9 2.6-.8 3.5.2l2.4 2.8c3.1 3.7 3.8 3.3 5.7 5.4 3.5 4.1 0 11.2 0 11.2"/><path d="m9.7 40.3s2-2.8-.1-5.4-5-4.7-7.1-7.2-1.1-4.9-1.1-16.8c0-1.2 1.2-2.2 2.6-2.2h.1c1.4.1 2.2 1.1 2.3 2.7s.6 10.5.6 10.5"/></g></svg>