<svg height="36.987" viewBox="0 0 41.546 36.987" width="41.546" xmlns="http://www.w3.org/2000/svg"><g fill="none" stroke="#ccbaf2" stroke-linecap="square" stroke-linejoin="round" stroke-width="3"><path d="m46.667 14.67h2.57" transform="translate(-9.19 -1.24)"/><path d="m0 14.67h2.57" transform="translate(1.5 -1.24)"/><path d="m42.543 27.769 1.211 1.211" transform="translate(-8.246 -4.24)"/><path d="m5.886 0 1.214 1.211" transform="translate(.152 2.121)"/><path d="m7.1 27.769-1.214 1.211" transform="translate(.152 -4.24)"/><path d="m43.755 0-1.212 1.211" transform="translate(-8.246 2.121)"/></g><path d="m14.939 24.691.4 1.794h12.2l.4-1.794a6.276 6.276 0 0 1 1.748-3.213 11.992 11.992 0 1 0 -16.492 0 6.271 6.271 0 0 1 1.749 3.213z" fill="#00474f" transform="translate(-.663 1.936)"/><path d="m17.83 37.448.81 3.648a3 3 0 0 0 2.927 2.348h3.581a3 3 0 0 0 2.927-2.344l.81-3.648z" fill="#00474f" transform="translate(-2.584 -6.457)"/></svg>