<svg height="51.224" viewBox="0 0 34.807 51.224" width="34.807" xmlns="http://www.w3.org/2000/svg" xmlns:xlink="http://www.w3.org/1999/xlink"><clipPath id="a"><path d="m0 0h34.807v51.224h-34.807z"/></clipPath><g clip-path="url(#a)" fill="#c2b8ed"><path d="m34.367 21.291a17.391 17.391 0 0 1 -4.2 7.95.63.63 0 1 1 -.922-.857 16.147 16.147 0 1 0 -24.119-.484.63.63 0 1 1 -.958.817 17.405 17.405 0 1 1 30.2-7.424"/><path d="m29.6 22.347a2.1 2.1 0 0 1 -.765 1.236.629.629 0 1 1 -.757-1.006 1.356 1.356 0 0 0 .284-1.318 1.428 1.428 0 0 0 -.735-1.1 3.941 3.941 0 0 1 -2.554-2.277c-.091-.163-.182-.323-.277-.473-.045-.073-.11-.1-.513-.12a2.963 2.963 0 0 1 -2.678-1.589 11.815 11.815 0 0 0 -2.577-2.874c-.974-.753-1.8-1.019-2.258-.731-.346.218-.411.317.167 1.351a3.126 3.126 0 0 1 .59 2.182c-.274 1.2-1.349 1.264-2.134 1.312a3.826 3.826 0 0 0 -1.93.477 6.82 6.82 0 0 0 -1.83 1.978 7.162 7.162 0 0 1 -1.919 2.062 1.154 1.154 0 0 1 -1.218.11c-.758-.415-.826-1.606-.839-3.245a7.75 7.75 0 0 0 -.041-1 2.92 2.92 0 0 1 -.058-.992 2.411 2.411 0 0 0 -.94-2.431c-1.085-.812-4.106-.08-5.756.572a.63.63 0 0 1 -.462-1.171c.5-.2 4.976-1.906 6.976-.408a3.659 3.659 0 0 1 1.442 3.5 2.6 2.6 0 0 0 0 .561 5.458 5.458 0 0 1 .1 1.352 9.363 9.363 0 0 0 .164 2.056 6.327 6.327 0 0 0 1.526-1.7 8.039 8.039 0 0 1 2.187-2.316 5.049 5.049 0 0 1 2.522-.667c.882-.055.932-.114.983-.336a2.323 2.323 0 0 0 -.462-1.286c-.444-.794-1.185-2.123.265-3.032.67-.42 1.855-.623 3.7.8a13.134 13.134 0 0 1 2.874 3.2 1.751 1.751 0 0 0 1.683 1 1.683 1.683 0 0 1 1.505.707c.1.167.2.342.306.521.445.784.83 1.462 1.739 1.671a2.533 2.533 0 0 1 1.68 2.077 3.139 3.139 0 0 1 .007 1.349" transform="translate(0 4.054)"/><path d="m28.316 8.5a.632.632 0 0 1 -.974.376c-1.815-1.267-2.663-.921-3.661-.295-.863.542-1.691-.074-2.357-.569-.947-.7-1.585-1.092-2.471-.536a3.527 3.527 0 0 0 -1.353 1.88 2.942 2.942 0 0 1 -3.286 2.244 4.215 4.215 0 0 1 -3.821-2.619 3.03 3.03 0 0 1 .317-3.181c.728-.782 1.511-3.661 1.835-5.29a.63.63 0 0 1 1.236.245c-.092.466-.94 4.6-2.147 5.9a1.855 1.855 0 0 0 -.074 1.852 2.983 2.983 0 0 0 2.715 1.836c1.42.069 1.633-.447 2.059-1.472a4.714 4.714 0 0 1 1.848-2.466c1.68-1.054 3.012-.065 3.892.591.339.252.8.6.937.513 1.487-.933 2.852-1.2 5.05.328a.632.632 0 0 1 .254.657" transform="translate(3.82 .001)"/><path d="m9.221 10.079a1.676 1.676 0 0 1 -.19.481 2.355 2.355 0 0 1 -1.661 1.007c-2.17.467-4.435-3.533-4.87-4.339a.63.63 0 0 1 1.111-.594c.861 1.611 2.568 3.9 3.491 3.7a1.373 1.373 0 0 0 .838-.412c.171-.292-.033-.959-.232-1.6a6.384 6.384 0 0 0 -.321-.8 2.006 2.006 0 0 1 .394-2.655 6.532 6.532 0 0 0 1.129-3.2.629.629 0 1 1 1.253.114 7.836 7.836 0 0 1 -1.456 3.939c-.5.544-.467.627-.172 1.272a7.443 7.443 0 0 1 .38.957 4.307 4.307 0 0 1 .306 2.131" transform="translate(.919 .414)"/><path d="m4.949 26.882a2.977 2.977 0 0 1 -2.666-3.2 2.978 2.978 0 0 1 2.666-3.212 2.978 2.978 0 0 1 2.666 3.207 2.977 2.977 0 0 1 -2.666 3.2m0-5.457a2.041 2.041 0 0 0 -1.711 2.252 2.04 2.04 0 0 0 1.711 2.249 2.04 2.04 0 0 0 1.711-2.249 2.041 2.041 0 0 0 -1.711-2.252" transform="translate(.864 7.744)"/><path d="m3.033 34.743a.461.461 0 0 1 -.175-.034 3.9 3.9 0 0 1 -2.476-3.642v-1.6a3.922 3.922 0 0 1 3.918-3.919h2.74a3.921 3.921 0 0 1 3.916 3.917v1.6a3.9 3.9 0 0 1 -2.474 3.642.477.477 0 1 1 -.351-.886 2.949 2.949 0 0 0 1.869-2.754v-1.6a2.965 2.965 0 0 0 -2.961-2.967h-2.739a2.965 2.965 0 0 0 -2.962 2.962v1.6a2.949 2.949 0 0 0 1.872 2.755.477.477 0 0 1 -.176.921" transform="translate(.145 9.665)"/><path d="m4.348 38.77a.477.477 0 0 1 -.477-.477v-6.293a.477.477 0 1 1 .954 0v6.289a.477.477 0 0 1 -.477.477" transform="translate(1.465 11.927)"/><path d="m6.239 40.761a2.031 2.031 0 0 1 -1.19-.382 2.364 2.364 0 0 1 -2.867-.262.475.475 0 0 1 -.165-.361v-11.623a.477.477 0 1 1 .954 0v11.384a1.318 1.318 0 0 0 1.742-.1.49.49 0 0 1 .674 0 1.317 1.317 0 0 0 1.742.1v-11.384a.477.477 0 1 1 .954 0v11.623a.475.475 0 0 1 -.165.361 2.713 2.713 0 0 1 -1.679.644" transform="translate(.763 10.463)"/><path d="m21.417 26.882a2.977 2.977 0 0 1 -2.666-3.2 2.978 2.978 0 0 1 2.666-3.207 2.978 2.978 0 0 1 2.666 3.207 2.977 2.977 0 0 1 -2.666 3.2m0-5.457a2.041 2.041 0 0 0 -1.711 2.252 2.04 2.04 0 0 0 1.711 2.249 2.04 2.04 0 0 0 1.711-2.249 2.041 2.041 0 0 0 -1.711-2.252" transform="translate(7.094 7.744)"/><path d="m19.5 34.743a.461.461 0 0 1 -.175-.034 3.9 3.9 0 0 1 -2.475-3.642v-1.6a3.922 3.922 0 0 1 3.917-3.917h2.74a3.921 3.921 0 0 1 3.916 3.917v1.6a3.9 3.9 0 0 1 -2.474 3.642.477.477 0 1 1 -.351-.886 2.949 2.949 0 0 0 1.872-2.755v-1.6a2.965 2.965 0 0 0 -2.964-2.968h-2.74a2.965 2.965 0 0 0 -2.966 2.965v1.6a2.949 2.949 0 0 0 1.872 2.755.477.477 0 0 1 -.176.921" transform="translate(6.375 9.665)"/><path d="m20.816 38.77a.477.477 0 0 1 -.477-.477v-6.293a.477.477 0 1 1 .954 0v6.289a.477.477 0 0 1 -.477.477" transform="translate(7.695 11.927)"/><path d="m22.707 40.761a2.031 2.031 0 0 1 -1.19-.382 2.364 2.364 0 0 1 -2.867-.262.475.475 0 0 1 -.165-.361v-11.623a.477.477 0 1 1 .954 0v11.384a1.318 1.318 0 0 0 1.742-.1.49.49 0 0 1 .674 0 1.317 1.317 0 0 0 1.742.1v-11.384a.477.477 0 1 1 .954 0v11.623a.475.475 0 0 1 -.165.361 2.713 2.713 0 0 1 -1.679.644" transform="translate(6.994 10.463)"/><path d="m13.244 23.874a2.978 2.978 0 0 1 -2.666-3.206 2.979 2.979 0 0 1 2.666-3.206 2.979 2.979 0 0 1 2.666 3.206 2.978 2.978 0 0 1 -2.666 3.206m0-5.455a2.04 2.04 0 0 0 -1.711 2.249 2.042 2.042 0 0 0 1.711 2.252 2.042 2.042 0 0 0 1.711-2.252 2.04 2.04 0 0 0 -1.711-2.249" transform="translate(4.002 6.606)"/><path d="m11.327 31.735a.461.461 0 0 1 -.175-.034 3.9 3.9 0 0 1 -2.475-3.642v-1.6a3.922 3.922 0 0 1 3.917-3.917h2.74a3.921 3.921 0 0 1 3.916 3.917v1.6a3.9 3.9 0 0 1 -2.475 3.641.477.477 0 1 1 -.351-.886 2.949 2.949 0 0 0 1.876-2.755v-1.6a2.965 2.965 0 0 0 -2.967-2.959h-2.74a2.965 2.965 0 0 0 -2.962 2.962v1.6a2.949 2.949 0 0 0 1.869 2.752.477.477 0 0 1 -.176.921" transform="translate(3.282 8.527)"/><path d="m12.643 35.762a.477.477 0 0 1 -.477-.477v-6.285a.477.477 0 1 1 .954 0v6.289a.477.477 0 0 1 -.477.477" transform="translate(4.603 10.789)"/><path d="m14.533 37.753a2.031 2.031 0 0 1 -1.19-.382 2.364 2.364 0 0 1 -2.867-.262.478.478 0 0 1 -.165-.361v-11.623a.477.477 0 0 1 .954 0v11.384a1.318 1.318 0 0 0 1.742-.1.49.49 0 0 1 .674 0 1.318 1.318 0 0 0 1.742.1v-11.384a.477.477 0 0 1 .954 0v11.623a.478.478 0 0 1 -.165.361 2.713 2.713 0 0 1 -1.679.644" transform="translate(3.901 9.325)"/></g></svg>