<svg height="21.64" viewBox="0 0 17 21.64" width="17" xmlns="http://www.w3.org/2000/svg" xmlns:xlink="http://www.w3.org/1999/xlink"><clipPath id="a"><path d="m0 0h17v21.64h-17z"/></clipPath><g clip-path="url(#a)" fill="#c2b8ed" stroke="#c2b8ed"><path d="m15.063.147h-13.258a1.66 1.66 0 0 0 -1.657 1.653v17.9a1.659 1.659 0 0 0 1.657 1.657h13.258a1.659 1.659 0 0 0 1.657-1.657v-17.9a1.66 1.66 0 0 0 -1.657-1.653m.995 19.553a1 1 0 0 1 -.995.995h-13.258a1 1 0 0 1 -.995-.995v-17.9a1 1 0 0 1 .995-.989h13.258a1 1 0 0 1 .995.993z" transform="translate(.066 .066)"/><path d="m15.063.147h-13.258a1.66 1.66 0 0 0 -1.657 1.653v17.9a1.659 1.659 0 0 0 1.657 1.657h13.258a1.659 1.659 0 0 0 1.657-1.657v-17.9a1.66 1.66 0 0 0 -1.657-1.653zm.995 19.553a1 1 0 0 1 -.995.995h-13.258a1 1 0 0 1 -.995-.995v-17.9a1 1 0 0 1 .995-.989h13.258a1 1 0 0 1 .995.993z" stroke-miterlimit="10" transform="translate(.066 .066)"/><path d="m12.065 4.679h-9.329a.307.307 0 0 0 -.273.331.306.306 0 0 0 .273.331h9.329a.306.306 0 0 0 .275-.331.307.307 0 0 0 -.275-.331" transform="translate(1.099 2.088)"/><path d="m12.065 4.679h-9.329a.307.307 0 0 0 -.273.331.306.306 0 0 0 .273.331h9.329a.306.306 0 0 0 .275-.331.307.307 0 0 0 -.275-.331z" stroke-miterlimit="10" transform="translate(1.099 2.088)"/><path d="m12.065 7.164h-9.329a.337.337 0 0 0 0 .662h9.329a.337.337 0 0 0 0-.662" transform="translate(1.099 3.196)"/><path d="m12.065 7.164h-9.329a.337.337 0 0 0 0 .662h9.329a.337.337 0 0 0 0-.662z" stroke-miterlimit="10" transform="translate(1.099 3.196)"/><path d="m12.065 9.545h-9.329a.337.337 0 0 0 0 .662h9.329a.337.337 0 0 0 0-.662" transform="translate(1.099 4.258)"/><path d="m12.065 9.545h-9.329a.337.337 0 0 0 0 .662h9.329a.337.337 0 0 0 0-.662z" stroke-miterlimit="10" transform="translate(1.099 4.258)"/></g></svg>