<svg height="17.441" viewBox="0 0 17.496 17.441" width="17.496" xmlns="http://www.w3.org/2000/svg"><g fill="#ccbaf2"><path d="m18.444 2.562-1.966-1.962a2.025 2.025 0 0 0 -2.767 0l-2.111 2.108-5.172 5.171a.661.661 0 0 0 -.218.51l-.51 4.005a1.23 1.23 0 0 0 .218.728.9.9 0 0 0 .583.291h.146l4.005-.51a1.087 1.087 0 0 0 .51-.218l5.171-5.171 2.111-2.114a1.977 1.977 0 0 0 0-2.84zm-8.3 8.593-2.622.364.363-2.619 4.3-4.3 2.258 2.258zm7.064-7.064-1.531 1.53-2.258-2.257 1.529-1.529c.073-.073.073-.073.146-.073s.073 0 .146.073l1.02 1.02 1.02 1.02a.36.36 0 0 1 -.073.218z" transform="translate(-1.549 -.05)"/><path d="m15.73 10.74a.841.841 0 0 0 -.874.874v3.2a1.227 1.227 0 0 1 -1.238 1.238h-10.632a1.227 1.227 0 0 1 -1.238-1.238v-10.628a1.227 1.227 0 0 1 1.238-1.238h3.2a.841.841 0 0 0 .874-.874.841.841 0 0 0 -.87-.874h-3.2a3.048 3.048 0 0 0 -2.99 2.986v10.56a3.063 3.063 0 0 0 2.986 3.054h10.56a3 3 0 0 0 2.986-2.986v-3.2a.75.75 0 0 0 -.8-.874z" transform="translate(0 -.363)"/></g></svg>