<svg height="18.377" viewBox="0 0 22.808 18.377" width="22.808" xmlns="http://www.w3.org/2000/svg" xmlns:xlink="http://www.w3.org/1999/xlink"><clipPath id="a"><path d="m0 0h22.808v18.377h-22.808z"/></clipPath><g clip-path="url(#a)" fill="#c2b8ed"><path d="m123.57 11.032a8.617 8.617 0 1 1 16.961.039l.861.281a9.557 9.557 0 0 0 .176-1.834 9.514 9.514 0 1 0 -19.028 0 9.565 9.565 0 0 0 .16 1.782z" transform="translate(-120.671 -.005)"/><path d="m1251.729 544.692s-.911-.028-.938.3a11.415 11.415 0 0 1 -.3 2.871c-.221.331.553.63.994.718.836.166 2.7-.248 2.7-1.767s-1.8-2.2-2.457-2.125" transform="translate(-1231.378 -536.38)"/><path d="m2.457 544.692s.911-.028.938.3a11.413 11.413 0 0 0 .3 2.871c.221.331-.553.63-.994.718-.836.166-2.705-.248-2.705-1.767s1.8-2.2 2.457-2.125" transform="translate(0 -536.38)"/><path d="m918.1 755.158-.184-.722a7.512 7.512 0 0 0 5.007-3.669 6.724 6.724 0 0 0 .815-2.575l.744.038a7.409 7.409 0 0 1 -.9 2.894 7.7 7.7 0 0 1 -1.916 2.305 9.185 9.185 0 0 1 -3.562 1.73" transform="translate(-903.912 -736.781)"/><path d="m291.982 162.409a7.037 7.037 0 1 0 7.037 7.037 7.037 7.037 0 0 0 -7.037-7.037m3.628 7.579-5.5 3.517c-.35.213-.756-.108-.756-.6v-6.924c0-.5.418-.817.768-.589l5.5 3.407a.749.749 0 0 1 -.013 1.186" transform="translate(-280.598 -159.932)"/></g></svg>