<svg height="18.13" viewBox="0 0 18.218 18.13" width="18.218" xmlns="http://www.w3.org/2000/svg" xmlns:xlink="http://www.w3.org/1999/xlink"><clipPath id="a"><path d="m0 0h18.218v18.13h-18.218z"/></clipPath><g fill="#c2b8ed"><path d="m300.566 235.966v5.859l4.419-2.93z" transform="translate(-292.751 -229.831)"/><g clip-path="url(#a)"><path d="m11.977 400.392-1.823 1.819a8.984 8.984 0 0 1 -1.863-3.975l2.5-.508a6.442 6.442 0 0 0 1.184 2.663" transform="translate(-8.075 -387.388)"/><path d="m131.368 549.894a6.49 6.49 0 0 0 3.007 1.253v2.576a9.041 9.041 0 0 1 -4.829-2.006z" transform="translate(-126.177 -535.596)"/><path d="m388.561 550.6 1.823 1.823a9.037 9.037 0 0 1 -4.844 1.991v-2.576a6.481 6.481 0 0 0 3.021-1.238" transform="translate(-375.516 -536.281)"/><path d="m16.162 14.845-1.819-1.819a6.543 6.543 0 0 0 0-7.88 6.1 6.1 0 0 0 -.592-.683 6.875 6.875 0 0 0 -.7-.61 6.489 6.489 0 0 0 -3.025-1.235 6.4 6.4 0 0 0 -1.693-.018c-.044 0-.091.011-.135.018a6.46 6.46 0 0 0 -3.01 1.249c-.142.11-.278.223-.413.343l1.647 1.652-1.516.311-1.786.362-3.12.628.994-4.9.306-1.523 1.663 1.66q.2-.186.406-.351a9.167 9.167 0 0 1 6.655-2.006 9.009 9.009 0 0 1 4.844 1.991 9.137 9.137 0 0 1 .69.621c.216.216.416.438.606.669a9.1 9.1 0 0 1 0 11.522"/></g></g></svg>