<svg height="35.281" viewBox="0 0 40.22 35.281" width="40.22" xmlns="http://www.w3.org/2000/svg"><g stroke-linejoin="round" stroke-width="3" transform="translate(1.5 1.5)"><path d="m22.092 8.8 5.341 5.36 3.557 3.57a2.712 2.712 0 0 1 -2.524 4.608 2.834 2.834 0 0 1 -3.52 3.553 2.834 2.834 0 0 1 -3.52 3.553 2.109 2.109 0 0 1 -3.52 2.131l-15.136-15.275a9.61 9.61 0 0 1 0-13.5 9.4 9.4 0 0 1 13.376 0l2.442 2.465" fill="#00474f" fill-rule="evenodd" stroke="#00474f"/><path d="m35.3 8.836c-2.557 1.965-5.386 1.865-8.448 0l-2.816 2.842c-3.52 3.553-7.04 0-4.928-2.131l6.686-6.747a9.4 9.4 0 0 1 13.376 0 9.613 9.613 0 0 1 .5 12.954" fill="none" stroke="#ccbaf2" stroke-linecap="square" transform="translate(-4.721)"/></g></svg>