<svg height="24.329" viewBox="0 0 25.504 24.329" width="25.504" xmlns="http://www.w3.org/2000/svg" xmlns:xlink="http://www.w3.org/1999/xlink"><clipPath id="a"><path d="m0 0h21.175v19.513h-21.175z"/></clipPath><g clip-path="url(#a)" fill="none" stroke="#c2b8ed" stroke-width=".5" transform="matrix(.966 -.259 .259 .966 0 5.481)"><path d="m6.858.021a3.846 3.846 0 0 0 -2.233 1 3.762 3.762 0 0 0 -.724.892 10.25 10.25 0 0 1 -.829 1.187l-1 1.016c-.038.034-.056.059-.093.091s-.071.051-.12.093c-.1.081-.139.117-.231.192a4.756 4.756 0 0 0 -1.379 1.846 3.087 3.087 0 0 0 .106 2.662 3.45 3.45 0 0 0 1.731 1.5 5.481 5.481 0 0 0 2.8.321c1.03-.141 1.631-.581 2.777-.437a9.413 9.413 0 0 1 1.281.337c2.117.554 4.791-.083 5.428-2.261a3.56 3.56 0 0 0 -.722-3.1 9.388 9.388 0 0 0 -1.688-1.542c-1.327-1.2-1.041-2.157-2.513-3.149a3.962 3.962 0 0 0 -2.591-.648" transform="translate(3.336 8.608)"/><path d="m3.607.019c-1.453.229-2.986 2.14-3.43 3.581-.62 2 .47 4.174 1.984 4.636a2.686 2.686 0 0 0 3.153-1.9 4.6 4.6 0 0 0 .31-1.436 12.143 12.143 0 0 0 -.267-3.2c-.223-.863-.68-1.85-1.75-1.681" transform="translate(4.414 .016)"/><path d="m1.628.022c-.888.173-1.228 1.145-1.414 2.099a11.823 11.823 0 0 0 -.161 3.239 3.354 3.354 0 0 0 2.301 2.94c2.323.476 3.946-2.65 2.977-5.051a6.654 6.654 0 0 0 -.977-1.64l-.417-.457c-.507-.519-1.464-1.294-2.309-1.13" transform="translate(11.24)"/><path d="m3.062.011a3.073 3.073 0 0 0 -1.752 1.377 8.879 8.879 0 0 0 -1.086 2.043 3.542 3.542 0 0 0 .054 2.619 2.1 2.1 0 0 0 3.122.865 3.369 3.369 0 0 0 .456-.315 1.094 1.094 0 0 0 .205-.192c.07-.076.136-.109.2-.193a3.738 3.738 0 0 0 .964-2.172 5.428 5.428 0 0 0 -.425-2.643c-.283-.607-.847-1.51-1.738-1.389" transform="translate(15.924 5.745)"/><path d="m1.921.01c-1.521.199-2.78 3.844-1.173 5.923a5.408 5.408 0 0 0 .552.612c.076.059.142.116.221.177a2.158 2.158 0 0 0 3.521-.86 3.721 3.721 0 0 0 -.1-2.629c-.442-1.111-1.687-3.399-3.021-3.223" transform="translate(0 5.468)"/><path d="m2.6 4.693c-.032.033-.062.064-.1.1s-.088.071-.136.106c-.078.067-.158.132-.237.2a3.958 3.958 0 0 0 -1.151 1.527 2.318 2.318 0 0 0 .072 2.007 2.7 2.7 0 0 0 1.345 1.145 4.709 4.709 0 0 0 2.387.265 9.518 9.518 0 0 0 1.181-.288 4.452 4.452 0 0 1 1.799-.155 10.249 10.249 0 0 1 1.382.356c1.571.411 3.948.094 4.48-1.724a2.8 2.8 0 0 0 -.6-2.415 10.086 10.086 0 0 0 -1.585-1.429 6.378 6.378 0 0 1 -1.413-1.945 2.9 2.9 0 0 0 -1.011-1.132 3.181 3.181 0 0 0 -2.073-.511 3.086 3.086 0 0 0 -1.818.824 2.976 2.976 0 0 0 -.551.689 9.242 9.242 0 0 1 -.915 1.3l-.013.015-1.029 1.051zm4.258-4.672a3.846 3.846 0 0 0 -2.233 1 3.761 3.761 0 0 0 -.724.892 10.244 10.244 0 0 1 -.829 1.187l-1 1.016c-.038.034-.056.059-.093.091s-.071.051-.12.093c-.1.081-.139.117-.231.192a4.757 4.757 0 0 0 -1.379 1.846 3.087 3.087 0 0 0 .106 2.662 3.45 3.45 0 0 0 1.731 1.5 5.481 5.481 0 0 0 2.8.321c1.03-.141 1.631-.581 2.777-.437a9.413 9.413 0 0 1 1.281.337c2.117.554 4.791-.083 5.428-2.261a3.56 3.56 0 0 0 -.722-3.1 9.388 9.388 0 0 0 -1.688-1.542c-1.327-1.2-1.041-2.157-2.513-3.149a3.962 3.962 0 0 0 -2.591-.648" transform="translate(3.336 8.608)"/><path d="m3.729.791c-1.179.186-2.474 1.962-2.805 3.035a3.353 3.353 0 0 0 .158 2.348 2.347 2.347 0 0 0 1.307 1.315c1.011.311 1.862-.555 2.194-1.427a3.862 3.862 0 0 0 .26-1.2 11 11 0 0 0 -.243-2.962 4.117 4.117 0 0 0 -.123-.4c-.128-.349-.31-.778-.749-.708m-.121-.773c-1.453.229-2.986 2.14-3.43 3.581-.62 2 .47 4.174 1.984 4.636a2.686 2.686 0 0 0 3.153-1.9 4.6 4.6 0 0 0 .31-1.436 12.143 12.143 0 0 0 -.267-3.2c-.223-.863-.68-1.85-1.75-1.681" transform="translate(4.414 .016)"/><path d="m3.762 2.119-.392-.43c-.318-.323-1.1-1-1.593-.9-.513.1-.713 1.06-.8 1.484a10.487 10.487 0 0 0 -.15 2.978 2.644 2.644 0 0 0 1.685 2.282 1.446 1.446 0 0 0 .828-.064 2.475 2.475 0 0 0 1.287-1.514 3.469 3.469 0 0 0 -.021-2.414 5.8 5.8 0 0 0 -.845-1.421m-2.133-2.098c-.888.173-1.228 1.145-1.414 2.099a11.823 11.823 0 0 0 -.161 3.239 3.354 3.354 0 0 0 2.301 2.94c2.323.476 3.946-2.65 2.977-5.051a6.655 6.655 0 0 0 -.977-1.64l-.417-.457c-.507-.519-1.464-1.294-2.309-1.13" transform="translate(11.24)"/><path d="m3.427 5.942c.02-.021.04-.043.059-.064a2.326 2.326 0 0 1 .18-.166 2.973 2.973 0 0 0 .785-1.749 4.639 4.639 0 0 0 -.364-2.237c-.135-.292-.506-1-.92-.941-.468.064-.972.72-1.23 1.068a7.732 7.732 0 0 0 -.973 1.828 2.789 2.789 0 0 0 .017 2.03 1.328 1.328 0 0 0 2.037.525 3.04 3.04 0 0 0 .36-.256zm-.365-5.931a3.073 3.073 0 0 0 -1.752 1.377 8.879 8.879 0 0 0 -1.086 2.043 3.542 3.542 0 0 0 .054 2.619 2.1 2.1 0 0 0 3.122.865 3.366 3.366 0 0 0 .456-.315 1.093 1.093 0 0 0 .205-.192c.07-.076.136-.109.2-.193a3.738 3.738 0 0 0 .964-2.172 5.428 5.428 0 0 0 -.425-2.643c-.283-.607-.847-1.51-1.738-1.389" transform="translate(15.924 5.745)"/><path d="m1.787 5.934c.071.055.139.114.21.169a1.385 1.385 0 0 0 2.315-.519 2.953 2.953 0 0 0 -.093-2.063 8.527 8.527 0 0 0 -.843-1.592c-.222-.329-.886-1.206-1.353-1.145-.338.044-.7.641-.829.911a4.353 4.353 0 0 0 -.394 2.223 2.942 2.942 0 0 0 .568 1.537 4.058 4.058 0 0 0 .42.479m.133-5.924c-1.521.199-2.78 3.844-1.173 5.923a5.408 5.408 0 0 0 .552.612c.076.059.142.116.221.177a2.158 2.158 0 0 0 3.521-.86 3.721 3.721 0 0 0 -.1-2.629c-.442-1.111-1.687-3.399-3.021-3.223" transform="translate(0 5.468)"/></g></svg>