<svg height="41.73" viewBox="0 0 41.73 41.73" width="41.73" xmlns="http://www.w3.org/2000/svg"><path d="m8.694 0v5.216h3.478v-5.216zm6.955 0v5.216h3.478v-5.216zm6.951 0v5.216h3.478v-5.216zm6.955 0v5.216h3.478v-5.216zm-29.555 8.694v3.478h5.216v-3.478zm36.514 0v3.478h5.216v-3.478zm-36.514 6.955v3.478h5.216v-3.478zm36.514 0v3.478h5.216v-3.478zm-36.514 6.951v3.478h5.216v-3.478zm36.514 0v3.478h5.216v-3.478zm-36.514 6.959v3.478h5.216v-3.478zm36.514 0v3.478h5.216v-3.478zm-27.82 6.955v5.216h3.478v-5.216zm6.955 0v5.216h3.478v-5.216zm6.955 0v5.216h3.478v-5.216zm6.955 0v5.216h3.478v-5.216z" fill="#ccbaf2"/><path d="m8.333 8.333v27.82h27.82v-27.82z" fill="#00474f" transform="translate(-1.378 -1.378)"/><path d="m16.667 18.75h13.91v10.433h-13.91z" fill="#fff" transform="translate(-2.757 -3.101)"/></svg>