<svg height="26" viewBox="0 0 25 26" width="25" xmlns="http://www.w3.org/2000/svg"><g fill="none" fill-rule="evenodd" stroke="#ccbaf2" stroke-linejoin="round" transform="translate(1 1)"><path d="m8.95150485 3.00001103c.01852191.05462791.01852191.14559629-.07244646.21780829l-2.10774653 1.65360804 4.12382134 4.12382131c.1092558.10925583.1092558.29095812 0 .41803249l-1.47190577 1.47190574c-.10925583.1092558-.29095811.1092558-.41803249 0l-4.12382131-4.12382131-1.65337359 2.10774653c-.07244646.09073391-.16341483.09073391-.21804274.07244646-.05462791-.01852191-.12683992-.03634046-.16318038-.16341483l-1.83531032-7.52083349c-.01828745-.10925583.01852191-.16341483.05462791-.2002242.03634046-.036106.10949029-.07244646.2002242-.05462791l7.52106794 1.83531032c.12777774.03540264.16388374.12637101.16388374.16247702zm-7.44862148-2.96139559c-.41803249-.10949028-.83606498.01828746-1.14484164.32706412-.3085422.29095811-.41803248.72680914-.32706411 1.14460718l1.83531032 7.52106794c.10925583.45413849.45413849.79902115.90827698.88998952.45413849.0907339.90851143-.07244646 1.19946955-.43585103l.96290489-1.23557555 3.34261871 3.34261868c.49024449.4902445 1.30778755.4902445 1.81655393 0l1.4719058-1.4719057c.4904789-.49047897.4904789-1.30802203 0-1.81678843l-3.34238428-3.34238426 1.23557555-.96313935c.36317012-.29095811.52658495-.7450966.43561658-1.19923509-.09073392-.45413849-.43561658-.79902115-.88998953-.90851143z" fill="#ccbaf2" stroke-width=".5" transform="translate(11.037294 12.03978)"/><g stroke-width="2"><path d="m9.45025387 14.58645c-2.83666576 0-5.13619612-2.2995304-5.13619612-5.13619613 0-2.83666576 2.29953036-5.13619612 5.13619612-5.13619612 2.83666573 0 5.13619613 2.29953036 5.13619613 5.13619612 0 .3544953-.0358716.70078473-.1043323 1.03511693"/><path d="m9.97416604 18.8862529c-.17349638.0093782-.34816503.0143017-.52400595.0143017-5.21919304 0-9.45016009-4.230967-9.45016009-9.45039451 0-5.21919304 4.23096705-9.45016009 9.45016009-9.45016009 5.21942751 0 9.45039451 4.23096705 9.45039451 9.45016009 0 .76408741-.0907339 1.50707391-.2618857 2.21864351"/></g></g></svg>