<svg height="22" viewBox="0 0 28 22" width="28" xmlns="http://www.w3.org/2000/svg"><g fill="none" fill-rule="evenodd"><path d="m14 17v4" stroke="#ccbaf2" stroke-width="2"/><path d="m26 21h-6s-1-4-1-7h8c0 3-1 7-1 7z" stroke="#ccbaf2" stroke-width="2"/><g fill="#ccbaf2" fill-rule="nonzero"><path d="m8 22h9.158l-.068-.272c-.017-.068-.183-.741-.381-1.728h-8.709z"/><path d="m0 0v18h16.355c-.098-.64-.187-1.318-.251-2h-14.104v-14h24v2h2v-4z"/><path d="m20 14c0-5-1-8-1-8s3 3 3 8"/><path d="m24 14c0-5 3-8 3-8s-1 3-1 8"/><path d="m22 14c0-5 1-11 1-11s1 6 1 11"/></g></g></svg>