<svg height="52" viewBox="0 0 51 52" width="51" xmlns="http://www.w3.org/2000/svg"><g fill="none" fill-rule="evenodd"><g stroke="#ccbaf2" stroke-width="3" transform="translate(2.388889 2)"><circle cx="16.666667" cy="9.722222" r="9.722222"/><path d="m21.0592241 41.3330573c-9.5034693 1.4747039-21.0592241-1.939734-21.0592241-10.2433137v-1.7875c0-1.6088675 1.27581808-2.9133547 2.84932703-2.9133547h21.74675477 5.8879245c1.573509 0 2.849327 1.3044872 2.849327 2.9133547v1.7875c-.0011494 5.7989844-5.6371559 9.2134223-12.2741092 10.2433137z"/></g><circle cx="37.111111" cy="38.111111" fill="#241c47" r="13.888889"/><g transform="translate(26 26)"><path d="m12.5 0c-6.90340909 0-12.5 5.59659091-12.5 12.5 0 6.9034091 5.59659091 12.5 12.5 12.5 6.9034091 0 12.5-5.5965909 12.5-12.5 0-6.90340909-5.5965909-12.5-12.5-12.5z" fill="#706a8a"/><path d="m13 7c5.8304562 0 8.7268732 4.7444034 8.8472627 4.9457034.2036497.3432.2036497.7653932 0 1.1085932-.1203895.2024-3.0168065 4.9457034-8.8472627 4.9457034-5.83045621 0-8.72687317-4.7444034-8.84726275-4.9457034-.20364967-.3432-.20364967-.7653932 0-1.1085932.12038958-.2013 3.01680654-4.9457034 8.84726275-4.9457034z" fill="#241c47"/><path d="m12.5 9c-1.9331667 0-3.5 1.5668333-3.5 3.5s1.5668333 3.5 3.5 3.5 3.5-1.5668333 3.5-3.5-1.5668333-3.5-3.5-3.5z" fill="#706a8a"/></g></g></svg>