<svg height="50" viewBox="0 0 54 50" width="54" xmlns="http://www.w3.org/2000/svg"><g fill="none" fill-rule="evenodd" transform="translate(2)"><path d="m20.7317073 36.1463415h8.5365854c2.0731707 0 3.6585366-1.5853659 3.6585366-3.6585366 0-2.0731708-1.5853659-3.6585366-3.6585366-3.6585366h-5.3658537c-7.0731707 0-7.1951219-1.2195122-11.3414634-1.2195122-7.80487804 0-12.5609756 10.3658537-12.5609756 10.3658537" stroke="#ccbaf2" stroke-linejoin="round" stroke-width="3"/><path d="m8.53658537 49.5609756s1.21951219-4.8780488 6.09756093-4.8780488c5 0 9.8780488 1.2195122 14.6341464 1.2195122 3.4146341 0 6.4634146-3.4146341 19.7560975-14.5121951l-.1219512.1219512c1.4634147-1.4634146 1.4634147-3.7804878 0-5.1219512-1.4634146-1.4634146-3.2926829-1.3414634-5.1219512 0s-12.3170732 9.1463415-12.3170732 9.1463415" stroke="#ccbaf2" stroke-linejoin="round" stroke-width="3"/><path d="m9.2 0c-3.17563731 0-5.75 2.57436269-5.75 5.75s2.57436269 5.75 5.75 5.75c3.1756373 0 5.75-2.57436269 5.75-5.75s-2.5743627-5.75-5.75-5.75zm6.912075 13.8h-13.82415c-1.26155 0-2.287925 1.026375-2.287925 2.287925v.874575c0 1.9044 1.083875 3.5512 3.051525 4.636225 1.637025.9039 3.820875 1.401275 6.148475 1.401275 4.43095 0 9.2-1.88945 9.2-6.0375v-.874575c0-1.26155-1.026375-2.287925-2.287925-2.287925z" fill="#655f7d" fill-rule="nonzero" transform="translate(15)"/></g></svg>