<svg height="15" viewBox="0 0 15 15" width="15" xmlns="http://www.w3.org/2000/svg"><g fill="#fff"><path d="m10.8333333 0h-6.66666663c-2.30083334 0-4.16666667 1.86583333-4.16666667 4.16666667v6.66666663c0 2.3008334 1.86583333 4.1666667 4.16666667 4.1666667h6.66666663c2.3008334 0 4.1666667-1.8658333 4.1666667-4.1666667v-6.66666663c0-2.30083334-1.8658333-4.16666667-4.1666667-4.16666667zm-3.3333333 11.6666667c-2.30083333 0-4.16666667-1.86583337-4.16666667-4.1666667s1.86583334-4.16666667 4.16666667-4.16666667 4.1666667 1.86583334 4.1666667 4.16666667-1.86583337 4.1666667-4.1666667 4.1666667zm5-8.33333337c-.46 0-.8333333-.37333333-.8333333-.83333333s.3733333-.83333333.8333333-.83333333.8333333.37333333.8333333.83333333-.3733333.83333333-.8333333.83333333z"/><path d="m7.5 5c-1.38071187 0-2.5 1.11928813-2.5 2.5s1.11928813 2.5 2.5 2.5 2.5-1.11928813 2.5-2.5-1.11928813-2.5-2.5-2.5z"/></g></svg>