<svg height="39" viewBox="0 0 36 39" width="36" xmlns="http://www.w3.org/2000/svg"><g fill="none" fill-rule="evenodd"><circle cx="10" cy="7" r="5.5" stroke="#ccbaf2" stroke-width="3"/><g fill-rule="nonzero"><circle cx="26" cy="7" fill="#00474f" r="7"/><path d="m14.489 32.364c-1.217 1.02-2.782 1.636-4.489 1.636-3.859 0-7-3.141-7-7v-7.5c0-.275.225-.5.5-.5h10.525c.103-1.133.548-2.169 1.236-3h-11.761c-1.93 0-3.5 1.57-3.5 3.5v7.5c0 5.514 4.486 10 10 10 2.133 0 4.108-.677 5.733-1.82-.528-.874-.951-1.816-1.244-2.816z" fill="#ccbaf2"/><path d="m32.5 16h-13c-1.93 0-3.5 1.57-3.5 3.5v9.5c0 5.514 4.486 10 10 10s10-4.486 10-10v-9.5c0-1.93-1.57-3.5-3.5-3.5z" fill="#00474f"/></g></g></svg>