<svg height="43" viewBox="0 0 23 43" width="23" xmlns="http://www.w3.org/2000/svg"><g fill="none" fill-rule="evenodd" transform="translate(2 2)"><circle cx="9.5" cy="5.5" r="5.5" stroke="#ccbaf2" stroke-width="3"/><path d="m19 18.235c0-1.235-1.001-2.235-2.235-2.235h-14.53c-1.235 0-2.235 1.001-2.235 2.235v11.264c0 5.247 4.253 9.5 9.5 9.5s9.5-4.253 9.5-9.5c0-.189 0-11.264 0-11.264z" stroke="#ccbaf2" stroke-width="3"/><g fill="#00474f" fill-rule="nonzero"><path d="m10.7001631 17.812c-.120129-.5675484-.620258-.9732903-1.20006447-.9732903-.57980646 0-1.07993549.4057419-1.20006452.9732903l-2.4516129 11.6451613c-.076.3579355.01348387.7318064.24148387 1.0186452l2.4516129 3.0645161c.23412903.2905161.58593549.4596774.95858065.4596774s.72445157-.1691613.95735487-.4596774l2.4516129-3.0645161c.2292258-.285613.3174838-.6594839.2414838-1.0186452z"/><path d="m5.61582947 14.481288 2.17549496 4.1311636c.20716129.4155484.63129033.677871 1.09587097.677871h1.2258065c.4645806 0 .8887096-.2623226 1.0970967-.677871l2.2372262-4.1311636z"/></g></g></svg>