<svg height="47" viewBox="0 0 54 47" width="54" xmlns="http://www.w3.org/2000/svg"><g fill="none" fill-rule="evenodd" stroke-linejoin="round" stroke-width="3" transform="translate(2 2)"><path d="m29.6787441 11.8193623c3.1888287 3.2004332 5.5804502 5.600758 7.1748646 7.2009746 1.0618921 1.0657564 2.6547302 2.6643909 4.7785143 4.7959037 2.8376961 2.863284.0639697 7.0443438-3.3903943 6.190988.9454722 2.8632839-1.8909444 5.7278473-4.7286405 4.7734193.9454722 2.8632839-1.8909444 5.7278473-4.7286405 4.7734193.9454722 2.8632839-2.4551573 4.9435787-4.7286405 2.8632839l-20.33468952-20.5240398c-4.96149024-5.0088278-4.96149024-13.12914201 0-18.13669044 4.96149024-5.00882781 13.00759962-5.00882781 17.96908982 0l3.2803664 3.31107188" fill="#00474f" stroke="#00474f"/><path d="m41.0781454 11.8705381c-3.4351731 2.63939-7.2362529 2.5050536-11.3495049 0l-3.7831683 3.8177119c-4.7286405 4.7734194-9.457281 0-6.6208643-2.8632839l8.9851846-9.06834524c4.9614902-5.00882781 13.0075996-5.00882781 17.9690898 0 4.7259527 4.77104302 4.9503086 12.36516074.6730675 17.40313844" stroke="#ccbaf2" stroke-linecap="square"/></g></svg>