<svg height="38" viewBox="0 0 37 38" width="37" xmlns="http://www.w3.org/2000/svg"><g fill="none" fill-rule="evenodd" transform="translate(1 2)"><g stroke="#ccbaf2" stroke-width="3" transform="translate(1)"><circle cx="12" cy="7" r="7"/><path d="m15.1626414 29.7598012c-6.84249792 1.0617868-15.1626414-1.3966085-15.1626414-7.3751858v-1.287c0-1.1583846.91858901-2.0976154 2.05151546-2.0976154h15.65766344 4.2393056c1.1329265 0 2.0515155.9392308 2.0515155 2.0976154v1.287c-.0008276 4.1752688-4.0587523 6.6336641-8.8373586 7.3751858z"/></g><circle cx="26" cy="26" fill="#f3f3f3" r="10"/><path d="m26.8965517 16.9655172c-5.0275862 0-9.1034483 4.0758621-9.1034483 9.1034483s4.0758621 9.1034483 9.1034483 9.1034483 9.1034483-4.0758621 9.1034483-9.1034483-4.0758621-9.1034483-9.1034483-9.1034483zm5.7931035 9.9310345h-4.9655173v4.9655173c0 .4568276-.3707586.8275862-.8275862.8275862s-.8275862-.3707586-.8275862-.8275862v-4.9655173h-4.9655172c-.4568276 0-.8275862-.3707586-.8275862-.8275862s.3707586-.8275862.8275862-.8275862h4.9655172v-4.9655172c0-.4568276.3707586-.8275862.8275862-.8275862s.8275862.3707586.8275862.8275862v4.9655172h4.9655173c.4568276 0 .8275862.3707586.8275862.8275862s-.3707586.8275862-.8275862.8275862z" fill="#00474f" fill-rule="nonzero"/></g></svg>