<svg height="50" viewBox="0 0 44 50" width="44" xmlns="http://www.w3.org/2000/svg"><g fill="none"><circle cx="17.269736" cy="26.190574" fill="#ccbaf2" r="2.380961"/><circle cx="29.174543" cy="26.190574" fill="#ccbaf2" r="2.380961"/><path d="m3.52444666 23.2619919c-1.54762485.4428588-2.75953415 1.6381014-3.16429757 3.1214403-1.02024192 3.7404902.12976239 8.3738409 3.41667947 13.7702897 3.28215515 5.3893059 6.93454974 8.6488419 10.85480254 9.6857506 1.5654821.4142872 3.2726313.0130952 4.4535881-1.0464325l1.3773862-1.235719c1.1238137-1.0083371 1.2881-2.6666766.3821442-3.8571573l-1.9904836-2.6142955c-.7773839-1.0214324-2.152389-1.4607197-3.4226319-1.0916707l-3.1238212.9047653c-.8154792.2297627-1.5226248-.3666681-1.7904829-.5904784-.64762147-.5440497-1.35833842-1.448815-2.11310315-2.6881053-1.61905369-2.6595338-1.5011961-3.6571566-1.46310072-3.9857293.04166682-.3500013.21428651-.676193.48690658-.9166701l2.32262775-2.0523886c.97143224-.859527 1.25833804-2.2083416.71309794-3.355965l-1.40119575-2.9547729c-.63690715-1.3428622-2.24048459-2.0345315-3.72501396-1.6095299z" fill="#00474f"/><path d="m41.0793493 21.4726995v-1.8297688c0-1.7250064-.3488109-3.2726313-.6952407-4.3845402.6940502-.3857157 1.2500047-.9892894 1.5761964-1.7285779.426192-.9666703.4119063-2.0654839-.0428573-3.016678-3.1976311-6.68097738-9.7940844-10.5131346-18.1000679-10.5131346-11.5548052 0-18.45245006 6.45240513-18.45245006 17.2619694v1.8559594c1.23333796-.1547625 2.46667591.027381 3.57144196.5059543v-2.3619137c0-8.70122304 5.4238298-13.69052745 14.8810081-13.69052745 6.8750258 0 12.2988556 3.09286873 14.8060079 8.57622265-1.5607201.4726208-4.7190653.9476226-8.2583643.9476226-8.5119366 0-11.8179014-3.0345352-11.8321872-3.048821-.4250016-.4238111-1.0380991-.59762127-1.6261965-.47381129-.5880975.12023855-1.0809565.54047819-1.3035764 1.09643269-.0047619.0142858-.5714307 1.3904814-2.3988185 2.796439-.7809553.6011928-.9273844 1.7226255-.3250012 2.5047713.6000023.7809553 1.7226255.9273845 2.5047713.3250013 1.0988136-.8452413 1.8845309-1.7011969 2.4333425-2.4297711 2.0809601 1.201195 6.0714513 2.801201 12.547666 2.801201 2.5321524 0 4.7952561-.2190484 6.5583579-.5035733.2750011.8404793.584526 2.092865.584526 3.4797749v2.8321535c0 .6892883.3964301 1.3166716 1.0190515 1.6119108.8404793.4000015 1.3619098 1.2059569 1.3619098 2.1035793 0 1.2892906-1.0309562 2.3428659-2.3119134 2.3797708-.0500002-.0035714-.1000004-.0059524-.1416672-.0059524-.8440508 0-1.5738154.5928594-1.7476256 1.419053-1.5726249 7.4928852-5.9214508 12.9250484-10.8845646 13.8940997.3047631 1.2154807.2333342 2.4809616-.180953 3.655966 6.5143101-.7583361 12.0524261-6.7678825 14.269101-15.5536297 2.6166765-.6250023 4.5690648-2.9833445 4.5690648-5.7893074 0-1.8916737-.8892891-3.6142992-2.3809613-4.7178748z" fill="#ccbaf2"/></g></svg>