<svg height="50" viewBox="0 0 50 50" width="50" xmlns="http://www.w3.org/2000/svg"><g fill="none" fill-rule="evenodd"><path d="m33.0828593 49v-3.0474352l2.4641923.4116005c4.0032153.6682046 7.7901087-2.0351561 8.4584336-6.0382511.0667362-.3999367.1002848-.804563.1002848-1.2099108v-6.0234609l2.2903172-.5708057c1.9687805-.4918043 3.1659453-2.486558 2.6740208-4.4553385-.102329-.4094362-.2744004-.7981901-.5086388-1.1491869l-4.4556992-6.6846912v-1.8372319c0-10.83917543-10.9714456-19.48603375-24.0495933-18.28333764-12.11714521 1.09014626-21.05632048 11.79681104-19.96617422 23.91395624.64307326 7.1478772 4.72781498 13.5343594 10.94703562 17.1157532v7.8583399z" fill="#00474f" fill-rule="nonzero" transform="translate(.53153 .9375)"/><g stroke="#ccbaf2" stroke-linecap="square" stroke-linejoin="round" stroke-width="3" transform="translate(9.600771 8.574738)"><path d="m14.0106575 8.24962845c2.1457569.95526911 3.1108404 3.46922995 2.1554077 5.61498685-.9552691 2.1457569-3.4692299 3.1108404-5.6149868 2.1554077-2.14575687-.9552691-3.1108404-3.4692299-2.1554077-5.6149868.95526911-2.14575692 3.4692299-3.11067687 5.6149868-2.15540775z"/><path d="m4.18863693.25809715c1.50202983.66868838 2.1775883 2.42846094 1.50878541 3.93049077-.66868838 1.50202982-2.42846094 2.17758829-3.93049077 1.50878541-1.50202982-.66868838-2.17758829-2.42846094-1.50878541-3.93049077.66868838-1.50202983 2.42846094-2.1774738 3.93049077-1.50878541z"/><path d="m21.2930722 2.37115857c1.2874542.57316147 1.8665043 2.08153795 1.2932447 3.36899209-.5731615 1.28745414-2.081538 1.86650426-3.3689921 1.29324464-1.2874542-.57316147-1.8665043-2.08153795-1.2932447-3.36899209.5731615-1.28745414 2.081538-1.86640611 3.3689921-1.29324464z"/><path d="m19.1652399 17.0652359c.8582957.3821045 1.2443259 1.3876805.862156 2.2459762-.3821045.8582957-1.3876806 1.2443259-2.2459763.862156-.8582957-.3821045-1.2443259-1.3876806-.862156-2.2459763.3821045-.8582956 1.3876806-1.2442605 2.2459763-.8621559z"/><path d="m5.8720584 17.7921724c1.28745414.5731615 1.86650425 2.0815379 1.29324464 3.3689921-.57316147 1.2874541-2.08153795 1.8665042-3.36899209 1.2932446-1.28745414-.5731614-1.86650425-2.0815379-1.29324464-3.3689921.57316147-1.2874541 2.08153795-1.8664061 3.36899209-1.2932446z"/><path d="m6.00602 5.714854 2.768429 3.229834" transform="matrix(.99705449 -.07669649 .07669649 .99705449 -.5404 .588395)"/><path d="m15.690133 15.589284.553685.645966" transform="matrix(.99705449 -.07669649 .07669649 .99705449 -1.173384 1.271481)"/><path d="m15.974369 9.131956 2.277896-2.231107" transform="matrix(.99994617 -.01037627 .01037627 .99994617 -.082259 .178004)"/><path d="m7.474196 17.690418 1.937901-1.661057" transform="matrix(.99705449 -.07669649 .07669649 .99705449 -1.268225 .697221)"/></g></g></svg>