<svg height="50" viewBox="0 0 50 50" width="50" xmlns="http://www.w3.org/2000/svg"><g fill="none" fill-rule="evenodd" transform="translate(1 2)"><g stroke="#ccbaf2" stroke-linecap="square" stroke-linejoin="round" stroke-width="3"><path d="m24 8.5h16"/><path d="m24 14.5h8.666667"/><rect height="23" rx="3" width="31" x="16"/></g><circle cx="15.5" cy="18.257904" fill="#00474f" fill-rule="nonzero" r="9.3"/><path d="m15.7877404 26.5245705c-.0965572.0032186-.1905395.0141617-.2877404.0141617-.0972009 0-.1911832-.0109431-.2877404-.0141617-8.42686569.1538478-15.2122596 7.028718-15.2122596 15.4929192v5.3331741h31v-5.3331741c0-8.4642012-6.7853939-15.3390714-15.2122596-15.4929192z" fill="#00474f" fill-rule="nonzero"/><path d="m3 17h13c1.6568542 0 3-1.3431458 3-3v-7.17106381c0-1.65685425-1.3431458-3-3-3h-1.1200383v-3.82893619l-4.3531516 3.82893619h-7.5268101c-1.65685425 0-3 1.34314575-3 3v7.17106381c0 1.6568542 1.34314575 3 3 3z" fill="#fff" stroke="#ccbaf2" stroke-linecap="square" stroke-linejoin="round" stroke-width="3" transform="matrix(1 0 0 -1 28 46)"/><circle cx="33.5" cy="35.5" fill="#ccbaf2" r="1.5"/><circle cx="37.5" cy="35.5" fill="#ccbaf2" r="1.5"/><circle cx="41.5" cy="35.5" fill="#ccbaf2" r="1.5"/></g></svg>