<svg height="50" viewBox="0 0 50 50" width="50" xmlns="http://www.w3.org/2000/svg"><g fill="none" fill-rule="evenodd"><g transform="translate(15 13)"><path d="m3.63636364 10.8333333v-4.51388886c0-3.49013279 2.84909704-6.31944444 6.36363636-6.31944444 3.5145393 0 6.3636364 2.82931165 6.3636364 6.31944444v4.51388886" stroke="#ccbaf2" stroke-linecap="square" stroke-linejoin="round" stroke-width="3"/><rect fill="#00474f" fill-rule="nonzero" height="15.833333" rx="3" width="20" y="8.333333"/></g><g fill="#ccbaf2"><path d="m25 5.76923077-2.2607125 1.1885269.4317577-2.51734037-1.8289549-1.78279036 2.5275534-.36727501 1.1303563-2.29035193 1.1303563 2.29035193 2.5275534.36727501-1.8289549 1.78279036.4317577 2.51734037z"/><path d="m3.84615385 26.9230769-2.26071251 1.1885269.43175767-2.5173403-1.82895484-1.7827904 2.52755342-.367275 1.13035626-2.2903519 1.13035625 2.2903519 2.52755342.367275-1.82895483 1.7827904.43175766 2.5173403z"/><path d="m43.2692308 36.5384615-2.2607125 1.1885269.4317576-2.5173403-1.8289548-1.7827904 2.5275534-.367275 1.1303563-2.2903519 1.1303562 2.2903519 2.5275534.367275-1.8289548 1.7827904.4317577 2.5173403z"/><path d="m43.2692308 17.3076923-2.2607125 1.1885269.4317576-2.5173404-1.8289548-1.7827903 2.5275534-.367275 1.1303563-2.290352 1.1303562 2.290352 2.5275534.367275-1.8289548 1.7827903.4317577 2.5173404z"/><path d="m6.73076923 36.5384615-2.26071251 1.1885269.43175767-2.5173403-1.82895484-1.7827904 2.52755343-.367275 1.13035625-2.2903519 1.13035626 2.2903519 2.52755341.367275-1.82895483 1.7827904.43175767 2.5173403z"/><path d="m6.73076923 17.3076923-2.26071251 1.1885269.43175767-2.5173404-1.82895484-1.7827903 2.52755343-.367275 1.13035625-2.290352 1.13035626 2.290352 2.52755341.367275-1.82895483 1.7827903.43175767 2.5173404z"/><path d="m35.5769231 45.1923077-2.2607125 1.1885269.4317576-2.5173404-1.8289548-1.7827903 2.5275534-.367275 1.1303563-2.290352 1.1303562 2.290352 2.5275535.367275-1.8289549 1.7827903.4317577 2.5173404z"/><path d="m35.5769231 9.61538462-2.2607125 1.18852688.4317576-2.51734036-1.8289548-1.78279035 2.5275534-.36727501 1.1303563-2.29035193 1.1303562 2.29035193 2.5275535.36727501-1.8289549 1.78279035.4317577 2.51734036z"/><path d="m14.4230769 45.1923077-2.2607125 1.1885269.4317577-2.5173404-1.8289549-1.7827903 2.5275535-.367275 1.1303562-2.290352 1.1303563 2.290352 2.5275534.367275-1.8289548 1.7827903.4317576 2.5173404z"/><path d="m14.4230769 9.61538462-2.2607125 1.18852688.4317577-2.51734036-1.8289549-1.78279035 2.5275535-.36727501 1.1303562-2.29035193 1.1303563 2.29035193 2.5275534.36727501-1.8289548 1.78279035.4317576 2.51734036z"/><path d="m25 48.0769231-2.2607125 1.1885269.4317577-2.5173404-1.8289549-1.7827903 2.5275534-.3672751 1.1303563-2.2903519 1.1303563 2.2903519 2.5275534.3672751-1.8289549 1.7827903.4317577 2.5173404z"/><path d="m46.1538462 26.9230769-2.2607126 1.1885269.4317577-2.5173403-1.8289548-1.7827904 2.5275534-.367275 1.1303563-2.2903519 1.1303562 2.2903519 2.5275534.367275-1.8289548 1.7827904.4317577 2.5173403z"/></g></g></svg>