<svg height="50" viewBox="0 0 50 50" width="50" xmlns="http://www.w3.org/2000/svg"><g fill="none" fill-rule="evenodd" transform="translate(4 2)"><path d="m0 .5h42v47h-42z" fill="#00474f" fill-rule="nonzero"/><g stroke-linecap="square" stroke-linejoin="round" stroke-width="3"><path d="m21.5-5.5v12" stroke="#ccbaf2" transform="matrix(0 -1 1 0 21 22)"/><g stroke="#000"><path d="m11.5 6v10" opacity=".3" transform="matrix(0 -1 1 0 .5 22.5)"/><path d="m11.5 13v10" opacity=".3" transform="matrix(0 -1 1 0 -6.5 29.5)"/><path d="m20.62 10.5v28" opacity=".3" transform="matrix(0 -1 1 0 -3.88 45.12)"/><path d="m20.62 17.5v28" opacity=".3" transform="matrix(0 -1 1 0 -10.88 52.12)"/><path d="m20.62 24.5v28" opacity=".3" transform="matrix(0 -1 1 0 -17.88 59.12)"/></g></g><path d="m29.5 20c3.5898509 0 6.5-2.9101491 6.5-6.5 0 0-4.5385198 0-6.5 0 0-1.4437557 0-6.5 0-6.5-3.5898509 0-6.5 2.91014913-6.5 6.5 0 3.5898509 2.9101491 6.5 6.5 6.5z" fill="#000" opacity=".3"/><g stroke="#ccbaf2" stroke-linecap="square" stroke-linejoin="round" stroke-width="3"><circle cx="18.5" cy="30.5" r="9.5"/><path d="m11.5 37.5-7 7"/></g></g></svg>