<svg height="50" viewBox="0 0 50 50" width="50" xmlns="http://www.w3.org/2000/svg"><g fill="none" fill-rule="evenodd" transform="translate(2.25 3.403226)"><g stroke="#ccbaf2" stroke-linecap="square" stroke-linejoin="round" stroke-width="3" transform="translate(4.25)"><path d="m4.879381 13.076289h15.241238" transform="matrix(0 1 -1 0 25.576289 .576289)"/><path d="m22.879381 13.076289h15.241238" transform="matrix(0 1 -1 0 43.576289 -17.423711)"/><path d="m30.5 14.596774h12" transform="matrix(0 1 -1 0 51.096774 -21.903226)"/><path d="m-3.891753 10.391753h20.783506" transform="matrix(0 1 -1 0 16.891753 3.891753)"/><path d="m14.108247 10.391753h20.783506" transform="matrix(0 1 -1 0 34.891753 -14.108247)"/><path d="m9.147423 11.084536h18.705154" transform="matrix(0 1 -1 0 29.238144 -7.069072)"/><path d="m-4 14.096774h9" transform="matrix(0 1 -1 0 14.596774 13.596774)"/></g><g fill="#00474f"><path d="m45.5 31.6324885c0-12.5644781-10.1855219-22.75000002-22.75-22.75000002s-22.75 10.18552192-22.75 22.75000002z"/><path d="m0 31.632489h45.5v3h-45.5z"/><path d="m0 37.632489h45.5v3h-45.5z"/></g><path d="m28.75 20.81106v16.071429" stroke="#ccbaf2" stroke-linecap="square" stroke-linejoin="round" stroke-width="3" transform="matrix(.70710678 .70710678 -.70710678 .70710678 28.81843 -11.880295)"/><circle cx="22.75" cy="35.596774" fill="#ccbaf2" r="4"/></g></svg>