<svg height="50" viewBox="0 0 50 50" width="50" xmlns="http://www.w3.org/2000/svg"><g fill="none" fill-rule="evenodd"><rect height="17" rx="8" stroke="#ccbaf2" stroke-linecap="square" stroke-linejoin="round" stroke-width="3" width="46" x="2" y="2"/><path d="m13 10.5h25" stroke="#ccbaf2" stroke-linecap="square" stroke-linejoin="round" stroke-width="3"/><path d="m22.5648076 19.5889109-20.25469263-19.21414737c-.3999684-.37804109-.9829887-.48021436-1.4845509-.26007741-.50156221.22106579-.82556407.72264365-.82556407 1.27809469v27.86543659c0 .5359453.30295089 1.0245193.77888583 1.2558024.47501968.2331408 1.04065005.1671926 1.45251682-.1681215l5.59406603-4.5439239 5.28745412 12.35925c.3020356.7059244 1.111125 1.0300923 1.805807.7226437l4.19738-1.850265c.6955972-.3065198 1.0141075-1.1266925.7120719-1.8326169l-2.7860499-6.5121525-2.5014042-5.8461686 7.2433636-.8498958c.5317658-.0622328.9793277-.4328432 1.1468202-.9483537.1674925-.5173683.024712-1.0839655-.3661038-1.4555047z" fill="#00474f" fill-rule="nonzero" transform="translate(21 10)"/></g></svg>