<svg height="50" viewBox="0 0 50 50" width="50" xmlns="http://www.w3.org/2000/svg"><g fill="none" fill-rule="evenodd" transform="translate(-.069128 -.118278)"><path d="m12.0276401 0 1.6833084 2.67421195.34971.15573848c.9021607-.0894444 1.8120382-.07120476 2.7099897.05436816.0757647.01052287.1515293.02174726.2269432.03402394.0378824-.0641895.076817-.12872977.1182069-.1936208.1725751-.27289309.3546207-.51176223.526845-.73870545.1336405-.17608269.2620195-.34515013.3777711-.51632214.1276775-.18835937.2876251-.44020672.4612524-.71380133.1396034-.21992798.2883267-.45423721.4359976-.68012815l4.6553175 2.07300533-.7930736 3.09793284c.7643111.78746142 1.4142737 1.46127584 1.9768965 2.20594426.1259237.16029838.31288.2392199.5103592.21817416l2.1856-.39390609.8299037-.14942475 1.863951 4.83841549-2.8678328 1.6226265c.0266579 1.2252128.0066645 2.2315499-.1701197 3.2347302l2.4900617 1.7432887.3935553.2539519-2.0733561 4.6563699-.7713263-.2101067-2.3206435-.6320737c-.7892153.7972828-1.4812693 1.4602236-2.253648 2.0298616l-.1718735.3854878.5247404 2.5700355.0382331.5335095-4.768263 1.8464129-1.6187681-2.783299c-1.1340146-.0227996-2.0575718-.0410392-2.9709569-.1515294-.0617342-.007366-.1231176-.0150827-.1848518-.023501-.0410391.0473529-.0827799.0954073-.1245206.144514-.5871761.6910018-.9810822 1.2813348-1.3746375 1.8716678-.141708.3062155-.3167384.532808-.4889627.7608035l-4.76370312-2.0428398c.03893462-.1360958.06945094-.2742961.09891498-.4121457.02525488-.1185577.05050977-.2367646.08313067-.3511131.09540735-.3974137.1936208-.7825508.29253577-1.1701431.08488449-.333575.17011973-.668553.25219811-1.0049341l.04594987-.1901132c-.04524834-.0459498-.09049668-.0922504-.13644654-.1389018-.79061828-.8060519-1.45250679-1.4886353-2.02810776-2.2592602l-3.2361332.5247405-.21992797.0463006-1.82185951-4.7580909 2.7994341-1.7306613c.00350763-1.2241605.02069498-2.2045412.1722243-3.1915864l-2.09159573-1.4914414-.64224581-.4609017 2.07826676-4.66864652 1.56545225.43424376 1.60578992.46440931c.88918249-.8639276 1.59947619-1.56334767 2.42131232-2.15438219l-.65697784-3.4027453zm5.4141869 9.52163299c-3.0264964-1.34736535-6.5723282.01361208-7.91969356 3.04010841-1.34759606 3.0264964.01361208 6.5723282 3.04010846 7.9196936 3.0264963 1.347596 6.5723282-.0136121 7.9196935-3.0401085 1.3475961-3.0264963-.0136121-6.5723282-3.0401084-7.91969351z" fill="#00474f" fill-rule="nonzero" transform="matrix(.93358043 .35836795 -.35836795 .93358043 16.44581 5.712781)"/><path d="m3.0162783 28.171463c-.07195895-.7276337-.10879801-1.4655845-.10879801-2.2121332 0-12.2658951 9.94358031-22.2093298 22.20947551-22.2093298" stroke="#ccbaf2" stroke-linecap="square" stroke-linejoin="round" stroke-width="3"/><path d="m38.6865253 43.5425267c-3.7527888 2.900424-8.459653 4.6261621-13.5695404 4.6261621-8.3029711 0-15.54157831-4.5560663-19.35242953-11.3045154" stroke="#ccbaf2" stroke-linecap="square" stroke-linejoin="round" stroke-width="3"/><path d="m43.8260051 35.3419816-3.7500433 5h7.5z" fill="#ccbaf2" transform="matrix(-.8660254 -.5 .5 -.8660254 62.859367 92.527081)"/><path d="m34.4207347 5.78673134c7.6189035 3.51976769 12.9055509 11.22879856 12.9055509 20.17262766 0 3.8351802-.9721181 7.4433444-2.6834111 10.5914201" stroke="#ccbaf2" stroke-linecap="square" stroke-linejoin="round" stroke-width="3"/><g fill="#ccbaf2"><path d="m4.42876432 31.9165161-3.7500433 5h7.5z" transform="matrix(.92050485 -.39073113 .39073113 .92050485 -13.095542 4.466385)"/><path d="m27.1141547 1.25-3.7500433 5h7.5z" transform="matrix(0 1 -1 0 30.864111 -23.364111)"/></g></g></svg>