<svg height="50" viewBox="0 0 50 50" width="50" xmlns="http://www.w3.org/2000/svg"><g fill="none" fill-rule="evenodd"><path d="m2 2v46" stroke="#ccbaf2" stroke-linecap="square" stroke-linejoin="round" stroke-width="3"/><g transform="translate(2 3)"><path d="m0 0h26.1262113v4.92239901h20.8737887l-4.8226614 12.16307599 4.8226614 11.914525h-27.7671413l6.8933526-5.435499h-26.1262113z" fill="#00474f" fill-rule="nonzero"/><path d="m19.2328587 29v-5.4352456h6.9747534z" fill="#012d32"/></g><g stroke="#ccbaf2" stroke-linecap="square" stroke-linejoin="round" stroke-width="3"><g transform="translate(12 9)"><path d="m0 10.0110326 4.87230826-10.0110326 5.12769174 9.98855882"/><path d="m2.467168 7.1129 4.999987-.011214"/></g><g transform="translate(32 12.999875)"><path d="m4.015683 0v2.566945"/><path d="m0 2.56682h8"/><path d="m2.16400352 6.27394647c1.00327153 1.16373266 2.28758373 2.68889235 4.97647608 4.31437923"/><path d="m6.1973732 4.58832565c-.40130862 1.38463935-1.38463935 4.35457237-5.57843901 5.85947965"/></g></g></g></svg>