<svg height="50" viewBox="0 0 50 50" width="50" xmlns="http://www.w3.org/2000/svg"><g fill="none" fill-rule="evenodd"><g transform="translate(1 2)"><g stroke="#ccbaf2" stroke-linecap="square" stroke-linejoin="round" stroke-width="3"><path d="m24 7.434783h16"/><path d="m24 13.434783h8.666667"/><rect height="21" rx="3" width="31" x="16"/></g><g fill="#00474f" fill-rule="nonzero"><circle cx="15.5" cy="16.257904" r="9.3"/><path d="m15.7877404 26.5245705c-.0965572.0032186-.1905395.0141617-.2877404.0141617s-.1911832-.0109431-.2877404-.0141617c-8.42686569.1538478-15.2122596 7.028718-15.2122596 15.4929192v5.3331741h31v-5.3331741c0-8.4642012-6.7853939-15.3390714-15.2122596-15.4929192z"/></g></g><g stroke="#ccbaf2" stroke-linecap="square" stroke-linejoin="round" stroke-width="3"><rect height="11" rx="3.5" width="7" x="37" y="31"/><path d="m40.5 42.5v5"/><path d="m40.5 45.5v5" transform="matrix(0 -1 1 0 -7.5 88.5)"/></g></g></svg>