<svg height="50" viewBox="0 0 50 50" width="50" xmlns="http://www.w3.org/2000/svg"><g fill="none" fill-rule="evenodd"><path d="m32.0512821 50v-.7153846c0-1.1038462.7064102-2.0833333 1.7538461-2.4320513l7.1551282-2.3846154c1.5705128-.5230769 2.6294872-1.9935897 2.6294872-3.6487179v-7.998718l5.1230769-1.7923077c1.2551282-.4397436 1.7-1.9871795.8692308-3.025641l-6.1397436-7.674359c-1.0371795-11.39615382-10.3051282-20.3282051-21.6474359-20.3282051-12.03717949 0-21.7948718 10.0448718-21.7948718 22.4358974 0 6.5192308 2.71025641 12.3769231 7.02692308 16.4717949 1.99743589 1.8935898 3.22948722 4.4538462 3.22948722 7.2051282v3.8871795" fill="#00474f" fill-rule="nonzero"/><circle cx="22.079487" cy="33.897436" fill="#ccbaf2" fill-rule="nonzero" r="1.923077"/><path d="m16.9512821 17.5128205c0-3.8128205 2.5384615-6.3653846 5.6858974-6.4102564 1.8602564-.025641 3.5897436 1 4.6910256 2.5 2.5358975 3.4538462.5551282 6.9576923-2.426923 8.3782051-1.7846154.85-2.8217949 2.7602564-2.8217949 4.7371795v1.0512821" stroke="#ccbaf2" stroke-linecap="square" stroke-linejoin="round" stroke-width="3"/></g></svg>