<svg height="50" viewBox="0 0 50 50" width="50" xmlns="http://www.w3.org/2000/svg"><g fill="none" fill-rule="evenodd"><g transform="translate(10 2)"><g fill-rule="nonzero"><path d="m0 13.055556h38v33.944444h-38z" fill="#00474f"/><g fill="#00383f"><path d="m2.814815 6.527778h32.37037v3.916667h-32.37037z"/><path d="m5.62963 0h26.740741v3.916667h-26.740741z"/></g></g><g stroke="#000" stroke-linecap="square" stroke-linejoin="round" stroke-width="3"><path d="m19.703704 10.180556v25.333333" opacity=".35" transform="matrix(0 -1 1 0 -3.143518 42.550926)"/><path d="m16.888889 20.828704v19.703703" opacity=".35" transform="matrix(0 -1 1 0 -13.791667 47.569445)"/></g></g><g stroke="#ccbaf2" stroke-width="3" transform="translate(3 20)"><path d="m12.9230769 6.15259082v11.38587068c0 3.5689231-2.8926154 6.4615385-6.46153844 6.4615385-3.56892308 0-6.46153846-2.8926154-6.46153846-6.4615385v-7.5384615l4.86176476 4.1699219"/><circle cx="12.923077" cy="3.230769" r="3.230769"/></g></g></svg>