<svg height="50" viewBox="0 0 50 50" width="50" xmlns="http://www.w3.org/2000/svg"><g fill="none" fill-rule="evenodd"><g stroke="#ccbaf2" stroke-linecap="square" stroke-linejoin="round" stroke-width="3" transform="translate(2 2)"><g transform="translate(21.5)"><path d="m0 .5h3"/><path d="m0 2.5h3" transform="matrix(0 1 -1 0 4 1)"/></g><g transform="matrix(1 0 0 -1 21.5 46)"><path d="m0 .5h3"/><path d="m0 2.5h3" transform="matrix(0 1 -1 0 4 1)"/></g><g transform="matrix(0 1 -1 0 46 21.5)"><path d="m0 .5h3"/><path d="m0 2.5h3" transform="matrix(0 1 -1 0 4 1)"/></g><path d="m-1 1.5h3" transform="matrix(0 1 1 0 -1 22.5)"/><path d="m1 1.5h3" transform="matrix(1 0 0 -1 0 24.5)"/></g><g stroke="#ccbaf2" stroke-linecap="square" stroke-linejoin="round" stroke-width="3" transform="matrix(.70710678 .70710678 -.70710678 .70710678 25 -7.526912)"><g transform="translate(21.5)"><path d="m0 .5h3"/><path d="m0 2.5h3" transform="matrix(0 1 -1 0 4 1)"/></g><g transform="matrix(1 0 0 -1 21.5 46)"><path d="m0 .5h3"/><path d="m0 2.5h3" transform="matrix(0 1 -1 0 4 1)"/></g><g transform="matrix(0 1 -1 0 46 21.5)"><path d="m0 .5h3"/><path d="m0 2.5h3" transform="matrix(0 1 -1 0 4 1)"/></g><path d="m-1 1.5h3" transform="matrix(0 1 1 0 -1 22.5)"/><path d="m1 1.5h3" transform="matrix(1 0 0 -1 0 24.5)"/></g><g fill-rule="nonzero"><circle cx="25" cy="25" fill="#00474f" r="18"/><circle cx="19.1875" cy="20.375" r="3.375" stroke="#ccbaf2" stroke-width="3"/><circle cx="21.9375" cy="32.25" r="2.5" stroke="#ccbaf2" stroke-width="3"/><circle cx="32.6875" cy="24.875" r="4.5" stroke="#ccbaf2" stroke-width="3"/></g></g></svg>