<svg height="50" viewBox="0 0 50 50" width="50" xmlns="http://www.w3.org/2000/svg"><g fill="none" fill-rule="evenodd" transform="translate(2 4)"><path d="m17.883344 10.93191h11.248064v10.541667h-11.248064z" fill="#00474f" fill-rule="nonzero"/><path d="m17.883344 10.93191h11.248064v10.541667h-11.248064z" fill="#070707" fill-rule="nonzero" opacity=".2"/><path d="m11.9701787 0c2.4732833 0 4.5363893 1.75617756 5.0103532 4.08956775l.0239004.00063725 1.7796617 13.2179537-15.14202355-2.0363944 3.26815736-10.89655675c.35748365-2.47422128 2.48671769-4.37520755 5.05995089-4.37520755z" fill="#00474f"/><path d="m11.458903 6.13530749c3.2289307 0 5.9200896 2.30247419 6.5212017 5.35514731l.0018007.0001091.0065103.0428465c.039263.2065918.0689642.4165707.0886257.6294587l2.3591774 16.7793597-20.4362188-3.5460656 4.95901995-14.0095713c.64107747-3.00088556 3.30767587-5.25128441 6.49988305-5.25128441z" fill="#00474f"/><circle cx="9.511269" cy="30.368229" fill="#fff" r="9.511269" stroke="#ccbaf2" stroke-linecap="square" stroke-linejoin="round" stroke-width="3"/><g transform="matrix(-1 0 0 1 46.000001 0)"><path d="m11.9701787 0c2.4732833 0 4.5363893 1.75617756 5.0103532 4.08956775l.0239004.00063725 1.7796617 13.2179537-15.14202355-2.0363944 3.26815736-10.89655675c.35748365-2.47422128 2.48671769-4.37520755 5.05995089-4.37520755z" fill="#00474f"/><path d="m11.458903 6.13530749c3.2289307 0 5.9200896 2.30247419 6.5212017 5.35514731l.0018007.0001091.0065103.0428465c.039263.2065918.0689642.4165707.0886257.6294587l2.3591774 16.7793597-20.4362188-3.5460656 4.95901995-14.0095713c.64107747-3.00088556 3.30767587-5.25128441 6.49988305-5.25128441z" fill="#00474f"/><circle cx="9.511269" cy="30.368229" fill="#fff" r="9.511269" stroke="#ccbaf2" stroke-linecap="square" stroke-linejoin="round" stroke-width="3"/></g></g></svg>