<svg height="50" viewBox="0 0 50 50" width="50" xmlns="http://www.w3.org/2000/svg"><g fill="none" fill-rule="evenodd"><g fill="#00474f" fill-rule="nonzero" transform="translate(2 19)"><path d="m22.5 16.3845 22.077-13.743c-.711-1.5525-2.259-2.6415-4.077-2.6415h-36c-1.791 0-3.3075 1.062-4.032 2.5785z"/><path d="m22.5 19.514-22.5-14.103v19.089c0 2.484 2.016 4.5 4.5 4.5h36c2.484 0 4.5-2.016 4.5-4.5v-18.9945z"/></g><g stroke="#ccbaf2" stroke-width="3" transform="translate(18 3)"><path d="m12 6v14c0 3.314-2.686 6-6 6s-6-2.686-6-6v-7l4.51449585 3.8720703"/><circle cx="12" cy="3" r="3"/></g></g></svg>