<svg height="50" viewBox="0 0 50 50" width="50" xmlns="http://www.w3.org/2000/svg"><g fill="none" fill-rule="evenodd"><g transform="translate(4 1)"><path d="m0 0h38v48h-38z" fill="#00474f" fill-rule="nonzero"/><g stroke="#000" stroke-linecap="square" stroke-linejoin="round" stroke-width="3"><path d="m11.5 4v10" opacity=".35" transform="matrix(0 -1 1 0 2.5 20.5)"/><path d="m11.5 11.5v10" opacity=".35" transform="matrix(0 -1 1 0 -5 28)"/><path d="m19.5 11v26" opacity=".35" transform="matrix(0 -1 1 0 -4.5 43.5)"/><path d="m19.5 18.5v26" opacity=".35" transform="matrix(0 -1 1 0 -12 51)"/><path d="m19.5 26v26" opacity=".35" transform="matrix(0 -1 1 0 -19.5 58.5)"/></g></g><g stroke="#ccbaf2" stroke-linecap="square" stroke-linejoin="round" stroke-width="3" transform="translate(25.917326 18)"><path d="m6.74934088 12.5240149 2.54493972 2.4759851 4.1217269-5"/><path d="m9.91775966 0-9.91775966 4.49154601v7.90101659c0 2.5572385 1.0755674 5.9783151 4.19629647 8.9060798 3.67684385 3.453617 5.72102932 3.7013576 5.72102932 3.7013576s2.04396851-.2477406 5.72384951-3.7012491c3.117475-2.9277648 4.1934763-6.3487329 4.1934763-8.9059714v-7.90123349l-1.0887652-.49312213z"/></g></g></svg>