<svg height="50" viewBox="0 0 50 50" width="50" xmlns="http://www.w3.org/2000/svg"><g fill="none" fill-rule="evenodd"><g transform="translate(0 3)"><path d="m3.454994 9.027814v15.306123" stroke="#00474f" stroke-width="1.5"/><g fill="#00474f" fill-rule="nonzero"><path d="m24.7995513 20.4431251-17.71207976-5.9953146-2 16.2315306 19.71207976 7.4192014 19.9504734-7.6361479-2-16.0698519z"/><path d="m24.4480334.11718323-21.73512764 7.69726981c-.52060307.18436617-.79317693.75585666-.60881076 1.27645973.10210299.2883128.33053515.51404506.62004149.61271303l5.80277149 1.977669 15.93230172 5.4285626c.2073907.0706636.4322493.0712601.640012.0016979l16.3738703-5.4822287 5.7485489-1.92415398c.5237251-.17530121.8061784-.74197397.6308772-1.26569902-.0983084-.29370334-.3271593-.52527831-.6196788-.62705502l-22.1223721-7.69706606c-.2146064-.07466826-.4482435-.07402258-.6624338.00183071z"/><path d="m1.21343288 23.0161349c0 1.2381628 1.00389349 2.2412314 2.2412314 2.2412314 1.2381628 0 2.24123139-1.0030686 2.24123139-2.2412314s-1.00306859-2.2412314-2.24123139-2.2412314c-1.23733791 0-2.2412314 1.0030686-2.2412314 2.2412314"/></g></g><g stroke="#ccbaf2" stroke-linejoin="round" stroke-width="3" transform="translate(32 26)"><path d="m3.69065486 16.0421232.26752214 1.2047126h8.1925059l.2675221-1.2047126c.1812247-.8152234.5684126-1.5832708 1.1742208-2.1580119 1.5930512-1.5102057 2.5164341-3.6193157 2.5164341-5.84233832 0-4.44029217-3.6147131-8.04004703-8.05442996-8.04177298-4.43971685.00172595-8.05442994 3.60148081-8.05442994 8.04177298 0 2.22302262.92338286 4.33213262 2.51585872 5.84233832.60638351.5747411.99357147 1.3427885 1.17479614 2.1580119z" stroke-linecap="square"/><path d="m3.83898326 16.7256646.88263278 3.6973931c.22067255.9216569 1.10150317 1.5769423 2.11808461 1.5769423h2.72276763c1.01658142 0 1.89741202-.6552854 2.11808462-1.5769423l.4222011-3.0064484" stroke-linecap="round"/></g></g></svg>