<svg height="50" viewBox="0 0 50 50" width="50" xmlns="http://www.w3.org/2000/svg"><g fill="none" fill-rule="evenodd"><g stroke="#ccbaf2" stroke-linecap="square" stroke-linejoin="round" stroke-width="3"><path d="m4 8v35"/><path d="m16 27.4v15.6"/><path d="m10 20v23.4"/><path d="m22 11.8v31.2"/><path d="m28 19.6v23.4"/><path d="m34 35.2v7.8"/><path d="m40 11.8v31.2"/><path d="m46 4v39"/></g><g transform="translate(16.5 18)"><path d="m19.6304372 4.79667965 11.9333543 21.76082255c.7966696 1.4527503.264811 3.2762655-1.1879394 4.072935-.4421326.2424599-.9382478.3695628-1.4424978.3695628h-23.86670858c-1.65685425 0-3-1.3431458-3-3 0-.50425.12710292-1.0003652.36956277-1.4424978l11.93335431-21.76082255c.7966695-1.45275037 2.6201847-1.98460895 4.072935-1.18793939.5010357.27476149.9131779.68690373 1.1879394 1.18793939z" fill="#00474f" fill-rule="nonzero"/><g stroke="#ccbaf2" stroke-linecap="square" stroke-linejoin="round" stroke-width="3"><path d="m17 12v8"/><path d="m17 26v.5"/></g></g></g></svg>