<svg height="50" viewBox="0 0 50 50" width="50" xmlns="http://www.w3.org/2000/svg"><g fill="none" fill-rule="evenodd" transform="translate(3 2.5)"><path d="m6 .5h37v46h-37z" fill="#00474f" fill-rule="nonzero"/><g stroke-linecap="square" stroke-linejoin="round" stroke-width="3"><path d="m24.5-5.5v12" stroke="#ccbaf2" transform="matrix(0 -1 1 0 24 25)"/><path d="m32 13.5h-10" stroke="#ccbaf2" transform="matrix(0 -1 1 0 13.5 40.5)"/><path d="m34.5 16h-5" stroke="#ccbaf2" transform="matrix(0 -1 1 0 16 48)"/><path d="m40.75 14.75h-7.5" stroke="#ccbaf2" transform="matrix(0 -1 1 0 22.25 51.75)"/><path d="m17 5.5v10" opacity=".3" stroke="#000" transform="matrix(0 -1 1 0 6.5 27.5)"/><path d="m17 11.5v10" opacity=".3" stroke="#000" transform="matrix(0 -1 1 0 .5 33.5)"/><path d="m24.5 15v24.5" opacity=".3" stroke="#000" transform="matrix(0 -1 1 0 -2.5 51.5)"/><path d="m24.5 21v24.5" opacity=".3" stroke="#000" transform="matrix(0 -1 1 0 -8.5 57.5)"/><path d="m24.5 27v24.5" opacity=".3" stroke="#000" transform="matrix(0 -1 1 0 -14.5 63.5)"/><g stroke="#ccbaf2"><circle cx="14.5" cy="30" r="9.5"/><path d="m7.5 37-7 7"/></g></g></g></svg>