<svg height="23" viewBox="0 0 26 23" width="26" xmlns="http://www.w3.org/2000/svg"><g fill="none" fill-rule="evenodd" transform="translate(1 1)"><g stroke="#ccbaf2"><path d="m6.06882876 5.23590293-2.25099975 1.35584504v2.96835767" stroke-linejoin="round" stroke-width="2"/><path d="m9.66063217 17.6742915 2.24058653 1.3732005 2.5011108-1.2985721" stroke-linejoin="round" stroke-width="2"/><path d="m18.0047968 5.23590293 2.2509998 1.35584504v2.96835767" stroke-linejoin="round" stroke-width="2"/></g><path d="m23.4313203 18.2508005-2.9282473 1.6869481c-.0850417.0474382-.179918-.0188981-.179918-.1135816l-.0003857-3.4876709c0-.0474381.02854-.0850416.0663363-.1135816l3.3073671-1.9239463c0 .0188982.0094491.0377963.0094491.0570801l.0096419 3.4020507c-.0096419.2082652-.1135816.3978251-.2842434.4927015zm-3.4876708 1.6869481-2.9471455-1.7058463c-.1706618-.1043254-.2746015-.2842434-.2746015-.4834452l-.0096419-3.4020507c0-.0474382.0096419-.0850416.0188981-.1324798l3.2317746 1.9804478c.0377963.0188982.0570801.0663364.0570801.1135817v3.6772307c-.0192838-.0188981-.0478239-.02854-.0763639-.0474382zm-2.9565946-6.0840437 2.9280545-1.6869481c.0852345-.0474382.179918-.0759782.2844363-.0759782.0946835 0 .199009.02854.2746015.0759782l2.9475312 1.7154882c.0096419 0 .0096419.0096419.0188981.0096419.0852345.0472453.0759783.1706618-.0096419.2179071l-3.0699834 1.7910808c-.02854.0188981-.0570801.0188981-.0852344.0188981l-.2273562-.0377963c-.0188981 0-.0376034-.0096419-.0472454-.0188981l-3.1274491-1.9143043c.0374106-.0289258.0755926-.0665292.113196-.0950693zm7.0033032.5115997c0-.0759783-.0096419-.1421218-.0285401-.2181-.0188981-.0946835-.0663363-.1895599-.1234164-.2653453-.0661435-.1045183-.1610198-.1895599-.2653453-.24664l-2.9471454-1.7243587c-.1324799-.0757854-.2746016-.1135817-.426558-.1135817-.1517637 0-.2938854.0377963-.4263652.1135817l-2.9282473 1.6962043c-.0850416.0474382-.1610199.1135817-.2271634.18956-.0663363.0759782-.1137745.1610198-.1423145.2558962-.0376035.0946835-.0568873.189367-.0568873.2938853l.0096419 3.4020507c0 .3031416.1610199.5781288.4263652.7296996l2.9475311 1.7154882c.0759783.0377962.1517637.0757854.2273562.0946835.0568873.0096419.1135817.0188981.1706618.0188981h.0188981c.0285401 0 .0661435 0 .0946836-.0096419.1137745-.0096419.2273561-.0474382.3316816-.1043254l2.9282473-1.6861768c.2653453-.1519565.426558-.4361999.426558-.7393415z" fill="#ccbaf2"/><path d="m23.4313203 18.2508005-2.9282473 1.6869481c-.0850417.0474382-.179918-.0188981-.179918-.1135816l-.0003857-3.4876709c0-.0474381.02854-.0850416.0663363-.1135816l3.3073671-1.9239463c0 .0188982.0094491.0377963.0094491.0570801l.0096419 3.4020507c-.0096419.2082652-.1135816.3978251-.2842434.4927015zm-3.4876708 1.6869481-2.9471455-1.7058463c-.1706618-.1043254-.2746015-.2842434-.2746015-.4834452l-.0096419-3.4020507c0-.0474382.0096419-.0850416.0188981-.1324798l3.2317746 1.9804478c.0377963.0188982.0570801.0663364.0570801.1135817v3.6772307c-.0192838-.0188981-.0478239-.02854-.0763639-.0474382zm-2.9565946-6.0840437 2.9280545-1.6869481c.0852345-.0474382.179918-.0759782.2844363-.0759782.0946835 0 .199009.02854.2746015.0759782l2.9475312 1.7154882c.0096419 0 .0096419.0096419.0188981.0096419.0852345.0472453.0759783.1706618-.0096419.2179071l-3.0699834 1.7910808c-.02854.0188981-.0570801.0188981-.0852344.0188981l-.2273562-.0377963c-.0188981 0-.0376034-.0096419-.0472454-.0188981l-3.1274491-1.9143043c.0374106-.0289258.0755926-.0665292.113196-.0950693zm7.0033032.5115997c0-.0759783-.0096419-.1421218-.0285401-.2181-.0188981-.0946835-.0663363-.1895599-.1234164-.2653453-.0661435-.1045183-.1610198-.1895599-.2653453-.24664l-2.9471454-1.7243587c-.1324799-.0757854-.2746016-.1135817-.426558-.1135817-.1517637 0-.2938854.0377963-.4263652.1135817l-2.9282473 1.6962043c-.0850416.0474382-.1610199.1135817-.2271634.18956-.0663363.0759782-.1137745.1610198-.1423145.2558962-.0376035.0946835-.0568873.189367-.0568873.2938853l.0096419 3.4020507c0 .3031416.1610199.5781288.4263652.7296996l2.9475311 1.7154882c.0759783.0377962.1517637.0757854.2273562.0946835.0568873.0096419.1135817.0188981.1706618.0188981h.0188981c.0285401 0 .0661435 0 .0946836-.0096419.1137745-.0096419.2273561-.0474382.3316816-.1043254l2.9282473-1.6861768c.2653453-.1519565.426558-.4361999.426558-.7393415z" stroke="#ccbaf2" stroke-linejoin="round" stroke-width="1.5"/><path d="m15.2590323 6.45352159-2.9282474 1.68694815c-.0850416.04743818-.179918-.01889814-.179918-.11358167l-.0003856-3.48767082c0-.04743818.02854-.08504162.0663363-.11358167l3.3073671-1.92394624c0 .01889814.0094491.03779628.0094491.0570801l.0096419 3.40205067c-.0096419.2082652-.1135817.39782511-.2842434.49270148zm-3.4876709 1.68694815-2.94714543-1.70584629c-.17066176-.10432544-.27460153-.28424344-.27460153-.48344525l-.0096419-3.40205067c0-.04743819.0096419-.08504163.01889814-.13247981l3.23177462 1.98044782c.0377962.01889813.0570801.06633632.0570801.11358167v3.67723071c-.0192839-.01889814-.0478239-.02854004-.076364-.04743818zm-2.9565945-6.08404369 2.9280545-1.68694815c.0852345-.04743819.179918-.07597823.2844363-.07597823.0946835 0 .1990089.02854004.2746015.07597823l2.9475312 1.7154882c.0096419 0 .0096419.0096419.0188981.0096419.0852345.04724535.0759782.17066177-.0096419.21790712l-3.0699834 1.79108075c-.02854.01889814-.0570801.01889814-.0852345.01889814l-.2273561-.03779628c-.0188982 0-.0376035-.00964191-.0472454-.01889814l-3.12744913-1.91430433c.0374106-.02892572.07559256-.06652916.11319599-.09506921zm7.0033032.51159962c0-.07597824-.0096419-.14212172-.0285401-.21809995-.0188981-.09468354-.0663363-.18955991-.1234164-.2653453-.0661435-.10451828-.1610199-.1895599-.2653453-.24664l-2.9471455-1.72435875c-.1324798-.07578539-.2746015-.11358167-.426558-.11358167-.1517636 0-.2938853.03779628-.4263651.11358167l-2.92824735 1.69620438c-.08504163.04743819-.16101986.11377451-.22716335.18955991-.06633632.07597823-.11377451.16101985-.14231455.25589622-.03760344.09468354-.05688726.18936707-.05688726.29388535l.00964191 3.40205067c0 .30314158.16101986.57812878.42636515.72969957l2.94753115 1.7154882c.0759782.03779627.1517636.07578539.2273562.09468353.0568872.00964191.1135817.01889814.1706617.01889814h.0188982c.02854 0 .0661435 0 .0946835-.00964191.1137745-.00964191.2273562-.04743819.3316816-.10432544l2.9282474-1.6861768c.2653453-.15195646.426558-.4361999.426558-.73934147z" fill="#ccbaf2"/><path d="m15.2590323 6.45352159-2.9282474 1.68694815c-.0850416.04743818-.179918-.01889814-.179918-.11358167l-.0003856-3.48767082c0-.04743818.02854-.08504162.0663363-.11358167l3.3073671-1.92394624c0 .01889814.0094491.03779628.0094491.0570801l.0096419 3.40205067c-.0096419.2082652-.1135817.39782511-.2842434.49270148zm-3.4876709 1.68694815-2.94714543-1.70584629c-.17066176-.10432544-.27460153-.28424344-.27460153-.48344525l-.0096419-3.40205067c0-.04743819.0096419-.08504163.01889814-.13247981l3.23177462 1.98044782c.0377962.01889813.0570801.06633632.0570801.11358167v3.67723071c-.0192839-.01889814-.0478239-.02854004-.076364-.04743818zm-2.9565945-6.08404369 2.9280545-1.68694815c.0852345-.04743819.179918-.07597823.2844363-.07597823.0946835 0 .1990089.02854004.2746015.07597823l2.9475312 1.7154882c.0096419 0 .0096419.0096419.0188981.0096419.0852345.04724535.0759782.17066177-.0096419.21790712l-3.0699834 1.79108075c-.02854.01889814-.0570801.01889814-.0852345.01889814l-.2273561-.03779628c-.0188982 0-.0376035-.00964191-.0472454-.01889814l-3.12744913-1.91430433c.0374106-.02892572.07559256-.06652916.11319599-.09506921zm7.0033032.51159962c0-.07597824-.0096419-.14212172-.0285401-.21809995-.0188981-.09468354-.0663363-.18955991-.1234164-.2653453-.0661435-.10451828-.1610199-.1895599-.2653453-.24664l-2.9471455-1.72435875c-.1324798-.07578539-.2746015-.11358167-.426558-.11358167-.1517636 0-.2938853.03779628-.4263651.11358167l-2.92824735 1.69620438c-.08504163.04743819-.16101986.11377451-.22716335.18955991-.06633632.07597823-.11377451.16101985-.14231455.25589622-.03760344.09468354-.05688726.18936707-.05688726.29388535l.00964191 3.40205067c0 .30314158.16101986.57812878.42636515.72969957l2.94753115 1.7154882c.0759782.03779627.1517636.07578539.2273562.09468353.0568872.00964191.1135817.01889814.1706617.01889814h.0188982c.02854 0 .0661435 0 .0946835-.00964191.1137745-.00964191.2273562-.04743819.3316816-.10432544l2.9282474-1.6861768c.2653453-.15195646.426558-.4361999.426558-.73934147z" stroke="#ccbaf2" stroke-linejoin="round" stroke-width="1.5"/><path d="m7.01294506 18.2508005-2.92824733 1.6869481c-.08504162.0474382-.179918-.0188981-.179918-.1135816l-.00038567-3.4876709c0-.0474381.02854004-.0850416.06633632-.1135816l3.30736714-1.9239463c0 .0188982.00944907.0377963.00944907.0570801l.00964191 3.4020507c-.00964191.2082652-.11358167.3978251-.28424344.4927015zm-3.48767081 1.6869481-2.94714547-1.7058463c-.17066176-.1043254-.27460153-.2842434-.27460153-.4834452l-.00964191-3.4020507c0-.0474382.00964191-.0850416.01889814-.1324798l3.23177459 1.9804478c.03779627.0188982.05708009.0663364.05708009.1135817v3.6772307c-.01928382-.0188981-.04782386-.02854-.07636391-.0474382zm-2.95659454-6.0840437 2.9280545-1.6869481c.08523446-.0474382.17991799-.0759782.28443627-.0759782.09468353 0 .19900897.02854.27460153.0759782l2.94753115 1.7154882c.0096419 0 .0096419.0096419.01889814.0096419.08523446.0472453.07597823.1706618-.00964191.2179071l-3.06998338 1.7910808c-.02854004.0188981-.05708009.0188981-.08523446.0188981l-.22735618-.0377963c-.01889814 0-.03760344-.0096419-.04724535-.0188981l-3.12744914-1.9143043c.0374106-.0289258.07559255-.0665292.11319599-.0950693zm7.00330316.5115997c0-.0759783-.00964191-.1421218-.02854005-.2181-.01889814-.0946835-.06633632-.1895599-.12341642-.2653453-.06614348-.1045183-.16101985-.1895599-.26534529-.24664l-2.94714548-1.7243587c-.13247981-.0757854-.27460153-.1135817-.42655799-.1135817-.15176362 0-.29388534.0377963-.42636515.1135817l-2.92824734 1.6962043c-.08504162.0474382-.16101985.1135817-.22716334.18956-.06633632.0759782-.11377451.1610198-.14231456.2558962-.03760343.0946835-.05688725.189367-.05688725.2938853l.00964191 3.4020507c0 .3031416.16101985.5781288.42636515.7296996l2.94753115 1.7154882c.07597823.0377962.15176363.0757854.22735618.0946835.05688726.0096419.11358167.0188981.17066177.0188981h.01889813c.02854005 0 .06614349 0 .09468354-.0096419.11377451-.0096419.22735618-.0474382.33168162-.1043254l2.92824733-1.6861768c.2653453-.1519565.42655799-.4361999.42655799-.7393415z" fill="#ccbaf2"/><path d="m7.01294506 18.2508005-2.92824733 1.6869481c-.08504162.0474382-.179918-.0188981-.179918-.1135816l-.00038567-3.4876709c0-.0474381.02854004-.0850416.06633632-.1135816l3.30736714-1.9239463c0 .0188982.00944907.0377963.00944907.0570801l.00964191 3.4020507c-.00964191.2082652-.11358167.3978251-.28424344.4927015zm-3.48767081 1.6869481-2.94714547-1.7058463c-.17066176-.1043254-.27460153-.2842434-.27460153-.4834452l-.00964191-3.4020507c0-.0474382.00964191-.0850416.01889814-.1324798l3.23177459 1.9804478c.03779627.0188982.05708009.0663364.05708009.1135817v3.6772307c-.01928382-.0188981-.04782386-.02854-.07636391-.0474382zm-2.95659454-6.0840437 2.9280545-1.6869481c.08523446-.0474382.17991799-.0759782.28443627-.0759782.09468353 0 .19900897.02854.27460153.0759782l2.94753115 1.7154882c.0096419 0 .0096419.0096419.01889814.0096419.08523446.0472453.07597823.1706618-.00964191.2179071l-3.06998338 1.7910808c-.02854004.0188981-.05708009.0188981-.08523446.0188981l-.22735618-.0377963c-.01889814 0-.03760344-.0096419-.04724535-.0188981l-3.12744914-1.9143043c.0374106-.0289258.07559255-.0665292.11319599-.0950693zm7.00330316.5115997c0-.0759783-.00964191-.1421218-.02854005-.2181-.01889814-.0946835-.06633632-.1895599-.12341642-.2653453-.06614348-.1045183-.16101985-.1895599-.26534529-.24664l-2.94714548-1.7243587c-.13247981-.0757854-.27460153-.1135817-.42655799-.1135817-.15176362 0-.29388534.0377963-.42636515.1135817l-2.92824734 1.6962043c-.08504162.0474382-.16101985.1135817-.22716334.18956-.06633632.0759782-.11377451.1610198-.14231456.2558962-.03760343.0946835-.05688725.189367-.05688725.2938853l.00964191 3.4020507c0 .3031416.16101985.5781288.42636515.7296996l2.94753115 1.7154882c.07597823.0377962.15176363.0757854.22735618.0946835.05688726.0096419.11358167.0188981.17066177.0188981h.01889813c.02854005 0 .06614349 0 .09468354-.0096419.11377451-.0096419.22735618-.0474382.33168162-.1043254l2.92824733-1.6861768c.2653453-.1519565.42655799-.4361999.42655799-.7393415z" stroke="#ccbaf2" stroke-linejoin="round" stroke-width="1.5"/></g></svg>