<svg height="41" viewBox="0 0 40 41" width="40" xmlns="http://www.w3.org/2000/svg"><g fill="none" fill-rule="evenodd" transform="translate(3 2)"><path d="m6.35294118 21.1764706-6.35294118 6.3529412 6.35294118 2.117647 2.11764706 6.3529412s5.75999996-5.76 8.47058826-8.4705882l8.4705882 8.4705882 2.1176471-6.3529412 6.3529411-2.117647-6.3529411-6.3529412m-14.8235294-12.70588236h4.2352941v10.58823526" stroke="#00474f" stroke-width="3"/><path d="m27.5294118 21.1764706h-1.1371765c-2.3272941 2.5941176-5.6922353 4.2352941-9.4510588 4.2352941-3.7588236 0-7.12588238-1.6411765-9.45105885-4.2352941h-1.13717647l-6.35294118 6.3529412 6.35294118 2.117647 2.11764706 6.3529412s5.75999996-5.76 8.47058826-8.4705882l8.4705882 8.4705882 2.1176471-6.3529412 6.3529411-2.117647z" fill="#00474f" fill-rule="nonzero"/><path d="m16.9411765 0c-7.01726509 0-12.70588238 5.6886173-12.70588238 12.7058824 0 7.017265 5.68861729 12.7058823 12.70588238 12.7058823 7.017265 0 12.7058823-5.6886173 12.7058823-12.7058823 0-7.0172651-5.6886173-12.7058824-12.7058823-12.7058824z" stroke="#ccbaf2" stroke-width="3"/></g></svg>