<svg height="38" viewBox="0 0 29 38" width="29" xmlns="http://www.w3.org/2000/svg"><g fill="none" fill-rule="evenodd"><g stroke="#ccbaf2" stroke-linecap="round" stroke-linejoin="round" stroke-width="3"><circle cx="13.631473" cy="13.631473" r="11.631473"/><circle cx="13.631473" cy="13.631473" r="6.048366"/></g><path d="m15.0793353 13.2957632-13.53555976-13.04139648c-.26728602-.25659133-.65689973-.32594034-.99207762-.17652475-.3351779.15004604-.55169792.49048663-.55169792.86749307v18.91336626c0 .3637671.20245234.6953814.52050435.8523624.31744038.1582418.69543296.1134802.97067028-.1141107l3.73833444-3.0841396 3.53343554 8.3887084c.2018407.4791386.74252912.6991641 1.20676273.4904866l2.80497406-1.2558475c.4648453-.208047.6776955-.7647304.4758548-1.243869l-1.8618276-4.4200537-1.67160795-3.9680243 4.84050695-.5768576c.355362-.0422399.6544532-.2937877.7663831-.6436849.1119298-.3511582.0165142-.73573-.2446554-.9879082z" fill="#00474f" fill-rule="nonzero" transform="translate(12.777575 11.529168)"/></g></svg>