<svg enable-background="new 0 0 853.9 437.7" viewBox="0 0 853.9 437.7" xmlns="http://www.w3.org/2000/svg" xmlns:xlink="http://www.w3.org/1999/xlink"><linearGradient id="a"><stop offset="0" stop-color="#5454a8"/><stop offset=".28" stop-color="#6661b3"/><stop offset=".73" stop-color="#7f71c2"/><stop offset="1" stop-color="#8878c8"/></linearGradient><linearGradient id="b" gradientTransform="matrix(.75 .0010472 .00074176 -1 -625.0533 440.5692)" gradientUnits="userSpaceOnUse" x1="930.5674" x2="1312.3574" xlink:href="#a" y1="69.1048" y2="69.1048"/><linearGradient id="c"><stop offset="0" stop-color="#8878c8"/><stop offset=".27" stop-color="#7f71c2"/><stop offset=".72" stop-color="#6661b3"/><stop offset="1" stop-color="#5454a8"/></linearGradient><linearGradient id="d" gradientTransform="matrix(1 0 0 -1 0 438)" gradientUnits="userSpaceOnUse" x1="-.005" x2="82.505" xlink:href="#c" y1="65.88" y2="65.88"/><linearGradient id="e" gradientTransform="matrix(1 0 0 -1 0 438)" gradientUnits="userSpaceOnUse" x1="72.345" x2="361.645" xlink:href="#a" y1="231.31" y2="231.31"/><linearGradient id="f" gradientTransform="matrix(1 0 0 -1 0 438)" gradientUnits="userSpaceOnUse" x1="-.005" x2="82.505" xlink:href="#c" y1="231.31" y2="231.31"/><linearGradient id="g" gradientTransform="matrix(1 0 0 -1 0 438)" gradientUnits="userSpaceOnUse" x1="72.345" x2="361.645" xlink:href="#a" y1="396.75" y2="396.75"/><linearGradient id="h" gradientTransform="matrix(1 0 0 -1 0 438)" gradientUnits="userSpaceOnUse" x1="-.005" x2="82.505" xlink:href="#c" y1="396.75" y2="396.75"/><path d="m422.9 381.4c-2.7 0-5-.6-6.9-1.8s-3.4-2.8-4.4-5c-1-2.1-1.5-4.6-1.5-7.4s.5-5.2 1.5-7.4 2.5-3.8 4.4-5 4.2-1.8 6.9-1.8c3.1 0 5.7.8 7.8 2.4s3.5 3.7 4.3 6.4l-4 1.1c-.5-1.9-1.5-3.4-2.8-4.5-1.4-1.1-3.1-1.6-5.2-1.6-1.9 0-3.5.4-4.8 1.3s-2.2 2.1-2.9 3.6-1 3.4-1 5.4c0 2.1.3 3.9 1 5.4.6 1.5 1.6 2.8 2.9 3.6 1.3.9 2.9 1.3 4.8 1.3 2.1 0 3.9-.5 5.2-1.6s2.3-2.6 2.8-4.4l4 1.1c-.8 2.7-2.2 4.8-4.3 6.4-2.1 1.8-4.6 2.5-7.8 2.5z"/><path d="m446.8 381.4c-1.4 0-2.6-.2-3.5-.7-1-.5-1.7-1-2.3-1.8-.6-.7-1-1.5-1.4-2.4-.3-.9-.5-1.7-.6-2.5s-.2-1.5-.2-2.2v-11.3h4v10c0 .8.1 1.6.2 2.4s.4 1.6.8 2.3.9 1.3 1.6 1.7 1.5.7 2.6.7c.7 0 1.4-.1 2-.4.6-.2 1.2-.6 1.6-1.1s.8-1.2 1.1-2 .4-1.9.4-3.1l2.4.9c0 1.8-.3 3.5-1 4.9s-1.7 2.5-3 3.3c-1.3.9-2.9 1.3-4.7 1.3zm6.7-.5v-5.9h-.5v-14.4h4v20.3z"/><path d="m470.5 381.4c-2.5 0-4.5-.5-6-1.6s-2.5-2.6-2.9-4.6l4-.6c.2 1 .8 1.9 1.7 2.5s2 .9 3.4.9c1.2 0 2.2-.2 2.9-.8s1-1.2 1-2.1c0-.5-.1-.9-.4-1.2-.2-.3-.8-.6-1.5-.9s-2-.6-3.5-1.1c-1.7-.5-3.1-.9-4.1-1.5-1-.5-1.8-1.1-2.2-1.8s-.6-1.5-.6-2.5c0-1.2.3-2.3 1-3.2s1.6-1.6 2.8-2.1 2.6-.8 4.2-.8 2.9.2 4.1.7 2.2 1.2 3 2.1 1.2 1.9 1.4 3.1l-4 .7c-.1-1-.6-1.8-1.4-2.3s-1.8-.9-3-.9-2.1.1-2.9.6c-.7.5-1.1 1.1-1.1 1.8 0 .5.1.8.4 1.1s.8.6 1.6.9 2 .6 3.6 1c1.7.4 3.1.9 4.1 1.5 1 .5 1.7 1.2 2.1 1.9s.6 1.6.6 2.7c0 2-.7 3.6-2.2 4.7-1.6 1.3-3.6 1.8-6.1 1.8z"/><path d="m481.5 363.8v-3.2h13.9v3.2zm13.9 17.1c-1.3.2-2.5.4-3.8.3-1.2 0-2.3-.3-3.3-.7s-1.7-1.1-2.2-2.1c-.4-.8-.7-1.7-.7-2.6s0-1.9 0-3v-17.8h3.9v17.8 2.1s.1 1.1.4 1.5c.5.8 1.2 1.2 2.1 1.3 1 .1 2.1.1 3.5-.1z"/><path d="m508.1 381.4c-2 0-3.8-.5-5.3-1.4s-2.6-2.2-3.5-3.8c-.8-1.6-1.2-3.5-1.2-5.6s.4-4 1.2-5.6 2-2.9 3.5-3.8 3.2-1.3 5.2-1.3 3.8.5 5.3 1.4 2.6 2.2 3.5 3.8c.8 1.6 1.2 3.5 1.2 5.5s-.4 4-1.2 5.6-2 2.9-3.5 3.8c-1.4 1-3.1 1.4-5.2 1.4zm0-3.7c1.9 0 3.4-.6 4.4-2 1-1.3 1.4-3 1.4-5.1s-.5-3.8-1.5-5.1-2.4-1.9-4.3-1.9c-1.3 0-2.4.3-3.2.9-.9.6-1.5 1.4-1.9 2.5s-.6 2.3-.6 3.6c0 2.1.5 3.8 1.5 5.1.9 1.4 2.3 2 4.2 2z"/><path d="m522.8 380.9v-20.3h3.5v5.9h.5v14.4zm12.2 0v-12.6c0-1.5-.4-2.6-1.1-3.5-.8-.8-1.7-1.3-3-1.3s-2.2.4-3 1.3-1.1 2-1.1 3.3l-1.9-1.2c0-1.3.3-2.5 1-3.5s1.5-1.9 2.6-2.5 2.3-.9 3.7-.9 2.7.3 3.7.9 1.8 1.5 2.3 2.5c.5 1.1.8 2.4.8 3.8v13.5zm12.1 0v-12.6c0-1.5-.4-2.6-1.1-3.4s-1.7-1.2-3-1.2c-.8 0-1.4.2-2.1.5s-1.1.9-1.5 1.5c-.4.7-.6 1.5-.6 2.6l-1.9-1c0-1.4.3-2.7.9-3.8s1.5-1.9 2.6-2.5 2.3-.9 3.7-.9c2.2 0 3.9.7 5.1 2s1.8 3.1 1.8 5.2v13.6z"/><path d="m556.8 357.3v-3.8h3.9v3.8zm0 23.6v-20.3h3.9v20.3z"/><path d="m564.7 380.9v-.6l11.5-16.1h-10.5v-3.5h16.7v.6l-11.4 16.1h10.9v3.5z"/><path d="m592.6 381.4c-1.5 0-2.8-.3-3.8-.8s-1.8-1.3-2.3-2.2-.8-1.9-.8-3c0-1 .2-1.9.5-2.7s.9-1.4 1.6-2c.7-.5 1.6-1 2.6-1.3.9-.3 1.9-.5 3.1-.7s2.3-.4 3.6-.6 2.5-.4 3.8-.5l-1.4.8c0-1.6-.3-2.8-1-3.5-.7-.8-1.9-1.1-3.6-1.1-1.1 0-2 .2-2.9.7s-1.5 1.3-1.9 2.5l-3.7-1.1c.5-1.7 1.5-3.1 2.9-4.1s3.3-1.5 5.6-1.5c1.8 0 3.4.3 4.7.9s2.3 1.6 3 2.9c.3.7.5 1.4.6 2.1s.1 1.5.1 2.4v12.5h-3.5v-4.6l.7.6c-.8 1.5-1.9 2.7-3.2 3.5s-2.8.8-4.7.8zm.7-3.2c1.1 0 2.1-.2 2.9-.6s1.5-.9 1.9-1.5c.5-.6.8-1.2 1-1.9.2-.6.3-1.3.4-2 0-.8 0-1.4 0-1.8l1.3.5c-1.2.2-2.4.4-3.4.5s-1.9.3-2.8.4-1.5.3-2.2.5c-.5.2-1 .4-1.4.7s-.8.6-1 1-.4.8-.4 1.4.1 1 .4 1.5.7.8 1.2 1.1c.6.1 1.3.2 2.1.2z"/><path d="m606.6 363.8v-3.2h13.9v3.2zm13.9 17.1c-1.3.2-2.5.4-3.8.3-1.2 0-2.3-.3-3.3-.7s-1.7-1.1-2.2-2.1c-.4-.8-.7-1.7-.7-2.6s0-1.9 0-3v-17.8h3.9v17.8 2.1s.2 1.1.4 1.5c.5.8 1.2 1.2 2.2 1.3s2.1.1 3.5-.1z"/><path d="m624.9 357.3v-3.8h3.9v3.8zm0 23.6v-20.3h3.9v20.3z"/><path d="m643.7 381.4c-2 0-3.8-.5-5.3-1.4s-2.6-2.2-3.5-3.8c-.8-1.6-1.2-3.5-1.2-5.6s.4-4 1.2-5.6 2-2.9 3.5-3.8 3.2-1.3 5.2-1.3 3.8.5 5.3 1.4 2.6 2.2 3.5 3.8c.8 1.6 1.2 3.5 1.2 5.5s-.4 4-1.2 5.6-2 2.9-3.5 3.8c-1.5 1-3.2 1.4-5.2 1.4zm0-3.7c1.9 0 3.4-.6 4.3-2 1-1.3 1.4-3 1.4-5.1s-.5-3.8-1.5-5.1-2.4-1.9-4.3-1.9c-1.3 0-2.4.3-3.2.9s-1.5 1.4-1.9 2.5-.6 2.3-.6 3.6c0 2.1.5 3.8 1.5 5.1.9 1.4 2.4 2 4.3 2z"/><path d="m658.3 380.9v-20.3h3.5v5.9h.5v14.4zm14.3 0v-10c0-.8-.1-1.6-.2-2.4s-.4-1.6-.8-2.3-.9-1.3-1.6-1.7-1.5-.7-2.6-.7c-.7 0-1.4.1-2 .4s-1.2.6-1.6 1.1-.8 1.2-1.1 2-.4 1.9-.4 3.1l-2.4-.9c0-1.8.3-3.5 1-4.9s1.7-2.5 3-3.3 2.8-1.2 4.7-1.2c1.4 0 2.6.2 3.5.7 1 .5 1.7 1 2.3 1.8s1 1.5 1.4 2.4c.3.9.5 1.7.6 2.5s.2 1.5.2 2.2v11.3z"/><path d="m696.3 380.9-7.4-20.3h4l5.4 15.4 5.4-15.4h4l-7.4 20.3z"/><path d="m716.6 381.4c-1.5 0-2.8-.3-3.8-.8s-1.8-1.3-2.3-2.2-.8-1.9-.8-3c0-1 .2-1.9.5-2.7s.9-1.4 1.6-2c.7-.5 1.6-1 2.6-1.3.9-.3 1.9-.5 3.1-.7s2.3-.4 3.6-.6 2.5-.4 3.8-.5l-1.4.8c0-1.6-.3-2.8-1-3.5-.7-.8-1.9-1.1-3.6-1.1-1.1 0-2 .2-2.9.7s-1.5 1.3-1.9 2.5l-3.7-1.1c.5-1.7 1.5-3.1 2.9-4.1s3.3-1.5 5.6-1.5c1.8 0 3.4.3 4.7.9s2.3 1.6 3 2.9c.3.7.5 1.4.6 2.1s.1 1.5.1 2.4v12.5h-3.5v-4.6l.7.6c-.8 1.5-1.9 2.7-3.2 3.5s-2.8.8-4.7.8zm.7-3.2c1.1 0 2.1-.2 2.9-.6s1.5-.9 1.9-1.5c.5-.6.8-1.2 1-1.9.2-.6.3-1.3.4-2 0-.8 0-1.4 0-1.8l1.3.5c-1.2.2-2.4.4-3.4.5s-1.9.3-2.8.4-1.5.3-2.2.5c-.5.2-1 .4-1.4.7s-.8.6-1 1-.4.8-.4 1.4.1 1 .4 1.5.7.8 1.2 1.1c.6.1 1.3.2 2.1.2z"/><path d="m733 380.9v-20.3h3.5v5.9h.5v14.4zm14.2 0v-10c0-.8-.1-1.6-.2-2.4s-.4-1.6-.8-2.3-.9-1.3-1.6-1.7-1.5-.7-2.6-.7c-.7 0-1.4.1-2 .4s-1.2.6-1.6 1.1-.8 1.2-1.1 2-.4 1.9-.4 3.1l-2.4-.9c0-1.8.3-3.5 1-4.9s1.7-2.5 3-3.3 2.8-1.2 4.7-1.2c1.4 0 2.6.2 3.5.7 1 .5 1.7 1 2.3 1.8s1 1.5 1.4 2.4c.3.9.5 1.7.6 2.5s.2 1.5.2 2.2v11.3z"/><path d="m765.5 380.9v-27h3.5v14.6h.5v12.5zm14.2 0v-10c0-.8-.1-1.6-.2-2.4s-.4-1.6-.8-2.3-.9-1.3-1.6-1.7-1.5-.7-2.6-.7c-.7 0-1.4.1-2 .4s-1.2.6-1.6 1.1-.8 1.2-1.1 2-.4 1.9-.4 3.1l-2.4-.9c0-1.8.3-3.5 1-4.9s1.7-2.5 3-3.3 2.8-1.2 4.7-1.2c1.4 0 2.6.2 3.5.7 1 .5 1.7 1 2.3 1.8s1 1.5 1.4 2.4c.3.9.5 1.7.6 2.5s.2 1.5.2 2.2v11.3z"/><path d="m798.2 381.4c-2 0-3.8-.4-5.3-1.3s-2.7-2.1-3.5-3.7-1.3-3.4-1.3-5.5c0-2.2.4-4.1 1.2-5.8.8-1.6 2-2.9 3.5-3.8s3.2-1.3 5.2-1.3 3.8.5 5.3 1.4 2.5 2.3 3.3 4.1c.7 1.8 1 3.9.8 6.3h-3.9v-1.4c0-2.4-.5-4.1-1.3-5.2s-2.2-1.7-4-1.7c-2 0-3.4.6-4.4 1.9s-1.5 3-1.5 5.4.5 4 1.5 5.2 2.4 1.8 4.3 1.8c1.2 0 2.3-.3 3.2-.8s1.6-1.4 2.1-2.4l3.8 1.2c-.8 1.8-2 3.2-3.6 4.2s-3.4 1.4-5.4 1.4zm-7.2-9.6v-3.1h14.5v3.1z"/><path d="m809.8 363.8v-3.2h13.9v3.2zm13.9 17.1c-1.3.2-2.5.4-3.8.3-1.2 0-2.3-.3-3.3-.7s-1.7-1.1-2.2-2.1c-.4-.8-.7-1.7-.7-2.6s0-1.9 0-3v-17.8h3.9v17.8 2.1s.2 1.1.4 1.5c.5.8 1.2 1.2 2.2 1.3s2.1.1 3.5-.1z"/><path d="m417.4 426.5c-1.5 0-2.8-.3-3.8-.8-1-.6-1.8-1.3-2.3-2.2s-.8-1.9-.8-3c0-1 .2-1.9.5-2.7s.9-1.4 1.6-2c.7-.5 1.6-1 2.6-1.3.9-.3 1.9-.5 3.1-.7 1.1-.2 2.3-.4 3.6-.6s2.5-.4 3.8-.5l-1.4.8c0-1.6-.3-2.8-1-3.5s-1.9-1.2-3.6-1.2c-1.1 0-2 .2-2.9.7s-1.5 1.3-1.9 2.5l-3.7-1.1c.5-1.7 1.5-3.1 2.9-4.1s3.3-1.5 5.6-1.5c1.8 0 3.4.3 4.7.9 1.4.6 2.3 1.6 3 2.9.3.7.5 1.4.6 2.1s.1 1.5.1 2.4v12.5h-3.5v-4.6l.7.6c-.8 1.5-1.9 2.7-3.2 3.5-1.2.5-2.8.9-4.7.9zm.7-3.2c1.1 0 2.1-.2 2.9-.6s1.5-.9 1.9-1.5.8-1.2 1-1.9c.2-.6.3-1.3.4-2 0-.8 0-1.4 0-1.8l1.3.5c-1.2.2-2.4.4-3.4.5s-1.9.3-2.8.4-1.5.3-2.2.5c-.5.2-1 .4-1.4.7s-.8.6-1 1-.4.8-.4 1.4.1 1 .4 1.5.7.8 1.2 1.1 1.2.2 2.1.2z"/><path d="m437.4 426-6.2-20.3h3.9l4.2 13.9 4.3-13.9h3.4l4.3 13.9 4.2-13.9h3.9l-6.2 20.3h-3.2l-4.7-14.7-4.8 14.7z"/><path d="m468.4 426.5c-1.5 0-2.8-.3-3.8-.8-1-.6-1.8-1.3-2.3-2.2s-.8-1.9-.8-3c0-1 .2-1.9.5-2.7s.9-1.4 1.6-2c.7-.5 1.6-1 2.6-1.3.9-.3 1.9-.5 3.1-.7 1.1-.2 2.3-.4 3.6-.6s2.5-.4 3.8-.5l-1.4.8c0-1.6-.3-2.8-1-3.5s-1.9-1.2-3.6-1.2c-1.1 0-2 .2-2.9.7s-1.5 1.3-1.9 2.5l-3.7-1.1c.5-1.7 1.5-3.1 2.9-4.1s3.3-1.5 5.6-1.5c1.8 0 3.4.3 4.7.9 1.4.6 2.3 1.6 3 2.9.3.7.5 1.4.6 2.1s.1 1.5.1 2.4v12.5h-3.5v-4.6l.7.6c-.8 1.5-1.9 2.7-3.2 3.5-1.2.5-2.8.9-4.7.9zm.7-3.2c1.1 0 2.1-.2 2.9-.6s1.5-.9 1.9-1.5.8-1.2 1-1.9c.2-.6.3-1.3.4-2 0-.8 0-1.4 0-1.8l1.3.5c-1.2.2-2.4.4-3.4.5s-1.9.3-2.8.4-1.5.3-2.2.5c-.5.2-1 .4-1.4.7s-.8.6-1 1-.4.8-.4 1.4.1 1 .4 1.5.7.8 1.2 1.1 1.3.2 2.1.2z"/><path d="m484.8 426v-20.3h3.5v4.9l-.5-.6c.2-.6.6-1.2 1-1.8s.9-1 1.4-1.3c.5-.4 1.1-.7 1.7-.9s1.3-.3 1.9-.4c.7 0 1.3 0 1.9.1v3.7c-.7-.2-1.4-.2-2.2-.1s-1.5.3-2.2.8c-.6.4-1.1.9-1.5 1.5s-.6 1.2-.8 2c-.2.7-.2 1.5-.2 2.3v10.2z"/><path d="m508.5 426.5c-2 0-3.8-.4-5.3-1.3s-2.7-2.1-3.5-3.7c-.9-1.6-1.3-3.4-1.3-5.5 0-2.2.4-4.1 1.2-5.8.8-1.6 2-2.9 3.5-3.8s3.2-1.3 5.2-1.3 3.8.5 5.3 1.4 2.5 2.3 3.3 4.1c.7 1.8 1 3.9.8 6.3h-3.9v-1.4c0-2.4-.5-4.1-1.3-5.2s-2.2-1.7-4-1.7c-2 0-3.4.6-4.4 1.9s-1.5 3-1.5 5.4.5 4 1.5 5.2 2.4 1.8 4.3 1.8c1.2 0 2.3-.3 3.2-.8.9-.6 1.6-1.4 2.1-2.4l3.8 1.2c-.8 1.8-2 3.2-3.6 4.2-1.7.9-3.5 1.4-5.4 1.4zm-7.3-9.6v-3.1h14.5v3.1z"/><path d="m522.3 426v-20.3h3.5v5.9h.5v14.4zm14.3 0v-10c0-.8-.1-1.6-.2-2.4s-.4-1.6-.8-2.3-.9-1.3-1.6-1.7-1.5-.7-2.6-.7c-.7 0-1.4.1-2 .4-.6.2-1.2.6-1.6 1.1s-.8 1.2-1.1 2-.4 1.9-.4 3.1l-2.4-.9c0-1.8.3-3.5 1-4.9s1.7-2.5 3-3.3 2.8-1.2 4.7-1.2c1.4 0 2.6.2 3.5.7 1 .5 1.7 1 2.3 1.8s1 1.5 1.4 2.4c.3.9.5 1.7.6 2.5s.2 1.5.2 2.2v11.2z"/><path d="m555.1 426.5c-2 0-3.8-.4-5.3-1.3s-2.7-2.1-3.5-3.7-1.3-3.4-1.3-5.5c0-2.2.4-4.1 1.2-5.8.8-1.6 2-2.9 3.5-3.8s3.2-1.3 5.2-1.3 3.8.5 5.3 1.4 2.5 2.3 3.3 4.1c.7 1.8 1 3.9.8 6.3h-3.9v-1.4c0-2.4-.5-4.1-1.3-5.2s-2.2-1.7-4-1.7c-2 0-3.4.6-4.4 1.9s-1.5 3-1.5 5.4.5 4 1.5 5.2 2.4 1.8 4.3 1.8c1.2 0 2.3-.3 3.2-.8.9-.6 1.6-1.4 2.1-2.4l3.8 1.2c-.8 1.8-2 3.2-3.6 4.2-1.7.9-3.5 1.4-5.4 1.4zm-7.2-9.6v-3.1h14.5v3.1z"/><path d="m576.7 426.5c-2.5 0-4.5-.5-6-1.6s-2.5-2.6-2.8-4.6l4-.6c.2 1 .8 1.9 1.7 2.5s2 .9 3.4.9c1.2 0 2.2-.2 2.9-.8s1-1.2 1-2.1c0-.5-.1-.9-.4-1.2-.2-.3-.8-.6-1.5-.9s-2-.6-3.5-1.1c-1.7-.5-3.1-.9-4.1-1.5s-1.8-1.1-2.2-1.8-.7-1.5-.7-2.5c0-1.2.3-2.3 1-3.2s1.6-1.6 2.8-2.1 2.6-.8 4.2-.8 2.9.2 4.2.7c1.2.5 2.2 1.2 3 2.1s1.2 1.9 1.3 3.1l-4 .7c-.1-1-.6-1.8-1.4-2.3-.8-.6-1.8-.9-3-.9s-2.2.1-2.9.6-1.1 1.1-1.1 1.8c0 .5.1.8.4 1.1s.8.6 1.6.9 2 .6 3.6 1c1.7.4 3.1.9 4.1 1.5 1 .5 1.7 1.2 2.2 1.9s.7 1.6.7 2.7c0 2-.7 3.6-2.2 4.7-1.7 1.2-3.7 1.8-6.3 1.8z"/><path d="m597.5 426.5c-2.5 0-4.5-.5-6-1.6s-2.5-2.6-2.8-4.6l4-.6c.2 1 .8 1.9 1.7 2.5s2 .9 3.4.9c1.2 0 2.2-.2 2.9-.8s1-1.2 1-2.1c0-.5-.1-.9-.4-1.2-.2-.3-.8-.6-1.5-.9s-2-.6-3.5-1.1c-1.7-.5-3.1-.9-4.1-1.5s-1.8-1.1-2.2-1.8-.7-1.5-.7-2.5c0-1.2.3-2.3 1-3.2s1.6-1.6 2.8-2.1 2.6-.8 4.2-.8 2.9.2 4.2.7c1.2.5 2.2 1.2 3 2.1s1.2 1.9 1.3 3.1l-4 .7c-.1-1-.6-1.8-1.4-2.3-.8-.6-1.8-.9-3-.9s-2.2.1-2.9.6-1.1 1.1-1.1 1.8c0 .5.1.8.4 1.1s.8.6 1.6.9 2 .6 3.6 1c1.7.4 3.1.9 4.1 1.5 1 .5 1.7 1.2 2.2 1.9s.7 1.6.7 2.7c0 2-.7 3.6-2.2 4.7-1.7 1.2-3.7 1.8-6.3 1.8z"/><path d="m619.2 435v-29.3h3.5v14.6h.5v14.7zm9.6-8.5c-1.9 0-3.6-.5-4.9-1.4s-2.3-2.2-3-3.8-1-3.4-1-5.5.3-3.9 1-5.5 1.7-2.9 3-3.8 2.9-1.4 4.8-1.4 3.5.5 4.9 1.4 2.5 2.2 3.2 3.8 1.1 3.4 1.1 5.5-.4 3.9-1.1 5.5-1.8 2.9-3.2 3.8-2.9 1.4-4.8 1.4zm-.6-3.5c1.2 0 2.3-.3 3.1-1 .8-.6 1.4-1.5 1.8-2.6s.6-2.3.6-3.6-.2-2.5-.6-3.6-1-1.9-1.9-2.6c-.8-.6-1.9-1-3.2-1-1.2 0-2.2.3-3 .9s-1.4 1.4-1.8 2.5-.6 2.3-.6 3.7.2 2.6.6 3.7 1 1.9 1.8 2.5c.9.8 2 1.1 3.2 1.1z"/><path d="m642.7 426v-20.3h3.5v4.9l-.5-.6c.2-.6.6-1.2 1-1.8s.9-1 1.4-1.3c.5-.4 1.1-.7 1.7-.9s1.3-.3 1.9-.4c.7 0 1.3 0 1.9.1v3.7c-.7-.2-1.4-.2-2.2-.1s-1.5.3-2.2.8c-.6.4-1.1.9-1.5 1.5s-.6 1.2-.8 2c-.2.7-.2 1.5-.2 2.3v10.2z"/><path d="m666.2 426.5c-2 0-3.8-.5-5.3-1.4s-2.6-2.2-3.5-3.8-1.2-3.5-1.2-5.6.4-4 1.2-5.6 2-2.9 3.5-3.8 3.2-1.3 5.2-1.3 3.8.5 5.3 1.4 2.6 2.2 3.5 3.8c.8 1.6 1.2 3.5 1.2 5.5s-.4 4-1.2 5.6-2 2.9-3.5 3.8c-1.4 1-3.2 1.4-5.2 1.4zm0-3.7c1.9 0 3.4-.6 4.3-2s1.4-3 1.4-5.1-.5-3.8-1.5-5.1-2.4-1.9-4.3-1.9c-1.3 0-2.4.3-3.2.9s-1.5 1.4-1.9 2.5c-.4 1-.6 2.3-.6 3.6 0 2.1.5 3.8 1.5 5.1s2.4 2 4.3 2z"/><path d="m689 426.5c-1.9 0-3.5-.5-4.9-1.4s-2.4-2.2-3.2-3.8-1.1-3.5-1.1-5.5.4-3.9 1.1-5.5c.8-1.6 1.8-2.9 3.2-3.8s3-1.4 4.9-1.4 3.5.5 4.8 1.4 2.3 2.2 3 3.8 1 3.4 1 5.5-.3 3.9-1 5.5-1.7 2.9-3 3.8c-1.3 1-2.9 1.4-4.8 1.4zm.3 9c-1.1 0-2.1-.2-3.2-.5-1-.3-2-.8-2.8-1.5s-1.5-1.5-2.1-2.4l3.6-1.8c.4.9 1.1 1.5 1.9 1.9s1.7.6 2.6.6c1.1 0 2.1-.2 2.9-.6s1.4-1 1.8-1.8.6-1.8.6-2.9v-5.7h.5v-15.1h3.5v20.8c0 .5 0 1-.1 1.5 0 .5-.1 1-.2 1.5-.3 1.4-.8 2.5-1.6 3.4s-1.8 1.5-3.1 2-2.8.6-4.3.6zm.2-12.5c1.3 0 2.3-.3 3.2-.9.8-.6 1.4-1.5 1.8-2.5.4-1.1.6-2.3.6-3.7s-.2-2.6-.6-3.7-1-1.9-1.8-2.5-1.8-.9-3-.9c-1.3 0-2.4.3-3.2 1s-1.5 1.5-1.9 2.6-.6 2.3-.6 3.6.2 2.5.6 3.6 1 1.9 1.8 2.6c.8.4 1.9.8 3.1.8z"/><path d="m704.3 426v-20.3h3.5v4.9l-.5-.6c.2-.6.6-1.2 1-1.8s.9-1 1.4-1.3c.5-.4 1.1-.7 1.7-.9s1.3-.3 1.9-.4c.7 0 1.3 0 1.9.1v3.7c-.7-.2-1.4-.2-2.2-.1s-1.5.3-2.2.8c-.6.4-1.1.9-1.5 1.5s-.6 1.2-.8 2c-.2.7-.2 1.5-.2 2.3v10.2z"/><path d="m724.9 426.5c-1.5 0-2.8-.3-3.8-.8-1-.6-1.8-1.3-2.3-2.2s-.8-1.9-.8-3c0-1 .2-1.9.5-2.7s.9-1.4 1.6-2c.7-.5 1.6-1 2.6-1.3.9-.3 1.9-.5 3.1-.7 1.1-.2 2.3-.4 3.6-.6s2.5-.4 3.8-.5l-1.4.8c0-1.6-.3-2.8-1-3.5s-1.9-1.2-3.6-1.2c-1.1 0-2 .2-2.9.7s-1.5 1.3-1.9 2.5l-3.7-1.1c.5-1.7 1.5-3.1 2.9-4.1s3.3-1.5 5.6-1.5c1.8 0 3.4.3 4.7.9s2.3 1.6 3 2.9c.3.7.5 1.4.6 2.1s.1 1.5.1 2.4v12.5h-3.5v-4.6l.7.6c-.8 1.5-1.9 2.7-3.2 3.5-1.2.5-2.8.9-4.7.9zm.7-3.2c1.1 0 2.1-.2 2.9-.6s1.5-.9 1.9-1.5.8-1.2 1-1.9c.2-.6.3-1.3.4-2 0-.8 0-1.4 0-1.8l1.3.5c-1.2.2-2.4.4-3.4.5s-1.9.3-2.8.4-1.5.3-2.2.5c-.5.2-1 .4-1.4.7s-.8.6-1 1-.4.8-.4 1.4.1 1 .4 1.5.7.8 1.2 1.1c.5.1 1.2.2 2.1.2z"/><path d="m741.2 426v-20.3h3.5v5.9h.5v14.4zm12.2 0v-12.6c0-1.5-.4-2.6-1.1-3.5-.8-.8-1.7-1.3-3-1.3s-2.2.4-3 1.3-1.1 2-1.1 3.3l-1.9-1.2c0-1.3.3-2.5 1-3.5.6-1 1.5-1.9 2.6-2.5s2.3-.9 3.7-.9 2.7.3 3.7.9 1.8 1.5 2.3 2.5.8 2.4.8 3.8v13.5h-4zm12.1 0v-12.6c0-1.5-.4-2.6-1.1-3.4s-1.7-1.2-3-1.2c-.8 0-1.4.2-2.1.5-.6.3-1.1.9-1.5 1.5-.4.7-.6 1.5-.6 2.6l-1.9-1c0-1.4.3-2.7.9-3.8s1.5-1.9 2.6-2.5 2.3-.9 3.7-.9c2.2 0 3.9.7 5.1 2s1.8 3.1 1.8 5.2v13.6z"/><path d="m775 426v-20.3h3.5v5.9h.5v14.4zm12.2 0v-12.6c0-1.5-.4-2.6-1.1-3.5-.8-.8-1.7-1.3-3-1.3s-2.2.4-3 1.3-1.1 2-1.1 3.3l-1.9-1.2c0-1.3.3-2.5 1-3.5.6-1 1.5-1.9 2.6-2.5s2.3-.9 3.7-.9 2.7.3 3.7.9 1.8 1.5 2.3 2.5.8 2.4.8 3.8v13.5h-4zm12.1 0v-12.6c0-1.5-.4-2.6-1.1-3.4s-1.7-1.2-3-1.2c-.8 0-1.4.2-2.1.5-.6.3-1.1.9-1.5 1.5-.4.7-.6 1.5-.6 2.6l-1.9-1c0-1.4.3-2.7.9-3.8s1.5-1.9 2.6-2.5 2.3-.9 3.7-.9c2.2 0 3.9.7 5.1 2s1.8 3.1 1.8 5.2v13.6z"/><path d="m814.5 426.5c-1.5 0-2.8-.3-3.8-.8-1-.6-1.8-1.3-2.3-2.2s-.8-1.9-.8-3c0-1 .2-1.9.5-2.7s.9-1.4 1.6-2c.7-.5 1.6-1 2.6-1.3.9-.3 1.9-.5 3.1-.7 1.1-.2 2.3-.4 3.6-.6s2.5-.4 3.8-.5l-1.4.8c0-1.6-.3-2.8-1-3.5s-1.9-1.2-3.6-1.2c-1.1 0-2 .2-2.9.7s-1.5 1.3-1.9 2.5l-3.7-1.1c.5-1.7 1.5-3.1 2.9-4.1s3.3-1.5 5.6-1.5c1.8 0 3.4.3 4.7.9s2.3 1.6 3 2.9c.3.7.5 1.4.6 2.1s.1 1.5.1 2.4v12.5h-3.5v-4.6l.7.6c-.8 1.5-1.9 2.7-3.2 3.5-1.2.5-2.8.9-4.7.9zm.7-3.2c1.1 0 2.1-.2 2.9-.6s1.5-.9 1.9-1.5.8-1.2 1-1.9c.2-.6.3-1.3.4-2 0-.8 0-1.4 0-1.8l1.3.5c-1.2.2-2.4.4-3.4.5s-1.9.3-2.8.4-1.5.3-2.2.5c-.5.2-1 .4-1.4.7s-.8.6-1 1-.4.8-.4 1.4.1 1 .4 1.5.7.8 1.2 1.1c.6.1 1.3.2 2.1.2z"/><path d="m422.7 216.5c-1.8 0-3.5-.3-5-.9s-2.9-1.6-4-2.8-2-2.7-2.6-4.4-.9-3.7-.9-5.9c0-2.9.5-5.4 1.6-7.5s2.5-3.7 4.4-4.9 4.1-1.7 6.5-1.7c3.2 0 5.7.7 7.6 2.2s3.2 3.5 3.9 6.1l-4 .7c-.5-1.6-1.4-2.9-2.7-3.9-1.2-1-2.8-1.4-4.6-1.5-1.9 0-3.5.4-4.8 1.3s-2.2 2.1-2.9 3.6c-.6 1.6-1 3.4-1 5.4 0 2.1.3 3.9.9 5.4s1.6 2.8 2.9 3.6 2.9 1.3 4.8 1.3c1.5 0 2.9-.3 4-.9s2-1.5 2.6-2.6 1.1-2.6 1.3-4.2h-5.3v-3.2h9.4c0 .2 0 .5.1.9v.7c0 2.5-.5 4.7-1.5 6.7s-2.4 3.5-4.2 4.6c-1.6 1.4-3.9 2-6.5 1.9z"/><path d="m448.5 216.5c-2 0-3.8-.4-5.3-1.3s-2.7-2.1-3.5-3.7c-.9-1.6-1.3-3.4-1.3-5.5 0-2.2.4-4.1 1.2-5.8s2-2.9 3.5-3.8 3.2-1.3 5.2-1.3 3.8.5 5.3 1.4 2.5 2.3 3.3 4.1c.7 1.8 1 3.9.9 6.3h-3.9v-1.4c0-2.4-.5-4.1-1.3-5.2s-2.2-1.7-4-1.7c-2 0-3.4.6-4.4 1.9s-1.5 3-1.5 5.4.5 3.9 1.5 5.2 2.4 1.8 4.3 1.8c1.2 0 2.3-.3 3.2-.8.9-.6 1.6-1.4 2.1-2.4l3.9 1.2c-.8 1.8-2 3.2-3.6 4.2s-3.7 1.4-5.6 1.4zm-7.3-9.6v-3.1h14.5v3.1z"/><path d="m462.4 225v-29.3h3.5v14.6h.5v14.7zm9.5-8.5c-1.9 0-3.6-.5-4.9-1.4s-2.3-2.2-3-3.8-1-3.4-1-5.5.3-3.9 1-5.5 1.7-2.9 3-3.8 2.9-1.4 4.8-1.4 3.5.5 4.9 1.4 2.5 2.2 3.2 3.8 1.1 3.4 1.1 5.5-.4 3.9-1.1 5.5-1.8 2.9-3.2 3.8c-1.3 1-2.9 1.4-4.8 1.4zm-.5-3.5c1.2 0 2.3-.3 3.1-1 .8-.6 1.4-1.5 1.8-2.6s.6-2.3.6-3.6-.2-2.5-.6-3.6-1-1.9-1.9-2.6c-.8-.6-1.9-1-3.2-1-1.2 0-2.2.3-3 .9s-1.4 1.4-1.8 2.5-.6 2.3-.6 3.7.2 2.6.6 3.7 1 1.9 1.8 2.5c.8.8 1.9 1.1 3.2 1.1z"/><path d="m494.9 216.5c-2 0-3.8-.4-5.3-1.3s-2.7-2.1-3.5-3.7c-.9-1.6-1.3-3.4-1.3-5.5 0-2.2.4-4.1 1.2-5.8s2-2.9 3.5-3.8 3.2-1.3 5.2-1.3 3.8.5 5.3 1.4 2.5 2.3 3.3 4.1c.7 1.8 1 3.9.9 6.3h-3.9v-1.4c0-2.4-.5-4.1-1.3-5.2s-2.2-1.7-4-1.7c-2 0-3.4.6-4.4 1.9s-1.5 3-1.5 5.4.5 3.9 1.5 5.2 2.4 1.8 4.3 1.8c1.2 0 2.3-.3 3.2-.8.9-.6 1.6-1.4 2.1-2.4l3.9 1.2c-.8 1.8-2 3.2-3.6 4.2s-3.6 1.4-5.6 1.4zm-7.2-9.6v-3.1h14.5v3.1z"/><path d="m508.8 216v-20.3h3.5v4.9l-.5-.6c.2-.6.6-1.2 1-1.8s.9-1 1.4-1.3c.5-.4 1.1-.7 1.7-.9s1.3-.3 1.9-.4c.7 0 1.3 0 1.9.1v3.7c-.7-.2-1.4-.2-2.2-.1s-1.5.3-2.2.8c-.6.4-1.1.9-1.5 1.5s-.6 1.2-.8 2c-.2.7-.2 1.5-.2 2.3v10.1z"/><path d="m531.6 216.5c-2.5 0-4.5-.5-6-1.6s-2.5-2.6-2.8-4.6l4-.6c.2 1.1.8 1.9 1.7 2.5s2 .9 3.4.9c1.2 0 2.2-.2 2.9-.8s1-1.2 1-2.1c0-.5-.1-.9-.4-1.2-.2-.3-.8-.6-1.5-.9-.8-.3-2-.6-3.5-1.1-1.7-.4-3.1-.9-4.1-1.5s-1.8-1.1-2.2-1.8-.7-1.5-.7-2.5c0-1.2.3-2.3 1-3.2s1.6-1.6 2.8-2.1 2.6-.8 4.2-.8 2.9.2 4.2.7c1.2.5 2.2 1.2 3 2.1s1.2 1.9 1.3 3.1l-4 .7c-.1-1-.6-1.8-1.4-2.3-.8-.6-1.8-.9-3-.9-1.2-.1-2.2.1-2.9.6s-1.1 1.1-1.1 1.8c0 .4.1.8.4 1.1s.8.6 1.6.9 2 .6 3.6 1c1.7.4 3.1.9 4.1 1.5 1 .5 1.7 1.2 2.2 1.9s.7 1.6.7 2.7c0 2-.7 3.6-2.2 4.7s-3.7 1.8-6.3 1.8z"/><path d="m553.3 216.5c-2 0-3.8-.5-5.3-1.4s-2.6-2.2-3.5-3.8-1.2-3.5-1.2-5.6.4-4 1.2-5.6 2-2.9 3.5-3.8 3.2-1.3 5.2-1.3 3.8.5 5.3 1.4 2.6 2.2 3.5 3.8c.8 1.6 1.2 3.4 1.2 5.5s-.4 4-1.2 5.6-2 2.9-3.5 3.8c-1.4 1-3.1 1.4-5.2 1.4zm0-3.7c1.9 0 3.4-.6 4.3-2s1.4-3 1.4-5.1-.5-3.8-1.5-5.1-2.4-1.9-4.3-1.9c-1.3 0-2.4.3-3.2.9s-1.5 1.4-1.9 2.5-.6 2.3-.6 3.6c0 2.1.5 3.8 1.5 5.1s2.4 2 4.3 2z"/><path d="m568 216v-20.3h3.5v5.9h.5v14.4zm14.3 0v-10c0-.8-.1-1.6-.2-2.4s-.4-1.6-.8-2.3-.9-1.3-1.6-1.7-1.5-.7-2.6-.7c-.7 0-1.4.1-2 .4-.6.2-1.2.6-1.6 1.1s-.8 1.2-1.1 2-.4 1.9-.4 3.1l-2.4-.9c0-1.8.3-3.5 1-4.9s1.7-2.5 3-3.3 2.8-1.2 4.7-1.2c1.4 0 2.6.2 3.5.7 1 .4 1.7 1 2.3 1.8s1 1.5 1.4 2.4.5 1.7.6 2.5.2 1.6.2 2.2v11.2z"/><path d="m597.4 216.5c-1.5 0-2.8-.3-3.8-.8-1-.6-1.8-1.3-2.3-2.2s-.8-1.9-.8-3c0-1 .2-1.9.5-2.7s.9-1.4 1.6-2c.7-.5 1.6-1 2.6-1.3.9-.3 1.9-.5 3.1-.7 1.1-.2 2.3-.4 3.6-.6s2.5-.4 3.8-.5l-1.4.8c0-1.6-.3-2.8-1-3.5s-1.9-1.2-3.6-1.2c-1.1 0-2 .2-2.9.7s-1.5 1.3-1.9 2.4l-3.7-1.1c.5-1.7 1.5-3.1 2.9-4.1s3.3-1.5 5.6-1.5c1.8 0 3.4.3 4.7.9s2.3 1.6 3 2.9c.3.7.5 1.4.6 2.1s.1 1.5.1 2.4v12.5h-3.5v-4.6l.7.6c-.8 1.6-1.9 2.7-3.2 3.5-1.2.7-2.8 1-4.7 1zm.7-3.2c1.1 0 2.1-.2 2.9-.6s1.5-.9 1.9-1.5.8-1.2 1-1.9c.2-.6.3-1.3.4-2 0-.8 0-1.4 0-1.8l1.3.5c-1.2.2-2.4.4-3.4.5s-1.9.3-2.8.4-1.5.3-2.2.5c-.5.2-1 .4-1.4.7s-.8.6-1 1-.4.8-.4 1.4.1 1 .4 1.5.7.8 1.2 1.1c.6.1 1.3.2 2.1.2z"/><path d="m613.9 216v-27.6h3.9v27.6z"/><path d="m624 192.4v-3.8h3.9v3.8zm0 23.6v-20.3h3.9v20.3z"/><path d="m641.5 216.5c-2.5 0-4.5-.5-6-1.6s-2.5-2.6-2.8-4.6l4-.6c.2 1.1.8 1.9 1.7 2.5s2 .9 3.4.9c1.2 0 2.2-.2 2.9-.8s1-1.2 1-2.1c0-.5-.1-.9-.4-1.2-.2-.3-.8-.6-1.5-.9-.8-.3-2-.6-3.5-1.1-1.7-.4-3.1-.9-4.1-1.5s-1.8-1.1-2.2-1.8-.7-1.5-.7-2.5c0-1.2.3-2.3 1-3.2s1.6-1.6 2.8-2.1 2.6-.8 4.2-.8 2.9.2 4.2.7c1.2.5 2.2 1.2 3 2.1s1.2 1.9 1.3 3.1l-4 .7c-.1-1-.6-1.8-1.4-2.3-.8-.6-1.8-.9-3-.9-1.2-.1-2.2.1-2.9.6s-1.1 1.1-1.1 1.8c0 .4.1.8.4 1.1s.8.6 1.6.9 2 .6 3.6 1c1.7.4 3.1.9 4.1 1.5 1 .5 1.7 1.2 2.2 1.9s.7 1.6.7 2.7c0 2-.7 3.6-2.2 4.7s-3.7 1.8-6.3 1.8z"/><path d="m663.4 216.5c-2 0-3.8-.4-5.3-1.3s-2.7-2.1-3.5-3.7-1.3-3.4-1.3-5.5c0-2.2.4-4.1 1.2-5.8s2-2.9 3.5-3.8 3.2-1.3 5.2-1.3 3.8.5 5.3 1.4 2.5 2.3 3.3 4.1c.7 1.8 1 3.9.8 6.3h-3.9v-1.4c0-2.4-.5-4.1-1.3-5.2s-2.2-1.7-4-1.7c-2 0-3.4.6-4.4 1.9s-1.5 3-1.5 5.4.5 3.9 1.5 5.2 2.4 1.8 4.3 1.8c1.2 0 2.3-.3 3.2-.8.9-.6 1.6-1.4 2.1-2.4l3.8 1.2c-.8 1.8-2 3.2-3.6 4.2-1.6.9-3.4 1.4-5.4 1.4zm-7.2-9.6v-3.1h14.5v3.1z"/><path d="m686.5 216.5c-2 0-3.8-.4-5.3-1.3s-2.7-2.1-3.5-3.7-1.3-3.4-1.3-5.5c0-2.2.4-4.1 1.2-5.8s2-2.9 3.5-3.8 3.2-1.3 5.2-1.3 3.8.5 5.3 1.4 2.5 2.3 3.3 4.1c.7 1.8 1 3.9.8 6.3h-3.9v-1.4c0-2.4-.5-4.1-1.3-5.2s-2.2-1.7-4-1.7c-2 0-3.4.6-4.4 1.9s-1.5 3-1.5 5.4.5 3.9 1.5 5.2 2.4 1.8 4.3 1.8c1.2 0 2.3-.3 3.2-.8.9-.6 1.6-1.4 2.1-2.4l3.8 1.2c-.8 1.8-2 3.2-3.6 4.2-1.7.9-3.5 1.4-5.4 1.4zm-7.3-9.6v-3.1h14.5v3.1z"/><path d="m700.3 216v-20.3h3.5v4.9l-.5-.6c.2-.6.6-1.2 1-1.8s.9-1 1.4-1.3c.5-.4 1.1-.7 1.7-.9s1.3-.3 1.9-.4c.7 0 1.3 0 1.9.1v3.7c-.7-.2-1.4-.2-2.2-.1s-1.5.3-2.2.8c-.6.4-1.1.9-1.5 1.5s-.6 1.2-.8 2c-.2.7-.2 1.5-.2 2.3v10.1z"/><path d="m723.2 216.5c-1.9 0-3.5-.5-4.9-1.4s-2.4-2.2-3.2-3.8-1.1-3.4-1.1-5.5.4-3.9 1.1-5.5c.8-1.6 1.8-2.9 3.2-3.8s3-1.4 4.9-1.4 3.5.5 4.8 1.4 2.3 2.2 3 3.8 1 3.4 1 5.5-.3 3.9-1 5.5-1.7 2.9-3 3.8c-1.3 1-2.9 1.5-4.8 1.4zm.5-3.5c1.3 0 2.3-.3 3.2-.9.8-.6 1.4-1.5 1.8-2.5.4-1.1.6-2.3.6-3.7s-.2-2.6-.6-3.7-1-1.9-1.8-2.5-1.8-.9-3-.9c-1.3 0-2.4.3-3.2 1s-1.5 1.5-1.9 2.6-.6 2.3-.6 3.6.2 2.6.6 3.6 1 1.9 1.8 2.6 1.8.8 3.1.8zm5.5 3v-14.6h-.5v-12.4h3.9v27z"/><path d="m412 261.1v-27.6h3.9v27.6z"/><path d="m431 261.6c-2 0-3.8-.4-5.3-1.3s-2.7-2.1-3.5-3.7c-.9-1.6-1.3-3.4-1.3-5.5 0-2.2.4-4.1 1.2-5.8s2-2.9 3.5-3.8 3.2-1.3 5.2-1.3 3.8.5 5.3 1.4 2.5 2.3 3.3 4.1c.7 1.8 1 3.9.9 6.3h-3.9v-1.4c0-2.4-.5-4.1-1.3-5.2s-2.2-1.7-4-1.7c-2 0-3.4.6-4.4 1.9s-1.5 3-1.5 5.4.5 3.9 1.5 5.2c1 1.2 2.4 1.8 4.3 1.8 1.2 0 2.3-.3 3.2-.8.9-.6 1.6-1.4 2.1-2.4l3.9 1.2c-.8 1.8-2 3.2-3.6 4.2s-3.6 1.4-5.6 1.4zm-7.2-9.6v-3h14.5v3.1h-14.5z"/><path d="m444.9 261.1v-20.3h3.5v4.9l-.5-.6c.2-.6.6-1.2 1-1.8s.9-1 1.4-1.3c.5-.4 1.1-.7 1.7-.9s1.3-.3 1.9-.4 1.3 0 1.9.1v3.7c-.7-.2-1.4-.2-2.2-.1s-1.5.3-2.2.8c-.6.4-1.1.9-1.5 1.5s-.6 1.2-.8 2-.2 1.5-.2 2.3v10.2z"/><path d="m468.6 261.6c-2 0-3.8-.4-5.3-1.3s-2.7-2.1-3.5-3.7c-.9-1.6-1.3-3.4-1.3-5.5 0-2.2.4-4.1 1.2-5.8s2-2.9 3.5-3.8 3.2-1.3 5.2-1.3 3.8.5 5.3 1.4 2.5 2.3 3.3 4.1c.7 1.8 1 3.9.9 6.3h-3.9v-1.4c0-2.4-.5-4.1-1.3-5.2s-2.2-1.7-4-1.7c-2 0-3.4.6-4.4 1.9s-1.5 3-1.5 5.4.5 3.9 1.5 5.2c1 1.2 2.4 1.8 4.3 1.8 1.2 0 2.3-.3 3.2-.8.9-.6 1.6-1.4 2.1-2.4l3.9 1.2c-.8 1.8-2 3.2-3.6 4.2s-3.7 1.4-5.6 1.4zm-7.2-9.6v-3h14.5v3.1h-14.5z"/><path d="m482.5 261.1v-20.3h3.5v5.9h.5v14.4zm14.3 0v-10c0-.8-.1-1.6-.2-2.4s-.4-1.6-.8-2.3-.9-1.3-1.6-1.7-1.5-.7-2.6-.7c-.7 0-1.4.1-2 .4-.6.2-1.2.6-1.6 1.1-.5.5-.8 1.2-1.1 2s-.4 1.9-.4 3.1l-2.4-.9c0-1.8.3-3.5 1-4.9s1.7-2.5 3-3.3 2.9-1.2 4.7-1.2c1.4 0 2.6.2 3.5.7s1.7 1 2.3 1.8 1 1.5 1.4 2.4.5 1.7.6 2.5.2 1.6.2 2.2v11.3z"/><path d="m409.8 47.6 8.8-27h5.6l8.8 27h-4.1l-8.1-24.7h1l-8 24.7zm4.5-6.1v-3.7h14.1v3.7z"/><path d="m439.9 47.6-6.2-20.3h3.9l4.2 13.9 4.3-13.9h3.4l4.3 13.9 4.2-13.9h3.9l-6.2 20.3h-3.2l-4.7-14.7-4.8 14.7z"/><path d="m471 48.2c-1.5 0-2.8-.3-3.8-.8-1-.6-1.8-1.3-2.3-2.2s-.8-1.9-.8-3c0-1 .2-1.9.5-2.7s.9-1.4 1.6-2c.7-.5 1.6-1 2.6-1.3.9-.3 1.9-.5 3.1-.7 1.1-.2 2.3-.4 3.6-.6s2.5-.3 3.8-.5l-1.4.8c0-1.6-.3-2.8-1-3.5s-1.9-1.2-3.6-1.2c-1.1 0-2 .2-2.9.7s-1.5 1.3-1.9 2.4l-3.7-1.1c.5-1.7 1.5-3.1 2.9-4.1s3.3-1.5 5.6-1.5c1.8 0 3.4.3 4.7.9 1.4.6 2.3 1.6 3 2.9.3.7.5 1.4.6 2.1s.1 1.5.1 2.4v12.5h-3.5v-4.6l.7.6c-.8 1.5-1.9 2.7-3.2 3.5-1.2.6-2.8.9-4.7 1zm.7-3.3c1.1 0 2.1-.2 2.9-.6s1.5-.9 1.9-1.5.8-1.2 1-1.9c.2-.6.3-1.3.4-2 0-.8 0-1.3 0-1.8l1.3.5c-1.2.2-2.4.4-3.4.5-1 .2-1.9.3-2.8.4s-1.5.3-2.2.5c-.5.2-1 .4-1.4.7s-.8.6-1 1-.4.8-.4 1.4.1 1 .4 1.5.7.8 1.2 1.1c.6.1 1.3.3 2.1.2z"/><path d="m487.3 47.6v-20.3h3.5v4.9l-.5-.6c.2-.6.6-1.2 1-1.8s.9-1 1.4-1.3c.5-.4 1.1-.7 1.7-.9s1.3-.3 1.9-.4c.7 0 1.3 0 1.9.1v3.7c-.7-.2-1.4-.2-2.2-.1s-1.5.3-2.2.8c-.6.4-1.1.9-1.5 1.5s-.6 1.2-.8 2c-.2.7-.2 1.5-.2 2.3v10.2z"/><path d="m511 48.2c-2 0-3.8-.4-5.3-1.3s-2.7-2.1-3.5-3.7c-.9-1.6-1.3-3.4-1.3-5.5 0-2.2.4-4.1 1.2-5.8.8-1.6 2-2.9 3.5-3.8s3.2-1.3 5.2-1.3 3.8.5 5.3 1.4c1.5 1 2.5 2.3 3.3 4.1.7 1.8 1 3.9.8 6.3h-3.9v-1.4c0-2.3-.5-4.1-1.3-5.2s-2.2-1.7-4-1.7c-2 0-3.4.6-4.4 1.9-1 1.2-1.5 3-1.5 5.4s.5 4 1.5 5.2 2.4 1.8 4.3 1.8c1.2 0 2.3-.3 3.2-.8.9-.6 1.6-1.4 2.1-2.4l3.8 1.2c-.8 1.8-2 3.2-3.6 4.2-1.7.9-3.4 1.3-5.4 1.4zm-7.2-9.6v-3.1h14.5v3.1z"/><path d="m524.9 47.6v-20.3h3.5v5.9h.5v14.4zm14.3 0v-10c0-.8-.1-1.6-.2-2.4s-.4-1.6-.8-2.3-.9-1.3-1.6-1.7-1.5-.7-2.6-.7c-.7 0-1.4.1-2 .4-.6.2-1.2.6-1.6 1.1s-.8 1.2-1.1 2-.4 1.9-.4 3.1l-2.4-.9c0-1.8.3-3.5 1-4.9s1.7-2.5 3-3.3 2.8-1.2 4.7-1.2c1.4 0 2.6.2 3.5.7 1 .5 1.7 1 2.3 1.8s1 1.5 1.4 2.4.5 1.7.6 2.5.2 1.5.2 2.2v11.3z"/><path d="m557.7 48.2c-2 0-3.8-.4-5.3-1.3s-2.7-2.1-3.5-3.7-1.3-3.4-1.3-5.5c0-2.2.4-4.1 1.2-5.8.8-1.6 2-2.9 3.5-3.8s3.2-1.3 5.2-1.3 3.8.5 5.3 1.4c1.5 1 2.5 2.3 3.3 4.1.7 1.8 1 3.9.8 6.3h-3.9v-1.4c0-2.3-.5-4.1-1.3-5.2s-2.2-1.7-4-1.7c-2 0-3.4.6-4.4 1.9-1 1.2-1.5 3-1.5 5.4s.5 4 1.5 5.2 2.4 1.8 4.3 1.8c1.2 0 2.3-.3 3.2-.8.9-.6 1.6-1.4 2.1-2.4l3.8 1.2c-.8 1.8-2 3.2-3.6 4.2-1.7.9-3.5 1.3-5.4 1.4zm-7.3-9.6v-3.1h14.5v3.1z"/><path d="m579.3 48.1c-2.5 0-4.5-.5-6-1.6s-2.5-2.6-2.8-4.6l4-.6c.2 1 .8 1.9 1.7 2.5s2 .9 3.4.9c1.2 0 2.2-.2 2.9-.8s1-1.2 1-2.1c0-.5-.1-.9-.4-1.2-.2-.3-.8-.6-1.5-.9s-2-.7-3.5-1.1c-1.7-.5-3.1-.9-4.1-1.5s-1.8-1.1-2.2-1.8-.7-1.5-.7-2.5c0-1.2.3-2.3 1-3.2s1.6-1.6 2.8-2.1 2.6-.8 4.2-.8 2.9.2 4.2.7 2.2 1.2 3 2.1 1.2 1.9 1.3 3.1l-4 .7c-.1-1-.6-1.8-1.4-2.3-.8-.6-1.8-.9-3-.9s-2.2.1-2.9.6-1.1 1.1-1.1 1.8c0 .5.1.8.4 1.2.3.3.8.6 1.6.9s2 .6 3.6 1c1.7.4 3.1.9 4.1 1.5 1 .5 1.7 1.2 2.2 1.9s.7 1.6.7 2.7c0 2-.7 3.6-2.2 4.7s-3.7 1.8-6.3 1.7z"/><path d="m600 48.1c-2.5 0-4.5-.5-6-1.6s-2.5-2.6-2.8-4.6l4-.6c.2 1 .8 1.9 1.7 2.5s2 .9 3.4.9c1.2 0 2.2-.2 2.9-.8s1-1.2 1-2.1c0-.5-.1-.9-.4-1.2-.2-.3-.8-.6-1.5-.9s-2-.7-3.5-1.1c-1.7-.5-3.1-.9-4.1-1.5s-1.8-1.1-2.2-1.8-.7-1.5-.7-2.5c0-1.2.3-2.3 1-3.2s1.6-1.6 2.8-2.1 2.6-.8 4.2-.8 2.9.2 4.2.7 2.2 1.2 3 2.1 1.2 1.9 1.3 3.1l-4 .7c-.1-1-.6-1.8-1.4-2.3-.8-.6-1.8-.9-3-.9s-2.2.1-2.9.6-1.1 1.1-1.1 1.8c0 .5.1.8.4 1.2.3.3.8.6 1.6.9s2 .6 3.6 1c1.7.4 3.1.9 4.1 1.5 1 .5 1.7 1.2 2.2 1.9s.7 1.6.7 2.7c0 2-.7 3.6-2.2 4.7s-3.7 1.8-6.3 1.7z"/><path d="m621.8 47.6v-20.3h3.5v5.9h.5v14.4zm12.2 0v-12.6c0-1.5-.4-2.6-1.1-3.5-.8-.8-1.7-1.3-3-1.3s-2.2.4-3 1.3-1.1 2-1.1 3.3l-1.9-1.2c0-1.3.3-2.5 1-3.5.6-1 1.5-1.9 2.6-2.5s2.3-.9 3.7-.9 2.7.3 3.7.9 1.8 1.5 2.3 2.5.8 2.4.8 3.8v13.5h-4zm12.1 0v-12.6c0-1.5-.4-2.6-1.1-3.4s-1.7-1.2-3-1.2c-.8 0-1.4.2-2.1.5-.6.3-1.1.9-1.5 1.5s-.6 1.5-.6 2.6l-1.9-1c0-1.4.3-2.7.9-3.8s1.5-1.9 2.6-2.5 2.3-.9 3.7-.9c2.2 0 3.9.7 5.1 2s1.8 3.1 1.8 5.2v13.6z"/><path d="m661.3 48.2c-1.5 0-2.8-.3-3.8-.8-1-.6-1.8-1.3-2.3-2.2s-.8-1.9-.8-3c0-1 .2-1.9.5-2.7s.9-1.4 1.6-2c.7-.5 1.6-1 2.6-1.3.9-.3 1.9-.5 3.1-.7 1.1-.2 2.3-.4 3.6-.6s2.5-.3 3.8-.5l-1.4.8c0-1.6-.3-2.8-1-3.5s-1.9-1.2-3.6-1.2c-1.1 0-2 .2-2.9.7s-1.5 1.3-1.9 2.4l-3.7-1.1c.5-1.7 1.5-3.1 2.9-4.1s3.3-1.5 5.6-1.5c1.8 0 3.4.3 4.7.9s2.3 1.6 3 2.9c.3.7.5 1.4.6 2.1s.1 1.5.1 2.4v12.5h-3.5v-4.6l.7.6c-.8 1.5-1.9 2.7-3.2 3.5-1.2.6-2.8.9-4.7 1zm.7-3.3c1.1 0 2.1-.2 2.9-.6s1.5-.9 1.9-1.5.8-1.2 1-1.9c.2-.6.3-1.3.4-2 0-.8 0-1.3 0-1.8l1.3.5c-1.2.2-2.4.4-3.4.5-1 .2-1.9.3-2.8.4s-1.5.3-2.2.5c-.5.2-1 .4-1.4.7s-.8.6-1 1-.4.8-.4 1.4.1 1 .4 1.5.7.8 1.2 1.1c.6.1 1.3.3 2.1.2z"/><path d="m683.4 48.2c-1.5 0-2.8-.3-3.8-.8-1-.6-1.8-1.3-2.3-2.2s-.8-1.9-.8-3c0-1 .2-1.9.5-2.7s.9-1.4 1.6-2c.7-.5 1.6-1 2.6-1.3.9-.3 1.9-.5 3.1-.7 1.1-.2 2.3-.4 3.6-.6s2.5-.3 3.8-.5l-1.4.8c0-1.6-.3-2.8-1-3.5s-1.9-1.2-3.6-1.2c-1.1 0-2 .2-2.9.7s-1.5 1.3-1.9 2.4l-3.7-1.1c.5-1.7 1.5-3.1 2.9-4.1s3.3-1.5 5.6-1.5c1.8 0 3.4.3 4.7.9s2.3 1.6 3 2.9c.3.7.5 1.4.6 2.1s.1 1.5.1 2.4v12.5h-3.5v-4.6l.7.6c-.8 1.5-1.9 2.7-3.2 3.5-1.3.6-2.9.9-4.7 1zm.7-3.3c1.1 0 2.1-.2 2.9-.6s1.5-.9 1.9-1.5.8-1.2 1-1.9c.2-.6.3-1.3.4-2 0-.8 0-1.3 0-1.8l1.3.5c-1.2.2-2.4.4-3.4.5-1 .2-1.9.3-2.8.4s-1.5.3-2.2.5c-.5.2-1 .4-1.4.7s-.8.6-1 1-.4.8-.4 1.4.1 1 .4 1.5.7.8 1.2 1.1c.5.1 1.2.3 2.1.2z"/><path d="m697.3 30.5v-3.2h13.9v3.2zm13.9 17.1c-1.3.2-2.5.4-3.8.3s-2.3-.3-3.3-.7-1.7-1.1-2.2-2.1c-.4-.8-.7-1.7-.7-2.6s0-1.9 0-3v-17.8h3.9v17.8 2.1c0 .6.2 1.1.4 1.5.5.8 1.2 1.2 2.2 1.3s2.1.1 3.5-.1z"/><path d="m715.4 47.6v-20.3h3.5v4.9l-.5-.6c.2-.6.6-1.2 1-1.8s.9-1 1.4-1.3c.5-.4 1.1-.7 1.7-.9s1.3-.3 1.9-.4c.7 0 1.3 0 1.9.1v3.7c-.7-.2-1.4-.2-2.2-.1s-1.5.3-2.2.8c-.6.4-1.1.9-1.5 1.5s-.6 1.2-.8 2c-.2.7-.2 1.5-.2 2.3v10.2z"/><path d="m739.1 48.2c-2 0-3.8-.4-5.3-1.3s-2.7-2.1-3.5-3.7-1.3-3.4-1.3-5.5c0-2.2.4-4.1 1.2-5.8.8-1.6 2-2.9 3.5-3.8s3.2-1.3 5.2-1.3 3.8.5 5.3 1.4c1.5 1 2.5 2.3 3.3 4.1.7 1.8 1 3.9.8 6.3h-3.9v-1.4c0-2.3-.5-4.1-1.3-5.2s-2.2-1.7-4-1.7c-2 0-3.4.6-4.4 1.9-1 1.2-1.5 3-1.5 5.4s.5 4 1.5 5.2 2.4 1.8 4.3 1.8c1.2 0 2.3-.3 3.2-.8.9-.6 1.6-1.4 2.1-2.4l3.8 1.2c-.8 1.8-2 3.2-3.6 4.2-1.7.9-3.5 1.3-5.4 1.4zm-7.2-9.6v-3.1h14.5v3.1z"/><path d="m761.2 48.2c-1.9 0-3.5-.5-4.9-1.4s-2.4-2.2-3.2-3.8-1.1-3.5-1.1-5.5.4-3.9 1.1-5.5c.8-1.6 1.8-2.9 3.2-3.8s3-1.4 4.9-1.4 3.5.5 4.8 1.4 2.3 2.2 3 3.8 1 3.4 1 5.5-.3 3.8-1 5.5c-.7 1.6-1.7 2.9-3 3.8-1.2.9-2.9 1.4-4.8 1.4zm.3 9c-1.1 0-2.1-.2-3.2-.5-1-.3-2-.8-2.8-1.5s-1.5-1.5-2.1-2.4l3.6-1.8c.4.9 1.1 1.5 1.9 1.9s1.7.6 2.6.6c1.1 0 2.1-.2 2.9-.6s1.4-1 1.8-1.8.6-1.8.6-2.9v-5.7h.5v-15.2h3.5v20.8c0 .5 0 1-.1 1.5s-.1 1-.2 1.5c-.3 1.4-.8 2.5-1.6 3.4s-1.8 1.5-3.1 2-2.8.7-4.3.7zm.2-12.6c1.3 0 2.3-.3 3.2-.9.8-.6 1.4-1.5 1.8-2.5.4-1.1.6-2.3.6-3.7s-.2-2.6-.6-3.7-1-1.9-1.8-2.5-1.8-.9-3-.9c-1.3 0-2.4.3-3.2 1s-1.5 1.5-1.9 2.6-.6 2.3-.6 3.6.2 2.5.6 3.6 1 1.9 1.8 2.6 1.9.8 3.1.8z"/><path d="m785.6 48.2c-2 0-3.8-.4-5.3-1.3s-2.7-2.1-3.5-3.7-1.3-3.4-1.3-5.5c0-2.2.4-4.1 1.2-5.8.8-1.6 2-2.9 3.5-3.8s3.2-1.3 5.2-1.3 3.8.5 5.3 1.4c1.5 1 2.5 2.3 3.3 4.1.7 1.8 1 3.9.8 6.3h-3.9v-1.4c0-2.3-.5-4.1-1.3-5.2s-2.2-1.7-4-1.7c-2 0-3.4.6-4.4 1.9-1 1.2-1.5 3-1.5 5.4s.5 4 1.5 5.2 2.4 1.8 4.3 1.8c1.2 0 2.3-.3 3.2-.8.9-.6 1.6-1.4 2.1-2.4l3.8 1.2c-.8 1.8-2 3.2-3.6 4.2-1.7.9-3.5 1.3-5.4 1.4zm-7.3-9.6v-3.1h14.5v3.1z"/><path d="m799.7 47.6v-27.6h3.9v27.6z"/><path d="m818.7 48.2c-2 0-3.8-.4-5.3-1.3s-2.7-2.1-3.5-3.7-1.3-3.4-1.3-5.5c0-2.2.4-4.1 1.2-5.8.8-1.6 2-2.9 3.5-3.8s3.2-1.3 5.2-1.3 3.8.5 5.3 1.4c1.5 1 2.5 2.3 3.3 4.1.7 1.8 1 3.9.8 6.3h-3.9v-1.4c0-2.3-.5-4.1-1.3-5.2s-2.2-1.7-4-1.7c-2 0-3.4.6-4.4 1.9-1 1.2-1.5 3-1.5 5.4s.5 4 1.5 5.2 2.4 1.8 4.3 1.8c1.2 0 2.3-.3 3.2-.8.9-.6 1.6-1.4 2.1-2.4l3.8 1.2c-.8 1.8-2 3.2-3.6 4.2-1.7.9-3.5 1.3-5.4 1.4zm-7.3-9.6v-3.1h14.5v3.1z"/><path d="m832.6 47.6v-20.3h3.5v5.9h.5v14.4zm14.2 0v-10c0-.8-.1-1.6-.2-2.4s-.4-1.6-.8-2.3-.9-1.3-1.6-1.7-1.5-.7-2.6-.7c-.7 0-1.4.1-2 .4-.6.2-1.2.6-1.6 1.1s-.8 1.2-1.1 2-.4 1.9-.4 3.1l-2.4-.9c0-1.8.3-3.5 1-4.9s1.7-2.5 3-3.3 2.8-1.2 4.7-1.2c1.4 0 2.6.2 3.5.7 1 .5 1.7 1 2.3 1.8s1 1.5 1.4 2.4.5 1.7.6 2.5.2 1.5.2 2.2v11.3z"/><path d="m417.1 92.7-7.4-20.3h4l5.4 15.4 5.4-15.4h4l-7.4 20.3z"/><path d="m432.5 69.1v-3.8h3.9v3.8zm0 23.6v-20.3h3.9v20.3z"/><path d="m448.1 93.2c-1.5 0-2.8-.3-3.8-.8s-1.8-1.3-2.3-2.2-.8-1.9-.8-3c0-1 .2-1.9.5-2.7s.9-1.4 1.6-2c.7-.5 1.6-1 2.6-1.3.9-.3 1.9-.5 3.1-.7s2.3-.4 3.6-.6 2.5-.3 3.8-.5l-1.4.8c0-1.6-.3-2.8-1-3.5-.7-.8-1.9-1.2-3.6-1.2-1.1 0-2 .2-2.9.7s-1.5 1.3-1.9 2.4l-3.7-1.1c.5-1.7 1.5-3.1 2.9-4.2 1.4-1 3.3-1.5 5.6-1.5 1.8 0 3.4.3 4.7.9 1.4.6 2.3 1.6 3 2.9.3.7.5 1.4.6 2.1s.1 1.5.1 2.4v12.5h-3.5v-4.6l.7.6c-.8 1.6-1.9 2.7-3.2 3.5-1.2.7-2.8 1.1-4.7 1.1zm.7-3.2c1.1 0 2.1-.2 2.9-.6s1.5-.9 1.9-1.5.8-1.2 1-1.9c.2-.6.3-1.3.4-2s0-1.3 0-1.8l1.3.5c-1.2.2-2.4.4-3.4.5s-1.9.3-2.8.4-1.5.3-2.2.5c-.5.2-1 .4-1.4.7s-.8.6-1 1-.4.8-.4 1.4.1 1 .4 1.5c.3.4.7.8 1.2 1.1.6.1 1.3.2 2.1.2z"/><path d="m481.9 93.2c-2.1 0-3.8-.5-5.3-1.4s-2.6-2.2-3.3-3.8c-.8-1.6-1.2-3.4-1.2-5.5s.4-3.9 1.2-5.6 1.9-2.9 3.4-3.8 3.2-1.4 5.3-1.4c2.2 0 4.1.6 5.7 1.7s2.6 2.6 3.1 4.5l-3.9 1.1c-.4-1.1-1-2-1.9-2.7s-1.9-.9-3-.9c-1.3 0-2.4.3-3.2.9s-1.4 1.4-1.8 2.5-.6 2.2-.6 3.6c0 2.1.5 3.8 1.4 5.1s2.3 1.9 4.2 1.9c1.3 0 2.3-.3 3.1-.9s1.4-1.4 1.8-2.5l4 .9c-.7 2-1.8 3.5-3.3 4.6-1.7 1.2-3.6 1.7-5.7 1.7z"/><path d="m503.9 93.2c-2 0-3.8-.5-5.3-1.4s-2.6-2.2-3.5-3.8c-.8-1.6-1.2-3.5-1.2-5.6s.4-4 1.2-5.6 2-2.9 3.5-3.8 3.2-1.3 5.2-1.3 3.8.5 5.3 1.4 2.6 2.2 3.5 3.8c.8 1.6 1.2 3.4 1.2 5.5s-.4 4-1.2 5.6-2 2.9-3.5 3.8c-1.5 1-3.2 1.4-5.2 1.4zm0-3.7c1.9 0 3.4-.7 4.4-2s1.4-3 1.4-5.1-.5-3.8-1.5-5.1-2.4-1.9-4.3-1.9c-1.3 0-2.4.3-3.2.9s-1.5 1.4-1.9 2.5-.6 2.3-.6 3.6c0 2.1.5 3.8 1.5 5.1s2.3 2 4.2 2z"/><path d="m518.5 92.7v-20.3h3.5v5.9h.5v14.4zm12.2 0v-12.6c0-1.5-.4-2.6-1.1-3.5-.8-.8-1.7-1.3-3-1.3s-2.2.4-3 1.3-1.1 2-1.1 3.3l-1.9-1.2c0-1.3.3-2.5 1-3.6s1.5-1.9 2.6-2.5 2.3-.9 3.7-.9 2.7.3 3.7.9 1.8 1.5 2.3 2.6.8 2.3.8 3.8v13.5h-4zm12.1 0v-12.6c0-1.5-.4-2.6-1.1-3.4s-1.7-1.2-3-1.2c-.8 0-1.4.2-2.1.5s-1.1.9-1.5 1.5-.6 1.5-.6 2.6l-1.9-1c0-1.4.3-2.7.9-3.8s1.5-1.9 2.6-2.5 2.3-.9 3.7-.9c2.2 0 3.9.7 5.1 2s1.8 3.1 1.8 5.2v13.6z"/><path d="m552.3 92.7v-20.3h3.5v5.9h.5v14.4zm12.2 0v-12.6c0-1.5-.4-2.6-1.1-3.5-.8-.8-1.7-1.3-3-1.3s-2.2.4-3 1.3-1.1 2-1.1 3.3l-1.9-1.2c0-1.3.3-2.5 1-3.6s1.5-1.9 2.6-2.5 2.3-.9 3.7-.9 2.7.3 3.7.9 1.8 1.5 2.3 2.6.8 2.3.8 3.8v13.5h-4zm12.2 0v-12.6c0-1.5-.4-2.6-1.1-3.4s-1.7-1.2-3-1.2c-.8 0-1.4.2-2.1.5s-1.1.9-1.5 1.5-.6 1.5-.6 2.6l-1.9-1c0-1.4.3-2.7.9-3.8s1.5-1.9 2.6-2.5 2.3-.9 3.7-.9c2.2 0 3.9.7 5.1 2s1.8 3.1 1.8 5.2v13.6z"/><path d="m593.8 93.2c-1.4 0-2.6-.2-3.5-.7s-1.7-1-2.3-1.8c-.6-.7-1-1.5-1.4-2.4s-.5-1.7-.6-2.5-.2-1.6-.2-2.2v-11.2h4v10c0 .8.1 1.6.2 2.4s.4 1.6.8 2.3.9 1.3 1.6 1.7 1.5.7 2.6.7c.7 0 1.4-.1 2-.3s1.2-.6 1.6-1.1c.5-.5.8-1.2 1.1-2s.4-1.9.4-3.1l2.4.9c0 1.8-.3 3.5-1 4.9s-1.7 2.5-3 3.3-2.9 1.1-4.7 1.1zm6.7-.5v-5.9h-.5v-14.4h4v20.3z"/><path d="m609.8 92.7v-20.3h3.5v5.9h.5v14.4zm14.2 0v-10c0-.8-.1-1.6-.2-2.4s-.4-1.6-.8-2.3-.9-1.3-1.6-1.7-1.5-.7-2.6-.7c-.7 0-1.4.1-2 .3s-1.2.6-1.6 1.1c-.5.5-.8 1.2-1.1 2s-.4 1.9-.4 3.1l-2.4-.9c0-1.8.3-3.5 1-4.9s1.7-2.5 3-3.3 2.8-1.2 4.7-1.2c1.4 0 2.6.2 3.5.7s1.7 1 2.3 1.8 1 1.5 1.4 2.4.5 1.7.6 2.5.2 1.6.2 2.2v11.3z"/><path d="m633.7 69.1v-3.8h3.9v3.8zm0 23.6v-20.3h3.9v20.3z"/><path d="m652.4 93.2c-2.1 0-3.8-.5-5.3-1.4s-2.6-2.2-3.3-3.8c-.8-1.6-1.2-3.4-1.2-5.5s.4-3.9 1.2-5.6c.8-1.6 1.9-2.9 3.4-3.8s3.2-1.4 5.3-1.4c2.2 0 4.1.6 5.7 1.7s2.6 2.6 3.1 4.5l-3.9 1.1c-.4-1.1-1-2-1.9-2.7s-1.9-.9-3-.9c-1.3 0-2.3.3-3.2.9-.8.6-1.4 1.4-1.8 2.5s-.6 2.2-.6 3.6c0 2.1.5 3.8 1.4 5.1s2.3 1.9 4.2 1.9c1.3 0 2.3-.3 3.1-.9s1.4-1.4 1.8-2.5l4 .9c-.7 2-1.8 3.5-3.3 4.6-1.7 1.2-3.5 1.7-5.7 1.7z"/><path d="m671.6 93.2c-1.5 0-2.8-.3-3.8-.8s-1.8-1.3-2.3-2.2-.8-1.9-.8-3c0-1 .2-1.9.5-2.7s.9-1.4 1.6-2c.7-.5 1.6-1 2.6-1.3.9-.3 1.9-.5 3.1-.7s2.3-.4 3.6-.6 2.5-.3 3.8-.5l-1.4.8c0-1.6-.3-2.8-1-3.5-.7-.8-1.9-1.2-3.6-1.2-1.1 0-2 .2-2.9.7s-1.5 1.3-1.9 2.4l-3.7-1.1c.5-1.7 1.5-3.1 2.9-4.2 1.4-1 3.3-1.5 5.6-1.5 1.8 0 3.4.3 4.7.9s2.3 1.6 3 2.9c.3.7.5 1.4.6 2.1s.1 1.5.1 2.4v12.5h-3.5v-4.6l.7.6c-.8 1.6-1.9 2.7-3.2 3.5-1.3.7-2.8 1.1-4.7 1.1zm.7-3.2c1.1 0 2.1-.2 2.9-.6s1.5-.9 1.9-1.5.8-1.2 1-1.9c.2-.6.3-1.3.4-2s0-1.3 0-1.8l1.3.5c-1.2.2-2.4.4-3.4.5s-1.9.3-2.8.4-1.5.3-2.2.5c-.5.2-1 .4-1.4.7s-.8.6-1 1-.4.8-.4 1.4.1 1 .4 1.5c.3.4.7.8 1.2 1.1.5.1 1.2.2 2.1.2z"/><path d="m685.5 75.5v-3.2h13.9v3.2zm13.9 17.2c-1.3.2-2.5.4-3.8.3s-2.3-.3-3.3-.7-1.7-1.1-2.2-2.1c-.4-.8-.7-1.7-.7-2.6s0-1.9 0-3v-17.8h3.9v17.8 2.1s.2 1.1.4 1.5c.5.8 1.2 1.2 2.2 1.3s2.1.1 3.5-.1z"/><path d="m703.8 69.1v-3.8h3.9v3.8zm0 23.6v-20.3h3.9v20.3z"/><path d="m722.8 93.2c-2 0-3.8-.4-5.3-1.3s-2.7-2.1-3.5-3.7-1.3-3.4-1.3-5.5c0-2.2.4-4.1 1.2-5.8s2-2.9 3.5-3.8 3.2-1.3 5.2-1.3 3.8.5 5.3 1.4 2.5 2.3 3.3 4.1c.7 1.8 1 3.9.8 6.3h-3.9v-1.4c0-2.3-.5-4.1-1.3-5.2s-2.2-1.7-4-1.7c-2 0-3.4.6-4.4 1.9s-1.5 3-1.5 5.4.5 3.9 1.5 5.2 2.4 1.8 4.3 1.8c1.2 0 2.3-.3 3.2-.8.9-.6 1.6-1.4 2.1-2.4l3.8 1.2c-.8 1.8-2 3.2-3.6 4.2s-3.5 1.4-5.4 1.4zm-7.2-9.6v-3.1h14.4v3.1z"/><path d="m742.4 93.2c-1.5 0-2.8-.3-3.8-.8s-1.8-1.3-2.3-2.2-.8-1.9-.8-3c0-1 .2-1.9.5-2.7s.9-1.4 1.6-2c.7-.5 1.6-1 2.6-1.3.9-.3 1.9-.5 3.1-.7s2.3-.4 3.6-.6 2.5-.3 3.8-.5l-1.4.8c0-1.6-.3-2.8-1-3.5-.7-.8-1.9-1.2-3.6-1.2-1.1 0-2 .2-2.9.7s-1.5 1.3-1.9 2.4l-3.7-1.1c.5-1.7 1.5-3.1 2.9-4.2 1.4-1 3.3-1.5 5.6-1.5 1.8 0 3.4.3 4.7.9s2.3 1.6 3 2.9c.3.7.5 1.4.6 2.1s.1 1.5.1 2.4v12.5h-3.5v-4.6l.7.6c-.8 1.6-1.9 2.7-3.2 3.5-1.2.7-2.8 1.1-4.7 1.1zm.7-3.2c1.1 0 2.1-.2 2.9-.6s1.5-.9 1.9-1.5.8-1.2 1-1.9c.2-.6.3-1.3.4-2s0-1.3 0-1.8l1.3.5c-1.2.2-2.4.4-3.4.5s-1.9.3-2.8.4-1.5.3-2.2.5c-.5.2-1 .4-1.4.7s-.8.6-1 1-.4.8-.4 1.4.1 1 .4 1.5c.3.4.7.8 1.2 1.1.6.1 1.3.2 2.1.2z"/><path d="m758.7 101.7v-29.3h3.5v14.6h.5v14.7zm9.6-8.5c-1.9 0-3.6-.5-4.9-1.4s-2.3-2.2-3-3.8-1-3.4-1-5.5.3-3.8 1-5.5c.7-1.6 1.7-2.9 3-3.8s2.9-1.4 4.8-1.4 3.5.5 4.9 1.4 2.5 2.2 3.2 3.8 1.1 3.4 1.1 5.5-.4 3.8-1.1 5.5c-.8 1.6-1.8 2.9-3.2 3.8-1.3 1-2.9 1.4-4.8 1.4zm-.6-3.5c1.2 0 2.3-.3 3.1-1s1.4-1.5 1.8-2.6.6-2.3.6-3.6-.2-2.5-.6-3.6-1-1.9-1.9-2.6c-.8-.6-1.9-1-3.2-1-1.2 0-2.2.3-3 .9s-1.4 1.4-1.8 2.5-.6 2.3-.6 3.7.2 2.6.6 3.7 1 1.9 1.8 2.5c.9.8 1.9 1.1 3.2 1.1z"/><path d="m782.2 101.7v-29.3h3.5v14.6h.5v14.7zm9.5-8.5c-1.9 0-3.6-.5-4.9-1.4s-2.3-2.2-3-3.8-1-3.4-1-5.5.3-3.8 1-5.5c.7-1.6 1.7-2.9 3-3.8s2.9-1.4 4.8-1.4 3.5.5 4.9 1.4 2.5 2.2 3.2 3.8 1.1 3.4 1.1 5.5-.4 3.8-1.1 5.5c-.8 1.6-1.8 2.9-3.2 3.8-1.3 1-2.9 1.4-4.8 1.4zm-.5-3.5c1.2 0 2.3-.3 3.1-1s1.4-1.5 1.8-2.6.6-2.3.6-3.6-.2-2.5-.6-3.6-1-1.9-1.9-2.6c-.8-.6-1.9-1-3.2-1-1.2 0-2.2.3-3 .9s-1.4 1.4-1.8 2.5-.6 2.3-.6 3.7.2 2.6.6 3.7 1 1.9 1.8 2.5c.8.8 1.9 1.1 3.2 1.1z"/><path d="m813.2 93.2c-2.5 0-4.5-.5-6-1.6s-2.5-2.6-2.8-4.6l4-.6c.2 1.1.8 1.9 1.7 2.5s2 .9 3.4.9c1.2 0 2.2-.2 2.9-.8s1-1.2 1-2.1c0-.5-.1-.9-.4-1.2-.2-.3-.8-.6-1.5-.9s-2-.6-3.5-1.1c-1.7-.4-3.1-.9-4.1-1.5s-1.8-1.1-2.2-1.8-.7-1.5-.7-2.5c0-1.2.3-2.3 1-3.2s1.6-1.6 2.8-2.1 2.6-.8 4.2-.8 2.9.2 4.2.7c1.2.5 2.2 1.2 3 2.1s1.2 1.9 1.3 3.2l-4 .7c-.1-1-.6-1.8-1.4-2.3s-1.8-.9-3-.9c-1.2-.1-2.2.2-2.9.6s-1.1 1.1-1.1 1.8c0 .4.1.8.4 1.2.3.3.8.6 1.6.9s2 .6 3.6 1c1.7.4 3.1.9 4.1 1.5 1 .5 1.7 1.2 2.2 1.9s.7 1.6.7 2.7c0 2-.7 3.6-2.2 4.7-1.8 1.1-3.8 1.6-6.3 1.6z"/><path d="m77.5 372.6h279" fill="none" stroke="url(#b)" stroke-linecap="round" stroke-miterlimit="10" stroke-width="10.37"/><circle cx="41.2" cy="372.1" fill="none" r="36.1" stroke="url(#d)" stroke-linecap="round" stroke-miterlimit="10" stroke-width="10.37"/><path d="m42 389.1c-1.5 0-2.9-.3-4.2-.9s-2.5-1.4-3.5-2.5-1.7-2.3-2.1-3.8l4.8-1.3c.3 1.2 1 2.1 1.9 2.8.9.6 1.9 1 3 .9 1 0 1.9-.2 2.6-.7.8-.5 1.4-1.1 1.8-1.9s.7-1.7.7-2.6c0-1.5-.5-2.7-1.4-3.7s-2.1-1.4-3.6-1.4c-.5 0-.9.1-1.3.2s-.8.3-1.2.5l-2.3-3.9 10-8.6.4 1.2h-14.2v-4.7h18.3v4.7l-8.1 7.8v-1.5c1.8.1 3.3.6 4.6 1.5s2.3 2 2.9 3.4c.7 1.4 1 2.9 1 4.6 0 1.9-.5 3.6-1.4 5.1s-2.2 2.7-3.7 3.5c-1.4.9-3.1 1.3-5 1.3z"/><path d="m77.5 206.7h279" fill="none" stroke="url(#e)" stroke-linecap="round" stroke-miterlimit="10" stroke-width="10.37"/><circle cx="41.2" cy="206.7" fill="none" r="36.1" stroke="url(#f)" stroke-linecap="round" stroke-miterlimit="10" stroke-width="10.37"/><path d="m31 220.3v-4.3l12.8-11.4c1-.9 1.7-1.7 2.1-2.5s.6-1.6.6-2.3c0-1-.2-1.9-.6-2.7s-1-1.4-1.8-1.9-1.6-.7-2.6-.7-2 .2-2.8.7-1.4 1.1-1.9 1.9c-.4.8-.7 1.6-.6 2.6h-5.2c0-2 .5-3.7 1.3-5.2s2.1-2.6 3.7-3.4 3.4-1.2 5.4-1.2c1.9 0 3.6.4 5.1 1.3s2.7 2 3.6 3.5 1.3 3.2 1.3 5.2c0 1.4-.2 2.6-.6 3.6s-1 1.9-1.7 2.7-1.7 1.7-2.8 2.7l-9.1 8-.5-1.2h14.7v4.7z"/><path d="m77.5 41.2h279" fill="none" stroke="url(#g)" stroke-linecap="round" stroke-miterlimit="10" stroke-width="10.37"/><circle cx="41.2" cy="41.2" fill="none" r="36.1" stroke="url(#h)" stroke-linecap="round" stroke-miterlimit="10" stroke-width="10.37"/><path d="m41.1 54.9v-24.4l-5.6 3.5v-5.5l5.6-3.4h5.1v29.9h-5.1z"/></svg>