<svg enable-background="new 0 0 853.9 437.7" viewBox="0 0 853.9 437.7" xmlns="http://www.w3.org/2000/svg" xmlns:xlink="http://www.w3.org/1999/xlink"><linearGradient id="a"><stop offset="0" stop-color="#5454a8"/><stop offset=".28" stop-color="#6661b3"/><stop offset=".73" stop-color="#7f71c2"/><stop offset="1" stop-color="#8878c8"/></linearGradient><linearGradient id="b" gradientTransform="matrix(.75 .0010472 .00074176 -1 -99.8134 438.4092)" gradientUnits="userSpaceOnUse" x1="231.5375" x2="613.3275" xlink:href="#a" y1="66.5093" y2="66.5093"/><linearGradient id="c"><stop offset="0" stop-color="#8878c8"/><stop offset=".27" stop-color="#7f71c2"/><stop offset=".72" stop-color="#6661b3"/><stop offset="1" stop-color="#5454a8"/></linearGradient><linearGradient id="d" gradientTransform="matrix(1 0 0 -1 0 438)" gradientUnits="userSpaceOnUse" x1=".2425" x2="82.7525" xlink:href="#c" y1="66.1775" y2="66.1775"/><linearGradient id="e" gradientTransform="matrix(1 0 0 -1 0 438)" gradientUnits="userSpaceOnUse" x1="72.5925" x2="361.8925" xlink:href="#a" y1="231.6075" y2="231.6075"/><linearGradient id="f" gradientTransform="matrix(1 0 0 -1 0 438)" gradientUnits="userSpaceOnUse" x1=".2425" x2="82.7525" xlink:href="#c" y1="231.6075" y2="231.6075"/><linearGradient id="g" gradientTransform="matrix(1 0 0 -1 0 438)" gradientUnits="userSpaceOnUse" x1="72.5925" x2="361.8925" xlink:href="#a" y1="397.0475" y2="397.0475"/><linearGradient id="h" gradientTransform="matrix(1 0 0 -1 0 438)" gradientUnits="userSpaceOnUse" x1=".2425" x2="82.7525" xlink:href="#c" y1="397.0475" y2="397.0475"/><path d="m409.6 382.6v-28.4h4.1v12.2h14.2v-12.2h4.1v28.4h-4.1v-12.2h-14.2v12.2z"/><path d="m447.3 383.2c-2.1 0-4-.5-5.6-1.4s-2.8-2.2-3.7-3.9-1.3-3.6-1.3-5.8c0-2.3.4-4.3 1.3-6s2.1-3 3.6-4 3.4-1.4 5.5-1.4 4 .5 5.5 1.5 2.7 2.4 3.4 4.3c.8 1.9 1 4 .9 6.6h-4.1v-1.5c0-2.5-.5-4.3-1.4-5.5s-2.3-1.8-4.2-1.8c-2.1 0-3.6.6-4.6 2-1 1.3-1.6 3.2-1.6 5.6s.5 4.1 1.6 5.4 2.5 1.9 4.5 1.9c1.3 0 2.4-.3 3.3-.9s1.7-1.4 2.2-2.5l4 1.3c-.8 1.9-2.1 3.4-3.8 4.4-1.6 1.1-3.4 1.7-5.5 1.7zm-7.6-10.1v-3.2h15.2v3.2z"/><path d="m459.2 364.6v-3.3h14.5v3.3zm14.6 18c-1.3.3-2.6.4-3.9.3s-2.4-.3-3.5-.8-1.8-1.2-2.3-2.2c-.5-.9-.7-1.8-.7-2.7s0-2 0-3.1v-18.8h4.1v18.7 2.2c0 .6.1 1.2.4 1.6.5.8 1.2 1.3 2.2 1.4s2.2.1 3.6-.1z"/><path d="m487.7 382.6v-28.4h4.1v13.1h-.5v15.3zm10 .6c-2 0-3.7-.5-5.1-1.5s-2.4-2.3-3.1-4-1.1-3.6-1.1-5.7.4-4 1-5.7 1.7-3 3.1-4 3.1-1.5 5.1-1.5 3.7.5 5.2 1.5 2.6 2.3 3.4 4 1.2 3.6 1.2 5.7-.4 4-1.2 5.7-1.9 3-3.3 4c-1.5 1-3.2 1.5-5.2 1.5zm-.6-3.7c1.3 0 2.4-.3 3.3-1s1.5-1.6 1.9-2.7.6-2.4.6-3.8-.2-2.6-.6-3.8-1.1-2-2-2.7-2-1-3.4-1c-1.3 0-2.4.3-3.2 1s-1.5 1.5-1.9 2.6-.6 2.4-.6 3.9.2 2.8.6 3.9 1 2 1.9 2.7 2.1.9 3.4.9z"/><path d="m521.6 383.2c-2.1 0-4-.5-5.6-1.4s-2.8-2.2-3.7-3.9-1.3-3.6-1.3-5.8c0-2.3.4-4.3 1.3-6s2.1-3 3.7-4 3.4-1.4 5.5-1.4 4 .5 5.5 1.5 2.7 2.4 3.4 4.3c.8 1.9 1 4 .9 6.6h-4.1v-1.5c0-2.5-.5-4.3-1.4-5.5s-2.3-1.8-4.2-1.8c-2.1 0-3.6.6-4.7 2-1 1.3-1.6 3.2-1.6 5.6s.5 4.1 1.6 5.4 2.5 1.9 4.5 1.9c1.3 0 2.4-.3 3.3-.9s1.7-1.4 2.2-2.5l4 1.3c-.8 1.9-2.1 3.4-3.8 4.4s-3.4 1.7-5.5 1.7zm-7.6-10.1v-3.2h15.2v3.2z"/><path d="m540.9 382.6-7.7-21.3h4.2l5.7 16.1 5.7-16.1h4.2l-7.7 21.3z"/><path d="m565.3 383.2c-2.1 0-4-.5-5.6-1.4s-2.8-2.2-3.7-3.9-1.3-3.6-1.3-5.8c0-2.3.4-4.3 1.3-6s2.1-3 3.7-4 3.4-1.4 5.5-1.4 4 .5 5.5 1.5 2.7 2.4 3.4 4.3c.8 1.9 1 4 .9 6.6h-4.1v-1.5c0-2.5-.5-4.3-1.4-5.5s-2.3-1.8-4.2-1.8c-2.1 0-3.6.6-4.7 2-1 1.3-1.6 3.2-1.6 5.6s.5 4.1 1.6 5.4 2.5 1.9 4.5 1.9c1.3 0 2.4-.3 3.3-.9s1.7-1.4 2.2-2.5l4 1.3c-.8 1.9-2.1 3.4-3.8 4.4s-3.4 1.7-5.5 1.7zm-7.6-10.1v-3.2h15.2v3.2z"/><path d="m579.9 357.8v-4h4.1v4zm0 24.8v-21.3h4.1v21.3z"/><path d="m590.2 382.6v-29h4.1v29z"/><path d="m600.5 357.8v-4h4.1v4zm0 24.8v-21.3h4.1v21.3z"/><path d="m619.2 383.2c-2 0-3.7-.5-5.1-1.5s-2.5-2.3-3.3-4-1.2-3.6-1.2-5.7.4-4 1.2-5.7 1.9-3 3.4-4 3.2-1.5 5.2-1.5 3.7.5 5.1 1.5 2.4 2.3 3.1 4 1 3.6 1 5.7-.3 4-1.1 5.7-1.8 3-3.1 4-3.2 1.5-5.2 1.5zm.3 9.4c-1.1 0-2.2-.2-3.3-.5s-2-.9-2.9-1.6-1.6-1.5-2.2-2.5l3.8-1.9c.5.9 1.1 1.6 2 2s1.8.6 2.7.6c1.2 0 2.2-.2 3-.6s1.5-1 1.9-1.9.6-1.9.6-3.1v-6h.5v-15.9h3.6v21.8c0 .6 0 1.1-.1 1.6 0 .5-.1 1-.2 1.5-.3 1.4-.9 2.6-1.7 3.5s-1.9 1.6-3.2 2.1-2.8.9-4.5.9zm.3-13.1c1.3 0 2.5-.3 3.3-1s1.5-1.5 1.9-2.7.6-2.4.6-3.9-.2-2.8-.6-3.9-1-2-1.8-2.6-1.9-1-3.2-1c-1.4 0-2.5.3-3.4 1s-1.5 1.6-2 2.7-.6 2.4-.6 3.8.2 2.7.6 3.8 1.1 2 1.9 2.7c.9.7 2 1 3.3 1.1z"/><path d="m644.6 383.2c-2.1 0-4-.5-5.6-1.4s-2.8-2.2-3.7-3.9-1.3-3.6-1.3-5.8c0-2.3.4-4.3 1.3-6s2.1-3 3.7-4 3.4-1.4 5.5-1.4 4 .5 5.5 1.5 2.7 2.4 3.4 4.3c.8 1.9 1 4 .9 6.6h-4.1v-1.5c0-2.5-.5-4.3-1.4-5.5s-2.3-1.8-4.2-1.8c-2.1 0-3.6.6-4.7 2-1 1.3-1.6 3.2-1.6 5.6s.5 4.1 1.6 5.4 2.5 1.9 4.5 1.9c1.3 0 2.4-.3 3.3-.9s1.7-1.4 2.2-2.5l4 1.3c-.8 1.9-2.1 3.4-3.8 4.4s-3.5 1.7-5.5 1.7zm-7.6-10.1v-3.2h15.2v3.2z"/><path d="m658.9 382.6v-21.3h3.7v6.1h.5v15.1zm15 0v-10.5c0-.8-.1-1.7-.2-2.5s-.4-1.7-.8-2.4c-.4-.8-.9-1.4-1.6-1.8s-1.6-.7-2.8-.7c-.7 0-1.4.1-2.1.4-.7.2-1.2.6-1.7 1.2s-.9 1.2-1.2 2.1-.4 2-.4 3.2l-2.6-1c0-1.9.4-3.6 1.1-5.1s1.8-2.6 3.1-3.5 3-1.2 4.9-1.2c1.5 0 2.7.2 3.7.7s1.8 1.1 2.4 1.9 1.1 1.6 1.4 2.5.5 1.8.7 2.7.2 1.6.2 2.3v11.8z"/><path d="m415.4 429.8-7.7-21.3h4.2l5.6 16.1 5.6-16.1h4.2l-7.7 21.3z"/><path d="m436.4 430.4c-1.6 0-2.9-.3-4-.9s-1.9-1.4-2.4-2.3c-.5-1-.8-2-.8-3.2 0-1.1.2-2 .6-2.8s1-1.5 1.7-2.1c.8-.6 1.7-1 2.8-1.4 1-.3 2-.5 3.2-.7s2.5-.4 3.8-.6 2.6-.4 3.9-.5l-1.5.8c0-1.7-.3-2.9-1-3.7s-2-1.2-3.8-1.2c-1.1 0-2.1.3-3.1.8s-1.6 1.4-2 2.6l-3.8-1.2c.5-1.8 1.5-3.3 3-4.4s3.4-1.6 5.9-1.6c1.9 0 3.6.3 5 1s2.4 1.7 3.1 3.1c.3.7.5 1.4.6 2.2s.1 1.6.1 2.5v13.1h-3.6v-4.9l.7.6c-.9 1.6-2 2.8-3.4 3.6s-3 1.2-5 1.2zm.8-3.3c1.2 0 2.2-.2 3-.6s1.5-.9 2-1.6c.5-.6.9-1.3 1-2 .2-.6.4-1.3.4-2.1s0-1.4 0-1.9l1.3.5c-1.3.2-2.5.4-3.5.5s-2 .3-2.9.5c-.9.1-1.6.3-2.3.5-.6.2-1.1.4-1.5.7s-.8.6-1 1c-.3.4-.4.9-.4 1.4s.1 1.1.4 1.5c.3.5.7.8 1.3 1.1s1.3.5 2.2.5z"/><path d="m453.3 429.8v-21.3h3.7v6.1h.5v15.1zm15 0v-10.5c0-.8-.1-1.7-.2-2.5-.1-.9-.4-1.7-.8-2.4s-.9-1.4-1.6-1.8-1.6-.7-2.8-.7c-.7 0-1.4.1-2.1.4s-1.2.6-1.7 1.2-.9 1.2-1.2 2.1-.4 2-.4 3.2l-2.6-1c0-1.9.4-3.6 1.1-5.1s1.8-2.6 3.1-3.5c1.4-.8 3-1.2 4.9-1.2 1.5 0 2.7.2 3.7.7s1.8 1.1 2.4 1.9 1.1 1.6 1.4 2.5.5 1.8.7 2.7c.1.9.2 1.6.2 2.3v11.8z"/><path d="m487 429.8v-28.4h3.7v15.3h.5v13.1zm15 0v-10.5c0-.8-.1-1.7-.2-2.5-.1-.9-.4-1.7-.8-2.4s-.9-1.4-1.6-1.8-1.6-.7-2.8-.7c-.7 0-1.4.1-2.1.4s-1.2.6-1.7 1.2-.9 1.2-1.2 2.1-.4 2-.4 3.2l-2.6-1c0-1.9.4-3.6 1.1-5.1s1.8-2.6 3.1-3.5c1.4-.8 3-1.2 4.9-1.2 1.5 0 2.7.2 3.7.7s1.8 1.1 2.4 1.9 1.1 1.6 1.4 2.5.5 1.8.7 2.7c.1.9.2 1.6.2 2.3v11.8z"/><path d="m513.5 439.3 4.1-11.2.1 3.3-9.3-22.8h4.3l6.9 17.6h-1.3l6.6-17.6h4.2l-11.7 30.7z"/><path d="m532.7 429.8v-28.4h4.1v13.1h-.5v15.3zm10 .6c-2 0-3.7-.5-5.1-1.5s-2.4-2.3-3.1-4-1.1-3.6-1.1-5.7.3-4 1-5.7 1.7-3 3.1-4 3.1-1.5 5.1-1.5 3.7.5 5.2 1.5 2.6 2.3 3.4 4 1.2 3.6 1.2 5.7-.4 4-1.2 5.7-1.9 3-3.3 4c-1.5 1-3.2 1.5-5.2 1.5zm-.6-3.7c1.3 0 2.4-.3 3.3-1s1.5-1.6 1.9-2.7.6-2.4.6-3.8-.2-2.6-.6-3.8-1.1-2-2-2.7-2-1-3.4-1c-1.3 0-2.3.3-3.2 1s-1.5 1.5-1.8 2.6-.6 2.4-.6 3.9.2 2.8.6 3.9 1 2 1.9 2.7 2 .9 3.3.9z"/><path d="m557 429.8v-21.3h3.7v5.2l-.5-.7c.3-.7.6-1.3 1-1.9s.9-1 1.5-1.4c.5-.4 1.1-.7 1.8-.9s1.3-.4 2-.4 1.4 0 2 .1v3.9c-.7-.2-1.5-.2-2.3-.2s-1.6.4-2.3.8-1.2 1-1.6 1.6-.7 1.3-.8 2.1c-.2.8-.3 1.5-.3 2.4v10.7z"/><path d="m572.6 405.1v-4h4.1v4zm0 24.8v-21.3h4.1v21.3z"/><path d="m591.3 430.4c-2 0-3.7-.5-5.1-1.5s-2.5-2.3-3.3-4-1.2-3.6-1.2-5.7.4-4 1.2-5.7 1.9-3 3.4-4 3.2-1.5 5.2-1.5 3.7.5 5.1 1.5 2.4 2.3 3.1 4 1 3.6 1 5.7-.3 4-1.1 5.7-1.8 3-3.1 4-3.2 1.5-5.2 1.5zm.6-3.7c1.3 0 2.5-.3 3.3-1 .8-.6 1.5-1.5 1.9-2.7s.6-2.4.6-3.9-.2-2.8-.6-3.9-1-2-1.8-2.6-1.9-1-3.2-1c-1.4 0-2.5.3-3.4 1s-1.5 1.6-2 2.7-.6 2.4-.6 3.8.2 2.7.6 3.8 1.1 2 1.9 2.7c.9.8 2 1.1 3.3 1.1zm5.7 3.2v-15.3h-.5v-13.1h4.1v28.4z"/><path d="m616.6 430.4c-2.1 0-4-.5-5.6-1.4s-2.8-2.2-3.7-3.9-1.3-3.6-1.3-5.8c0-2.3.4-4.3 1.3-6s2.1-3 3.7-4 3.4-1.4 5.5-1.4 4 .5 5.5 1.5 2.7 2.4 3.4 4.3c.8 1.9 1 4 .9 6.6h-4.1v-1.5c0-2.5-.5-4.3-1.4-5.5s-2.3-1.8-4.2-1.8c-2.1 0-3.6.6-4.7 2-1 1.3-1.6 3.2-1.6 5.6s.5 4.1 1.6 5.4 2.5 1.9 4.5 1.9c1.3 0 2.4-.3 3.3-.9s1.7-1.4 2.2-2.5l4 1.3c-.8 1.9-2.1 3.4-3.8 4.4s-3.4 1.7-5.5 1.7zm-7.5-10v-3.2h15.2v3.2z"/><path d="m644.7 429.8-6.5-21.3h4.1l4.5 14.6 4.5-14.6h3.5l4.5 14.6 4.5-14.6h4.1l-6.5 21.3h-3.3l-5-15.4-5 15.4z"/><path d="m680.4 430.4c-2.1 0-4-.5-5.6-1.4s-2.8-2.2-3.7-3.9-1.3-3.6-1.3-5.8c0-2.3.4-4.3 1.3-6s2.1-3 3.7-4 3.4-1.4 5.5-1.4 4 .5 5.5 1.5 2.7 2.4 3.4 4.3c.8 1.9 1 4 .9 6.6h-4.1v-1.5c0-2.5-.5-4.3-1.4-5.5s-2.3-1.8-4.2-1.8c-2.1 0-3.6.6-4.7 2-1 1.3-1.6 3.2-1.6 5.6s.5 4.1 1.6 5.4 2.5 1.9 4.5 1.9c1.3 0 2.4-.3 3.3-.9s1.7-1.4 2.2-2.5l4 1.3c-.8 1.9-2.1 3.4-3.8 4.4s-3.4 1.7-5.5 1.7zm-7.5-10v-3.2h15.1v3.2z"/><path d="m694.8 429.8v-21.3h3.7v5.2l-.5-.7c.3-.7.6-1.3 1-1.9s.9-1 1.5-1.4c.5-.4 1.1-.7 1.8-.9s1.3-.4 2-.4 1.4 0 2 .1v3.9c-.7-.2-1.5-.2-2.3-.2s-1.6.4-2.3.8-1.2 1-1.6 1.6-.7 1.3-.8 2.1c-.2.8-.3 1.5-.3 2.4v10.7z"/><path d="m710.2 429.8v-28.4h4.2v17.3l8.3-10.2h5.2l-8.8 10.6 9.7 10.6h-5.6l-8.9-10.2v10.2z"/><path d="m410 217.7v-28.4h4.1v28.4z"/><path d="m428.6 218.3c-2 0-3.7-.5-5.1-1.5s-2.5-2.3-3.3-4-1.2-3.6-1.2-5.7.4-4.1 1.2-5.7c.8-1.7 1.9-3 3.4-4s3.2-1.5 5.2-1.5 3.7.5 5.1 1.5 2.4 2.3 3.1 4 1 3.6 1 5.7-.4 4-1.1 5.7-1.8 3-3.1 4-3.1 1.5-5.2 1.5zm.6-3.7c1.4 0 2.5-.3 3.3-1s1.5-1.5 1.9-2.7c.4-1.1.6-2.4.6-3.9s-.2-2.8-.6-3.9-1-2-1.9-2.6c-.8-.6-1.9-.9-3.2-.9-1.4 0-2.5.3-3.4 1s-1.5 1.6-2 2.7-.6 2.4-.6 3.8.2 2.7.6 3.8 1.1 2 1.9 2.7c1 .6 2.1.9 3.4 1zm5.8 3.1v-15.3h-.5v-13.1h4.1v28.4z"/><path d="m454 218.3c-2.1 0-4-.5-5.6-1.4s-2.8-2.2-3.7-3.9-1.3-3.6-1.3-5.8c0-2.3.4-4.3 1.3-6.1s2.1-3 3.6-4 3.4-1.4 5.5-1.4 4 .5 5.5 1.5 2.7 2.4 3.4 4.3c.8 1.9 1 4.1.9 6.6h-4.1v-1.5c0-2.5-.5-4.3-1.4-5.5s-2.3-1.8-4.2-1.8c-2.1 0-3.6.6-4.6 1.9s-1.6 3.2-1.6 5.6.5 4.1 1.6 5.4 2.5 1.9 4.5 1.9c1.3 0 2.4-.3 3.3-.9s1.7-1.4 2.2-2.5l4 1.3c-.8 1.9-2.1 3.4-3.8 4.4-1.6 1.3-3.5 1.9-5.5 1.9zm-7.6-10.1v-3.2h15.2v3.2z"/><path d="m468.3 217.7v-21.3h3.7v6.1h.5v15.1zm15 0v-10.5c0-.8-.1-1.7-.2-2.6s-.4-1.7-.8-2.4-.9-1.4-1.6-1.8c-.7-.5-1.6-.7-2.8-.7-.7 0-1.4.1-2.1.4-.7.2-1.2.6-1.7 1.2s-.9 1.2-1.2 2.1-.4 1.9-.4 3.2l-2.6-1c0-1.9.4-3.6 1.1-5.1s1.8-2.6 3.1-3.5c1.4-.8 3-1.2 4.9-1.2 1.5 0 2.7.2 3.7.7s1.8 1.1 2.4 1.9 1.1 1.6 1.4 2.5.5 1.8.7 2.7.2 1.6.2 2.3v11.8z"/><path d="m490.3 199.7v-3.3h14.5v3.3zm14.5 18c-1.3.3-2.6.4-3.9.3-1.3 0-2.4-.3-3.5-.8s-1.8-1.2-2.3-2.2c-.5-.9-.7-1.8-.7-2.7s0-1.9 0-3.1v-18.8h4.1v18.6 2.2c0 .6.1 1.2.4 1.6.5.8 1.2 1.3 2.2 1.4s2.2.1 3.6-.1z"/><path d="m509.2 192.9v-4h4.1v4zm0 24.8v-21.3h4.1v21.3z"/><path d="m517.1 199.7v-3.3h14.5v3.3zm14.6 18c-1.3.3-2.7.4-3.9.3-1.3 0-2.4-.3-3.5-.8s-1.8-1.2-2.3-2.2c-.5-.9-.7-1.8-.7-2.7s0-1.9 0-3.1v-18.8h4.1v18.6 2.2c0 .6.2 1.2.4 1.6.5.8 1.2 1.3 2.2 1.4s2.2.1 3.6-.1z"/><path d="m545 218.3c-2.1 0-4-.5-5.6-1.4s-2.8-2.2-3.7-3.9-1.3-3.6-1.3-5.8c0-2.3.4-4.3 1.3-6.1s2.1-3 3.7-4 3.4-1.4 5.5-1.4 4 .5 5.5 1.5 2.7 2.4 3.4 4.3c.8 1.9 1 4.1.9 6.6h-4.1v-1.5c0-2.5-.5-4.3-1.4-5.5s-2.3-1.8-4.2-1.8c-2.1 0-3.6.6-4.7 1.9-1 1.3-1.6 3.2-1.6 5.6s.5 4.1 1.6 5.4 2.5 1.9 4.5 1.9c1.3 0 2.4-.3 3.3-.9s1.7-1.4 2.2-2.5l4 1.3c-.8 1.9-2.1 3.4-3.8 4.4s-3.4 1.9-5.5 1.9zm-7.5-10.1v-3.2h15.2v3.2z"/><path d="m559.6 192.9v-4h4.1v4zm0 24.8v-21.3h4.1v21.3z"/><path d="m567.5 199.7v-3.3h14.5v3.3zm14.6 18c-1.3.3-2.7.4-3.9.3-1.3 0-2.4-.3-3.5-.8s-1.8-1.2-2.3-2.2c-.5-.9-.7-1.8-.7-2.7s0-1.9 0-3.1v-18.8h4.1v18.6 2.2c0 .6.2 1.2.4 1.6.5.8 1.2 1.3 2.2 1.4s2.2.1 3.6-.1z"/><path d="m594.7 218.3c-2.6 0-4.7-.6-6.3-1.7s-2.6-2.8-3-4.8l4.2-.6c.3 1.1.9 2 1.8 2.6s2.1 1 3.5 1c1.3 0 2.3-.3 3-.8s1.1-1.2 1.1-2.2c0-.5-.1-1-.4-1.3s-.8-.6-1.6-1c-.8-.3-2.1-.7-3.7-1.1-1.8-.5-3.3-1-4.3-1.5s-1.8-1.2-2.3-1.9-.7-1.6-.7-2.6c0-1.3.3-2.4 1-3.4s1.6-1.7 2.9-2.2c1.2-.5 2.7-.8 4.4-.8s3.1.3 4.3.8c1.3.5 2.3 1.2 3.1 2.2.8.9 1.3 2 1.4 3.3l-4.2.8c-.1-1-.6-1.8-1.4-2.4s-1.9-.9-3.2-1c-1.2-.1-2.3.1-3 .6s-1.2 1.1-1.2 1.9c0 .5.2.9.4 1.2s.9.6 1.7.9 2.1.7 3.8 1.1c1.8.5 3.2 1 4.2 1.5s1.8 1.2 2.2 2 .7 1.7.7 2.8c0 2.1-.8 3.8-2.3 4.9-1.3 1.1-3.4 1.7-6.1 1.7z"/><path d="m606.7 206.9v-3.3h11.8v3.3z"/><path d="m642.6 218.3c-2.1 0-4-.5-5.6-1.4s-2.8-2.2-3.7-3.9-1.3-3.6-1.3-5.8c0-2.3.4-4.3 1.3-6.1s2.1-3 3.7-4 3.4-1.4 5.5-1.4 4 .5 5.5 1.5 2.7 2.4 3.4 4.3c.8 1.9 1 4.1.9 6.6h-4.1v-1.5c0-2.5-.5-4.3-1.4-5.5s-2.3-1.8-4.2-1.8c-2.1 0-3.6.6-4.7 1.9-1 1.3-1.6 3.2-1.6 5.6s.5 4.1 1.6 5.4 2.5 1.9 4.5 1.9c1.3 0 2.4-.3 3.3-.9s1.7-1.4 2.2-2.5l4 1.3c-.8 1.9-2.1 3.4-3.8 4.4s-3.5 1.9-5.5 1.9zm-7.6-10.1v-3.2h15.2v3.2z"/><path d="m656.9 217.7v-21.3h3.7v6.1h.5v15.1zm15 0v-10.5c0-.8-.1-1.7-.2-2.6s-.4-1.7-.8-2.4c-.4-.8-.9-1.4-1.6-1.8-.7-.5-1.6-.7-2.8-.7-.7 0-1.4.1-2.1.4-.7.2-1.2.6-1.7 1.2s-.9 1.2-1.2 2.1-.4 1.9-.4 3.2l-2.6-1c0-1.9.4-3.6 1.1-5.1s1.8-2.6 3.1-3.5 3-1.2 4.9-1.2c1.5 0 2.7.2 3.7.7s1.8 1.1 2.4 1.9 1.1 1.6 1.4 2.5.5 1.8.7 2.7.2 1.6.2 2.3v11.8z"/><path d="m407.2 247v-3.3h14.5v3.3zm14.6 17.9c-1.3.3-2.6.4-3.9.3s-2.4-.3-3.5-.8-1.8-1.2-2.3-2.2c-.5-.9-.7-1.8-.7-2.7s0-2 0-3.1v-18.8h4.1v18.6 2.2c0 .6.1 1.2.4 1.6.5.8 1.2 1.3 2.2 1.4s2.2.1 3.6-.1z"/><path d="m435 265.5c-2.1 0-4-.5-5.5-1.4s-2.8-2.3-3.6-4c-.9-1.7-1.3-3.6-1.3-5.8s.4-4.2 1.3-5.9 2.1-3 3.6-3.9c1.6-.9 3.4-1.4 5.5-1.4s4 .5 5.5 1.4 2.8 2.3 3.6 4 1.3 3.6 1.3 5.8-.4 4.2-1.3 5.9-2.1 3-3.6 4c-1.6.9-3.4 1.3-5.5 1.3zm0-3.8c2 0 3.5-.7 4.6-2.1 1-1.4 1.5-3.1 1.5-5.3s-.5-4-1.5-5.3-2.5-2-4.5-2c-1.4 0-2.5.3-3.4.9s-1.6 1.5-2 2.6-.6 2.4-.6 3.8c0 2.2.5 4 1.5 5.4.9 1.3 2.4 2 4.4 2z"/><path d="m459.6 265.5c-2.1 0-4-.5-5.6-1.4s-2.8-2.2-3.7-3.9-1.3-3.6-1.3-5.8c0-2.3.4-4.3 1.3-6.1s2.1-3 3.6-4 3.4-1.4 5.5-1.4 4 .5 5.5 1.5 2.7 2.4 3.4 4.3c.8 1.9 1 4.1.9 6.6h-4.1v-1.3c0-2.5-.5-4.3-1.4-5.5s-2.3-1.8-4.2-1.8c-2.1 0-3.6.6-4.6 1.9s-1.6 3.2-1.6 5.6.5 4.1 1.6 5.4c1 1.3 2.5 1.9 4.5 1.9 1.3 0 2.4-.3 3.3-.9s1.7-1.4 2.2-2.5l4 1.3c-.8 1.9-2.1 3.4-3.8 4.4s-3.4 1.7-5.5 1.7zm-7.6-10v-3.2h15.2v3.2z"/><path d="m482.5 265.5c-2 0-3.7-.5-5.1-1.5s-2.5-2.3-3.3-4-1.2-3.6-1.2-5.7.4-4.1 1.2-5.7c.8-1.7 1.9-3 3.4-4s3.2-1.5 5.2-1.5 3.7.5 5.1 1.5 2.4 2.3 3.1 4 1 3.6 1 5.7-.4 4-1.1 5.7-1.8 3-3.1 4-3.1 1.5-5.2 1.5zm.4 9.5c-1.1 0-2.2-.2-3.3-.5s-2-.9-2.9-1.6-1.6-1.5-2.2-2.5l3.8-1.9c.5.9 1.1 1.6 2 2s1.8.6 2.7.6c1.2 0 2.2-.2 3-.6s1.5-1 1.9-1.9.6-1.9.6-3.1v-6h.5v-15.8h3.6v21.8c0 .6 0 1.1-.1 1.6 0 .5-.1 1-.2 1.5-.3 1.4-.9 2.6-1.7 3.5s-1.9 1.6-3.2 2.1-2.9.8-4.5.8zm.2-13.2c1.4 0 2.5-.3 3.3-1 .9-.6 1.5-1.5 1.9-2.7s.6-2.4.6-3.9-.2-2.8-.6-3.9-1-2-1.9-2.6c-.8-.6-1.9-.9-3.2-.9-1.4 0-2.5.3-3.4 1s-1.5 1.6-2 2.7c-.4 1.1-.6 2.4-.6 3.8s.2 2.7.6 3.8 1.1 2 1.9 2.7c1 .7 2.1 1 3.4 1z"/><path d="m504.4 265.5c-1.6 0-2.9-.3-4-.9s-1.9-1.4-2.4-2.3c-.5-1-.8-2-.8-3.2 0-1.1.2-2 .6-2.8s1-1.5 1.7-2.1c.8-.6 1.7-1 2.8-1.4 1-.3 2-.5 3.2-.7s2.5-.4 3.8-.6 2.6-.4 3.9-.6l-1.5.8c0-1.7-.3-2.9-1-3.7s-2-1.2-3.8-1.2c-1.1 0-2.1.3-3.1.8s-1.6 1.4-2 2.6l-3.8-1.2c.5-1.8 1.5-3.3 3-4.4s3.4-1.6 5.9-1.6c1.9 0 3.6.3 5 1 1.4.6 2.4 1.7 3.1 3.1.3.7.5 1.4.6 2.2s.1 1.6.1 2.5v13.2h-3.7v-4.9l.7.6c-.9 1.6-2 2.8-3.4 3.6s-2.9 1.2-4.9 1.2zm.7-3.3c1.2 0 2.2-.2 3-.6s1.5-.9 2-1.6c.5-.6.9-1.3 1-2 .2-.6.4-1.3.4-2.1s0-1.4 0-1.9l1.3.5c-1.3.2-2.5.4-3.5.5s-2 .3-2.9.5c-.9.1-1.6.3-2.3.5-.6.2-1.1.4-1.5.7s-.8.6-1 1c-.3.4-.4.9-.4 1.4s.1 1.1.4 1.5c.3.5.7.8 1.3 1.1s1.3.5 2.2.5z"/><path d="m521.3 265v-21.3h3.7v6.1h.5v15.2zm14.9 0v-10.5c0-.8-.1-1.7-.2-2.6s-.4-1.7-.8-2.4c-.4-.8-.9-1.4-1.6-1.8-.7-.5-1.6-.7-2.8-.7-.7 0-1.4.1-2.1.4-.7.2-1.2.6-1.7 1.2s-.9 1.2-1.2 2.1-.4 1.9-.4 3.2l-2.6-1c0-1.9.4-3.6 1.1-5.1s1.8-2.6 3.1-3.5 3-1.2 4.9-1.2c1.5 0 2.7.2 3.7.7s1.8 1.1 2.4 1.9 1.1 1.6 1.4 2.5.5 1.8.7 2.7c.1.9.2 1.6.2 2.3v11.8z"/><path d="m554.4 265.5c-2 0-3.7-.5-5.1-1.5s-2.5-2.3-3.3-4-1.2-3.6-1.2-5.7.4-4.1 1.2-5.7 1.9-3 3.4-4 3.2-1.5 5.2-1.5 3.7.5 5.1 1.5 2.4 2.3 3.1 4 1 3.6 1 5.7-.3 4-1.1 5.7-1.8 3-3.1 4-3.1 1.5-5.2 1.5zm.3 9.5c-1.1 0-2.2-.2-3.3-.5s-2-.9-2.9-1.6-1.6-1.5-2.2-2.5l3.8-1.9c.5.9 1.1 1.6 2 2s1.8.6 2.7.6c1.2 0 2.2-.2 3-.6s1.5-1 1.9-1.9.6-1.9.6-3.1v-6h.5v-15.8h3.6v21.8c0 .6 0 1.1-.1 1.6 0 .5-.1 1-.2 1.5-.3 1.4-.9 2.6-1.7 3.5s-1.9 1.6-3.2 2.1-2.8.8-4.5.8zm.3-13.2c1.3 0 2.5-.3 3.3-1 .8-.6 1.5-1.5 1.9-2.7s.6-2.4.6-3.9-.2-2.8-.6-3.9-1-2-1.8-2.6-1.9-.9-3.2-.9c-1.4 0-2.5.3-3.4 1s-1.5 1.6-2 2.7c-.4 1.1-.6 2.4-.6 3.8s.2 2.7.6 3.8 1.1 2 1.9 2.7c.9.7 2 1 3.3 1z"/><path d="m578.3 265.5c-2.6 0-4.7-.6-6.3-1.7s-2.6-2.8-3-4.8l4.2-.6c.3 1.1.9 2 1.8 2.6 1 .6 2.1 1 3.5 1 1.3 0 2.3-.3 3-.8s1.1-1.2 1.1-2.2c0-.5-.1-1-.4-1.3s-.8-.6-1.6-1c-.8-.3-2.1-.7-3.7-1.1-1.8-.5-3.3-1-4.3-1.5s-1.8-1.2-2.3-1.9-.7-1.6-.7-2.6c0-1.3.3-2.4 1-3.4s1.6-1.7 2.9-2.2c1.2-.5 2.7-.8 4.4-.8s3.1.3 4.3.8c1.3.5 2.3 1.2 3.1 2.2.8.9 1.3 2 1.4 3.3l-4.2.8c-.1-1-.6-1.8-1.4-2.4s-1.9-.9-3.2-1c-1.2-.1-2.3.1-3 .6s-1.2 1.1-1.2 1.9c0 .5.2.9.4 1.2s.9.6 1.7.9 2.1.7 3.8 1.1c1.8.5 3.2 1 4.2 1.5s1.8 1.2 2.2 2 .7 1.7.7 2.8c0 2.1-.8 3.8-2.3 4.9s-3.4 1.7-6.1 1.7z"/><path d="m591.8 265v-28.4h4.1v13.1h-.5v15.3zm10 .5c-2 0-3.7-.5-5.1-1.5s-2.4-2.3-3.1-4-1.1-3.6-1.1-5.7.3-4 1-5.7 1.7-3 3.1-4 3.1-1.5 5.1-1.5 3.7.5 5.2 1.5 2.6 2.3 3.4 4 1.2 3.6 1.2 5.7-.4 4-1.2 5.7-1.9 3-3.3 4c-1.6 1-3.3 1.5-5.2 1.5zm-.6-3.7c1.3 0 2.4-.3 3.3-1s1.5-1.6 1.9-2.7.6-2.4.6-3.8-.2-2.6-.6-3.8-1.1-2-2-2.7-2-1-3.4-1c-1.3 0-2.3.3-3.2.9-.8.6-1.5 1.5-1.8 2.6s-.6 2.4-.6 3.9.2 2.8.6 3.9 1 2 1.9 2.7 1.9 1 3.3 1z"/><path d="m625.7 265.5c-2.1 0-4-.5-5.6-1.4s-2.8-2.2-3.7-3.9-1.3-3.6-1.3-5.8c0-2.3.4-4.3 1.3-6.1s2.1-3 3.7-4 3.4-1.4 5.5-1.4 4 .5 5.5 1.5 2.7 2.4 3.4 4.3c.8 1.9 1 4.1.9 6.6h-4.1v-1.3c0-2.5-.5-4.3-1.4-5.5s-2.3-1.8-4.2-1.8c-2.1 0-3.6.6-4.7 1.9-1 1.3-1.6 3.2-1.6 5.6s.5 4.1 1.6 5.4c1 1.3 2.5 1.9 4.5 1.9 1.3 0 2.4-.3 3.3-.9s1.7-1.4 2.2-2.5l4 1.3c-.8 1.9-2.1 3.4-3.8 4.4s-3.4 1.7-5.5 1.7zm-7.6-10v-3.2h15.2v3.2z"/><path d="m640 265v-28.4h3.7v15.3h.5v13.1zm15 0v-10.5c0-.8-.1-1.7-.2-2.6s-.4-1.7-.8-2.4c-.4-.8-.9-1.4-1.6-1.8-.7-.5-1.6-.7-2.8-.7-.7 0-1.4.1-2.1.4-.7.2-1.2.6-1.7 1.2s-.9 1.2-1.2 2.1-.4 1.9-.4 3.2l-2.6-1c0-1.9.4-3.6 1.1-5.1s1.8-2.6 3.1-3.5 3-1.2 4.9-1.2c1.5 0 2.7.2 3.7.7s1.8 1.1 2.4 1.9 1.1 1.6 1.4 2.5.5 1.8.7 2.7c.1.9.2 1.6.2 2.3v11.8z"/><path d="m674.2 265.5c-2.1 0-4-.5-5.6-1.4s-2.8-2.2-3.7-3.9-1.3-3.6-1.3-5.8c0-2.3.4-4.3 1.3-6.1s2.1-3 3.7-4 3.4-1.4 5.5-1.4 4 .5 5.5 1.5 2.7 2.4 3.4 4.3c.8 1.9 1 4.1.9 6.6h-4.1v-1.3c0-2.5-.5-4.3-1.4-5.5s-2.3-1.8-4.2-1.8c-2.1 0-3.6.6-4.7 1.9-1 1.3-1.6 3.2-1.6 5.6s.5 4.1 1.6 5.4c1 1.3 2.5 1.9 4.5 1.9 1.3 0 2.4-.3 3.3-.9s1.7-1.4 2.2-2.5l4 1.3c-.8 1.9-2.1 3.4-3.8 4.4s-3.5 1.7-5.5 1.7zm-7.6-10v-3.2h15.2v3.2z"/><path d="m698.1 265.5c-2.1 0-4-.5-5.6-1.4s-2.8-2.2-3.7-3.9-1.3-3.6-1.3-5.8c0-2.3.4-4.3 1.3-6.1s2.1-3 3.7-4 3.4-1.4 5.5-1.4 4 .5 5.5 1.5 2.7 2.4 3.4 4.3c.8 1.9 1 4.1.9 6.6h-4.1v-1.3c0-2.5-.5-4.3-1.4-5.5s-2.3-1.8-4.2-1.8c-2.1 0-3.6.6-4.7 1.9-1 1.3-1.6 3.2-1.6 5.6s.5 4.1 1.6 5.4c1 1.3 2.5 1.9 4.5 1.9 1.3 0 2.4-.3 3.3-.9s1.7-1.4 2.2-2.5l4 1.3c-.8 1.9-2.1 3.4-3.8 4.4s-3.4 1.7-5.5 1.7zm-7.6-10v-3.2h15.2v3.2z"/><path d="m712.5 265v-21.3h3.7v5.2l-.5-.7c.3-.7.6-1.3 1-1.9s.9-1 1.5-1.4c.5-.4 1.1-.7 1.8-.9s1.3-.4 2-.4c.7-.1 1.4 0 2 .1v3.9c-.7-.2-1.5-.2-2.3-.2-.8.1-1.6.4-2.3.8s-1.2 1-1.6 1.6-.7 1.3-.8 2.1c-.2.8-.3 1.6-.3 2.4v10.7z"/><path d="m415.6 49.3-8.2-28.4h4.3l6 21.4 6-21.4h4.3l6 21.4 6-21.4h4.3l-8.3 28.4h-4.1l-6.1-21.2-6.1 21.2z"/><path d="m455.7 49.9c-2.1 0-4-.5-5.6-1.4s-2.8-2.2-3.7-3.9-1.3-3.6-1.3-5.8c0-2.3.4-4.3 1.3-6s2.1-3 3.6-4 3.4-1.4 5.5-1.4 4 .5 5.5 1.5 2.7 2.4 3.4 4.3c.8 1.8 1 4 .9 6.6h-4.1v-1.5c0-2.5-.5-4.3-1.4-5.5s-2.3-1.8-4.2-1.8c-2.1 0-3.6.7-4.6 1.9-1 1.3-1.6 3.2-1.6 5.6s.5 4.2 1.6 5.4 2.5 1.9 4.5 1.9c1.3 0 2.4-.3 3.3-.9s1.7-1.4 2.2-2.5l4 1.3c-.8 1.9-2.1 3.4-3.8 4.4-1.6 1.2-3.5 1.8-5.5 1.8zm-7.6-10.1v-3.2h15.2v3.2z"/><path d="m470 49.3v-21.3h3.7v5.2l-.5-.7c.3-.7.6-1.3 1-1.9s.9-1 1.5-1.4c.5-.4 1.1-.7 1.8-.9s1.3-.4 2-.4 1.4 0 2 .1v3.9c-.7-.2-1.5-.2-2.3-.2-.9.1-1.6.3-2.3.8-.7.4-1.2 1-1.6 1.6s-.7 1.3-.8 2.1c-.2.8-.3 1.5-.3 2.4v10.7z"/><path d="m485.4 49.3v-28.4h4.2v17.3l8.4-10.2h5.2l-8.8 10.6 9.7 10.6h-5.6l-8.9-10.2v10.2z"/><path d="m507.1 49.3v-21.3h3.7v6.1h.5v15.1zm15 0v-10.5c0-.8-.1-1.7-.2-2.5s-.4-1.7-.8-2.4c-.4-.8-.9-1.3-1.6-1.8s-1.6-.7-2.8-.7c-.7 0-1.4.1-2.1.4-.7.2-1.2.6-1.7 1.2-.5.5-.9 1.2-1.2 2.1s-.4 2-.4 3.2l-2.6-1c0-1.9.4-3.6 1.1-5.1s1.8-2.6 3.1-3.5c1.3-.8 3-1.2 4.9-1.2 1.5 0 2.7.2 3.7.7s1.8 1.1 2.4 1.9 1.1 1.6 1.4 2.5.5 1.8.7 2.7.2 1.6.2 2.3v11.8z"/><path d="m541.2 49.9c-2.1 0-4-.5-5.6-1.4s-2.8-2.2-3.7-3.9-1.3-3.6-1.3-5.8c0-2.3.4-4.3 1.3-6s2.1-3 3.7-4 3.4-1.4 5.5-1.4 4 .5 5.5 1.5 2.7 2.4 3.4 4.3c.8 1.8 1 4 .9 6.6h-4.1v-1.5c0-2.5-.5-4.3-1.4-5.5s-2.3-1.8-4.2-1.8c-2.1 0-3.6.7-4.7 1.9-1 1.3-1.6 3.2-1.6 5.6s.5 4.2 1.6 5.4 2.5 1.9 4.5 1.9c1.3 0 2.4-.3 3.3-.9s1.7-1.4 2.2-2.5l4 1.3c-.8 1.9-2.1 3.4-3.8 4.4-1.5 1.2-3.4 1.8-5.5 1.8zm-7.5-10.1v-3.2h15.2v3.2z"/><path d="m555.6 49.3v-21.3h3.7v6.1h.5v15.1zm12.8 0v-13.2c0-1.5-.4-2.8-1.2-3.6-.8-.9-1.8-1.3-3.1-1.3s-2.3.5-3.1 1.3c-.8.9-1.2 2.1-1.2 3.5l-2-1.3c0-1.4.3-2.6 1-3.7s1.6-2 2.7-2.6 2.4-1 3.9-1 2.8.3 3.9 1 1.9 1.5 2.4 2.7.8 2.5.8 4v14.2zm12.7 0v-13.2c0-1.5-.4-2.7-1.2-3.6s-1.8-1.3-3.1-1.3c-.8 0-1.5.2-2.2.5-.7.4-1.2.9-1.6 1.6s-.6 1.6-.6 2.7l-2-1c0-1.5.3-2.8 1-3.9s1.6-2 2.7-2.6 2.4-.9 3.8-.9c2.3 0 4.1.7 5.3 2.1s1.9 3.2 1.9 5.5v14.2z"/><path d="m600.3 49.9c-2.1 0-4-.5-5.6-1.4s-2.8-2.2-3.7-3.9-1.3-3.6-1.3-5.8c0-2.3.4-4.3 1.3-6s2.1-3 3.7-4 3.4-1.4 5.5-1.4 4 .5 5.5 1.5 2.7 2.4 3.4 4.3c.8 1.8 1 4 .9 6.6h-4.1v-1.5c0-2.5-.5-4.3-1.4-5.5s-2.3-1.8-4.2-1.8c-2.1 0-3.6.7-4.7 1.9-1 1.3-1.6 3.2-1.6 5.6s.5 4.2 1.6 5.4 2.5 1.9 4.5 1.9c1.3 0 2.4-.3 3.3-.9s1.7-1.4 2.2-2.5l4 1.3c-.8 1.9-2.1 3.4-3.8 4.4-1.6 1.2-3.4 1.8-5.5 1.8zm-7.6-10.1v-3.2h15.2v3.2z"/><path d="m614.7 49.3v-21.3h3.7v5.2l-.5-.7c.3-.7.6-1.3 1-1.9s.9-1 1.5-1.4c.5-.4 1.1-.7 1.8-.9s1.3-.4 2-.4 1.4 0 2 .1v3.9c-.7-.2-1.5-.2-2.3-.2-.8.1-1.6.3-2.3.8-.7.4-1.2 1-1.6 1.6s-.7 1.3-.8 2.1c-.2.8-.3 1.5-.3 2.4v10.7z"/><path d="m638.3 49.9c-2.6 0-4.7-.6-6.3-1.7s-2.6-2.8-3-4.8l4.2-.7c.3 1.1.9 2 1.8 2.6s2.1 1 3.5 1c1.3 0 2.3-.3 3-.8s1.1-1.2 1.1-2.2c0-.5-.1-1-.4-1.3s-.8-.7-1.6-1-2.1-.7-3.7-1.1c-1.8-.5-3.3-1-4.3-1.5s-1.8-1.2-2.3-1.9-.7-1.6-.7-2.7c0-1.3.3-2.4 1-3.4s1.6-1.7 2.9-2.2c1.2-.5 2.7-.8 4.4-.8s3.1.3 4.3.8c1.3.5 2.3 1.2 3.1 2.2.8.9 1.3 2 1.4 3.3l-4.2.8c-.1-1-.6-1.8-1.4-2.4s-1.9-.9-3.2-1c-1.2 0-2.3.1-3 .6s-1.2 1.1-1.2 1.9c0 .5.2.9.4 1.2s.9.6 1.7 1c.8.3 2.1.7 3.8 1.1 1.8.5 3.2 1 4.2 1.5 1 .6 1.8 1.2 2.2 2s.7 1.7.7 2.8c0 2.1-.8 3.8-2.3 4.9-1.3 1.2-3.4 1.8-6.1 1.8z"/><path d="m660.8 49.3v-28.4h4.1v13.1h-.5v15.3zm10 .6c-2 0-3.7-.5-5.1-1.5s-2.4-2.3-3.1-4-1.1-3.6-1.1-5.7.3-4 1-5.7 1.7-3 3.1-4 3.1-1.5 5.1-1.5 3.7.5 5.2 1.5 2.6 2.3 3.4 4 1.2 3.6 1.2 5.7-.4 4-1.2 5.7-1.9 3-3.3 4c-1.5 1-3.3 1.5-5.2 1.5zm-.6-3.7c1.3 0 2.4-.3 3.3-1s1.5-1.6 1.9-2.7.6-2.4.6-3.8-.2-2.7-.6-3.8-1.1-2-2-2.7-2-1-3.4-1c-1.3 0-2.3.3-3.2.9-.8.6-1.5 1.5-1.8 2.6-.4 1.1-.6 2.4-.6 3.9s.2 2.8.6 3.9 1 2 1.9 2.7 1.9 1 3.3 1z"/><path d="m694.7 49.9c-2.1 0-4-.5-5.6-1.4s-2.8-2.2-3.7-3.9-1.3-3.6-1.3-5.8c0-2.3.4-4.3 1.3-6s2.1-3 3.7-4 3.4-1.4 5.5-1.4 4 .5 5.5 1.5 2.7 2.4 3.4 4.3c.8 1.8 1 4 .9 6.6h-4.1v-1.5c0-2.5-.5-4.3-1.4-5.5s-2.3-1.8-4.2-1.8c-2.1 0-3.6.7-4.7 1.9-1 1.3-1.6 3.2-1.6 5.6s.5 4.2 1.6 5.4 2.5 1.9 4.5 1.9c1.3 0 2.4-.3 3.3-.9s1.7-1.4 2.2-2.5l4 1.3c-.8 1.9-2.1 3.4-3.8 4.4-1.6 1.2-3.4 1.8-5.5 1.8zm-7.6-10.1v-3.2h15.2v3.2z"/><path d="m713 49.3-6.5-21.3h4.1l4.5 14.6 4.5-14.6h3.5l4.5 14.6 4.4-14.6h4.1l-6.5 21.3h-3.3l-5-15.4-5 15.4z"/><path d="m748 49.9c-1.5 0-2.7-.2-3.7-.7s-1.8-1.1-2.4-1.9-1.1-1.6-1.4-2.5-.5-1.8-.7-2.7-.2-1.6-.2-2.3v-11.8h4.2v10.5c0 .8.1 1.7.2 2.5s.4 1.7.8 2.4c.4.8.9 1.3 1.6 1.8s1.6.7 2.8.7c.7 0 1.4-.1 2.1-.4.7-.2 1.2-.6 1.7-1.2.5-.5.9-1.2 1.2-2.1s.4-2 .4-3.2l2.6 1c0 1.9-.4 3.6-1.1 5.1s-1.8 2.6-3.1 3.5-3 1.3-5 1.3zm7.1-.6v-6.1h-.5v-15.2h4.2v21.3z"/><path d="m772.6 49.9c-2.6 0-4.7-.6-6.3-1.7s-2.6-2.8-3-4.8l4.2-.7c.3 1.1.9 2 1.8 2.6s2.1 1 3.5 1c1.3 0 2.3-.3 3-.8s1.1-1.2 1.1-2.2c0-.5-.1-1-.4-1.3s-.8-.7-1.6-1-2.1-.7-3.7-1.1c-1.8-.5-3.3-1-4.3-1.5s-1.8-1.2-2.3-1.9-.7-1.6-.7-2.7c0-1.3.3-2.4 1-3.4s1.6-1.7 2.9-2.2c1.2-.5 2.7-.8 4.4-.8s3.1.3 4.3.8c1.3.5 2.3 1.2 3.1 2.2.8.9 1.3 2 1.4 3.3l-4.2.8c-.1-1-.6-1.8-1.4-2.4s-1.9-.9-3.2-1c-1.2 0-2.3.1-3 .6s-1.2 1.1-1.2 1.9c0 .5.2.9.4 1.2s.9.6 1.7 1c.8.3 2.1.7 3.8 1.1 1.8.5 3.2 1 4.2 1.5 1 .6 1.8 1.2 2.2 2s.7 1.7.7 2.8c0 2.1-.8 3.8-2.3 4.9-1.3 1.2-3.4 1.8-6.1 1.8z"/><path d="m784 31.3v-3.3h14.5v3.3zm14.6 18c-1.3.3-2.7.4-3.9.3s-2.4-.3-3.5-.8-1.8-1.2-2.3-2.2c-.5-.9-.7-1.8-.7-2.7s0-2 0-3.1v-18.7h4.1v18.6 2.2c0 .6.2 1.2.4 1.6.5.8 1.2 1.3 2.2 1.4s2.2.1 3.6-.1z"/><path d="m811.9 49.9c-2.1 0-4-.5-5.6-1.4s-2.8-2.2-3.7-3.9-1.3-3.6-1.3-5.8c0-2.3.4-4.3 1.3-6s2.1-3 3.7-4 3.4-1.4 5.5-1.4 4 .5 5.5 1.5 2.7 2.4 3.4 4.3c.8 1.8 1 4 .9 6.6h-4.1v-1.5c0-2.5-.5-4.3-1.4-5.5s-2.3-1.8-4.2-1.8c-2.1 0-3.6.7-4.7 1.9-1 1.3-1.6 3.2-1.6 5.6s.5 4.2 1.6 5.4 2.5 1.9 4.5 1.9c1.3 0 2.4-.3 3.3-.9s1.7-1.4 2.2-2.5l4 1.3c-.8 1.9-2.1 3.4-3.8 4.4-1.5 1.2-3.4 1.8-5.5 1.8zm-7.6-10.1v-3.2h15.2v3.2z"/><path d="m826.3 49.3v-21.3h3.7v5.2l-.5-.7c.3-.7.6-1.3 1-1.9s.9-1 1.5-1.4c.5-.4 1.1-.7 1.8-.9s1.3-.4 2-.4 1.4 0 2 .1v3.9c-.7-.2-1.5-.2-2.3-.2-.8.1-1.6.3-2.3.8-.7.4-1.2 1-1.6 1.6s-.7 1.3-.8 2.1c-.2.8-.3 1.5-.3 2.4v10.7z"/><path d="m409.6 96.6v-21.3h3.7v6.1h.5v15.1zm12.8 0v-13.2c0-1.6-.4-2.8-1.2-3.6s-1.8-1.3-3.1-1.3-2.4.4-3.1 1.3-1.2 2.1-1.2 3.5l-2-1.3c0-1.4.3-2.6 1-3.7s1.6-1.9 2.7-2.6c1.1-.6 2.4-.9 3.9-.9s2.8.3 3.9 1 1.9 1.5 2.4 2.7.8 2.5.8 4v14.2zm12.7 0v-13.2c0-1.5-.4-2.7-1.2-3.6s-1.8-1.3-3.1-1.3c-.8 0-1.5.2-2.2.5s-1.2.9-1.6 1.6-.6 1.6-.6 2.7l-2-1c0-1.5.3-2.8 1-3.9s1.6-2 2.7-2.6 2.4-.9 3.8-.9c2.3 0 4.1.7 5.3 2.1s1.9 3.2 1.9 5.5v14.2z"/><path d="m450.8 97.2c-1.6 0-2.9-.3-4-.9s-1.9-1.4-2.4-2.3c-.5-1-.8-2-.8-3.2 0-1.1.2-2 .6-2.8s1-1.5 1.7-2.1c.8-.6 1.7-1 2.8-1.4 1-.3 2-.5 3.2-.7s2.5-.4 3.8-.6 2.6-.4 3.9-.6l-1.5.8c0-1.7-.3-2.9-1-3.7s-2-1.2-3.8-1.2c-1.1 0-2.1.3-3.1.8s-1.6 1.4-2 2.6l-3.8-1.2c.5-1.8 1.5-3.3 3-4.3 1.5-1.1 3.4-1.6 5.9-1.6 1.9 0 3.6.3 5 1s2.4 1.7 3.1 3.1c.3.7.5 1.4.6 2.2s.1 1.6.1 2.5v13.1h-3.6v-4.9l.7.6c-.9 1.6-2 2.8-3.4 3.6s-3 1.1-5 1.2zm.7-3.4c1.2 0 2.2-.2 3-.6s1.5-.9 2-1.6.9-1.3 1-2c.2-.6.4-1.3.4-2.1s0-1.4 0-1.9l1.3.5c-1.3.2-2.5.4-3.5.5s-2 .3-2.9.5-1.6.3-2.3.5c-.6.2-1.1.4-1.5.7s-.8.6-1 1c-.3.4-.4.9-.4 1.4s.1 1.1.4 1.5c.3.5.7.8 1.3 1.1s1.4.5 2.2.5z"/><path d="m467.7 96.6v-28.4h4.2v17.3l8.4-10.2h5.2l-8.8 10.6 9.7 10.6h-5.6l-8.9-10.2v10.2h-4.2z"/><path d="m497.4 97.2c-2.1 0-4-.5-5.6-1.4s-2.8-2.2-3.7-3.9-1.3-3.6-1.3-5.8c0-2.3.4-4.3 1.3-6.1s2.1-3 3.6-4 3.4-1.4 5.5-1.4 4 .5 5.5 1.5 2.7 2.4 3.4 4.3c.8 1.8 1 4.1.9 6.6h-4v-1.5c0-2.5-.5-4.3-1.4-5.5s-2.3-1.8-4.2-1.8c-2.1 0-3.6.7-4.6 1.9-1 1.3-1.6 3.2-1.6 5.6s.5 4.1 1.6 5.4c1 1.3 2.5 1.9 4.5 1.9 1.3 0 2.4-.3 3.3-.9s1.7-1.4 2.2-2.5l4 1.3c-.8 1.9-2.1 3.4-3.8 4.4s-3.5 1.9-5.6 1.9zm-7.5-10.1v-3.2h15.1v3.2z"/><path d="m511.8 96.6v-21.3h3.7v6.1h.5v15.1zm14.9 0v-10.5c0-.8-.1-1.7-.2-2.6s-.4-1.7-.8-2.4c-.4-.8-.9-1.3-1.6-1.8s-1.6-.7-2.8-.7c-.7 0-1.4.1-2.1.4-.7.2-1.2.6-1.7 1.2s-.9 1.2-1.2 2.1-.4 1.9-.4 3.2l-2.6-1c0-1.9.4-3.6 1.1-5.1s1.8-2.6 3.1-3.5 3-1.2 4.9-1.2c1.5 0 2.7.2 3.7.7s1.8 1.1 2.4 1.9 1.1 1.6 1.4 2.5.5 1.8.7 2.7.2 1.6.2 2.3v11.8z"/><path d="m551.2 96.6-7.7-21.3h4.2l5.7 16.1 5.7-16.1h4.2l-7.7 21.3z"/><path d="m572.3 97.2c-1.6 0-2.9-.3-4-.9s-1.9-1.4-2.4-2.3c-.5-1-.8-2-.8-3.2 0-1.1.2-2 .6-2.8s1-1.5 1.7-2.1c.8-.6 1.7-1 2.8-1.4 1-.3 2-.5 3.2-.7s2.5-.4 3.8-.6 2.6-.4 3.9-.6l-1.5.8c0-1.7-.3-2.9-1-3.7s-2-1.2-3.8-1.2c-1.1 0-2.1.3-3.1.8s-1.6 1.4-2 2.6l-3.8-1.2c.5-1.8 1.5-3.3 3-4.3 1.5-1.1 3.4-1.6 5.9-1.6 1.9 0 3.6.3 5 1s2.4 1.7 3.1 3.1c.3.7.5 1.4.6 2.2s.1 1.6.1 2.5v13.1h-3.6v-4.9l.7.6c-.9 1.6-2 2.8-3.4 3.6s-3 1.1-5 1.2zm.7-3.4c1.2 0 2.2-.2 3-.6s1.5-.9 2-1.6.8-1.3 1-2c.2-.6.3-1.3.4-2.1s0-1.4 0-1.9l1.3.5c-1.3.2-2.5.4-3.5.5s-2 .3-2.9.5-1.6.3-2.3.5c-.6.2-1.1.4-1.5.7s-.8.6-1 1c-.3.4-.4.9-.4 1.4s.1 1.1.4 1.5c.3.5.7.8 1.3 1.1s1.3.5 2.2.5z"/><path d="m589.2 96.6v-21.3h3.7v6.1h.5v15.1zm15 0v-10.5c0-.8-.1-1.7-.2-2.6s-.4-1.7-.8-2.4c-.4-.8-.9-1.3-1.6-1.8s-1.6-.7-2.8-.7c-.7 0-1.4.1-2.1.4-.7.2-1.2.6-1.7 1.2s-.9 1.2-1.2 2.1-.4 1.9-.4 3.2l-2.6-1c0-1.9.4-3.6 1.1-5.1s1.8-2.6 3.1-3.5 3-1.2 4.9-1.2c1.5 0 2.7.2 3.7.7s1.8 1.1 2.4 1.9 1.1 1.6 1.4 2.5.5 1.8.7 2.7.2 1.6.2 2.3v11.8z"/><path d="m628.6 96.6-7.7-21.3h4.2l5.7 16.1 5.7-16.1h4.2l-7.7 21.3z"/><path d="m653 97.2c-2.1 0-4-.5-5.6-1.4s-2.8-2.2-3.7-3.9-1.3-3.6-1.3-5.8c0-2.3.4-4.3 1.3-6.1s2.1-3 3.7-4 3.4-1.4 5.5-1.4 4 .5 5.5 1.5 2.7 2.4 3.4 4.3c.8 1.8 1 4.1.9 6.6h-4.1v-1.5c0-2.5-.5-4.3-1.4-5.5s-2.3-1.8-4.2-1.8c-2.1 0-3.6.7-4.7 1.9-1 1.3-1.6 3.2-1.6 5.6s.5 4.1 1.6 5.4c1 1.3 2.5 1.9 4.5 1.9 1.3 0 2.4-.3 3.3-.9s1.7-1.4 2.2-2.5l4 1.3c-.8 1.9-2.1 3.4-3.8 4.4s-3.4 1.9-5.5 1.9zm-7.6-10.1v-3.2h15.2v3.2z"/><path d="m667.6 71.8v-4h4.1v4zm0 24.8v-21.3h4.1v21.3z"/><path d="m677.9 96.6v-29h4.1v28.9h-4.1z"/><path d="m688.2 71.8v-4h4.1v4zm0 24.8v-21.3h4.1v21.3z"/><path d="m706.9 97.2c-2 0-3.7-.5-5.1-1.5s-2.5-2.3-3.3-4-1.2-3.6-1.2-5.7.4-4.1 1.2-5.7c.8-1.7 1.9-3 3.4-4s3.2-1.5 5.2-1.5 3.7.5 5.1 1.5 2.4 2.3 3.1 4 1 3.6 1 5.7-.3 4-1.1 5.7-1.8 3-3.1 4-3.2 1.5-5.2 1.5zm.3 9.4c-1.1 0-2.2-.2-3.3-.5s-2-.9-2.9-1.6-1.6-1.5-2.2-2.6l3.8-1.9c.5.9 1.1 1.6 2 2s1.8.6 2.7.6c1.2 0 2.2-.2 3-.6s1.5-1 1.9-1.9.6-1.8.6-3.1v-5.9h.5v-15.8h3.6v21.8c0 .6 0 1.1-.1 1.6 0 .5-.1 1-.2 1.5-.3 1.4-.9 2.6-1.7 3.5s-1.9 1.6-3.2 2.1-2.8.8-4.5.8zm.3-13.2c1.3 0 2.5-.3 3.3-1 .8-.6 1.5-1.5 1.9-2.7s.6-2.4.6-3.9-.2-2.8-.6-3.9-1-2-1.8-2.6-1.9-.9-3.2-.9c-1.4 0-2.5.3-3.4 1s-1.5 1.6-2 2.7-.6 2.4-.6 3.8.2 2.7.6 3.8 1.1 2 1.9 2.7 2 1 3.3 1z"/><path d="m722.7 96.6v-28.4h3.7v15.3h.5v13.1zm15 0v-10.5c0-.8-.1-1.7-.2-2.6s-.4-1.7-.8-2.4c-.4-.8-.9-1.3-1.6-1.8s-1.6-.7-2.8-.7c-.7 0-1.4.1-2.1.4-.7.2-1.2.6-1.7 1.2s-.9 1.2-1.2 2.1-.4 1.9-.4 3.2l-2.6-1c0-1.9.4-3.6 1.1-5.1s1.8-2.6 3.1-3.5 3-1.2 4.9-1.2c1.5 0 2.7.2 3.7.7s1.8 1.1 2.4 1.9 1.1 1.6 1.4 2.5.5 1.8.7 2.7.2 1.6.2 2.3v11.8z"/><path d="m756.9 97.2c-2.1 0-4-.5-5.6-1.4s-2.8-2.2-3.7-3.9-1.3-3.6-1.3-5.8c0-2.3.4-4.3 1.3-6.1s2.1-3 3.7-4 3.4-1.4 5.5-1.4 4 .5 5.5 1.5 2.7 2.4 3.4 4.3c.8 1.8 1 4.1.9 6.6h-4.1v-1.5c0-2.5-.5-4.3-1.4-5.5s-2.3-1.8-4.2-1.8c-2.1 0-3.6.7-4.7 1.9-1 1.3-1.6 3.2-1.6 5.6s.5 4.1 1.6 5.4c1 1.3 2.5 1.9 4.5 1.9 1.3 0 2.4-.3 3.3-.9s1.7-1.4 2.2-2.5l4 1.3c-.8 1.9-2.1 3.4-3.8 4.4s-3.5 1.9-5.5 1.9zm-7.6-10.1v-3.2h15.2v3.2z"/><path d="m771.4 71.8v-4h4.1v4zm0 24.8v-21.3h4.1v21.3z"/><path d="m790.2 97.2c-2 0-3.7-.5-5.1-1.5s-2.5-2.3-3.3-4-1.2-3.6-1.2-5.7.4-4.1 1.2-5.7c.8-1.7 1.9-3 3.4-4s3.2-1.5 5.2-1.5 3.7.5 5.1 1.5 2.4 2.3 3.1 4 1 3.6 1 5.7-.3 4-1.1 5.7-1.8 3-3.1 4-3.2 1.5-5.2 1.5zm.5-3.8c1.3 0 2.5-.3 3.3-1 .8-.6 1.5-1.5 1.9-2.7s.6-2.4.6-3.9-.2-2.8-.6-3.9-1-2-1.8-2.6-1.9-.9-3.2-.9c-1.4 0-2.5.3-3.4 1s-1.5 1.6-2 2.7-.6 2.4-.6 3.8.2 2.7.6 3.8 1.1 2 1.9 2.7 2 1 3.3 1zm5.8 3.2v-15.3h-.5v-13.1h4.1v28.4z"/><path d="m77.8 372.3h278.9" fill="none" stroke="url(#b)" stroke-linecap="round" stroke-miterlimit="10" stroke-width="10.37"/><circle cx="41.5" cy="371.8" fill="none" r="36.1" stroke="url(#d)" stroke-linecap="round" stroke-miterlimit="10" stroke-width="10.37"/><path d="m42.3 388.8c-1.5 0-2.9-.3-4.2-.9s-2.5-1.4-3.5-2.5-1.7-2.3-2.1-3.8l4.8-1.3c.3 1.2 1 2.1 1.9 2.8.9.6 1.9 1 3 .9 1 0 1.9-.2 2.6-.7.8-.5 1.4-1.1 1.8-1.9s.7-1.6.7-2.6c0-1.5-.5-2.7-1.4-3.7-1-1-2.2-1.5-3.7-1.5-.5 0-.9.1-1.3.2s-.8.3-1.2.5l-2.3-3.9 10-8.6.4 1.2h-14.1v-4.7h18.3v4.7l-8.1 7.8v-1.5c1.8.1 3.3.6 4.6 1.5s2.3 2 2.9 3.4 1 2.9 1 4.6c0 1.9-.5 3.6-1.4 5.1s-2.2 2.7-3.7 3.5-3.1 1.4-5 1.4z"/><path d="m77.8 206.4h278.9" fill="none" stroke="url(#e)" stroke-linecap="round" stroke-miterlimit="10" stroke-width="10.37"/><circle cx="41.5" cy="206.4" fill="none" r="36.1" stroke="url(#f)" stroke-linecap="round" stroke-miterlimit="10" stroke-width="10.37"/><path d="m31.2 220v-4.4l12.8-11.3c1-.9 1.7-1.7 2.1-2.5s.6-1.6.6-2.3c0-1-.2-1.9-.6-2.7s-1-1.4-1.8-1.9-1.6-.7-2.6-.7-2 .2-2.8.7-1.4 1.1-1.9 1.9c-.4.8-.7 1.6-.6 2.6h-5.1c0-2 .5-3.7 1.3-5.2.9-1.5 2.1-2.6 3.7-3.4s3.4-1.2 5.4-1.2c1.9 0 3.6.4 5.1 1.3s2.7 2 3.6 3.5 1.3 3.2 1.3 5.2c0 1.4-.2 2.6-.6 3.6s-1 1.9-1.7 2.7-1.7 1.7-2.8 2.7l-9.1 8-.5-1.2h14.7v4.7z"/><path d="m77.8 41h278.9" fill="none" stroke="url(#g)" stroke-linecap="round" stroke-miterlimit="10" stroke-width="10.37"/><circle cx="41.5" cy="41" fill="none" r="36.1" stroke="url(#h)" stroke-linecap="round" stroke-miterlimit="10" stroke-width="10.37"/><path d="m41.4 54.6v-24.4l-5.6 3.4v-5.5l5.6-3.4h5.1v29.8h-5.1z"/></svg>