<?xml version="1.0" encoding="UTF-8"?>
<svg id="Layer_2" data-name="Layer 2" xmlns="http://www.w3.org/2000/svg" xmlns:xlink="http://www.w3.org/1999/xlink" viewBox="0 0 651.34 321.38">
  <defs>
    <style>
      .cls-1 {
        stroke: url(#New_Gradient_Swatch_2-3);
      }

      .cls-1, .cls-2, .cls-3, .cls-4, .cls-5, .cls-6 {
        fill: none;
        stroke-linecap: round;
        stroke-miterlimit: 10;
        stroke-width: 9.99px;
      }

      .cls-2 {
        stroke: url(#New_Gradient_Swatch_2-2);
      }

      .cls-3 {
        stroke: url(#New_Gradient_Swatch_2);
      }

      .cls-4 {
        stroke: url(#linear-gradient-2);
      }

      .cls-5 {
        stroke: url(#linear-gradient-3);
      }

      .cls-6 {
        stroke: url(#linear-gradient);
      }
    </style>
    <linearGradient id="New_Gradient_Swatch_2" data-name="New Gradient Swatch 2" x1="80.7" y1="281.8" x2="470.44" y2="281.8" gradientTransform="translate(8.49 -.05) rotate(.1) scale(.78 1) skewX(.05)" gradientUnits="userSpaceOnUse">
      <stop offset="0" stop-color="#5454a8"/>
      <stop offset=".28" stop-color="#6661b3"/>
      <stop offset=".73" stop-color="#7f71c2"/>
      <stop offset="1" stop-color="#8878c8"/>
    </linearGradient>
    <linearGradient id="linear-gradient" x1="0" y1="281.61" x2="79.55" y2="281.61" gradientUnits="userSpaceOnUse">
      <stop offset="0" stop-color="#8878c8"/>
      <stop offset=".27" stop-color="#7f71c2"/>
      <stop offset=".72" stop-color="#6661b3"/>
      <stop offset="1" stop-color="#5454a8"/>
    </linearGradient>
    <linearGradient id="New_Gradient_Swatch_2-2" data-name="New Gradient Swatch 2" x1="69.75" y1="160.69" x2="374.63" y2="160.69" gradientTransform="matrix(1,0,0,1,0,0)" xlink:href="#New_Gradient_Swatch_2"/>
    <linearGradient id="linear-gradient-2" y1="160.69" y2="160.69" xlink:href="#linear-gradient"/>
    <linearGradient id="New_Gradient_Swatch_2-3" data-name="New Gradient Swatch 2" x1="69.75" y1="39.77" x2="374.63" y2="39.77" gradientTransform="matrix(1,0,0,1,0,0)" xlink:href="#New_Gradient_Swatch_2"/>
    <linearGradient id="linear-gradient-3" y1="39.77" y2="39.77" xlink:href="#linear-gradient"/>
  </defs>
  <g id="Ebene_1" data-name="Ebene 1">
    <g>
      <path d="m424.94,296.29v-31.66h12.44c2.01,0,3.69.41,5.06,1.23s2.39,1.88,3.08,3.18c.69,1.3,1.03,2.66,1.03,4.1,0,1.74-.43,3.24-1.29,4.48s-2.01,2.1-3.46,2.55l-.04-1.08c2.02.5,3.58,1.47,4.66,2.91,1.08,1.44,1.63,3.12,1.63,5.04s-.37,3.48-1.11,4.86c-.74,1.38-1.82,2.45-3.23,3.22-1.42.77-3.13,1.15-5.13,1.15h-13.63Zm4.66-18.73h7.72c.85,0,1.62-.17,2.3-.52.68-.34,1.22-.84,1.63-1.5.4-.65.6-1.44.6-2.36,0-1.23-.41-2.24-1.23-3.03-.82-.79-1.92-1.19-3.3-1.19h-7.72v8.6Zm0,14.36h8.27c1.04,0,1.98-.2,2.8-.59.83-.4,1.48-.96,1.96-1.7.48-.74.71-1.62.71-2.65,0-.95-.21-1.81-.63-2.58-.42-.77-1.02-1.38-1.8-1.83s-1.7-.67-2.76-.67h-8.55v10.03Z"/>
      <path d="m463.66,296.95c-2.36,0-4.43-.52-6.21-1.55-1.78-1.03-3.17-2.48-4.16-4.33-.99-1.85-1.48-4-1.48-6.45,0-2.59.49-4.84,1.46-6.75s2.33-3.38,4.08-4.42c1.74-1.04,3.77-1.56,6.09-1.56s4.48.56,6.18,1.68,2.97,2.72,3.81,4.78,1.18,4.52,1,7.37h-4.59v-1.67c-.03-2.76-.55-4.79-1.57-6.11-1.02-1.32-2.57-1.98-4.65-1.98-2.3,0-4.03.73-5.19,2.18-1.16,1.45-1.74,3.55-1.74,6.29s.58,4.63,1.74,6.06c1.16,1.43,2.83,2.14,5.01,2.14,1.44,0,2.68-.33,3.73-.98s1.87-1.59,2.45-2.8l4.51,1.43c-.92,2.13-2.32,3.77-4.2,4.94-1.88,1.17-3.96,1.75-6.27,1.75Zm-8.46-11.23v-3.58h16.95v3.58h-16.95Z"/>
      <path d="m485.4,296.29l-8.62-23.74h4.64l6.31,17.98,6.31-17.98h4.64l-8.62,23.74h-4.66Z"/>
      <path d="m512.75,296.95c-2.36,0-4.43-.52-6.21-1.55-1.78-1.03-3.17-2.48-4.16-4.33-.99-1.85-1.48-4-1.48-6.45,0-2.59.49-4.84,1.46-6.75s2.33-3.38,4.08-4.42c1.74-1.04,3.77-1.56,6.09-1.56s4.48.56,6.18,1.68,2.97,2.72,3.81,4.78,1.18,4.52,1,7.37h-4.59v-1.67c-.03-2.76-.55-4.79-1.57-6.11-1.02-1.32-2.57-1.98-4.65-1.98-2.3,0-4.03.73-5.19,2.18-1.16,1.45-1.74,3.55-1.74,6.29s.58,4.63,1.74,6.06c1.16,1.43,2.83,2.14,5.01,2.14,1.44,0,2.68-.33,3.73-.98s1.87-1.59,2.45-2.8l4.51,1.43c-.92,2.13-2.32,3.77-4.2,4.94-1.88,1.17-3.96,1.75-6.27,1.75Zm-8.46-11.23v-3.58h16.95v3.58h-16.95Z"/>
      <path d="m529.2,268.65v-4.46h4.59v4.46h-4.59Zm0,27.64v-23.74h4.59v23.74h-4.59Z"/>
      <path d="m540.86,296.29v-32.32h4.59v32.32h-4.59Z"/>
      <path d="m552.52,268.65v-4.46h4.59v4.46h-4.59Zm0,27.64v-23.74h4.59v23.74h-4.59Z"/>
      <path d="m573.56,296.95c-2.21,0-4.12-.55-5.73-1.65-1.6-1.1-2.84-2.6-3.71-4.5-.87-1.9-1.31-4.03-1.31-6.41s.44-4.53,1.32-6.41c.88-1.88,2.13-3.37,3.75-4.46s3.54-1.64,5.77-1.64,4.13.55,5.66,1.64c1.53,1.09,2.69,2.58,3.47,4.47.78,1.89,1.18,4.02,1.18,6.4s-.4,4.51-1.19,6.4c-.79,1.89-1.96,3.39-3.5,4.5s-3.44,1.66-5.72,1.66Zm.35,10.55c-1.28,0-2.51-.2-3.7-.59-1.2-.4-2.28-.98-3.27-1.75-.98-.77-1.79-1.72-2.44-2.85l4.24-2.15c.51,1.01,1.25,1.75,2.2,2.22.95.47,1.96.7,3.01.7,1.3,0,2.42-.23,3.34-.69s1.62-1.15,2.1-2.08c.48-.92.71-2.07.69-3.43v-6.64h.55v-17.7h4.07v24.38c0,.63-.02,1.23-.07,1.8-.04.57-.12,1.14-.24,1.71-.34,1.6-.98,2.92-1.92,3.96-.95,1.04-2.15,1.82-3.61,2.33-1.46.51-3.11.77-4.96.77Zm.29-14.71c1.51,0,2.74-.36,3.69-1.08.95-.72,1.65-1.71,2.09-2.97.44-1.26.66-2.71.66-4.35s-.22-3.09-.67-4.35c-.45-1.26-1.14-2.24-2.07-2.95s-2.11-1.06-3.55-1.06c-1.52,0-2.78.37-3.76,1.12-.98.75-1.71,1.75-2.19,3.01-.48,1.26-.71,2.67-.71,4.22s.24,2.99.71,4.25c.48,1.27,1.19,2.28,2.15,3.02.96.75,2.17,1.12,3.64,1.12Z"/>
      <path d="m591.58,268.65v-4.46h4.59v4.46h-4.59Zm0,27.64v-23.74h4.59v23.74h-4.59Z"/>
      <path d="m603.03,296.29v-23.74h4.11v6.86h.55v16.88h-4.66Zm16.69,0v-11.67c0-.92-.08-1.87-.23-2.85-.15-.97-.45-1.88-.88-2.71-.43-.84-1.04-1.51-1.83-2.02-.78-.51-1.81-.77-3.07-.77-.82,0-1.6.14-2.33.41-.73.27-1.37.71-1.92,1.31-.55.6-.98,1.39-1.3,2.38s-.47,2.18-.47,3.58l-2.86-1.08c0-2.15.4-4.06,1.21-5.71.81-1.65,1.96-2.94,3.47-3.86,1.51-.92,3.33-1.39,5.47-1.39,1.64,0,3.02.26,4.13.79,1.11.53,2.02,1.22,2.71,2.08s1.23,1.79,1.59,2.8.62,2,.75,2.97c.13.97.2,1.82.2,2.55v13.19h-4.66Z"/>
      <path d="m640.19,296.95c-2.21,0-4.12-.55-5.73-1.65-1.6-1.1-2.84-2.6-3.71-4.5-.87-1.9-1.31-4.03-1.31-6.41s.44-4.53,1.32-6.41c.88-1.88,2.13-3.37,3.75-4.46s3.54-1.64,5.77-1.64,4.13.55,5.66,1.64c1.53,1.09,2.69,2.58,3.47,4.47.78,1.89,1.18,4.02,1.18,6.4s-.4,4.51-1.19,6.4c-.79,1.89-1.96,3.39-3.5,4.5s-3.44,1.66-5.72,1.66Zm.35,10.55c-1.28,0-2.51-.2-3.7-.59-1.2-.4-2.28-.98-3.27-1.75-.98-.77-1.79-1.72-2.44-2.85l4.24-2.15c.51,1.01,1.25,1.75,2.2,2.22.95.47,1.96.7,3.01.7,1.3,0,2.42-.23,3.34-.69s1.62-1.15,2.1-2.08c.48-.92.71-2.07.69-3.43v-6.64h.55v-17.7h4.07v24.38c0,.63-.02,1.23-.07,1.8-.04.57-.12,1.14-.24,1.71-.34,1.6-.98,2.92-1.92,3.96-.95,1.04-2.15,1.82-3.61,2.33-1.46.51-3.11.77-4.96.77Zm.29-14.71c1.51,0,2.74-.36,3.69-1.08.95-.72,1.65-1.71,2.09-2.97.44-1.26.66-2.71.66-4.35s-.22-3.09-.67-4.35c-.45-1.26-1.14-2.24-2.07-2.95s-2.11-1.06-3.55-1.06c-1.52,0-2.78.37-3.76,1.12-.98.75-1.71,1.75-2.19,3.01-.48,1.26-.71,2.67-.71,4.22s.24,2.99.71,4.25c.48,1.27,1.19,2.28,2.15,3.02.96.75,2.17,1.12,3.64,1.12Z"/>
    </g>
    <g>
      <path d="m424.94,175.78v-31.66h18.75v4.59h-14.16v8.93h11.52v4.62h-11.52v13.52h-4.59Z"/>
      <path d="m448.09,148.14v-4.46h4.59v4.46h-4.59Zm0,27.63v-23.74h4.59v23.74h-4.59Z"/>
      <path d="m459.54,175.78v-23.74h4.11v6.86h.55v16.88h-4.66Zm16.69,0v-11.67c0-.92-.08-1.87-.23-2.85-.15-.97-.45-1.88-.88-2.72-.43-.83-1.04-1.51-1.83-2.02-.78-.51-1.81-.77-3.07-.77-.82,0-1.6.13-2.33.41s-1.37.71-1.92,1.31c-.55.6-.98,1.39-1.3,2.37-.32.98-.47,2.18-.47,3.58l-2.86-1.08c0-2.15.4-4.06,1.21-5.71.81-1.65,1.96-2.93,3.47-3.86,1.51-.92,3.33-1.38,5.47-1.38,1.64,0,3.02.26,4.13.79,1.11.53,2.02,1.22,2.71,2.08s1.23,1.79,1.59,2.8.62,2,.75,2.97c.13.97.2,1.82.2,2.55v13.19h-4.66Z"/>
      <path d="m493.89,176.44c-1.76,0-3.23-.33-4.42-.98s-2.08-1.52-2.69-2.59c-.61-1.08-.91-2.26-.91-3.55,0-1.2.21-2.26.64-3.17.42-.91,1.06-1.68,1.89-2.32s1.86-1.15,3.08-1.55c1.05-.31,2.25-.58,3.58-.81,1.33-.23,2.74-.45,4.21-.66,1.47-.21,2.93-.41,4.39-.62l-1.67.92c.03-1.86-.36-3.24-1.18-4.14-.81-.9-2.21-1.35-4.19-1.35-1.25,0-2.39.29-3.43.87-1.04.58-1.77,1.54-2.18,2.87l-4.29-1.32c.59-2.04,1.7-3.66,3.35-4.86,1.65-1.2,3.84-1.8,6.58-1.8,2.12,0,3.98.36,5.55,1.09,1.58.72,2.73,1.87,3.46,3.44.38.78.62,1.6.7,2.46.09.87.13,1.8.13,2.79v14.62h-4.07v-5.43l.79.7c-.98,1.82-2.23,3.17-3.75,4.06-1.52.89-3.38,1.33-5.6,1.33Zm.81-3.76c1.3,0,2.43-.23,3.36-.69.94-.46,1.69-1.05,2.26-1.77.57-.72.95-1.46,1.12-2.24.25-.7.39-1.49.43-2.37.04-.88.05-1.58.05-2.11l1.5.55c-1.45.22-2.77.42-3.96.59-1.19.18-2.26.35-3.22.52-.96.17-1.81.37-2.56.6-.63.22-1.19.48-1.68.79s-.88.68-1.17,1.12c-.29.44-.43.97-.43,1.6s.15,1.18.46,1.71c.31.52.78.93,1.41,1.24.63.31,1.44.46,2.42.46Z"/>
      <path d="m512.92,175.78v-23.74h4.11v6.86h.55v16.88h-4.66Zm16.69,0v-11.67c0-.92-.08-1.87-.23-2.85-.15-.97-.45-1.88-.88-2.72-.43-.83-1.04-1.51-1.83-2.02-.78-.51-1.81-.77-3.07-.77-.82,0-1.6.13-2.33.41s-1.37.71-1.92,1.31c-.55.6-.98,1.39-1.3,2.37-.32.98-.47,2.18-.47,3.58l-2.86-1.08c0-2.15.4-4.06,1.21-5.71.81-1.65,1.96-2.93,3.47-3.86,1.51-.92,3.33-1.38,5.47-1.38,1.64,0,3.02.26,4.13.79,1.11.53,2.02,1.22,2.71,2.08s1.23,1.79,1.59,2.8.62,2,.75,2.97c.13.97.2,1.82.2,2.55v13.19h-4.66Z"/>
      <path d="m550.8,176.44c-2.43,0-4.5-.54-6.2-1.63s-3-2.57-3.9-4.46-1.36-4.04-1.37-6.44c.01-2.45.48-4.61,1.41-6.5.92-1.88,2.24-3.36,3.96-4.43,1.71-1.07,3.77-1.6,6.18-1.6,2.59,0,4.81.65,6.65,1.93,1.84,1.29,3.05,3.06,3.64,5.3l-4.57,1.32c-.46-1.33-1.2-2.37-2.23-3.11-1.03-.74-2.22-1.11-3.55-1.11-1.51,0-2.75.36-3.72,1.07-.97.71-1.69,1.68-2.15,2.91-.47,1.23-.71,2.64-.73,4.22.01,2.45.58,4.43,1.68,5.94s2.74,2.26,4.91,2.26c1.48,0,2.68-.34,3.59-1.02.92-.68,1.62-1.66,2.1-2.94l4.66,1.1c-.78,2.32-2.06,4.09-3.85,5.33-1.79,1.24-3.96,1.86-6.51,1.86Z"/>
      <path d="m566.37,148.14v-4.46h4.59v4.46h-4.59Zm0,27.63v-23.74h4.59v23.74h-4.59Z"/>
      <path d="m588.51,176.44c-2.36,0-4.43-.52-6.21-1.55-1.78-1.03-3.17-2.48-4.16-4.33-.99-1.85-1.48-4-1.48-6.45,0-2.59.49-4.84,1.46-6.75.97-1.9,2.33-3.38,4.08-4.42s3.77-1.56,6.09-1.56,4.48.56,6.18,1.68,2.97,2.71,3.81,4.78,1.18,4.52,1,7.37h-4.59v-1.67c-.03-2.75-.55-4.79-1.57-6.11-1.02-1.32-2.57-1.98-4.65-1.98-2.3,0-4.03.73-5.19,2.18-1.16,1.45-1.74,3.55-1.74,6.29s.58,4.63,1.74,6.06c1.16,1.43,2.83,2.14,5.01,2.14,1.44,0,2.68-.33,3.73-.98,1.05-.65,1.87-1.59,2.45-2.8l4.51,1.43c-.92,2.12-2.32,3.77-4.2,4.94-1.88,1.17-3.96,1.75-6.27,1.75Zm-8.46-11.23v-3.58h16.95v3.58h-16.95Z"/>
      <path d="m615.38,176.44c-2.36,0-4.43-.52-6.21-1.55-1.78-1.03-3.17-2.48-4.16-4.33-.99-1.85-1.48-4-1.48-6.45,0-2.59.49-4.84,1.46-6.75.97-1.9,2.33-3.38,4.08-4.42s3.77-1.56,6.09-1.56,4.48.56,6.18,1.68,2.97,2.71,3.81,4.78,1.18,4.52,1,7.37h-4.59v-1.67c-.03-2.75-.55-4.79-1.57-6.11-1.02-1.32-2.57-1.98-4.65-1.98-2.3,0-4.03.73-5.19,2.18-1.16,1.45-1.74,3.55-1.74,6.29s.58,4.63,1.74,6.06c1.16,1.43,2.83,2.14,5.01,2.14,1.44,0,2.68-.33,3.73-.98,1.05-.65,1.87-1.59,2.45-2.8l4.51,1.43c-.92,2.12-2.32,3.77-4.2,4.94-1.88,1.17-3.96,1.75-6.27,1.75Zm-8.46-11.23v-3.58h16.95v3.58h-16.95Z"/>
      <path d="m631.83,175.78v-32.32h4.59v32.32h-4.59Z"/>
    </g>
    <g>
      <path d="m425.38,57.26v-31.66h4.59v31.66h-4.59Z"/>
      <path d="m444.48,57.26v-27.33h-10.53v-4.33h25.66v4.33h-10.53v27.33h-4.59Z"/>
    </g>
    <line class="cls-3" x1="74.75" y1="282.11" x2="369.63" y2="282.11"/>
    <circle class="cls-6" cx="39.77" cy="281.61" r="34.78"/>
    <path d="m40.52,297.97c-1.44,0-2.8-.28-4.08-.84-1.28-.56-2.39-1.35-3.33-2.38-.94-1.03-1.62-2.24-2.03-3.64l4.66-1.26c.33,1.15.94,2.03,1.83,2.65.89.62,1.86.92,2.93.91.95,0,1.79-.22,2.54-.66.75-.44,1.33-1.04,1.76-1.79.43-.75.64-1.6.64-2.53,0-1.42-.46-2.62-1.38-3.58-.92-.96-2.11-1.44-3.56-1.44-.44,0-.87.06-1.29.18-.42.12-.82.29-1.21.5l-2.2-3.8,9.67-8.27.42,1.16h-13.69v-4.54h17.65v4.56l-7.77,7.47-.04-1.42c1.75.12,3.23.61,4.47,1.46,1.23.85,2.18,1.95,2.84,3.3.66,1.35.99,2.82.99,4.42,0,1.81-.44,3.44-1.33,4.88-.89,1.44-2.07,2.58-3.56,3.41-1.49.83-3.13,1.25-4.93,1.25Z"/>
    <line class="cls-2" x1="74.75" y1="160.69" x2="369.63" y2="160.69"/>
    <circle class="cls-4" cx="39.77" cy="160.69" r="34.78"/>
    <path d="m29.87,173.83v-4.2l12.31-10.97c.96-.85,1.63-1.66,2-2.42s.56-1.49.56-2.2c0-.96-.21-1.81-.62-2.57-.41-.75-.98-1.35-1.71-1.79-.73-.44-1.56-.66-2.51-.66-1,0-1.88.23-2.65.69-.77.46-1.36,1.07-1.79,1.83-.43.76-.63,1.58-.6,2.46h-4.96c0-1.92.43-3.59,1.29-5.02s2.04-2.53,3.56-3.32c1.51-.79,3.26-1.18,5.25-1.18,1.84,0,3.49.41,4.96,1.23,1.47.82,2.62,1.95,3.46,3.4.84,1.45,1.26,3.11,1.26,4.99,0,1.37-.19,2.53-.56,3.46-.37.93-.93,1.79-1.67,2.58-.74.79-1.66,1.66-2.75,2.62l-8.73,7.73-.44-1.2h14.15v4.54h-19.81Z"/>
    <line class="cls-1" x1="74.75" y1="39.77" x2="369.63" y2="39.77"/>
    <circle class="cls-5" cx="39.77" cy="39.77" r="34.78"/>
    <path d="m39.67,52.95v-23.52l-5.4,3.3v-5.32l5.4-3.24h4.92v28.78h-4.92Z"/>
  </g>
</svg>