<svg viewBox="0 0 576.94 390.17" xmlns="http://www.w3.org/2000/svg"><rect fill="#397b7e" height="22.34" rx="11.17" transform="matrix(0 -1 1 0 -330.79 353.13)" width="22.34" y="330.79"/><rect fill="#1b464f" height="22.34" rx="11.17" transform="matrix(0 -1 1 0 -63.04 689.87)" width="22.34" x="302.24" y="365.29"/><rect fill="#8b7fd3" height="22.34" rx="11.17" transform="matrix(0 -1 1 0 -27.98 654.81)" width="22.34" x="302.24" y="330.22"/><rect fill="#c2b8ed" height="22.34" rx="11.17" transform="matrix(0 -1 1 0 -365.85 388.19)" width="22.34" y="365.85"/><path d="m38.97 350.01v-13.57h1.78l4.92 10.21 4.89-10.21h1.8v13.56h-1.87v-9.28l-4.38 9.29h-.9l-4.39-9.29v9.29h-1.86z"/><path d="m58.11 350.3c-.75 0-1.39-.14-1.9-.42s-.89-.65-1.16-1.11c-.26-.46-.39-.97-.39-1.52 0-.51.09-.97.27-1.36s.45-.72.81-.99.8-.5 1.32-.66c.45-.13.96-.25 1.54-.35.57-.1 1.17-.19 1.8-.28s1.26-.18 1.88-.26l-.72.4c.01-.8-.16-1.39-.5-1.78-.35-.39-.95-.58-1.8-.58-.53 0-1.02.12-1.47.37s-.76.66-.93 1.23l-1.84-.57c.25-.87.73-1.57 1.44-2.08s1.65-.77 2.82-.77c.91 0 1.7.16 2.38.47s1.17.8 1.49 1.47c.16.33.26.69.3 1.06s.06.77.06 1.2v6.27h-1.74v-2.33l.34.3c-.42.78-.96 1.36-1.61 1.74s-1.45.57-2.4.57zm.35-1.61c.56 0 1.04-.1 1.44-.3s.73-.45.97-.76.4-.63.48-.96c.11-.3.17-.64.18-1.02s.02-.68.02-.91l.64.24c-.62.09-1.19.18-1.7.25-.51.08-.97.15-1.38.22s-.78.16-1.1.26c-.27.09-.51.21-.72.34s-.38.29-.5.48-.18.42-.18.69.07.51.2.73.33.4.6.53.62.2 1.04.2z"/><path d="m69.18 350.3c-.75 0-1.38-.14-1.89-.42s-.89-.65-1.15-1.11-.39-.97-.39-1.52c0-.51.09-.97.27-1.36s.45-.72.81-.99.8-.5 1.32-.66c.45-.13.96-.25 1.54-.35.57-.1 1.17-.19 1.8-.28s1.26-.18 1.88-.26l-.72.4c.01-.8-.16-1.39-.5-1.78-.35-.39-.95-.58-1.8-.58-.53 0-1.02.12-1.47.37s-.76.66-.93 1.23l-1.84-.57c.25-.87.73-1.57 1.44-2.08s1.65-.77 2.82-.77c.91 0 1.71.16 2.38.47.68.31 1.17.8 1.48 1.47.16.33.26.69.3 1.06s.06.77.06 1.2v6.27h-1.74v-2.33l.34.3c-.42.78-.96 1.36-1.61 1.74s-1.45.57-2.4.57zm.35-1.61c.56 0 1.04-.1 1.44-.3s.73-.45.97-.76c.25-.31.41-.63.48-.96.11-.3.17-.64.18-1.02.02-.38.02-.68.02-.91l.64.24c-.62.09-1.19.18-1.7.25-.51.08-.97.15-1.38.22s-.78.16-1.1.26c-.27.09-.51.21-.72.34s-.38.29-.5.48-.18.42-.18.69.07.51.2.73.33.4.6.53.62.2 1.04.2z"/><path d="m76.21 341.42v-1.58h6.96v1.58zm6.96 8.6c-.64.13-1.27.18-1.88.16-.62-.02-1.17-.14-1.65-.36s-.85-.57-1.09-1.04c-.22-.42-.34-.85-.35-1.29s-.02-.93-.02-1.48v-9h1.98v8.91c0 .41 0 .76.01 1.07 0 .3.07.56.19.76.23.39.59.61 1.08.66s1.07.03 1.74-.06v1.67z"/><path d="m85.32 350.01v-10.18h1.75v2.47l-.25-.32c.13-.33.29-.63.49-.9s.43-.5.7-.67c.26-.19.54-.33.86-.44.32-.1.64-.17.98-.19.33-.02.65 0 .96.05v1.85c-.33-.09-.7-.11-1.11-.08-.41.04-.78.17-1.12.39-.32.21-.57.46-.76.75-.18.3-.32.62-.4.99s-.12.74-.12 1.15v5.14h-1.99z"/><path d="m97.22 350.3c-1.01 0-1.9-.22-2.66-.67s-1.36-1.06-1.78-1.86-.64-1.72-.64-2.77c0-1.11.21-2.08.63-2.89.42-.82 1-1.45 1.75-1.89.75-.45 1.62-.67 2.61-.67s1.92.24 2.65.72 1.27 1.16 1.64 2.05c.36.89.5 1.94.43 3.16h-1.97v-.72c-.01-1.18-.24-2.05-.67-2.62-.44-.57-1.1-.85-1.99-.85-.99 0-1.73.31-2.22.93s-.74 1.52-.74 2.7.25 1.98.74 2.6 1.21.92 2.15.92c.62 0 1.15-.14 1.6-.42s.8-.68 1.05-1.2l1.93.61c-.4.91-1 1.62-1.8 2.12s-1.7.75-2.69.75zm-3.63-4.82v-1.54h7.27v1.54z"/><path d="m108.32 350.3c-.95 0-1.77-.24-2.46-.71s-1.22-1.11-1.59-1.93-.56-1.73-.56-2.75.19-1.94.57-2.75.91-1.44 1.61-1.91 1.52-.7 2.47-.7 1.77.23 2.43.7 1.15 1.11 1.49 1.92.5 1.73.5 2.74-.17 1.93-.51 2.74-.84 1.45-1.5 1.93c-.66.47-1.48.71-2.45.71zm.15 4.52c-.55 0-1.08-.08-1.59-.25s-.98-.42-1.4-.75-.77-.74-1.05-1.22l1.82-.92c.22.43.53.75.94.95s.84.3 1.29.3c.56 0 1.04-.1 1.43-.3.4-.2.7-.5.9-.89.21-.4.3-.89.3-1.47v-2.85h.24v-7.59h1.74v10.45c0 .27 0 .53-.03.77-.02.25-.05.49-.1.74-.14.69-.42 1.25-.82 1.7-.41.45-.92.78-1.55 1-.62.22-1.33.33-2.12.33zm.12-6.31c.65 0 1.17-.15 1.58-.46s.71-.73.9-1.27.28-1.16.28-1.87-.1-1.33-.29-1.87-.49-.96-.89-1.26-.91-.45-1.52-.45c-.65 0-1.19.16-1.61.48s-.73.75-.94 1.29-.31 1.14-.31 1.81.1 1.28.31 1.82.51.98.92 1.3.93.48 1.56.48z"/><path d="m120.57 350.3c-1.01 0-1.9-.22-2.66-.67s-1.36-1.06-1.78-1.86-.64-1.72-.64-2.77c0-1.11.21-2.08.63-2.89.42-.82 1-1.45 1.75-1.89.75-.45 1.62-.67 2.61-.67s1.92.24 2.65.72 1.27 1.16 1.64 2.05c.36.89.5 1.94.43 3.16h-1.97v-.72c-.01-1.18-.24-2.05-.67-2.62-.44-.57-1.1-.85-1.99-.85-.99 0-1.73.31-2.22.93s-.74 1.52-.74 2.7.25 1.98.74 2.6 1.21.92 2.15.92c.62 0 1.15-.14 1.6-.42s.8-.68 1.05-1.2l1.93.61c-.4.91-1 1.62-1.8 2.12s-1.7.75-2.69.75zm-3.63-4.82v-1.54h7.27v1.54z"/><path d="m127.68 350.01v-13.86h1.97v13.86z"/><path d="m137.22 350.3c-1.01 0-1.9-.22-2.66-.67s-1.36-1.06-1.78-1.86-.64-1.72-.64-2.77c0-1.11.21-2.08.63-2.89.42-.82 1-1.45 1.75-1.89s1.62-.67 2.61-.67 1.92.24 2.65.72 1.27 1.16 1.64 2.05c.36.89.5 1.94.43 3.16h-1.97v-.72c-.01-1.18-.24-2.05-.67-2.62-.44-.57-1.1-.85-1.99-.85-.99 0-1.73.31-2.22.93-.5.62-.75 1.52-.75 2.7s.25 1.98.75 2.6c.5.61 1.21.92 2.15.92.62 0 1.15-.14 1.6-.42s.8-.68 1.05-1.2l1.93.61c-.4.91-1 1.62-1.8 2.12s-1.7.75-2.69.75zm-3.63-4.82v-1.54h7.27v1.54z"/><path d="m144.22 350.01v-10.18h1.76v2.94h.24v7.24zm7.15 0v-5c0-.4-.03-.8-.1-1.22s-.19-.81-.38-1.16c-.19-.36-.45-.65-.78-.87-.34-.22-.77-.33-1.31-.33-.35 0-.69.06-1 .17-.31.12-.59.3-.82.56s-.42.6-.56 1.02c-.13.42-.2.93-.2 1.54l-1.23-.46c0-.92.17-1.74.52-2.45s.84-1.26 1.49-1.65c.65-.4 1.43-.59 2.35-.59.7 0 1.29.11 1.77.34s.87.52 1.16.89c.3.37.53.77.68 1.2.16.43.26.86.32 1.27s.08.78.08 1.09v5.66h-2z"/><path d="m164.18 350.29c-.7 0-1.29-.11-1.77-.34s-.87-.52-1.16-.89c-.3-.37-.53-.77-.68-1.2s-.26-.86-.32-1.27c-.06-.42-.08-.78-.08-1.09v-5.66h2v5c0 .4.03.8.1 1.22s.19.81.38 1.16.45.65.78.87.77.33 1.32.33c.35 0 .68-.06 1-.17.31-.12.59-.3.82-.56.24-.26.42-.6.56-1.02.13-.42.2-.93.2-1.54l1.23.46c0 .92-.17 1.74-.52 2.45s-.84 1.26-1.49 1.65c-.65.4-1.43.59-2.35.59zm3.37-.27v-2.94h-.24v-7.24h1.99v10.18z"/><path d="m172.29 338.16v-1.91h1.97v1.91zm0 11.85v-10.18h1.97v10.18z"/><path d="m176.2 341.42v-1.58h6.96v1.58zm6.96 8.6c-.64.13-1.27.18-1.88.16s-1.17-.14-1.65-.36-.85-.57-1.09-1.04c-.22-.42-.34-.85-.35-1.29s-.02-.93-.02-1.48v-9h1.98v8.91c0 .41 0 .76.01 1.07 0 .3.07.56.19.76.23.39.59.61 1.08.66s1.07.03 1.74-.06v1.67z"/><path d="m185.31 350.01v-13.57h1.98v6.25h-.23v7.32zm4.79.28c-.97 0-1.79-.24-2.45-.71s-1.16-1.12-1.5-1.93-.51-1.72-.51-2.74.17-1.93.5-2.74.83-1.45 1.49-1.92 1.47-.7 2.43-.7 1.78.23 2.47.7 1.23 1.11 1.61 1.91c.38.81.57 1.72.57 2.75s-.19 1.93-.56 2.75c-.37.81-.91 1.46-1.59 1.93-.69.47-1.51.71-2.46.71zm-.27-1.78c.63 0 1.15-.16 1.56-.48s.72-.75.92-1.3.31-1.15.31-1.82-.1-1.27-.31-1.81-.52-.97-.94-1.29-.96-.48-1.61-.48c-.62 0-1.12.15-1.52.45s-.69.72-.89 1.26c-.19.54-.29 1.16-.29 1.87s.09 1.33.28 1.87.49.96.9 1.27.94.46 1.58.46z"/><path d="m197.08 350.01v-10.18h1.75v2.47l-.25-.32c.12-.33.29-.63.49-.9s.43-.5.7-.67c.26-.19.54-.33.86-.44.32-.1.64-.17.98-.19.33-.02.65 0 .96.05v1.85c-.33-.09-.7-.11-1.11-.08-.41.04-.78.17-1.12.39-.32.21-.57.46-.76.75-.19.3-.32.62-.4.99-.08.36-.12.74-.12 1.15v5.14h-1.99z"/><path d="m208.99 350.3c-1.01 0-1.9-.22-2.66-.67s-1.36-1.06-1.78-1.86c-.42-.79-.64-1.72-.64-2.77 0-1.11.21-2.08.63-2.89.42-.82 1-1.45 1.75-1.89.75-.45 1.62-.67 2.61-.67s1.92.24 2.65.72 1.27 1.16 1.63 2.05.5 1.94.43 3.16h-1.97v-.72c-.01-1.18-.24-2.05-.67-2.62-.44-.57-1.1-.85-1.99-.85-.99 0-1.73.31-2.22.93-.5.62-.75 1.52-.75 2.7s.25 1.98.75 2.6c.5.61 1.21.92 2.15.92.62 0 1.15-.14 1.6-.42s.8-.68 1.05-1.2l1.93.61c-.4.91-1 1.62-1.8 2.12s-1.7.75-2.69.75zm-3.63-4.82v-1.54h7.27v1.54z"/><path d="m216.1 338.16v-1.91h1.97v1.91zm0 11.85v-10.18h1.97v10.18z"/><path d="m225.17 350.3c-.95 0-1.77-.24-2.46-.71s-1.22-1.11-1.59-1.93c-.37-.81-.56-1.73-.56-2.75s.19-1.94.57-2.75.91-1.44 1.61-1.91c.69-.47 1.52-.7 2.47-.7s1.77.23 2.43.7 1.15 1.11 1.49 1.92.5 1.73.5 2.74-.17 1.93-.51 2.74-.84 1.45-1.5 1.93c-.66.47-1.48.71-2.45.71zm.27-1.78c.65 0 1.17-.15 1.58-.46s.71-.73.9-1.27.28-1.16.28-1.87-.1-1.33-.29-1.87-.49-.96-.89-1.26-.91-.45-1.52-.45c-.65 0-1.19.16-1.61.48s-.73.75-.94 1.29-.31 1.14-.31 1.81.1 1.28.31 1.82c.2.54.51.98.92 1.3s.93.48 1.56.48zm2.76 1.5v-7.32h-.23v-6.25h1.98v13.57z"/><path d="m237.43 350.3c-1.01 0-1.9-.22-2.66-.67s-1.36-1.06-1.78-1.86c-.42-.79-.64-1.72-.64-2.77 0-1.11.21-2.08.63-2.89.42-.82 1-1.45 1.75-1.89.75-.45 1.62-.67 2.61-.67s1.92.24 2.65.72 1.27 1.16 1.63 2.05.5 1.94.43 3.16h-1.97v-.72c-.01-1.18-.24-2.05-.67-2.62-.44-.57-1.1-.85-1.99-.85-.99 0-1.73.31-2.22.93-.5.62-.75 1.52-.75 2.7s.25 1.98.75 2.6c.5.61 1.21.92 2.15.92.62 0 1.15-.14 1.6-.42s.8-.68 1.05-1.2l1.93.61c-.4.91-1 1.62-1.8 2.12s-1.7.75-2.69.75zm-3.63-4.82v-1.54h7.27v1.54z"/><path d="m244.42 350.01v-10.18h1.76v2.94h.24v7.24zm7.15 0v-5c0-.4-.03-.8-.1-1.22s-.19-.81-.38-1.16c-.19-.36-.45-.65-.78-.87-.34-.22-.77-.33-1.31-.33-.35 0-.69.06-1 .17-.31.12-.59.3-.83.56s-.42.6-.56 1.02c-.13.42-.2.93-.2 1.54l-1.23-.46c0-.92.17-1.74.52-2.45s.84-1.26 1.49-1.65c.65-.4 1.43-.59 2.35-.59.7 0 1.29.11 1.77.34s.87.52 1.16.89c.3.37.53.77.68 1.2s.26.86.32 1.27.08.78.08 1.09v5.66h-2z"/><path d="m38.97 385.36v-13.57h1.78l4.92 10.21 4.89-10.21h1.8v13.56h-1.87v-9.28l-4.38 9.29h-.9l-4.39-9.29v9.29h-1.86z"/><path d="m58.11 385.64c-.75 0-1.39-.14-1.9-.42s-.89-.65-1.16-1.11c-.26-.46-.39-.97-.39-1.52 0-.51.09-.97.27-1.36s.45-.72.81-.99.8-.5 1.32-.66c.45-.13.96-.25 1.54-.35.57-.1 1.17-.19 1.8-.28s1.26-.18 1.88-.26l-.72.4c.01-.8-.16-1.39-.5-1.78-.35-.39-.95-.58-1.8-.58-.53 0-1.02.12-1.47.37s-.76.66-.93 1.23l-1.84-.57c.25-.87.73-1.57 1.44-2.08s1.65-.77 2.82-.77c.91 0 1.7.16 2.38.47s1.17.8 1.49 1.47c.16.33.26.69.3 1.06s.06.77.06 1.2v6.27h-1.74v-2.33l.34.3c-.42.78-.96 1.36-1.61 1.74s-1.45.57-2.4.57zm.35-1.61c.56 0 1.04-.1 1.44-.3s.73-.45.97-.76.4-.63.48-.96c.11-.3.17-.64.18-1.02s.02-.68.02-.91l.64.24c-.62.09-1.19.18-1.7.25-.51.08-.97.15-1.38.22s-.78.16-1.1.26c-.27.09-.51.21-.72.34s-.38.29-.5.48-.18.42-.18.69.07.51.2.73.33.4.6.53.62.2 1.04.2z"/><path d="m69.18 385.64c-.75 0-1.38-.14-1.89-.42s-.89-.65-1.15-1.11-.39-.97-.39-1.52c0-.51.09-.97.27-1.36s.45-.72.81-.99.8-.5 1.32-.66c.45-.13.96-.25 1.54-.35.57-.1 1.17-.19 1.8-.28s1.26-.18 1.88-.26l-.72.4c.01-.8-.16-1.39-.5-1.78-.35-.39-.95-.58-1.8-.58-.53 0-1.02.12-1.47.37s-.76.66-.93 1.23l-1.84-.57c.25-.87.73-1.57 1.44-2.08s1.65-.77 2.82-.77c.91 0 1.71.16 2.38.47.68.31 1.17.8 1.48 1.47.16.33.26.69.3 1.06s.06.77.06 1.2v6.27h-1.74v-2.33l.34.3c-.42.78-.96 1.36-1.61 1.74s-1.45.57-2.4.57zm.35-1.61c.56 0 1.04-.1 1.44-.3s.73-.45.97-.76c.25-.31.41-.63.48-.96.11-.3.17-.64.18-1.02.02-.38.02-.68.02-.91l.64.24c-.62.09-1.19.18-1.7.25-.51.08-.97.15-1.38.22s-.78.16-1.1.26c-.27.09-.51.21-.72.34s-.38.29-.5.48-.18.42-.18.69.07.51.2.73.33.4.6.53.62.2 1.04.2z"/><path d="m76.21 376.76v-1.58h6.96v1.58zm6.96 8.6c-.64.13-1.27.18-1.88.16-.62-.02-1.17-.14-1.65-.36s-.85-.57-1.09-1.04c-.22-.42-.34-.85-.35-1.29s-.02-.93-.02-1.48v-9h1.98v8.91c0 .41 0 .76.01 1.07 0 .3.07.56.19.76.23.39.59.61 1.08.66s1.07.03 1.74-.06v1.67z"/><path d="m85.32 385.36v-10.18h1.75v2.47l-.25-.32c.13-.33.29-.63.49-.9s.43-.5.7-.67c.26-.19.54-.33.86-.44.32-.1.64-.17.98-.19.33-.02.65 0 .96.05v1.85c-.33-.09-.7-.11-1.11-.08-.41.04-.78.17-1.12.39-.32.21-.57.46-.76.75-.18.3-.32.62-.4.99s-.12.74-.12 1.15v5.14h-1.99z"/><path d="m97.22 385.64c-1.01 0-1.9-.22-2.66-.67s-1.36-1.06-1.78-1.86-.64-1.72-.64-2.77c0-1.11.21-2.08.63-2.89.42-.82 1-1.45 1.75-1.89.75-.45 1.62-.67 2.61-.67s1.92.24 2.65.72 1.27 1.16 1.64 2.05c.36.89.5 1.94.43 3.16h-1.97v-.72c-.01-1.18-.24-2.05-.67-2.62-.44-.57-1.1-.85-1.99-.85-.99 0-1.73.31-2.22.93s-.74 1.52-.74 2.7.25 1.98.74 2.6 1.21.92 2.15.92c.62 0 1.15-.14 1.6-.42s.8-.68 1.05-1.2l1.93.61c-.4.91-1 1.62-1.8 2.12s-1.7.75-2.69.75zm-3.63-4.82v-1.54h7.27v1.54z"/><path d="m108.32 385.64c-.95 0-1.77-.24-2.46-.71s-1.22-1.11-1.59-1.93-.56-1.73-.56-2.75.19-1.94.57-2.75.91-1.44 1.61-1.91 1.52-.7 2.47-.7 1.77.23 2.43.7 1.15 1.11 1.49 1.92.5 1.73.5 2.74-.17 1.93-.51 2.74-.84 1.45-1.5 1.93c-.66.47-1.48.71-2.45.71zm.15 4.52c-.55 0-1.08-.08-1.59-.25s-.98-.42-1.4-.75-.77-.74-1.05-1.22l1.82-.92c.22.43.53.75.94.95s.84.3 1.29.3c.56 0 1.04-.1 1.43-.3.4-.2.7-.5.9-.89.21-.4.3-.89.3-1.47v-2.85h.24v-7.59h1.74v10.45c0 .27 0 .53-.03.77-.02.25-.05.49-.1.74-.14.69-.42 1.25-.82 1.7-.41.45-.92.78-1.55 1-.62.22-1.33.33-2.12.33zm.12-6.31c.65 0 1.17-.15 1.58-.46s.71-.73.9-1.27.28-1.16.28-1.87-.1-1.33-.29-1.87-.49-.96-.89-1.26-.91-.45-1.52-.45c-.65 0-1.19.16-1.61.48s-.73.75-.94 1.29-.31 1.14-.31 1.81.1 1.28.31 1.82.51.98.92 1.3.93.48 1.56.48z"/><path d="m120.57 385.64c-1.01 0-1.9-.22-2.66-.67s-1.36-1.06-1.78-1.86-.64-1.72-.64-2.77c0-1.11.21-2.08.63-2.89.42-.82 1-1.45 1.75-1.89.75-.45 1.62-.67 2.61-.67s1.92.24 2.65.72 1.27 1.16 1.64 2.05c.36.89.5 1.94.43 3.16h-1.97v-.72c-.01-1.18-.24-2.05-.67-2.62-.44-.57-1.1-.85-1.99-.85-.99 0-1.73.31-2.22.93s-.74 1.52-.74 2.7.25 1.98.74 2.6 1.21.92 2.15.92c.62 0 1.15-.14 1.6-.42s.8-.68 1.05-1.2l1.93.61c-.4.91-1 1.62-1.8 2.12s-1.7.75-2.69.75zm-3.63-4.82v-1.54h7.27v1.54z"/><path d="m127.68 385.36v-13.86h1.97v13.86z"/><path d="m137.22 385.64c-1.01 0-1.9-.22-2.66-.67s-1.36-1.06-1.78-1.86-.64-1.72-.64-2.77c0-1.11.21-2.08.63-2.89.42-.82 1-1.45 1.75-1.89s1.62-.67 2.61-.67 1.92.24 2.65.72 1.27 1.16 1.64 2.05c.36.89.5 1.94.43 3.16h-1.97v-.72c-.01-1.18-.24-2.05-.67-2.62-.44-.57-1.1-.85-1.99-.85-.99 0-1.73.31-2.22.93-.5.62-.75 1.52-.75 2.7s.25 1.98.75 2.6c.5.61 1.21.92 2.15.92.62 0 1.15-.14 1.6-.42s.8-.68 1.05-1.2l1.93.61c-.4.91-1 1.62-1.8 2.12s-1.7.75-2.69.75zm-3.63-4.82v-1.54h7.27v1.54z"/><path d="m144.22 385.36v-10.18h1.76v2.94h.24v7.24zm7.15 0v-5c0-.4-.03-.8-.1-1.22s-.19-.81-.38-1.16c-.19-.36-.45-.65-.78-.87-.34-.22-.77-.33-1.31-.33-.35 0-.69.06-1 .17-.31.12-.59.3-.82.56s-.42.6-.56 1.02c-.13.42-.2.93-.2 1.54l-1.23-.46c0-.92.17-1.74.52-2.45s.84-1.26 1.49-1.65c.65-.4 1.43-.59 2.35-.59.7 0 1.29.11 1.77.34s.87.52 1.16.89c.3.37.53.77.68 1.2.16.43.26.86.32 1.27s.08.78.08 1.09v5.66h-2z"/><path d="m160.34 385.36v-13.57h1.76v7.32h.24v6.25zm7.15 0v-5c0-.4-.03-.8-.1-1.22s-.19-.81-.38-1.16c-.19-.36-.45-.65-.78-.87-.34-.22-.77-.33-1.31-.33-.35 0-.69.06-1 .17-.31.12-.59.3-.83.56s-.42.6-.56 1.02c-.13.42-.2.93-.2 1.54l-1.23-.46c0-.92.17-1.74.52-2.45s.84-1.26 1.49-1.65c.65-.4 1.43-.59 2.35-.59.7 0 1.29.11 1.77.34s.87.52 1.16.89c.3.37.53.77.68 1.2s.26.86.32 1.27.08.78.08 1.09v5.66h-2z"/><path d="m175.11 385.64c-.75 0-1.39-.14-1.89-.42s-.89-.65-1.15-1.11-.39-.97-.39-1.52c0-.51.09-.97.27-1.36s.45-.72.81-.99.8-.5 1.32-.66c.45-.13.96-.25 1.54-.35.57-.1 1.17-.19 1.8-.28s1.26-.18 1.88-.26l-.72.4c.01-.8-.16-1.39-.5-1.78-.35-.39-.95-.58-1.8-.58-.53 0-1.02.12-1.47.37s-.76.66-.93 1.23l-1.84-.57c.25-.87.73-1.57 1.44-2.08s1.65-.77 2.82-.77c.91 0 1.71.16 2.38.47s1.17.8 1.48 1.47c.16.33.26.69.3 1.06s.06.77.06 1.2v6.27h-1.74v-2.33l.34.3c-.42.78-.96 1.36-1.61 1.74s-1.45.57-2.4.57zm.35-1.61c.56 0 1.04-.1 1.44-.3s.73-.45.97-.76.41-.63.48-.96c.11-.3.17-.64.18-1.02s.02-.68.02-.91l.64.24c-.62.09-1.19.18-1.7.25-.51.08-.97.15-1.38.22s-.78.16-1.1.26c-.27.09-.51.21-.72.34s-.38.29-.5.48-.18.42-.18.69.07.51.2.73.33.4.6.53.62.2 1.04.2z"/><path d="m183.32 385.36v-10.18h1.76v2.94h.24v7.24zm7.15 0v-5c0-.4-.03-.8-.1-1.22s-.19-.81-.38-1.16c-.19-.36-.45-.65-.78-.87-.34-.22-.77-.33-1.31-.33-.35 0-.69.06-1 .17-.31.12-.59.3-.83.56s-.42.6-.56 1.02c-.13.42-.2.93-.2 1.54l-1.23-.46c0-.92.17-1.74.52-2.45s.84-1.26 1.49-1.65c.65-.4 1.43-.59 2.35-.59.7 0 1.29.11 1.77.34s.87.52 1.16.89c.3.37.53.77.68 1.2s.26.86.32 1.27.08.78.08 1.09v5.66h-2z"/><path d="m199.3 385.64c-.95 0-1.77-.24-2.46-.71s-1.22-1.11-1.59-1.93c-.37-.81-.56-1.73-.56-2.75s.19-1.94.57-2.75.91-1.44 1.61-1.91c.69-.47 1.52-.7 2.47-.7s1.77.23 2.43.7 1.15 1.11 1.49 1.92.5 1.73.5 2.74-.17 1.93-.51 2.74-.84 1.45-1.5 1.93c-.66.47-1.48.71-2.45.71zm.27-1.78c.65 0 1.17-.15 1.58-.46s.71-.73.9-1.27.28-1.16.28-1.87-.1-1.33-.29-1.87-.49-.96-.89-1.26-.91-.45-1.52-.45c-.65 0-1.19.16-1.61.48s-.73.75-.94 1.29-.31 1.14-.31 1.81.1 1.28.31 1.82c.2.54.51.98.92 1.3s.93.48 1.56.48zm2.76 1.5v-7.32h-.23v-6.25h1.98v13.57z"/><path d="m207 385.36v-13.57h1.76v7.32h.24v6.25zm7.15 0v-5c0-.4-.03-.8-.1-1.22s-.19-.81-.38-1.16c-.19-.36-.45-.65-.78-.87-.34-.22-.77-.33-1.31-.33-.35 0-.69.06-1 .17-.31.12-.59.3-.83.56s-.42.6-.56 1.02c-.13.42-.2.93-.2 1.54l-1.23-.46c0-.92.17-1.74.52-2.45s.84-1.26 1.49-1.65c.65-.4 1.43-.59 2.35-.59.7 0 1.29.11 1.77.34s.87.52 1.16.89c.3.37.53.77.68 1.2s.26.86.32 1.27.08.78.08 1.09v5.66h-2z"/><path d="m221.78 385.64c-.75 0-1.39-.14-1.89-.42s-.89-.65-1.15-1.11-.39-.97-.39-1.52c0-.51.09-.97.27-1.36s.45-.72.81-.99.8-.5 1.32-.66c.45-.13.96-.25 1.54-.35.57-.1 1.17-.19 1.8-.28s1.26-.18 1.88-.26l-.72.4c.01-.8-.16-1.39-.5-1.78-.35-.39-.95-.58-1.8-.58-.53 0-1.02.12-1.47.37s-.76.66-.93 1.23l-1.84-.57c.25-.87.73-1.57 1.44-2.08s1.65-.77 2.82-.77c.91 0 1.71.16 2.38.47s1.17.8 1.48 1.47c.16.33.26.69.3 1.06s.06.77.06 1.2v6.27h-1.74v-2.33l.34.3c-.42.78-.96 1.36-1.61 1.74s-1.45.57-2.4.57zm.35-1.61c.56 0 1.04-.1 1.44-.3s.73-.45.97-.76.41-.63.48-.96c.11-.3.17-.64.18-1.02s.02-.68.02-.91l.64.24c-.62.09-1.19.18-1.7.25-.51.08-.97.15-1.38.22s-.78.16-1.1.26c-.27.09-.51.21-.72.34s-.38.29-.5.48-.18.42-.18.69.07.51.2.73.33.4.6.53.62.2 1.04.2z"/><path d="m232.33 385.36-3.7-10.18h1.99l2.71 7.71 2.71-7.71h1.99l-3.7 10.18z"/><path d="m244.12 385.64c-1.01 0-1.9-.22-2.66-.67s-1.36-1.06-1.78-1.86c-.42-.79-.64-1.72-.64-2.77 0-1.11.21-2.08.63-2.89.42-.82 1-1.45 1.75-1.89.75-.45 1.62-.67 2.61-.67s1.92.24 2.65.72 1.27 1.16 1.63 2.05.5 1.94.43 3.16h-1.97v-.72c-.01-1.18-.24-2.05-.67-2.62-.44-.57-1.1-.85-1.99-.85-.99 0-1.73.31-2.22.93-.5.62-.75 1.52-.75 2.7s.25 1.98.75 2.6c.5.61 1.21.92 2.15.92.62 0 1.15-.14 1.6-.42s.8-.68 1.05-1.2l1.93.61c-.4.91-1 1.62-1.8 2.12s-1.7.75-2.69.75zm-3.63-4.82v-1.54h7.27v1.54z"/><path d="m251.12 385.36v-10.18h1.76v2.94h.24v7.24zm7.15 0v-5c0-.4-.03-.8-.1-1.22s-.19-.81-.38-1.16c-.19-.36-.45-.65-.78-.87-.34-.22-.77-.33-1.31-.33-.35 0-.69.06-1 .17-.31.12-.59.3-.83.56s-.42.6-.56 1.02c-.13.42-.2.93-.2 1.54l-1.23-.46c0-.92.17-1.74.52-2.45s.84-1.26 1.49-1.65c.65-.4 1.43-.59 2.35-.59.7 0 1.29.11 1.77.34s.87.52 1.16.89c.3.37.53.77.68 1.2s.26.86.32 1.27.08.78.08 1.09v5.66h-2z"/><path d="m344.09 385.36-3.94-13.57h2.06l2.86 10.26 2.86-10.26h2.07s2.86 10.26 2.86 10.26l2.86-10.26h2.07l-3.95 13.57h-1.96l-2.91-10.15-2.91 10.15h-1.96z"/><path d="m363.4 385.64c-1.01 0-1.9-.22-2.66-.67s-1.36-1.06-1.78-1.86c-.42-.79-.64-1.72-.64-2.77 0-1.11.21-2.08.63-2.89.42-.82 1-1.45 1.75-1.89.75-.45 1.62-.67 2.61-.67s1.92.24 2.65.72 1.27 1.16 1.63 2.05.5 1.94.43 3.16h-1.97v-.72c-.01-1.18-.24-2.05-.67-2.62-.44-.57-1.1-.85-1.99-.85-.99 0-1.73.31-2.22.93-.5.62-.75 1.52-.75 2.7s.25 1.98.75 2.6c.5.61 1.21.92 2.15.92.62 0 1.15-.14 1.6-.42s.8-.68 1.05-1.2l1.93.61c-.4.91-1 1.62-1.8 2.12s-1.7.75-2.69.75zm-3.63-4.82v-1.54h7.27v1.54z"/><path d="m374.97 385.64c-1.01 0-1.9-.22-2.66-.67s-1.36-1.06-1.78-1.86c-.42-.79-.64-1.72-.64-2.77 0-1.11.21-2.08.63-2.89.42-.82 1-1.45 1.75-1.89.75-.45 1.62-.67 2.61-.67s1.92.24 2.65.72 1.27 1.16 1.63 2.05.5 1.94.43 3.16h-1.97v-.72c-.01-1.18-.24-2.05-.67-2.62-.44-.57-1.1-.85-1.99-.85-.99 0-1.73.31-2.22.93-.5.62-.75 1.52-.75 2.7s.25 1.98.75 2.6c.5.61 1.21.92 2.15.92.62 0 1.15-.14 1.6-.42s.8-.68 1.05-1.2l1.93.61c-.4.91-1 1.62-1.8 2.12s-1.7.75-2.69.75zm-3.63-4.82v-1.54h7.27v1.54z"/><path d="m380.81 376.76v-1.58h6.96v1.58zm6.96 8.6c-.64.13-1.27.18-1.88.16s-1.17-.14-1.65-.36-.85-.57-1.09-1.04c-.22-.42-.34-.85-.35-1.29s-.02-.93-.02-1.48v-9h1.98v8.91c0 .41 0 .76.01 1.07 0 .3.07.56.19.76.23.39.59.61 1.08.66s1.07.03 1.74-.06v1.67z"/><path d="m394.61 373.51v-1.91h1.97v1.91zm0 11.85v-10.18h1.97v10.18z"/><path d="m399.58 385.36v-13.57h2.01v8.29l4-4.9h2.51l-4.22 5.09 4.66 5.09h-2.68l-4.26-4.9v4.9h-2.01z"/><path d="m413.99 385.36v-10.18h1.76v2.94h.24v7.24zm7.15 0v-5c0-.4-.03-.8-.1-1.22s-.19-.81-.38-1.16c-.19-.36-.45-.65-.78-.87-.34-.22-.77-.33-1.31-.33-.35 0-.69.06-1 .17-.31.12-.59.3-.83.56s-.42.6-.56 1.02c-.13.42-.2.93-.2 1.54l-1.23-.46c0-.92.17-1.74.52-2.45s.84-1.26 1.49-1.65c.65-.4 1.43-.59 2.35-.59.7 0 1.29.11 1.77.34s.87.52 1.16.89c.3.37.53.77.68 1.2s.26.86.32 1.27.08.78.08 1.09v5.66h-2z"/><path d="m426.02 373.51v-1.91h1.97v1.91zm0 11.85v-10.18h1.97v10.18z"/><path d="m435.57 385.64c-1.01 0-1.9-.22-2.66-.67s-1.36-1.06-1.78-1.86c-.42-.79-.64-1.72-.64-2.77 0-1.11.21-2.08.63-2.89.42-.82 1-1.45 1.75-1.89.75-.45 1.62-.67 2.61-.67s1.92.24 2.65.72 1.27 1.16 1.63 2.05.5 1.94.43 3.16h-1.97v-.72c-.01-1.18-.24-2.05-.67-2.62-.44-.57-1.1-.85-1.99-.85-.99 0-1.73.31-2.22.93-.5.62-.75 1.52-.75 2.7s.25 1.98.75 2.6c.5.61 1.21.92 2.15.92.62 0 1.15-.14 1.6-.42s.8-.68 1.05-1.2l1.93.61c-.4.91-1 1.62-1.8 2.12s-1.7.75-2.69.75zm-3.63-4.82v-1.54h7.27v1.54z"/><path d="m441.41 376.76v-1.58h6.96v1.58zm6.96 8.6c-.64.13-1.27.18-1.88.16s-1.17-.14-1.65-.36-.85-.57-1.09-1.04c-.22-.42-.34-.85-.35-1.29s-.02-.93-.02-1.48v-9h1.98v8.91c0 .41 0 .76.01 1.07 0 .3.07.56.19.76.23.39.59.61 1.08.66s1.07.03 1.74-.06v1.67z"/><path d="m454.09 385.36v-.31l5.78-8.11h-5.25v-1.76h8.38v.32l-5.77 8.1h5.49v1.76h-8.62z"/><path d="m469.41 385.64c-1.01 0-1.9-.22-2.66-.67s-1.36-1.06-1.78-1.86c-.42-.79-.64-1.72-.64-2.77 0-1.11.21-2.08.63-2.89.42-.82 1-1.45 1.75-1.89.75-.45 1.62-.67 2.61-.67s1.92.24 2.65.72 1.27 1.16 1.63 2.05.5 1.94.43 3.16h-1.97v-.72c-.01-1.18-.24-2.05-.67-2.62-.44-.57-1.1-.85-1.99-.85-.99 0-1.73.31-2.22.93-.5.62-.75 1.52-.75 2.7s.25 1.98.75 2.6c.5.61 1.21.92 2.15.92.62 0 1.15-.14 1.6-.42s.8-.68 1.05-1.2l1.93.61c-.4.91-1 1.62-1.8 2.12s-1.7.75-2.69.75zm-3.63-4.82v-1.54h7.27v1.54z"/><path d="m476.41 385.36v-13.57h2.01v8.29l4-4.9h2.51l-4.22 5.09 4.66 5.09h-2.68l-4.26-4.9v4.9h-2.01z"/><path d="m490.76 385.64c-1.01 0-1.9-.22-2.66-.67s-1.36-1.06-1.78-1.86c-.42-.79-.64-1.72-.64-2.77 0-1.11.21-2.08.63-2.89.42-.82 1-1.45 1.75-1.89.75-.45 1.62-.67 2.61-.67s1.92.24 2.65.72 1.27 1.16 1.63 2.05.5 1.94.43 3.16h-1.97v-.72c-.01-1.18-.24-2.05-.67-2.62-.44-.57-1.1-.85-1.99-.85-.99 0-1.73.31-2.22.93-.5.62-.75 1.52-.75 2.7s.25 1.98.75 2.6c.5.61 1.21.92 2.15.92.62 0 1.15-.14 1.6-.42s.8-.68 1.05-1.2l1.93.61c-.4.91-1 1.62-1.8 2.12s-1.7.75-2.69.75zm-3.63-4.82v-1.54h7.27v1.54z"/><path d="m497.76 385.36v-10.18h1.75v2.47l-.25-.32c.12-.33.29-.63.49-.9s.43-.5.7-.67c.26-.19.54-.33.86-.44.32-.1.64-.17.98-.19.33-.02.65 0 .96.05v1.85c-.33-.09-.7-.11-1.11-.08-.41.04-.78.17-1.12.39-.32.21-.57.46-.76.75-.19.3-.32.62-.4.99-.08.36-.12.74-.12 1.15v5.14h-1.99z"/><path d="m341.21 350.01v-13.57h1.78l4.92 10.21 4.89-10.21h1.8v13.56h-1.87v-9.28l-4.38 9.29h-.9l-4.39-9.29v9.29h-1.86z"/><path d="m360.35 350.3c-.75 0-1.39-.14-1.89-.42s-.89-.65-1.15-1.11-.39-.97-.39-1.52c0-.51.09-.97.27-1.36s.45-.72.81-.99.8-.5 1.32-.66c.45-.13.96-.25 1.54-.35.57-.1 1.17-.19 1.8-.28s1.26-.18 1.88-.26l-.72.4c.01-.8-.16-1.39-.5-1.78-.35-.39-.95-.58-1.8-.58-.53 0-1.02.12-1.47.37s-.76.66-.93 1.23l-1.84-.57c.25-.87.73-1.57 1.44-2.08s1.65-.77 2.82-.77c.91 0 1.71.16 2.38.47s1.17.8 1.48 1.47c.16.33.26.69.3 1.06s.06.77.06 1.2v6.27h-1.74v-2.33l.34.3c-.42.78-.96 1.36-1.61 1.74s-1.45.57-2.4.57zm.35-1.61c.56 0 1.04-.1 1.44-.3s.73-.45.97-.76.41-.63.48-.96c.11-.3.17-.64.18-1.02s.02-.68.02-.91l.64.24c-.62.09-1.19.18-1.7.25-.51.08-.97.15-1.38.22s-.78.16-1.1.26c-.27.09-.51.21-.72.34s-.38.29-.5.48-.18.42-.18.69.07.51.2.73.33.4.6.53.62.2 1.04.2z"/><path d="m371.43 350.3c-.75 0-1.39-.14-1.89-.42s-.89-.65-1.15-1.11-.39-.97-.39-1.52c0-.51.09-.97.27-1.36s.45-.72.81-.99.8-.5 1.32-.66c.45-.13.96-.25 1.54-.35.57-.1 1.17-.19 1.8-.28s1.26-.18 1.88-.26l-.72.4c.01-.8-.16-1.39-.5-1.78-.35-.39-.95-.58-1.8-.58-.53 0-1.02.12-1.47.37s-.76.66-.93 1.23l-1.84-.57c.25-.87.73-1.57 1.44-2.08s1.65-.77 2.82-.77c.91 0 1.71.16 2.38.47s1.17.8 1.48 1.47c.16.33.26.69.3 1.06s.06.77.06 1.2v6.27h-1.74v-2.33l.34.3c-.42.78-.96 1.36-1.61 1.74s-1.45.57-2.4.57zm.35-1.61c.56 0 1.04-.1 1.44-.3s.73-.45.97-.76.41-.63.48-.96c.11-.3.17-.64.18-1.02s.02-.68.02-.91l.64.24c-.62.09-1.19.18-1.7.25-.51.08-.97.15-1.38.22s-.78.16-1.1.26c-.27.09-.51.21-.72.34s-.38.29-.5.48-.18.42-.18.69.07.51.2.73.33.4.6.53.62.2 1.04.2z"/><path d="m378.46 341.42v-1.58h6.96v1.58zm6.96 8.6c-.64.13-1.27.18-1.88.16s-1.17-.14-1.65-.36-.85-.57-1.09-1.04c-.22-.42-.34-.85-.35-1.29s-.02-.93-.02-1.48v-9h1.98v8.91c0 .41 0 .76.01 1.07 0 .3.07.56.19.76.23.39.59.61 1.08.66s1.07.03 1.74-.06v1.67z"/><path d="m387.56 350.01v-10.18h1.75v2.47l-.25-.32c.12-.33.29-.63.49-.9s.43-.5.7-.67c.26-.19.54-.33.86-.44.32-.1.64-.17.98-.19.33-.02.65 0 .96.05v1.85c-.33-.09-.7-.11-1.11-.08-.41.04-.78.17-1.12.39-.32.21-.57.46-.76.75-.19.3-.32.62-.4.99-.08.36-.12.74-.12 1.15v5.14h-1.99z"/><path d="m399.47 350.3c-1.01 0-1.9-.22-2.66-.67s-1.36-1.06-1.78-1.86c-.42-.79-.64-1.72-.64-2.77 0-1.11.21-2.08.63-2.89.42-.82 1-1.45 1.75-1.89.75-.45 1.62-.67 2.61-.67s1.92.24 2.65.72 1.27 1.16 1.63 2.05.5 1.94.43 3.16h-1.97v-.72c-.01-1.18-.24-2.05-.67-2.62-.44-.57-1.1-.85-1.99-.85-.99 0-1.73.31-2.22.93-.5.62-.75 1.52-.75 2.7s.25 1.98.75 2.6c.5.61 1.21.92 2.15.92.62 0 1.15-.14 1.6-.42s.8-.68 1.05-1.2l1.93.61c-.4.91-1 1.62-1.8 2.12s-1.7.75-2.69.75zm-3.63-4.82v-1.54h7.27v1.54z"/><path d="m410.57 350.3c-.95 0-1.77-.24-2.46-.71s-1.22-1.11-1.59-1.93c-.37-.81-.56-1.73-.56-2.75s.19-1.94.57-2.75.91-1.44 1.61-1.91c.69-.47 1.52-.7 2.47-.7s1.77.23 2.43.7 1.15 1.11 1.49 1.92.5 1.73.5 2.74-.17 1.93-.51 2.74-.84 1.45-1.5 1.93c-.66.47-1.48.71-2.45.71zm.15 4.52c-.55 0-1.08-.08-1.59-.25s-.98-.42-1.4-.75-.77-.74-1.05-1.22l1.82-.92c.22.43.53.75.94.95s.84.3 1.29.3c.56 0 1.04-.1 1.43-.3.4-.2.7-.5.9-.89.2-.4.3-.89.3-1.47v-2.85h.24v-7.59h1.74v10.45c0 .27 0 .53-.03.77s-.05.49-.1.74c-.14.69-.42 1.25-.83 1.7s-.92.78-1.55 1-1.33.33-2.12.33zm.12-6.31c.65 0 1.17-.15 1.58-.46s.71-.73.9-1.27.28-1.16.28-1.87-.1-1.33-.29-1.87-.49-.96-.89-1.26-.91-.45-1.52-.45c-.65 0-1.19.16-1.61.48s-.73.75-.94 1.29-.31 1.14-.31 1.81.1 1.28.31 1.82c.2.54.51.98.92 1.3s.93.48 1.56.48z"/><path d="m422.82 350.3c-1.01 0-1.9-.22-2.66-.67s-1.36-1.06-1.78-1.86c-.42-.79-.64-1.72-.64-2.77 0-1.11.21-2.08.63-2.89.42-.82 1-1.45 1.75-1.89.75-.45 1.62-.67 2.61-.67s1.92.24 2.65.72 1.27 1.16 1.63 2.05.5 1.94.43 3.16h-1.97v-.72c-.01-1.18-.24-2.05-.67-2.62-.44-.57-1.1-.85-1.99-.85-.99 0-1.73.31-2.22.93-.5.62-.75 1.52-.75 2.7s.25 1.98.75 2.6c.5.61 1.21.92 2.15.92.62 0 1.15-.14 1.6-.42s.8-.68 1.05-1.2l1.93.61c-.4.91-1 1.62-1.8 2.12s-1.7.75-2.69.75zm-3.63-4.82v-1.54h7.27v1.54z"/><path d="m429.92 350.01v-13.86h1.97v13.86z"/><path d="m439.47 350.3c-1.01 0-1.9-.22-2.66-.67s-1.36-1.06-1.78-1.86c-.42-.79-.64-1.72-.64-2.77 0-1.11.21-2.08.63-2.89.42-.82 1-1.45 1.75-1.89.75-.45 1.62-.67 2.61-.67s1.92.24 2.65.72 1.27 1.16 1.63 2.05.5 1.94.43 3.16h-1.97v-.72c-.01-1.18-.24-2.05-.67-2.62-.44-.57-1.1-.85-1.99-.85-.99 0-1.73.31-2.22.93-.5.62-.75 1.52-.75 2.7s.25 1.98.75 2.6c.5.61 1.21.92 2.15.92.62 0 1.15-.14 1.6-.42s.8-.68 1.05-1.2l1.93.61c-.4.91-1 1.62-1.8 2.12s-1.7.75-2.69.75zm-3.63-4.82v-1.54h7.27v1.54z"/><path d="m446.46 350.01v-10.18h1.76v2.94h.24v7.24zm7.15 0v-5c0-.4-.03-.8-.1-1.22s-.19-.81-.38-1.16c-.19-.36-.45-.65-.78-.87-.34-.22-.77-.33-1.31-.33-.35 0-.69.06-1 .17-.31.12-.59.3-.83.56s-.42.6-.56 1.02c-.13.42-.2.93-.2 1.54l-1.23-.46c0-.92.17-1.74.52-2.45s.84-1.26 1.49-1.65c.65-.4 1.43-.59 2.35-.59.7 0 1.29.11 1.77.34s.87.52 1.16.89c.3.37.53.77.68 1.2s.26.86.32 1.27.08.78.08 1.09v5.66h-2z"/><path d="m465.34 350.01-3.7-10.18h1.99l2.71 7.71 2.71-7.71h1.99l-3.7 10.18z"/><path d="m477.14 350.3c-1.01 0-1.9-.22-2.66-.67s-1.36-1.06-1.78-1.86c-.42-.79-.64-1.72-.64-2.77 0-1.11.21-2.08.63-2.89.42-.82 1-1.45 1.75-1.89.75-.45 1.62-.67 2.61-.67s1.92.24 2.65.72 1.27 1.16 1.63 2.05.5 1.94.43 3.16h-1.97v-.72c-.01-1.18-.24-2.05-.67-2.62-.44-.57-1.1-.85-1.99-.85-.99 0-1.73.31-2.22.93-.5.62-.75 1.52-.75 2.7s.25 1.98.75 2.6c.5.61 1.21.92 2.15.92.62 0 1.15-.14 1.6-.42s.8-.68 1.05-1.2l1.93.61c-.4.91-1 1.62-1.8 2.12s-1.7.75-2.69.75zm-3.63-4.82v-1.54h7.27v1.54z"/><path d="m484.13 350.01v-10.18h1.75v2.47l-.25-.32c.12-.33.29-.63.49-.9s.43-.5.7-.67c.26-.19.54-.33.86-.44.32-.1.64-.17.98-.19.33-.02.65 0 .96.05v1.85c-.33-.09-.7-.11-1.11-.08-.41.04-.78.17-1.12.39-.32.21-.57.46-.76.75-.19.3-.32.62-.4.99-.08.36-.12.74-.12 1.15v5.14h-1.99z"/><path d="m491.61 350.01v-10.18h1.75v2.94h.23v7.24zm6.11 0v-6.31c0-.74-.18-1.32-.55-1.74s-.88-.63-1.5-.63-1.12.21-1.5.64-.57.99-.57 1.68l-.94-.6c0-.67.16-1.26.48-1.78s.75-.93 1.3-1.24 1.17-.45 1.86-.45 1.34.15 1.85.46.9.73 1.16 1.28.4 1.18.4 1.9v6.8h-1.98zm6.1 0v-6.34c0-.74-.18-1.31-.56-1.72s-.87-.62-1.49-.62c-.38 0-.72.09-1.03.26s-.56.43-.75.77-.29.77-.29 1.29l-.95-.48c-.01-.72.14-1.34.46-1.88s.75-.96 1.3-1.26 1.16-.45 1.84-.45c1.1 0 1.95.33 2.55.99s.9 1.54.9 2.63v6.82h-1.98z"/><path d="m508.69 338.16v-1.91h1.97v1.91zm0 11.85v-10.18h1.97v10.18z"/><path d="m513.66 350.01v-10.18h1.76v2.94h.24v7.24zm7.15 0v-5c0-.4-.03-.8-.1-1.22s-.19-.81-.38-1.16c-.19-.36-.45-.65-.78-.87-.34-.22-.77-.33-1.31-.33-.35 0-.69.06-1 .17-.31.12-.59.3-.83.56s-.42.6-.56 1.02c-.13.42-.2.93-.2 1.54l-1.23-.46c0-.92.17-1.74.52-2.45s.84-1.26 1.49-1.65c.65-.4 1.43-.59 2.35-.59.7 0 1.29.11 1.77.34s.87.52 1.16.89c.3.37.53.77.68 1.2s.26.86.32 1.27.08.78.08 1.09v5.66h-2z"/><path d="m529.64 350.3c-.95 0-1.77-.24-2.46-.71s-1.22-1.11-1.59-1.93c-.37-.81-.56-1.73-.56-2.75s.19-1.94.57-2.75.91-1.44 1.61-1.91c.69-.47 1.52-.7 2.47-.7s1.77.23 2.43.7 1.15 1.11 1.49 1.92.5 1.73.5 2.74-.17 1.93-.51 2.74-.84 1.45-1.5 1.93c-.66.47-1.48.71-2.45.71zm.27-1.78c.65 0 1.17-.15 1.58-.46s.71-.73.9-1.27.28-1.16.28-1.87-.1-1.33-.29-1.87-.49-.96-.89-1.26-.91-.45-1.52-.45c-.65 0-1.19.16-1.61.48s-.73.75-.94 1.29-.31 1.14-.31 1.81.1 1.28.31 1.82c.2.54.51.98.92 1.3s.93.48 1.56.48zm2.76 1.5v-7.32h-.23v-6.25h1.98v13.57z"/><path d="m541.89 350.3c-1.01 0-1.9-.22-2.66-.67s-1.36-1.06-1.78-1.86c-.42-.79-.64-1.72-.64-2.77 0-1.11.21-2.08.63-2.89.42-.82 1-1.45 1.75-1.89.75-.45 1.62-.67 2.61-.67s1.92.24 2.65.72 1.27 1.16 1.63 2.05.5 1.94.43 3.16h-1.97v-.72c-.01-1.18-.24-2.05-.67-2.62-.44-.57-1.1-.85-1.99-.85-.99 0-1.73.31-2.22.93-.5.62-.75 1.52-.75 2.7s.25 1.98.75 2.6c.5.61 1.21.92 2.15.92.62 0 1.15-.14 1.6-.42s.8-.68 1.05-1.2l1.93.61c-.4.91-1 1.62-1.8 2.12s-1.7.75-2.69.75zm-3.63-4.82v-1.54h7.27v1.54z"/><path d="m548.89 350.01v-10.18h1.75v2.47l-.25-.32c.12-.33.29-.63.49-.9s.43-.5.7-.67c.26-.19.54-.33.86-.44.32-.1.64-.17.98-.19.33-.02.65 0 .96.05v1.85c-.33-.09-.7-.11-1.11-.08-.41.04-.78.17-1.12.39-.32.21-.57.46-.76.75-.19.3-.32.62-.4.99-.08.36-.12.74-.12 1.15v5.14h-1.99z"/><path d="m560.79 350.3c-1.01 0-1.9-.22-2.66-.67s-1.36-1.06-1.78-1.86c-.42-.79-.64-1.72-.64-2.77 0-1.11.21-2.08.63-2.89.42-.82 1-1.45 1.75-1.89.75-.45 1.62-.67 2.61-.67s1.92.24 2.65.72 1.27 1.16 1.63 2.05.5 1.94.43 3.16h-1.97v-.72c-.01-1.18-.24-2.05-.67-2.62-.44-.57-1.1-.85-1.99-.85-.99 0-1.73.31-2.22.93-.5.62-.75 1.52-.75 2.7s.25 1.98.75 2.6c.5.61 1.21.92 2.15.92.62 0 1.15-.14 1.6-.42s.8-.68 1.05-1.2l1.93.61c-.4.91-1 1.62-1.8 2.12s-1.7.75-2.69.75zm-3.63-4.82v-1.54h7.27v1.54z"/><path d="m567.79 350.01v-10.18h1.76v2.94h.24v7.24zm7.15 0v-5c0-.4-.03-.8-.1-1.22s-.19-.81-.38-1.16c-.19-.36-.45-.65-.78-.87-.34-.22-.77-.33-1.31-.33-.35 0-.69.06-1 .17-.31.12-.59.3-.83.56s-.42.6-.56 1.02c-.13.42-.2.93-.2 1.54l-1.23-.46c0-.92.17-1.74.52-2.45s.84-1.26 1.49-1.65c.65-.4 1.43-.59 2.35-.59.7 0 1.29.11 1.77.34s.87.52 1.16.89c.3.37.53.77.68 1.2s.26.86.32 1.27.08.78.08 1.09v5.66h-2z"/><g fill="#1a1a1a"><path d="m293.14 21.27c-.99 0-1.93-.19-2.81-.58s-1.65-.93-2.3-1.64-1.12-1.54-1.4-2.51l3.21-.87c.23.79.65 1.4 1.26 1.83s1.29.64 2.02.63c.65 0 1.24-.15 1.75-.46.51-.3.92-.71 1.21-1.23s.44-1.1.44-1.75c0-.98-.32-1.81-.95-2.47s-1.45-.99-2.46-.99c-.3 0-.6.04-.89.12s-.57.2-.83.34l-1.52-2.62 6.68-5.71.29.8h-9.45v-3.13h12.18v3.14l-5.37 5.16-.03-.98c1.2.08 2.23.42 3.08 1.01s1.5 1.35 1.96 2.28.68 1.94.68 3.05c0 1.25-.31 2.37-.92 3.37s-1.43 1.78-2.46 2.35-2.16.86-3.4.86z"/><path d="m304.67 5.82c-.53 0-1.02-.13-1.46-.39s-.79-.61-1.05-1.05-.39-.93-.39-1.47.13-1.01.4-1.46c.27-.44.62-.79 1.07-1.06.44-.26.92-.4 1.44-.4s1.02.13 1.46.39.79.61 1.06 1.05c.26.44.4.93.4 1.47s-.13 1.03-.4 1.47c-.26.44-.62.79-1.06 1.05s-.93.39-1.46.39zm-1.13 6.07-1.29-1.29 10.35-10.36 1.29 1.3-10.36 10.34zm1.13-7.73c.23 0 .43-.06.62-.17s.34-.26.45-.45.17-.4.17-.62-.06-.43-.17-.62-.26-.34-.45-.45-.4-.17-.62-.17-.43.06-.62.17-.34.26-.45.45-.17.4-.17.62.06.43.17.62.26.34.45.45.4.17.62.17zm6.8 7.97c-.53 0-1.02-.13-1.46-.39s-.79-.61-1.06-1.05c-.26-.44-.4-.93-.4-1.47s.13-1.01.4-1.46c.27-.44.63-.79 1.07-1.06.44-.26.92-.4 1.44-.4s1.02.13 1.46.39.79.61 1.05 1.05.39.93.39 1.47-.13 1.03-.39 1.47-.61.79-1.05 1.05-.93.39-1.46.39zm0-1.67c.22 0 .43-.06.62-.17s.34-.26.46-.45c.11-.19.17-.4.17-.62s-.06-.43-.17-.62-.27-.34-.46-.45-.4-.17-.62-.17-.43.06-.62.17-.34.26-.46.45-.17.4-.17.62.06.43.17.62c.12.19.27.34.46.45s.4.17.62.17z"/><path d="m246.46 32.8c-1.32 0-2.48-.27-3.5-.8s-1.82-1.27-2.4-2.22-.87-2.03-.87-3.26c0-1.09.25-2.11.76-3.05.5-.94 1.25-1.69 2.22-2.25l-.07 1.06c-.76-.58-1.35-1.25-1.77-2.01s-.63-1.61-.63-2.56c0-1.14.27-2.13.81-2.97s1.28-1.49 2.21-1.95c.94-.46 2.02-.7 3.24-.7s2.31.23 3.25.7 1.68 1.11 2.22 1.95.81 1.83.81 2.97c0 .95-.2 1.8-.6 2.55s-1 1.43-1.81 2.04v-1.08c.94.54 1.68 1.29 2.19 2.23s.77 1.96.77 3.05c0 1.22-.29 2.31-.88 3.26-.58.95-1.39 1.69-2.41 2.22-1.03.53-2.2.8-3.52.8zm0-3.13c.97 0 1.77-.27 2.38-.8s.92-1.31.92-2.35-.3-1.81-.91-2.35-1.4-.81-2.39-.81-1.76.27-2.36.81-.9 1.32-.9 2.35.3 1.81.9 2.35c.6.53 1.38.8 2.36.8zm0-9.46c.82 0 1.48-.2 1.99-.61s.77-1.03.77-1.87-.26-1.46-.77-1.87-1.17-.61-1.99-.61-1.47.21-1.98.61c-.51.41-.77 1.03-.77 1.87s.25 1.46.77 1.87 1.17.61 1.98.61z"/><path d="m258.17 17.32c-.53 0-1.02-.13-1.46-.39s-.79-.61-1.05-1.05-.39-.93-.39-1.47.13-1.01.4-1.46c.27-.44.62-.79 1.07-1.06.44-.26.92-.4 1.44-.4s1.02.13 1.46.39.79.61 1.06 1.05c.26.44.4.93.4 1.47s-.13 1.03-.4 1.47c-.26.44-.62.79-1.06 1.05s-.93.39-1.46.39zm-1.13 6.07-1.29-1.29 10.36-10.35 1.29 1.3zm1.13-7.73c.23 0 .43-.06.62-.17s.34-.26.45-.45.17-.4.17-.62-.06-.43-.17-.62-.26-.34-.45-.45-.4-.17-.62-.17-.43.06-.62.17-.34.26-.45.45-.17.4-.17.62.06.43.17.62.26.34.45.45.4.17.62.17zm6.8 7.97c-.53 0-1.02-.13-1.46-.39s-.79-.61-1.06-1.05c-.26-.44-.4-.93-.4-1.47s.13-1.01.4-1.46c.27-.44.63-.79 1.07-1.06.44-.26.92-.4 1.44-.4s1.02.13 1.46.39.79.61 1.05 1.05.39.93.39 1.47-.13 1.03-.39 1.47-.61.79-1.05 1.05-.93.39-1.46.39zm0-1.67c.22 0 .43-.06.62-.17s.34-.26.46-.45c.11-.19.17-.4.17-.62s-.06-.43-.17-.62-.27-.34-.46-.45-.4-.17-.62-.17-.43.06-.62.17-.34.26-.46.45-.17.4-.17.62.06.43.17.62c.12.19.27.34.46.45s.4.17.62.17z"/><path d="m425.7 59.31v-3.28h-8.8v-3.1l6.36-13.48h3.79l-6.36 13.48h5.01v-5.17h3.37v5.17h1.86v3.1h-1.86v3.28z"/><path d="m440.13 59.72c-1.01 0-1.95-.21-2.83-.63-.87-.42-1.63-1-2.25-1.73-.63-.74-1.08-1.59-1.36-2.57l3.2-.86c.13.53.37.99.71 1.38s.75.69 1.21.9.94.32 1.44.32c.64 0 1.23-.16 1.77-.47s.96-.73 1.27-1.26.47-1.11.47-1.76-.16-1.23-.48-1.76-.74-.95-1.28-1.26-1.12-.46-1.75-.46c-.76 0-1.39.14-1.9.41-.5.28-.88.57-1.15.88l-2.84-.91.61-10.51h10.79v3.12h-9.01l1.24-1.17-.44 7.31-.61-.74c.51-.47 1.11-.82 1.79-1.05s1.34-.34 1.97-.34c1.24 0 2.34.28 3.3.85s1.71 1.34 2.26 2.31c.55.98.82 2.08.82 3.32s-.32 2.37-.97 3.37-1.49 1.81-2.54 2.41-2.2.9-3.46.9z"/><path d="m451.7 44.24c-.53 0-1.02-.13-1.46-.39s-.79-.61-1.05-1.05-.39-.93-.39-1.47.13-1.01.4-1.46c.27-.44.62-.79 1.07-1.06.44-.26.92-.4 1.44-.4s1.02.13 1.46.39.79.61 1.06 1.05c.26.44.4.93.4 1.47s-.13 1.03-.4 1.47c-.26.44-.62.79-1.06 1.05s-.93.39-1.46.39zm-1.13 6.07-1.29-1.29 10.36-10.35 1.29 1.3zm1.13-7.73c.23 0 .43-.06.62-.17s.34-.26.45-.45.17-.4.17-.62-.06-.43-.17-.62-.26-.34-.45-.45-.4-.17-.62-.17-.43.06-.62.17-.34.26-.45.45-.17.4-.17.62.06.43.17.62.26.34.45.45.4.17.62.17zm6.8 7.97c-.53 0-1.02-.13-1.46-.39s-.79-.61-1.06-1.05c-.26-.44-.4-.93-.4-1.47s.13-1.01.4-1.46c.27-.44.63-.79 1.07-1.06.44-.26.92-.4 1.44-.4s1.02.13 1.46.39.79.61 1.05 1.05.39.93.39 1.47-.13 1.03-.39 1.47-.61.79-1.05 1.05-.93.39-1.46.39zm0-1.67c.22 0 .43-.06.62-.17s.34-.26.46-.45c.11-.19.17-.4.17-.62s-.06-.43-.17-.62-.27-.34-.46-.45-.4-.17-.62-.17-.43.06-.62.17-.34.26-.46.45-.17.4-.17.62.06.43.17.62c.12.19.27.34.46.45s.4.17.62.17z"/></g><path d="m406.98 60.68-18.14 7.8" fill="none" stroke="#494949" stroke-miterlimit="10" stroke-width=".87"/><path d="m170.85 100.07 18.15 7.81" fill="none" stroke="#494949" stroke-miterlimit="10" stroke-width=".87"/><path d="m135.11 98.76v-3.28h-8.8v-3.1l6.36-13.48h3.79l-6.36 13.48h5.01v-5.17h3.37v5.17h1.86v3.1h-1.86v3.28z" fill="#1a1a1a"/><path d="m151.56 98.76v-3.28h-8.8v-3.1l6.36-13.48h3.79l-6.36 13.48h5.01v-5.17h3.37v5.17h1.86v3.1h-1.86v3.28z" fill="#1a1a1a"/><path d="m161.12 83.69c-.53 0-1.02-.13-1.46-.39s-.79-.61-1.05-1.05-.39-.93-.39-1.47.13-1.01.4-1.46c.27-.44.62-.79 1.07-1.06.44-.26.92-.4 1.44-.4s1.02.13 1.46.39.79.61 1.06 1.05c.26.44.4.93.4 1.47s-.13 1.03-.4 1.47c-.26.44-.62.79-1.06 1.05s-.93.39-1.46.39zm-1.13 6.07-1.29-1.29 10.36-10.35 1.29 1.3zm1.13-7.73c.23 0 .43-.06.62-.17s.34-.26.45-.45.17-.4.17-.62-.06-.43-.17-.62-.26-.34-.45-.45-.4-.17-.62-.17-.43.06-.62.17-.34.26-.45.45-.17.4-.17.62.06.43.17.62.26.34.45.45.4.17.62.17zm6.8 7.97c-.53 0-1.02-.13-1.46-.39s-.79-.61-1.06-1.05c-.26-.44-.4-.93-.4-1.47s.13-1.01.4-1.46.63-.79 1.07-1.06c.44-.26.92-.4 1.44-.4s1.02.13 1.46.39.79.61 1.05 1.05.39.93.39 1.47-.13 1.03-.39 1.47-.61.79-1.05 1.05-.93.39-1.46.39zm0-1.67c.22 0 .43-.06.62-.17s.34-.26.46-.45c.11-.19.17-.4.17-.62s-.06-.43-.17-.62-.27-.34-.46-.45-.4-.17-.62-.17-.43.06-.62.17-.34.26-.46.45-.17.4-.17.62.06.43.17.62c.12.19.27.34.46.45s.4.17.62.17z" fill="#1a1a1a"/><path d="m285.93 40.25c-18.68 3.36-35.86 11.02-50.47 21.89" fill="none" stroke="#1a1a1a" stroke-miterlimit="10" stroke-width=".88"/><path d="m285.49 37.4h.88v5.71h-.88z" fill="#1a1a1a" transform="matrix(.9791874 -.2029582 .2029582 .9791874 -2.22 58.89)"/><path d="m235.02 59.29h.88v5.71h-.88z" fill="#1a1a1a" transform="matrix(.81704428 -.57657493 .57657493 .81704428 7.24 147.12)"/><path d="m305.4 38.34c-5.29.09-10.49.52-15.59 1.27" fill="none" stroke="#1a1a1a" stroke-miterlimit="10" stroke-width=".88"/><path d="m304.96 35.5h.88v5.71h-.88z" fill="#1a1a1a" transform="matrix(.99887337 -.04745513 .04745513 .99887337 -1.48 14.55)"/><path d="m289.37 36.77h.88v5.71h-.88z" fill="#1a1a1a" transform="matrix(.99335269 -.11511052 .11511052 .99335269 -2.63 33.61)"/><path d="m247.41 88.12c-22.55 17.78-37.02 45.35-37.02 76.29 0 53.63 43.47 97.1 97.1 97.1 11.33 0 22.2-1.94 32.31-5.5" fill="none" stroke="#c2b8ed" stroke-miterlimit="10" stroke-width="34.14"/><path d="m290.78 68.74c-16.18 2.81-31 9.62-43.37 19.38" fill="none" stroke="#8b7fd3" stroke-miterlimit="10" stroke-width="34.14"/><path d="m307.49 67.31c-5.7 0-11.28.49-16.71 1.43" fill="none" stroke="#1b464f" stroke-miterlimit="10" stroke-width="34.14"/><path d="m339.8 256.01c37.75-13.31 64.8-49.3 64.8-91.6 0-53.63-43.47-97.1-97.1-97.1" fill="none" stroke="#397b7e" stroke-miterlimit="10" stroke-width="34.14"/></svg>