<svg height="82.795" viewBox="0 0 82.795 82.795" width="82.795" xmlns="http://www.w3.org/2000/svg" xmlns:xlink="http://www.w3.org/1999/xlink"><clipPath id="a"><path d="m0 0h82.795v82.795h-82.795z"/></clipPath><g style="clip-path:url(#a);fill:none;stroke:#8c7ade;stroke-linecap:round;stroke-miterlimit:10;stroke-width:3.5"><path d="m75.27 20.782a39.753 39.753 0 0 1 1.907 3.518"/><path d="m80 32.324a39.715 39.715 0 0 1 -15.605 41.376" stroke-dasharray="8.526 8.526"/><path d="m60.8 75.983a39.773 39.773 0 0 1 -3.581 1.781"/><path d="m57.216 77.764a39.652 39.652 0 1 1 18.055-56.982"/><path d="m10.043 2.146-10.043-2.146" transform="translate(67.171 22.414)"/><path d="m0 9.773 3.155-9.773" transform="translate(77.384 14.787)"/><path d="m45.519 41.4a4.122 4.122 0 1 1 -4.119-4.123 4.121 4.121 0 0 1 4.119 4.123z"/><path d="m0 20.13v-20.13" transform="translate(41.397 17.146)"/><path d="m0 0h11.007" transform="translate(45.519 41.398)"/></g></svg>