<svg height="93.473" viewBox="0 0 95.261 93.473" width="95.261" xmlns="http://www.w3.org/2000/svg" xmlns:xlink="http://www.w3.org/1999/xlink"><clipPath id="a"><path d="m0 0h95.261v93.473h-95.261z"/></clipPath><g fill="none" stroke="#8c7ade" stroke-miterlimit="10" stroke-width="3.5"><path d="m84.599 51.713v32.471" stroke-linecap="round"/><g clip-path="url(#a)"><path d="m7.19 84.184v-48.722a2.76 2.76 0 0 1 2.76-2.762h21.818" stroke-linecap="round"/><path d="m47.265 45.677-.092 10.443a.151.151 0 0 0 .249.115l11.142-9.713a3.8 3.8 0 0 1 2.495-.935h29.712a2.74 2.74 0 0 0 2.74-2.74v-24.653a2.74 2.74 0 0 0 -2.74-2.74h-50.36a2.739 2.739 0 0 0 -2.74 2.74v24.653a2.74 2.74 0 0 0 2.74 2.74h6.765a.089.089 0 0 1 .089.09z"/><g stroke-linecap="round"><path d="m0 0h28.252" transform="translate(48.259 25.625)"/><path d="m0 0h21.108" transform="translate(48.259 32.173)"/><path d="m0 0h7.445" transform="translate(22.871 18.169)"/><path d="m0 0 5.305 5.305" transform="translate(27.663 5.579)"/><path d="m0 6.482v-6.482" transform="translate(40.765 1.75)"/><path d="m84.6 84.51h-80.241a2.486 2.486 0 0 0 -2.265 3.711l1.341 2.247a2.63 2.63 0 0 0 2.265 1.255h79.806a2.635 2.635 0 0 0 2.225-1.191l1.435-2.247a2.483 2.483 0 0 0 -2.225-3.775z"/></g></g></g></svg>