<svg height="77.878" viewBox="0 0 85.074 77.878" width="85.074" xmlns="http://www.w3.org/2000/svg" xmlns:xlink="http://www.w3.org/1999/xlink"><clipPath id="a"><path d="m0 0h85.074v77.878h-85.074z"/></clipPath><g style="clip-path:url(#a);fill:none;stroke:#8c7ade;stroke-linecap:round;stroke-miterlimit:10;stroke-width:3.5"><path d="m14.331 66.273h57.952a2.637 2.637 0 0 0 2.642-2.611 25.358 25.358 0 0 0 -.76-6.45c-2.049-8.1-6.692-8.969-9.773-15.982-4.154-9.453 1.353-14.528-3.054-22.3-2.668-4.7-7.173-7.225-10.558-8.619a1.337 1.337 0 0 1 -.56-.426l-1.856-2.385a7.05 7.05 0 0 0 -2.318-1.934l-.179-.094a7.057 7.057 0 0 0 -9.293 2.606l-1.041 1.722a1.342 1.342 0 0 1 -.641.549c-3.377 1.4-7.835 3.923-10.483 8.588-4.409 7.763 1.099 12.84-3.054 22.293-3.082 7.013-7.724 7.886-9.773 15.982a25.318 25.318 0 0 0 -.761 6.45 2.638 2.638 0 0 0 2.643 2.611zm38.483 1.481a11.018 11.018 0 0 1 -2.573 4.912 10.129 10.129 0 0 1 -7.341 3.462 10.019 10.019 0 0 1 -6.783-2.9 11.186 11.186 0 0 1 -3.182-5.473"/><path d="m12.439 24.61a16.563 16.563 0 0 1 1.154-6.864 15.929 15.929 0 0 1 3.784-5.008"/><path d="m1.75 26.849v-1.932a30.441 30.441 0 0 1 10.693-23.167"/><path d="m72.636 24.61a16.563 16.563 0 0 0 -1.154-6.864 15.929 15.929 0 0 0 -3.782-5.008"/><path d="m83.325 26.849v-1.932a30.445 30.445 0 0 0 -10.693-23.167"/></g></svg>