<svg height="86.538" viewBox="0 0 65.627 86.538" width="65.627" xmlns="http://www.w3.org/2000/svg" xmlns:xlink="http://www.w3.org/1999/xlink"><clipPath id="a"><path d="m0 0h65.627v86.538h-65.627z"/></clipPath><g style="clip-path:url(#a);fill:none;stroke:#8c7ade;stroke-linecap:round;stroke-miterlimit:10;stroke-width:3.5"><path d="m1.75 84.788 4.85-9.788a95.913 95.913 0 0 1 21.787-28.689"/><path d="m34 84.788a62.288 62.288 0 0 1 7.165-29l4.375-8.314"/><path d="m37.131 45.141v-43.391h26.623a.123.123 0 0 1 .094.2l-7.8 9.2a.771.771 0 0 0 .033 1.034l7.735 8.045a.123.123 0 0 1 -.088.209l-26.6-.018"/></g></svg>