<?xml version="1.0" encoding="UTF-8"?>
<svg id="Layer_1" data-name="Layer 1" xmlns="http://www.w3.org/2000/svg" viewBox="0 0 166.5 145.1">
  <defs>
    <style>
      .cls-1 {
        stroke-width: 0px;
      }
    </style>
  </defs>
  <g id="bilfinger">
    <path id="Path_159" data-name="Path 159" class="cls-1" d="m102.17,119.49c0-5.89.29-11.89,8.31-11.89,4.81,0,7.79,2.69,7.5,7.58h-4.87c.03-2.17-.32-4.08-2.92-4.08-3.06,0-3.06,4.11-3.06,8.65,0,7.32.72,8.62,3.51,8.62.83-.02,1.65-.17,2.44-.45v-5.18h-2.67v-3.6h7.57v11.85c-1.33.26-4.68.78-6.62.78-8.25,0-9.19-3.4-9.19-12.28Zm35.83,11.44v-23.33h9.05c3.35,0,5.49,2.13,5.49,6.1h0c0,2.97-1.17,5.2-4.35,5.72v.06c1.08.13,4.26.39,4.26,4.59,0,1.48.1,5.88.55,6.85h-4.8c-.65-1.41-.52-3.01-.52-4.53,0-2.78.26-5.14-3.5-5.14h-1.26v9.67h-4.9Zm5-12.5h2.32c2.08,0,2.68-1.99,2.68-3.51h0c0-2.29-1.01-3.16-2.68-3.16h-2.32v6.67Zm-21.67,12.5v-23.33h13.06v3.58h-8.06v5.75h7.42v3.59h-7.42v6.82h8.33v3.59h-13.33Zm-29.8,0l-6.39-17.07h-.07v17.07h-4.58v-23.33h6.62l6.23,16.16h.07v-16.16h4.58v23.33h-6.46Zm-20.2,0v-23.33h5v23.33h-5Zm-15.83,0v-23.33h12.5v3.58h-7.47v5.98h7.13v3.58h-7.13v10.19h-5.03Zm-23.33.83v-15.29l5-2.21v17.5h-5Zm10.01-.83v-23.33s4.99,0,4.99,0v19.46h7.5v3.87h-12.49Zm-29.18,0v-23.33h8.65c3.72,0,6.79,1.06,6.79,6.04,0,2.68-1.31,4.62-3.96,5.14v.07c3.46.49,4.36,2.72,4.36,5.92,0,5.91-5.14,6.17-7.21,6.17h-8.63Zm5-3.33h2.6c.99,0,3.23-.03,3.23-3.31h0c0-2.09-.74-3.35-3.1-3.35h-2.73v6.67Zm0-10h3.28c1.06,0,2.55-.7,2.55-2.92,0-1.68-1.17-2.92-2.82-2.92h-3.01v5.83Zm14.17-9.17h5v2.96l-5,2.04v-5Zm43.32-29.66c-5.08,1.87-9.61,2.94-11.75,2.01-2-.87-.51-4.01-.07-4.86-1.22,2.18-1.94,3.95-1.81,4.91.24,2.19,3.05,2.11,3.05,2.11-5.27.61-9.44.61-13.85.1-4.99-.57-10.28-2.81-7.11-11.07,2.39-6.26,7.87-14.6,14.4-22.04.41-.47.83-.94,1.25-1.41-.99-7.34.47-15.24,6.31-22.83,4.46-5.71,10.35-10.14,17.06-12.82,4.77-1.91,14.52-4.46,24.75-1.29,7.56,2.35,16.76,9.1,15.04,24.48-1.4,12.5-12.06,24.07-25.31,32.18-.02.02-.04.03-.06.05-.46.33-1.85,1.14-3.82,2.2-.44.24-.85.47-1.31.71v-.03s-1.24.63-1.24.63c4.84,4.3,10.06,7.08,14.99,7.08,8.37,0,8.98-8.91,4.91-19.59,0,0,.44-.43.67-.68,5.16,13.63,5.14,34.21-6.91,36.92-1.16.26-2.34.39-3.52.39-10.22,0-19.42-9.64-25.68-17.16h0Zm-11.66-3.7c.1.01,2.49.32,7.5-1.7-.99-1.41-2.1-3.09-3.26-4.95-1.52,2.14-2.94,4.36-4.24,6.64h0Zm24.32-27.41c-3.25,2.74-6.36,5.65-9.33,8.71,1.77,3.23,3.81,6.3,6.1,9.18.33.41.66.81.99,1.21.36-.24.71-.48,1.07-.72.17-.11.33-.22.5-.33l.93-.65h.03v-.02c5.61-3.99,11.57-9.91,15.39-17.36-3.34-3.43-5.07-4.22-6.17-4.68-.67-.26-1.37-.39-2.09-.4-3.63,0-5.86,3.78-7.42,5.07h0Zm-5.34-16.69c4.62,0,10.25,3.54,14.38,7.18,2.69,2.34,5.15,4.94,7.34,7.77,2.26-4.63,3.44-9.72,3.46-14.87,0-11.39-8.71-15.5-18.62-14-9.73,1.48-18.2,9.83-17.12,18.91v.09c3.6-2.86,6.83-4.97,10.28-5.08h.29Z"/>
  </g>
</svg>