<svg enable-background="new 0 0 24 24" viewBox="0 0 24 24" xmlns="http://www.w3.org/2000/svg"><path d="m17.9 6.6-2.2-.3-.2 1c-.6-.7-1.6-1.3-3.1-1.3-2.8 0-5.9 2.6-5.9 6.3 0 2.6 2 4.6 4.6 4.6 1.8 0 3-.8 3.8-1.7.6 1.1 1.8 1.7 3.3 1.7 2.3 0 4.7-1.9 4.7-6.1 0-2.5-1.1-5-3.1-6.8-2-1.9-4.7-2.9-7.5-2.9-5.8.1-10.6 4.9-10.6 10.7 0 5.9 4.8 10.6 10.8 10.6 2.3 0 4.4-.6 6.4-1.8l.5-.3-.9-1.5-.5.3c-1.8 1.1-3.4 1.5-5.5 1.5-5.1 0-9-3.8-9-8.8.1-4.9 3.9-8.8 8.9-8.8 2.4 0 4.6.9 6.3 2.5 1.6 1.5 2.5 3.5 2.5 5.4 0 2.1-.9 4.2-2.8 4.2-1 0-1.5-.5-1.5-1.5 0-.1 0-.5.2-1.6zm-6.6 8.2c-1.6 0-2.5-1-2.5-2.6 0-2.4 1.9-4 3.6-4 1.5 0 2.5 1.1 2.5 2.7 0 2-1.7 3.9-3.6 3.9z" fill="#cbb9f1"/></svg>