<svg enable-background="new 0 0 24 24" viewBox="0 0 24 24" xmlns="http://www.w3.org/2000/svg"><g fill="#ccbaf2"><path d="m12.8 16.4c2.3 0 4.1-1.8 4.1-4.1v-8.2c0-2.3-1.8-4.1-4.1-4.1s-4.1 1.9-4.1 4.1v8.2c0 2.3 1.8 4.1 4.1 4.1zm-2.6-12.3c0-1.4 1.2-2.6 2.6-2.6s2.6 1.2 2.6 2.6v8.2c0 1.4-1.2 2.6-2.6 2.6s-2.6-1.2-2.6-2.6z"/><path d="m19.9 12.3v-2.6c0-.4-.3-.7-.7-.7s-.7.3-.7.7v2.6c0 3.1-2.5 5.6-5.6 5.6s-5.6-2.5-5.6-5.6v-2.8c0-.4-.3-.7-.7-.7s-.7.3-.7.7v2.8c0 3.6 2.8 6.7 6.3 7v3h-3.9c-.4 0-.7.3-.7.7s.3.7.7.7h8.9c.4 0 .7-.3.7-.7s-.3-.7-.7-.7h-3.7v-3c3.6-.3 6.4-3.3 6.4-7z"/></g></svg>