<svg width="255" height="50" viewBox="0 0 255 50" fill="none" xmlns="http://www.w3.org/2000/svg">
<path d="M3.45094 23.4343L6.23365 25.3472H11.3712L14.8892 24.6418L23.0559 25.3472L30.7533 24.6418H35.9703H39.7662L42.1534 21.5007L43.1586 17.1033L42.1534 12.8265L39.1004 10.9137L35.9703 9.00079L35.1008 6.39231L30.7533 2.56656L24.1452 1.00146H18.5805L13.3635 2.56656L9.71167 5.34892L7.79879 9.00079L6.23365 10.9137L3.45094 12.8265L1.19043 15.6089V19.2608L3.45094 23.4343Z" fill="white"/>
<path d="M73.3855 38.9384C71.3051 38.9384 69.3868 38.6122 67.6305 37.96C65.9013 37.2828 64.3883 36.3421 63.0914 35.138C61.8215 33.9088 60.8353 32.4665 60.1328 30.8109C59.4303 29.1302 59.0791 27.299 59.0791 25.3173C59.0791 23.3857 59.4439 21.6047 60.1734 19.9742C60.9029 18.3186 61.9296 16.8888 63.2535 15.6847C64.5774 14.4555 66.131 13.5023 67.9142 12.825C69.6975 12.1477 71.6293 11.8091 73.7098 11.8091C75.0607 11.8091 76.3846 11.9847 77.6815 12.3359C79.0055 12.662 80.2078 13.1511 81.2885 13.8033C82.3963 14.4555 83.342 15.2332 84.1255 16.1362L80.3159 20.0495C79.6674 19.4474 78.9919 18.9332 78.2895 18.5067C77.614 18.0552 76.8845 17.7166 76.1009 17.4908C75.3444 17.24 74.5338 17.1145 73.6692 17.1145C72.5074 17.1145 71.4132 17.3152 70.3865 17.7166C69.3868 18.1179 68.5087 18.6823 67.7521 19.4098C66.9956 20.1122 66.3877 20.9776 65.9284 22.0061C65.4961 23.0095 65.2799 24.1257 65.2799 25.3549C65.2799 26.6091 65.4961 27.7505 65.9284 28.779C66.3607 29.7824 66.9686 30.6478 67.7521 31.3753C68.5357 32.0776 69.4678 32.6295 70.5486 33.0309C71.6563 33.4071 72.8722 33.5953 74.1961 33.5953C75.0607 33.5953 75.8983 33.4824 76.7089 33.2566C77.5194 33.0309 78.2624 32.7173 78.9379 32.3159C79.6404 31.9146 80.2618 31.4505 80.8022 30.9237L83.7608 35.3261C83.1123 36.0034 82.2342 36.618 81.1264 37.1699C80.0457 37.7217 78.8298 38.1607 77.4789 38.4868C76.128 38.7878 74.7635 38.9384 73.3855 38.9384Z" fill="#1E1E1E"/>
<path d="M96.2686 38.9384C94.4853 38.9384 92.8777 38.4868 91.4457 37.5838C90.0137 36.6807 88.8789 35.4516 88.0413 33.8963C87.2038 32.341 86.785 30.56 86.785 28.5532C86.785 26.5464 87.2038 24.778 88.0413 23.2478C88.9059 21.6925 90.0677 20.4759 91.5268 19.5979C92.9858 18.6949 94.6474 18.2434 96.5117 18.2434C97.5655 18.2434 98.5246 18.3939 99.3892 18.6949C100.281 18.9708 101.051 19.3596 101.699 19.8613C102.375 20.363 102.942 20.94 103.402 21.5922C103.861 22.2444 104.185 22.9468 104.374 23.6993L103.158 23.5112V18.6572H108.873V38.5621H103.077V33.7834L104.374 33.6705C104.158 34.3729 103.807 35.0377 103.32 35.6648C102.834 36.2919 102.226 36.8563 101.497 37.358C100.794 37.8346 99.9971 38.2234 99.1055 38.5245C98.2139 38.8004 97.2682 38.9384 96.2686 38.9384ZM97.8492 34.3102C98.9299 34.3102 99.8756 34.0719 100.686 33.5953C101.497 33.1187 102.118 32.4539 102.55 31.601C103.01 30.7231 103.239 29.7071 103.239 28.5532C103.239 27.4244 103.01 26.4336 102.55 25.5807C102.118 24.7278 101.497 24.063 100.686 23.5864C99.8756 23.0847 98.9299 22.8339 97.8492 22.8339C96.7954 22.8339 95.8633 23.0847 95.0527 23.5864C94.2692 24.063 93.6477 24.7278 93.1884 25.5807C92.7291 26.4336 92.4994 27.4244 92.4994 28.5532C92.4994 29.7071 92.7291 30.7231 93.1884 31.601C93.6477 32.4539 94.2692 33.1187 95.0527 33.5953C95.8633 34.0719 96.7954 34.3102 97.8492 34.3102Z" fill="#1E1E1E"/>
<path d="M120.283 32.5793L118.581 28.177L128.713 18.6572H136.291L120.283 32.5793ZM114.812 38.5621V10.7179H120.567V38.5621H114.812ZM129.321 38.5621L121.62 29.5692L125.673 26.559L136.251 38.5621H129.321Z" fill="#1E1E1E"/>
<path d="M148.86 38.9384C146.537 38.9384 144.51 38.4994 142.781 37.6214C141.052 36.7434 139.701 35.5394 138.728 34.0092C137.756 32.479 137.269 30.7231 137.269 28.7414C137.269 27.2112 137.54 25.8064 138.08 24.5271C138.62 23.2478 139.377 22.144 140.349 21.2159C141.322 20.2627 142.47 19.5352 143.794 19.0335C145.145 18.5067 146.604 18.2434 148.171 18.2434C149.63 18.2434 150.981 18.4942 152.224 18.9959C153.467 19.4725 154.534 20.1623 155.426 21.0654C156.345 21.9434 157.047 22.9844 157.533 24.1885C158.02 25.3925 158.236 26.7095 158.182 28.1393L158.141 29.7949H140.917L139.985 26.5213H153.4L152.751 27.1986V26.3708C152.697 25.6936 152.454 25.079 152.022 24.5271C151.616 23.9752 151.089 23.5488 150.441 23.2478C149.793 22.9468 149.063 22.7962 148.252 22.7962C147.064 22.7962 146.05 23.0095 145.213 23.4359C144.402 23.8624 143.781 24.4895 143.349 25.3173C142.916 26.1451 142.7 27.1485 142.7 28.3275C142.7 29.5315 142.97 30.5726 143.511 31.4505C144.078 32.3285 144.862 33.0183 145.861 33.52C146.888 33.9966 148.09 34.2349 149.468 34.2349C150.414 34.2349 151.279 34.097 152.062 33.821C152.846 33.5451 153.683 33.0685 154.575 32.3912L157.331 35.9658C156.547 36.618 155.683 37.1699 154.737 37.6214C153.791 38.0478 152.819 38.3739 151.819 38.5997C150.819 38.8255 149.833 38.9384 148.86 38.9384Z" fill="#1E1E1E"/>
<path d="M167.112 38.5621L159.938 18.6572H165.936L170.314 32.2031L169.422 32.0902L174.245 21.5169H177.649L182.675 32.1278L181.702 32.2031L186.079 18.6572H192.077L184.782 38.5621H180.608L175.542 27.2363L176.19 27.3115L171.246 38.5621H167.112Z" fill="#1E1E1E"/>
<path d="M203.172 38.9384C201.389 38.9384 199.781 38.4868 198.349 37.5838C196.917 36.6807 195.783 35.4516 194.945 33.8963C194.107 32.341 193.689 30.56 193.689 28.5532C193.689 26.5464 194.107 24.778 194.945 23.2478C195.81 21.6925 196.971 20.4759 198.43 19.5979C199.889 18.6949 201.551 18.2434 203.415 18.2434C204.469 18.2434 205.428 18.3939 206.293 18.6949C207.184 18.9708 207.954 19.3596 208.603 19.8613C209.278 20.363 209.846 20.94 210.305 21.5922C210.764 22.2444 211.089 22.9468 211.278 23.6993L210.062 23.5112V18.6572H215.776V38.5621H209.981V33.7834L211.278 33.6705C211.062 34.3729 210.71 35.0377 210.224 35.6648C209.738 36.2919 209.13 36.8563 208.4 37.358C207.698 37.8346 206.901 38.2234 206.009 38.5245C205.118 38.8004 204.172 38.9384 203.172 38.9384ZM204.753 34.3102C205.833 34.3102 206.779 34.0719 207.59 33.5953C208.4 33.1187 209.022 32.4539 209.454 31.601C209.913 30.7231 210.143 29.7071 210.143 28.5532C210.143 27.4244 209.913 26.4336 209.454 25.5807C209.022 24.7278 208.4 24.063 207.59 23.5864C206.779 23.0847 205.833 22.8339 204.753 22.8339C203.699 22.8339 202.767 23.0847 201.956 23.5864C201.173 24.063 200.551 24.7278 200.092 25.5807C199.633 26.4336 199.403 27.4244 199.403 28.5532C199.403 29.7071 199.633 30.7231 200.092 31.601C200.551 32.4539 201.173 33.1187 201.956 33.5953C202.767 34.0719 203.699 34.3102 204.753 34.3102Z" fill="#1E1E1E"/>
<path d="M221.756 38.5621V10.7179H227.511V38.5621H221.756Z" fill="#1E1E1E"/>
<path d="M238.991 32.5793L237.289 28.177L247.421 18.6572H255L238.991 32.5793ZM233.52 38.5621V10.7179H239.275V38.5621H233.52ZM248.029 38.5621L240.329 29.5692L244.382 26.559L254.959 38.5621H248.029Z" fill="#1E1E1E"/>
<path d="M29.7093 44.113L30.741 37.1109C30.741 37.1109 26.1953 37.0893 26.1953 37.0891L26.1823 44.8629L26.1088 48.4236L34.4449 48.4635C35.7554 44.9546 29.7092 44.1127 29.7092 44.1127L29.7093 44.113Z" fill="#1E1E1E"/>
<path d="M16.1322 43.0521L21.0945 37.9363C21.0945 37.9363 17.4036 35.3227 17.4037 35.3226L12.8172 41.649L10.6613 44.5081L17.4297 49.3012C20.5629 47.1906 16.1323 43.0519 16.1323 43.0519L16.1322 43.0521Z" fill="#1E1E1E"/>
<path fill-rule="evenodd" clip-rule="evenodd" d="M3.12061 21.8918C3.12061 21.8918 4.69918 24.4249 7.89047 24.4249C11.0818 24.4249 13.7909 22.2258 13.7909 22.2258C13.7909 22.2258 16.6587 24.8961 21.286 24.8961C26.5516 24.8961 29.8177 22.0688 29.8177 22.0688C29.8177 22.0688 34.1045 25.1572 38.4292 24.0322C41.4754 23.2397 41.3673 22.7756 41.3673 22.7756L38.6974 36.8572L38.6946 36.8687C38.201 38.9439 36.3422 40.3952 34.1783 40.3952H10.4771C8.31308 40.3952 6.45372 38.944 5.96077 36.8685L5.95807 36.8571L3.12061 21.8918Z" fill="#1E1E1E"/>
<path fill-rule="evenodd" clip-rule="evenodd" d="M37.835 29.5362C37.8916 27.9406 36.6243 26.6019 35.0043 26.5461C33.3842 26.4904 32.0252 27.7388 31.9686 29.3342C31.912 30.9299 33.1793 32.2686 34.7993 32.3243C36.4193 32.38 37.7784 31.1318 37.835 29.5362ZM37.1485 29.5133C37.1485 30.2511 36.5412 30.8492 35.7922 30.8492C35.0431 30.8492 34.4359 30.2511 34.4359 29.5133C34.4359 28.7755 35.0431 28.1773 35.7922 28.1773C36.1281 28.1773 36.4355 28.2976 36.6724 28.4969C36.4006 28.534 36.1913 28.7638 36.1913 29.0417C36.1913 29.3455 36.4413 29.5918 36.7498 29.5918C36.9046 29.5918 37.0447 29.5298 37.1459 29.4295C37.1476 29.4572 37.1485 29.4851 37.1485 29.5133ZM29.7975 34.2722C29.6899 34.1354 29.4901 34.11 29.3507 34.2156C29.211 34.3214 29.1849 34.5188 29.2923 34.6564L29.5453 34.4647C29.2923 34.6564 29.2924 34.6565 29.2925 34.6566L29.2927 34.6568L29.293 34.6573L29.294 34.6585L29.2965 34.6617L29.3044 34.6714C29.3109 34.6793 29.3198 34.6899 29.3311 34.7029C29.3537 34.7288 29.3859 34.7643 29.4274 34.8062C29.5099 34.8897 29.6306 35 29.7858 35.1104C30.0943 35.3299 30.5555 35.5607 31.1325 35.5607C31.7095 35.5607 32.1707 35.3299 32.4793 35.1104C32.6345 35 32.7551 34.8897 32.8377 34.8062C32.8791 34.7643 32.9113 34.7288 32.9339 34.7029C32.9452 34.6899 32.9541 34.6793 32.9606 34.6714L32.9685 34.6617L32.9711 34.6585L32.972 34.6573L32.9724 34.6568L32.9726 34.6566C32.9726 34.6565 32.9727 34.6564 32.7313 34.4735L32.9727 34.6564C33.0802 34.5188 33.054 34.3214 32.9143 34.2156C32.7747 34.1098 32.5745 34.1354 32.467 34.2729C32.4669 34.273 32.4668 34.2731 32.7198 34.4647L32.4668 34.2731L32.4647 34.2756C32.4618 34.2792 32.4566 34.2854 32.4493 34.2937C32.4347 34.3105 32.4116 34.3361 32.3805 34.3675C32.3181 34.4306 32.2251 34.5157 32.1056 34.6007C31.8647 34.7721 31.5323 34.9321 31.1325 34.9321C30.7328 34.9321 30.4003 34.7721 30.1595 34.6007C30.0399 34.5157 29.9469 34.4306 29.8845 34.3675C29.8534 34.3361 29.8303 34.3105 29.8157 34.2937C29.8084 34.2854 29.8033 34.2792 29.8003 34.2756L29.7975 34.2722ZM26.1028 26.7653C24.4828 26.8211 23.2155 28.1598 23.2721 29.7554C23.3287 31.351 24.6878 32.5993 26.3078 32.5435C27.9277 32.4878 29.195 31.1491 29.1385 29.5535C29.0819 27.958 27.7229 26.7096 26.1028 26.7653ZM27.0217 31.0071C26.2727 31.0071 25.6655 30.409 25.6655 29.6712C25.6655 28.9334 26.2727 28.3353 27.0217 28.3353C27.4241 28.3353 27.7856 28.5079 28.034 28.782C27.7608 28.8179 27.5501 29.0483 27.5501 29.3272C27.5501 29.631 27.8002 29.8773 28.1086 29.8773C28.2032 29.8773 28.2924 29.8541 28.3705 29.8132C28.2985 30.4842 27.7221 31.0071 27.0217 31.0071Z" fill="white"/>
<path fill-rule="evenodd" clip-rule="evenodd" d="M6.79523 9.10873C6.72834 9.12906 6.65978 9.15046 6.58969 9.17297C5.68648 9.46298 4.46261 9.95797 3.31306 10.7752C2.15587 11.5979 1.00711 12.7971 0.410647 14.4935C-0.192368 16.2085 -0.154136 18.2137 0.677794 20.4938C1.52955 22.8283 2.9099 24.3705 4.68008 25.1532C6.39229 25.9103 8.185 25.8295 9.65725 25.51C11.1384 25.1885 12.4674 24.5895 13.3978 24.0967C13.5577 24.012 13.7079 23.9294 13.8471 23.8504C14.2446 24.0816 14.7381 24.3447 15.3158 24.6069C16.9043 25.3278 19.1833 26.0654 21.8787 26.0654C24.5741 26.0654 26.8531 25.3278 28.4416 24.6069C29.006 24.3508 29.4901 24.0937 29.8827 23.8664C30.0069 23.9399 30.1397 24.0164 30.2803 24.0946C31.1928 24.6018 32.5031 25.2184 33.9869 25.551C35.4698 25.8833 37.2635 25.961 39.0115 25.2111C40.7996 24.444 42.2658 22.9292 43.2762 20.5958C44.2734 18.2924 44.417 16.2401 43.8198 14.4673C43.2301 12.7172 42.0086 11.5084 40.7938 10.6987C39.5849 9.89298 38.287 9.4156 37.3323 9.13987C37.2372 9.1124 37.1447 9.08671 37.0552 9.06272C37.0357 8.97642 37.0142 8.88739 36.9907 8.79585C36.7315 7.78667 36.2155 6.44962 35.1869 5.11469C33.0646 2.3605 29.0707 0 21.8787 0C14.6877 0 10.7145 2.36062 8.62003 5.12755C7.60595 6.46718 7.1069 7.80817 6.86101 8.81892C6.83676 8.91859 6.81492 9.01529 6.79523 9.10873ZM35.3459 10.6236C35.3459 10.6236 35.3459 1.88489 21.8787 1.88489C8.41146 1.88489 8.5301 10.6236 8.5301 10.6236C8.5301 10.6236 -0.378298 12.026 2.47868 19.8563C5.33566 27.6867 13.8695 21.6094 13.8695 21.6094C13.8695 21.6094 17.1919 24.1806 21.8787 24.1806C26.5655 24.1806 29.8878 21.6094 29.8878 21.6094C29.8878 21.6094 38.0749 27.8035 41.5159 19.8563C44.9569 11.9091 35.3459 10.6236 35.3459 10.6236Z" fill="#1E1E1E"/>
<rect width="4.45601" height="1.46619" rx="0.733095" transform="matrix(0.786593 0.617471 -0.734248 0.678881 35.9978 12.5657)" fill="#3A6AA4"/>
<rect width="4.48878" height="1.45504" rx="0.727519" transform="matrix(-0.814119 0.580698 -0.70093 -0.71323 9.61523 14.3889)" fill="#E06341"/>
<rect width="4.15016" height="1.56275" rx="0.781374" transform="matrix(-0.394883 0.918732 -0.954627 -0.297805 33.5869 16.4867)" fill="#A777DB"/>
<path d="M12.4075 16.8931C12.6561 16.5852 13.1345 16.4978 13.4759 16.6979L16.1661 18.2746C16.5076 18.4747 16.5828 18.8865 16.3342 19.1945V19.1945C16.0855 19.5024 15.6071 19.5898 15.2657 19.3897L12.5755 17.813C12.234 17.6129 12.1588 17.2011 12.4075 16.8931V16.8931Z" fill="#25A455"/>
<rect width="4.60655" height="1.41078" rx="0.705391" transform="matrix(0.481501 0.876446 -0.928353 0.371699 14.5427 7.53931)" fill="#3A6AA4"/>
<rect width="4.26458" height="1.52813" rx="0.764067" transform="matrix(-0.583751 0.811933 -0.886553 -0.462626 30.4729 12.1732)" fill="#25A455"/>
<rect width="4.56743" height="1.42591" rx="0.712957" transform="matrix(0.558786 0.829312 -0.89827 0.439443 22.3281 16.9639)" fill="#D89F13"/>
<rect width="1.5267" height="1.41523" rx="0.707617" transform="matrix(0.898713 0.438537 -0.557935 0.829884 21.1992 11.4662)" fill="#E06341"/>
<rect width="1.5267" height="1.41523" rx="0.707617" transform="matrix(0.898713 0.438537 -0.557935 0.829884 29.0134 5.65442)" fill="#3A6AA4"/>
<rect width="1.5267" height="1.41523" rx="0.707617" transform="matrix(0.898713 0.438536 -0.557935 0.829884 16.7341 4.08374)" fill="#D89F13"/>
<rect width="1.52671" height="1.41523" rx="0.707617" transform="matrix(0.898714 0.438536 -0.557936 0.829884 37.4653 18.8488)" fill="#E06341"/>
<rect width="1.5267" height="1.41523" rx="0.707616" transform="matrix(0.898714 0.438536 -0.557936 0.829884 6.6875 19.7911)" fill="#D89F13"/>
<rect width="4.62114" height="1.40226" rx="0.701129" transform="matrix(-0.664584 0.747213 -0.680917 -0.732361 25.0732 4.48242)" fill="#A777DB"/>
</svg>
