<?xml version="1.0" encoding="utf-8"?>
<!-- Generator: Adobe Illustrator 27.3.1, SVG Export Plug-In . SVG Version: 6.00 Build 0)  -->
<svg version="1.1" id="Calque_1" xmlns="http://www.w3.org/2000/svg" xmlns:xlink="http://www.w3.org/1999/xlink" x="0px" y="0px"
	 viewBox="0 0 1546 708.7" style="enable-background:new 0 0 1546 708.7;" xml:space="preserve">
<style type="text/css">
	.st0{display:none;}
	.st1{display:inline;}
	.st2{clip-path:url(#SVGID_00000101061695955483447420000004097055456520996229_);}
	.st3{clip-path:url(#SVGID_00000068668629186429939850000016884839052841965757_);}
	.st4{clip-path:url(#SVGID_00000129914629270361372590000003726806807395017866_);}
	.st5{clip-path:url(#SVGID_00000052811443663054897990000005252036553805899153_);}
	.st6{display:none;fill:#010202;stroke:#FFFFFF;stroke-miterlimit:10;}
	.st7{fill:#122034;}
	.st8{fill:#E94A4C;}
	.st9{fill:#FFFFFF;}
	.st10{font-family:'Helvetica';}
	.st11{font-size:74px;}
</style>
<g class="st0">
	<g class="st1">
		<defs>
			<rect id="SVGID_1_" x="-610.3" y="365.1" width="572" height="277.9"/>
		</defs>
		<clipPath id="SVGID_00000008111707408050559330000001411075183090104242_">
			<use xlink:href="#SVGID_1_"  style="overflow:visible;"/>
		</clipPath>
		<g style="clip-path:url(#SVGID_00000008111707408050559330000001411075183090104242_);">
			<g>
				<defs>
					<rect id="SVGID_00000118357506084286610260000015936686564192014012_" x="-610.3" y="364.7" width="572.1" height="278.4"/>
				</defs>
				<clipPath id="SVGID_00000027592015847120154050000001125878752420329617_">
					<use xlink:href="#SVGID_00000118357506084286610260000015936686564192014012_"  style="overflow:visible;"/>
				</clipPath>
				<g style="clip-path:url(#SVGID_00000027592015847120154050000001125878752420329617_);">
					
						<image style="overflow:visible;enable-background:new    ;" width="1192" height="581" xlink:href="88EABD0D41CE35F7.jpg"  transform="matrix(0.4798 0 0 0.4798 -610.2014 364.5403)">
					</image>
				</g>
			</g>
		</g>
	</g>
</g>
<g class="st0">
	<g class="st1">
		<defs>
			<path id="SVGID_00000117661354923143536850000006406049026554571169_" d="M-605.9,352.7c0,153.2,124.2,277.4,277.4,277.4
				S-51.2,505.9-51.2,352.7S-175.4,75.4-328.5,75.4C-481.7,75.4-605.9,199.6-605.9,352.7"/>
		</defs>
		<clipPath id="SVGID_00000072257454459387248560000015124918565735082405_">
			<use xlink:href="#SVGID_00000117661354923143536850000006406049026554571169_"  style="overflow:visible;"/>
		</clipPath>
		<g style="clip-path:url(#SVGID_00000072257454459387248560000015124918565735082405_);">
			<g>
				<defs>
					<rect id="SVGID_00000109746349046333377730000001059038079365045417_" x="-606" y="75.2" width="555" height="555"/>
				</defs>
				<clipPath id="SVGID_00000167386794638309662180000007904064271845111459_">
					<use xlink:href="#SVGID_00000109746349046333377730000001059038079365045417_"  style="overflow:visible;"/>
				</clipPath>
				<g style="clip-path:url(#SVGID_00000167386794638309662180000007904064271845111459_);">
					
						<image style="overflow:visible;enable-background:new    ;" width="3115" height="3112" xlink:href="88EABD0D41CE35F5.jpg"  transform="matrix(0.1765 0 0 0.1801 -603.4614 72.5779)">
					</image>
				</g>
			</g>
		</g>
	</g>
</g>
<rect x="-3.9" y="157.3" class="st6" width="1609.4" height="360"/>
<rect x="33.1" y="345.7" class="st7" width="502.6" height="38.1"/>
<rect x="1007.4" y="345.7" class="st8" width="505.4" height="38.1"/>
<rect x="535.7" y="345.7" class="st9" width="471.7" height="38.1"/>
<text transform="matrix(1 0 0 1 25.8887 476.2617)" class="st10 st11">CLOUD CONFIDENCE &amp; CYBERSECURITY</text>
<g>
	<g>
		<g>
			<path d="M120.5,212.6c-9.5,0.9-10.2,1.6-10.2,11.9v46.8c0,10.2,1,10.9,10.2,11.8v4.3h-37V283c9.7-0.9,10.6-1.7,10.6-11.9v-22.6
				H60.9v22.6c0,10.3,1,11.1,10,11.9v4.3H34.7V283c8.9-0.9,10-1.6,10-11.9v-46.6c0-10.3-1.1-11.1-10.4-11.9v-4.3h36.4v4.3
				c-8.7,0.9-9.7,1.6-9.7,11.9v17.9h33.2v-17.9c0-10.3-1-11.1-10-11.9v-4.3h36.4V212.6z"/>
		</g>
		<g>
			<path d="M295,267.1c-0.7,5.5-3.3,16.5-4.3,20.2h-61.9V283c10.3-0.9,11.5-1.6,11.5-11.9v-46.6c0-10.6-1.2-11.2-9.8-11.9v-4.3h57.2
				c0.1,2.2,0.7,10.7,1.2,18.2l-4.4,0.6c-1.2-4.3-2.8-8.3-5-10.4c-2.1-2.2-5.3-3-12.1-3h-5.8c-4.5,0-5,0.2-5,4.3v25.7h8.1
				c10.2,0,11.8-0.6,13.5-9.1h4.4v24.5h-4.4c-1.7-8.7-3.2-9.2-13.5-9.2h-8.1v21c0,5.7,0.5,8.7,2.9,10c2.2,1,6.3,1.2,10.9,1.2
				c6.2,0,10.6-0.9,13.5-3.9c2.3-2.7,4.5-6.6,6.8-11.9L295,267.1z"/>
		</g>
		<g>
			<path d="M439.1,287.3V283c8-1.5,7.5-3.2,5.3-7.2c-1.2-2.1-4-6.7-12.9-21.7c-5.8,8.6-10.7,16.5-13.4,21.4
				c-2.9,5.2-1.8,6.2,6.4,7.5v4.3h-30.5V283c6.6-0.7,10.9-2.7,14.5-6.7c4.4-5.6,12.9-16.5,19.8-27c-5.8-9.6-10.8-18-17.2-28.1
				c-3.5-5.7-6.8-7.9-14.9-8.7v-4.3h36.7v4.3c-6.8,1.6-6.6,2.9-5.1,5.8c2.1,3.9,6,10.2,10.9,18.3c3.8-5,8-11.7,10.9-17
				c2.3-4.4,1.9-5.6-5.8-7.2v-4.3h29.3v4.3c-7.8,1.1-11.1,2.4-16,8.4c-4.3,4.9-9.4,12-15.2,20c7.2,11.3,13.1,21,20.2,31.9
				c5,7.8,7.7,9.2,16,10.1v4.3H439.1z"/>
		</g>
		<g>
			<path d="M617.7,287.3V283c7.2-1.1,7.8-2.6,5.8-7.9c-1.2-3.6-3-8.7-4.9-13.7h-23.3c-1.3,3.8-2.9,8.1-4.4,13
				c-1.7,5.8-1.5,7.5,7.4,8.6v4.3h-27.2l0.1-4.3c8-1,9.5-2.3,13.5-12.5l24.9-62.4l6.2-1.6c7.8,21.3,15.3,42.4,23.2,63.3
				c4.1,10.7,5.7,12.3,13.4,13.2v4.3H617.7z M607.4,228.8H607c-3.4,8.9-6.4,17.6-9.6,26.2h18.9L607.4,228.8z"/>
		</g>
		<g>
			<path d="M991.7,288.4c-0.7,0-2.2-0.1-3.6-0.1c-15.3-0.7-20-4.1-24.9-11.8c-3.2-5-6.4-11.5-10-17.9c-1.9-3.8-4.1-5.2-8-5.3h-2.3
				V271c0,10,1.2,11.2,10.3,12v4.3h-36.7V283c9.1-0.9,10.4-2.1,10.4-12v-46.6c0-9.7-1.1-10.9-10-11.8v-4.3h34.1
				c10.6,0,16.8,1.2,21.6,4.6c4.9,3.2,8.3,8.6,8.3,16.2c0,10.7-7,16.4-15.2,19.8c1.7,3.5,6.3,11.7,9.8,17.2
				c4.4,6.7,6.9,10.6,9.4,13.1c2.7,2.8,4.6,4.3,7.4,5.2L991.7,288.4z M946,248.6c5.1,0,9.2-0.8,11.9-3.3c4.1-3.4,5.8-8.3,5.8-14.5
				c0-12.9-7.5-17.6-14.3-17.6c-3,0-4.7,0.5-5.5,1.2c-0.8,0.7-1.1,1.9-1.1,4.5v29.6H946z"/>
		</g>
		<g>
			<path d="M1174.1,212.6c-6.7,0.4-9.7,2.9-10.3,7.2c-0.6,3.8-1.1,8.3-1.1,16.9v13.2c0,12.9-1.9,23.1-8.7,30.4
				c-5.6,5.8-13.8,8.9-22.5,8.9c-8,0-15.7-1.7-21.5-6.3c-6.9-5.3-10.1-14.3-10.1-28.5v-28.5c0-11.4-1.2-12.3-10.2-13.1v-4.3h36.6
				v4.3c-8.9,0.9-10.1,1.7-10.1,13.1v26.4c0,18.2,6.6,28.8,19.7,28.8c14.5,0,20.8-10.9,20.8-31.2v-13c0-8.6-0.6-13.2-1.2-16.9
				c-0.6-4.3-3.5-6.7-11.8-7.2v-4.3h30.5V212.6z"/>
		</g>
		<g>
			<path d="M1323.2,228.2c-2.6-7.7-7-16.6-17-16.6c-6.8,0-11.8,5.1-11.8,12c0,6.7,4.4,10.6,15.1,15.9c12.8,6.2,21.5,13,21.5,25
				c0,13.8-11.8,24.7-29.5,24.7c-4.4,0-8.6-0.6-12.3-1.7c-3.4-1-5.7-1.9-7.4-2.7c-1.1-3-2.7-13.2-3.5-20.6l4.3-1.3
				c2.4,7.8,9.6,21.4,21.3,21.4c7.4,0,12.1-5.1,12.1-12.8c0-7.2-5.3-11.7-14.5-16.5c-12.5-6.3-21.1-12.9-21.1-24.5
				c0-13.4,10.6-23.8,27.8-23.8c7.8,0,14.7,2.4,16.9,3.3c0.5,4.5,1.3,9.8,2.3,17.4L1323.2,228.2z"/>
		</g>
		<g>
			<path d="M1502.4,229.1c-1.5-6.3-3.2-10.3-5.3-12.5c-2.1-2.2-5.2-2.9-12.3-2.9h-5.6v57.4c0,10.3,1.2,11.1,11.9,11.9v4.3h-39.6V283
				c10.2-0.9,11.4-1.6,11.4-11.9v-57.4h-4.1c-10,0-12.1,1.3-14,3.3c-1.9,2.1-3.5,6.2-5.1,12.3h-4.4c0.5-8.9,1.2-17.7,1.5-23.9h2.9
				c1.9,2.8,3.5,3,6.9,3h48.8c3.3,0,5-0.7,7-3h2.9c0.1,5.1,0.7,15.8,1.3,23.6L1502.4,229.1z"/>
		</g>
	</g>
	<g>
		<path d="M802.7,229.1c-1.5-6.3-3.2-10.3-5.3-12.5c-2.1-2.2-5.2-2.9-12.3-2.9h-5.6v57.4c0,10.3,1.2,11.1,11.9,11.9v4.3h-39.6V283
			c10.2-0.9,11.4-1.6,11.4-11.9v-57.4h-4.1c-10,0-12.1,1.3-14,3.3c-1.9,2.1-3.5,6.2-5.1,12.3h-4.4c0.5-8.9,1.2-17.7,1.5-23.9h2.9
			c1.9,2.8,3.5,3,6.9,3h48.8c3.3,0,5-0.7,7-3h2.9c0.1,5.1,0.7,15.8,1.3,23.6L802.7,229.1z"/>
	</g>
</g>
</svg>
