<svg viewBox="0 0 582.43 171.62" xmlns="http://www.w3.org/2000/svg"><g fill="#333132"><path d="m294.82 167.14c-10.02 0-19.04-2.38-27.06-7.14s-14.37-11.29-19.06-19.6c-4.69-8.3-7.03-17.75-7.03-28.35v-49.29c0-11.24 2.34-21.12 7.03-29.64s11.2-15.14 19.54-19.87c8.34-4.72 17.95-7.09 28.83-7.09 8.16 0 15.82 1.54 22.98 4.62s13.35 7.66 18.58 13.75l-16.43 15.35c-2.94-3.79-6.6-6.82-11.01-9.07-4.4-2.25-9.11-3.38-14.12-3.38-6.44 0-12.1 1.52-16.96 4.56-4.87 3.04-8.68 7.03-11.44 11.97s-4.13 10.24-4.13 15.89v28.35l-4.4-4.94c4.44-5.8 9.95-10.38 16.54-13.74 6.58-3.36 13.64-5.05 21.15-5.05 9.59 0 18.16 2.24 25.72 6.71 7.55 4.47 13.49 10.54 17.83 18.2 4.33 7.66 6.5 16.29 6.5 25.88s-2.42 18.42-7.25 26.25c-4.83 7.84-11.27 14.07-19.33 18.68-8.05 4.62-16.88 6.93-26.47 6.93zm0-21.58c5.58 0 10.67-1.36 15.25-4.08s8.23-6.37 10.95-10.95 4.08-9.66 4.08-15.25-1.34-10.67-4.03-15.25c-2.68-4.58-6.32-8.23-10.9-10.95s-9.66-4.08-15.25-4.08-10.68 1.36-15.3 4.08-8.29 6.37-11.01 10.95-4.08 9.66-4.08 15.25 1.36 10.56 4.08 15.14 6.37 8.25 10.95 11.01 9.66 4.13 15.25 4.13z"/><path d="m412.4 167.14c-7.95 0-15.34-1.63-22.17-4.89-6.84-3.26-12.69-7.77-17.56-13.53s-8.34-12.4-10.42-19.92l21.58-5.8c1.22 4.58 3.31 8.56 6.28 11.92 2.97 3.37 6.46 5.96 10.47 7.79s8.16 2.74 12.46 2.74c5.65 0 10.79-1.36 15.41-4.08s8.27-6.37 10.95-10.95 4.03-9.63 4.03-15.14-1.38-10.77-4.13-15.35c-2.76-4.58-6.44-8.21-11.06-10.9-4.62-2.68-9.68-4.03-15.19-4.03-6.3 0-11.63 1.25-16 3.76s-7.77 5.41-10.2 8.7l-19.54-6.87 4.72-81.29h83.43v21.15h-71.94l9.13-8.48-3.76 60.88-4.4-5.69c4.08-4.08 8.95-7.19 14.6-9.34s11.27-3.22 16.86-3.22c9.59 0 18.16 2.22 25.72 6.66 7.55 4.44 13.51 10.47 17.88 18.09s6.55 16.27 6.55 25.93-2.47 18.31-7.41 26.15-11.49 14.08-19.65 18.74c-8.16 4.65-17.04 6.98-26.63 6.98z"/><path d="m512.09 52.25c-3.87 0-7.4-.95-10.6-2.84s-5.75-4.43-7.64-7.61-2.84-6.73-2.84-10.63.98-7.34 2.93-10.54 4.53-5.76 7.73-7.67 6.68-2.87 10.42-2.87 7.39.95 10.57 2.84 5.73 4.43 7.64 7.61 2.87 6.73 2.87 10.63-.96 7.45-2.87 10.63-4.46 5.72-7.64 7.61-6.71 2.84-10.57 2.84zm-9.37 43.93-8.2-8.2 76.2-76.14 8.2 8.26zm9.37-54.53c1.87 0 3.61-.48 5.21-1.43 1.6-.96 2.88-2.24 3.84-3.84s1.44-3.34 1.44-5.21-.48-3.61-1.44-5.21-2.24-2.88-3.84-3.84-3.34-1.43-5.21-1.43-3.6.48-5.18 1.43c-1.58.96-2.86 2.24-3.84 3.84s-1.46 3.34-1.46 5.21.49 3.61 1.46 5.21c.98 1.6 2.25 2.88 3.81 3.84s3.3 1.43 5.21 1.43zm49.26 56.29c-3.87 0-7.39-.95-10.57-2.84s-5.73-4.43-7.64-7.61-2.87-6.73-2.87-10.63.98-7.34 2.93-10.54 4.53-5.76 7.73-7.67 6.68-2.87 10.42-2.87 7.4.95 10.6 2.84 5.75 4.43 7.64 7.61 2.84 6.73 2.84 10.63-.95 7.45-2.84 10.63-4.44 5.72-7.64 7.61-6.74 2.84-10.6 2.84zm0-10.6c1.91 0 3.66-.48 5.24-1.44s2.85-2.23 3.81-3.84c.96-1.6 1.43-3.34 1.43-5.21s-.48-3.61-1.43-5.21c-.96-1.6-2.23-2.88-3.81-3.84s-3.33-1.43-5.24-1.43-3.6.48-5.18 1.43c-1.58.96-2.85 2.24-3.81 3.84s-1.43 3.34-1.43 5.21.48 3.61 1.43 5.21c.96 1.6 2.23 2.88 3.81 3.84s3.31 1.44 5.18 1.44z"/></g><path d="m165.71 9.73c-.18-.28-.35-.55-.55-.82-.17-.22-.35-.43-.53-.64-.2-.23-.39-.45-.61-.67-.21-.21-.44-.41-.67-.61-.21-.18-.42-.36-.64-.53-.26-.2-.54-.38-.82-.55-.21-.13-.42-.27-.65-.39-.32-.18-.65-.33-.99-.47-.15-.06-.28-.15-.43-.21-.06-.02-.13-.04-.19-.06-.35-.13-.72-.23-1.08-.33-.21-.06-.43-.12-.64-.17-.35-.07-.7-.12-1.06-.16-.24-.03-.48-.07-.72-.08-.1 0-.2-.03-.3-.03l-103.24-4.01-.96 24.55 75.17 2.91-83.74 83.74-43.06 43.06 17.37 17.37 43.06-43.06 83.75-83.75 2.91 75.17 24.55-.96-4-103.24c0-.1-.03-.2-.03-.3-.02-.24-.05-.48-.08-.72-.04-.36-.09-.71-.16-1.06-.05-.22-.11-.43-.17-.64-.1-.37-.2-.73-.33-1.08-.02-.06-.03-.13-.06-.19-.06-.15-.14-.28-.21-.43-.15-.34-.3-.67-.47-.99-.12-.22-.26-.43-.39-.65z" fill="#014750"/></svg>