<svg enable-background="new 0 0 567.3 368.5" viewBox="0 0 567.3 368.5" xmlns="http://www.w3.org/2000/svg" xmlns:xlink="http://www.w3.org/1999/xlink"><linearGradient id="data-01-a"><stop offset="0" stop-color="#8878c8"/><stop offset=".16" stop-color="#8071bf"/><stop offset=".41" stop-color="#6c61a6"/><stop offset=".73" stop-color="#4c467f"/><stop offset="1" stop-color="#2d2d59"/></linearGradient><linearGradient id="data-01-b" gradientTransform="matrix(1 0 0 -1 0 397.9551)" gradientUnits="userSpaceOnUse" x1="22.2284" x2="130.0484" xlink:href="#data-01-a" y1="213.7063" y2="213.7063"/><linearGradient id="data-01-c" gradientTransform="matrix(1 0 0 -1 0 397.9551)" gradientUnits="userSpaceOnUse" x1="124.8884" x2="232.7084" xlink:href="#data-01-a" y1="213.7063" y2="213.7063"/><linearGradient id="data-01-d" gradientTransform="matrix(1 0 0 -1 0 397.9551)" gradientUnits="userSpaceOnUse" x1="22.2284" x2="232.7085" xlink:href="#data-01-a" y1="66.7913" y2="66.7913"/><linearGradient id="data-01-e" gradientTransform="matrix(1 0 0 -1 0 397.9551)" gradientUnits="userSpaceOnUse" x1="22.2284" x2="232.7085" xlink:href="#data-01-a" y1="100.0313" y2="100.0313"/><linearGradient id="data-01-f" gradientTransform="matrix(1 0 0 -1 0 397.9551)" gradientUnits="userSpaceOnUse" x1="22.2284" x2="232.7085" xlink:href="#data-01-a" y1="133.2963" y2="133.2963"/><linearGradient id="data-01-g" gradientTransform="matrix(1 0 0 -1 0 397.9551)" gradientUnits="userSpaceOnUse" x1="22.2284" x2="232.7085" xlink:href="#data-01-a" y1="166.5613" y2="166.5613"/><linearGradient id="data-01-h" gradientTransform="matrix(1 0 0 -1 0 397.9551)" gradientUnits="userSpaceOnUse" x1="22.2284" x2="232.7085" xlink:href="#data-01-a" y1="199.8213" y2="199.8213"/><linearGradient id="data-01-i" gradientTransform="matrix(1 0 0 -1 0 397.9551)" gradientUnits="userSpaceOnUse" x1="22.2284" x2="232.7085" xlink:href="#data-01-a" y1="233.0863" y2="233.0863"/><linearGradient id="data-01-j" gradientTransform="matrix(1 0 0 -1 0 397.9551)" gradientUnits="userSpaceOnUse" x1="22.2284" x2="232.7085" xlink:href="#data-01-a" y1="266.3413" y2="266.3413"/><linearGradient id="data-01-k" gradientTransform="matrix(1 0 0 -1 0 397.9551)" gradientUnits="userSpaceOnUse" x1="22.2284" x2="232.7085" xlink:href="#data-01-a" y1="299.6063" y2="299.6063"/><linearGradient id="data-01-l" gradientTransform="matrix(1 0 0 -1 0 397.9551)" gradientUnits="userSpaceOnUse" x1="22.2284" x2="232.7085" xlink:href="#data-01-a" y1="332.8713" y2="332.8713"/><linearGradient id="data-01-m" gradientTransform="matrix(1 0 0 -1 0 397.9551)" gradientUnits="userSpaceOnUse" x1="1.6384" x2="253.4384" xlink:href="#data-01-a" y1="33.6913" y2="33.6913"/><g fill="none" stroke-linecap="round" stroke-linejoin="round" stroke-width="5.16"><g class="tower-1"><path d="m127.5 364.3v-360.1l-102.7 58v302.1" stroke="url(#data-01-b)"/><path d="m127.5 364.3v-360.1l102.7 48v312" stroke="url(#data-01-c)"/><path d="m24.8 333.3 102.7-4.3 102.7 3.6" stroke="url(#data-01-d)"/><path d="m24.8 302.9 102.7-10 102.7 8.2" stroke="url(#data-01-e)"/><path d="m24.8 272.5 102.7-15.6 102.7 12.9" stroke="url(#data-01-f)"/><path d="m24.8 242 102.7-21.3 102.7 17.6" stroke="url(#data-01-g)"/><path d="m24.8 211.6 102.7-26.9 102.6 22.3" stroke="url(#data-01-h)"/><path d="m24.8 181.2 102.7-32.6 102.7 27" stroke="url(#data-01-i)"/><path d="m24.8 150.7 102.7-38.2 102.7 31.7" stroke="url(#data-01-j)"/><path d="m24.8 120.3 102.7-43.9 102.7 36.4" stroke="url(#data-01-k)"/><path d="m24.8 89.8 102.7-49.5 102.7 41" stroke="url(#data-01-l)"/><path d="m4.2 364.3h246.6" stroke="url(#data-01-m)"/></g><g class="tower-2" stroke="#c4c4c4"><path d="m439.7 364.3v-360.1l-102.7 58v302.1"/><path d="m439.7 364.3v-360.1l102.7 48v312"/><path d="m337.1 333.3 102.7-4.3 102.7 3.6"/><path d="m337.1 302.9 102.7-10 102.7 8.2"/><path d="m337.1 272.5 102.7-15.6 102.7 12.9"/><path d="m337.1 242 102.7-21.3 102.7 17.6"/><path d="m337.1 211.6 102.7-26.9 102.6 22.3"/><path d="m337.1 181.2 102.7-32.6 102.7 27"/><path d="m337.1 150.7 102.7-38.2 102.7 31.7"/><path d="m337.1 120.3 102.7-43.9 102.7 36.4"/><path d="m337.1 89.8 102.7-49.5 102.7 41"/><path d="m316.5 364.3h246.7"/></g></g></svg>