<svg enable-background="new 0 0 564.3 570" viewBox="0 0 564.3 570" xmlns="http://www.w3.org/2000/svg" xmlns:xlink="http://www.w3.org/1999/xlink"><linearGradient id="data-02-a" gradientTransform="matrix(1 0 0 -1 0 574)" gradientUnits="userSpaceOnUse" x1="143.6691" x2="422.213" y1="47.3121" y2="529.7687"><stop offset="0" stop-color="#017f8f"/><stop offset=".22" stop-color="#017a89"/><stop offset=".5" stop-color="#016c7a" stop-opacity=".98"/><stop offset=".82" stop-color="#015560" stop-opacity=".96"/><stop offset="1" stop-color="#014750" stop-opacity=".95"/></linearGradient><clipPath id="data-02-b"><path d="m1.6 4.5v561h561v-561zm280.5 72.9c-2.6 0-5.2.1-7.8.2-16.4-3.6-28.7-18.2-28.7-35.6s11.7-31.3 27.4-35.3c3-.1 6.1-.2 9.1-.2z"/></clipPath><g fill="#333132"><path d="m215.3 345c-6.5 0-12.2-1.3-17.2-3.9s-8.9-6.2-11.7-10.9-4.2-10-4.2-16.1c0-5.7 1.3-10.9 4-15.7s6.6-8.5 11.9-11.2l-.3 5c-4.2-2.6-7.5-5.9-9.8-9.8s-3.4-8.3-3.4-13.2c0-5.6 1.3-10.5 3.9-14.7s6.2-7.3 10.9-9.6 9.9-3.4 15.9-3.4 11.3 1.1 15.9 3.4 8.2 5.5 10.8 9.6 3.9 9 3.9 14.7c0 4.9-1.1 9.3-3.2 13.2-2.2 3.9-5.5 7.2-9.9 9.9l-.2-4.8c5.2 2.6 9.2 6.2 11.9 11s4.1 10 4.1 15.7c0 6.1-1.4 11.5-4.3 16.1s-6.8 8.3-11.8 10.9c-5.1 2.5-10.8 3.8-17.2 3.8zm0-13.7c5.3 0 9.7-1.5 13-4.4s5-7.2 5-12.8-1.6-9.9-4.9-12.9-7.6-4.5-13-4.5-9.7 1.5-13 4.5-4.9 7.2-4.9 12.9 1.7 9.9 5 12.8 7.4 4.4 12.8 4.4zm0-48.3c4.5 0 8.2-1.1 11.1-3.4 2.8-2.3 4.2-5.7 4.2-10.4s-1.4-8.1-4.2-10.5-6.5-3.5-11.1-3.5-8.2 1.2-11.1 3.5-4.3 5.8-4.3 10.5 1.4 8.1 4.3 10.4c2.8 2.3 6.5 3.4 11.1 3.4z"/><path d="m258.2 342.9.1-12.8 43.2-38.8c3.5-3.1 5.9-6 7.1-8.8 1.3-2.8 1.9-5.6 1.9-8.4 0-3.5-.8-6.7-2.3-9.5s-3.7-5.1-6.5-6.7-5.9-2.5-9.5-2.5-7 .9-9.8 2.6c-2.9 1.7-5.1 4-6.7 6.9s-2.4 5.9-2.3 9.2h-14.8c0-6.4 1.5-12.1 4.4-16.9s6.9-8.6 12-11.4c5.1-2.7 10.9-4.1 17.5-4.1s11.9 1.4 16.8 4.2 8.9 6.7 11.8 11.6 4.3 10.5 4.3 16.8c0 4.5-.6 8.4-1.8 11.6s-3 6.1-5.4 8.8-5.4 5.7-9 8.8l-33.4 29.8-1.6-4.1h51.1v13.7z"/><path d="m350.7 271.2c-2.5 0-4.8-.6-6.8-1.8-2.1-1.2-3.7-2.9-4.9-4.9s-1.8-4.3-1.8-6.8.6-4.7 1.9-6.8 2.9-3.7 5-4.9 4.3-1.8 6.7-1.8 4.8.6 6.8 1.8 3.7 2.9 4.9 4.9 1.8 4.3 1.8 6.8-.6 4.8-1.8 6.8-2.9 3.7-4.9 4.9-4.4 1.8-6.9 1.8zm-6 28.2-5.3-5.3 48.9-48.9 5.3 5.3zm6-35c1.2 0 2.3-.3 3.3-.9s1.8-1.4 2.5-2.5c.6-1 .9-2.1.9-3.4s-.3-2.3-.9-3.4-1.4-1.9-2.5-2.5c-1-.6-2.1-.9-3.3-.9s-2.3.3-3.3.9-1.8 1.4-2.5 2.5c-.6 1-.9 2.1-.9 3.4s.3 2.3.9 3.4 1.4 1.9 2.5 2.5c.9.6 2.1.9 3.3.9zm31.6 36.1c-2.5 0-4.8-.6-6.8-1.8s-3.7-2.9-4.9-4.9-1.8-4.3-1.8-6.8.6-4.7 1.9-6.8 2.9-3.7 5-4.9 4.3-1.8 6.7-1.8 4.8.6 6.8 1.8c2.1 1.2 3.7 2.9 4.9 4.9s1.8 4.3 1.8 6.8-.6 4.8-1.8 6.8-2.8 3.7-4.9 4.9-4.4 1.8-6.9 1.8zm0-6.8c1.2 0 2.3-.3 3.4-.9s1.8-1.4 2.5-2.5c.6-1 .9-2.1.9-3.4s-.3-2.3-.9-3.4-1.4-1.9-2.5-2.5-2.1-.9-3.4-.9-2.3.3-3.3.9-1.8 1.4-2.5 2.5c-.6 1-.9 2.1-.9 3.4s.3 2.3.9 3.4 1.4 1.9 2.5 2.5c1 .6 2.1.9 3.3.9z"/></g><path d="m39.1 285c0-33.6 6.8-65.5 19.1-94.6m-19.1 94.6c0 134.2 108.8 243.1 243.1 243.1s243-108.9 243-243.1-108.8-243.1-243.1-243.1" fill="none" stroke="url(#data-02-a)" stroke-linecap="round" stroke-miterlimit="10" stroke-width="70.85"/><path d="m47.8 349.8c-5.7-20.6-8.7-42.4-8.7-64.8 0-134.2 108.8-243.1 243.1-243.1" fill="none" stroke="#e4e4e4" stroke-miterlimit="10" stroke-width="70.85"/><g clip-path="url(#data-02-b)"><path d="m39.1 285c0-33.6 6.8-65.5 19.1-94.6m-19.1 94.6c0 134.2 108.8 243.1 243.1 243.1s243-108.9 243-243.1-108.8-243.1-243.1-243.1" fill="none" stroke="url(#data-02-a)" stroke-linecap="round" stroke-miterlimit="10" stroke-width="70.85"/></g></svg>