<svg enable-background="new 0 0 378.4 243" viewBox="0 0 378.4 243" xmlns="http://www.w3.org/2000/svg"><g fill="#80afb4"><path d="m69.7 24c4.8 0 8.6-3.9 8.6-8.8s-3.9-8.8-8.6-8.8-8.6 3.9-8.6 8.8 3.8 8.8 8.6 8.8"/><path d="m80.3 26.3h-21.2s-9.1 1.1-9.1 9.2v30.1c0 1.9 1.7 3.5 3.8 3.5s3.5-1.6 3.5-3.5v-25.5h1.4v67c0 2.6 2.3 4.8 5.2 4.8s4.8-2.1 4.9-4.6v-39.8h2v39.7c.1 2.6 2.1 4.6 4.9 4.6s5.1-2.1 5.1-4.8c0-.1 0-.2 0-.2v-66.8h1.4v25.6c0 1.9 1.4 3.5 3.5 3.5s3.8-1.6 3.8-3.5v-30.1c-.1-8.1-9.2-9.2-9.2-9.2"/><path d="m129.3 24c4.8 0 8.6-3.9 8.6-8.8s-3.9-8.8-8.6-8.8-8.6 3.9-8.6 8.8 3.8 8.8 8.6 8.8"/><path d="m139.9 26.3h-21.3s-9.1 1.1-9.1 9.2v30.1c0 1.9 1.7 3.5 3.8 3.5s3.5-1.6 3.5-3.5v-25.5h1.4v67c0 2.6 2.3 4.8 5.2 4.8s4.8-2.1 4.9-4.6v-39.8h2v39.7c.1 2.6 2.1 4.6 4.9 4.6s5.1-2.1 5.1-4.8c0-.1 0-.2 0-.2v-66.8h1.4v25.6c0 1.9 1.4 3.5 3.5 3.5s3.8-1.6 3.8-3.5v-30.1c0-8.1-9.1-9.2-9.1-9.2"/><path d="m188.8 24c4.8 0 8.6-3.9 8.6-8.8s-3.9-8.8-8.6-8.8-8.6 3.9-8.6 8.8 3.9 8.8 8.6 8.8"/><path d="m199.5 26.3h-21.3s-9.1 1.1-9.1 9.2v30.1c0 1.9 1.7 3.5 3.8 3.5s3.5-1.6 3.5-3.5v-25.5h1.4v67c0 2.6 2.3 4.8 5.2 4.8s4.8-2.1 4.9-4.6v-39.8h2v39.7c.1 2.6 2.1 4.6 4.9 4.6s5.1-2.1 5.1-4.8c0-.1 0-.2 0-.2v-66.8h1.4v25.6c0 1.9 1.4 3.5 3.5 3.5s3.8-1.6 3.8-3.5v-30.1c0-8.1-9.1-9.2-9.1-9.2"/><path d="m248.4 24c4.8 0 8.6-3.9 8.6-8.8s-3.8-8.8-8.6-8.8-8.6 3.9-8.6 8.8 3.9 8.8 8.6 8.8"/><path d="m259.1 26.3h-21.3s-9.1 1.1-9.1 9.2v30.1c0 1.9 1.7 3.5 3.8 3.5s3.5-1.6 3.5-3.5v-25.5h1.4v67c0 2.6 2.3 4.8 5.2 4.8s4.8-2.1 4.9-4.6v-39.8h2v39.7c.1 2.6 2.1 4.6 4.9 4.6s5.2-2.1 5.2-4.8c0-.1 0-.2 0-.2v-66.8h1.4v25.6c0 1.9 1.4 3.5 3.5 3.5s3.8-1.6 3.8-3.5v-30.1c-.2-8.1-9.3-9.2-9.2-9.2"/><path d="m308 24c4.8 0 8.6-3.9 8.6-8.8s-3.8-8.8-8.6-8.8-8.6 3.9-8.6 8.8 3.8 8.8 8.6 8.8"/><path d="m318.6 26.3h-21.3s-9.1 1.1-9.1 9.2v30.1c0 1.9 1.7 3.5 3.8 3.5s3.5-1.6 3.5-3.5v-25.5h1.4v67c0 2.6 2.3 4.8 5.2 4.8s4.8-2.1 4.9-4.6v-39.8h2v39.7c.1 2.6 2.1 4.6 4.9 4.6s5.2-2.1 5.2-4.8c0-.1 0-.2 0-.2v-66.8h1.4v25.6c0 1.9 1.4 3.5 3.5 3.5s3.8-1.6 3.8-3.5v-30.1c-.1-8.1-9.2-9.2-9.2-9.2"/><path d="m69.7 147.4c4.8 0 8.6-3.9 8.6-8.8s-3.9-8.8-8.6-8.8-8.6 3.9-8.6 8.8 3.8 8.8 8.6 8.8"/><path d="m80.3 149.7h-21.2s-9.1 1.1-9.1 9.2v30.1c0 1.9 1.7 3.5 3.8 3.5s3.5-1.6 3.5-3.5v-25.6h1.4v67c0 2.6 2.3 4.8 5.2 4.8s4.8-2.1 4.9-4.6v-39.7h2v39.7c.1 2.6 2.1 4.6 4.9 4.6s5.1-2.1 5.1-4.8c0-.1 0-.2 0-.2v-66.7h1.4v25.5c0 1.9 1.4 3.5 3.5 3.5s3.8-1.6 3.8-3.5v-30.1c-.1-8.1-9.2-9.2-9.2-9.2"/><path d="m129.3 147.4c4.8 0 8.6-3.9 8.6-8.8s-3.9-8.8-8.6-8.8-8.6 3.9-8.6 8.8 3.8 8.8 8.6 8.8"/><path d="m139.9 149.7h-21.3s-9.1 1.1-9.1 9.2v30.1c0 1.9 1.7 3.5 3.8 3.5s3.5-1.6 3.5-3.5v-25.6h1.4v67c0 2.6 2.3 4.8 5.2 4.8s4.8-2.1 4.9-4.6v-39.7h2v39.7c.1 2.6 2.1 4.6 4.9 4.6s5.1-2.1 5.1-4.8c0-.1 0-.2 0-.2v-66.7h1.4v25.5c0 1.9 1.4 3.5 3.5 3.5s3.8-1.6 3.8-3.5v-30.1c0-8.1-9.1-9.2-9.1-9.2"/><path d="m188.8 147.4c4.8 0 8.6-3.9 8.6-8.8s-3.9-8.8-8.6-8.8-8.6 3.9-8.6 8.8 3.9 8.8 8.6 8.8"/><path d="m199.5 149.7h-21.3s-9.1 1.1-9.1 9.2v30.1c0 1.9 1.7 3.5 3.8 3.5s3.5-1.6 3.5-3.5v-25.6h1.4v67c0 2.6 2.3 4.8 5.2 4.8s4.8-2.1 4.9-4.6v-39.7h2v39.7c.1 2.6 2.1 4.6 4.9 4.6s5.1-2.1 5.1-4.8c0-.1 0-.2 0-.2v-66.7h1.4v25.5c0 1.9 1.4 3.5 3.5 3.5s3.8-1.6 3.8-3.5v-30.1c0-8.1-9.1-9.2-9.1-9.2"/></g><path d="m248.4 147.4c4.8 0 8.6-3.9 8.6-8.8s-3.8-8.8-8.6-8.8-8.6 3.9-8.6 8.8 3.9 8.8 8.6 8.8" fill="#c4c4c4"/><path d="m259.1 149.7h-21.3s-9.1 1.1-9.1 9.2v30.1c0 1.9 1.7 3.5 3.8 3.5s3.5-1.6 3.5-3.5v-25.6h1.4v67c0 2.6 2.3 4.8 5.2 4.8s4.8-2.1 4.9-4.6v-39.7h2v39.7c.1 2.6 2.1 4.6 4.9 4.6s5.2-2.1 5.2-4.8c0-.1 0-.2 0-.2v-66.7h1.4v25.5c0 1.9 1.4 3.5 3.5 3.5s3.8-1.6 3.8-3.5v-30.1c-.2-8.1-9.3-9.2-9.2-9.2" fill="#c4c4c4"/><path d="m308 147.4c4.8 0 8.6-3.9 8.6-8.8s-3.8-8.8-8.6-8.8-8.6 3.9-8.6 8.8 3.8 8.8 8.6 8.8" fill="#c4c4c4"/><path d="m318.6 149.7h-21.3s-9.1 1.1-9.1 9.2v30.1c0 1.9 1.7 3.5 3.8 3.5s3.5-1.6 3.5-3.5v-25.6h1.4v67c0 2.6 2.3 4.8 5.2 4.8s4.8-2.1 4.9-4.6v-39.7h2v39.7c.1 2.6 2.1 4.6 4.9 4.6s5.2-2.1 5.2-4.8c0-.1 0-.2 0-.2v-66.7h1.4v25.5c0 1.9 1.4 3.5 3.5 3.5s3.8-1.6 3.8-3.5v-30.1c-.1-8.1-9.2-9.2-9.2-9.2" fill="#c4c4c4"/></svg>