<svg viewBox="0 0 173.11 138.81" xmlns="http://www.w3.org/2000/svg"><g fill="#1a1a1a"><path d="m80.8 8.1c-.38 0-.74-.07-1.07-.22-.34-.15-.63-.36-.87-.62-.25-.27-.42-.59-.53-.96l1.22-.33c.09.3.25.53.48.7.23.16.49.24.77.24.25 0 .47-.06.67-.17.2-.12.35-.27.46-.47s.17-.42.17-.66c0-.38-.12-.69-.36-.94s-.55-.38-.94-.38c-.12 0-.23.02-.34.05s-.22.08-.32.13l-.58-1 2.54-2.17.11.3h-3.6v-1.21h4.64v1.2l-2.04 1.96v-.37c.45.03.84.16 1.16.38s.57.51.75.87c.17.35.26.74.26 1.16 0 .48-.12.9-.35 1.28s-.54.68-.94.9c-.39.22-.82.33-1.29.33z"/><path d="m85.19 2.22c-.2 0-.39-.05-.56-.15s-.3-.23-.4-.4-.15-.35-.15-.56.05-.39.15-.55.24-.3.41-.4.35-.15.55-.15.39.05.56.15.3.23.4.4.15.35.15.56-.05.39-.15.56-.23.3-.4.4-.35.15-.56.15zm-.43 2.31-.49-.49 3.94-3.94.49.5-3.94 3.94zm.43-2.94c.09 0 .17-.02.24-.06s.13-.1.17-.17.06-.15.06-.24-.02-.17-.06-.24-.1-.13-.17-.17-.15-.06-.24-.06-.17.02-.24.06-.13.1-.17.17-.06.15-.06.24.02.17.06.24.1.13.17.17.15.06.24.06zm2.59 3.04c-.2 0-.39-.05-.56-.15s-.3-.23-.4-.4-.15-.35-.15-.56.05-.39.15-.55c.1-.17.24-.3.41-.4s.35-.15.55-.15.39.05.56.15.3.23.4.4.15.35.15.56-.05.39-.15.56-.23.3-.4.4-.35.15-.56.15zm0-.63c.08 0 .16-.02.24-.06s.13-.1.17-.17.06-.15.06-.24-.02-.17-.06-.24-.1-.13-.17-.17-.15-.06-.24-.06-.17.02-.24.06-.13.1-.17.17-.07.15-.07.24.02.17.07.24c.04.07.1.13.17.17s.15.06.24.06z"/><path d="m63.03 12.49c-.5 0-.95-.1-1.33-.3-.39-.2-.69-.48-.91-.84s-.33-.77-.33-1.24c0-.42.1-.8.29-1.16s.47-.64.85-.86l-.03.4c-.29-.22-.52-.47-.67-.76s-.24-.61-.24-.97c0-.43.1-.81.31-1.13.2-.32.49-.57.84-.74.36-.18.77-.26 1.23-.26s.88.09 1.24.26.64.42.85.74.31.7.31 1.13c0 .36-.08.68-.23.97s-.38.55-.69.78v-.41c.36.21.64.49.83.85s.29.75.29 1.16c0 .47-.11.88-.33 1.24s-.53.64-.92.84-.84.3-1.34.3zm0-1.19c.37 0 .67-.1.91-.3s.35-.5.35-.89-.12-.69-.35-.9c-.23-.2-.53-.31-.91-.31s-.67.1-.9.31-.34.5-.34.9.11.69.34.89.53.3.9.3zm0-3.6c.31 0 .56-.08.76-.23.19-.16.29-.39.29-.71s-.1-.56-.29-.71c-.19-.16-.45-.23-.76-.23s-.56.08-.75.23c-.19.16-.29.39-.29.71s.1.56.29.71c.19.16.45.23.75.23z"/><path d="m67.49 6.6c-.2 0-.39-.05-.56-.15s-.3-.23-.4-.4-.15-.35-.15-.56.05-.39.15-.55.24-.3.41-.4.35-.15.55-.15.39.05.56.15.3.23.4.4.15.35.15.56-.05.39-.15.56-.23.3-.4.4-.35.15-.56.15zm-.43 2.31-.49-.49 3.94-3.94.49.5-3.94 3.94zm.43-2.94c.09 0 .17-.02.24-.06s.13-.1.17-.17.06-.15.06-.24-.02-.17-.06-.24-.1-.13-.17-.17-.15-.06-.24-.06-.17.02-.24.06-.13.1-.17.17-.06.15-.06.24.02.17.06.24.1.13.17.17.15.06.24.06zm2.59 3.04c-.2 0-.39-.05-.56-.15s-.3-.23-.4-.4-.15-.35-.15-.56.05-.39.15-.55c.1-.17.24-.3.41-.4s.35-.15.55-.15.39.05.56.15.3.23.4.4.15.35.15.56-.05.39-.15.56-.23.3-.4.4-.35.15-.56.15zm0-.63c.08 0 .16-.02.24-.06s.13-.1.17-.17.06-.15.06-.24-.02-.17-.06-.24-.1-.13-.17-.17-.15-.06-.24-.06-.17.02-.24.06-.13.1-.17.17-.07.15-.07.24.02.17.07.24c.04.07.1.13.17.17s.15.06.24.06z"/><path d="m131.28 22.58v-1.25h-3.35v-1.18l2.42-5.13h1.44l-2.42 5.13h1.91v-1.97h1.28v1.97h.71v1.18h-.71v1.25z"/><path d="m136.77 22.74c-.38 0-.74-.08-1.08-.24-.33-.16-.62-.38-.86-.66s-.41-.61-.52-.98l1.22-.33c.05.2.14.38.27.53s.29.26.46.34c.18.08.36.12.55.12.25 0 .47-.06.67-.18s.36-.28.48-.48.18-.42.18-.67-.06-.47-.18-.67-.28-.36-.49-.48c-.2-.12-.43-.18-.67-.18-.29 0-.53.05-.72.16-.19.1-.34.22-.44.34l-1.08-.35.23-4h4.11v1.19h-3.43l.47-.45-.17 2.78-.23-.28c.2-.18.42-.31.68-.4s.51-.13.75-.13c.47 0 .89.11 1.26.32s.65.51.86.88.31.79.31 1.27-.12.9-.37 1.28-.57.69-.97.92-.84.34-1.32.34z"/><path d="m141.18 16.84c-.2 0-.39-.05-.56-.15s-.3-.23-.4-.4-.15-.35-.15-.56.05-.39.15-.55.24-.3.41-.4.35-.15.55-.15.39.05.56.15.3.23.4.4.15.35.15.56-.05.39-.15.56-.23.3-.4.4-.35.15-.56.15zm-.43 2.31-.49-.49 3.94-3.94.49.5-3.94 3.94zm.43-2.94c.09 0 .17-.02.24-.06s.13-.1.17-.17.06-.15.06-.24-.02-.17-.06-.24-.1-.13-.17-.17-.15-.06-.24-.06-.17.02-.24.06-.13.1-.17.17-.06.15-.06.24.02.17.06.24.1.13.17.17.15.06.24.06zm2.59 3.04c-.2 0-.39-.05-.56-.15s-.3-.23-.4-.4-.15-.35-.15-.56.05-.39.15-.55c.1-.17.24-.3.41-.4s.35-.15.55-.15.39.05.56.15.3.23.4.4.15.35.15.56-.05.39-.15.56-.23.3-.4.4-.35.15-.56.15zm0-.63c.08 0 .16-.02.24-.06s.13-.1.17-.17.06-.15.06-.24-.02-.17-.06-.24-.1-.13-.17-.17-.15-.06-.24-.06-.17.02-.24.06-.13.1-.17.17-.07.15-.07.24.02.17.07.24c.04.07.1.13.17.17s.15.06.24.06z"/></g><path d="m124.15 23.1-6.91 2.98" fill="none" stroke="#494949" stroke-miterlimit="10" stroke-width=".33"/><path d="m34.24 38.1 6.91 2.98" fill="none" stroke="#494949" stroke-miterlimit="10" stroke-width=".33"/><g fill="#1a1a1a"><path d="m20.63 37.6v-1.25h-3.35v-1.18l2.42-5.13h1.44l-2.42 5.13h1.91v-1.97h1.28v1.97h.71v1.18h-.71v1.25z"/><path d="m26.89 37.6v-1.25h-3.35v-1.18l2.42-5.13h1.44l-2.42 5.13h1.91v-1.97h1.28v1.97h.71v1.18h-.71v1.25z"/><path d="m30.54 31.87c-.2 0-.39-.05-.56-.15s-.3-.23-.4-.4-.15-.35-.15-.56.05-.39.15-.55.24-.3.41-.4.35-.15.55-.15.39.05.56.15.3.23.4.4.15.35.15.56-.05.39-.15.56-.23.3-.4.4-.35.15-.56.15zm-.43 2.31-.49-.49 3.94-3.94.49.5-3.94 3.94zm.43-2.94c.09 0 .17-.02.24-.06s.13-.1.17-.17.06-.15.06-.24-.02-.17-.06-.24-.1-.13-.17-.17-.15-.06-.24-.06-.17.02-.24.06-.13.1-.17.17-.06.15-.06.24.02.17.06.24.1.13.17.17.15.06.24.06zm2.59 3.04c-.2 0-.39-.05-.56-.15s-.3-.23-.4-.4-.15-.35-.15-.56.05-.39.15-.55c.1-.17.24-.3.41-.4s.35-.15.55-.15.39.05.56.15.3.23.4.4.15.35.15.56-.05.39-.15.56-.23.3-.4.4-.35.15-.56.15zm0-.63c.08 0 .16-.02.24-.06s.13-.1.17-.17.06-.15.06-.24-.02-.17-.06-.24-.1-.13-.17-.17-.15-.06-.24-.06-.17.02-.24.06-.13.1-.17.17-.07.15-.07.24.02.17.07.24c.04.07.1.13.17.17s.15.06.24.06z"/></g><rect fill="#397b7e" height="8.51" rx="4.25" transform="matrix(0 -1 1 0 -116.95 125.46)" width="8.51" y="116.95"/><rect fill="#1b464f" height="8.51" rx="4.25" transform="matrix(0 -1 1 0 -34 234.67)" width="8.51" x="96.08" y="130.09"/><rect fill="#8b7fd3" height="8.51" rx="4.25" transform="matrix(0 -1 1 0 -20.65 221.32)" width="8.51" x="96.08" y="116.74"/><rect fill="#c2b8ed" height="8.51" rx="4.25" transform="matrix(0 -1 1 0 -130.3 138.81)" width="8.51" y="130.3"/><path d="m16.56 124.38c-.39 0-.72-.08-1.01-.25s-.52-.4-.68-.71-.24-.65-.24-1.05c0-.42.08-.79.24-1.1s.38-.55.67-.72.62-.25.99-.25.73.09 1.01.27.48.44.62.78.19.74.16 1.2h-.75v-.27c0-.45-.09-.78-.26-1-.17-.21-.42-.32-.76-.32-.38 0-.66.12-.85.36s-.28.58-.28 1.03.09.76.28.99.46.35.82.35c.23 0 .44-.05.61-.16s.3-.26.4-.46l.74.23c-.15.35-.38.62-.69.81s-.65.29-1.02.29zm-1.38-1.83v-.58h2.77v.58z"/><path d="m18.83 124.27 1.45-1.96-1.42-1.92h.89l.97 1.33.95-1.33h.89l-1.42 1.92 1.45 1.96h-.89l-.99-1.38-.99 1.38z"/><path d="m23.22 121v-.6h2.65v.6zm2.65 3.27c-.24.05-.48.07-.72.06-.23 0-.44-.05-.63-.14s-.32-.22-.42-.39c-.08-.16-.13-.32-.13-.49s0-.35 0-.57v-3.43h.75v3.39.41c0 .11.03.21.07.29.09.15.22.23.41.25s.41.01.66-.02v.64z"/><path d="m28.54 124.38c-.39 0-.72-.08-1.01-.25s-.52-.4-.68-.71-.24-.65-.24-1.05c0-.42.08-.79.24-1.1s.38-.55.67-.72.62-.25.99-.25.73.09 1.01.27.48.44.62.78.19.74.16 1.2h-.75v-.27c0-.45-.09-.78-.26-1-.17-.21-.42-.32-.76-.32-.38 0-.66.12-.85.36s-.28.58-.28 1.03.09.76.28.99.46.35.82.35c.23 0 .44-.05.61-.16s.3-.26.4-.46l.74.23c-.15.35-.38.62-.69.81s-.65.29-1.02.29zm-1.38-1.83v-.58h2.77v.58z"/><path d="m31.37 124.27v-3.88h.67v1.12h.09v2.76zm2.72 0v-1.91c0-.15-.01-.3-.04-.46-.02-.16-.07-.31-.14-.44-.07-.14-.17-.25-.3-.33s-.29-.13-.5-.13c-.13 0-.26.02-.38.07s-.22.12-.31.21c-.09.1-.16.23-.21.39s-.08.35-.08.58l-.47-.18c0-.35.07-.66.2-.93s.32-.48.57-.63.54-.23.89-.23c.27 0 .49.04.67.13s.33.2.44.34.2.29.26.46.1.33.12.49.03.3.03.42v2.15h-.76z"/><path d="m37.62 124.38c-.36 0-.67-.09-.93-.27s-.46-.42-.61-.73c-.14-.31-.21-.66-.21-1.05s.07-.74.22-1.05c.14-.31.35-.55.61-.73s.58-.27.94-.27.67.09.92.27.44.42.57.73.19.66.19 1.04-.06.74-.19 1.04-.32.55-.57.73-.56.27-.93.27zm.1-.68c.25 0 .45-.06.6-.18.16-.12.27-.28.34-.49s.11-.44.11-.71-.04-.5-.11-.71-.19-.37-.34-.48c-.15-.12-.35-.17-.58-.17-.25 0-.45.06-.61.18s-.28.29-.36.49c-.08.21-.12.44-.12.69s.04.49.12.69c.08.21.19.37.35.49s.35.18.59.18zm1.05.57v-2.79h-.09v-2.38h.75v5.17h-.67z"/><path d="m42.16 124.27v-3.88h.67v1.12h.09v2.76h-.75zm2.33 0v-2.4c0-.28-.07-.5-.21-.66s-.33-.24-.57-.24-.43.08-.57.24c-.15.16-.22.38-.22.64l-.36-.23c0-.25.06-.48.18-.68s.29-.35.5-.47.44-.17.71-.17.51.06.7.17.34.28.44.49.15.45.15.72v2.59zm2.32 0v-2.42c0-.28-.07-.5-.21-.66s-.33-.24-.57-.24c-.14 0-.27.03-.39.1s-.21.16-.29.29c-.07.13-.11.29-.11.49l-.36-.18c0-.27.05-.51.17-.72s.29-.37.49-.48c.21-.11.44-.17.7-.17.42 0 .74.12.97.38.23.25.34.59.34 1v2.59h-.75z"/><path d="m50.52 124.38c-.39 0-.72-.08-1.01-.25s-.52-.4-.68-.71-.24-.65-.24-1.05c0-.42.08-.79.24-1.1s.38-.55.67-.72.62-.25.99-.25.73.09 1.01.27.48.44.62.78.19.74.16 1.2h-.75v-.27c0-.45-.09-.78-.26-1-.17-.21-.42-.32-.76-.32-.38 0-.66.12-.85.36s-.28.58-.28 1.03.09.76.28.99.46.35.82.35c.23 0 .44-.05.61-.16s.3-.26.4-.46l.74.23c-.15.35-.38.62-.69.81s-.65.29-1.02.29zm-1.38-1.83v-.58h2.77v.58z"/><path d="m54.44 124.38c-.29 0-.53-.05-.72-.16s-.34-.25-.44-.42-.15-.37-.15-.58c0-.2.03-.37.1-.52s.17-.27.31-.38c.14-.1.3-.19.5-.25.17-.05.37-.09.58-.13.22-.04.45-.07.69-.11.24-.03.48-.07.72-.1l-.27.15c0-.3-.06-.53-.19-.68s-.36-.22-.68-.22c-.2 0-.39.05-.56.14s-.29.25-.36.47l-.7-.22c.1-.33.28-.6.55-.79.27-.2.63-.29 1.07-.29.35 0 .65.06.91.18s.45.31.57.56c.06.13.1.26.11.4s.02.29.02.46v2.39h-.66v-.89l.13.12c-.16.3-.36.52-.61.66s-.55.22-.91.22zm.13-.61c.21 0 .4-.04.55-.11.15-.08.28-.17.37-.29s.15-.24.18-.37c.04-.11.06-.24.07-.39 0-.14 0-.26 0-.34l.24.09c-.24.04-.45.07-.65.1-.19.03-.37.06-.53.08s-.3.06-.42.1c-.1.04-.19.08-.27.13s-.14.11-.19.18-.07.16-.07.26.02.19.08.28.13.15.23.2.23.08.4.08z"/><path d="m59.19 124.38c-.47 0-.86-.1-1.15-.31-.3-.21-.48-.5-.55-.88l.77-.12c.05.2.16.36.33.48s.39.17.65.17c.23 0 .42-.05.55-.14s.2-.23.2-.39c0-.1-.02-.18-.07-.24s-.14-.12-.29-.17-.37-.12-.68-.2c-.33-.09-.6-.18-.79-.28-.2-.1-.33-.21-.42-.35s-.12-.29-.12-.48c0-.23.06-.44.19-.61.12-.17.3-.31.53-.41s.49-.14.79-.14.56.05.79.14.42.23.56.4.23.37.26.6l-.77.14c-.03-.19-.11-.33-.26-.44s-.34-.17-.58-.18c-.23 0-.41.03-.55.11s-.21.2-.21.35c0 .09.03.16.08.22s.16.12.31.17c.16.06.39.12.69.2.33.08.58.18.78.28.19.1.33.22.41.36s.12.31.12.51c0 .38-.14.68-.42.9s-.66.33-1.15.33z"/><path d="m63.29 124.38c-.27 0-.49-.04-.67-.13s-.33-.2-.44-.34-.2-.29-.26-.46-.1-.33-.12-.48c-.02-.16-.03-.3-.03-.42v-2.15h.76v1.91c0 .15.01.31.04.46.03.16.07.31.14.44.07.14.17.25.3.33s.29.13.5.13c.13 0 .26-.02.38-.07s.22-.12.31-.21c.09-.1.16-.23.21-.39s.08-.36.08-.58l.47.18c0 .35-.07.66-.2.93s-.32.48-.57.63-.54.23-.89.23zm1.28-.1v-1.12h-.09v-2.76h.76v3.88z"/><path d="m66.51 124.27v-3.88h.67v.94l-.09-.12c.05-.12.11-.24.19-.34s.17-.19.27-.26.21-.13.33-.17.24-.06.37-.07c.13 0 .25 0 .37.02v.7c-.13-.03-.27-.04-.42-.03s-.3.06-.43.15c-.12.08-.22.17-.29.29-.07.11-.12.24-.15.38s-.05.28-.05.44v1.96h-.76z"/><path d="m71.22 124.38c-.39 0-.72-.08-1.01-.25s-.52-.4-.68-.71-.24-.65-.24-1.05c0-.42.08-.79.24-1.1s.38-.55.67-.72.62-.25.99-.25.73.09 1.01.27.48.44.62.78.19.74.16 1.2h-.75v-.27c0-.45-.09-.78-.26-1-.17-.21-.42-.32-.76-.32-.38 0-.66.12-.85.36s-.28.58-.28 1.03.09.76.28.99.46.35.82.35c.23 0 .44-.05.61-.16s.3-.26.4-.46l.74.23c-.15.35-.38.62-.69.81s-.65.29-1.02.29zm-1.38-1.83v-.58h2.77v.58z"/><path d="m75.53 124.38c-.47 0-.86-.1-1.15-.31-.3-.21-.48-.5-.55-.88l.77-.12c.05.2.16.36.33.48s.39.17.65.17c.23 0 .42-.05.55-.14s.2-.23.2-.39c0-.1-.02-.18-.07-.24s-.14-.12-.29-.17-.37-.12-.68-.2c-.33-.09-.6-.18-.79-.28-.2-.1-.33-.21-.42-.35s-.12-.29-.12-.48c0-.23.06-.44.19-.61.12-.17.3-.31.53-.41s.49-.14.79-.14.56.05.79.14.42.23.56.4.23.37.26.6l-.77.14c-.03-.19-.11-.33-.26-.44s-.34-.17-.58-.18c-.23 0-.41.03-.55.11s-.21.2-.21.35c0 .09.03.16.08.22s.16.12.31.17c.16.06.39.12.69.2.33.08.58.18.78.28.19.1.33.22.41.36s.12.31.12.51c0 .38-.14.68-.42.9s-.66.33-1.15.33z"/><path d="m14.83 137.73v-3.88h.67v1.12h.09v2.76h-.75zm2.33 0v-2.4c0-.28-.07-.5-.21-.66s-.33-.24-.57-.24-.43.08-.57.24c-.15.16-.22.38-.22.64l-.36-.23c0-.25.06-.48.18-.68s.29-.35.5-.47.44-.17.71-.17.51.06.7.17.34.28.44.49.15.45.15.72v2.59zm2.32 0v-2.42c0-.28-.07-.5-.21-.66s-.33-.24-.57-.24c-.14 0-.27.03-.39.1s-.21.16-.29.29c-.07.13-.11.29-.11.49l-.36-.18c0-.27.05-.51.17-.72s.29-.37.49-.48c.21-.11.44-.17.7-.17.42 0 .74.12.97.38.23.25.34.59.34 1v2.59h-.75z"/><path d="m22.55 137.84c-.29 0-.53-.05-.72-.16s-.34-.25-.44-.42-.15-.37-.15-.58c0-.2.03-.37.1-.52s.17-.27.31-.38c.14-.1.3-.19.5-.25.17-.05.37-.09.58-.13.22-.04.45-.07.69-.11.24-.03.48-.07.72-.1l-.27.15c0-.3-.06-.53-.19-.68s-.36-.22-.68-.22c-.2 0-.39.05-.56.14s-.29.25-.36.47l-.7-.22c.1-.33.28-.6.55-.79.27-.2.63-.29 1.07-.29.35 0 .65.06.91.18s.45.31.57.56c.06.13.1.26.11.4s.02.29.02.46v2.39h-.66v-.89l.13.12c-.16.3-.36.52-.61.66s-.55.22-.91.22zm.13-.61c.21 0 .4-.04.55-.11.15-.08.28-.17.37-.29s.15-.24.18-.37c.04-.11.06-.24.07-.39 0-.14 0-.26 0-.34l.24.09c-.24.04-.45.07-.65.1-.19.03-.37.06-.53.08s-.3.06-.42.1c-.1.04-.19.08-.27.13s-.14.11-.19.18-.07.16-.07.26.02.19.08.28.13.15.23.2.23.08.4.08z"/><path d="m25.88 133.22v-.73h.75v.73zm0 4.51v-3.88h.75v3.88z"/><path d="m27.95 137.73v-3.88h.67v1.12h.09v2.76zm2.72 0v-1.91c0-.15-.01-.3-.04-.46-.02-.16-.07-.31-.14-.44-.07-.14-.17-.25-.3-.33s-.29-.13-.5-.13c-.13 0-.26.02-.38.07s-.22.12-.31.21c-.09.1-.16.23-.21.39s-.08.35-.08.58l-.47-.18c0-.35.07-.66.2-.93s.32-.48.57-.63.54-.23.89-.23c.27 0 .49.04.67.13s.33.2.44.34.2.29.26.46.1.33.12.49.03.3.03.42v2.15h-.76z"/><path d="m32.17 134.46v-.6h2.65v.6zm2.65 3.27c-.24.05-.48.07-.72.06-.23 0-.44-.05-.63-.14s-.32-.22-.42-.39c-.08-.16-.13-.32-.13-.49s0-.35 0-.57v-3.43h.75v3.39.41c0 .11.03.21.07.29.09.15.22.23.41.25s.41.01.66-.02v.64z"/><path d="m36.99 137.84c-.29 0-.53-.05-.72-.16s-.34-.25-.44-.42-.15-.37-.15-.58c0-.2.03-.37.1-.52s.17-.27.31-.38c.14-.1.3-.19.5-.25.17-.05.37-.09.58-.13.22-.04.45-.07.69-.11.24-.03.48-.07.72-.1l-.27.15c0-.3-.06-.53-.19-.68s-.36-.22-.68-.22c-.2 0-.39.05-.56.14s-.29.25-.36.47l-.7-.22c.1-.33.28-.6.55-.79.27-.2.63-.29 1.07-.29.35 0 .65.06.91.18s.45.31.57.56c.06.13.1.26.11.4s.02.29.02.46v2.39h-.66v-.89l.13.12c-.16.3-.36.52-.61.66s-.55.22-.91.22zm.13-.61c.21 0 .4-.04.55-.11.15-.08.28-.17.37-.29s.15-.24.18-.37c.04-.11.06-.24.07-.39 0-.14 0-.26 0-.34l.24.09c-.24.04-.45.07-.65.1-.19.03-.37.06-.53.08s-.3.06-.42.1c-.1.04-.19.08-.27.13s-.14.11-.19.18-.07.16-.07.26.02.19.08.28.13.15.23.2.23.08.4.08z"/><path d="m40.32 133.22v-.73h.75v.73zm0 4.51v-3.88h.75v3.88z"/><path d="m42.38 137.73v-3.88h.67v1.12h.09v2.76zm2.72 0v-1.91c0-.15-.01-.3-.04-.46-.02-.16-.07-.31-.14-.44-.07-.14-.17-.25-.3-.33s-.29-.13-.5-.13c-.13 0-.26.02-.38.07s-.22.12-.31.21c-.09.1-.16.23-.21.39s-.08.35-.08.58l-.47-.18c0-.35.07-.66.2-.93s.32-.48.57-.63.54-.23.89-.23c.27 0 .49.04.67.13s.33.2.44.34.2.29.26.46.1.33.12.49.03.3.03.42v2.15h-.76z"/><path d="m48.52 137.73v-3.88h.67v1.12h.09v2.76h-.75zm2.33 0v-2.4c0-.28-.07-.5-.21-.66s-.33-.24-.57-.24-.43.08-.57.24c-.15.16-.22.38-.22.64l-.36-.23c0-.25.06-.48.18-.68s.29-.35.5-.47.44-.17.71-.17.51.06.7.17.34.28.44.49.15.45.15.72v2.59zm2.32 0v-2.42c0-.28-.07-.5-.21-.66s-.33-.24-.57-.24c-.14 0-.27.03-.39.1s-.21.16-.29.29c-.07.13-.11.29-.11.49l-.36-.18c0-.27.05-.51.17-.72s.29-.37.49-.48c.21-.11.44-.17.7-.17.42 0 .74.12.97.38.23.25.34.59.34 1v2.59h-.75z"/><path d="m56.88 137.84c-.39 0-.72-.08-1.01-.25s-.52-.4-.68-.71-.24-.65-.24-1.05c0-.42.08-.79.24-1.1s.38-.55.67-.72.62-.25.99-.25.73.09 1.01.27.48.44.62.78.19.74.16 1.2h-.75v-.27c0-.45-.09-.78-.26-1-.17-.21-.42-.32-.76-.32-.38 0-.66.12-.85.36s-.28.58-.28 1.03.09.76.28.99.46.35.82.35c.23 0 .44-.05.61-.16s.3-.26.4-.46l.74.23c-.15.35-.38.62-.69.81s-.65.29-1.02.29zm-1.38-1.83v-.58h2.77v.58z"/><path d="m60.8 137.84c-.29 0-.53-.05-.72-.16s-.34-.25-.44-.42-.15-.37-.15-.58c0-.2.03-.37.1-.52s.17-.27.31-.38c.14-.1.3-.19.5-.25.17-.05.37-.09.58-.13.22-.04.45-.07.69-.11.24-.03.48-.07.72-.1l-.27.15c0-.3-.06-.53-.19-.68s-.36-.22-.68-.22c-.2 0-.39.05-.56.14s-.29.25-.36.47l-.7-.22c.1-.33.28-.6.55-.79.27-.2.63-.29 1.07-.29.35 0 .65.06.91.18s.45.31.57.56c.06.13.1.26.11.4s.02.29.02.46v2.39h-.66v-.89l.13.12c-.16.3-.36.52-.61.66s-.55.22-.91.22zm.13-.61c.21 0 .4-.04.55-.11.15-.08.28-.17.37-.29s.15-.24.18-.37c.04-.11.06-.24.07-.39 0-.14 0-.26 0-.34l.24.09c-.24.04-.45.07-.65.1-.19.03-.37.06-.53.08s-.3.06-.42.1c-.1.04-.19.08-.27.13s-.14.11-.19.18-.07.16-.07.26.02.19.08.28.13.15.23.2.23.08.4.08z"/><path d="m65.54 137.83c-.47 0-.86-.1-1.15-.31-.3-.21-.48-.5-.55-.88l.77-.12c.05.2.16.36.33.48s.39.17.65.17c.23 0 .42-.05.55-.14s.2-.23.2-.39c0-.1-.02-.18-.07-.24s-.14-.12-.29-.17-.37-.12-.68-.2c-.33-.09-.6-.18-.79-.28-.2-.1-.33-.21-.42-.35s-.12-.29-.12-.48c0-.23.06-.44.19-.61.12-.17.3-.31.53-.41s.49-.14.79-.14.56.05.79.14.42.23.56.4.23.37.26.6l-.77.14c-.03-.19-.11-.33-.26-.44s-.34-.17-.58-.18c-.23 0-.41.03-.55.11s-.21.2-.21.35c0 .09.03.16.08.22s.16.12.31.17c.16.06.39.12.69.2.33.08.58.18.78.28.19.1.33.22.41.36s.12.31.12.51c0 .38-.14.68-.42.9s-.66.33-1.15.33z"/><path d="m69.65 137.83c-.27 0-.49-.04-.67-.13s-.33-.2-.44-.34-.2-.29-.26-.46-.1-.33-.12-.48c-.02-.16-.03-.3-.03-.42v-2.15h.76v1.91c0 .15.01.31.04.46.03.16.07.31.14.44.07.14.17.25.3.33s.29.13.5.13c.13 0 .26-.02.38-.07s.22-.12.31-.21c.09-.1.16-.23.21-.39s.08-.36.08-.58l.47.18c0 .35-.07.66-.2.93s-.32.48-.57.63-.54.23-.89.23zm1.28-.1v-1.12h-.09v-2.76h.76v3.88z"/><path d="m72.87 137.73v-3.88h.67v.94l-.09-.12c.05-.12.11-.24.19-.34s.17-.19.27-.26.21-.13.33-.17.24-.06.37-.07c.13 0 .25 0 .37.02v.7c-.13-.03-.27-.04-.42-.03s-.3.06-.43.15c-.12.08-.22.17-.29.29-.07.11-.12.24-.15.38s-.05.28-.05.44v1.96h-.76z"/><path d="m77.57 137.84c-.39 0-.72-.08-1.01-.25s-.52-.4-.68-.71-.24-.65-.24-1.05c0-.42.08-.79.24-1.1s.38-.55.67-.72.62-.25.99-.25.73.09 1.01.27.48.44.62.78.19.74.16 1.2h-.75v-.27c0-.45-.09-.78-.26-1-.17-.21-.42-.32-.76-.32-.38 0-.66.12-.85.36s-.28.58-.28 1.03.09.76.28.99.46.35.82.35c.23 0 .44-.05.61-.16s.3-.26.4-.46l.74.23c-.15.35-.38.62-.69.81s-.65.29-1.02.29zm-1.38-1.83v-.58h2.77v.58z"/><path d="m81.88 137.83c-.47 0-.86-.1-1.15-.31-.3-.21-.48-.5-.55-.88l.77-.12c.05.2.16.36.33.48s.39.17.65.17c.23 0 .42-.05.55-.14s.2-.23.2-.39c0-.1-.02-.18-.07-.24s-.14-.12-.29-.17-.37-.12-.68-.2c-.33-.09-.6-.18-.79-.28-.2-.1-.33-.21-.42-.35s-.12-.29-.12-.48c0-.23.06-.44.19-.61.12-.17.3-.31.53-.41s.49-.14.79-.14.56.05.79.14.42.23.56.4.23.37.26.6l-.77.14c-.03-.19-.11-.33-.26-.44s-.34-.17-.58-.18c-.23 0-.41.03-.55.11s-.21.2-.21.35c0 .09.03.16.08.22s.16.12.31.17c.16.06.39.12.69.2.33.08.58.18.78.28.19.1.33.22.41.36s.12.31.12.51c0 .38-.14.68-.42.9s-.66.33-1.15.33z"/><path d="m112.38 137.83c-.27 0-.49-.04-.67-.13s-.33-.2-.44-.34-.2-.29-.26-.46-.1-.33-.12-.48c-.02-.16-.03-.3-.03-.42v-2.15h.76v1.91c0 .15.01.31.04.46.03.16.07.31.14.44.07.14.17.25.3.33s.29.13.5.13c.13 0 .26-.02.38-.07s.22-.12.31-.21c.09-.1.16-.23.21-.39s.08-.36.08-.58l.47.18c0 .35-.07.66-.2.93s-.32.48-.57.63-.54.23-.89.23zm1.28-.1v-1.12h-.09v-2.76h.76v3.88z"/><path d="m115.6 137.73v-3.88h.67v1.12h.09v2.76zm2.72 0v-1.91c0-.15-.01-.3-.04-.46-.02-.16-.07-.31-.14-.44-.07-.14-.17-.25-.3-.33s-.29-.13-.5-.13c-.13 0-.26.02-.38.07s-.22.12-.31.21c-.09.1-.16.23-.21.39s-.08.35-.08.58l-.47-.18c0-.35.07-.66.2-.93s.32-.48.57-.63.54-.23.89-.23c.27 0 .49.04.67.13s.33.2.44.34.2.29.26.46.1.33.12.49.03.3.03.42v2.15h-.76z"/><path d="m121.75 137.83c-.47 0-.86-.1-1.15-.31-.3-.21-.48-.5-.55-.88l.77-.12c.05.2.16.36.33.48s.39.17.65.17c.23 0 .42-.05.55-.14s.2-.23.2-.39c0-.1-.02-.18-.07-.24s-.14-.12-.29-.17-.37-.12-.68-.2c-.33-.09-.6-.18-.79-.28-.2-.1-.33-.21-.42-.35s-.12-.29-.12-.48c0-.23.06-.44.19-.61.12-.17.3-.31.53-.41s.49-.14.79-.14.56.05.79.14.42.23.56.4.23.37.26.6l-.77.14c-.03-.19-.11-.33-.26-.44s-.34-.17-.58-.18c-.23 0-.41.03-.55.11s-.21.2-.21.35c0 .09.03.16.08.22s.16.12.31.17c.16.06.39.12.69.2.33.08.58.18.78.28.19.1.33.22.41.36s.12.31.12.51c0 .38-.14.68-.42.9s-.66.33-1.15.33z"/><path d="m125.86 137.83c-.27 0-.49-.04-.67-.13s-.33-.2-.44-.34-.2-.29-.26-.46-.1-.33-.12-.48c-.02-.16-.03-.3-.03-.42v-2.15h.76v1.91c0 .15.01.31.04.46.03.16.07.31.14.44.07.14.17.25.3.33s.29.13.5.13c.13 0 .26-.02.38-.07s.22-.12.31-.21c.09-.1.16-.23.21-.39s.08-.36.08-.58l.47.18c0 .35-.07.66-.2.93s-.32.48-.57.63-.54.23-.89.23zm1.28-.1v-1.12h-.09v-2.76h.76v3.88z"/><path d="m129.08 137.73v-3.88h.67v.94l-.09-.12c.05-.12.11-.24.19-.34s.17-.19.27-.26.21-.13.33-.17.24-.06.37-.07c.13 0 .25 0 .37.02v.7c-.13-.03-.27-.04-.42-.03s-.3.06-.43.15c-.12.08-.22.17-.29.29-.07.11-.12.24-.15.38s-.05.28-.05.44v1.96h-.76z"/><path d="m133.79 137.84c-.39 0-.72-.08-1.01-.25s-.52-.4-.68-.71-.24-.65-.24-1.05c0-.42.08-.79.24-1.1s.38-.55.67-.72.62-.25.99-.25.73.09 1.01.27.48.44.62.78.19.74.16 1.2h-.75v-.27c0-.45-.09-.78-.26-1-.17-.21-.42-.32-.76-.32-.38 0-.66.12-.85.36s-.28.58-.28 1.03.09.76.28.99.46.35.82.35c.23 0 .44-.05.61-.16s.3-.26.4-.46l.74.23c-.15.35-.38.62-.69.81s-.65.29-1.02.29zm-1.38-1.83v-.58h2.77v.58z"/><path d="m110.92 124.27v-3.88h.67v.94l-.09-.12c.05-.12.11-.24.19-.34s.17-.19.27-.26.21-.13.33-.17.24-.06.37-.07c.13 0 .25 0 .37.02v.7c-.13-.03-.27-.04-.42-.03s-.3.06-.43.15c-.12.08-.22.17-.29.29-.07.11-.12.24-.15.38s-.05.28-.05.44v1.96h-.76z"/><path d="m115.63 124.38c-.39 0-.72-.08-1.01-.25s-.52-.4-.68-.71-.24-.65-.24-1.05c0-.42.08-.79.24-1.1s.38-.55.67-.72.62-.25.99-.25.73.09 1.01.27.48.44.62.78.19.74.16 1.2h-.75v-.27c0-.45-.09-.78-.26-1-.17-.21-.42-.32-.76-.32-.38 0-.66.12-.85.36s-.28.58-.28 1.03.09.76.28.99.46.35.82.35c.23 0 .44-.05.61-.16s.3-.26.4-.46l.74.23c-.15.35-.38.62-.69.81s-.65.29-1.02.29zm-1.38-1.83v-.58h2.77v.58z"/><path d="m120.02 124.38c-.36 0-.67-.09-.93-.27s-.46-.42-.61-.73c-.14-.31-.21-.66-.21-1.05s.07-.74.22-1.05c.14-.31.35-.55.61-.73s.58-.27.94-.27.67.09.92.27.44.42.57.73.19.66.19 1.04-.06.74-.19 1.04-.32.55-.57.73-.56.27-.93.27zm.1-.68c.25 0 .45-.06.6-.18.16-.12.27-.28.34-.49s.11-.44.11-.71-.04-.5-.11-.71-.19-.37-.34-.48c-.15-.12-.35-.17-.58-.17-.25 0-.45.06-.61.18s-.28.29-.36.49c-.08.21-.12.44-.12.69s.04.49.12.69c.08.21.19.37.35.49s.35.18.59.18zm1.05.57v-2.79h-.09v-2.38h.75v5.17h-.67z"/><path d="m124.59 124.38c-.27 0-.49-.04-.67-.13s-.33-.2-.44-.34-.2-.29-.26-.46-.1-.33-.12-.48c-.02-.16-.03-.3-.03-.42v-2.15h.76v1.91c0 .15.01.31.04.46.03.16.07.31.14.44.07.14.17.25.3.33s.29.13.5.13c.13 0 .26-.02.38-.07s.22-.12.31-.21c.09-.1.16-.23.21-.39s.08-.36.08-.58l.47.18c0 .35-.07.66-.2.93s-.32.48-.57.63-.54.23-.89.23zm1.28-.1v-1.12h-.09v-2.76h.76v3.88z"/><path d="m129.49 124.38c-.4 0-.73-.09-1.01-.27s-.49-.42-.64-.73-.22-.66-.22-1.05c0-.4.08-.75.23-1.06s.37-.55.65-.72.62-.26 1.01-.26c.42 0 .79.1 1.09.32s.5.5.59.87l-.75.21c-.07-.22-.2-.39-.36-.51-.17-.12-.36-.18-.58-.18-.25 0-.45.06-.61.17-.16.12-.28.27-.35.48s-.12.43-.12.69c0 .4.09.72.27.97s.45.37.8.37c.24 0 .44-.06.59-.17s.26-.27.34-.48l.76.18c-.13.38-.34.67-.63.87s-.65.3-1.06.3z"/><path d="m133.9 124.38c-.39 0-.72-.08-1.01-.25s-.52-.4-.68-.71-.24-.65-.24-1.05c0-.42.08-.79.24-1.1s.38-.55.67-.72.62-.25.99-.25.73.09 1.01.27.48.44.62.78.19.74.16 1.2h-.75v-.27c0-.45-.09-.78-.26-1-.17-.21-.42-.32-.76-.32-.38 0-.66.12-.85.36s-.28.58-.28 1.03.09.76.28.99.46.35.82.35c.23 0 .44-.05.61-.16s.3-.26.4-.46l.74.23c-.15.35-.38.62-.69.81s-.65.29-1.02.29zm-1.38-1.83v-.58h2.77v.58z"/><path d="m138.18 124.27v-3.88h.67v1.12h.09v2.76h-.75zm2.33 0v-2.4c0-.28-.07-.5-.21-.66s-.33-.24-.57-.24-.43.08-.57.24c-.15.16-.22.38-.22.64l-.36-.23c0-.25.06-.48.18-.68s.29-.35.5-.47.44-.17.71-.17.51.06.7.17.34.28.44.49.15.45.15.72v2.59zm2.32 0v-2.42c0-.28-.07-.5-.21-.66s-.33-.24-.57-.24c-.14 0-.27.03-.39.1s-.21.16-.29.29c-.07.13-.11.29-.11.49l-.36-.18c0-.27.05-.51.17-.72s.29-.37.49-.48c.21-.11.44-.17.7-.17.42 0 .74.12.97.38.23.25.34.59.34 1v2.59h-.75z"/><path d="m146.54 124.38c-.39 0-.72-.08-1.01-.25s-.52-.4-.68-.71-.24-.65-.24-1.05c0-.42.08-.79.24-1.1s.38-.55.67-.72.62-.25.99-.25.73.09 1.01.27.49.44.62.78c.14.34.19.74.16 1.2h-.75v-.27c0-.45-.09-.78-.26-1-.17-.21-.42-.32-.76-.32-.38 0-.66.12-.85.36s-.28.58-.28 1.03.09.76.28.99.46.35.82.35c.23 0 .44-.05.61-.16s.3-.26.4-.46l.74.23c-.15.35-.38.62-.69.81s-.65.29-1.02.29zm-1.38-1.83v-.58h2.77v.58z"/><path d="m150.46 124.38c-.29 0-.53-.05-.72-.16s-.34-.25-.44-.42c-.1-.18-.15-.37-.15-.58 0-.2.04-.37.1-.52s.17-.27.31-.38c.14-.1.3-.19.5-.25.17-.05.37-.09.58-.13.22-.04.45-.07.69-.11.24-.03.48-.07.72-.1l-.27.15c0-.3-.06-.53-.19-.68s-.36-.22-.68-.22c-.2 0-.39.05-.56.14s-.29.25-.36.47l-.7-.22c.1-.33.28-.6.55-.79.27-.2.63-.29 1.08-.29.35 0 .65.06.91.18s.45.31.57.56c.06.13.1.26.12.4.01.14.02.29.02.46v2.39h-.66v-.89l.13.12c-.16.3-.36.52-.61.66s-.55.22-.91.22zm.13-.61c.21 0 .4-.04.55-.11.15-.08.28-.17.37-.29s.15-.24.18-.37c.04-.11.06-.24.07-.39s0-.26 0-.34l.24.09c-.24.04-.45.07-.65.1-.19.03-.37.06-.53.08-.16.03-.3.06-.42.1-.1.04-.19.08-.27.13s-.14.11-.19.18-.07.16-.07.26.02.19.08.28c.05.08.13.15.23.2s.23.08.39.08z"/><path d="m155.2 124.38c-.47 0-.86-.1-1.15-.31-.3-.21-.48-.5-.55-.88l.77-.12c.05.2.16.36.33.48s.39.17.65.17c.23 0 .42-.05.55-.14s.2-.23.2-.39c0-.1-.02-.18-.07-.24s-.14-.12-.29-.17-.38-.12-.68-.2c-.33-.09-.6-.18-.79-.28-.2-.1-.33-.21-.42-.35-.08-.13-.12-.29-.12-.48 0-.23.06-.44.19-.61.12-.17.3-.31.53-.41s.49-.14.79-.14.56.05.79.14.42.23.56.4.23.37.26.6l-.77.14c-.03-.19-.11-.33-.26-.44s-.34-.17-.58-.18c-.23 0-.41.03-.55.11s-.21.2-.21.35c0 .09.03.16.08.22s.16.12.31.17c.16.06.38.12.69.2.33.08.58.18.77.28s.33.22.41.36.12.31.12.51c0 .38-.14.68-.42.9s-.66.33-1.15.33z"/><path d="m159.31 124.38c-.27 0-.49-.04-.67-.13s-.33-.2-.44-.34-.2-.29-.26-.46-.1-.33-.12-.48c-.02-.16-.03-.3-.03-.42v-2.15h.76v1.91c0 .15.01.31.04.46.02.16.07.31.14.44.07.14.17.25.3.33s.29.13.5.13c.13 0 .26-.02.38-.07s.22-.12.31-.21c.09-.1.16-.23.21-.39s.08-.36.08-.58l.47.18c0 .35-.07.66-.2.93s-.32.48-.57.63-.54.23-.89.23zm1.28-.1v-1.12h-.09v-2.76h.76v3.88z"/><path d="m162.53 124.27v-3.88h.67v.94l-.09-.12c.05-.12.11-.24.19-.34s.17-.19.27-.26.21-.13.33-.17.24-.06.37-.07c.13 0 .25 0 .37.02v.7c-.13-.03-.27-.04-.42-.03s-.3.06-.42.15c-.12.08-.22.17-.29.29-.07.11-.12.24-.15.38s-.05.28-.05.44v1.96h-.76z"/><path d="m167.24 124.38c-.39 0-.72-.08-1.01-.25s-.52-.4-.68-.71-.24-.65-.24-1.05c0-.42.08-.79.24-1.1s.38-.55.67-.72.62-.25.99-.25.73.09 1.01.27.49.44.62.78c.14.34.19.74.16 1.2h-.75v-.27c0-.45-.09-.78-.26-1-.17-.21-.42-.32-.76-.32-.38 0-.66.12-.85.36s-.28.58-.28 1.03.09.76.28.99.46.35.82.35c.23 0 .44-.05.61-.16s.3-.26.4-.46l.74.23c-.15.35-.38.62-.69.81s-.65.29-1.02.29zm-1.38-1.83v-.58h2.77v.58z"/><path d="m171.54 124.38c-.47 0-.86-.1-1.15-.31-.3-.21-.48-.5-.55-.88l.77-.12c.05.2.16.36.33.48s.39.17.65.17c.23 0 .42-.05.55-.14s.2-.23.2-.39c0-.1-.02-.18-.07-.24s-.14-.12-.29-.17-.38-.12-.68-.2c-.33-.09-.6-.18-.79-.28-.2-.1-.33-.21-.42-.35-.08-.13-.12-.29-.12-.48 0-.23.06-.44.19-.61.12-.17.3-.31.53-.41s.49-.14.79-.14.56.05.79.14.42.23.56.4.23.37.26.6l-.77.14c-.03-.19-.11-.33-.26-.44s-.34-.17-.58-.18c-.23 0-.41.03-.55.11s-.21.2-.21.35c0 .09.03.16.08.22s.16.12.31.17c.16.06.38.12.69.2.33.08.58.18.77.28s.33.22.41.36.12.31.12.51c0 .38-.14.68-.42.9s-.66.33-1.15.33z"/><path d="m78.05 15.33c-7.12 1.28-13.65 4.2-19.22 8.34" fill="none" stroke="#1a1a1a" stroke-miterlimit="10" stroke-width=".33"/><path d="m77.89 14.24h.33v2.17h-.33z" fill="#1a1a1a" transform="matrix(.9791874 -.2029582 .2029582 .9791874 -1.49 16.17)"/><path d="m58.67 22.58h.33v2.17h-.33z" fill="#1a1a1a" transform="matrix(.81704428 -.57657493 .57657493 .81704428 -2.88 38.25)"/><path d="m85.47 14.6c-2.01.03-4 .2-5.94.48" fill="none" stroke="#1a1a1a" stroke-miterlimit="10" stroke-width=".33"/><path d="m85.31 13.52h.33v2.17h-.33z" fill="#1a1a1a" transform="matrix(.99887337 -.04745513 .04745513 .99887337 -.6 4.07)"/><path d="m79.37 14h.33v2.17h-.33z" fill="#1a1a1a" transform="matrix(.99337277 -.11493715 .11493715 .99337277 -1.21 9.25)"/><g fill="none" stroke-miterlimit="10" stroke-width="13"><path d="m63.39 33.55c-8.59 6.77-14.1 17.27-14.1 29.05 0 20.42 16.55 36.97 36.97 36.97 4.31 0 8.45-.74 12.3-2.1" stroke="#c2b8ed"/><path d="m79.91 26.17c-6.16 1.07-11.8 3.66-16.51 7.38" stroke="#8b7fd3"/><path d="m86.27 25.63c-2.17 0-4.29.19-6.36.55" stroke="#1b464f"/><path d="m98.57 97.48c14.37-5.07 24.67-18.77 24.67-34.88 0-20.42-16.55-36.97-36.97-36.97" stroke="#397b7e"/></g></svg>