<svg enable-background="new 0 0 677.9 324.7" viewBox="0 0 677.9 324.7" xmlns="http://www.w3.org/2000/svg" xmlns:xlink="http://www.w3.org/1999/xlink"><linearGradient id="a"><stop offset="0" stop-color="#00525d"/><stop offset="1" stop-color="#009bb3"/></linearGradient><linearGradient id="b" gradientTransform="matrix(1 0 0 -1 0 327.7871)" gradientUnits="userSpaceOnUse" x1="68.97" x2="363.41" xlink:href="#a" y1="45.2085" y2="45.2085"/><linearGradient id="c"><stop offset="0" stop-color="#009bb3"/><stop offset="1" stop-color="#00525d"/></linearGradient><linearGradient id="d" gradientTransform="matrix(1 0 0 -1 0 327.7871)" gradientUnits="userSpaceOnUse" x1="-.000001" x2="78.64" xlink:href="#c" y1="45.4535" y2="45.4535"/><linearGradient id="e" gradientTransform="matrix(1 0 0 -1 0 327.7871)" gradientUnits="userSpaceOnUse" x1="68.97" x2="362.86" xlink:href="#a" y1="165.0135" y2="165.0135"/><linearGradient id="f" gradientTransform="matrix(1 0 0 -1 0 327.7871)" gradientUnits="userSpaceOnUse" x1="-.000001" x2="78.64" xlink:href="#c" y1="165.0135" y2="165.0135"/><linearGradient id="g" gradientTransform="matrix(1 0 0 -1 0 327.7871)" gradientUnits="userSpaceOnUse" x1="68.97" x2="362.86" xlink:href="#a" y1="284.5735" y2="284.5735"/><linearGradient id="h" gradientTransform="matrix(1 0 0 -1 0 327.7871)" gradientUnits="userSpaceOnUse" x1="-.000001" x2="78.64" xlink:href="#c" y1="284.5735" y2="284.5735"/><path d="m73.9 282.8 284.6-.5" fill="none" stroke="url(#b)" stroke-linecap="round" stroke-miterlimit="10" stroke-width="9.88"/><path d="m410.2 296.8v-31.3h12.6 1.1c.5 0 .9.1 1.3.1 1.7.3 3.2.9 4.4 1.8s2 2.1 2.6 3.5.9 2.9.9 4.6c0 2.5-.6 4.6-1.9 6.4s-3.2 2.9-5.7 3.4l-1.9.2h-8.9v11.2h-4.5zm4.5-15.5h7.9 1c.4 0 .7-.1 1-.1.9-.2 1.7-.6 2.2-1.2.6-.6 1-1.3 1.2-2s.4-1.5.4-2.3-.1-1.5-.4-2.3-.6-1.4-1.2-2-1.3-1-2.2-1.2c-.3-.1-.7-.1-1-.2-.4 0-.7 0-1 0h-7.9zm13.8 15.5-6.2-12.7 4.6-1.2 6.8 13.9z"/><path d="m444.9 297.5c-1.7 0-3.2-.3-4.4-1s-2.1-1.5-2.7-2.6-.9-2.2-.9-3.5c0-1.2.2-2.2.6-3.1s1-1.7 1.9-2.3 1.8-1.1 3-1.5c1-.3 2.2-.6 3.5-.8s2.7-.5 4.2-.6c1.5-.2 2.9-.4 4.3-.6l-1.6.9c0-1.8-.4-3.2-1.2-4.1s-2.2-1.3-4.1-1.3c-1.2 0-2.4.3-3.4.9s-1.8 1.5-2.1 2.8l-4.2-1.3c.6-2 1.7-3.6 3.3-4.8s3.8-1.8 6.5-1.8c2.1 0 3.9.4 5.5 1.1s2.7 1.9 3.4 3.4c.4.8.6 1.6.7 2.4.1.9.1 1.8.1 2.8v14.5h-4v-5.4l.8.7c-1 1.8-2.2 3.1-3.7 4s-3.3 1.2-5.5 1.2zm.8-3.7c1.3 0 2.4-.2 3.3-.7s1.7-1 2.2-1.8.9-1.5 1.1-2.2.4-1.5.4-2.4 0-1.6 0-2.1l1.5.5c-1.4.2-2.7.4-3.9.6s-2.2.3-3.2.5-1.8.4-2.5.6c-.6.2-1.2.5-1.7.8s-.9.7-1.1 1.1c-.3.4-.4 1-.4 1.6s.1 1.2.5 1.7c.3.5.8.9 1.4 1.2.7.4 1.5.6 2.4.6z"/><path d="m463.8 296.8v-23.5h4.1v6.8h.5v16.7zm16.5 0v-11.5c0-.9-.1-1.9-.2-2.8-.1-1-.4-1.9-.9-2.7-.4-.8-1-1.5-1.8-2s-1.8-.8-3-.8c-.8 0-1.6.1-2.3.4s-1.4.7-1.9 1.3-1 1.4-1.3 2.4-.5 2.1-.5 3.5l-2.8-1.1c0-2.1.4-4 1.2-5.6s1.9-2.9 3.4-3.8 3.3-1.4 5.4-1.4c1.6 0 3 .3 4.1.8s2 1.2 2.7 2c.7.9 1.2 1.8 1.6 2.8s.6 2 .7 2.9c.1 1 .2 1.8.2 2.5v13z"/><path d="m499.9 297.5c-2.9 0-5.2-.6-7-1.9s-2.9-3-3.3-5.3l4.6-.7c.3 1.2 1 2.2 2 2.9s2.4 1 3.9 1c1.4 0 2.5-.3 3.3-.9s1.2-1.4 1.2-2.4c0-.6-.1-1.1-.4-1.5s-.9-.7-1.8-1-2.3-.8-4.1-1.2c-2-.5-3.6-1.1-4.8-1.7s-2-1.3-2.5-2.1-.8-1.8-.8-2.9c0-1.4.4-2.7 1.1-3.7s1.8-1.9 3.2-2.5 3-.9 4.8-.9 3.4.3 4.8.9 2.5 1.4 3.4 2.4 1.4 2.2 1.6 3.6l-4.6.9c-.2-1.1-.7-2-1.6-2.7-.9-.6-2.1-1-3.5-1.1s-2.5.2-3.4.7-1.3 1.2-1.3 2.1c0 .5.2 1 .5 1.3.3.4 1 .7 1.9 1s2.3.7 4.2 1.2c2 .5 3.5 1.1 4.7 1.7s2 1.4 2.5 2.2.8 1.9.8 3.1c0 2.3-.8 4.1-2.5 5.5-1.6 1.3-3.9 2-6.9 2z"/><path d="m525 297.5c-2.3 0-4.4-.5-6.1-1.6s-3-2.5-4-4.4c-.9-1.9-1.4-4-1.4-6.5s.5-4.6 1.4-6.5c1-1.9 2.3-3.3 4-4.4 1.7-1 3.7-1.5 6-1.5s4.4.5 6.1 1.6 3.1 2.5 4 4.4 1.4 4 1.4 6.4-.5 4.6-1.4 6.5c-1 1.9-2.3 3.3-4 4.4s-3.7 1.6-6 1.6zm0-4.3c2.2 0 3.9-.8 5-2.3s1.7-3.5 1.7-5.9-.6-4.4-1.7-5.9-2.8-2.2-5-2.2c-1.5 0-2.8.3-3.8 1s-1.7 1.6-2.2 2.9-.7 2.6-.7 4.2c0 2.5.6 4.4 1.7 5.9s2.8 2.3 5 2.3z"/><path d="m541.9 296.8v-23.5h4v6.8h.5v16.7zm14.1 0v-14.5c0-1.7-.4-3-1.3-4s-2-1.5-3.5-1.5-2.6.5-3.5 1.5-1.3 2.3-1.3 3.9l-2.2-1.4c0-1.5.4-2.9 1.1-4.1s1.7-2.1 3-2.9 2.7-1 4.3-1 3.1.4 4.3 1c1.2.7 2.1 1.7 2.7 3s.9 2.7.9 4.4v15.7zm14 0v-14.6c0-1.7-.4-3-1.3-4s-2-1.4-3.4-1.4c-.9 0-1.7.2-2.4.6s-1.3 1-1.7 1.8-.7 1.8-.7 3l-2.2-1.1c0-1.6.3-3.1 1-4.4s1.7-2.2 3-2.9 2.7-1 4.2-1c2.5 0 4.5.8 5.9 2.3s2.1 3.5 2.1 6.1v15.7h-4.5z"/><path d="m585.2 296.8-7.2-23.5h4.5l4.9 16.1 5-16.1h3.9l5 16.1 4.9-16.1h4.5l-7.2 23.5h-3.7l-5.5-17-5.5 17z"/><path d="m621 297.5c-1.7 0-3.2-.3-4.4-1s-2.1-1.5-2.7-2.6-.9-2.2-.9-3.5c0-1.2.2-2.2.6-3.1s1-1.7 1.9-2.3 1.8-1.1 3-1.5c1-.3 2.2-.6 3.5-.8s2.7-.5 4.2-.6c1.5-.2 2.9-.4 4.3-.6l-1.7.9c0-1.8-.4-3.2-1.2-4.1s-2.2-1.3-4.1-1.3c-1.2 0-2.4.3-3.4.9s-1.8 1.5-2.2 2.8l-4.2-1.3c.6-2 1.7-3.6 3.3-4.8s3.8-1.8 6.5-1.8c2.1 0 3.9.4 5.5 1.1s2.7 1.9 3.4 3.4c.4.8.6 1.6.7 2.4.1.9.1 1.8.1 2.8v14.5h-4v-5.4l.8.7c-1 1.8-2.2 3.1-3.7 4s-3.1 1.2-5.3 1.2zm.8-3.7c1.3 0 2.4-.2 3.3-.7s1.7-1 2.2-1.8.9-1.5 1.1-2.2.4-1.5.4-2.4 0-1.6 0-2.1l1.5.5c-1.4.2-2.7.4-3.9.6s-2.2.3-3.2.5-1.8.4-2.5.6c-.6.2-1.2.5-1.7.8s-.9.7-1.2 1.1-.4 1-.4 1.6.2 1.2.5 1.7.8.9 1.4 1.2c.8.4 1.6.6 2.5.6z"/><path d="m639.9 296.8v-23.5h4v5.7l-.6-.7c.3-.8.7-1.5 1.1-2.1s1-1.1 1.6-1.5 1.3-.8 2-1 1.5-.4 2.2-.4c.8 0 1.5 0 2.2.1v4.3c-.8-.2-1.6-.3-2.5-.2s-1.8.4-2.6.9c-.7.5-1.3 1.1-1.8 1.7s-.7 1.4-.9 2.3c-.2.8-.3 1.7-.3 2.6v11.9z"/><path d="m667.2 297.5c-2.3 0-4.4-.5-6.1-1.5s-3.1-2.5-4.1-4.3-1.5-4-1.5-6.4c0-2.6.5-4.8 1.5-6.7s2.3-3.3 4-4.4c1.7-1 3.7-1.5 6-1.5s4.4.5 6.1 1.7c1.7 1.1 2.9 2.7 3.8 4.7.8 2 1.2 4.5 1 7.3h-4.5v-1.6c0-2.7-.5-4.7-1.5-6s-2.5-2-4.6-2c-2.3 0-4 .7-5.1 2.1s-1.7 3.5-1.7 6.2.6 4.6 1.7 6c1.2 1.4 2.8 2.1 5 2.1 1.4 0 2.7-.3 3.7-1 1-.6 1.8-1.6 2.4-2.8l4.5 1.4c-.9 2.1-2.3 3.7-4.2 4.9-2.1 1.2-4.1 1.8-6.4 1.8zm-8.4-11.1v-3.5h16.8v3.5z"/><circle cx="39.3" cy="282.3" fill="none" r="34.4" stroke="url(#d)" stroke-linecap="round" stroke-miterlimit="10" stroke-width="9.88"/><path d="m40.1 298.5c-1.4 0-2.8-.3-4-.8s-2.4-1.3-3.3-2.4-1.6-2.2-2-3.6l4.6-1.2c.3 1.1.9 2 1.8 2.6s1.8.9 2.9.9c.9 0 1.8-.2 2.5-.6s1.3-1 1.7-1.8c.4-.7.6-1.6.6-2.5 0-1.4-.5-2.6-1.4-3.5s-2.1-1.4-3.5-1.4c-.4 0-.9.1-1.3.2s-.8.3-1.2.5l-2.2-3.8 9.6-8.2.4 1.1h-13.4v-4.5h17.5v4.5l-7.7 7.4v-1.4c1.7.1 3.2.6 4.4 1.4s2.2 1.9 2.8 3.3c.7 1.3 1 2.8 1 4.4 0 1.8-.4 3.4-1.3 4.8s-2 2.5-3.5 3.4-3.2 1.2-5 1.2z"/><path d="m73.9 162.8h284" fill="none" stroke="url(#e)" stroke-linecap="round" stroke-miterlimit="10" stroke-width="9.88"/><path d="m410.2 178.7v-31.3h12.6 1.1c.5 0 .9.1 1.3.1 1.7.3 3.2.9 4.4 1.8s2 2.1 2.6 3.5.9 2.9.9 4.6-.3 3.2-.9 4.6-1.5 2.5-2.6 3.5c-1.2.9-2.6 1.5-4.4 1.8-.4.1-.8.1-1.3.1s-.8 0-1.1 0h-8.1v11.2zm4.5-15.6h7.9 1c.4 0 .7-.1 1-.1.9-.2 1.7-.6 2.2-1.2.6-.6 1-1.3 1.2-2s.4-1.5.4-2.3-.1-1.5-.4-2.3-.6-1.4-1.2-2-1.3-1-2.2-1.2c-.3-.1-.7-.1-1-.2-.4 0-.7 0-1 0h-7.9z"/><path d="m437.4 178.7v-31.3h4.1v16.9h.5v14.4zm16.5 0v-11.5c0-.9-.1-1.9-.2-2.8-.1-1-.4-1.9-.9-2.7-.4-.8-1-1.5-1.8-2s-1.8-.8-3-.8c-.8 0-1.6.1-2.3.4s-1.4.7-1.9 1.3-1 1.4-1.3 2.4-.5 2.1-.5 3.5l-2.8-1.1c0-2.1.4-4 1.2-5.6s1.9-2.9 3.4-3.8 3.3-1.4 5.4-1.4c1.6 0 3 .3 4.1.8s2 1.2 2.7 2.1 1.2 1.8 1.6 2.8.6 2 .7 2.9c.1 1 .2 1.8.2 2.5v13z"/><path d="m465.1 151.4v-4.4h4.5v4.4zm0 27.3v-23.5h4.5v23.5z"/><path d="m485.3 179.3c-2.9 0-5.2-.6-7-1.9s-2.9-3-3.3-5.3l4.6-.7c.3 1.2 1 2.2 2 2.9s2.4 1.1 3.9 1.1c1.4 0 2.5-.3 3.3-.9s1.2-1.4 1.2-2.4c0-.6-.1-1.1-.4-1.4s-.9-.7-1.8-1.1-2.3-.8-4.1-1.2c-2-.5-3.6-1.1-4.8-1.7s-2-1.3-2.5-2.1-.8-1.8-.8-2.9c0-1.4.4-2.7 1.1-3.7s1.8-1.9 3.2-2.5 3-.9 4.8-.9 3.4.3 4.8.9 2.5 1.4 3.4 2.4 1.4 2.2 1.6 3.6l-4.6.9c-.2-1.1-.7-2-1.6-2.7s-2.1-1-3.5-1.1-2.5.2-3.4.7-1.3 1.2-1.3 2.1c0 .5.2 1 .5 1.3.3.4 1 .7 1.9 1s2.3.7 4.2 1.2c2 .5 3.5 1.1 4.7 1.7s2 1.4 2.5 2.2c.5.9.8 1.9.8 3.1 0 2.3-.8 4.1-2.5 5.5s-3.9 1.9-6.9 1.9z"/><path d="m500.3 178.7v-31.3h4.1v16.9h.5v14.4zm16.5 0v-11.5c0-.9-.1-1.9-.2-2.8-.2-1-.4-1.9-.9-2.7s-1-1.5-1.8-2-1.8-.8-3-.8c-.8 0-1.6.1-2.3.4s-1.4.7-1.9 1.3-1 1.4-1.3 2.4-.5 2.1-.5 3.5l-2.8-1.1c0-2.1.4-4 1.2-5.6s1.9-2.9 3.4-3.8 3.3-1.4 5.4-1.4c1.6 0 3 .3 4.1.8s2 1.2 2.7 2.1 1.2 1.8 1.6 2.8.6 2 .7 2.9c.1 1 .2 1.8.2 2.5v13z"/><path d="m527.9 151.4v-4.4h4.5v4.4zm0 27.3v-23.5h4.5v23.5z"/><path d="m539.3 178.7v-23.5h4.1v6.8h.5v16.7zm16.5 0v-11.5c0-.9-.1-1.9-.2-2.8-.2-1-.4-1.9-.9-2.7-.4-.8-1-1.5-1.8-2s-1.8-.8-3-.8c-.8 0-1.6.1-2.3.4s-1.4.7-1.9 1.3-1 1.4-1.3 2.4-.5 2.1-.5 3.5l-2.8-1.1c0-2.1.4-4 1.2-5.6s1.9-2.9 3.4-3.8 3.3-1.4 5.4-1.4c1.6 0 3 .3 4.1.8s2 1.2 2.7 2.1 1.2 1.8 1.6 2.8.6 2 .7 2.9c.1 1 .2 1.8.2 2.5v13z"/><path d="m576 179.3c-2.2 0-4.1-.5-5.7-1.6s-2.8-2.6-3.7-4.4c-.9-1.9-1.3-4-1.3-6.3s.4-4.5 1.3-6.3c.9-1.9 2.1-3.3 3.7-4.4s3.5-1.6 5.7-1.6 4.1.5 5.6 1.6 2.7 2.6 3.4 4.4 1.2 4 1.2 6.3-.4 4.5-1.2 6.3-1.9 3.4-3.5 4.4-3.2 1.6-5.5 1.6zm.4 10.5c-1.3 0-2.5-.2-3.7-.6s-2.3-1-3.2-1.7-1.8-1.7-2.4-2.8l4.2-2.1c.5 1 1.2 1.7 2.2 2.2.9.5 1.9.7 3 .7 1.3 0 2.4-.2 3.3-.7s1.6-1.1 2.1-2.1.7-2 .7-3.4v-6.6h.5v-17.5h4v24.1c0 .6 0 1.2-.1 1.8 0 .6-.1 1.1-.2 1.7-.3 1.6-1 2.9-1.9 3.9s-2.1 1.8-3.6 2.3-3.1.8-4.9.8zm.3-14.6c1.5 0 2.7-.4 3.7-1.1s1.6-1.7 2.1-2.9.7-2.7.7-4.3-.2-3.1-.7-4.3c-.4-1.2-1.1-2.2-2-2.9s-2.1-1-3.5-1c-1.5 0-2.8.4-3.7 1.1s-1.7 1.7-2.2 3-.7 2.6-.7 4.2.2 2.9.7 4.2c.5 1.2 1.2 2.2 2.1 3s2 1 3.5 1z"/><circle cx="39.3" cy="162.8" fill="none" r="34.4" stroke="url(#f)" stroke-linecap="round" stroke-miterlimit="10" stroke-width="9.88"/><path d="m29.5 175.8v-4.1l12.2-10.9c1-.8 1.6-1.6 2-2.4s.5-1.5.5-2.2c0-.9-.2-1.8-.6-2.5s-1-1.3-1.7-1.8c-.7-.4-1.5-.6-2.5-.6s-1.9.2-2.6.7c-.8.5-1.3 1.1-1.8 1.8-.4.8-.6 1.6-.6 2.4h-4.9c0-1.9.4-3.6 1.3-5s2-2.5 3.5-3.3 3.2-1.2 5.2-1.2c1.8 0 3.5.4 4.9 1.2s2.6 1.9 3.4 3.4c.8 1.4 1.2 3.1 1.2 4.9 0 1.4-.2 2.5-.5 3.4s-.9 1.8-1.7 2.6c-.7.8-1.6 1.6-2.7 2.6l-8.6 7.6-.4-1.2h14v4.5z"/><path d="m73.9 43.2h284" fill="none" stroke="url(#g)" stroke-linecap="round" stroke-miterlimit="10" stroke-width="9.88"/><path d="m410.2 60.5v-31.3h4.1l11.4 23.5 11.3-23.5h4.1v31.3h-4.3v-21.4l-10.1 21.4h-2.1l-10.1-21.4v21.4z"/><path d="m454.2 61.2c-1.7 0-3.2-.3-4.4-1s-2.1-1.5-2.7-2.6-.9-2.2-.9-3.5c0-1.2.2-2.2.6-3.1s1-1.7 1.9-2.3 1.8-1.1 3-1.5c1-.3 2.2-.6 3.5-.8s2.7-.5 4.2-.7 2.9-.4 4.3-.6l-1.6.9c0-1.8-.4-3.2-1.2-4.1s-2.2-1.3-4.1-1.3c-1.2 0-2.4.3-3.4.9s-1.8 1.5-2.1 2.8l-4.2-1.3c.6-2 1.7-3.6 3.3-4.8s3.8-1.8 6.5-1.8c2.1 0 3.9.4 5.5 1.1s2.7 1.8 3.4 3.4c.4.8.6 1.6.7 2.4s.1 1.8.1 2.8v14.5h-4v-5.4l.8.7c-1 1.8-2.2 3.1-3.7 4s-3.3 1.3-5.5 1.3zm.8-3.8c1.3 0 2.4-.2 3.3-.7s1.7-1 2.2-1.8.9-1.5 1.1-2.2.4-1.5.4-2.3c0-.9 0-1.6 0-2.1l1.5.5c-1.4.2-2.7.4-3.9.6s-2.2.3-3.2.5-1.8.4-2.5.6c-.6.2-1.2.5-1.7.8s-.9.7-1.1 1.1c-.3.4-.4 1-.4 1.6s.1 1.2.5 1.7c.3.5.8.9 1.4 1.2.7.4 1.5.5 2.4.5z"/><path d="m473.2 60.5v-32h4.5v32z"/><path d="m489.5 60.5-7.2-23.5h4.5l4.9 16.1 5-16.1h3.9l5 16.1 4.9-16.1h4.5l-7.2 23.5h-3.6l-5.5-17-5.5 17z"/><path d="m525.4 61.2c-1.7 0-3.2-.3-4.4-1s-2.1-1.5-2.7-2.6-.9-2.2-.9-3.5c0-1.2.2-2.2.6-3.1s1-1.7 1.9-2.3 1.8-1.1 3-1.5c1-.3 2.2-.6 3.5-.8s2.7-.5 4.2-.7 2.9-.4 4.3-.6l-1.7.9c0-1.8-.4-3.2-1.2-4.1s-2.2-1.3-4.1-1.3c-1.2 0-2.4.3-3.4.9s-1.8 1.5-2.2 2.8l-4.2-1.3c.6-2 1.7-3.6 3.3-4.8s3.8-1.8 6.5-1.8c2.1 0 3.9.4 5.5 1.1s2.7 1.8 3.4 3.4c.4.8.6 1.6.7 2.4s.1 1.8.1 2.8v14.5h-4v-5.4l.8.7c-1 1.8-2.2 3.1-3.7 4s-3.1 1.3-5.3 1.3zm.8-3.8c1.3 0 2.4-.2 3.3-.7s1.7-1 2.2-1.8.9-1.5 1.1-2.2.4-1.5.4-2.3c0-.9 0-1.6 0-2.1l1.5.5c-1.4.2-2.7.4-3.9.6s-2.2.3-3.2.5-1.8.4-2.5.6c-.6.2-1.2.5-1.7.8s-.9.7-1.2 1.1-.4 1-.4 1.6.2 1.2.5 1.7.8.9 1.4 1.2c.7.4 1.5.5 2.5.5z"/><path d="m544.2 60.5v-23.5h4v5.7l-.6-.7c.3-.8.7-1.5 1.1-2.1s1-1.2 1.6-1.5c.6-.4 1.3-.8 2-1s1.5-.4 2.2-.4c.8 0 1.5 0 2.2.1v4.3c-.8-.2-1.6-.3-2.5-.2s-1.8.4-2.6.9c-.7.5-1.3 1.1-1.8 1.7s-.7 1.4-.9 2.3-.3 1.7-.3 2.6v11.8z"/><path d="m571.5 61.2c-2.3 0-4.4-.5-6.1-1.5s-3.1-2.5-4.1-4.3-1.5-4-1.5-6.4c0-2.6.5-4.8 1.5-6.7s2.3-3.3 4-4.4c1.7-1 3.7-1.5 6-1.5s4.4.5 6.1 1.7 2.9 2.7 3.8 4.7c.8 2 1.2 4.5 1 7.3h-4.5v-1.7c0-2.7-.5-4.7-1.5-6s-2.5-2-4.6-2c-2.3 0-4 .7-5.1 2.2-1.1 1.4-1.7 3.5-1.7 6.2s.6 4.6 1.7 6c1.2 1.4 2.8 2.1 5 2.1 1.4 0 2.7-.3 3.7-1 1-.6 1.8-1.6 2.4-2.8l4.5 1.4c-.9 2.1-2.3 3.7-4.2 4.9-2 1.2-4.1 1.8-6.4 1.8zm-8.3-11.1v-3.5h16.8v3.5z"/><circle cx="39.3" cy="43.2" fill="none" r="34.4" stroke="url(#h)" stroke-linecap="round" stroke-miterlimit="10" stroke-width="9.88"/><path d="m39.2 56.3v-23.3l-5.3 3.3v-5.3l5.3-3.2h4.9v28.5z"/></svg>