<svg viewBox="0 0 859.04 413.38" xmlns="http://www.w3.org/2000/svg" xmlns:xlink="http://www.w3.org/1999/xlink"><linearGradient id="a" gradientTransform="matrix(.74999927 .0010472 -.00074176 .99999994 -494.39 2.03)" gradientUnits="userSpaceOnUse" x1="756.78" x2="1138.57" y1="369.65" y2="369.65"><stop offset="0" stop-color="#5454a8"/><stop offset=".28" stop-color="#6661b3"/><stop offset=".73" stop-color="#7f71c2"/><stop offset="1" stop-color="#8878c8"/></linearGradient><linearGradient id="b" gradientUnits="userSpaceOnUse" x1="0" x2="82.51" y1="372.12" y2="372.12"><stop offset="0" stop-color="#8878c8"/><stop offset=".27" stop-color="#7f71c2"/><stop offset=".72" stop-color="#6661b3"/><stop offset="1" stop-color="#5454a8"/></linearGradient><linearGradient id="c" x1="72.35" x2="361.64" xlink:href="#a" y1="206.69" y2="206.69"/><linearGradient id="d" xlink:href="#b" y1="206.69" y2="206.69"/><linearGradient id="e" x1="72.35" x2="361.64" xlink:href="#a" y1="41.25" y2="41.25"/><linearGradient id="f" xlink:href="#b" y1="41.25" y2="41.25"/><path d="m411.65 380.88v-27.05h10.93c.26 0 .59 0 .98.03.39.02.76.06 1.11.12 1.5.24 2.76.75 3.77 1.54s1.76 1.78 2.26 2.99c.5 1.2.75 2.53.75 3.98s-.25 2.8-.75 4-1.26 2.2-2.26 2.99-2.26 1.3-3.77 1.54c-.35.05-.72.09-1.12.11-.39.02-.72.04-.97.04h-7.01v9.71h-3.93zm3.93-13.43h6.86c.25 0 .53-.01.84-.04.31-.02.6-.07.87-.13.8-.19 1.45-.54 1.93-1.04.49-.51.84-1.09 1.05-1.76s.32-1.33.32-1.99-.11-1.32-.32-1.98-.56-1.24-1.05-1.75-1.13-.86-1.93-1.04c-.28-.08-.57-.12-.87-.15-.31-.03-.59-.04-.84-.04h-6.86z"/><path d="m435.26 380.88v-20.29h3.49v4.92l-.49-.64c.25-.65.58-1.25.98-1.79s.86-.99 1.39-1.34c.51-.38 1.09-.67 1.72-.87.63-.21 1.28-.33 1.94-.38s1.3 0 1.92.1v3.68c-.66-.17-1.4-.22-2.21-.15-.81.08-1.55.33-2.23.77-.64.41-1.14.92-1.51 1.5-.37.59-.63 1.24-.8 1.96s-.24 1.48-.24 2.28v10.24h-3.96z"/><path d="m458.77 381.44c-2.03 0-3.79-.46-5.28-1.37s-2.64-2.18-3.45-3.79-1.21-3.46-1.21-5.57.41-3.98 1.24-5.59 1.98-2.86 3.47-3.76 3.23-1.34 5.22-1.34 3.79.46 5.28 1.37 2.64 2.17 3.46 3.78c.81 1.6 1.22 3.45 1.22 5.54s-.41 3.98-1.23 5.59-1.98 2.87-3.46 3.78c-1.49.91-3.24 1.36-5.26 1.36zm0-3.7c1.94 0 3.39-.65 4.35-1.96s1.44-3 1.44-5.06-.49-3.81-1.46-5.08-2.41-1.91-4.33-1.91c-1.31 0-2.4.3-3.25.89-.85.6-1.48 1.42-1.9 2.46s-.62 2.26-.62 3.63c0 2.13.49 3.83 1.46 5.11.98 1.28 2.41 1.92 4.3 1.92z"/><path d="m481.55 381.44c-1.89 0-3.52-.47-4.89-1.41s-2.43-2.22-3.17-3.84c-.75-1.62-1.12-3.45-1.12-5.47s.38-3.87 1.13-5.48 1.82-2.88 3.2-3.81 3.03-1.4 4.93-1.4 3.53.47 4.84 1.4 2.3 2.21 2.97 3.82 1 3.44 1 5.47-.34 3.85-1.01 5.46c-.68 1.62-1.67 2.9-2.99 3.84-1.32.95-2.94 1.42-4.88 1.42zm.3 9.02c-1.09 0-2.14-.17-3.17-.51-1.02-.34-1.95-.84-2.79-1.49-.84-.66-1.53-1.47-2.08-2.43l3.62-1.84c.44.86 1.06 1.5 1.88 1.9.81.4 1.67.6 2.57.6 1.11 0 2.07-.2 2.86-.59s1.39-.99 1.79-1.78c.41-.79.6-1.76.59-2.93v-5.67h.47v-15.12h3.47v20.83c0 .54-.02 1.05-.06 1.54s-.11.98-.21 1.46c-.29 1.37-.84 2.49-1.64 3.38s-1.83 1.55-3.08 1.99-2.66.66-4.24.66zm.24-12.57c1.29 0 2.34-.31 3.16-.92.81-.61 1.41-1.46 1.78-2.54.38-1.08.56-2.32.56-3.72s-.19-2.64-.57-3.72-.97-1.92-1.77-2.52-1.81-.9-3.03-.9c-1.3 0-2.37.32-3.21.96s-1.46 1.5-1.87 2.57c-.41 1.08-.61 2.28-.61 3.61s.2 2.55.61 3.63 1.02 1.94 1.84 2.58 1.86.96 3.11.96z"/><path d="m496.84 380.88v-20.29h3.49v4.92l-.49-.64c.25-.65.58-1.25.98-1.79s.86-.99 1.39-1.34c.51-.38 1.09-.67 1.72-.87.63-.21 1.28-.33 1.94-.38s1.3 0 1.92.1v3.68c-.66-.17-1.4-.22-2.21-.15-.81.08-1.55.33-2.23.77-.64.41-1.14.92-1.51 1.5-.37.59-.63 1.24-.8 1.96s-.24 1.48-.24 2.28v10.24h-3.96z"/><path d="m517.47 381.44c-1.5 0-2.76-.28-3.78-.84s-1.78-1.3-2.3-2.22-.78-1.93-.78-3.03c0-1.03.18-1.93.54-2.71s.9-1.44 1.62-1.98c.71-.54 1.59-.99 2.63-1.32.9-.26 1.92-.5 3.06-.7s2.34-.39 3.6-.56 2.51-.35 3.75-.53l-1.43.79c.02-1.59-.31-2.77-1-3.54-.7-.77-1.89-1.15-3.58-1.15-1.06 0-2.04.25-2.93.74s-1.51 1.31-1.86 2.45l-3.66-1.13c.5-1.74 1.46-3.12 2.86-4.15 1.41-1.03 3.28-1.54 5.62-1.54 1.82 0 3.4.31 4.74.93 1.35.62 2.33 1.6 2.96 2.94.33.66.53 1.37.6 2.1s.11 1.53.11 2.38v12.49h-3.47v-4.64l.68.6c-.84 1.55-1.91 2.71-3.2 3.46s-2.89 1.14-4.78 1.14zm.7-3.21c1.11 0 2.07-.2 2.87-.59s1.45-.9 1.93-1.51c.49-.61.81-1.25.96-1.92.21-.6.33-1.28.37-2.03.03-.75.05-1.35.05-1.8l1.28.47c-1.24.19-2.37.36-3.38.51s-1.93.3-2.75.44-1.55.32-2.19.52c-.54.19-1.02.41-1.44.68-.42.26-.75.58-1 .96-.24.38-.37.83-.37 1.37s.13 1.01.39 1.46.66.8 1.2 1.06 1.23.39 2.07.39z"/><path d="m533.79 380.88v-20.29h3.49v5.86h.45v14.42h-3.95zm12.17 0 .02-12.57c0-1.48-.37-2.64-1.12-3.47-.75-.84-1.74-1.26-3-1.26s-2.24.43-3 1.28-1.14 1.97-1.14 3.34l-1.88-1.2c0-1.33.32-2.51.96-3.55s1.5-1.86 2.59-2.46 2.32-.9 3.7-.9 2.67.3 3.68.91 1.79 1.46 2.32 2.54c.53 1.09.8 2.35.8 3.79l-.02 13.54h-3.93zm12.15 0 .02-12.64c0-1.47-.38-2.61-1.13-3.43s-1.74-1.23-2.97-1.23c-.75 0-1.44.17-2.06.52s-1.12.86-1.5 1.54-.57 1.54-.57 2.56l-1.9-.96c-.03-1.43.28-2.68.91-3.76s1.49-1.91 2.58-2.51c1.09-.59 2.31-.89 3.66-.89 2.19 0 3.89.66 5.09 1.97s1.8 3.06 1.8 5.24l-.02 13.58h-3.93z"/><path d="m585.01 381.44c-2.08 0-3.84-.46-5.3-1.39-1.45-.93-2.56-2.2-3.33-3.81-.77-1.62-1.16-3.45-1.17-5.5.01-2.09.41-3.94 1.2-5.55s1.92-2.87 3.38-3.79c1.46-.91 3.22-1.37 5.28-1.37 2.22 0 4.11.55 5.68 1.65s2.61 2.61 3.11 4.53l-3.91 1.13c-.39-1.14-1.02-2.03-1.91-2.66s-1.89-.95-3.03-.95c-1.29 0-2.35.3-3.17.91s-1.44 1.44-1.84 2.49-.61 2.25-.62 3.61c.01 2.09.49 3.78 1.44 5.07s2.34 1.93 4.2 1.93c1.26 0 2.29-.29 3.07-.87s1.38-1.42 1.79-2.51l3.98.94c-.66 1.98-1.76 3.5-3.29 4.56s-3.38 1.59-5.56 1.59z"/><path d="m605.82 381.42c-1.4 0-2.58-.23-3.53-.68s-1.73-1.04-2.32-1.77c-.6-.73-1.05-1.53-1.36-2.4-.31-.86-.53-1.71-.64-2.54s-.17-1.55-.17-2.18v-11.27h3.98v9.97c0 .79.07 1.6.2 2.43s.38 1.61.75 2.32.89 1.29 1.56 1.73 1.54.66 2.62.66c.7 0 1.37-.12 1.99-.35.63-.23 1.17-.6 1.64-1.12s.84-1.19 1.11-2.03.4-1.86.4-3.06l2.44.92c0 1.84-.34 3.47-1.03 4.88s-1.68 2.51-2.97 3.3-2.85 1.18-4.68 1.18zm6.71-.54v-5.86h-.47v-14.43h3.96v20.29z"/><path d="m629.48 381.42c-2.47 0-4.48-.54-6.03-1.63s-2.5-2.62-2.85-4.6l4.02-.62c.25 1.05.83 1.88 1.74 2.49s2.04.91 3.39.91c1.23 0 2.19-.25 2.88-.75s1.04-1.19 1.04-2.07c0-.51-.12-.93-.37-1.25-.24-.32-.75-.62-1.53-.91s-1.96-.65-3.55-1.07c-1.74-.45-3.12-.94-4.14-1.46s-1.75-1.13-2.18-1.82c-.43-.7-.65-1.54-.65-2.53 0-1.23.33-2.3.98-3.21s1.57-1.62 2.75-2.12 2.57-.75 4.16-.75 2.94.24 4.15.73 2.2 1.18 2.95 2.08 1.2 1.94 1.35 3.15l-4.02.73c-.14-.98-.59-1.75-1.37-2.31s-1.78-.87-3.02-.92c-1.19-.05-2.15.15-2.89.59-.74.45-1.11 1.06-1.11 1.83 0 .45.14.83.42 1.15.28.31.83.61 1.64.9s2.02.63 3.61 1.03c1.7.44 3.06.92 4.06 1.46 1 .53 1.72 1.17 2.15 1.9s.65 1.62.65 2.66c0 2-.73 3.58-2.19 4.71-1.46 1.14-3.47 1.71-6.04 1.71z"/><path d="m640.54 363.75v-3.16h13.86v3.16zm13.86 17.13c-1.28.25-2.53.36-3.76.32s-2.32-.28-3.29-.71c-.96-.44-1.69-1.13-2.18-2.07-.44-.84-.67-1.69-.7-2.56s-.05-1.86-.05-2.96v-17.94h3.94v17.75c0 .81 0 1.52.03 2.12s.15 1.11.38 1.52c.45.78 1.17 1.22 2.15 1.32.98.11 2.14.07 3.47-.12v3.33z"/><path d="m667.17 381.44c-2.03 0-3.79-.46-5.28-1.37s-2.64-2.18-3.45-3.79-1.21-3.46-1.21-5.57.41-3.98 1.24-5.59 1.98-2.86 3.47-3.76 3.23-1.34 5.22-1.34 3.79.46 5.28 1.37 2.64 2.17 3.46 3.78c.81 1.6 1.22 3.45 1.22 5.54s-.41 3.98-1.23 5.59-1.98 2.87-3.46 3.78c-1.49.91-3.24 1.36-5.26 1.36zm0-3.7c1.94 0 3.39-.65 4.35-1.96s1.44-3 1.44-5.06-.49-3.81-1.46-5.08-2.41-1.91-4.33-1.91c-1.31 0-2.4.3-3.25.89-.85.6-1.48 1.42-1.9 2.46s-.62 2.26-.62 3.63c0 2.13.49 3.83 1.46 5.11.98 1.28 2.41 1.92 4.3 1.92z"/><path d="m681.84 380.88v-20.29h3.49v5.86h.45v14.42h-3.95zm12.17 0 .02-12.57c0-1.48-.37-2.64-1.12-3.47-.75-.84-1.74-1.26-3-1.26s-2.24.43-3 1.28-1.14 1.97-1.14 3.34l-1.88-1.2c0-1.33.32-2.51.96-3.55s1.5-1.86 2.59-2.46 2.32-.9 3.7-.9 2.67.3 3.68.91 1.79 1.46 2.32 2.54c.53 1.09.8 2.35.8 3.79l-.02 13.54h-3.93zm12.15 0 .02-12.64c0-1.47-.38-2.61-1.13-3.43s-1.74-1.23-2.97-1.23c-.75 0-1.44.17-2.06.52s-1.12.86-1.5 1.54-.57 1.54-.57 2.56l-1.9-.96c-.03-1.43.28-2.68.91-3.76s1.49-1.91 2.58-2.51c1.09-.59 2.31-.89 3.66-.89 2.19 0 3.89.66 5.09 1.97s1.8 3.06 1.8 5.24l-.02 13.58h-3.93z"/><path d="m715.83 357.27v-3.81h3.93v3.81zm0 23.61v-20.29h3.93v20.29z"/><path d="m723.76 380.88v-.62l11.51-16.15h-10.46v-3.51h16.7v.64l-11.5 16.13h10.93v3.51h-17.19z"/><path d="m751.65 381.44c-1.5 0-2.76-.28-3.78-.84s-1.78-1.3-2.3-2.22-.78-1.93-.78-3.03c0-1.03.18-1.93.54-2.71s.9-1.44 1.62-1.98c.71-.54 1.59-.99 2.63-1.32.9-.26 1.92-.5 3.06-.7s2.34-.39 3.6-.56 2.51-.35 3.75-.53l-1.43.79c.02-1.59-.31-2.77-1-3.54-.7-.77-1.89-1.15-3.58-1.15-1.06 0-2.04.25-2.93.74s-1.51 1.31-1.86 2.45l-3.66-1.13c.5-1.74 1.46-3.12 2.86-4.15 1.41-1.03 3.28-1.54 5.62-1.54 1.82 0 3.4.31 4.74.93 1.35.62 2.33 1.6 2.96 2.94.33.66.53 1.37.6 2.1s.11 1.53.11 2.38v12.49h-3.47v-4.64l.68.6c-.84 1.55-1.91 2.71-3.2 3.46s-2.89 1.14-4.78 1.14zm.7-3.21c1.11 0 2.07-.2 2.87-.59s1.45-.9 1.93-1.51c.49-.61.81-1.25.96-1.92.21-.6.33-1.28.37-2.03.03-.75.05-1.35.05-1.8l1.28.47c-1.24.19-2.37.36-3.38.51s-1.93.3-2.75.44-1.55.32-2.19.52c-.54.19-1.02.41-1.44.68-.42.26-.75.58-1 .96-.24.38-.37.83-.37 1.37s.13 1.01.39 1.46.66.8 1.2 1.06 1.23.39 2.07.39z"/><path d="m765.62 363.75v-3.16h13.86v3.16zm13.86 17.13c-1.28.25-2.53.36-3.76.32s-2.32-.28-3.29-.71c-.96-.44-1.69-1.13-2.18-2.07-.44-.84-.67-1.69-.7-2.56s-.05-1.86-.05-2.96v-17.94h3.94v17.75c0 .81 0 1.52.03 2.12s.15 1.11.38 1.52c.45.78 1.17 1.22 2.15 1.32.98.11 2.14.07 3.47-.12v3.33z"/><path d="m783.89 357.27v-3.81h3.93v3.81zm0 23.61v-20.29h3.93v20.29z"/><path d="m802.69 381.44c-2.03 0-3.79-.46-5.28-1.37s-2.64-2.18-3.45-3.79-1.21-3.46-1.21-5.57.41-3.98 1.24-5.59 1.98-2.86 3.47-3.76 3.23-1.34 5.22-1.34 3.79.46 5.28 1.37 2.64 2.17 3.46 3.78c.81 1.6 1.22 3.45 1.22 5.54s-.41 3.98-1.23 5.59-1.98 2.87-3.46 3.78c-1.49.91-3.24 1.36-5.26 1.36zm0-3.7c1.94 0 3.39-.65 4.35-1.96s1.44-3 1.44-5.06-.49-3.81-1.46-5.08-2.41-1.91-4.33-1.91c-1.31 0-2.4.3-3.25.89-.85.6-1.48 1.42-1.9 2.46s-.62 2.26-.62 3.63c0 2.13.49 3.83 1.46 5.11.98 1.28 2.41 1.92 4.3 1.92z"/><path d="m817.36 380.88v-20.29h3.51v5.86h.47v14.42h-3.98zm14.26 0v-9.97c0-.79-.07-1.6-.2-2.43s-.38-1.61-.75-2.32-.89-1.29-1.56-1.73-1.54-.66-2.62-.66c-.7 0-1.37.12-1.99.35s-1.17.6-1.64 1.12-.84 1.19-1.11 2.03-.4 1.86-.4 3.06l-2.44-.92c0-1.84.34-3.47 1.03-4.88s1.68-2.51 2.97-3.3 2.85-1.18 4.68-1.18c1.4 0 2.58.23 3.53.68s1.73 1.04 2.32 1.77 1.05 1.53 1.36 2.39.53 1.71.64 2.54.17 1.55.17 2.18v11.27h-3.98z"/><path d="m411.65 215.98v-27.05h10.93c.26 0 .59 0 .98.03.39.02.76.06 1.11.12 1.5.24 2.76.75 3.77 1.54s1.76 1.79 2.26 2.99.75 2.53.75 3.98-.25 2.8-.75 4-1.26 2.2-2.26 2.99c-1.01.79-2.26 1.3-3.77 1.54-.35.05-.72.09-1.12.11-.39.02-.72.04-.97.04h-7.01v9.71h-3.93zm3.93-13.43h6.86c.25 0 .53-.01.84-.04.31-.02.6-.07.87-.13.8-.19 1.45-.54 1.93-1.04s.84-1.09 1.05-1.76c.21-.66.32-1.33.32-1.99s-.11-1.32-.32-1.98-.56-1.24-1.05-1.75-1.13-.85-1.93-1.04c-.28-.07-.57-.12-.87-.15-.31-.02-.59-.04-.84-.04h-6.86z"/><path d="m444.28 216.54c-2.02 0-3.79-.44-5.31-1.32s-2.71-2.12-3.55-3.7c-.85-1.58-1.27-3.42-1.27-5.51 0-2.22.42-4.14 1.25-5.77s1.99-2.89 3.48-3.78 3.22-1.33 5.2-1.33 3.83.48 5.28 1.44 2.54 2.32 3.26 4.08c.72 1.77 1 3.86.85 6.29h-3.93v-1.43c-.03-2.35-.47-4.09-1.34-5.22s-2.19-1.69-3.97-1.69c-1.97 0-3.44.62-4.43 1.86s-1.48 3.03-1.48 5.37.49 3.95 1.48 5.17 2.42 1.83 4.28 1.83c1.23 0 2.29-.28 3.18-.84.9-.56 1.59-1.36 2.09-2.39l3.85 1.22c-.79 1.82-1.99 3.22-3.59 4.22s-3.39 1.49-5.35 1.49zm-7.23-9.6v-3.06h14.48v3.06z"/><path d="m458.18 215.98v-20.29h3.49v4.92l-.49-.64c.25-.65.58-1.25.98-1.79s.86-.99 1.39-1.34c.51-.38 1.09-.67 1.72-.87.63-.21 1.28-.33 1.94-.38.66-.04 1.3 0 1.92.1v3.68c-.66-.17-1.4-.23-2.21-.15s-1.55.33-2.23.77c-.64.41-1.14.91-1.51 1.5s-.63 1.24-.8 1.96c-.16.72-.24 1.48-.24 2.28v10.24h-3.96z"/><path d="m480.97 216.52c-2.47 0-4.48-.54-6.03-1.63s-2.5-2.62-2.85-4.6l4.02-.62c.25 1.05.83 1.88 1.74 2.49s2.04.91 3.39.91c1.23 0 2.19-.25 2.88-.75s1.04-1.19 1.04-2.07c0-.51-.12-.93-.37-1.25-.24-.32-.75-.62-1.53-.91s-1.96-.65-3.55-1.07c-1.74-.45-3.12-.94-4.14-1.46s-1.75-1.13-2.18-1.82c-.43-.7-.65-1.54-.65-2.53 0-1.23.33-2.3.98-3.21s1.57-1.62 2.75-2.12 2.57-.75 4.16-.75 2.94.24 4.15.73 2.2 1.18 2.95 2.08c.75.89 1.2 1.94 1.35 3.15l-4.02.73c-.14-.98-.59-1.75-1.37-2.31s-1.78-.87-3.02-.92c-1.19-.05-2.15.15-2.89.59s-1.11 1.06-1.11 1.83c0 .45.14.83.42 1.15.28.31.83.61 1.64.9s2.02.63 3.61 1.03c1.7.44 3.06.92 4.06 1.46 1 .53 1.72 1.17 2.15 1.9s.65 1.62.65 2.66c0 2-.73 3.57-2.19 4.71s-3.47 1.71-6.04 1.71z"/><path d="m502.69 216.54c-2.03 0-3.79-.46-5.28-1.37s-2.64-2.18-3.45-3.78-1.21-3.47-1.21-5.57.41-3.98 1.24-5.59 1.98-2.86 3.47-3.76 3.23-1.34 5.22-1.34 3.79.46 5.28 1.37 2.64 2.17 3.46 3.78c.81 1.6 1.22 3.45 1.22 5.54s-.41 3.98-1.23 5.59-1.98 2.87-3.46 3.78c-1.49.91-3.24 1.36-5.26 1.36zm0-3.7c1.94 0 3.39-.65 4.35-1.96s1.44-3 1.44-5.06-.49-3.81-1.46-5.08-2.41-1.91-4.33-1.91c-1.31 0-2.4.3-3.25.89s-1.48 1.42-1.9 2.46c-.41 1.05-.62 2.26-.62 3.63 0 2.13.49 3.83 1.46 5.11s2.41 1.92 4.3 1.92z"/><path d="m517.36 215.98v-20.29h3.51v5.86h.47v14.43zm14.26 0v-9.97c0-.79-.07-1.6-.2-2.43s-.38-1.61-.75-2.32-.89-1.29-1.56-1.73-1.54-.66-2.62-.66c-.7 0-1.37.12-1.99.35-.63.23-1.17.6-1.64 1.12s-.84 1.19-1.11 2.03-.4 1.86-.4 3.06l-2.44-.92c0-1.84.34-3.47 1.03-4.88s1.68-2.51 2.97-3.3 2.85-1.18 4.68-1.18c1.4 0 2.58.22 3.53.68.95.45 1.73 1.04 2.32 1.78s1.05 1.53 1.36 2.39.53 1.71.64 2.54.17 1.55.17 2.18v11.27h-3.98z"/><path d="m546.78 216.54c-1.5 0-2.76-.28-3.78-.84-1.01-.56-1.78-1.29-2.3-2.22s-.78-1.93-.78-3.03c0-1.03.18-1.93.54-2.71s.9-1.44 1.62-1.98c.71-.54 1.59-.99 2.63-1.32.9-.26 1.92-.49 3.06-.7 1.14-.2 2.34-.39 3.6-.56 1.26-.18 2.51-.35 3.75-.53l-1.43.79c.02-1.59-.31-2.77-1-3.54s-1.89-1.16-3.58-1.16c-1.06 0-2.04.25-2.93.74s-1.51 1.31-1.86 2.45l-3.66-1.13c.5-1.74 1.46-3.12 2.86-4.15 1.41-1.03 3.28-1.54 5.62-1.54 1.82 0 3.4.31 4.74.93 1.35.62 2.33 1.6 2.96 2.94.33.66.53 1.37.6 2.1.08.74.11 1.54.11 2.39v12.49h-3.47v-4.64l.68.6c-.84 1.55-1.91 2.71-3.2 3.47-1.3.76-2.89 1.14-4.78 1.14zm.7-3.21c1.11 0 2.07-.2 2.87-.59s1.45-.9 1.93-1.51.81-1.25.96-1.92c.21-.6.33-1.28.37-2.03.03-.75.05-1.35.05-1.8l1.28.47c-1.24.19-2.37.36-3.38.51s-1.93.3-2.75.44-1.55.32-2.19.52c-.54.19-1.02.41-1.44.68-.42.26-.75.58-1 .96-.24.38-.37.83-.37 1.37s.13 1.01.39 1.46.66.8 1.2 1.06 1.23.39 2.07.39z"/><path d="m563.28 215.98v-27.61h3.93v27.61z"/><path d="m573.32 192.37v-3.81h3.93v3.81zm0 23.61v-20.29h3.93v20.29z"/><path d="m581.24 215.98v-.62l11.51-16.15h-10.46v-3.51h16.7v.64l-11.5 16.13h10.93v3.51h-17.19z"/><path d="m611.72 216.54c-2.02 0-3.79-.44-5.31-1.32s-2.71-2.12-3.55-3.7c-.85-1.58-1.27-3.42-1.27-5.51 0-2.22.42-4.14 1.25-5.77s1.99-2.89 3.48-3.78 3.22-1.33 5.2-1.33 3.83.48 5.28 1.44 2.54 2.32 3.26 4.08c.72 1.77 1 3.86.85 6.29h-3.93v-1.43c-.03-2.35-.47-4.09-1.34-5.22s-2.19-1.69-3.97-1.69c-1.97 0-3.44.62-4.43 1.86s-1.48 3.03-1.48 5.37.49 3.95 1.48 5.17 2.42 1.83 4.28 1.83c1.23 0 2.29-.28 3.18-.84.9-.56 1.59-1.36 2.09-2.39l3.85 1.22c-.79 1.82-1.99 3.22-3.59 4.22s-3.39 1.49-5.35 1.49zm-7.23-9.6v-3.06h14.48v3.06z"/><path d="m633.81 216.54c-1.89 0-3.52-.47-4.89-1.41s-2.43-2.22-3.17-3.84c-.75-1.62-1.12-3.45-1.12-5.47s.38-3.87 1.13-5.47c.75-1.61 1.82-2.88 3.2-3.81s3.03-1.4 4.93-1.4 3.53.47 4.84 1.4 2.3 2.21 2.97 3.82 1 3.44 1 5.47-.34 3.85-1.01 5.47c-.68 1.62-1.67 2.9-2.99 3.84-1.32.95-2.94 1.42-4.88 1.42zm.54-3.55c1.29 0 2.34-.31 3.16-.92.81-.61 1.41-1.46 1.78-2.54.38-1.08.56-2.32.56-3.72s-.19-2.64-.57-3.72-.97-1.92-1.77-2.52-1.81-.9-3.03-.9c-1.3 0-2.37.32-3.21.96s-1.46 1.5-1.87 2.57c-.41 1.08-.61 2.28-.61 3.61s.2 2.55.61 3.63 1.02 1.94 1.84 2.58 1.86.96 3.11.96zm5.5 2.99v-14.59h-.45v-12.45h3.94v27.05h-3.49z"/><path d="m658.37 215.98v-27.61h3.93v27.61z"/><path d="m677.36 216.54c-2.02 0-3.79-.44-5.31-1.32s-2.71-2.12-3.55-3.7c-.85-1.58-1.27-3.42-1.27-5.51 0-2.22.42-4.14 1.25-5.77s1.99-2.89 3.48-3.78 3.22-1.33 5.2-1.33 3.83.48 5.28 1.44 2.54 2.32 3.26 4.08c.72 1.77 1 3.86.85 6.29h-3.93v-1.43c-.03-2.35-.47-4.09-1.34-5.22s-2.19-1.69-3.97-1.69c-1.97 0-3.44.62-4.43 1.86s-1.48 3.03-1.48 5.37.49 3.95 1.48 5.17 2.42 1.83 4.28 1.83c1.23 0 2.29-.28 3.18-.84.9-.56 1.59-1.36 2.09-2.39l3.85 1.22c-.79 1.82-1.99 3.22-3.59 4.22s-3.39 1.49-5.35 1.49zm-7.23-9.6v-3.06h14.48v3.06z"/><path d="m696.96 216.54c-1.5 0-2.76-.28-3.78-.84-1.01-.56-1.78-1.29-2.3-2.22s-.78-1.93-.78-3.03c0-1.03.18-1.93.54-2.71s.9-1.44 1.62-1.98c.71-.54 1.59-.99 2.63-1.32.9-.26 1.92-.49 3.06-.7 1.14-.2 2.34-.39 3.6-.56 1.26-.18 2.51-.35 3.75-.53l-1.43.79c.02-1.59-.31-2.77-1-3.54s-1.89-1.16-3.58-1.16c-1.06 0-2.04.25-2.93.74s-1.51 1.31-1.86 2.45l-3.66-1.13c.5-1.74 1.46-3.12 2.86-4.15 1.41-1.03 3.28-1.54 5.62-1.54 1.82 0 3.4.31 4.74.93 1.35.62 2.33 1.6 2.96 2.94.33.66.53 1.37.6 2.1.08.74.11 1.54.11 2.39v12.49h-3.47v-4.64l.68.6c-.84 1.55-1.91 2.71-3.2 3.47-1.3.76-2.89 1.14-4.78 1.14zm.7-3.21c1.11 0 2.07-.2 2.87-.59s1.45-.9 1.93-1.51.81-1.25.96-1.92c.21-.6.33-1.28.37-2.03.03-.75.05-1.35.05-1.8l1.28.47c-1.24.19-2.37.36-3.38.51s-1.93.3-2.75.44-1.55.32-2.19.52c-.54.19-1.02.41-1.44.68-.42.26-.75.58-1 .96-.24.38-.37.83-.37 1.37s.13 1.01.39 1.46.66.8 1.2 1.06 1.23.39 2.07.39z"/><path d="m713.29 215.98v-20.29h3.49v4.92l-.49-.64c.25-.65.58-1.25.98-1.79s.86-.99 1.39-1.34c.51-.38 1.09-.67 1.72-.87.63-.21 1.28-.33 1.94-.38.66-.04 1.3 0 1.92.1v3.68c-.66-.17-1.4-.23-2.21-.15s-1.55.33-2.23.77c-.64.41-1.14.91-1.51 1.5s-.63 1.24-.8 1.96c-.16.72-.24 1.48-.24 2.28v10.24h-3.96z"/><path d="m728.15 215.98v-20.29h3.51v5.86h.47v14.43zm14.26 0v-9.97c0-.79-.07-1.6-.2-2.43s-.38-1.61-.75-2.32-.89-1.29-1.56-1.73-1.54-.66-2.62-.66c-.7 0-1.37.12-1.99.35-.63.23-1.17.6-1.64 1.12s-.84 1.19-1.11 2.03-.4 1.86-.4 3.06l-2.44-.92c0-1.84.34-3.47 1.03-4.88s1.68-2.51 2.97-3.3 2.85-1.18 4.68-1.18c1.4 0 2.58.22 3.53.68.95.45 1.73 1.04 2.32 1.78s1.05 1.53 1.36 2.39.53 1.71.64 2.54.17 1.55.17 2.18v11.27h-3.98z"/><path d="m752.09 192.37v-3.81h3.93v3.81zm0 23.61v-20.29h3.93v20.29z"/><path d="m761.95 215.98v-20.29h3.51v5.86h.47v14.43zm14.26 0v-9.97c0-.79-.07-1.6-.2-2.43s-.38-1.61-.75-2.32-.89-1.29-1.56-1.73-1.54-.66-2.62-.66c-.7 0-1.37.12-1.99.35-.63.23-1.17.6-1.64 1.12s-.84 1.19-1.11 2.03-.4 1.86-.4 3.06l-2.44-.92c0-1.84.34-3.47 1.03-4.88s1.68-2.51 2.97-3.3 2.85-1.18 4.68-1.18c1.4 0 2.58.22 3.53.68.95.45 1.73 1.04 2.32 1.78s1.05 1.53 1.36 2.39.53 1.71.64 2.54.17 1.55.17 2.18v11.27h-3.98z"/><path d="m793.77 216.54c-1.89 0-3.52-.47-4.89-1.41s-2.43-2.22-3.17-3.84c-.75-1.62-1.12-3.45-1.12-5.47s.38-3.87 1.13-5.47c.75-1.61 1.82-2.88 3.2-3.81s3.03-1.4 4.93-1.4 3.53.47 4.84 1.4 2.3 2.21 2.97 3.82 1 3.44 1 5.47-.34 3.85-1.01 5.47c-.68 1.62-1.67 2.9-2.99 3.84-1.32.95-2.94 1.42-4.88 1.42zm.3 9.02c-1.09 0-2.14-.17-3.17-.51-1.02-.34-1.95-.84-2.79-1.49-.84-.66-1.53-1.47-2.08-2.43l3.62-1.84c.44.87 1.06 1.5 1.88 1.9.81.4 1.67.6 2.57.6 1.11 0 2.07-.2 2.86-.59s1.39-.99 1.79-1.78c.41-.79.6-1.76.59-2.93v-5.67h.47v-15.12h3.47v20.83c0 .54-.02 1.05-.06 1.54s-.11.98-.21 1.46c-.29 1.37-.84 2.49-1.64 3.38-.81.89-1.83 1.55-3.08 1.99s-2.66.66-4.24.66zm.24-12.56c1.29 0 2.34-.31 3.16-.92.81-.61 1.41-1.46 1.78-2.54.38-1.08.56-2.32.56-3.72s-.19-2.64-.57-3.72-.97-1.92-1.77-2.52-1.81-.9-3.03-.9c-1.3 0-2.37.32-3.21.96s-1.46 1.5-1.87 2.57c-.41 1.08-.61 2.28-.61 3.61s.2 2.55.61 3.63 1.02 1.94 1.84 2.58 1.86.96 3.11.96z"/><path d="m409.77 47.59 8.79-27.05h5.65l8.79 27.05h-4.08l-8.1-24.68h1.01l-8 24.68h-4.08zm4.56-6.11v-3.68h14.12v3.68z"/><path d="m439.94 47.59-6.2-20.3 3.89.02 4.24 13.92 4.28-13.92h3.38l4.28 13.92 4.25-13.92h3.87l-6.2 20.29h-3.16l-4.73-14.69-4.75 14.69h-3.16z"/><path d="m471 48.15c-1.5 0-2.76-.28-3.78-.84-1.01-.56-1.78-1.29-2.3-2.22s-.78-1.93-.78-3.03c0-1.03.18-1.93.54-2.71s.9-1.44 1.62-1.98c.71-.54 1.59-.99 2.63-1.32.9-.26 1.92-.49 3.06-.7 1.14-.2 2.34-.39 3.6-.56 1.26-.18 2.51-.35 3.75-.53l-1.43.79c.02-1.59-.31-2.77-1-3.54s-1.89-1.16-3.58-1.16c-1.06 0-2.04.25-2.93.74s-1.51 1.31-1.86 2.45l-3.66-1.13c.5-1.74 1.46-3.12 2.86-4.15 1.41-1.03 3.28-1.54 5.62-1.54 1.82 0 3.4.31 4.74.93 1.35.62 2.33 1.6 2.96 2.94.33.66.53 1.37.6 2.1.08.74.11 1.54.11 2.39v12.49h-3.47v-4.64l.68.6c-.84 1.55-1.91 2.71-3.2 3.47-1.3.76-2.89 1.14-4.78 1.14zm.7-3.21c1.11 0 2.07-.2 2.87-.59s1.45-.9 1.93-1.51.81-1.25.96-1.92c.21-.6.33-1.28.37-2.03.03-.75.05-1.35.05-1.8l1.28.47c-1.24.19-2.37.36-3.38.51s-1.93.3-2.75.44-1.55.32-2.19.52c-.54.19-1.02.41-1.44.68-.42.26-.75.58-1 .96-.24.38-.37.83-.37 1.37s.13 1.01.39 1.46.66.8 1.2 1.06 1.23.39 2.07.39z"/><path d="m487.33 47.59v-20.29h3.49v4.92l-.49-.64c.25-.65.58-1.25.98-1.79s.86-.99 1.39-1.34c.51-.38 1.09-.67 1.72-.87.63-.21 1.28-.33 1.94-.38.66-.04 1.3 0 1.92.1v3.68c-.66-.17-1.4-.23-2.21-.15s-1.55.33-2.23.77c-.64.41-1.14.91-1.51 1.5s-.63 1.24-.8 1.96c-.16.72-.24 1.48-.24 2.28v10.24h-3.96z"/><path d="m511.01 48.15c-2.02 0-3.79-.44-5.31-1.32s-2.71-2.12-3.55-3.7c-.85-1.58-1.27-3.42-1.27-5.51 0-2.22.42-4.14 1.25-5.77s1.99-2.89 3.48-3.78 3.22-1.33 5.2-1.33 3.83.48 5.28 1.44 2.54 2.32 3.26 4.08c.72 1.77 1 3.86.85 6.29h-3.93v-1.43c-.03-2.35-.47-4.09-1.34-5.22s-2.19-1.69-3.97-1.69c-1.97 0-3.44.62-4.43 1.86s-1.48 3.03-1.48 5.37.49 3.95 1.48 5.17 2.42 1.83 4.28 1.83c1.23 0 2.29-.28 3.18-.84.9-.56 1.59-1.36 2.09-2.39l3.85 1.22c-.79 1.82-1.99 3.22-3.59 4.22s-3.39 1.49-5.35 1.49zm-7.23-9.6v-3.06h14.48v3.06z"/><path d="m524.91 47.59v-20.29h3.51v5.86h.47v14.43zm14.26 0v-9.97c0-.79-.07-1.6-.2-2.43s-.38-1.61-.75-2.32-.89-1.29-1.56-1.73-1.54-.66-2.62-.66c-.7 0-1.37.12-1.99.35-.63.23-1.17.6-1.64 1.12s-.84 1.19-1.11 2.03-.4 1.86-.4 3.06l-2.44-.92c0-1.84.34-3.47 1.03-4.88s1.68-2.51 2.97-3.3 2.85-1.18 4.68-1.18c1.4 0 2.58.22 3.53.68.95.45 1.73 1.04 2.32 1.78s1.05 1.53 1.36 2.39.53 1.71.64 2.54.17 1.55.17 2.18v11.27h-3.98z"/><path d="m557.66 48.15c-2.02 0-3.79-.44-5.31-1.32s-2.71-2.12-3.55-3.7c-.85-1.58-1.27-3.42-1.27-5.51 0-2.22.42-4.14 1.25-5.77s1.99-2.89 3.48-3.78 3.22-1.33 5.2-1.33 3.83.48 5.28 1.44 2.54 2.32 3.26 4.08c.72 1.77 1 3.86.85 6.29h-3.93v-1.43c-.03-2.35-.47-4.09-1.34-5.22s-2.19-1.69-3.97-1.69c-1.97 0-3.44.62-4.43 1.86s-1.48 3.03-1.48 5.37.49 3.95 1.48 5.17 2.42 1.83 4.28 1.83c1.23 0 2.29-.28 3.18-.84.9-.56 1.59-1.36 2.09-2.39l3.85 1.22c-.79 1.82-1.99 3.22-3.59 4.22s-3.39 1.49-5.35 1.49zm-7.23-9.6v-3.06h14.48v3.06z"/><path d="m579.29 48.14c-2.47 0-4.48-.54-6.03-1.63s-2.5-2.62-2.85-4.6l4.02-.62c.25 1.05.83 1.88 1.74 2.49s2.04.91 3.39.91c1.23 0 2.19-.25 2.88-.75s1.04-1.19 1.04-2.07c0-.51-.12-.93-.37-1.25-.24-.32-.75-.62-1.53-.91s-1.96-.65-3.55-1.07c-1.74-.45-3.12-.94-4.14-1.46s-1.75-1.13-2.18-1.82c-.43-.7-.65-1.54-.65-2.53 0-1.23.33-2.3.98-3.21s1.57-1.62 2.75-2.12 2.57-.75 4.16-.75 2.94.24 4.15.73 2.2 1.18 2.95 2.08c.75.89 1.2 1.94 1.35 3.15l-4.02.73c-.14-.98-.59-1.75-1.37-2.31s-1.78-.87-3.02-.92c-1.19-.05-2.15.15-2.89.59s-1.11 1.06-1.11 1.83c0 .45.14.83.42 1.15.28.31.83.61 1.64.9s2.02.63 3.61 1.03c1.7.44 3.06.92 4.06 1.46 1 .53 1.72 1.17 2.15 1.9s.65 1.62.65 2.66c0 2-.73 3.57-2.19 4.71s-3.47 1.71-6.04 1.71z"/><path d="m600.06 48.14c-2.47 0-4.48-.54-6.03-1.63s-2.5-2.62-2.85-4.6l4.02-.62c.25 1.05.83 1.88 1.74 2.49s2.04.91 3.39.91c1.23 0 2.19-.25 2.88-.75s1.04-1.19 1.04-2.07c0-.51-.12-.93-.37-1.25-.24-.32-.75-.62-1.53-.91s-1.96-.65-3.55-1.07c-1.74-.45-3.12-.94-4.14-1.46s-1.75-1.13-2.18-1.82c-.43-.7-.65-1.54-.65-2.53 0-1.23.33-2.3.98-3.21s1.57-1.62 2.75-2.12 2.57-.75 4.16-.75 2.94.24 4.15.73 2.2 1.18 2.95 2.08c.75.89 1.2 1.94 1.35 3.15l-4.02.73c-.14-.98-.59-1.75-1.37-2.31s-1.78-.87-3.02-.92c-1.19-.05-2.15.15-2.89.59s-1.11 1.06-1.11 1.83c0 .45.14.83.42 1.15.28.31.83.61 1.64.9s2.02.63 3.61 1.03c1.7.44 3.06.92 4.06 1.46 1 .53 1.72 1.17 2.15 1.9s.65 1.62.65 2.66c0 2-.73 3.57-2.19 4.71s-3.47 1.71-6.04 1.71z"/><path d="m621.81 47.59v-20.29h3.49v5.86h.45v14.43h-3.95zm12.17 0 .02-12.57c0-1.48-.37-2.64-1.12-3.47-.75-.84-1.74-1.26-3-1.26s-2.24.43-3 1.28-1.14 1.97-1.14 3.34l-1.88-1.2c0-1.33.32-2.51.96-3.55s1.5-1.86 2.59-2.46 2.32-.9 3.7-.9 2.67.3 3.68.91 1.79 1.46 2.32 2.55.8 2.35.8 3.79l-.02 13.54h-3.93zm12.15 0 .02-12.64c0-1.47-.38-2.61-1.13-3.43s-1.74-1.23-2.97-1.23c-.75 0-1.44.17-2.06.52-.62.34-1.12.86-1.5 1.54s-.57 1.54-.57 2.56l-1.9-.96c-.03-1.43.28-2.68.91-3.76s1.49-1.91 2.58-2.51 2.31-.89 3.66-.89c2.19 0 3.89.66 5.09 1.97s1.8 3.06 1.8 5.24l-.02 13.58h-3.93z"/><path d="m664.66 48.15c-2.02 0-3.79-.44-5.31-1.32s-2.71-2.12-3.55-3.7c-.85-1.58-1.27-3.42-1.27-5.51 0-2.22.42-4.14 1.25-5.77s1.99-2.89 3.48-3.78 3.22-1.33 5.2-1.33 3.83.48 5.28 1.44 2.54 2.32 3.26 4.08c.72 1.77 1 3.86.85 6.29h-3.93v-1.43c-.03-2.35-.47-4.09-1.34-5.22s-2.19-1.69-3.97-1.69c-1.97 0-3.44.62-4.43 1.86s-1.48 3.03-1.48 5.37.49 3.95 1.48 5.17 2.42 1.83 4.28 1.83c1.23 0 2.29-.28 3.18-.84.9-.56 1.59-1.36 2.09-2.39l3.85 1.22c-.79 1.82-1.99 3.22-3.59 4.22s-3.39 1.49-5.35 1.49zm-7.23-9.6v-3.06h14.48v3.06z"/><path d="m684.26 48.15c-1.5 0-2.76-.28-3.78-.84-1.01-.56-1.78-1.29-2.3-2.22s-.78-1.93-.78-3.03c0-1.03.18-1.93.54-2.71s.9-1.44 1.62-1.98c.71-.54 1.59-.99 2.63-1.32.9-.26 1.92-.49 3.06-.7 1.14-.2 2.34-.39 3.6-.56 1.26-.18 2.51-.35 3.75-.53l-1.43.79c.02-1.59-.31-2.77-1-3.54s-1.89-1.16-3.58-1.16c-1.06 0-2.04.25-2.93.74s-1.51 1.31-1.86 2.45l-3.66-1.13c.5-1.74 1.46-3.12 2.86-4.15 1.41-1.03 3.28-1.54 5.62-1.54 1.82 0 3.4.31 4.74.93 1.35.62 2.33 1.6 2.96 2.94.33.66.53 1.37.6 2.1.08.74.11 1.54.11 2.39v12.49h-3.47v-4.64l.68.6c-.84 1.55-1.91 2.71-3.2 3.47-1.3.76-2.89 1.14-4.78 1.14zm.7-3.21c1.11 0 2.07-.2 2.87-.59s1.45-.9 1.93-1.51.81-1.25.96-1.92c.21-.6.33-1.28.37-2.03.03-.75.05-1.35.05-1.8l1.28.47c-1.24.19-2.37.36-3.38.51s-1.93.3-2.75.44-1.55.32-2.19.52c-.54.19-1.02.41-1.44.68-.42.26-.75.58-1 .96-.24.38-.37.83-.37 1.37s.13 1.01.39 1.46.66.8 1.2 1.06 1.23.39 2.07.39z"/><path d="m708.18 48.14c-2.47 0-4.48-.54-6.03-1.63s-2.5-2.62-2.85-4.6l4.02-.62c.25 1.05.83 1.88 1.74 2.49s2.04.91 3.39.91c1.23 0 2.19-.25 2.88-.75s1.04-1.19 1.04-2.07c0-.51-.12-.93-.37-1.25-.24-.32-.75-.62-1.53-.91s-1.96-.65-3.55-1.07c-1.74-.45-3.12-.94-4.14-1.46s-1.75-1.13-2.18-1.82c-.43-.7-.65-1.54-.65-2.53 0-1.23.33-2.3.98-3.21s1.57-1.62 2.75-2.12 2.57-.75 4.16-.75 2.94.24 4.15.73 2.2 1.18 2.95 2.08c.75.89 1.2 1.94 1.35 3.15l-4.02.73c-.14-.98-.59-1.75-1.37-2.31s-1.78-.87-3.02-.92c-1.19-.05-2.15.15-2.89.59s-1.11 1.06-1.11 1.83c0 .45.14.83.42 1.15.28.31.83.61 1.64.9s2.02.63 3.61 1.03c1.7.44 3.06.92 4.06 1.46 1 .53 1.72 1.17 2.15 1.9s.65 1.62.65 2.66c0 2-.73 3.57-2.19 4.71s-3.47 1.71-6.04 1.71z"/><path d="m728.76 48.14c-1.4 0-2.58-.23-3.53-.68s-1.73-1.04-2.32-1.77c-.6-.73-1.05-1.53-1.36-2.4-.31-.86-.53-1.71-.64-2.54s-.17-1.55-.17-2.18v-11.27h3.98v9.97c0 .79.07 1.6.2 2.43s.38 1.61.75 2.32.89 1.29 1.56 1.73 1.54.66 2.62.66c.7 0 1.37-.12 1.99-.35s1.17-.6 1.64-1.12c.47-.51.84-1.19 1.11-2.03s.4-1.86.4-3.06l2.44.92c0 1.84-.34 3.47-1.03 4.87s-1.68 2.51-2.97 3.3-2.85 1.18-4.68 1.18zm6.71-.54v-5.86h-.47v-14.42h3.96v20.29h-3.49z"/><path d="m744.71 47.59v-20.29h3.49v4.92l-.49-.64c.25-.65.58-1.25.98-1.79s.86-.99 1.39-1.34c.51-.38 1.09-.67 1.72-.87.63-.21 1.28-.33 1.94-.38.66-.04 1.3 0 1.92.1v3.68c-.66-.17-1.4-.23-2.21-.15s-1.55.33-2.23.77c-.64.41-1.14.91-1.51 1.5s-.63 1.24-.8 1.96c-.16.72-.24 1.48-.24 2.28v10.24h-3.96z"/><path d="m768.39 48.15c-2.02 0-3.79-.44-5.31-1.32s-2.71-2.12-3.55-3.7c-.85-1.58-1.27-3.42-1.27-5.51 0-2.22.42-4.14 1.25-5.77s1.99-2.89 3.48-3.78 3.22-1.33 5.2-1.33 3.83.48 5.28 1.44 2.54 2.32 3.26 4.08c.72 1.77 1 3.86.85 6.29h-3.93v-1.43c-.03-2.35-.47-4.09-1.34-5.22s-2.19-1.69-3.97-1.69c-1.97 0-3.44.62-4.43 1.86s-1.48 3.03-1.48 5.37.49 3.95 1.48 5.17 2.42 1.83 4.28 1.83c1.23 0 2.29-.28 3.18-.84.9-.56 1.59-1.36 2.09-2.39l3.85 1.22c-.79 1.82-1.99 3.22-3.59 4.22s-3.39 1.49-5.35 1.49zm-7.23-9.6v-3.06h14.48v3.06z"/><path d="m790.02 48.14c-2.47 0-4.48-.54-6.03-1.63s-2.5-2.62-2.85-4.6l4.02-.62c.25 1.05.83 1.88 1.74 2.49s2.04.91 3.39.91c1.23 0 2.19-.25 2.88-.75s1.04-1.19 1.04-2.07c0-.51-.12-.93-.37-1.25-.24-.32-.75-.62-1.53-.91s-1.96-.65-3.55-1.07c-1.74-.45-3.12-.94-4.14-1.46s-1.75-1.13-2.18-1.82c-.43-.7-.65-1.54-.65-2.53 0-1.23.33-2.3.98-3.21s1.57-1.62 2.75-2.12 2.57-.75 4.16-.75 2.94.24 4.15.73 2.2 1.18 2.95 2.08c.75.89 1.2 1.94 1.35 3.15l-4.02.73c-.14-.98-.59-1.75-1.37-2.31s-1.78-.87-3.02-.92c-1.19-.05-2.15.15-2.89.59s-1.11 1.06-1.11 1.83c0 .45.14.83.42 1.15.28.31.83.61 1.64.9s2.02.63 3.61 1.03c1.7.44 3.06.92 4.06 1.46 1 .53 1.72 1.17 2.15 1.9s.65 1.62.65 2.66c0 2-.73 3.57-2.19 4.71s-3.47 1.71-6.04 1.71z"/><path d="m817.27 47.59-7.36-20.29h3.96l5.39 15.36 5.39-15.36h3.96l-7.36 20.29z"/><path d="m832.61 23.98v-3.81h3.93v3.81zm0 23.61v-20.29h3.93v20.29z"/><path d="m848.26 48.15c-1.5 0-2.76-.28-3.78-.84-1.01-.56-1.78-1.29-2.3-2.22s-.78-1.93-.78-3.03c0-1.03.18-1.93.54-2.71s.9-1.44 1.62-1.98c.71-.54 1.59-.99 2.63-1.32.9-.26 1.92-.49 3.06-.7 1.14-.2 2.34-.39 3.6-.56 1.26-.18 2.51-.35 3.75-.53l-1.43.79c.02-1.59-.31-2.77-1-3.54s-1.89-1.16-3.58-1.16c-1.06 0-2.04.25-2.93.74s-1.51 1.31-1.86 2.45l-3.66-1.13c.5-1.74 1.46-3.12 2.86-4.15 1.41-1.03 3.28-1.54 5.62-1.54 1.82 0 3.4.31 4.74.93 1.35.62 2.33 1.6 2.96 2.94.33.66.53 1.37.6 2.1.08.74.11 1.54.11 2.39v12.49h-3.47v-4.64l.68.6c-.84 1.55-1.91 2.71-3.2 3.47-1.3.76-2.89 1.14-4.78 1.14zm.7-3.21c1.11 0 2.07-.2 2.87-.59s1.45-.9 1.93-1.51.81-1.25.96-1.92c.21-.6.33-1.28.37-2.03.03-.75.05-1.35.05-1.8l1.28.47c-1.24.19-2.37.36-3.38.51s-1.93.3-2.75.44-1.55.32-2.19.52c-.54.19-1.02.41-1.44.68-.42.26-.75.58-1 .96-.24.38-.37.83-.37 1.37s.13 1.01.39 1.46.66.8 1.2 1.06 1.23.39 2.07.39z"/><path d="m420.33 93.23c-2.08 0-3.84-.46-5.3-1.39-1.45-.93-2.56-2.2-3.33-3.81-.77-1.62-1.16-3.45-1.17-5.5.01-2.09.41-3.94 1.2-5.55s1.92-2.87 3.38-3.78 3.22-1.37 5.28-1.37c2.22 0 4.11.55 5.68 1.65s2.61 2.61 3.11 4.53l-3.91 1.13c-.39-1.14-1.02-2.03-1.91-2.66s-1.89-.95-3.03-.95c-1.29 0-2.35.3-3.17.91-.83.61-1.44 1.44-1.84 2.49s-.61 2.25-.62 3.61c.01 2.09.49 3.78 1.44 5.07s2.34 1.93 4.2 1.93c1.26 0 2.29-.29 3.07-.87s1.38-1.42 1.79-2.51l3.98.94c-.66 1.98-1.76 3.5-3.29 4.55-1.53 1.06-3.38 1.59-5.56 1.59z"/><path d="m442.31 93.23c-2.03 0-3.79-.46-5.28-1.37s-2.64-2.18-3.45-3.78c-.81-1.61-1.21-3.47-1.21-5.57s.41-3.98 1.24-5.59 1.98-2.86 3.47-3.76c1.49-.89 3.23-1.34 5.22-1.34s3.79.46 5.28 1.37 2.64 2.17 3.46 3.77c.81 1.6 1.22 3.45 1.22 5.54s-.41 3.98-1.23 5.59-1.98 2.87-3.46 3.78c-1.49.91-3.24 1.36-5.26 1.36zm0-3.7c1.94 0 3.39-.65 4.35-1.96s1.44-3 1.44-5.06-.49-3.81-1.46-5.08-2.41-1.91-4.33-1.91c-1.31 0-2.4.3-3.25.89s-1.48 1.41-1.9 2.46-.62 2.26-.62 3.63c0 2.13.49 3.83 1.46 5.11s2.41 1.92 4.3 1.92z"/><path d="m456.98 92.67v-20.29h3.49v5.86h.45v14.43h-3.95zm12.17 0 .02-12.57c0-1.48-.37-2.63-1.12-3.47s-1.74-1.26-3-1.26-2.24.43-3 1.28-1.14 1.97-1.14 3.34l-1.88-1.2c0-1.33.32-2.51.96-3.55s1.5-1.86 2.59-2.46 2.32-.9 3.7-.9 2.67.3 3.68.91 1.79 1.46 2.32 2.55.8 2.35.8 3.79l-.02 13.54h-3.93zm12.15 0 .02-12.64c0-1.46-.38-2.61-1.13-3.43s-1.74-1.23-2.97-1.23c-.75 0-1.44.17-2.06.52s-1.12.86-1.5 1.54-.57 1.54-.57 2.56l-1.9-.96c-.03-1.43.28-2.68.91-3.76s1.49-1.91 2.58-2.51c1.09-.59 2.31-.89 3.66-.89 2.19 0 3.89.66 5.09 1.97s1.8 3.06 1.8 5.24l-.02 13.58h-3.93z"/><path d="m490.8 92.67v-20.29h3.49v5.86h.45v14.43h-3.95zm12.17 0 .02-12.57c0-1.48-.37-2.63-1.12-3.47s-1.74-1.26-3-1.26-2.24.43-3 1.28-1.14 1.97-1.14 3.34l-1.88-1.2c0-1.33.32-2.51.96-3.55s1.5-1.86 2.59-2.46 2.32-.9 3.7-.9 2.67.3 3.68.91 1.79 1.46 2.32 2.55.8 2.35.8 3.79l-.02 13.54h-3.93zm12.15 0 .02-12.64c0-1.46-.38-2.61-1.13-3.43s-1.74-1.23-2.97-1.23c-.75 0-1.44.17-2.06.52s-1.12.86-1.5 1.54-.57 1.54-.57 2.56l-1.9-.96c-.03-1.43.28-2.68.91-3.76s1.49-1.91 2.58-2.51c1.09-.59 2.31-.89 3.66-.89 2.19 0 3.89.66 5.09 1.97s1.8 3.06 1.8 5.24l-.02 13.58h-3.93z"/><path d="m532.28 93.22c-1.4 0-2.58-.23-3.53-.68s-1.73-1.04-2.32-1.78c-.6-.73-1.05-1.53-1.36-2.39s-.53-1.71-.64-2.54-.17-1.55-.17-2.18v-11.27h3.98v9.97c0 .79.07 1.6.2 2.43s.38 1.61.75 2.32.89 1.29 1.56 1.73 1.54.66 2.62.66c.7 0 1.37-.12 1.99-.35.63-.23 1.17-.6 1.64-1.12.47-.51.84-1.19 1.11-2.03s.4-1.86.4-3.06l2.44.92c0 1.84-.34 3.46-1.03 4.87s-1.68 2.51-2.97 3.3-2.85 1.18-4.68 1.18zm6.71-.54v-5.86h-.47v-14.42h3.96v20.29h-3.49z"/><path d="m548.23 92.67v-20.29h3.51v5.86h.47v14.43zm14.26 0v-9.97c0-.79-.07-1.6-.2-2.43s-.38-1.61-.75-2.32-.89-1.29-1.56-1.73-1.54-.66-2.62-.66c-.7 0-1.37.12-1.99.35-.63.23-1.17.6-1.64 1.12-.47.51-.84 1.19-1.11 2.03s-.4 1.86-.4 3.06l-2.44-.92c0-1.84.34-3.46 1.03-4.87s1.68-2.51 2.97-3.3 2.85-1.18 4.68-1.18c1.4 0 2.58.23 3.53.68s1.73 1.04 2.32 1.78 1.05 1.53 1.36 2.39.53 1.71.64 2.54.17 1.55.17 2.18v11.27h-3.98z"/><path d="m572.17 69.06v-3.81h3.93v3.81zm0 23.61v-20.29h3.93v20.29z"/><path d="m590.84 93.23c-2.08 0-3.84-.46-5.3-1.39-1.45-.93-2.56-2.2-3.33-3.81-.77-1.62-1.16-3.45-1.17-5.5.01-2.09.41-3.94 1.2-5.55s1.92-2.87 3.38-3.78 3.22-1.37 5.28-1.37c2.22 0 4.11.55 5.68 1.65s2.61 2.61 3.11 4.53l-3.91 1.13c-.39-1.14-1.02-2.03-1.91-2.66s-1.89-.95-3.03-.95c-1.29 0-2.35.3-3.17.91-.83.61-1.44 1.44-1.84 2.49s-.61 2.25-.62 3.61c.01 2.09.49 3.78 1.44 5.07s2.34 1.93 4.2 1.93c1.26 0 2.29-.29 3.07-.87s1.38-1.42 1.79-2.51l3.98.94c-.66 1.98-1.76 3.5-3.29 4.55-1.53 1.06-3.38 1.59-5.56 1.59z"/><path d="m610.04 93.23c-1.5 0-2.76-.28-3.78-.84s-1.78-1.3-2.3-2.22-.78-1.93-.78-3.03c0-1.03.18-1.93.54-2.71s.9-1.44 1.62-1.98c.71-.54 1.59-.99 2.63-1.32.9-.26 1.92-.49 3.06-.69s2.34-.39 3.6-.56c1.26-.18 2.51-.35 3.75-.53l-1.43.79c.02-1.59-.31-2.77-1-3.54-.7-.77-1.89-1.16-3.58-1.16-1.06 0-2.04.25-2.93.74-.89.5-1.51 1.31-1.86 2.45l-3.66-1.13c.5-1.74 1.46-3.12 2.86-4.15 1.41-1.03 3.28-1.54 5.62-1.54 1.82 0 3.4.31 4.74.93 1.35.62 2.33 1.6 2.96 2.94.33.66.53 1.36.6 2.1s.11 1.53.11 2.39v12.49h-3.47v-4.64l.68.6c-.84 1.55-1.91 2.71-3.2 3.47-1.3.76-2.89 1.14-4.78 1.14zm.7-3.21c1.11 0 2.07-.2 2.87-.59s1.45-.9 1.93-1.51.81-1.25.96-1.92c.21-.6.33-1.28.37-2.03s.05-1.35.05-1.8l1.28.47c-1.24.19-2.37.36-3.38.51s-1.93.3-2.75.44-1.55.32-2.19.52c-.54.19-1.02.41-1.44.68-.42.26-.75.58-1 .96s-.37.83-.37 1.37.13 1.01.39 1.46c.26.44.66.8 1.2 1.06s1.23.39 2.07.39z"/><path d="m624.01 75.54v-3.16h13.86v3.16zm13.86 17.13c-1.28.25-2.53.36-3.76.32s-2.32-.28-3.29-.71c-.96-.44-1.69-1.13-2.18-2.07-.44-.84-.67-1.69-.7-2.56s-.05-1.86-.05-2.96v-17.94h3.94v17.75c0 .81 0 1.52.03 2.12s.15 1.11.38 1.52c.45.78 1.17 1.22 2.15 1.32.98.11 2.14.07 3.47-.12v3.32z"/><path d="m642.28 69.06v-3.81h3.93v3.81zm0 23.61v-20.29h3.93v20.29z"/><path d="m661.08 93.23c-2.03 0-3.79-.46-5.28-1.37s-2.64-2.18-3.45-3.78c-.81-1.61-1.21-3.47-1.21-5.57s.41-3.98 1.24-5.59 1.98-2.86 3.47-3.76c1.49-.89 3.23-1.34 5.22-1.34s3.79.46 5.28 1.37 2.64 2.17 3.46 3.77c.81 1.6 1.22 3.45 1.22 5.54s-.41 3.98-1.23 5.59-1.98 2.87-3.46 3.78c-1.49.91-3.24 1.36-5.26 1.36zm0-3.7c1.94 0 3.39-.65 4.35-1.96s1.44-3 1.44-5.06-.49-3.81-1.46-5.08-2.41-1.91-4.33-1.91c-1.31 0-2.4.3-3.25.89s-1.48 1.41-1.9 2.46-.62 2.26-.62 3.63c0 2.13.49 3.83 1.46 5.11s2.41 1.92 4.3 1.92z"/><path d="m675.75 92.67v-20.29h3.51v5.86h.47v14.43zm14.26 0v-9.97c0-.79-.07-1.6-.2-2.43s-.38-1.61-.75-2.32-.89-1.29-1.56-1.73-1.54-.66-2.62-.66c-.7 0-1.37.12-1.99.35-.63.23-1.17.6-1.64 1.12-.47.51-.84 1.19-1.11 2.03s-.4 1.86-.4 3.06l-2.44-.92c0-1.84.34-3.46 1.03-4.87s1.68-2.51 2.97-3.3 2.85-1.18 4.68-1.18c1.4 0 2.58.23 3.53.68s1.73 1.04 2.32 1.78 1.05 1.53 1.36 2.39.53 1.71.64 2.54.17 1.55.17 2.18v11.27h-3.98z"/><path d="m713.99 93.23c-1.5 0-2.76-.28-3.78-.84s-1.78-1.3-2.3-2.22-.78-1.93-.78-3.03c0-1.03.18-1.93.54-2.71s.9-1.44 1.62-1.98c.71-.54 1.59-.99 2.63-1.32.9-.26 1.92-.49 3.06-.69s2.34-.39 3.6-.56c1.26-.18 2.51-.35 3.75-.53l-1.43.79c.02-1.59-.31-2.77-1-3.54-.7-.77-1.89-1.16-3.58-1.16-1.06 0-2.04.25-2.93.74-.89.5-1.51 1.31-1.86 2.45l-3.66-1.13c.5-1.74 1.46-3.12 2.86-4.15 1.41-1.03 3.28-1.54 5.62-1.54 1.82 0 3.4.31 4.74.93 1.35.62 2.33 1.6 2.96 2.94.33.66.53 1.36.6 2.1s.11 1.53.11 2.39v12.49h-3.47v-4.64l.68.6c-.84 1.55-1.91 2.71-3.2 3.47-1.3.76-2.89 1.14-4.78 1.14zm.7-3.21c1.11 0 2.07-.2 2.87-.59s1.45-.9 1.93-1.51.81-1.25.96-1.92c.21-.6.33-1.28.37-2.03s.05-1.35.05-1.8l1.28.47c-1.24.19-2.37.36-3.38.51s-1.93.3-2.75.44-1.55.32-2.19.52c-.54.19-1.02.41-1.44.68-.42.26-.75.58-1 .96s-.37.83-.37 1.37.13 1.01.39 1.46c.26.44.66.8 1.2 1.06s1.23.39 2.07.39z"/><path d="m730.31 101.69v-29.3h3.49v14.59h.45v14.71h-3.95zm9.54-8.45c-1.94 0-3.57-.47-4.88-1.42s-2.31-2.23-2.99-3.84c-.68-1.62-1.01-3.44-1.01-5.47s.33-3.85 1-5.46c.67-1.62 1.66-2.89 2.97-3.82s2.92-1.4 4.84-1.4 3.55.47 4.93 1.4 2.45 2.2 3.2 3.81 1.13 3.43 1.13 5.47-.37 3.85-1.12 5.48c-.75 1.62-1.8 2.9-3.17 3.84s-3 1.41-4.89 1.41zm-.54-3.55c1.25 0 2.29-.32 3.11-.96s1.43-1.5 1.84-2.58.61-2.29.61-3.63-.2-2.53-.61-3.61-1.03-1.94-1.87-2.57c-.84-.64-1.91-.96-3.21-.96-1.23 0-2.24.3-3.03.9s-1.38 1.44-1.76 2.52-.57 2.32-.57 3.72.19 2.64.56 3.72.97 1.92 1.78 2.54c.81.61 1.87.92 3.16.92z"/><path d="m753.75 101.69v-29.3h3.49v14.59h.45v14.71h-3.95zm9.54-8.45c-1.94 0-3.57-.47-4.88-1.42s-2.31-2.23-2.99-3.84c-.68-1.62-1.01-3.44-1.01-5.47s.33-3.85 1-5.46c.67-1.62 1.66-2.89 2.97-3.82s2.92-1.4 4.84-1.4 3.55.47 4.93 1.4 2.45 2.2 3.2 3.81 1.13 3.43 1.13 5.47-.37 3.85-1.12 5.48c-.75 1.62-1.8 2.9-3.17 3.84s-3 1.41-4.89 1.41zm-.54-3.55c1.25 0 2.29-.32 3.11-.96s1.43-1.5 1.84-2.58.61-2.29.61-3.63-.2-2.53-.61-3.61-1.03-1.94-1.87-2.57c-.84-.64-1.91-.96-3.21-.96-1.23 0-2.24.3-3.03.9s-1.38 1.44-1.76 2.52-.57 2.32-.57 3.72.19 2.64.56 3.72.97 1.92 1.78 2.54c.81.61 1.87.92 3.16.92z"/><path d="m784.73 93.22c-2.47 0-4.48-.54-6.03-1.63s-2.5-2.62-2.85-4.6l4.02-.62c.25 1.05.83 1.88 1.74 2.49s2.04.91 3.39.91c1.23 0 2.19-.25 2.88-.75s1.04-1.19 1.04-2.07c0-.51-.12-.93-.37-1.25-.24-.32-.75-.62-1.53-.91s-1.96-.64-3.55-1.07c-1.74-.45-3.12-.94-4.14-1.46s-1.75-1.13-2.18-1.82c-.43-.7-.65-1.54-.65-2.53 0-1.23.33-2.3.98-3.21s1.57-1.62 2.75-2.12 2.57-.75 4.16-.75 2.94.25 4.15.73c1.21.49 2.2 1.18 2.95 2.08s1.2 1.94 1.35 3.15l-4.02.73c-.14-.98-.59-1.75-1.37-2.31s-1.78-.87-3.02-.92c-1.19-.05-2.15.15-2.89.59s-1.11 1.05-1.11 1.83c0 .45.14.83.42 1.15.28.31.83.61 1.64.9s2.02.63 3.61 1.03c1.7.44 3.06.92 4.06 1.46 1 .53 1.72 1.16 2.15 1.9s.65 1.62.65 2.66c0 2-.73 3.58-2.19 4.71-1.46 1.14-3.47 1.71-6.04 1.71z"/><path d="m77.53 372.64h278.93" fill="none" stroke="url(#a)" stroke-linecap="round" stroke-miterlimit="10" stroke-width="10.37"/><circle cx="41.25" cy="372.12" fill="none" r="36.07" stroke="url(#b)" stroke-linecap="round" stroke-miterlimit="10" stroke-width="10.37"/><path d="m42.03 389.09c-1.49 0-2.9-.29-4.23-.87s-2.48-1.4-3.45-2.47c-.97-1.06-1.68-2.32-2.1-3.77l4.83-1.31c.35 1.19.98 2.1 1.9 2.75.92.64 1.93.96 3.04.94.98 0 1.86-.23 2.63-.68.77-.46 1.38-1.07 1.82-1.86s.66-1.66.66-2.62c0-1.48-.48-2.72-1.43-3.71s-2.18-1.49-3.69-1.49c-.46 0-.9.06-1.34.19-.44.12-.85.3-1.25.52l-2.28-3.94 10.03-8.58.44 1.2h-14.2v-4.71h18.31v4.73l-8.06 7.75-.04-1.47c1.81.12 3.35.63 4.63 1.51s2.26 2.03 2.94 3.42c.68 1.4 1.03 2.92 1.03 4.58 0 1.88-.46 3.57-1.38 5.06s-2.15 2.67-3.69 3.54c-1.54.86-3.24 1.29-5.11 1.29z"/><path d="m77.53 206.69h278.93" fill="none" stroke="url(#c)" stroke-linecap="round" stroke-miterlimit="10" stroke-width="10.37"/><circle cx="41.25" cy="206.69" fill="none" r="36.07" stroke="url(#d)" stroke-linecap="round" stroke-miterlimit="10" stroke-width="10.37"/><path d="m30.99 220.32v-4.35l12.77-11.38c1-.88 1.69-1.72 2.07-2.51.39-.79.58-1.55.58-2.28 0-1-.21-1.88-.64-2.66s-1.02-1.4-1.77-1.86-1.62-.68-2.6-.68c-1.04 0-1.95.24-2.75.72-.79.48-1.41 1.11-1.86 1.9-.44.79-.65 1.64-.62 2.55h-5.14c0-1.99.45-3.72 1.34-5.2s2.12-2.62 3.69-3.44c1.57-.81 3.38-1.22 5.44-1.22 1.91 0 3.62.43 5.14 1.28s2.72 2.02 3.59 3.52 1.31 3.22 1.31 5.17c0 1.42-.19 2.62-.58 3.59s-.96 1.86-1.73 2.67-1.72 1.72-2.85 2.72l-9.06 8.02-.46-1.24h14.68v4.71h-20.54z"/><path d="m77.53 41.25h278.93" fill="none" stroke="url(#e)" stroke-linecap="round" stroke-miterlimit="10" stroke-width="10.37"/><circle cx="41.25" cy="41.25" fill="none" r="36.07" stroke="url(#f)" stroke-linecap="round" stroke-miterlimit="10" stroke-width="10.37"/><path d="m41.14 54.93v-24.4l-5.6 3.42v-5.51l5.6-3.36h5.1v29.85z"/></svg>