<svg viewBox="0 0 819.64 413.38" xmlns="http://www.w3.org/2000/svg" xmlns:xlink="http://www.w3.org/1999/xlink"><linearGradient id="a" gradientTransform="matrix(.74999927 .0010472 -.00074176 .99999994 21.35 -.1)" gradientUnits="userSpaceOnUse" x1="70.02" x2="451.81" y1="372.47" y2="372.47"><stop offset="0" stop-color="#5454a8"/><stop offset=".28" stop-color="#6661b3"/><stop offset=".73" stop-color="#7f71c2"/><stop offset="1" stop-color="#8878c8"/></linearGradient><linearGradient id="b" gradientUnits="userSpaceOnUse" x1="0" x2="82.51" y1="372.12" y2="372.12"><stop offset="0" stop-color="#8878c8"/><stop offset=".27" stop-color="#7f71c2"/><stop offset=".72" stop-color="#6661b3"/><stop offset="1" stop-color="#5454a8"/></linearGradient><linearGradient id="c" x1="72.35" x2="361.64" xlink:href="#a" y1="206.69" y2="206.69"/><linearGradient id="d" xlink:href="#b" y1="206.69" y2="206.69"/><linearGradient id="e" x1="72.35" x2="361.64" xlink:href="#a" y1="41.25" y2="41.25"/><linearGradient id="f" xlink:href="#b" y1="41.25" y2="41.25"/><path d="m419.65 383.47c-2.04 0-3.87-.35-5.5-1.05s-2.98-1.71-4.04-3.01c-1.06-1.31-1.74-2.86-2.06-4.66l4.29-.65c.43 1.73 1.34 3.08 2.72 4.05 1.38.96 2.99 1.45 4.83 1.45 1.14 0 2.19-.18 3.15-.54s1.73-.88 2.31-1.56.88-1.49.88-2.43c0-.51-.09-.96-.27-1.36-.18-.39-.42-.74-.73-1.03-.31-.3-.68-.55-1.12-.77s-.92-.4-1.45-.56l-7.27-2.15c-.71-.21-1.43-.48-2.17-.82s-1.41-.77-2.02-1.32-1.11-1.22-1.49-2.03-.57-1.79-.57-2.94c0-1.75.45-3.23 1.35-4.44s2.12-2.13 3.65-2.76c1.54-.62 3.26-.94 5.16-.94 1.92.03 3.63.37 5.15 1.03s2.78 1.6 3.78 2.83 1.7 2.71 2.08 4.46l-4.41.75c-.2-1.06-.62-1.98-1.26-2.75s-1.43-1.36-2.36-1.77-1.94-.63-3.03-.64c-1.05-.03-2.01.13-2.88.47s-1.57.82-2.09 1.44-.78 1.33-.78 2.13.23 1.42.69 1.91 1.03.87 1.7 1.15c.68.28 1.35.52 2.02.7l5.24 1.48c.66.18 1.4.43 2.24.74.83.31 1.64.74 2.42 1.29s1.43 1.28 1.94 2.2c.51.91.77 2.06.77 3.44s-.29 2.69-.87 3.77-1.37 1.99-2.37 2.72-2.16 1.28-3.48 1.64c-1.31.37-2.7.55-4.16.55z"/><path d="m444.48 383.47c-2.11 0-3.97-.46-5.56-1.39-1.59-.92-2.84-2.22-3.72-3.88-.89-1.66-1.33-3.59-1.33-5.78 0-2.32.44-4.34 1.31-6.05s2.09-3.03 3.65-3.96 3.38-1.4 5.46-1.4 4.01.5 5.53 1.51c1.52 1 2.66 2.43 3.42 4.28.75 1.85 1.05 4.05.9 6.6h-4.12v-1.5c-.03-2.47-.5-4.29-1.41-5.48-.91-1.18-2.3-1.77-4.17-1.77-2.06 0-3.61.65-4.65 1.95s-1.56 3.18-1.56 5.63.52 4.15 1.56 5.43 2.53 1.92 4.49 1.92c1.29 0 2.4-.29 3.34-.88.94-.58 1.67-1.42 2.2-2.51l4.04 1.28c-.83 1.9-2.08 3.38-3.76 4.42s-3.55 1.57-5.61 1.57zm-7.58-10.06v-3.21h15.18v3.21z"/><path d="m468.07 383.47c-2.18 0-4.03-.49-5.55-1.46s-2.69-2.3-3.5-4c-.81-1.69-1.22-3.62-1.23-5.77.01-2.19.43-4.13 1.26-5.82s2.01-3.01 3.54-3.97c1.54-.96 3.38-1.44 5.53-1.44 2.32 0 4.31.58 5.96 1.73s2.73 2.74 3.26 4.75l-4.1 1.18c-.41-1.2-1.07-2.12-2-2.79-.93-.66-1.99-.99-3.18-.99-1.35 0-2.46.32-3.33.96s-1.51 1.51-1.93 2.61-.64 2.36-.65 3.78c.01 2.19.52 3.96 1.51 5.32s2.46 2.03 4.4 2.03c1.33 0 2.4-.3 3.22-.92.82-.61 1.45-1.49 1.88-2.63l4.17.98c-.7 2.08-1.84 3.67-3.45 4.78s-3.54 1.66-5.83 1.66z"/><path d="m489.67 383.45c-1.47 0-2.7-.24-3.7-.71s-1.81-1.09-2.43-1.86-1.1-1.6-1.43-2.51-.55-1.79-.67-2.66-.18-1.63-.18-2.28v-11.82h4.17v10.46c0 .83.07 1.68.21 2.55s.4 1.68.79 2.43.93 1.35 1.63 1.81 1.62.69 2.75.69c.74 0 1.43-.12 2.09-.37.66-.24 1.23-.63 1.72-1.17s.88-1.25 1.16-2.13.42-1.95.42-3.21l2.56.96c0 1.93-.36 3.63-1.08 5.11s-1.76 2.63-3.11 3.46-2.99 1.24-4.9 1.24zm7.03-.57v-6.14h-.49v-15.12h4.16v21.27h-3.66z"/><path d="m506.17 382.88v-21.27h3.66v5.16l-.51-.67c.26-.68.6-1.31 1.02-1.88s.91-1.04 1.46-1.41c.54-.39 1.14-.7 1.8-.92s1.34-.35 2.04-.39 1.37 0 2.01.11v3.86c-.7-.18-1.47-.24-2.31-.16s-1.62.35-2.33.81c-.67.43-1.2.96-1.58 1.58-.39.62-.67 1.3-.84 2.06s-.26 1.55-.26 2.39v10.73z"/><path d="m521.72 358.12v-4h4.12v4zm0 24.76v-21.27h4.12v21.27z"/><path d="m531.84 382.88v-21.27h3.68v6.14h.49v15.12h-4.18zm14.95 0v-10.46c0-.83-.07-1.68-.21-2.55s-.4-1.68-.79-2.43-.93-1.35-1.63-1.81-1.62-.69-2.75-.69c-.74 0-1.43.12-2.09.36s-1.23.63-1.72 1.17-.88 1.25-1.16 2.13-.42 1.95-.42 3.21l-2.56-.96c0-1.93.36-3.63 1.08-5.11s1.76-2.63 3.11-3.46 2.99-1.24 4.9-1.24c1.47 0 2.71.24 3.7.71 1 .47 1.81 1.09 2.43 1.86s1.1 1.61 1.43 2.51.55 1.79.67 2.66.18 1.63.18 2.29v11.82h-4.17z"/><path d="m564.98 383.47c-1.98 0-3.69-.49-5.13-1.48-1.44-.98-2.55-2.33-3.33-4.03s-1.17-3.61-1.17-5.74.39-4.05 1.18-5.74 1.91-3.02 3.36-4 3.17-1.47 5.17-1.47 3.7.49 5.07 1.47 2.41 2.31 3.11 4.01 1.05 3.6 1.05 5.73-.35 4.04-1.06 5.73-1.75 3.04-3.13 4.03-3.09 1.49-5.12 1.49zm.32 9.45c-1.14 0-2.25-.18-3.32-.53s-2.05-.88-2.92-1.56c-.88-.69-1.61-1.54-2.19-2.55l3.8-1.93c.46.91 1.12 1.57 1.97 1.99s1.75.63 2.7.63c1.17 0 2.17-.21 2.99-.62.83-.41 1.45-1.03 1.88-1.86s.63-1.85.62-3.07v-5.95h.49v-15.85h3.64v21.84c0 .56-.02 1.1-.06 1.61s-.11 1.02-.22 1.54c-.3 1.43-.88 2.61-1.72 3.54-.85.93-1.92 1.63-3.23 2.09s-2.79.69-4.44.69zm.26-13.17c1.35 0 2.46-.32 3.31-.97s1.48-1.53 1.87-2.66.59-2.43.59-3.9-.2-2.77-.6-3.9-1.02-2.01-1.85-2.64-1.89-.95-3.18-.95c-1.37 0-2.49.33-3.37 1s-1.53 1.57-1.96 2.7-.64 2.39-.64 3.78.21 2.67.64 3.81 1.07 2.04 1.93 2.71 1.95 1 3.26 1z"/><path d="m589.92 382.88v-28.36h3.68v15.3h.49v13.06h-4.18zm14.95 0v-10.46c0-.83-.07-1.68-.21-2.55s-.4-1.68-.79-2.43-.93-1.35-1.63-1.81-1.62-.69-2.75-.69c-.74 0-1.43.12-2.09.36s-1.23.63-1.72 1.17-.88 1.25-1.16 2.13-.42 1.95-.42 3.21l-2.56-.96c0-1.93.36-3.63 1.08-5.11s1.76-2.63 3.11-3.46 2.99-1.24 4.9-1.24c1.47 0 2.71.24 3.7.71 1 .47 1.81 1.09 2.43 1.86s1.1 1.61 1.43 2.51.55 1.79.67 2.66.18 1.63.18 2.29v11.82h-4.17z"/><path d="m616.38 392.33 4.12-11.21.06 3.31-9.28-22.83h4.29l6.93 17.63h-1.26l6.62-17.63h4.18l-11.74 30.72h-3.92z"/><path d="m635.6 382.88v-28.36h4.14v13.06h-.47v15.3h-3.66zm10 .59c-2.04 0-3.74-.5-5.12-1.49s-2.42-2.33-3.13-4.03-1.06-3.6-1.06-5.73.35-4.04 1.05-5.73 1.74-3.03 3.11-4.01 3.06-1.47 5.07-1.47 3.72.49 5.17 1.47 2.57 2.31 3.36 4 1.18 3.6 1.18 5.74-.39 4.04-1.17 5.74-1.89 3.04-3.33 4.03-3.15 1.48-5.13 1.48zm-.57-3.72c1.31 0 2.4-.34 3.26-1 .86-.67 1.5-1.57 1.93-2.71s.64-2.41.64-3.81-.21-2.65-.64-3.78-1.08-2.03-1.96-2.7-2-1-3.37-1c-1.29 0-2.35.32-3.18.95s-1.45 1.51-1.85 2.64-.6 2.43-.6 3.9.2 2.77.59 3.9 1.02 2.02 1.87 2.66 1.96.97 3.31.97z"/><path d="m659.96 382.88v-21.27h3.66v5.16l-.51-.67c.26-.68.6-1.31 1.02-1.88s.91-1.04 1.46-1.41c.54-.39 1.14-.7 1.8-.92s1.34-.35 2.04-.39 1.37 0 2.01.11v3.86c-.7-.18-1.47-.24-2.31-.16s-1.62.35-2.33.81c-.67.43-1.2.96-1.58 1.58-.39.62-.67 1.3-.84 2.06s-.26 1.55-.26 2.39v10.73z"/><path d="m675.51 358.12v-4h4.12v4zm0 24.76v-21.27h4.12v21.27z"/><path d="m694.21 383.47c-1.98 0-3.69-.49-5.13-1.48-1.44-.98-2.55-2.33-3.33-4.03s-1.17-3.61-1.17-5.74.39-4.05 1.18-5.74 1.91-3.02 3.36-4 3.17-1.47 5.17-1.47 3.7.49 5.07 1.47 2.41 2.31 3.11 4.01 1.05 3.6 1.05 5.73-.35 4.04-1.06 5.73-1.75 3.04-3.13 4.03-3.09 1.49-5.12 1.49zm.57-3.72c1.35 0 2.46-.32 3.31-.97s1.48-1.53 1.87-2.66.59-2.43.59-3.9-.2-2.77-.6-3.9-1.02-2.01-1.85-2.64-1.89-.95-3.18-.95c-1.37 0-2.49.33-3.37 1s-1.53 1.57-1.96 2.7-.64 2.39-.64 3.78.21 2.67.64 3.81 1.07 2.04 1.93 2.71 1.95 1 3.26 1zm5.77 3.13v-15.3h-.47v-13.06h4.14v28.36h-3.66z"/><path d="m723.71 382.88-6.5-21.29 4.08.02 4.45 14.59 4.49-14.59h3.54l4.49 14.59 4.45-14.59h4.06l-6.5 21.27h-3.31l-4.96-15.4-4.98 15.4z"/><path d="m759.27 383.47c-2.13 0-3.97-.48-5.53-1.44s-2.77-2.28-3.61-3.97c-.85-1.69-1.27-3.63-1.27-5.84s.43-4.17 1.3-5.86 2.08-3 3.64-3.94 3.39-1.41 5.48-1.41 3.97.48 5.53 1.44 2.77 2.28 3.62 3.96 1.28 3.62 1.28 5.81-.43 4.17-1.29 5.86-2.07 3.01-3.63 3.96-3.4 1.43-5.51 1.43zm0-3.88c2.04 0 3.55-.69 4.56-2.06 1-1.37 1.51-3.14 1.51-5.31s-.51-4-1.53-5.33-2.53-2-4.54-2c-1.38 0-2.51.31-3.41.94-.89.62-1.56 1.48-1.99 2.58s-.65 2.37-.65 3.81c0 2.23.51 4.02 1.54 5.36 1.02 1.34 2.53 2.01 4.51 2.01z"/><path d="m774.43 382.88v-21.27h3.66v5.16l-.51-.67c.26-.68.6-1.31 1.02-1.88s.91-1.04 1.46-1.41c.54-.39 1.14-.7 1.8-.92s1.34-.35 2.04-.39 1.37 0 2.01.11v3.86c-.7-.18-1.47-.24-2.31-.16s-1.62.35-2.33.81c-.67.43-1.2.96-1.58 1.58-.39.62-.67 1.3-.84 2.06s-.26 1.55-.26 2.39v10.73z"/><path d="m789.8 382.88.02-28.36h4.18v17.33l8.35-10.24h5.24l-8.82 10.63 9.73 10.63h-5.59l-8.9-10.24v10.24h-4.2z"/><path d="m409.76 217.98v-28.36h4.12v28.36z"/><path d="m428.38 218.57c-1.98 0-3.69-.49-5.13-1.48s-2.55-2.33-3.33-4.03-1.17-3.61-1.17-5.74.39-4.05 1.18-5.74 1.91-3.02 3.36-4 3.17-1.47 5.17-1.47 3.7.49 5.07 1.47 2.41 2.31 3.11 4.01c.7 1.69 1.05 3.6 1.05 5.73s-.35 4.04-1.06 5.73-1.75 3.04-3.13 4.03-3.09 1.49-5.12 1.49zm.57-3.72c1.35 0 2.46-.32 3.31-.96s1.48-1.53 1.87-2.66.59-2.43.59-3.9-.2-2.77-.6-3.9-1.02-2.01-1.85-2.64-1.89-.95-3.18-.95c-1.37 0-2.49.34-3.37 1-.88.67-1.53 1.57-1.96 2.7s-.64 2.39-.64 3.78.21 2.68.64 3.81c.43 1.14 1.07 2.04 1.93 2.71s1.95 1 3.26 1zm5.77 3.13v-15.3h-.47v-13.06h4.14v28.36h-3.66z"/><path d="m453.73 218.57c-2.11 0-3.97-.46-5.56-1.39s-2.84-2.22-3.72-3.88c-.89-1.66-1.33-3.59-1.33-5.78 0-2.32.44-4.34 1.31-6.05s2.09-3.03 3.65-3.96 3.38-1.4 5.46-1.4 4.01.5 5.53 1.51c1.52 1 2.66 2.43 3.42 4.28.75 1.85 1.05 4.05.9 6.6h-4.12v-1.5c-.03-2.47-.5-4.29-1.41-5.48-.91-1.18-2.3-1.77-4.17-1.77-2.06 0-3.61.65-4.65 1.95s-1.56 3.18-1.56 5.63.52 4.15 1.56 5.43 2.53 1.92 4.49 1.92c1.29 0 2.4-.29 3.34-.88.94-.58 1.67-1.42 2.2-2.51l4.04 1.28c-.83 1.9-2.08 3.38-3.76 4.42s-3.55 1.57-5.61 1.57zm-7.58-10.06v-3.21h15.18v3.21z"/><path d="m468.09 217.98v-21.27h3.68v6.14h.49v15.12h-4.18zm14.95 0v-10.46c0-.83-.07-1.68-.21-2.55s-.4-1.68-.79-2.43-.93-1.35-1.63-1.81-1.62-.69-2.75-.69c-.74 0-1.43.12-2.09.37-.66.24-1.23.63-1.72 1.17s-.88 1.25-1.16 2.13-.42 1.95-.42 3.21l-2.56-.96c0-1.93.36-3.63 1.08-5.11s1.76-2.63 3.11-3.46 2.99-1.24 4.9-1.24c1.47 0 2.71.24 3.7.71 1 .47 1.81 1.09 2.43 1.86s1.1 1.6 1.43 2.51.55 1.79.67 2.66.18 1.63.18 2.28v11.82h-4.17z"/><path d="m490.05 200.02v-3.31h14.54v3.31zm14.54 17.96c-1.34.26-2.65.38-3.94.34s-2.44-.29-3.45-.75-1.77-1.18-2.28-2.17c-.46-.88-.71-1.78-.74-2.69s-.05-1.95-.05-3.1v-18.81h4.14v18.61c0 .85 0 1.6.03 2.22.02.63.15 1.16.4 1.6.47.81 1.22 1.28 2.25 1.39s2.24.07 3.63-.13v3.49z"/><path d="m509 193.22v-4h4.12v4zm0 24.76v-21.27h4.12v21.27z"/><path d="m516.9 200.02v-3.31h14.54v3.31zm14.54 17.96c-1.34.26-2.65.38-3.94.34s-2.44-.29-3.45-.75-1.77-1.18-2.28-2.17c-.46-.88-.71-1.78-.74-2.69s-.05-1.95-.05-3.1v-18.81h4.14v18.61c0 .85 0 1.6.03 2.22.02.63.15 1.16.4 1.6.47.81 1.22 1.28 2.25 1.39s2.24.07 3.63-.13v3.49z"/><path d="m539.7 227.43 4.12-11.21.06 3.31-9.28-22.83h4.29l6.93 17.63h-1.26l6.62-17.63h4.18l-11.74 30.72h-3.92z"/><path d="m573.89 218.57c-1.58 0-2.89-.29-3.96-.88s-1.87-1.36-2.41-2.32-.82-2.03-.82-3.18c0-1.08.19-2.02.57-2.84.38-.81.95-1.51 1.69-2.08.75-.57 1.67-1.03 2.76-1.39.95-.28 2.02-.52 3.21-.73s2.45-.41 3.77-.59 2.63-.37 3.93-.55l-1.5.83c.03-1.67-.33-2.91-1.05-3.71-.73-.81-1.98-1.21-3.75-1.21-1.12 0-2.14.26-3.07.78s-1.58 1.38-1.95 2.57l-3.84-1.18c.52-1.83 1.53-3.28 3-4.35 1.48-1.08 3.44-1.62 5.9-1.62 1.9 0 3.56.33 4.97.98s2.44 1.68 3.1 3.08c.34.7.55 1.43.63 2.21s.12 1.61.12 2.5v13.1h-3.64v-4.86l.71.63c-.88 1.63-2 2.84-3.36 3.63s-3.03 1.19-5.01 1.19zm.73-3.37c1.17 0 2.17-.21 3.01-.62s1.52-.94 2.03-1.59c.51-.64.85-1.31 1-2.01.22-.63.35-1.34.38-2.13s.05-1.42.05-1.89l1.34.49c-1.3.2-2.48.37-3.54.53s-2.03.31-2.89.46-1.62.33-2.29.54c-.56.2-1.07.43-1.51.71s-.79.61-1.04 1-.38.87-.38 1.44.14 1.06.41 1.53c.28.47.7.84 1.26 1.11.56.28 1.29.41 2.17.41z"/><path d="m590.79 217.98v-21.27h3.68v6.14h.49v15.12h-4.18zm14.95 0v-10.46c0-.83-.07-1.68-.21-2.55s-.4-1.68-.79-2.43-.93-1.35-1.63-1.81-1.62-.69-2.75-.69c-.74 0-1.43.12-2.09.37-.66.24-1.23.63-1.72 1.17s-.88 1.25-1.16 2.13-.42 1.95-.42 3.21l-2.56-.96c0-1.93.36-3.63 1.08-5.11s1.76-2.63 3.11-3.46 2.99-1.24 4.9-1.24c1.47 0 2.71.24 3.7.71 1 .47 1.81 1.09 2.43 1.86s1.1 1.6 1.43 2.51.55 1.79.67 2.66.18 1.63.18 2.28v11.82h-4.17z"/><path d="m623.94 218.57c-1.98 0-3.69-.49-5.13-1.48s-2.55-2.33-3.33-4.03-1.17-3.61-1.17-5.74.39-4.05 1.18-5.74 1.91-3.02 3.36-4 3.17-1.47 5.17-1.47 3.7.49 5.07 1.47 2.41 2.31 3.11 4.01c.7 1.69 1.05 3.6 1.05 5.73s-.35 4.04-1.06 5.73-1.75 3.04-3.13 4.03-3.09 1.49-5.12 1.49zm.57-3.72c1.35 0 2.46-.32 3.31-.96s1.48-1.53 1.87-2.66.59-2.43.59-3.9-.2-2.77-.6-3.9-1.02-2.01-1.85-2.64-1.89-.95-3.18-.95c-1.37 0-2.49.34-3.37 1-.88.67-1.53 1.57-1.96 2.7s-.64 2.39-.64 3.78.21 2.68.64 3.81c.43 1.14 1.07 2.04 1.93 2.71s1.95 1 3.26 1zm5.77 3.13v-15.3h-.47v-13.06h4.14v28.36h-3.66z"/><path d="m654.91 218.57c-1.58 0-2.89-.29-3.96-.88s-1.87-1.36-2.41-2.32-.82-2.03-.82-3.18c0-1.08.19-2.02.57-2.84.38-.81.95-1.51 1.69-2.08.75-.57 1.67-1.03 2.76-1.39.95-.28 2.02-.52 3.21-.73s2.45-.41 3.77-.59 2.63-.37 3.93-.55l-1.5.83c.03-1.67-.33-2.91-1.05-3.71-.73-.81-1.98-1.21-3.75-1.21-1.12 0-2.14.26-3.07.78s-1.58 1.38-1.95 2.57l-3.84-1.18c.52-1.83 1.53-3.28 3-4.35 1.48-1.08 3.44-1.62 5.9-1.62 1.9 0 3.56.33 4.97.98s2.44 1.68 3.1 3.08c.34.7.55 1.43.63 2.21s.12 1.61.12 2.5v13.1h-3.64v-4.86l.71.63c-.88 1.63-2 2.84-3.36 3.63s-3.03 1.19-5.01 1.19zm.73-3.37c1.17 0 2.17-.21 3.01-.62s1.52-.94 2.03-1.59c.51-.64.85-1.31 1-2.01.22-.63.35-1.34.38-2.13s.05-1.42.05-1.89l1.34.49c-1.3.2-2.48.37-3.54.53s-2.03.31-2.89.46-1.62.33-2.29.54c-.56.2-1.07.43-1.51.71s-.79.61-1.04 1-.38.87-.38 1.44.14 1.06.41 1.53c.28.47.7.84 1.26 1.11.56.28 1.29.41 2.17.41z"/><path d="m680.97 218.57c-2.18 0-4.03-.49-5.55-1.46s-2.69-2.3-3.5-4c-.81-1.69-1.22-3.62-1.23-5.77.01-2.19.43-4.13 1.26-5.82s2.01-3.01 3.54-3.97c1.54-.96 3.38-1.44 5.53-1.44 2.32 0 4.31.58 5.96 1.73 1.65 1.16 2.73 2.74 3.26 4.75l-4.1 1.18c-.41-1.19-1.07-2.12-2-2.79-.93-.66-1.99-.99-3.18-.99-1.35 0-2.46.32-3.33.96s-1.51 1.51-1.93 2.61-.64 2.36-.65 3.78c.01 2.19.52 3.97 1.51 5.32s2.46 2.03 4.4 2.03c1.33 0 2.4-.3 3.22-.92.82-.61 1.45-1.49 1.88-2.63l4.17.99c-.7 2.08-1.84 3.67-3.45 4.78s-3.54 1.66-5.83 1.66z"/><path d="m703.67 218.57c-2.18 0-4.03-.49-5.55-1.46s-2.69-2.3-3.5-4c-.81-1.69-1.22-3.62-1.23-5.77.01-2.19.43-4.13 1.26-5.82s2.01-3.01 3.54-3.97c1.54-.96 3.38-1.44 5.53-1.44 2.32 0 4.31.58 5.96 1.73 1.65 1.16 2.73 2.74 3.26 4.75l-4.1 1.18c-.41-1.19-1.07-2.12-2-2.79-.93-.66-1.99-.99-3.18-.99-1.35 0-2.46.32-3.33.96s-1.51 1.51-1.93 2.61-.64 2.36-.65 3.78c.01 2.19.52 3.97 1.51 5.32s2.46 2.03 4.4 2.03c1.33 0 2.4-.3 3.22-.92.82-.61 1.45-1.49 1.88-2.63l4.17.99c-.7 2.08-1.84 3.67-3.45 4.78s-3.54 1.66-5.83 1.66z"/><path d="m726.7 218.57c-2.11 0-3.97-.46-5.56-1.39s-2.84-2.22-3.72-3.88c-.89-1.66-1.33-3.59-1.33-5.78 0-2.32.44-4.34 1.31-6.05s2.09-3.03 3.65-3.96 3.38-1.4 5.46-1.4 4.01.5 5.53 1.51c1.52 1 2.66 2.43 3.42 4.28.75 1.85 1.05 4.05.9 6.6h-4.12v-1.5c-.03-2.47-.5-4.29-1.41-5.48-.91-1.18-2.3-1.77-4.17-1.77-2.06 0-3.61.65-4.65 1.95s-1.56 3.18-1.56 5.63.52 4.15 1.56 5.43 2.53 1.92 4.49 1.92c1.29 0 2.4-.29 3.34-.88.94-.58 1.67-1.42 2.2-2.51l4.04 1.28c-.83 1.9-2.08 3.38-3.76 4.42s-3.55 1.57-5.61 1.57zm-7.58-10.06v-3.21h15.18v3.21z"/><path d="m749.16 218.55c-2.59 0-4.69-.57-6.32-1.71s-2.63-2.75-2.99-4.83l4.21-.65c.26 1.1.87 1.97 1.82 2.61s2.14.96 3.55.96c1.29 0 2.29-.26 3.02-.79s1.09-1.25 1.09-2.17c0-.54-.13-.97-.38-1.31-.26-.33-.79-.65-1.6-.96-.81-.3-2.06-.68-3.72-1.12-1.83-.47-3.27-.98-4.34-1.53s-1.83-1.18-2.28-1.91-.68-1.61-.68-2.65c0-1.29.34-2.41 1.02-3.37s1.64-1.7 2.88-2.22c1.24-.53 2.7-.79 4.36-.79s3.08.26 4.35.77 2.3 1.24 3.09 2.18 1.26 2.04 1.42 3.3l-4.21.77c-.14-1.02-.62-1.83-1.44-2.42-.81-.59-1.87-.91-3.17-.96-1.25-.05-2.26.15-3.03.62s-1.16 1.11-1.16 1.92c0 .47.15.87.44 1.2s.87.64 1.72.95c.85.3 2.11.66 3.78 1.08 1.79.46 3.2.97 4.25 1.53s1.8 1.22 2.25 1.99.68 1.7.68 2.79c0 2.1-.77 3.75-2.29 4.94-1.53 1.2-3.64 1.79-6.33 1.79z"/><path d="m770.72 218.55c-2.59 0-4.69-.57-6.32-1.71s-2.63-2.75-2.99-4.83l4.21-.65c.26 1.1.87 1.97 1.82 2.61s2.14.96 3.55.96c1.29 0 2.29-.26 3.02-.79s1.09-1.25 1.09-2.17c0-.54-.13-.97-.38-1.31-.26-.33-.79-.65-1.6-.96-.81-.3-2.06-.68-3.72-1.12-1.83-.47-3.27-.98-4.34-1.53s-1.83-1.18-2.28-1.91-.68-1.61-.68-2.65c0-1.29.34-2.41 1.02-3.37s1.64-1.7 2.88-2.22c1.24-.53 2.7-.79 4.36-.79s3.08.26 4.35.77 2.3 1.24 3.09 2.18 1.26 2.04 1.42 3.3l-4.21.77c-.14-1.02-.62-1.83-1.44-2.42-.81-.59-1.87-.91-3.17-.96-1.25-.05-2.26.15-3.03.62s-1.16 1.11-1.16 1.92c0 .47.15.87.44 1.2s.87.64 1.72.95c.85.3 2.11.66 3.78 1.08 1.79.46 3.2.97 4.25 1.53s1.8 1.22 2.25 1.99.68 1.7.68 2.79c0 2.1-.77 3.75-2.29 4.94-1.53 1.2-3.64 1.79-6.33 1.79z"/><path d="m409.35 265.25v-21.27h3.66v6.14h.47v15.13h-4.14zm12.76 0 .02-13.18c0-1.55-.39-2.76-1.17-3.64s-1.83-1.32-3.14-1.32-2.35.45-3.14 1.34-1.19 2.06-1.19 3.5l-1.97-1.26c0-1.39.33-2.63 1-3.72s1.58-1.95 2.72-2.58 2.44-.95 3.88-.95 2.8.32 3.86.96 1.87 1.53 2.43 2.67.84 2.47.84 3.98l-.02 14.2zm12.74 0 .02-13.25c0-1.54-.39-2.73-1.18-3.59s-1.83-1.29-3.11-1.29c-.79 0-1.51.18-2.16.54s-1.17.9-1.58 1.62c-.4.72-.6 1.61-.6 2.69l-1.99-1c-.03-1.5.29-2.81.96-3.94.66-1.13 1.57-2.01 2.71-2.63s2.42-.94 3.84-.94c2.3 0 4.08.69 5.34 2.07s1.89 3.21 1.89 5.49l-.02 14.24h-4.12z"/><path d="m450.56 265.84c-1.58 0-2.89-.29-3.96-.88s-1.87-1.36-2.41-2.32c-.54-.97-.82-2.03-.82-3.18 0-1.08.19-2.02.57-2.84.38-.81.95-1.51 1.69-2.08.75-.57 1.67-1.03 2.76-1.39.95-.28 2.02-.52 3.21-.73s2.45-.41 3.77-.59 2.63-.37 3.93-.55l-1.5.83c.03-1.67-.33-2.9-1.05-3.71-.73-.81-1.98-1.21-3.75-1.21-1.12 0-2.14.26-3.07.78s-1.58 1.38-1.95 2.57l-3.84-1.18c.52-1.82 1.53-3.28 3-4.35 1.48-1.08 3.44-1.62 5.9-1.62 1.9 0 3.56.33 4.97.97 1.41.65 2.44 1.68 3.1 3.08.34.7.55 1.43.63 2.21.08.77.12 1.61.12 2.5v13.1h-3.64v-4.87l.71.63c-.88 1.63-2 2.84-3.36 3.63s-3.03 1.19-5.01 1.19zm.73-3.37c1.17 0 2.17-.21 3.01-.62s1.52-.94 2.03-1.58.85-1.31 1-2.01c.22-.63.35-1.34.38-2.13s.05-1.42.05-1.89l1.34.49c-1.3.2-2.48.38-3.54.53s-2.03.31-2.89.46-1.62.33-2.29.54c-.56.2-1.07.43-1.51.71s-.79.61-1.04 1c-.26.39-.38.87-.38 1.44s.14 1.06.41 1.53c.28.47.7.84 1.26 1.11.56.28 1.29.41 2.17.41z"/><path d="m467.47 265.25v-21.27h3.68v6.14h.49v15.13h-4.18zm14.95 0v-10.46c0-.83-.07-1.68-.21-2.55s-.4-1.68-.79-2.43-.93-1.35-1.63-1.81-1.62-.69-2.75-.69c-.74 0-1.43.12-2.09.36s-1.23.63-1.72 1.17-.88 1.25-1.16 2.13-.42 1.95-.42 3.21l-2.56-.96c0-1.93.36-3.63 1.08-5.11s1.76-2.63 3.11-3.46 2.99-1.24 4.9-1.24c1.47 0 2.71.24 3.7.71 1 .47 1.81 1.09 2.43 1.86s1.1 1.61 1.43 2.51c.33.91.55 1.79.67 2.66s.18 1.63.18 2.29v11.82h-4.17z"/><path d="m498.09 265.84c-1.58 0-2.89-.29-3.96-.88s-1.87-1.36-2.41-2.32c-.54-.97-.82-2.03-.82-3.18 0-1.08.19-2.02.57-2.84.38-.81.95-1.51 1.69-2.08.75-.57 1.67-1.03 2.76-1.39.95-.28 2.02-.52 3.21-.73s2.45-.41 3.77-.59 2.63-.37 3.93-.55l-1.5.83c.03-1.67-.33-2.9-1.05-3.71-.73-.81-1.98-1.21-3.75-1.21-1.12 0-2.14.26-3.07.78s-1.58 1.38-1.95 2.57l-3.84-1.18c.52-1.82 1.53-3.28 3-4.35 1.48-1.08 3.44-1.62 5.9-1.62 1.9 0 3.56.33 4.97.97 1.41.65 2.44 1.68 3.1 3.08.34.7.55 1.43.63 2.21.08.77.12 1.61.12 2.5v13.1h-3.64v-4.87l.71.63c-.88 1.63-2 2.84-3.36 3.63s-3.03 1.19-5.01 1.19zm.73-3.37c1.17 0 2.17-.21 3.01-.62s1.52-.94 2.03-1.58.85-1.31 1-2.01c.22-.63.35-1.34.38-2.13s.05-1.42.05-1.89l1.34.49c-1.3.2-2.48.38-3.54.53s-2.03.31-2.89.46-1.62.33-2.29.54c-.56.2-1.07.43-1.51.71s-.79.61-1.04 1c-.26.39-.38.87-.38 1.44s.14 1.06.41 1.53c.28.47.7.84 1.26 1.11.56.28 1.29.41 2.17.41z"/><path d="m523.5 265.84c-1.98 0-3.69-.49-5.13-1.48-1.44-.98-2.55-2.33-3.33-4.03s-1.17-3.61-1.17-5.74.39-4.05 1.18-5.74 1.91-3.02 3.36-4 3.17-1.47 5.17-1.47 3.7.49 5.07 1.47 2.41 2.31 3.11 4.01c.7 1.69 1.05 3.6 1.05 5.73s-.35 4.04-1.06 5.73-1.75 3.04-3.13 4.03-3.09 1.49-5.12 1.49zm.32 9.45c-1.14 0-2.25-.18-3.32-.53s-2.05-.88-2.92-1.57c-.88-.69-1.61-1.54-2.19-2.55l3.8-1.93c.46.91 1.12 1.57 1.97 1.99s1.75.63 2.7.63c1.17 0 2.17-.21 2.99-.62s1.45-1.03 1.88-1.86.63-1.85.62-3.07v-5.95h.49v-15.85h3.64v21.84c0 .56-.02 1.1-.06 1.62-.04.51-.11 1.02-.22 1.54-.3 1.43-.88 2.61-1.72 3.54s-1.92 1.63-3.23 2.09-2.79.69-4.44.69zm.26-13.17c1.35 0 2.46-.32 3.31-.97.85-.64 1.48-1.53 1.87-2.66s.59-2.43.59-3.9-.2-2.77-.6-3.9-1.02-2.01-1.85-2.64-1.89-.95-3.18-.95c-1.37 0-2.49.33-3.37 1s-1.53 1.57-1.96 2.7-.64 2.39-.64 3.78.21 2.67.64 3.81c.43 1.13 1.07 2.04 1.93 2.71s1.95 1 3.26 1z"/><path d="m548.83 265.84c-2.11 0-3.97-.46-5.56-1.39-1.59-.92-2.84-2.22-3.72-3.88-.89-1.66-1.33-3.59-1.33-5.78 0-2.32.44-4.34 1.31-6.05s2.09-3.03 3.65-3.96 3.38-1.4 5.46-1.4 4.01.5 5.53 1.51c1.52 1 2.66 2.43 3.42 4.28.75 1.85 1.05 4.05.9 6.6h-4.12v-1.5c-.03-2.47-.5-4.29-1.41-5.47s-2.3-1.77-4.17-1.77c-2.06 0-3.61.65-4.65 1.95s-1.56 3.18-1.56 5.63.52 4.14 1.56 5.43c1.04 1.28 2.53 1.92 4.49 1.92 1.29 0 2.4-.29 3.34-.88s1.67-1.42 2.2-2.51l4.04 1.28c-.83 1.9-2.08 3.38-3.76 4.42s-3.55 1.57-5.61 1.57zm-7.58-10.06v-3.21h15.18v3.21z"/><path d="m563.19 265.25v-21.27h3.66v6.14h.47v15.13h-4.14zm12.76 0 .02-13.18c0-1.55-.39-2.76-1.17-3.64s-1.83-1.32-3.14-1.32-2.35.45-3.14 1.34-1.19 2.06-1.19 3.5l-1.97-1.26c0-1.39.33-2.63 1-3.72s1.58-1.95 2.72-2.58 2.44-.95 3.88-.95 2.8.32 3.86.96 1.87 1.53 2.43 2.67.84 2.47.84 3.98l-.02 14.2zm12.74 0 .02-13.25c0-1.54-.39-2.73-1.18-3.59s-1.83-1.29-3.11-1.29c-.79 0-1.51.18-2.16.54s-1.17.9-1.58 1.62c-.4.72-.6 1.61-.6 2.69l-1.99-1c-.03-1.5.29-2.81.96-3.94.66-1.13 1.57-2.01 2.71-2.63s2.42-.94 3.84-.94c2.3 0 4.08.69 5.34 2.07s1.89 3.21 1.89 5.49l-.02 14.24h-4.12z"/><path d="m607.9 265.84c-2.11 0-3.97-.46-5.56-1.39-1.59-.92-2.84-2.22-3.72-3.88-.89-1.66-1.33-3.59-1.33-5.78 0-2.32.44-4.34 1.31-6.05s2.09-3.03 3.65-3.96 3.38-1.4 5.46-1.4 4.01.5 5.53 1.51c1.52 1 2.66 2.43 3.42 4.28.75 1.85 1.05 4.05.9 6.6h-4.12v-1.5c-.03-2.47-.5-4.29-1.41-5.47s-2.3-1.77-4.17-1.77c-2.06 0-3.61.65-4.65 1.95s-1.56 3.18-1.56 5.63.52 4.14 1.56 5.43c1.04 1.28 2.53 1.92 4.49 1.92 1.29 0 2.4-.29 3.34-.88s1.67-1.42 2.2-2.51l4.04 1.28c-.83 1.9-2.08 3.38-3.76 4.42s-3.55 1.57-5.61 1.57zm-7.58-10.06v-3.21h15.18v3.21z"/><path d="m622.26 265.25v-21.27h3.68v6.14h.49v15.13h-4.18zm14.95 0v-10.46c0-.83-.07-1.68-.21-2.55s-.4-1.68-.79-2.43-.93-1.35-1.63-1.81-1.62-.69-2.75-.69c-.74 0-1.43.12-2.09.36s-1.23.63-1.72 1.17-.88 1.25-1.16 2.13-.42 1.95-.42 3.21l-2.56-.96c0-1.93.36-3.63 1.08-5.11s1.76-2.63 3.11-3.46 2.99-1.24 4.9-1.24c1.47 0 2.71.24 3.7.71 1 .47 1.81 1.09 2.43 1.86s1.1 1.61 1.43 2.51c.33.91.55 1.79.67 2.66s.18 1.63.18 2.29v11.82h-4.17z"/><path d="m644.23 247.28v-3.31h14.54v3.31zm14.54 17.96c-1.34.26-2.65.37-3.94.33s-2.44-.29-3.45-.75-1.77-1.18-2.28-2.17c-.46-.88-.71-1.78-.74-2.69s-.05-1.95-.05-3.1v-18.81h4.14v18.61c0 .85 0 1.59.03 2.23.02.63.15 1.16.4 1.59.47.81 1.22 1.28 2.25 1.39s2.24.07 3.63-.13v3.49z"/><path d="m409.76 49.59v-28.36h4.12v28.36z"/><path d="m419.79 49.59v-21.27h3.66v6.14h.47v15.12h-4.14zm12.76 0 .02-13.18c0-1.55-.39-2.76-1.17-3.64s-1.83-1.32-3.14-1.32-2.35.45-3.14 1.34-1.19 2.06-1.19 3.51l-1.97-1.26c0-1.39.33-2.63 1-3.72s1.58-1.95 2.72-2.58 2.44-.95 3.88-.95 2.8.32 3.86.96 1.87 1.53 2.43 2.67.84 2.47.84 3.98l-.02 14.2h-4.12zm12.74 0 .02-13.25c0-1.54-.39-2.73-1.18-3.59s-1.83-1.29-3.11-1.29c-.79 0-1.51.18-2.16.54s-1.17.9-1.58 1.62c-.4.72-.6 1.61-.6 2.69l-1.99-1c-.03-1.5.29-2.81.96-3.94s1.57-2.01 2.71-2.63 2.42-.94 3.84-.94c2.3 0 4.08.69 5.34 2.07s1.89 3.21 1.89 5.5l-.02 14.24h-4.12z"/><path d="m455.04 59.04v-30.72h3.66v15.3h.47v15.42h-4.14zm10-8.86c-2.04 0-3.74-.5-5.12-1.49s-2.42-2.33-3.13-4.03c-.71-1.69-1.06-3.6-1.06-5.73s.35-4.04 1.05-5.73 1.74-3.03 3.11-4.01 3.06-1.47 5.07-1.47 3.72.49 5.17 1.47 2.57 2.31 3.36 4 1.18 3.6 1.18 5.74-.39 4.04-1.17 5.74-1.89 3.04-3.33 4.03-3.15 1.48-5.13 1.48zm-.57-3.72c1.31 0 2.4-.33 3.26-1s1.5-1.57 1.93-2.71c.43-1.13.64-2.41.64-3.81s-.21-2.65-.64-3.78-1.08-2.03-1.96-2.7-2-1-3.37-1c-1.29 0-2.35.32-3.18.95s-1.45 1.51-1.85 2.64-.6 2.43-.6 3.9.2 2.77.59 3.9 1.02 2.02 1.87 2.66 1.96.96 3.31.96z"/><path d="m479.39 49.59v-21.27h3.66v5.16l-.51-.67c.26-.68.6-1.31 1.02-1.88s.91-1.04 1.46-1.41c.54-.39 1.14-.7 1.8-.92s1.34-.35 2.04-.39c.7-.05 1.37 0 2.01.11v3.86c-.7-.18-1.47-.24-2.31-.16-.85.08-1.62.35-2.33.81-.67.43-1.2.96-1.58 1.58-.39.62-.67 1.3-.84 2.06-.17.75-.26 1.55-.26 2.39v10.73z"/><path d="m503.83 50.18c-2.13 0-3.97-.48-5.53-1.44s-2.77-2.28-3.61-3.97-1.27-3.63-1.27-5.84.43-4.17 1.3-5.86 2.08-3 3.64-3.94 3.39-1.41 5.48-1.41 3.97.48 5.53 1.44 2.77 2.28 3.62 3.96 1.28 3.62 1.28 5.81-.43 4.17-1.29 5.86-2.07 3.01-3.63 3.96-3.4 1.43-5.51 1.43zm0-3.88c2.04 0 3.55-.69 4.56-2.06 1-1.37 1.51-3.14 1.51-5.31s-.51-3.99-1.53-5.33-2.53-2-4.54-2c-1.38 0-2.51.31-3.41.94-.89.62-1.56 1.48-1.99 2.58s-.65 2.37-.65 3.81c0 2.23.51 4.02 1.54 5.36 1.02 1.34 2.53 2.01 4.51 2.01z"/><path d="m523.83 49.59-7.72-21.27h4.16l5.65 16.11 5.65-16.11h4.16l-7.72 21.27z"/><path d="m539.69 24.84v-4h4.12v4zm0 24.76v-21.27h4.12v21.27z"/><path d="m549.81 49.59v-21.27h3.68v6.14h.49v15.12h-4.18zm14.95 0v-10.46c0-.83-.07-1.68-.21-2.55s-.4-1.68-.79-2.43-.93-1.35-1.63-1.81-1.62-.69-2.75-.69c-.74 0-1.43.12-2.09.37-.66.24-1.23.63-1.72 1.17s-.88 1.25-1.16 2.13-.42 1.95-.42 3.21l-2.56-.96c0-1.93.36-3.63 1.08-5.11s1.76-2.63 3.11-3.46 2.99-1.24 4.9-1.24c1.47 0 2.71.24 3.7.71 1 .47 1.81 1.09 2.43 1.86s1.1 1.6 1.43 2.51.55 1.79.67 2.66.18 1.63.18 2.28v11.82h-4.17z"/><path d="m582.95 50.18c-1.98 0-3.69-.49-5.13-1.48s-2.55-2.33-3.33-4.03-1.17-3.61-1.17-5.74.39-4.05 1.18-5.74 1.91-3.02 3.36-4 3.17-1.47 5.17-1.47 3.7.49 5.07 1.47 2.41 2.31 3.11 4.01c.7 1.69 1.05 3.6 1.05 5.73s-.35 4.04-1.06 5.73-1.75 3.04-3.13 4.03-3.09 1.49-5.12 1.49zm.32 9.45c-1.14 0-2.25-.18-3.32-.53s-2.05-.88-2.92-1.57c-.88-.69-1.61-1.54-2.19-2.55l3.8-1.93c.46.91 1.12 1.57 1.97 1.99s1.75.63 2.7.63c1.17 0 2.17-.21 2.99-.62s1.45-1.03 1.88-1.86.63-1.85.62-3.07v-5.95h.49v-15.85h3.64v21.84c0 .56-.02 1.1-.06 1.61s-.11 1.02-.22 1.54c-.3 1.43-.88 2.61-1.72 3.54s-1.92 1.63-3.23 2.09-2.79.69-4.44.69zm.26-13.18c1.35 0 2.46-.32 3.31-.96s1.48-1.53 1.87-2.66.59-2.43.59-3.9-.2-2.77-.6-3.9-1.02-2.01-1.85-2.64-1.89-.95-3.18-.95c-1.37 0-2.49.34-3.37 1-.88.67-1.53 1.57-1.96 2.7s-.64 2.39-.64 3.78.21 2.68.64 3.81c.43 1.14 1.07 2.04 1.93 2.71s1.95 1 3.26 1z"/><path d="m617.34 50.18c-2.11 0-3.97-.46-5.56-1.39s-2.84-2.22-3.72-3.88c-.89-1.66-1.33-3.59-1.33-5.78 0-2.32.44-4.34 1.31-6.05s2.09-3.03 3.65-3.96 3.38-1.4 5.46-1.4 4.01.5 5.53 1.51c1.52 1 2.66 2.43 3.42 4.28.75 1.85 1.05 4.05.9 6.6h-4.12v-1.5c-.03-2.47-.5-4.29-1.41-5.48-.91-1.18-2.3-1.77-4.17-1.77-2.06 0-3.61.65-4.65 1.95s-1.56 3.18-1.56 5.63.52 4.15 1.56 5.43 2.53 1.92 4.49 1.92c1.29 0 2.4-.29 3.34-.88.94-.58 1.67-1.42 2.2-2.51l4.04 1.28c-.83 1.9-2.08 3.38-3.76 4.42s-3.55 1.57-5.61 1.57zm-7.58-10.06v-3.21h15.18v3.21z"/><path d="m631.7 49.59v-21.27h3.66v6.14h.47v15.12h-4.14zm12.76 0 .02-13.18c0-1.55-.39-2.76-1.17-3.64s-1.83-1.32-3.14-1.32-2.35.45-3.14 1.34-1.19 2.06-1.19 3.51l-1.97-1.26c0-1.39.33-2.63 1-3.72s1.58-1.95 2.72-2.58 2.44-.95 3.88-.95 2.8.32 3.86.96 1.87 1.53 2.43 2.67.84 2.47.84 3.98l-.02 14.2h-4.12zm12.74 0 .02-13.25c0-1.54-.39-2.73-1.18-3.59s-1.83-1.29-3.11-1.29c-.79 0-1.51.18-2.16.54s-1.17.9-1.58 1.62c-.4.72-.6 1.61-.6 2.69l-1.99-1c-.03-1.5.29-2.81.96-3.94s1.57-2.01 2.71-2.63 2.42-.94 3.84-.94c2.3 0 4.08.69 5.34 2.07s1.89 3.21 1.89 5.5l-.02 14.24h-4.12z"/><path d="m666.94 59.04v-30.72h3.66v15.3h.47v15.42h-4.14zm10-8.86c-2.04 0-3.74-.5-5.12-1.49s-2.42-2.33-3.13-4.03c-.71-1.69-1.06-3.6-1.06-5.73s.35-4.04 1.05-5.73 1.74-3.03 3.11-4.01 3.06-1.47 5.07-1.47 3.72.49 5.17 1.47 2.57 2.31 3.36 4 1.18 3.6 1.18 5.74-.39 4.04-1.17 5.74-1.89 3.04-3.33 4.03-3.15 1.48-5.13 1.48zm-.57-3.72c1.31 0 2.4-.33 3.26-1s1.5-1.57 1.93-2.71c.43-1.13.64-2.41.64-3.81s-.21-2.65-.64-3.78-1.08-2.03-1.96-2.7-2-1-3.37-1c-1.29 0-2.35.32-3.18.95s-1.45 1.51-1.85 2.64-.6 2.43-.6 3.9.2 2.77.59 3.9 1.02 2.02 1.87 2.66 1.96.96 3.31.96z"/><path d="m691.52 49.59v-28.95h4.12v28.95z"/><path d="m711.01 50.18c-2.13 0-3.97-.48-5.53-1.44s-2.77-2.28-3.61-3.97-1.27-3.63-1.27-5.84.43-4.17 1.3-5.86 2.08-3 3.64-3.94 3.39-1.41 5.48-1.41 3.97.48 5.53 1.44 2.77 2.28 3.62 3.96 1.28 3.62 1.28 5.81-.43 4.17-1.29 5.86-2.07 3.01-3.63 3.96-3.4 1.43-5.51 1.43zm0-3.88c2.04 0 3.55-.69 4.56-2.06 1-1.37 1.51-3.14 1.51-5.31s-.51-3.99-1.53-5.33-2.53-2-4.54-2c-1.38 0-2.51.31-3.41.94-.89.62-1.56 1.48-1.99 2.58s-.65 2.37-.65 3.81c0 2.23.51 4.02 1.54 5.36 1.02 1.34 2.53 2.01 4.51 2.01z"/><path d="m728.16 59.04 4.12-11.21.06 3.31-9.28-22.83h4.29l6.93 17.63h-1.26l6.62-17.63h4.18l-11.74 30.72h-3.92z"/><path d="m756.01 50.18c-2.11 0-3.97-.46-5.56-1.39s-2.84-2.22-3.72-3.88c-.89-1.66-1.33-3.59-1.33-5.78 0-2.32.44-4.34 1.31-6.05s2.09-3.03 3.65-3.96 3.38-1.4 5.46-1.4 4.01.5 5.53 1.51c1.52 1 2.66 2.43 3.42 4.28.75 1.85 1.05 4.05.9 6.6h-4.12v-1.5c-.03-2.47-.5-4.29-1.41-5.48-.91-1.18-2.3-1.77-4.17-1.77-2.06 0-3.61.65-4.65 1.95s-1.56 3.18-1.56 5.63.52 4.15 1.56 5.43 2.53 1.92 4.49 1.92c1.29 0 2.4-.29 3.34-.88.94-.58 1.67-1.42 2.2-2.51l4.04 1.28c-.83 1.9-2.08 3.38-3.76 4.42s-3.55 1.57-5.61 1.57zm-7.58-10.06v-3.21h15.18v3.21z"/><path d="m779.93 50.18c-2.11 0-3.97-.46-5.56-1.39s-2.84-2.22-3.72-3.88c-.89-1.66-1.33-3.59-1.33-5.78 0-2.32.44-4.34 1.31-6.05s2.09-3.03 3.65-3.96 3.38-1.4 5.46-1.4 4.01.5 5.53 1.51c1.52 1 2.66 2.43 3.42 4.28.75 1.85 1.05 4.05.9 6.6h-4.12v-1.5c-.03-2.47-.5-4.29-1.41-5.48-.91-1.18-2.3-1.77-4.17-1.77-2.06 0-3.61.65-4.65 1.95s-1.56 3.18-1.56 5.63.52 4.15 1.56 5.43 2.53 1.92 4.49 1.92c1.29 0 2.4-.29 3.34-.88.94-.58 1.67-1.42 2.2-2.51l4.04 1.28c-.83 1.9-2.08 3.38-3.76 4.42s-3.55 1.57-5.61 1.57zm-7.58-10.06v-3.21h15.18v3.21z"/><path d="m802.39 50.16c-2.59 0-4.69-.57-6.32-1.71s-2.63-2.75-2.99-4.83l4.21-.65c.26 1.1.87 1.97 1.82 2.61s2.14.96 3.55.96c1.29 0 2.29-.26 3.02-.79s1.09-1.25 1.09-2.17c0-.54-.13-.97-.38-1.31-.26-.33-.79-.65-1.6-.96-.81-.3-2.06-.68-3.72-1.12-1.83-.47-3.27-.98-4.34-1.53s-1.83-1.18-2.28-1.91-.68-1.61-.68-2.65c0-1.29.34-2.41 1.02-3.37s1.64-1.7 2.88-2.22c1.24-.53 2.7-.79 4.36-.79s3.08.26 4.35.77 2.3 1.24 3.09 2.18 1.26 2.04 1.42 3.3l-4.21.77c-.14-1.02-.62-1.83-1.44-2.42-.81-.59-1.87-.91-3.17-.96-1.25-.05-2.26.15-3.03.62s-1.16 1.11-1.16 1.92c0 .47.15.87.44 1.2s.87.64 1.72.95c.85.3 2.11.66 3.78 1.08 1.79.46 3.2.97 4.25 1.53s1.8 1.22 2.25 1.99.68 1.7.68 2.79c0 2.1-.77 3.75-2.29 4.94-1.53 1.2-3.64 1.79-6.33 1.79z"/><path d="m815.29 30.69.26-1.83c.56.04 1-.06 1.32-.31s.53-.6.63-1.04c.11-.45.12-.95.06-1.52h-2.26v-4.75h4.35v5.14c0 1.55-.37 2.72-1.11 3.51s-1.82 1.06-3.24.81z"/><path d="m417.5 97.43c-2.59 0-4.69-.57-6.32-1.71s-2.63-2.75-2.99-4.83l4.21-.65c.26 1.1.87 1.97 1.82 2.61s2.14.96 3.55.96c1.29 0 2.29-.26 3.02-.79.73-.52 1.09-1.25 1.09-2.17 0-.54-.13-.97-.38-1.31-.26-.34-.79-.65-1.6-.96-.81-.3-2.06-.68-3.72-1.12-1.83-.47-3.27-.98-4.34-1.53s-1.83-1.18-2.28-1.91-.68-1.61-.68-2.65c0-1.29.34-2.41 1.02-3.37s1.64-1.7 2.88-2.23c1.24-.52 2.7-.79 4.36-.79s3.08.26 4.35.77 2.3 1.24 3.09 2.18 1.26 2.04 1.42 3.3l-4.21.77c-.14-1.02-.62-1.83-1.44-2.42-.81-.59-1.87-.91-3.17-.96-1.25-.05-2.26.15-3.03.62s-1.16 1.11-1.16 1.92c0 .47.15.87.44 1.2s.87.64 1.72.95c.85.3 2.11.66 3.78 1.08 1.79.46 3.2.97 4.25 1.53s1.8 1.22 2.25 1.99.68 1.7.68 2.79c0 2.1-.77 3.75-2.29 4.94s-3.64 1.79-6.33 1.79z"/><path d="m440.26 97.45c-2.11 0-3.97-.46-5.56-1.39-1.59-.92-2.84-2.22-3.72-3.88-.89-1.66-1.33-3.59-1.33-5.78 0-2.32.44-4.34 1.31-6.05s2.09-3.03 3.65-3.96 3.38-1.4 5.46-1.4 4.01.5 5.53 1.51c1.52 1 2.66 2.43 3.42 4.28.75 1.85 1.05 4.05.9 6.6h-4.12v-1.5c-.03-2.47-.5-4.29-1.41-5.47s-2.3-1.77-4.17-1.77c-2.06 0-3.61.65-4.65 1.95s-1.56 3.18-1.56 5.63.52 4.14 1.56 5.43c1.04 1.28 2.53 1.92 4.49 1.92 1.29 0 2.4-.29 3.34-.88s1.67-1.42 2.2-2.51l4.04 1.28c-.83 1.9-2.08 3.38-3.76 4.42s-3.55 1.57-5.61 1.57zm-7.58-10.06v-3.21h15.18v3.21z"/><path d="m463.85 97.45c-2.18 0-4.03-.49-5.55-1.46s-2.69-2.3-3.5-4-1.22-3.62-1.23-5.77c.01-2.19.43-4.13 1.26-5.82s2.01-3.01 3.54-3.97c1.54-.96 3.38-1.44 5.53-1.44 2.32 0 4.31.58 5.96 1.73 1.65 1.16 2.73 2.74 3.26 4.75l-4.1 1.18c-.41-1.19-1.07-2.12-2-2.79-.93-.66-1.99-1-3.18-1-1.35 0-2.46.32-3.33.96s-1.51 1.51-1.93 2.61-.64 2.36-.65 3.78c.01 2.19.52 3.96 1.51 5.32.99 1.35 2.46 2.03 4.4 2.03 1.33 0 2.4-.31 3.22-.92s1.45-1.49 1.88-2.63l4.17.98c-.7 2.07-1.84 3.67-3.45 4.78s-3.54 1.66-5.83 1.66z"/><path d="m485.45 97.43c-1.47 0-2.7-.24-3.7-.71s-1.81-1.09-2.43-1.86-1.1-1.6-1.43-2.51-.55-1.79-.67-2.66-.18-1.63-.18-2.28v-11.82h4.17v10.46c0 .83.07 1.68.21 2.55s.4 1.68.79 2.43.93 1.35 1.63 1.81 1.62.69 2.75.69c.74 0 1.43-.12 2.09-.37.66-.24 1.23-.63 1.72-1.17s.88-1.25 1.16-2.13.42-1.95.42-3.21l2.56.96c0 1.93-.36 3.63-1.08 5.11s-1.76 2.63-3.11 3.46-2.99 1.24-4.9 1.24zm7.03-.57v-6.14h-.49v-15.13h4.16v21.27h-3.66z"/><path d="m501.96 96.86v-21.27h3.66v5.16l-.51-.67c.26-.68.6-1.31 1.02-1.88s.91-1.04 1.46-1.41c.54-.39 1.14-.7 1.8-.92s1.34-.35 2.04-.39c.7-.05 1.37 0 2.01.11v3.86c-.7-.18-1.47-.24-2.31-.16-.85.08-1.62.35-2.33.81-.67.43-1.2.96-1.58 1.57-.39.62-.67 1.3-.84 2.06s-.26 1.55-.26 2.39v10.73h-4.16z"/><path d="m517.51 72.1v-4h4.12v4zm0 24.76v-21.27h4.12v21.27z"/><path d="m525.41 78.9v-3.31h14.54v3.31zm14.54 17.96c-1.34.26-2.65.37-3.94.33s-2.44-.29-3.45-.75-1.77-1.18-2.28-2.17c-.46-.88-.71-1.78-.74-2.69s-.05-1.95-.05-3.1v-18.81h4.14v18.61c0 .85 0 1.59.03 2.23.02.63.15 1.16.4 1.59.47.81 1.22 1.28 2.25 1.39s2.24.07 3.63-.13v3.49z"/><path d="m548.21 106.31 4.12-11.21.06 3.31-9.28-22.83h4.29l6.93 17.63h-1.26l6.62-17.63h4.18l-11.74 30.72h-3.92z"/><path d="m582.4 97.45c-1.58 0-2.89-.29-3.96-.88s-1.87-1.36-2.41-2.32c-.54-.97-.82-2.03-.82-3.18 0-1.08.19-2.02.57-2.84.38-.81.95-1.51 1.69-2.08.75-.57 1.67-1.03 2.76-1.39.95-.28 2.02-.52 3.21-.73s2.45-.41 3.77-.59 2.63-.37 3.93-.55l-1.5.83c.03-1.67-.33-2.9-1.05-3.71-.73-.81-1.98-1.21-3.75-1.21-1.12 0-2.14.26-3.07.78s-1.58 1.38-1.95 2.57l-3.84-1.18c.52-1.82 1.53-3.28 3-4.35 1.48-1.08 3.44-1.62 5.9-1.62 1.9 0 3.56.33 4.97.97 1.41.65 2.44 1.68 3.1 3.08.34.7.55 1.43.63 2.21.08.77.12 1.61.12 2.5v13.1h-3.64v-4.87l.71.63c-.88 1.63-2 2.84-3.36 3.63s-3.03 1.19-5.01 1.19zm.73-3.37c1.17 0 2.17-.21 3.01-.62s1.52-.94 2.03-1.58.85-1.31 1-2.01c.22-.63.35-1.34.38-2.13s.05-1.42.05-1.89l1.34.49c-1.3.2-2.48.38-3.54.53s-2.03.31-2.89.46-1.62.33-2.29.54c-.56.2-1.07.43-1.51.71s-.79.61-1.04 1c-.26.39-.38.87-.38 1.44s.14 1.06.41 1.53c.28.47.7.84 1.26 1.11.56.28 1.29.41 2.17.41z"/><path d="m603.16 96.86-6.5-21.29 4.08.02 4.45 14.59 4.49-14.59h3.54l4.49 14.59 4.45-14.59h4.06l-6.5 21.27h-3.31l-4.96-15.4-4.98 15.4z"/><path d="m635.5 97.45c-1.58 0-2.89-.29-3.96-.88s-1.87-1.36-2.41-2.32c-.54-.97-.82-2.03-.82-3.18 0-1.08.19-2.02.57-2.84.38-.81.95-1.51 1.69-2.08.75-.57 1.67-1.03 2.76-1.39.95-.28 2.02-.52 3.21-.73s2.45-.41 3.77-.59 2.63-.37 3.93-.55l-1.5.83c.03-1.67-.33-2.9-1.05-3.71-.73-.81-1.98-1.21-3.75-1.21-1.12 0-2.14.26-3.07.78s-1.58 1.38-1.95 2.57l-3.84-1.18c.52-1.82 1.53-3.28 3-4.35 1.48-1.08 3.44-1.62 5.9-1.62 1.9 0 3.56.33 4.97.97 1.41.65 2.44 1.68 3.1 3.08.34.7.55 1.43.63 2.21.08.77.12 1.61.12 2.5v13.1h-3.64v-4.87l.71.63c-.88 1.63-2 2.84-3.36 3.63s-3.03 1.19-5.01 1.19zm.73-3.37c1.17 0 2.17-.21 3.01-.62s1.52-.94 2.03-1.58.85-1.31 1-2.01c.22-.63.35-1.34.38-2.13s.05-1.42.05-1.89l1.34.49c-1.3.2-2.48.38-3.54.53s-2.03.31-2.89.46-1.62.33-2.29.54c-.56.2-1.07.43-1.51.71s-.79.61-1.04 1c-.26.39-.38.87-.38 1.44s.14 1.06.41 1.53c.28.47.7.84 1.26 1.11.56.28 1.29.41 2.17.41z"/><path d="m652.4 96.86v-21.27h3.66v5.16l-.51-.67c.26-.68.6-1.31 1.02-1.88s.91-1.04 1.46-1.41c.54-.39 1.14-.7 1.8-.92s1.34-.35 2.04-.39c.7-.05 1.37 0 2.01.11v3.86c-.7-.18-1.47-.24-2.31-.16-.85.08-1.62.35-2.33.81-.67.43-1.2.96-1.58 1.57-.39.62-.67 1.3-.84 2.06s-.26 1.55-.26 2.39v10.73h-4.16z"/><path d="m677.02 97.45c-2.11 0-3.97-.46-5.56-1.39-1.59-.92-2.84-2.22-3.72-3.88-.89-1.66-1.33-3.59-1.33-5.78 0-2.32.44-4.34 1.31-6.05s2.09-3.03 3.65-3.96 3.38-1.4 5.46-1.4 4.01.5 5.53 1.51c1.52 1 2.66 2.43 3.42 4.28.75 1.85 1.05 4.05.9 6.6h-4.12v-1.5c-.03-2.47-.5-4.29-1.41-5.47s-2.3-1.77-4.17-1.77c-2.06 0-3.61.65-4.65 1.95s-1.56 3.18-1.56 5.63.52 4.14 1.56 5.43c1.04 1.28 2.53 1.92 4.49 1.92 1.29 0 2.4-.29 3.34-.88s1.67-1.42 2.2-2.51l4.04 1.28c-.83 1.9-2.08 3.38-3.76 4.42s-3.55 1.57-5.61 1.57zm-7.58-10.06v-3.21h15.18v3.21z"/><path d="m691.37 96.86v-21.27h3.68v6.14h.49v15.13h-4.18zm14.95 0v-10.46c0-.83-.07-1.68-.21-2.55s-.4-1.68-.79-2.43-.93-1.35-1.63-1.81-1.62-.69-2.75-.69c-.74 0-1.43.12-2.09.36s-1.23.63-1.72 1.17-.88 1.25-1.16 2.13-.42 1.95-.42 3.21l-2.56-.96c0-1.93.36-3.63 1.08-5.11s1.76-2.63 3.11-3.46 2.99-1.24 4.9-1.24c1.47 0 2.71.24 3.7.71 1 .47 1.81 1.09 2.43 1.86s1.1 1.61 1.43 2.51c.33.91.55 1.79.67 2.66s.18 1.63.18 2.29v11.82h-4.17z"/><path d="m725.5 97.45c-2.11 0-3.97-.46-5.56-1.39-1.59-.92-2.84-2.22-3.72-3.88-.89-1.66-1.33-3.59-1.33-5.78 0-2.32.44-4.34 1.31-6.05s2.09-3.03 3.65-3.96 3.38-1.4 5.46-1.4 4.01.5 5.53 1.51c1.52 1 2.66 2.43 3.42 4.28.75 1.85 1.05 4.05.9 6.6h-4.12v-1.5c-.03-2.47-.5-4.29-1.41-5.47s-2.3-1.77-4.17-1.77c-2.06 0-3.61.65-4.65 1.95s-1.56 3.18-1.56 5.63.52 4.14 1.56 5.43c1.04 1.28 2.53 1.92 4.49 1.92 1.29 0 2.4-.29 3.34-.88s1.67-1.42 2.2-2.51l4.04 1.28c-.83 1.9-2.08 3.38-3.76 4.42s-3.55 1.57-5.61 1.57zm-7.58-10.06v-3.21h15.18v3.21z"/><path d="m747.96 97.43c-2.59 0-4.69-.57-6.32-1.71s-2.63-2.75-2.99-4.83l4.21-.65c.26 1.1.87 1.97 1.82 2.61s2.14.96 3.55.96c1.29 0 2.29-.26 3.02-.79.73-.52 1.09-1.25 1.09-2.17 0-.54-.13-.97-.38-1.31-.26-.34-.79-.65-1.6-.96-.81-.3-2.06-.68-3.72-1.12-1.83-.47-3.27-.98-4.34-1.53s-1.83-1.18-2.28-1.91-.68-1.61-.68-2.65c0-1.29.34-2.41 1.02-3.37s1.64-1.7 2.88-2.23c1.24-.52 2.7-.79 4.36-.79s3.08.26 4.35.77 2.3 1.24 3.09 2.18 1.26 2.04 1.42 3.3l-4.21.77c-.14-1.02-.62-1.83-1.44-2.42-.81-.59-1.87-.91-3.17-.96-1.25-.05-2.26.15-3.03.62s-1.16 1.11-1.16 1.92c0 .47.15.87.44 1.2s.87.64 1.72.95c.85.3 2.11.66 3.78 1.08 1.79.46 3.2.97 4.25 1.53s1.8 1.22 2.25 1.99.68 1.7.68 2.79c0 2.1-.77 3.75-2.29 4.94s-3.64 1.79-6.33 1.79z"/><path d="m769.51 97.43c-2.59 0-4.69-.57-6.32-1.71s-2.63-2.75-2.99-4.83l4.21-.65c.26 1.1.87 1.97 1.82 2.61s2.14.96 3.55.96c1.29 0 2.29-.26 3.02-.79.73-.52 1.09-1.25 1.09-2.17 0-.54-.13-.97-.38-1.31-.26-.34-.79-.65-1.6-.96-.81-.3-2.06-.68-3.72-1.12-1.83-.47-3.27-.98-4.34-1.53s-1.83-1.18-2.28-1.91-.68-1.61-.68-2.65c0-1.29.34-2.41 1.02-3.37s1.64-1.7 2.88-2.23c1.24-.52 2.7-.79 4.36-.79s3.08.26 4.35.77 2.3 1.24 3.09 2.18 1.26 2.04 1.42 3.3l-4.21.77c-.14-1.02-.62-1.83-1.44-2.42-.81-.59-1.87-.91-3.17-.96-1.25-.05-2.26.15-3.03.62s-1.16 1.11-1.16 1.92c0 .47.15.87.44 1.2s.87.64 1.72.95c.85.3 2.11.66 3.78 1.08 1.79.46 3.2.97 4.25 1.53s1.8 1.22 2.25 1.99.68 1.7.68 2.79c0 2.1-.77 3.75-2.29 4.94s-3.64 1.79-6.33 1.79z"/><path d="m77.53 372.64h278.93" fill="none" stroke="url(#a)" stroke-linecap="round" stroke-miterlimit="10" stroke-width="10.37"/><circle cx="41.25" cy="372.12" fill="none" r="36.07" stroke="url(#b)" stroke-linecap="round" stroke-miterlimit="10" stroke-width="10.37"/><path d="m42.03 389.09c-1.49 0-2.9-.29-4.23-.87s-2.48-1.4-3.45-2.47-1.68-2.32-2.1-3.77l4.83-1.31c.34 1.19.98 2.1 1.9 2.75.92.64 1.93.96 3.04.94.98 0 1.86-.23 2.63-.68.77-.46 1.38-1.07 1.82-1.86.44-.78.66-1.65.66-2.62 0-1.48-.48-2.72-1.43-3.71-.95-1-2.18-1.49-3.69-1.49-.46 0-.9.06-1.34.19-.44.12-.85.3-1.25.52l-2.28-3.94 10.03-8.58.44 1.2h-14.2v-4.71h18.31v4.73l-8.06 7.75-.04-1.47c1.81.12 3.35.63 4.63 1.51s2.26 2.02 2.94 3.42 1.03 2.92 1.03 4.58c0 1.88-.46 3.57-1.38 5.06s-2.15 2.67-3.69 3.53-3.24 1.3-5.11 1.3z"/><path d="m77.53 206.69h278.93" fill="none" stroke="url(#c)" stroke-linecap="round" stroke-miterlimit="10" stroke-width="10.37"/><circle cx="41.25" cy="206.69" fill="none" r="36.07" stroke="url(#d)" stroke-linecap="round" stroke-miterlimit="10" stroke-width="10.37"/><path d="m30.99 220.32v-4.35l12.77-11.38c1-.88 1.69-1.72 2.07-2.51.39-.79.58-1.55.58-2.28 0-.99-.21-1.88-.64-2.66s-1.02-1.4-1.77-1.86-1.62-.68-2.6-.68c-1.04 0-1.95.24-2.75.71s-1.41 1.11-1.86 1.9-.65 1.64-.62 2.55h-5.14c0-1.99.45-3.72 1.34-5.2s2.12-2.63 3.69-3.44c1.57-.82 3.38-1.22 5.44-1.22 1.91 0 3.62.42 5.14 1.27s2.72 2.03 3.59 3.53 1.31 3.22 1.31 5.17c0 1.42-.19 2.62-.58 3.59s-.96 1.86-1.73 2.67c-.77.82-1.72 1.72-2.85 2.72l-9.06 8.02-.46-1.24h14.68v4.71h-20.54z"/><path d="m77.53 41.25h278.93" fill="none" stroke="url(#e)" stroke-linecap="round" stroke-miterlimit="10" stroke-width="10.37"/><circle cx="41.25" cy="41.25" fill="none" r="36.07" stroke="url(#f)" stroke-linecap="round" stroke-miterlimit="10" stroke-width="10.37"/><path d="m41.14 54.93v-24.4l-5.6 3.42v-5.51l5.6-3.36h5.1v29.85z"/></svg>