<svg enable-background="new 0 0 378.4 243" viewBox="0 0 378.4 243" xmlns="http://www.w3.org/2000/svg" xmlns:xlink="http://www.w3.org/1999/xlink"><clipPath id="a"><path d="m1.8 34.4h374.1v172.8h-374.1z"/></clipPath><g clip-path="url(#a)"><g fill="#80afb4"><path d="m137.2 63.2c7.8 0 14.1-6.4 14.1-14.4s-6.3-14.4-14.1-14.4-14.1 6.4-14.1 14.4 6.3 14.4 14.1 14.4"/><path d="m154.7 67.1h-34.9s-14.9 1.8-14.9 15.1v49.3c0 3.2 2.8 5.7 6.2 5.7s5.8-2.6 5.8-5.7v-42h2.2v109.8c0 4.3 3.8 7.8 8.5 7.8s7.9-3.4 8-7.6v-65.1h3.2v65c.2 4.2 3.5 7.6 8 7.6s8.5-3.5 8.5-7.8c0-.1 0-.3 0-.4v-109.2h2.2v41.9c0 3.2 2.4 5.7 5.8 5.7s6.2-2.6 6.2-5.7v-49.3c.1-13.3-14.8-15.1-14.8-15.1"/><path d="m34.1 63.2c7.8 0 14.1-6.4 14.1-14.4s-6.3-14.4-14.1-14.4-14.1 6.5-14.1 14.4 6.3 14.4 14.1 14.4"/><path d="m51.6 67.1h-34.9s-14.9 1.8-14.9 15.1v49.3c0 3.2 2.8 5.7 6.2 5.7s5.8-2.6 5.8-5.7v-42h2.2v109.8c0 4.3 3.8 7.8 8.5 7.8s7.9-3.4 8-7.6v-65.1h3.2v65c.2 4.2 3.5 7.6 8 7.6s8.5-3.5 8.5-7.8c0-.1 0-.3 0-.4v-109.2h2.2v41.9c0 3.2 2.4 5.7 5.8 5.7s6.2-2.6 6.2-5.7v-49.3c.1-13.3-14.8-15.1-14.8-15.1"/><path d="m240.4 63.2c7.8 0 14.1-6.4 14.1-14.4s-6.3-14.4-14.1-14.4-14.1 6.4-14.1 14.4 6.3 14.4 14.1 14.4"/><path d="m257.8 67.1h-34.8s-14.9 1.8-14.9 15.1v49.3c0 3.2 2.8 5.7 6.2 5.7s5.8-2.6 5.8-5.7v-42h2.2v109.8c0 4.3 3.8 7.8 8.5 7.8s7.9-3.4 8-7.6v-65.1h3.2v65c.2 4.2 3.5 7.6 8 7.6s8.5-3.5 8.5-7.8c0-.1 0-.3 0-.4v-109.2h2.2v41.9c0 3.2 2.4 5.7 5.8 5.7s6.2-2.6 6.2-5.7v-49.3c.1-13.3-14.8-15.1-14.9-15.1"/></g><path d="m343.5 63.2c7.8 0 14.1-6.4 14.1-14.4s-6.3-14.4-14.1-14.4-14.1 6.4-14.1 14.4 6.3 14.4 14.1 14.4" fill="#c4c4c4"/><path d="m361 67.1h-34.9s-14.9 1.8-14.9 15.1v49.3c0 3.2 2.8 5.7 6.2 5.7s5.8-2.6 5.8-5.7v-42h2.2v109.8c0 4.3 3.8 7.8 8.5 7.8s7.9-3.4 8-7.6v-65.1h3.2v65c.2 4.2 3.5 7.6 8 7.6s8.5-3.5 8.5-7.8c0-.1 0-.3 0-.4v-109.2h2.2v41.9c0 3.2 2.4 5.7 5.8 5.7s6.2-2.6 6.2-5.7v-49.3c.1-13.3-14.8-15.1-14.8-15.1" fill="#c4c4c4"/></g></svg>