<svg enable-background="new 0 0 677.9 324.7" viewBox="0 0 677.9 324.7" xmlns="http://www.w3.org/2000/svg" xmlns:xlink="http://www.w3.org/1999/xlink"><linearGradient id="a"><stop offset="0" stop-color="#5454a8"/><stop offset=".28" stop-color="#6661b3"/><stop offset=".73" stop-color="#7f71c2"/><stop offset="1" stop-color="#8878c8"/></linearGradient><linearGradient id="b" gradientTransform="matrix(.78 .00136136 .00106465 -1 -120.1602 328.5411)" gradientUnits="userSpaceOnUse" x1="245.3062" x2="635.0462" xlink:href="#a" y1="45.3257" y2="45.3257"/><linearGradient id="c"><stop offset="0" stop-color="#8878c8"/><stop offset=".27" stop-color="#7f71c2"/><stop offset=".72" stop-color="#6661b3"/><stop offset="1" stop-color="#5454a8"/></linearGradient><linearGradient id="d" gradientTransform="matrix(1 0 0 -1 0 327.7871)" gradientUnits="userSpaceOnUse" x1=".3675" x2="79.9175" xlink:href="#c" y1="44.4735" y2="44.4735"/><linearGradient id="e" gradientTransform="matrix(1 0 0 -1 0 327.7871)" gradientUnits="userSpaceOnUse" x1="70.1275" x2="374.9975" xlink:href="#a" y1="165.3935" y2="165.3935"/><linearGradient id="f" gradientTransform="matrix(1 0 0 -1 0 327.7871)" gradientUnits="userSpaceOnUse" x1=".3675" x2="79.9175" xlink:href="#c" y1="165.3935" y2="165.3935"/><linearGradient id="g" gradientTransform="matrix(1 0 0 -1 0 327.7871)" gradientUnits="userSpaceOnUse" x1="70.1275" x2="374.9975" xlink:href="#a" y1="286.3135" y2="286.3135"/><linearGradient id="h" gradientTransform="matrix(1 0 0 -1 0 327.7871)" gradientUnits="userSpaceOnUse" x1=".3675" x2="79.9175" xlink:href="#c" y1="286.3135" y2="286.3135"/><path d="m436.8 298.7c-2.3 0-4.3-.4-6.1-1.2s-3.3-1.9-4.5-3.4-2-3.2-2.3-5.2l4.8-.7c.5 1.9 1.5 3.4 3 4.5s3.3 1.6 5.4 1.6c1.3 0 2.5-.2 3.5-.6 1.1-.4 1.9-1 2.6-1.7.6-.8 1-1.7 1-2.7 0-.6-.1-1.1-.3-1.5s-.5-.8-.8-1.1-.8-.6-1.2-.9-1-.5-1.6-.6l-8.1-2.4c-.8-.2-1.6-.5-2.4-.9s-1.6-.9-2.2-1.5c-.7-.6-1.2-1.4-1.7-2.3-.4-.9-.6-2-.6-3.3 0-2 .5-3.6 1.5-5s2.4-2.4 4.1-3.1 3.6-1 5.8-1c2.1 0 4.1.4 5.8 1.1s3.1 1.8 4.2 3.2 1.9 3 2.3 5l-4.9.8c-.2-1.2-.7-2.2-1.4-3.1s-1.6-1.5-2.6-2-2.2-.7-3.4-.7-2.2.1-3.2.5-1.8.9-2.3 1.6c-.6.7-.9 1.5-.9 2.4s.3 1.6.8 2.1 1.1 1 1.9 1.3 1.5.6 2.2.8l5.9 1.6c.7.2 1.6.5 2.5.8s1.8.8 2.7 1.4 1.6 1.4 2.2 2.5c.6 1 .9 2.3.9 3.8s-.3 3-1 4.2-1.5 2.2-2.6 3-2.4 1.4-3.9 1.8c-1.9.7-3.5.9-5.1.9z"/><path d="m464.7 298.7c-2.4 0-4.4-.5-6.2-1.5s-3.2-2.5-4.2-4.3c-1-1.9-1.5-4-1.5-6.5 0-2.6.5-4.8 1.5-6.8s2.3-3.4 4.1-4.4c1.7-1 3.8-1.6 6.1-1.6s4.5.6 6.2 1.7 3 2.7 3.8 4.8 1.2 4.5 1 7.4h-4.6v-1.7c0-2.8-.5-4.8-1.6-6.1-1-1.3-2.6-2-4.6-2-2.3 0-4 .7-5.2 2.2s-1.7 3.5-1.7 6.3.6 4.6 1.7 6.1 2.8 2.1 5 2.1c1.4 0 2.7-.3 3.7-1s1.9-1.6 2.5-2.8l4.5 1.4c-.9 2.1-2.3 3.8-4.2 4.9s-4 1.8-6.3 1.8zm-8.5-11.3v-3.6h17v3.6z"/><path d="m491.2 298.7c-2.4 0-4.5-.5-6.2-1.6s-3-2.6-3.9-4.5-1.4-4-1.4-6.4c0-2.5.5-4.6 1.4-6.5s2.2-3.4 4-4.4 3.8-1.6 6.2-1.6c2.6 0 4.8.6 6.6 1.9s3 3 3.6 5.3l-4.6 1.3c-.5-1.3-1.2-2.4-2.2-3.1s-2.2-1.1-3.5-1.1c-1.5 0-2.8.4-3.7 1.1-1 .7-1.7 1.7-2.1 2.9-.5 1.2-.7 2.6-.7 4.2 0 2.5.6 4.4 1.7 5.9s2.7 2.3 4.9 2.3c1.5 0 2.7-.3 3.6-1s1.6-1.7 2.1-2.9l4.7 1.1c-.8 2.3-2.1 4.1-3.9 5.3s-4.1 1.8-6.6 1.8z"/><path d="m515.4 298.6c-1.6 0-3-.3-4.1-.8s-2-1.2-2.7-2.1-1.2-1.8-1.6-2.8-.6-2-.8-3-.2-1.8-.2-2.5v-13.2h4.7v11.7c0 .9.1 1.9.2 2.9s.5 1.9.9 2.7 1 1.5 1.8 2 1.8.8 3.1.8c.8 0 1.6-.1 2.3-.4s1.4-.7 1.9-1.3 1-1.4 1.3-2.4.5-2.2.5-3.6l2.9 1.1c0 2.1-.4 4.1-1.2 5.7s-2 2.9-3.5 3.9-3.3 1.3-5.5 1.3zm7.9-.6v-6.9h-.5v-16.9h4.6v23.8z"/><path d="m534 298v-23.7h4.1v5.8l-.6-.8c.3-.8.7-1.5 1.1-2.1.5-.6 1-1.2 1.6-1.6s1.3-.8 2-1 1.5-.4 2.3-.4 1.5 0 2.2.1v4.3c-.8-.2-1.6-.3-2.6-.2s-1.8.4-2.6.9-1.3 1.1-1.8 1.8-.7 1.5-.9 2.3-.3 1.7-.3 2.7v12z"/><path d="m551.6 270.4v-4.5h4.6v4.5zm0 27.6v-23.7h4.6v23.7z"/><path d="m560.5 277.9v-3.7h16.2v3.7zm16.3 20.1c-1.5.3-3 .4-4.4.4s-2.7-.3-3.8-.8-2-1.3-2.5-2.4c-.5-1-.8-2-.8-3s-.1-2.2-.1-3.5v-21h4.6v20.8 2.5s.2 1.3.5 1.8c.5.9 1.4 1.4 2.5 1.5s2.5.1 4.1-.1z"/><path d="m586.2 308.5 4.6-12.5.1 3.7-10.3-25.5h4.8l7.7 19.7h-1.4l7.4-19.7h4.7l-13.1 34.3z"/><path d="m425.3 177.5v-31.7h18.8v4.6h-14.2v8.9h11.5v4.6h-11.5v13.5z"/><path d="m448.5 149.8v-4.5h4.6v4.5zm0 27.7v-23.7h4.6v23.7z"/><path d="m459.9 177.5v-23.7h4.1v6.9h.5v16.9h-4.6zm16.7 0v-11.7c0-.9-.1-1.9-.2-2.9s-.5-1.9-.9-2.7-1-1.5-1.8-2-1.8-.8-3.1-.8c-.8 0-1.6.1-2.3.4s-1.4.7-1.9 1.3-1 1.4-1.3 2.4-.5 2.2-.5 3.6l-2.9-1.1c0-2.1.4-4.1 1.2-5.7s2-2.9 3.5-3.9c1.5-.9 3.3-1.4 5.5-1.4 1.6 0 3 .3 4.1.8s2 1.2 2.7 2.1 1.2 1.8 1.6 2.8.6 2 .8 3 .2 1.8.2 2.6v13.2z"/><path d="m494.3 178.1c-1.8 0-3.2-.3-4.4-1s-2.1-1.5-2.7-2.6-.9-2.3-.9-3.6c0-1.2.2-2.3.6-3.2s1.1-1.7 1.9-2.3 1.9-1.1 3.1-1.6c1-.3 2.2-.6 3.6-.8s2.7-.4 4.2-.7 2.9-.4 4.4-.6l-1.7.9c0-1.9-.4-3.2-1.2-4.1s-2.2-1.4-4.2-1.4c-1.2 0-2.4.3-3.4.9s-1.8 1.5-2.2 2.9l-4.3-1.3c.6-2 1.7-3.7 3.4-4.9s3.8-1.8 6.6-1.8c2.1 0 4 .4 5.5 1.1 1.6.7 2.7 1.9 3.5 3.4.4.8.6 1.6.7 2.5s.1 1.8.1 2.8v14.6h-4.1v-5.4l.8.7c-1 1.8-2.2 3.2-3.8 4.1s-3.3 1.4-5.5 1.4zm.8-3.7c1.3 0 2.4-.2 3.4-.7.9-.5 1.7-1.1 2.3-1.8s1-1.5 1.1-2.2c.2-.7.4-1.5.4-2.4s0-1.6 0-2.1l1.5.6c-1.5.2-2.8.4-4 .6s-2.3.4-3.2.5-1.8.4-2.6.6c-.6.2-1.2.5-1.7.8s-.9.7-1.2 1.1-.4 1-.4 1.6.1 1.2.5 1.7c.3.5.8.9 1.4 1.2.7.3 1.5.5 2.5.5z"/><path d="m513.3 177.5v-23.7h4.1v6.9h.5v16.9h-4.6zm16.7 0v-11.7c0-.9-.1-1.9-.2-2.9-.2-1-.5-1.9-.9-2.7s-1-1.5-1.8-2-1.8-.8-3.1-.8c-.8 0-1.6.1-2.3.4s-1.4.7-1.9 1.3-1 1.4-1.3 2.4-.5 2.2-.5 3.6l-2.9-1.1c0-2.1.4-4.1 1.2-5.7s2-2.9 3.5-3.9c1.5-.9 3.3-1.4 5.5-1.4 1.6 0 3 .3 4.1.8s2 1.2 2.7 2.1 1.2 1.8 1.6 2.8.6 2 .8 3 .2 1.8.2 2.6v13.2z"/><path d="m551.2 178.1c-2.4 0-4.5-.5-6.2-1.6s-3-2.6-3.9-4.5-1.4-4-1.4-6.4.5-4.6 1.4-6.5 2.2-3.4 4-4.4c1.7-1.1 3.8-1.6 6.2-1.6 2.6 0 4.8.6 6.7 1.9 1.8 1.3 3 3.1 3.6 5.3l-4.6 1.3c-.5-1.3-1.2-2.4-2.2-3.1s-2.2-1.1-3.5-1.1c-1.5 0-2.8.4-3.7 1.1s-1.7 1.7-2.2 2.9-.7 2.6-.7 4.2c0 2.4.6 4.4 1.7 5.9s2.7 2.3 4.9 2.3c1.5 0 2.7-.3 3.6-1s1.6-1.7 2.1-2.9l4.7 1.1c-.8 2.3-2.1 4.1-3.8 5.3s-4.2 1.8-6.7 1.8z"/><path d="m577.1 178.1c-2.4 0-4.4-.5-6.2-1.6s-3.2-2.5-4.2-4.3-1.5-4-1.5-6.4c0-2.6.5-4.8 1.5-6.8 1-1.9 2.3-3.4 4.1-4.4s3.8-1.6 6.1-1.6 4.5.6 6.2 1.7 3 2.7 3.8 4.8 1.2 4.5 1 7.4h-4.6v-1.7c0-2.8-.5-4.8-1.6-6.1s-2.6-2-4.7-2c-2.3 0-4 .7-5.2 2.2s-1.7 3.6-1.7 6.3.6 4.6 1.7 6.1 2.8 2.1 5 2.1c1.4 0 2.7-.3 3.7-1s1.9-1.6 2.5-2.8l4.5 1.4c-.9 2.1-2.3 3.8-4.2 4.9s-3.9 1.9-6.2 1.8zm-8.5-11.2v-3.6h17v3.6z"/><path d="m425.8 59v-31.7h4.6v31.7z"/><path d="m444.9 59v-27.4h-10.5v-4.3h25.6v4.3h-10.5v27.4z"/><path d="m75.1 283.8h294.9" fill="none" stroke="url(#b)" stroke-linecap="round" stroke-miterlimit="10" stroke-width="9.99"/><circle cx="40.1" cy="283.3" fill="none" r="34.8" stroke="url(#d)" stroke-linecap="round" stroke-miterlimit="10" stroke-width="9.99"/><path d="m40.9 299.7c-1.4 0-2.8-.3-4.1-.8s-2.4-1.4-3.3-2.4-1.6-2.2-2-3.6l4.7-1.3c.3 1.1.9 2 1.8 2.6s1.9.9 2.9.9 1.8-.2 2.5-.7 1.3-1 1.8-1.8c.4-.8.6-1.6.6-2.5 0-1.4-.5-2.6-1.4-3.6s-2.1-1.4-3.6-1.4c-.4 0-.9.1-1.3.2s-.8.3-1.2.5l-2.2-3.8 9.7-8.3.4 1.2h-13.6v-4.5h17.6v4.6l-7.8 7.5v-1.4c1.8.1 3.2.6 4.5 1.5 1.2.9 2.2 2 2.8 3.3s1 2.8 1 4.4c0 1.8-.4 3.4-1.3 4.9-.9 1.4-2.1 2.6-3.6 3.4s-3.1 1.1-4.9 1.1z"/><path d="m75.1 162.4h294.9" fill="none" stroke="url(#e)" stroke-linecap="round" stroke-miterlimit="10" stroke-width="9.99"/><circle cx="40.1" cy="162.4" fill="none" r="34.8" stroke="url(#f)" stroke-linecap="round" stroke-miterlimit="10" stroke-width="9.99"/><path d="m30.2 175.5v-4.2l12.3-11c1-.9 1.6-1.7 2-2.4s.6-1.5.6-2.2c0-1-.2-1.8-.6-2.6s-1-1.4-1.7-1.8-1.6-.7-2.5-.7c-1 0-1.9.2-2.7.7s-1.4 1.1-1.8 1.8-.6 1.6-.6 2.5h-5c0-1.9.4-3.6 1.3-5s2-2.5 3.6-3.3c1.5-.8 3.3-1.2 5.2-1.2 1.8 0 3.5.4 5 1.2s2.6 1.9 3.5 3.4 1.3 3.1 1.3 5c0 1.4-.2 2.5-.6 3.5-.4.9-.9 1.8-1.7 2.6-.7.8-1.7 1.7-2.8 2.6l-8.7 7.7-.4-1.2h14.2v4.5c0 .1-19.9.1-19.9.1z"/><path d="m75.1 41.5h294.9" fill="none" stroke="url(#g)" stroke-linecap="round" stroke-miterlimit="10" stroke-width="9.99"/><circle cx="40.1" cy="41.5" fill="none" r="34.8" stroke="url(#h)" stroke-linecap="round" stroke-miterlimit="10" stroke-width="9.99"/><path d="m40 54.7v-23.6l-5.4 3.3v-5.3l5.4-3.2h5v28.8z"/></svg>