<?xml version="1.0" encoding="utf-8"?>
<!-- Generator: Adobe Illustrator 27.7.0, SVG Export Plug-In . SVG Version: 6.00 Build 0)  -->
<svg version="1.1" id="Layer_2" xmlns="http://www.w3.org/2000/svg" xmlns:xlink="http://www.w3.org/1999/xlink" x="0px" y="0px"
	 viewBox="0 0 576.9 390.2" style="enable-background:new 0 0 576.9 390.2;" xml:space="preserve">
<style type="text/css">
	.st0{fill:#397B7E;}
	.st1{fill:#1B464F;}
	.st2{fill:#8B7FD3;}
	.st3{fill:#C2B8ED;}
	.st4{fill:#1A1A1A;}
	.st5{fill:none;stroke:#494949;stroke-width:0.87;stroke-miterlimit:10;}
	.st6{fill:none;stroke:#1A1A1A;stroke-width:0.88;stroke-miterlimit:10;}
	.st7{fill:none;stroke:#C2B8ED;stroke-width:34.14;stroke-miterlimit:10;}
	.st8{fill:none;stroke:#8B7FD3;stroke-width:34.14;stroke-miterlimit:10;}
	.st9{fill:none;stroke:#1B464F;stroke-width:34.14;stroke-miterlimit:10;}
	.st10{fill:none;stroke:#397B7E;stroke-width:34.14;stroke-miterlimit:10;}
</style>
<path class="st0" d="M0,342L0,342c0-6.2,5-11.2,11.2-11.2h0c6.2,0,11.2,5,11.2,11.2l0,0c0,6.2-5,11.2-11.2,11.2h0
	C5,353.1,0,348.1,0,342z"/>
<path class="st1" d="M325.2,376.5L325.2,376.5c0-6.2,5-11.2,11.2-11.2h0c6.2,0,11.2,5,11.2,11.2v0c0,6.2-5,11.2-11.2,11.2h0
	C330.3,387.6,325.2,382.6,325.2,376.5z"/>
<path class="st2" d="M325.2,341.4L325.2,341.4c0-6.2,5-11.2,11.2-11.2h0c6.2,0,11.2,5,11.2,11.2v0c0,6.2-5,11.2-11.2,11.2h0
	C330.2,352.6,325.2,347.6,325.2,341.4z"/>
<path class="st3" d="M0,377L0,377c0-6.2,5-11.2,11.2-11.2h0c6.2,0,11.2,5,11.2,11.2l0,0c0,6.2-5,11.2-11.2,11.2h0
	C5,388.2,0,383.2,0,377z"/>
<g>
	<g>
		<path class="st4" d="M293.1,21.3c-1,0-1.9-0.2-2.8-0.6s-1.6-0.9-2.3-1.6s-1.1-1.5-1.4-2.5l3.2-0.9c0.2,0.8,0.6,1.4,1.3,1.8
			s1.3,0.6,2,0.6c0.6,0,1.2-0.1,1.8-0.5c0.5-0.3,0.9-0.7,1.2-1.2c0.3-0.5,0.4-1.1,0.4-1.8c0-1-0.3-1.8-1-2.5c-0.6-0.7-1.5-1-2.5-1
			c-0.3,0-0.6,0-0.9,0.1s-0.6,0.2-0.8,0.3l-1.5-2.6l6.7-5.7l0.3,0.8h-9.5V1h12.2v3.1l-5.4,5.2l0-1c1.2,0.1,2.2,0.4,3.1,1
			c0.9,0.6,1.5,1.4,2,2.3c0.5,0.9,0.7,1.9,0.7,3.1c0,1.2-0.3,2.4-0.9,3.4s-1.4,1.8-2.5,2.4S294.3,21.3,293.1,21.3L293.1,21.3z"/>
		<path class="st4" d="M304.7,5.8c-0.5,0-1-0.1-1.5-0.4c-0.4-0.3-0.8-0.6-1-1.1c-0.3-0.4-0.4-0.9-0.4-1.5s0.1-1,0.4-1.5
			c0.3-0.4,0.6-0.8,1.1-1.1c0.4-0.3,0.9-0.4,1.4-0.4s1,0.1,1.5,0.4s0.8,0.6,1.1,1c0.3,0.4,0.4,0.9,0.4,1.5s-0.1,1-0.4,1.5
			c-0.3,0.4-0.6,0.8-1.1,1.1S305.2,5.8,304.7,5.8L304.7,5.8z M303.5,11.9l-1.3-1.3l10.4-10.4l1.3,1.3L303.5,11.9L303.5,11.9z
			 M304.7,4.2c0.2,0,0.4-0.1,0.6-0.2s0.3-0.3,0.5-0.5c0.1-0.2,0.2-0.4,0.2-0.6s-0.1-0.4-0.2-0.6c-0.1-0.2-0.3-0.3-0.5-0.5
			s-0.4-0.2-0.6-0.2s-0.4,0.1-0.6,0.2s-0.3,0.3-0.5,0.5c-0.1,0.2-0.2,0.4-0.2,0.6s0.1,0.4,0.2,0.6c0.1,0.2,0.3,0.3,0.5,0.5
			C304.2,4.1,304.5,4.2,304.7,4.2z M311.5,12.1c-0.5,0-1-0.1-1.5-0.4s-0.8-0.6-1.1-1.1c-0.3-0.4-0.4-0.9-0.4-1.5s0.1-1,0.4-1.5
			c0.3-0.4,0.6-0.8,1.1-1.1c0.4-0.3,0.9-0.4,1.4-0.4s1,0.1,1.5,0.4s0.8,0.6,1,1c0.3,0.4,0.4,0.9,0.4,1.5s-0.1,1-0.4,1.5
			c-0.3,0.4-0.6,0.8-1,1.1S312,12.1,311.5,12.1L311.5,12.1z M311.5,10.5c0.2,0,0.4-0.1,0.6-0.2s0.3-0.3,0.5-0.4
			c0.1-0.2,0.2-0.4,0.2-0.6s-0.1-0.4-0.2-0.6c-0.1-0.2-0.3-0.3-0.5-0.4S311.7,8,311.5,8S311,8,310.9,8.2s-0.3,0.3-0.5,0.4
			s-0.2,0.4-0.2,0.6s0.1,0.4,0.2,0.6c0.1,0.2,0.3,0.3,0.5,0.4S311.2,10.5,311.5,10.5z"/>
	</g>
	<g>
		<path class="st4" d="M246.5,32.8c-1.3,0-2.5-0.3-3.5-0.8c-1-0.5-1.8-1.3-2.4-2.2c-0.6-1-0.9-2-0.9-3.3c0-1.1,0.2-2.1,0.8-3
			c0.5-0.9,1.2-1.7,2.2-2.2l-0.1,1.1c-0.8-0.6-1.4-1.2-1.8-2s-0.6-1.6-0.6-2.6c0-1.1,0.3-2.1,0.8-3s1.3-1.5,2.2-1.9
			c0.9-0.5,2-0.7,3.2-0.7s2.3,0.2,3.2,0.7s1.7,1.1,2.2,1.9s0.8,1.8,0.8,3c0,1-0.2,1.8-0.6,2.5s-1,1.4-1.8,2v-1.1
			c0.9,0.5,1.7,1.3,2.2,2.2c0.5,0.9,0.8,2,0.8,3c0,1.2-0.3,2.3-0.9,3.3c-0.6,1-1.4,1.7-2.4,2.2C249,32.5,247.8,32.8,246.5,32.8
			L246.5,32.8z M246.5,29.7c1,0,1.8-0.3,2.4-0.8s0.9-1.3,0.9-2.4s-0.3-1.8-0.9-2.4s-1.4-0.8-2.4-0.8s-1.8,0.3-2.4,0.8
			c-0.6,0.5-0.9,1.3-0.9,2.4s0.3,1.8,0.9,2.4C244.7,29.4,245.5,29.7,246.5,29.7z M246.5,20.2c0.8,0,1.5-0.2,2-0.6
			c0.5-0.4,0.8-1,0.8-1.9s-0.3-1.5-0.8-1.9c-0.5-0.4-1.2-0.6-2-0.6s-1.5,0.2-2,0.6c-0.5,0.4-0.8,1-0.8,1.9s0.2,1.5,0.8,1.9
			S245.7,20.2,246.5,20.2z"/>
		<path class="st4" d="M258.2,17.3c-0.5,0-1-0.1-1.5-0.4s-0.8-0.6-1.1-1.1c-0.3-0.4-0.4-0.9-0.4-1.5s0.1-1,0.4-1.5
			c0.3-0.4,0.6-0.8,1.1-1.1c0.4-0.3,0.9-0.4,1.4-0.4s1,0.1,1.5,0.4s0.8,0.6,1.1,1.1c0.3,0.4,0.4,0.9,0.4,1.5s-0.1,1-0.4,1.5
			c-0.3,0.4-0.6,0.8-1.1,1.1C259.2,17.2,258.7,17.3,258.2,17.3L258.2,17.3z M257,23.4l-1.3-1.3l10.4-10.4l1.3,1.3L257,23.4L257,23.4
			z M258.2,15.7c0.2,0,0.4-0.1,0.6-0.2s0.3-0.3,0.5-0.4c0.1-0.2,0.2-0.4,0.2-0.6s-0.1-0.4-0.2-0.6c-0.1-0.2-0.3-0.3-0.5-0.4
			s-0.4-0.2-0.6-0.2s-0.4,0.1-0.6,0.2s-0.3,0.3-0.5,0.4c-0.1,0.2-0.2,0.4-0.2,0.6s0.1,0.4,0.2,0.6c0.1,0.2,0.3,0.3,0.5,0.4
			S258,15.7,258.2,15.7z M265,23.6c-0.5,0-1-0.1-1.5-0.4s-0.8-0.6-1.1-1c-0.3-0.4-0.4-0.9-0.4-1.5s0.1-1,0.4-1.5
			c0.3-0.4,0.6-0.8,1.1-1.1c0.4-0.3,0.9-0.4,1.4-0.4s1,0.1,1.5,0.4s0.8,0.6,1,1c0.3,0.4,0.4,0.9,0.4,1.5s-0.1,1-0.4,1.5
			c-0.3,0.4-0.6,0.8-1,1C266,23.5,265.5,23.6,265,23.6L265,23.6z M265,22c0.2,0,0.4-0.1,0.6-0.2s0.3-0.3,0.5-0.5
			c0.1-0.2,0.2-0.4,0.2-0.6s-0.1-0.4-0.2-0.6c-0.1-0.2-0.3-0.3-0.5-0.5s-0.4-0.2-0.6-0.2s-0.4,0.1-0.6,0.2s-0.3,0.3-0.5,0.5
			s-0.2,0.4-0.2,0.6s0.1,0.4,0.2,0.6c0.1,0.2,0.3,0.3,0.5,0.5S264.8,22,265,22z"/>
	</g>
	<g>
		<g>
			<path class="st4" d="M425.7,59.3V56h-8.8v-3.1l6.4-13.5h3.8l-6.4,13.5h5v-5.2h3.4v5.2h1.9V56h-1.9v3.3L425.7,59.3L425.7,59.3z"/>
			<path class="st4" d="M440.1,59.7c-1,0-2-0.2-2.8-0.6c-0.9-0.4-1.6-1-2.2-1.7c-0.6-0.7-1.1-1.6-1.4-2.6l3.2-0.9
				c0.1,0.5,0.4,1,0.7,1.4s0.8,0.7,1.2,0.9c0.5,0.2,0.9,0.3,1.4,0.3c0.6,0,1.2-0.2,1.8-0.5s1-0.7,1.3-1.3s0.5-1.1,0.5-1.8
				s-0.2-1.2-0.5-1.8s-0.7-1-1.3-1.3s-1.1-0.5-1.8-0.5c-0.8,0-1.4,0.1-1.9,0.4c-0.5,0.3-0.9,0.6-1.1,0.9l-2.8-0.9l0.6-10.5h10.8v3.1
				h-9l1.2-1.2l-0.4,7.3l-0.6-0.7c0.5-0.5,1.1-0.8,1.8-1s1.3-0.3,2-0.3c1.2,0,2.3,0.3,3.3,0.8s1.7,1.3,2.3,2.3
				c0.5,1,0.8,2.1,0.8,3.3s-0.3,2.4-1,3.4s-1.5,1.8-2.5,2.4C442.5,59.4,441.4,59.7,440.1,59.7L440.1,59.7z"/>
		</g>
		<path class="st4" d="M451.7,44.2c-0.5,0-1-0.1-1.5-0.4s-0.8-0.6-1-1c-0.3-0.4-0.4-0.9-0.4-1.5s0.1-1,0.4-1.5
			c0.3-0.4,0.6-0.8,1.1-1.1c0.4-0.3,0.9-0.4,1.4-0.4s1,0.1,1.5,0.4s0.8,0.6,1.1,1c0.3,0.4,0.4,0.9,0.4,1.5s-0.1,1-0.4,1.5
			c-0.3,0.4-0.6,0.8-1.1,1S452.2,44.2,451.7,44.2L451.7,44.2z M450.6,50.3l-1.3-1.3l10.4-10.4l1.3,1.3
			C460.9,40,450.6,50.3,450.6,50.3z M451.7,42.6c0.2,0,0.4-0.1,0.6-0.2s0.3-0.3,0.5-0.5c0.1-0.2,0.2-0.4,0.2-0.6s-0.1-0.4-0.2-0.6
			c-0.1-0.2-0.3-0.3-0.5-0.5s-0.4-0.2-0.6-0.2s-0.4,0.1-0.6,0.2c-0.2,0.1-0.3,0.3-0.5,0.5c-0.1,0.2-0.2,0.4-0.2,0.6s0.1,0.4,0.2,0.6
			c0.1,0.2,0.3,0.3,0.5,0.5S451.5,42.6,451.7,42.6z M458.5,50.6c-0.5,0-1-0.1-1.5-0.4s-0.8-0.6-1.1-1c-0.3-0.4-0.4-0.9-0.4-1.5
			s0.1-1,0.4-1.5c0.3-0.4,0.6-0.8,1.1-1.1c0.4-0.3,0.9-0.4,1.4-0.4s1,0.1,1.5,0.4s0.8,0.6,1,1c0.3,0.4,0.4,0.9,0.4,1.5
			s-0.1,1-0.4,1.5c-0.3,0.4-0.6,0.8-1,1S459,50.5,458.5,50.6L458.5,50.6z M458.5,48.9c0.2,0,0.4-0.1,0.6-0.2s0.3-0.3,0.5-0.5
			c0.1-0.2,0.2-0.4,0.2-0.6s-0.1-0.4-0.2-0.6c-0.1-0.2-0.3-0.3-0.5-0.5s-0.4-0.2-0.6-0.2s-0.4,0.1-0.6,0.2s-0.3,0.3-0.5,0.5
			c-0.1,0.2-0.2,0.4-0.2,0.6s0.1,0.4,0.2,0.6c0.1,0.2,0.3,0.3,0.5,0.5S458.3,48.9,458.5,48.9z"/>
	</g>
	<line class="st5" x1="407" y1="60.7" x2="388.8" y2="68.5"/>
	<line class="st5" x1="170.9" y1="100.1" x2="189" y2="107.9"/>
	<g>
		<g>
			<path class="st4" d="M135.1,98.8v-3.3h-8.8v-3.1l6.4-13.5h3.8l-6.4,13.5h5v-5.2h3.4v5.2h1.9v3.1h-1.9v3.3H135.1L135.1,98.8z"/>
			<path class="st4" d="M151.6,98.8v-3.3h-8.8v-3.1l6.4-13.5h3.8l-6.4,13.5h5v-5.2h3.4v5.2h1.9v3.1h-1.9v3.3H151.6L151.6,98.8z"/>
		</g>
		<path class="st4" d="M161.1,83.7c-0.5,0-1-0.1-1.5-0.4s-0.8-0.6-1.1-1.1c-0.3-0.4-0.4-0.9-0.4-1.5s0.1-1,0.4-1.5
			c0.3-0.4,0.6-0.8,1.1-1.1c0.4-0.3,0.9-0.4,1.4-0.4s1,0.1,1.5,0.4s0.8,0.6,1.1,1.1c0.3,0.4,0.4,0.9,0.4,1.5s-0.1,1-0.4,1.5
			c-0.3,0.4-0.6,0.8-1.1,1.1S161.7,83.7,161.1,83.7L161.1,83.7z M160,89.8l-1.3-1.3l10.4-10.3l1.3,1.3C170.3,79.4,160,89.8,160,89.8
			z M161.1,82c0.2,0,0.4-0.1,0.6-0.2s0.3-0.3,0.4-0.4c0.1-0.2,0.2-0.4,0.2-0.6s-0.1-0.4-0.2-0.6s-0.3-0.3-0.4-0.4s-0.4-0.2-0.6-0.2
			s-0.4,0.1-0.6,0.2s-0.3,0.3-0.4,0.4c-0.1,0.2-0.2,0.4-0.2,0.6s0.1,0.4,0.2,0.6s0.3,0.3,0.4,0.4S160.9,82,161.1,82z M167.9,90
			c-0.5,0-1-0.1-1.5-0.4s-0.8-0.6-1.1-1.1c-0.3-0.4-0.4-0.9-0.4-1.5s0.1-1,0.4-1.5s0.6-0.8,1.1-1.1c0.4-0.3,0.9-0.4,1.4-0.4
			s1,0.1,1.5,0.4s0.8,0.6,1.1,1.1c0.3,0.4,0.4,0.9,0.4,1.5s-0.1,1-0.4,1.5s-0.6,0.8-1.1,1.1S168.4,90,167.9,90L167.9,90z
			 M167.9,88.3c0.2,0,0.4-0.1,0.6-0.2s0.3-0.3,0.5-0.4c0.1-0.2,0.2-0.4,0.2-0.6s-0.1-0.4-0.2-0.6s-0.3-0.3-0.5-0.4s-0.4-0.2-0.6-0.2
			s-0.4,0.1-0.6,0.2s-0.3,0.3-0.5,0.4c-0.1,0.2-0.2,0.4-0.2,0.6s0.1,0.4,0.2,0.6c0.1,0.2,0.3,0.3,0.5,0.4S167.7,88.3,167.9,88.3z"/>
	</g>
	<g>
		<path class="st6" d="M285.9,40.2c-18.7,3.4-35.9,11-50.5,21.9"/>
		<rect x="285.5" y="37.4" transform="matrix(0.9792 -0.203 0.203 0.9792 -2.2233 58.8699)" class="st4" width="0.9" height="5.7"/>
		<rect x="235" y="59.3" transform="matrix(0.817 -0.5766 0.5766 0.817 7.252 147.1239)" class="st4" width="0.9" height="5.7"/>
	</g>
	<g>
		<path class="st6" d="M305.4,38.3c-5.3,0.1-10.5,0.5-15.6,1.3"/>
		
			<rect x="305" y="35.5" transform="matrix(0.9989 -4.745513e-02 4.745513e-02 0.9989 -1.4767 14.5358)" class="st4" width="0.9" height="5.7"/>
		
			<rect x="289.4" y="36.8" transform="matrix(0.9934 -0.1151 0.1151 0.9934 -2.6332 33.624)" class="st4" width="0.9" height="5.7"/>
	</g>
	<g>
		<path class="st7" d="M247.4,88.1c-22.6,17.8-37,45.3-37,76.3c0,53.6,43.5,97.1,97.1,97.1c11.3,0,22.2-1.9,32.3-5.5"/>
		<path class="st8" d="M290.8,68.7c-16.2,2.8-31,9.6-43.4,19.4"/>
		<path class="st9" d="M307.5,67.3c-5.7,0-11.3,0.5-16.7,1.4"/>
		<path class="st10" d="M339.8,256c37.8-13.3,64.8-49.3,64.8-91.6c0-53.6-43.5-97.1-97.1-97.1"/>
	</g>
</g>
<g>
	<path d="M39.2,350l4.5-13.7h2.9L51,350h-2.1l-4.1-12.5h0.5L41.3,350H39.2z M41.5,346.9V345h7.2v1.9H41.5z"/>
	<path d="M52.8,350v-10.3h1.8v3h0.2v7.3H52.8z M59,350l0-6.4c0-0.7-0.2-1.3-0.6-1.8c-0.4-0.4-0.9-0.6-1.5-0.6
		c-0.6,0-1.1,0.2-1.5,0.6c-0.4,0.4-0.6,1-0.6,1.7l-1-0.6c0-0.7,0.2-1.3,0.5-1.8s0.8-0.9,1.3-1.2s1.2-0.5,1.9-0.5
		c0.7,0,1.4,0.2,1.9,0.5s0.9,0.7,1.2,1.3c0.3,0.6,0.4,1.2,0.4,1.9l0,6.9H59z M65.2,350l0-6.4c0-0.7-0.2-1.3-0.6-1.7
		c-0.4-0.4-0.9-0.6-1.5-0.6c-0.4,0-0.7,0.1-1,0.3c-0.3,0.2-0.6,0.4-0.8,0.8c-0.2,0.3-0.3,0.8-0.3,1.3l-1-0.5c0-0.7,0.1-1.4,0.5-1.9
		c0.3-0.5,0.8-1,1.3-1.3c0.6-0.3,1.2-0.5,1.9-0.5c1.1,0,2,0.3,2.6,1c0.6,0.7,0.9,1.6,0.9,2.7l0,6.9H65.2z"/>
	<path d="M70,354.5v-14.9h1.8v7.4H72v7.5H70z M74.8,350.2c-1,0-1.8-0.2-2.5-0.7c-0.7-0.5-1.2-1.1-1.5-1.9s-0.5-1.7-0.5-2.8
		c0-1,0.2-2,0.5-2.8c0.3-0.8,0.8-1.5,1.5-1.9c0.7-0.5,1.5-0.7,2.5-0.7c1,0,1.8,0.2,2.5,0.7c0.7,0.5,1.2,1.1,1.6,1.9
		c0.4,0.8,0.6,1.7,0.6,2.8c0,1-0.2,2-0.6,2.8c-0.4,0.8-0.9,1.5-1.6,1.9C76.6,350,75.8,350.2,74.8,350.2z M74.6,348.5
		c0.6,0,1.2-0.2,1.6-0.5c0.4-0.3,0.7-0.8,0.9-1.3c0.2-0.5,0.3-1.2,0.3-1.8c0-0.7-0.1-1.3-0.3-1.8c-0.2-0.5-0.5-1-0.9-1.3
		c-0.4-0.3-1-0.5-1.6-0.5c-0.6,0-1.1,0.2-1.5,0.5c-0.4,0.3-0.7,0.7-0.9,1.3c-0.2,0.5-0.3,1.2-0.3,1.9c0,0.7,0.1,1.3,0.3,1.9
		c0.2,0.5,0.5,1,0.9,1.3C73.4,348.3,73.9,348.5,74.6,348.5z"/>
	<path d="M82,350v-14h2v14H82z"/>
	<path d="M87.1,338v-1.9h2v1.9H87.1z M87.1,350v-10.3h2V350H87.1z"/>
	<path d="M95.1,350.2c-0.8,0-1.4-0.1-1.9-0.4s-0.9-0.7-1.2-1.1c-0.3-0.5-0.4-1-0.4-1.5c0-0.5,0.1-1,0.3-1.4c0.2-0.4,0.5-0.7,0.8-1
		s0.8-0.5,1.3-0.7c0.5-0.1,1-0.3,1.6-0.4s1.2-0.2,1.8-0.3c0.6-0.1,1.3-0.2,1.9-0.3l-0.7,0.4c0-0.8-0.2-1.4-0.5-1.8
		c-0.4-0.4-1-0.6-1.8-0.6c-0.5,0-1,0.1-1.5,0.4c-0.5,0.3-0.8,0.7-0.9,1.2l-1.9-0.6c0.3-0.9,0.7-1.6,1.5-2.1s1.7-0.8,2.9-0.8
		c0.9,0,1.7,0.2,2.4,0.5c0.7,0.3,1.2,0.8,1.5,1.5c0.2,0.3,0.3,0.7,0.3,1.1c0,0.4,0.1,0.8,0.1,1.2v6.3h-1.8v-2.4l0.3,0.3
		c-0.4,0.8-1,1.4-1.6,1.8C96.8,350.1,96,350.2,95.1,350.2z M95.4,348.6c0.6,0,1.1-0.1,1.5-0.3c0.4-0.2,0.7-0.5,1-0.8
		c0.2-0.3,0.4-0.6,0.5-1c0.1-0.3,0.2-0.6,0.2-1c0-0.4,0-0.7,0-0.9l0.6,0.2c-0.6,0.1-1.2,0.2-1.7,0.3c-0.5,0.1-1,0.2-1.4,0.2
		c-0.4,0.1-0.8,0.2-1.1,0.3c-0.3,0.1-0.5,0.2-0.7,0.3c-0.2,0.1-0.4,0.3-0.5,0.5c-0.1,0.2-0.2,0.4-0.2,0.7c0,0.3,0.1,0.5,0.2,0.7
		s0.3,0.4,0.6,0.5C94.6,348.6,95,348.6,95.4,348.6z"/>
	<path d="M103.4,350v-10.3h1.8v2.5l-0.2-0.3c0.1-0.3,0.3-0.6,0.5-0.9c0.2-0.3,0.4-0.5,0.7-0.7c0.3-0.2,0.6-0.3,0.9-0.4
		c0.3-0.1,0.6-0.2,1-0.2c0.3,0,0.7,0,1,0.1v1.9c-0.3-0.1-0.7-0.1-1.1-0.1c-0.4,0-0.8,0.2-1.1,0.4c-0.3,0.2-0.6,0.5-0.8,0.8
		c-0.2,0.3-0.3,0.6-0.4,1c-0.1,0.4-0.1,0.8-0.1,1.2v5.2H103.4z"/>
	<path d="M115.5,350v-14h2v14H115.5z"/>
	<path d="M123.4,350.2c-0.8,0-1.4-0.1-1.9-0.4s-0.9-0.7-1.2-1.1c-0.3-0.5-0.4-1-0.4-1.5c0-0.5,0.1-1,0.3-1.4c0.2-0.4,0.5-0.7,0.8-1
		s0.8-0.5,1.3-0.7c0.5-0.1,1-0.3,1.6-0.4s1.2-0.2,1.8-0.3c0.6-0.1,1.3-0.2,1.9-0.3l-0.7,0.4c0-0.8-0.2-1.4-0.5-1.8
		c-0.4-0.4-1-0.6-1.8-0.6c-0.5,0-1,0.1-1.5,0.4c-0.5,0.3-0.8,0.7-0.9,1.2l-1.9-0.6c0.3-0.9,0.7-1.6,1.5-2.1s1.7-0.8,2.9-0.8
		c0.9,0,1.7,0.2,2.4,0.5c0.7,0.3,1.2,0.8,1.5,1.5c0.2,0.3,0.3,0.7,0.3,1.1c0,0.4,0.1,0.8,0.1,1.2v6.3h-1.8v-2.4l0.3,0.3
		c-0.4,0.8-1,1.4-1.6,1.8C125.2,350.1,124.4,350.2,123.4,350.2z M123.8,348.6c0.6,0,1.1-0.1,1.5-0.3c0.4-0.2,0.7-0.5,1-0.8
		c0.2-0.3,0.4-0.6,0.5-1c0.1-0.3,0.2-0.6,0.2-1c0-0.4,0-0.7,0-0.9l0.6,0.2c-0.6,0.1-1.2,0.2-1.7,0.3c-0.5,0.1-1,0.2-1.4,0.2
		c-0.4,0.1-0.8,0.2-1.1,0.3c-0.3,0.1-0.5,0.2-0.7,0.3c-0.2,0.1-0.4,0.3-0.5,0.5c-0.1,0.2-0.2,0.4-0.2,0.7c0,0.3,0.1,0.5,0.2,0.7
		s0.3,0.4,0.6,0.5C123,348.6,123.4,348.6,123.8,348.6z"/>
	<path d="M135.6,350.2c-1.2,0-2.3-0.3-3.1-0.8c-0.8-0.6-1.3-1.3-1.4-2.3l2-0.3c0.1,0.5,0.4,1,0.9,1.3c0.5,0.3,1,0.5,1.7,0.5
		c0.6,0,1.1-0.1,1.5-0.4c0.4-0.3,0.5-0.6,0.5-1c0-0.3-0.1-0.5-0.2-0.6c-0.1-0.2-0.4-0.3-0.8-0.5c-0.4-0.1-1-0.3-1.8-0.5
		c-0.9-0.2-1.6-0.5-2.1-0.7c-0.5-0.3-0.9-0.6-1.1-0.9c-0.2-0.4-0.3-0.8-0.3-1.3c0-0.6,0.2-1.2,0.5-1.6c0.3-0.5,0.8-0.8,1.4-1.1
		s1.3-0.4,2.1-0.4c0.8,0,1.5,0.1,2.1,0.4c0.6,0.2,1.1,0.6,1.5,1.1c0.4,0.5,0.6,1,0.7,1.6l-2,0.4c-0.1-0.5-0.3-0.9-0.7-1.2
		s-0.9-0.4-1.5-0.5c-0.6,0-1.1,0.1-1.5,0.3c-0.4,0.2-0.6,0.5-0.6,0.9c0,0.2,0.1,0.4,0.2,0.6c0.1,0.2,0.4,0.3,0.8,0.5
		c0.4,0.1,1,0.3,1.8,0.5c0.9,0.2,1.5,0.5,2.1,0.7c0.5,0.3,0.9,0.6,1.1,1c0.2,0.4,0.3,0.8,0.3,1.3c0,1-0.4,1.8-1.1,2.4
		C137.9,350,136.9,350.2,135.6,350.2z"/>
	<path d="M146.4,350v-10.3h1.8v3h0.2v7.3H146.4z M152.6,350l0-6.4c0-0.7-0.2-1.3-0.6-1.8c-0.4-0.4-0.9-0.6-1.5-0.6
		c-0.6,0-1.1,0.2-1.5,0.6c-0.4,0.4-0.6,1-0.6,1.7l-1-0.6c0-0.7,0.2-1.3,0.5-1.8s0.8-0.9,1.3-1.2s1.2-0.5,1.9-0.5
		c0.7,0,1.4,0.2,1.9,0.5s0.9,0.7,1.2,1.3c0.3,0.6,0.4,1.2,0.4,1.9l0,6.9H152.6z M158.7,350l0-6.4c0-0.7-0.2-1.3-0.6-1.7
		c-0.4-0.4-0.9-0.6-1.5-0.6c-0.4,0-0.7,0.1-1,0.3c-0.3,0.2-0.6,0.4-0.8,0.8c-0.2,0.3-0.3,0.8-0.3,1.3l-1-0.5c0-0.7,0.1-1.4,0.5-1.9
		c0.3-0.5,0.8-1,1.3-1.3c0.6-0.3,1.2-0.5,1.9-0.5c1.1,0,2,0.3,2.6,1c0.6,0.7,0.9,1.6,0.9,2.7l0,6.9H158.7z"/>
	<path d="M168.1,350.2c-1,0-1.9-0.2-2.7-0.7c-0.8-0.4-1.4-1.1-1.8-1.9c-0.4-0.8-0.6-1.7-0.6-2.8c0-1.1,0.2-2.1,0.6-2.9
		s1-1.5,1.8-1.9c0.8-0.5,1.6-0.7,2.6-0.7c1,0,1.9,0.2,2.7,0.7c0.7,0.5,1.3,1.2,1.7,2.1c0.4,0.9,0.5,2,0.4,3.2h-2v-0.7
		c0-1.2-0.2-2.1-0.7-2.6c-0.4-0.6-1.1-0.9-2-0.9c-1,0-1.7,0.3-2.2,0.9c-0.5,0.6-0.8,1.5-0.8,2.7c0,1.1,0.3,2,0.8,2.6
		c0.5,0.6,1.2,0.9,2.2,0.9c0.6,0,1.2-0.1,1.6-0.4c0.5-0.3,0.8-0.7,1.1-1.2l2,0.6c-0.4,0.9-1,1.6-1.8,2.1
		C170,350,169.1,350.2,168.1,350.2z M164.5,345.4v-1.6h7.3v1.6H164.5z"/>
	<path d="M179.3,350.2c-1,0-1.8-0.2-2.5-0.7c-0.7-0.5-1.2-1.1-1.6-1.9c-0.4-0.8-0.6-1.7-0.6-2.8c0-1,0.2-2,0.6-2.8
		c0.4-0.8,0.9-1.5,1.6-1.9s1.5-0.7,2.5-0.7c1,0,1.8,0.2,2.5,0.7s1.2,1.1,1.5,1.9c0.3,0.8,0.5,1.7,0.5,2.8c0,1-0.2,2-0.5,2.8
		s-0.8,1.5-1.5,1.9C181.2,350,180.3,350.2,179.3,350.2z M179.6,348.5c0.7,0,1.2-0.2,1.6-0.5c0.4-0.3,0.7-0.7,0.9-1.3
		c0.2-0.5,0.3-1.2,0.3-1.9c0-0.7-0.1-1.3-0.3-1.9c-0.2-0.5-0.5-1-0.9-1.3c-0.4-0.3-0.9-0.5-1.5-0.5c-0.7,0-1.2,0.2-1.6,0.5
		c-0.4,0.3-0.7,0.8-0.9,1.3c-0.2,0.5-0.3,1.2-0.3,1.8c0,0.7,0.1,1.3,0.3,1.8c0.2,0.5,0.5,1,0.9,1.3
		C178.5,348.3,179,348.5,179.6,348.5z M182.4,350v-7.4h-0.2v-6.3h2V350H182.4z"/>
	<path d="M187.2,338v-1.9h2v1.9H187.2z M187.2,350v-10.3h2V350H187.2z"/>
	<path d="M196.4,350.2c-1,0-1.8-0.2-2.5-0.7c-0.7-0.5-1.2-1.1-1.6-1.9c-0.4-0.8-0.6-1.7-0.6-2.8c0-1,0.2-2,0.6-2.8
		c0.4-0.8,0.9-1.5,1.6-1.9s1.5-0.7,2.5-0.7c1,0,1.8,0.2,2.5,0.7s1.2,1.1,1.5,1.9c0.3,0.8,0.5,1.7,0.5,2.8c0,1-0.2,2-0.5,2.8
		s-0.8,1.5-1.5,1.9C198.2,350,197.4,350.2,196.4,350.2z M196.7,348.5c0.7,0,1.2-0.2,1.6-0.5c0.4-0.3,0.7-0.7,0.9-1.3
		c0.2-0.5,0.3-1.2,0.3-1.9c0-0.7-0.1-1.3-0.3-1.9c-0.2-0.5-0.5-1-0.9-1.3c-0.4-0.3-0.9-0.5-1.5-0.5c-0.7,0-1.2,0.2-1.6,0.5
		c-0.4,0.3-0.7,0.8-0.9,1.3c-0.2,0.5-0.3,1.2-0.3,1.8c0,0.7,0.1,1.3,0.3,1.8c0.2,0.5,0.5,1,0.9,1.3
		C195.5,348.3,196,348.5,196.7,348.5z M199.4,350v-7.4h-0.2v-6.3h2V350H199.4z"/>
	<path d="M207.1,350.2c-0.8,0-1.4-0.1-1.9-0.4s-0.9-0.7-1.2-1.1c-0.3-0.5-0.4-1-0.4-1.5c0-0.5,0.1-1,0.3-1.4c0.2-0.4,0.5-0.7,0.8-1
		s0.8-0.5,1.3-0.7c0.5-0.1,1-0.3,1.6-0.4s1.2-0.2,1.8-0.3c0.6-0.1,1.3-0.2,1.9-0.3l-0.7,0.4c0-0.8-0.2-1.4-0.5-1.8
		c-0.4-0.4-1-0.6-1.8-0.6c-0.5,0-1,0.1-1.5,0.4c-0.5,0.3-0.8,0.7-0.9,1.2l-1.9-0.6c0.3-0.9,0.7-1.6,1.5-2.1s1.7-0.8,2.9-0.8
		c0.9,0,1.7,0.2,2.4,0.5c0.7,0.3,1.2,0.8,1.5,1.5c0.2,0.3,0.3,0.7,0.3,1.1c0,0.4,0.1,0.8,0.1,1.2v6.3h-1.8v-2.4l0.3,0.3
		c-0.4,0.8-1,1.4-1.6,1.8C208.8,350.1,208,350.2,207.1,350.2z M207.4,348.6c0.6,0,1.1-0.1,1.5-0.3c0.4-0.2,0.7-0.5,1-0.8
		c0.2-0.3,0.4-0.6,0.5-1c0.1-0.3,0.2-0.6,0.2-1c0-0.4,0-0.7,0-0.9l0.6,0.2c-0.6,0.1-1.2,0.2-1.7,0.3c-0.5,0.1-1,0.2-1.4,0.2
		c-0.4,0.1-0.8,0.2-1.1,0.3c-0.3,0.1-0.5,0.2-0.7,0.3c-0.2,0.1-0.4,0.3-0.5,0.5c-0.1,0.2-0.2,0.4-0.2,0.7c0,0.3,0.1,0.5,0.2,0.7
		s0.3,0.4,0.6,0.5C206.6,348.6,207,348.6,207.4,348.6z"/>
	<path d="M219.2,350.2c-1.2,0-2.3-0.3-3.1-0.8c-0.8-0.6-1.3-1.3-1.4-2.3l2-0.3c0.1,0.5,0.4,1,0.9,1.3c0.5,0.3,1,0.5,1.7,0.5
		c0.6,0,1.1-0.1,1.5-0.4c0.4-0.3,0.5-0.6,0.5-1c0-0.3-0.1-0.5-0.2-0.6c-0.1-0.2-0.4-0.3-0.8-0.5c-0.4-0.1-1-0.3-1.8-0.5
		c-0.9-0.2-1.6-0.5-2.1-0.7c-0.5-0.3-0.9-0.6-1.1-0.9c-0.2-0.4-0.3-0.8-0.3-1.3c0-0.6,0.2-1.2,0.5-1.6c0.3-0.5,0.8-0.8,1.4-1.1
		s1.3-0.4,2.1-0.4c0.8,0,1.5,0.1,2.1,0.4c0.6,0.2,1.1,0.6,1.5,1.1c0.4,0.5,0.6,1,0.7,1.6l-2,0.4c-0.1-0.5-0.3-0.9-0.7-1.2
		s-0.9-0.4-1.5-0.5c-0.6,0-1.1,0.1-1.5,0.3c-0.4,0.2-0.6,0.5-0.6,0.9c0,0.2,0.1,0.4,0.2,0.6c0.1,0.2,0.4,0.3,0.8,0.5
		c0.4,0.1,1,0.3,1.8,0.5c0.9,0.2,1.5,0.5,2.1,0.7c0.5,0.3,0.9,0.6,1.1,1c0.2,0.4,0.3,0.8,0.3,1.3c0,1-0.4,1.8-1.1,2.4
		C221.5,350,220.5,350.2,219.2,350.2z"/>
</g>
<g>
	<path d="M365.2,350v-13.7h5.5c0.1,0,0.3,0,0.5,0c0.2,0,0.4,0,0.6,0.1c0.8,0.1,1.4,0.4,1.9,0.8c0.5,0.4,0.9,0.9,1.1,1.5
		s0.4,1.3,0.4,2c0,1.1-0.3,2-0.8,2.8c-0.6,0.8-1.4,1.3-2.5,1.5l-0.8,0.1h-3.9v4.9H365.2z M367.2,343.2h3.5c0.1,0,0.3,0,0.4,0
		s0.3,0,0.4-0.1c0.4-0.1,0.7-0.3,1-0.5c0.2-0.3,0.4-0.6,0.5-0.9c0.1-0.3,0.2-0.7,0.2-1c0-0.3-0.1-0.7-0.2-1
		c-0.1-0.3-0.3-0.6-0.5-0.9c-0.2-0.3-0.6-0.4-1-0.5c-0.1,0-0.3-0.1-0.4-0.1s-0.3,0-0.4,0h-3.5V343.2z M373.3,350l-2.7-5.6l2-0.5
		l3,6.1H373.3z"/>
	<path d="M382.2,350.2c-1,0-1.9-0.2-2.7-0.7s-1.4-1.1-1.8-1.9c-0.4-0.8-0.6-1.7-0.6-2.8c0-1.1,0.2-2.1,0.6-2.9s1-1.5,1.8-1.9
		s1.6-0.7,2.6-0.7c1,0,1.9,0.2,2.7,0.7c0.7,0.5,1.3,1.2,1.7,2.1c0.4,0.9,0.5,2,0.4,3.2h-2v-0.7c0-1.2-0.2-2.1-0.7-2.6
		c-0.4-0.6-1.1-0.9-2-0.9c-1,0-1.7,0.3-2.2,0.9c-0.5,0.6-0.8,1.5-0.8,2.7c0,1.1,0.2,2,0.8,2.6c0.5,0.6,1.2,0.9,2.2,0.9
		c0.6,0,1.2-0.1,1.6-0.4c0.5-0.3,0.8-0.7,1.1-1.2l2,0.6c-0.4,0.9-1,1.6-1.8,2.1C384.1,350,383.2,350.2,382.2,350.2z M378.5,345.4
		v-1.6h7.3v1.6H378.5z"/>
	<path d="M393.4,350.2c-1,0-1.8-0.2-2.5-0.7c-0.7-0.5-1.2-1.1-1.6-1.9s-0.6-1.7-0.6-2.8c0-1,0.2-2,0.6-2.8s0.9-1.5,1.6-1.9
		s1.5-0.7,2.5-0.7c1,0,1.8,0.2,2.5,0.7s1.2,1.1,1.5,1.9c0.3,0.8,0.5,1.7,0.5,2.8c0,1-0.2,2-0.5,2.8s-0.8,1.5-1.5,1.9
		C395.2,350,394.4,350.2,393.4,350.2z M393.7,348.5c0.7,0,1.2-0.2,1.6-0.5c0.4-0.3,0.7-0.7,0.9-1.3c0.2-0.5,0.3-1.2,0.3-1.9
		c0-0.7-0.1-1.3-0.3-1.9c-0.2-0.5-0.5-1-0.9-1.3s-0.9-0.5-1.5-0.5c-0.7,0-1.2,0.2-1.6,0.5c-0.4,0.3-0.7,0.8-0.9,1.3
		s-0.3,1.2-0.3,1.8c0,0.7,0.1,1.3,0.3,1.8s0.5,1,0.9,1.3C392.5,348.3,393,348.5,393.7,348.5z M396.5,350v-7.4h-0.2v-6.3h2V350H396.5
		z"/>
	<path d="M405.1,350.2c-0.7,0-1.3-0.1-1.8-0.3s-0.9-0.5-1.2-0.9c-0.3-0.4-0.5-0.8-0.7-1.2c-0.2-0.4-0.3-0.9-0.3-1.3
		c-0.1-0.4-0.1-0.8-0.1-1.1v-5.7h2v5.1c0,0.4,0,0.8,0.1,1.2c0.1,0.4,0.2,0.8,0.4,1.2c0.2,0.4,0.5,0.7,0.8,0.9
		c0.3,0.2,0.8,0.3,1.3,0.3c0.4,0,0.7-0.1,1-0.2c0.3-0.1,0.6-0.3,0.8-0.6c0.2-0.3,0.4-0.6,0.6-1c0.1-0.4,0.2-0.9,0.2-1.6l1.2,0.5
		c0,0.9-0.2,1.8-0.5,2.5c-0.3,0.7-0.9,1.3-1.5,1.7C406.8,350,406,350.2,405.1,350.2z M408.5,350v-3h-0.2v-7.3h2V350H408.5z"/>
	<path d="M417.6,350.2c-1.1,0-1.9-0.2-2.7-0.7c-0.7-0.5-1.3-1.1-1.7-1.9c-0.4-0.8-0.6-1.7-0.6-2.8c0-1.1,0.2-2,0.6-2.8
		s1-1.5,1.7-1.9c0.7-0.5,1.6-0.7,2.7-0.7c1.1,0,2.1,0.3,2.9,0.8c0.8,0.6,1.3,1.3,1.6,2.3l-2,0.6c-0.2-0.6-0.5-1-1-1.3
		c-0.4-0.3-1-0.5-1.5-0.5c-0.7,0-1.2,0.2-1.6,0.5s-0.7,0.7-0.9,1.3c-0.2,0.5-0.3,1.1-0.3,1.8c0,1.1,0.2,1.9,0.7,2.6
		c0.5,0.7,1.2,1,2.1,1c0.6,0,1.2-0.1,1.6-0.4s0.7-0.7,0.9-1.3l2,0.5c-0.3,1-0.9,1.8-1.7,2.3S418.7,350.2,417.6,350.2z"/>
	<path d="M424.4,338v-1.9h2v1.9H424.4z M424.4,350v-10.3h2V350H424.4z"/>
	<path d="M429.4,350v-10.3h1.8v2.5l-0.2-0.3c0.1-0.3,0.3-0.6,0.5-0.9c0.2-0.3,0.4-0.5,0.7-0.7c0.3-0.2,0.6-0.3,0.9-0.4
		c0.3-0.1,0.6-0.2,1-0.2c0.3,0,0.7,0,1,0.1v1.9c-0.3-0.1-0.7-0.1-1.1-0.1s-0.8,0.2-1.1,0.4c-0.3,0.2-0.6,0.5-0.8,0.8
		c-0.2,0.3-0.3,0.6-0.4,1c-0.1,0.4-0.1,0.8-0.1,1.2v5.2H429.4z"/>
	<path d="M441.6,350v-14h2v14H441.6z"/>
	<path d="M449.5,350.2c-0.8,0-1.4-0.1-1.9-0.4c-0.5-0.3-0.9-0.7-1.2-1.1c-0.3-0.5-0.4-1-0.4-1.5c0-0.5,0.1-1,0.3-1.4
		c0.2-0.4,0.5-0.7,0.8-1c0.4-0.3,0.8-0.5,1.3-0.7c0.5-0.1,1-0.3,1.6-0.4c0.6-0.1,1.2-0.2,1.8-0.3s1.3-0.2,1.9-0.3l-0.7,0.4
		c0-0.8-0.2-1.4-0.5-1.8c-0.4-0.4-1-0.6-1.8-0.6c-0.5,0-1,0.1-1.5,0.4c-0.5,0.3-0.8,0.7-0.9,1.2l-1.9-0.6c0.3-0.9,0.7-1.6,1.5-2.1
		s1.7-0.8,2.9-0.8c0.9,0,1.7,0.2,2.4,0.5c0.7,0.3,1.2,0.8,1.5,1.5c0.2,0.3,0.3,0.7,0.3,1.1c0,0.4,0.1,0.8,0.1,1.2v6.3h-1.8v-2.4
		l0.3,0.3c-0.4,0.8-1,1.4-1.6,1.8C451.3,350.1,450.5,350.2,449.5,350.2z M449.9,348.6c0.6,0,1.1-0.1,1.5-0.3c0.4-0.2,0.7-0.5,1-0.8
		c0.2-0.3,0.4-0.6,0.5-1c0.1-0.3,0.2-0.6,0.2-1s0-0.7,0-0.9l0.6,0.2c-0.6,0.1-1.2,0.2-1.7,0.3c-0.5,0.1-1,0.2-1.4,0.2
		c-0.4,0.1-0.8,0.2-1.1,0.3c-0.3,0.1-0.5,0.2-0.7,0.3c-0.2,0.1-0.4,0.3-0.5,0.5c-0.1,0.2-0.2,0.4-0.2,0.7c0,0.3,0.1,0.5,0.2,0.7
		c0.1,0.2,0.3,0.4,0.6,0.5C449.1,348.6,449.4,348.6,449.9,348.6z"/>
	<path d="M461.7,350.2c-1.2,0-2.3-0.3-3.1-0.8c-0.8-0.6-1.3-1.3-1.4-2.3l2-0.3c0.1,0.5,0.4,1,0.9,1.3c0.5,0.3,1,0.5,1.7,0.5
		c0.6,0,1.1-0.1,1.5-0.4s0.5-0.6,0.5-1c0-0.3-0.1-0.5-0.2-0.6c-0.1-0.2-0.4-0.3-0.8-0.5c-0.4-0.1-1-0.3-1.8-0.5
		c-0.9-0.2-1.6-0.5-2.1-0.7c-0.5-0.3-0.9-0.6-1.1-0.9c-0.2-0.4-0.3-0.8-0.3-1.3c0-0.6,0.2-1.2,0.5-1.6c0.3-0.5,0.8-0.8,1.4-1.1
		s1.3-0.4,2.1-0.4c0.8,0,1.5,0.1,2.1,0.4c0.6,0.2,1.1,0.6,1.5,1.1c0.4,0.5,0.6,1,0.7,1.6l-2,0.4c-0.1-0.5-0.3-0.9-0.7-1.2
		s-0.9-0.4-1.5-0.5c-0.6,0-1.1,0.1-1.5,0.3c-0.4,0.2-0.6,0.5-0.6,0.9c0,0.2,0.1,0.4,0.2,0.6c0.1,0.2,0.4,0.3,0.8,0.5
		c0.4,0.1,1,0.3,1.8,0.5c0.9,0.2,1.5,0.5,2.1,0.7c0.5,0.3,0.9,0.6,1.1,1c0.2,0.4,0.3,0.8,0.3,1.3c0,1-0.4,1.8-1.1,2.4
		C464,350,463,350.2,461.7,350.2z"/>
	<path d="M472.5,350v-10.3h1.8v3h0.2v7.3H472.5z M478.7,350l0-6.4c0-0.7-0.2-1.3-0.6-1.8c-0.4-0.4-0.9-0.6-1.5-0.6
		c-0.6,0-1.1,0.2-1.5,0.6s-0.6,1-0.6,1.7l-1-0.6c0-0.7,0.2-1.3,0.5-1.8c0.3-0.5,0.8-0.9,1.3-1.2c0.6-0.3,1.2-0.5,1.9-0.5
		c0.7,0,1.4,0.2,1.9,0.5c0.5,0.3,0.9,0.7,1.2,1.3c0.3,0.6,0.4,1.2,0.4,1.9l0,6.9H478.7z M484.8,350l0-6.4c0-0.7-0.2-1.3-0.6-1.7
		c-0.4-0.4-0.9-0.6-1.5-0.6c-0.4,0-0.7,0.1-1,0.3c-0.3,0.2-0.6,0.4-0.8,0.8c-0.2,0.3-0.3,0.8-0.3,1.3l-1-0.5c0-0.7,0.1-1.4,0.5-1.9
		c0.3-0.5,0.8-1,1.3-1.3c0.6-0.3,1.2-0.5,1.9-0.5c1.1,0,2,0.3,2.6,1c0.6,0.7,0.9,1.6,0.9,2.7l0,6.9H484.8z"/>
	<path d="M494.2,350.2c-1,0-1.9-0.2-2.7-0.7s-1.4-1.1-1.8-1.9c-0.4-0.8-0.6-1.7-0.6-2.8c0-1.1,0.2-2.1,0.6-2.9s1-1.5,1.8-1.9
		s1.6-0.7,2.6-0.7c1,0,1.9,0.2,2.7,0.7c0.7,0.5,1.3,1.2,1.7,2.1c0.4,0.9,0.5,2,0.4,3.2h-2v-0.7c0-1.2-0.2-2.1-0.7-2.6
		c-0.4-0.6-1.1-0.9-2-0.9c-1,0-1.7,0.3-2.2,0.9c-0.5,0.6-0.8,1.5-0.8,2.7c0,1.1,0.2,2,0.8,2.6c0.5,0.6,1.2,0.9,2.2,0.9
		c0.6,0,1.2-0.1,1.6-0.4c0.5-0.3,0.8-0.7,1.1-1.2l2,0.6c-0.4,0.9-1,1.6-1.8,2.1C496.1,350,495.2,350.2,494.2,350.2z M490.6,345.4
		v-1.6h7.3v1.6H490.6z"/>
	<path d="M505.4,350.2c-1,0-1.8-0.2-2.5-0.7c-0.7-0.5-1.2-1.1-1.6-1.9s-0.6-1.7-0.6-2.8c0-1,0.2-2,0.6-2.8s0.9-1.5,1.6-1.9
		s1.5-0.7,2.5-0.7c1,0,1.8,0.2,2.5,0.7s1.2,1.1,1.5,1.9c0.3,0.8,0.5,1.7,0.5,2.8c0,1-0.2,2-0.5,2.8s-0.8,1.5-1.5,1.9
		C507.2,350,506.4,350.2,505.4,350.2z M505.7,348.5c0.7,0,1.2-0.2,1.6-0.5c0.4-0.3,0.7-0.7,0.9-1.3c0.2-0.5,0.3-1.2,0.3-1.9
		c0-0.7-0.1-1.3-0.3-1.9c-0.2-0.5-0.5-1-0.9-1.3s-0.9-0.5-1.5-0.5c-0.7,0-1.2,0.2-1.6,0.5c-0.4,0.3-0.7,0.8-0.9,1.3
		s-0.3,1.2-0.3,1.8c0,0.7,0.1,1.3,0.3,1.8s0.5,1,0.9,1.3C504.6,348.3,505.1,348.5,505.7,348.5z M508.5,350v-7.4h-0.2v-6.3h2V350
		H508.5z"/>
	<path d="M513.3,338v-1.9h2v1.9H513.3z M513.3,350v-10.3h2V350H513.3z"/>
	<path d="M522.5,350.2c-1,0-1.8-0.2-2.5-0.7c-0.7-0.5-1.2-1.1-1.6-1.9s-0.6-1.7-0.6-2.8c0-1,0.2-2,0.6-2.8s0.9-1.5,1.6-1.9
		s1.5-0.7,2.5-0.7c1,0,1.8,0.2,2.5,0.7s1.2,1.1,1.5,1.9c0.3,0.8,0.5,1.7,0.5,2.8c0,1-0.2,2-0.5,2.8s-0.8,1.5-1.5,1.9
		C524.3,350,523.4,350.2,522.5,350.2z M522.7,348.5c0.7,0,1.2-0.2,1.6-0.5c0.4-0.3,0.7-0.7,0.9-1.3c0.2-0.5,0.3-1.2,0.3-1.9
		c0-0.7-0.1-1.3-0.3-1.9c-0.2-0.5-0.5-1-0.9-1.3s-0.9-0.5-1.5-0.5c-0.7,0-1.2,0.2-1.6,0.5c-0.4,0.3-0.7,0.8-0.9,1.3
		s-0.3,1.2-0.3,1.8c0,0.7,0.1,1.3,0.3,1.8s0.5,1,0.9,1.3C521.6,348.3,522.1,348.5,522.7,348.5z M525.5,350v-7.4h-0.2v-6.3h2V350
		H525.5z"/>
	<path d="M533.2,350.2c-0.8,0-1.4-0.1-1.9-0.4c-0.5-0.3-0.9-0.7-1.2-1.1c-0.3-0.5-0.4-1-0.4-1.5c0-0.5,0.1-1,0.3-1.4
		c0.2-0.4,0.5-0.7,0.8-1c0.4-0.3,0.8-0.5,1.3-0.7c0.5-0.1,1-0.3,1.6-0.4c0.6-0.1,1.2-0.2,1.8-0.3s1.3-0.2,1.9-0.3l-0.7,0.4
		c0-0.8-0.2-1.4-0.5-1.8c-0.4-0.4-1-0.6-1.8-0.6c-0.5,0-1,0.1-1.5,0.4c-0.5,0.3-0.8,0.7-0.9,1.2l-1.9-0.6c0.3-0.9,0.7-1.6,1.5-2.1
		s1.7-0.8,2.9-0.8c0.9,0,1.7,0.2,2.4,0.5c0.7,0.3,1.2,0.8,1.5,1.5c0.2,0.3,0.3,0.7,0.3,1.1c0,0.4,0.1,0.8,0.1,1.2v6.3h-1.8v-2.4
		l0.3,0.3c-0.4,0.8-1,1.4-1.6,1.8C534.9,350.1,534.1,350.2,533.2,350.2z M533.5,348.6c0.6,0,1.1-0.1,1.5-0.3c0.4-0.2,0.7-0.5,1-0.8
		c0.2-0.3,0.4-0.6,0.5-1c0.1-0.3,0.2-0.6,0.2-1s0-0.7,0-0.9l0.6,0.2c-0.6,0.1-1.2,0.2-1.7,0.3c-0.5,0.1-1,0.2-1.4,0.2
		c-0.4,0.1-0.8,0.2-1.1,0.3c-0.3,0.1-0.5,0.2-0.7,0.3c-0.2,0.1-0.4,0.3-0.5,0.5c-0.1,0.2-0.2,0.4-0.2,0.7c0,0.3,0.1,0.5,0.2,0.7
		c0.1,0.2,0.3,0.4,0.6,0.5C532.7,348.6,533.1,348.6,533.5,348.6z"/>
	<path d="M545.3,350.2c-1.2,0-2.3-0.3-3.1-0.8c-0.8-0.6-1.3-1.3-1.4-2.3l2-0.3c0.1,0.5,0.4,1,0.9,1.3c0.5,0.3,1,0.5,1.7,0.5
		c0.6,0,1.1-0.1,1.5-0.4c0.4-0.3,0.5-0.6,0.5-1c0-0.3-0.1-0.5-0.2-0.6c-0.1-0.2-0.4-0.3-0.8-0.5c-0.4-0.1-1-0.3-1.8-0.5
		c-0.9-0.2-1.6-0.5-2.1-0.7c-0.5-0.3-0.9-0.6-1.1-0.9c-0.2-0.4-0.3-0.8-0.3-1.3c0-0.6,0.2-1.2,0.5-1.6c0.3-0.5,0.8-0.8,1.4-1.1
		s1.3-0.4,2.1-0.4c0.8,0,1.5,0.1,2.1,0.4c0.6,0.2,1.1,0.6,1.5,1.1c0.4,0.5,0.6,1,0.7,1.6l-2,0.4c-0.1-0.5-0.3-0.9-0.7-1.2
		s-0.9-0.4-1.5-0.5c-0.6,0-1.1,0.1-1.5,0.3c-0.4,0.2-0.6,0.5-0.6,0.9c0,0.2,0.1,0.4,0.2,0.6c0.1,0.2,0.4,0.3,0.8,0.5
		c0.4,0.1,1,0.3,1.8,0.5c0.9,0.2,1.5,0.5,2.1,0.7s0.9,0.6,1.1,1c0.2,0.4,0.3,0.8,0.3,1.3c0,1-0.4,1.8-1.1,2.4
		C547.6,350,546.6,350.2,545.3,350.2z"/>
</g>
<g>
	<path d="M365.2,384.1v-13.7h2l6.7,10.2v-10.2h2v13.7h-2l-6.7-10.2v10.2H365.2z"/>
	<path d="M383.4,384.4c-1,0-1.9-0.2-2.7-0.7c-0.8-0.5-1.3-1.1-1.7-1.9s-0.6-1.8-0.6-2.8c0-1.1,0.2-2,0.6-2.8c0.4-0.8,1-1.5,1.8-1.9
		c0.8-0.5,1.6-0.7,2.6-0.7c1,0,1.9,0.2,2.7,0.7c0.8,0.5,1.3,1.1,1.8,1.9c0.4,0.8,0.6,1.7,0.6,2.8c0,1.1-0.2,2-0.6,2.8
		c-0.4,0.8-1,1.5-1.8,1.9S384.5,384.4,383.4,384.4z M383.4,382.6c1,0,1.7-0.3,2.2-1c0.5-0.7,0.7-1.5,0.7-2.6c0-1.1-0.2-1.9-0.7-2.6
		c-0.5-0.6-1.2-1-2.2-1c-0.7,0-1.2,0.2-1.6,0.5c-0.4,0.3-0.8,0.7-1,1.2c-0.2,0.5-0.3,1.1-0.3,1.8c0,1.1,0.2,1.9,0.7,2.6
		C381.7,382.2,382.5,382.6,383.4,382.6z"/>
	<path d="M399.7,384.4c-1,0-1.9-0.2-2.7-0.7s-1.4-1.1-1.8-1.9c-0.4-0.8-0.6-1.7-0.6-2.8c0-1.1,0.2-2.1,0.6-2.9s1-1.5,1.8-1.9
		s1.6-0.7,2.6-0.7c1,0,1.9,0.2,2.7,0.7c0.7,0.5,1.3,1.2,1.7,2.1c0.4,0.9,0.5,2,0.4,3.2h-2v-0.7c0-1.2-0.2-2.1-0.7-2.6
		c-0.4-0.6-1.1-0.9-2-0.9c-1,0-1.7,0.3-2.2,0.9c-0.5,0.6-0.8,1.5-0.8,2.7c0,1.1,0.2,2,0.8,2.6c0.5,0.6,1.2,0.9,2.2,0.9
		c0.6,0,1.2-0.1,1.6-0.4c0.5-0.3,0.8-0.7,1.1-1.2l2,0.6c-0.4,0.9-1,1.6-1.8,2.1C401.6,384.2,400.7,384.4,399.7,384.4z M396,379.6
		V378h7.3v1.6H396z"/>
	<path d="M410.7,384.4c-1.2,0-2.3-0.3-3.1-0.8c-0.8-0.6-1.3-1.3-1.4-2.3l2-0.3c0.1,0.5,0.4,1,0.9,1.3c0.5,0.3,1,0.5,1.7,0.5
		c0.6,0,1.1-0.1,1.5-0.4c0.4-0.3,0.5-0.6,0.5-1c0-0.3-0.1-0.5-0.2-0.6c-0.1-0.2-0.4-0.3-0.8-0.5c-0.4-0.1-1-0.3-1.8-0.5
		c-0.9-0.2-1.6-0.5-2.1-0.7c-0.5-0.3-0.9-0.6-1.1-0.9c-0.2-0.4-0.3-0.8-0.3-1.3c0-0.6,0.2-1.2,0.5-1.6c0.3-0.5,0.8-0.8,1.4-1.1
		s1.3-0.4,2.1-0.4c0.8,0,1.5,0.1,2.1,0.4c0.6,0.2,1.1,0.6,1.5,1.1c0.4,0.5,0.6,1,0.7,1.6l-2,0.4c-0.1-0.5-0.3-0.9-0.7-1.2
		s-0.9-0.4-1.5-0.5c-0.6,0-1.1,0.1-1.5,0.3c-0.4,0.2-0.6,0.5-0.6,0.9c0,0.2,0.1,0.4,0.2,0.6c0.1,0.2,0.4,0.3,0.8,0.5
		c0.4,0.1,1,0.3,1.8,0.5c0.9,0.2,1.5,0.5,2.1,0.7s0.9,0.6,1.1,1c0.2,0.4,0.3,0.8,0.3,1.3c0,1-0.4,1.8-1.1,2.4
		C413,384.1,412,384.4,410.7,384.4z"/>
	<path d="M416.3,375.5v-1.6h7v1.6H416.3z M423.3,384.1c-0.6,0.1-1.3,0.2-1.9,0.2c-0.6,0-1.2-0.1-1.7-0.4c-0.5-0.2-0.9-0.6-1.1-1
		c-0.2-0.4-0.3-0.9-0.4-1.3c0-0.4,0-0.9,0-1.5V371h2v9c0,0.4,0,0.8,0,1.1c0,0.3,0.1,0.6,0.2,0.8c0.2,0.4,0.6,0.6,1.1,0.7
		c0.5,0.1,1.1,0,1.8-0.1V384.1z"/>
	<path d="M428.6,384.4c-0.8,0-1.4-0.1-1.9-0.4c-0.5-0.3-0.9-0.7-1.2-1.1c-0.3-0.5-0.4-1-0.4-1.5c0-0.5,0.1-1,0.3-1.4
		c0.2-0.4,0.5-0.7,0.8-1c0.4-0.3,0.8-0.5,1.3-0.7c0.5-0.1,1-0.3,1.6-0.4c0.6-0.1,1.2-0.2,1.8-0.3s1.3-0.2,1.9-0.3l-0.7,0.4
		c0-0.8-0.2-1.4-0.5-1.8c-0.4-0.4-1-0.6-1.8-0.6c-0.5,0-1,0.1-1.5,0.4c-0.5,0.3-0.8,0.7-0.9,1.2l-1.9-0.6c0.3-0.9,0.7-1.6,1.5-2.1
		s1.7-0.8,2.9-0.8c0.9,0,1.7,0.2,2.4,0.5c0.7,0.3,1.2,0.8,1.5,1.5c0.2,0.3,0.3,0.7,0.3,1.1c0,0.4,0.1,0.8,0.1,1.2v6.3h-1.8v-2.4
		l0.3,0.3c-0.4,0.8-1,1.4-1.6,1.8C430.4,384.2,429.6,384.4,428.6,384.4z M429,382.8c0.6,0,1.1-0.1,1.5-0.3c0.4-0.2,0.7-0.5,1-0.8
		c0.2-0.3,0.4-0.6,0.5-1c0.1-0.3,0.2-0.6,0.2-1s0-0.7,0-0.9l0.6,0.2c-0.6,0.1-1.2,0.2-1.7,0.3c-0.5,0.1-1,0.2-1.4,0.2
		c-0.4,0.1-0.8,0.2-1.1,0.3c-0.3,0.1-0.5,0.2-0.7,0.3c-0.2,0.1-0.4,0.3-0.5,0.5c-0.1,0.2-0.2,0.4-0.2,0.7c0,0.3,0.1,0.5,0.2,0.7
		c0.1,0.2,0.3,0.4,0.6,0.5C428.2,382.7,428.6,382.8,429,382.8z"/>
	<path d="M436.9,384.1v-10.3h1.8v3h0.2v7.3H436.9z M443.1,384.1l0-6.4c0-0.7-0.2-1.3-0.6-1.8c-0.4-0.4-0.9-0.6-1.5-0.6
		c-0.6,0-1.1,0.2-1.5,0.6c-0.4,0.4-0.6,1-0.6,1.7l-1-0.6c0-0.7,0.2-1.3,0.5-1.8c0.3-0.5,0.8-0.9,1.3-1.2c0.6-0.3,1.2-0.5,1.9-0.5
		c0.7,0,1.4,0.2,1.9,0.5c0.5,0.3,0.9,0.7,1.2,1.3c0.3,0.6,0.4,1.2,0.4,1.9l0,6.9H443.1z M449.2,384.1l0-6.4c0-0.7-0.2-1.3-0.6-1.7
		c-0.4-0.4-0.9-0.6-1.5-0.6c-0.4,0-0.7,0.1-1,0.3c-0.3,0.2-0.6,0.4-0.8,0.8c-0.2,0.3-0.3,0.8-0.3,1.3l-1-0.5c0-0.7,0.1-1.4,0.5-1.9
		c0.3-0.5,0.8-1,1.3-1.3s1.2-0.5,1.9-0.5c1.1,0,2,0.3,2.6,1c0.6,0.7,0.9,1.6,0.9,2.7l0,6.9H449.2z"/>
	<path d="M458.6,384.4c-1,0-1.9-0.2-2.7-0.7c-0.8-0.5-1.3-1.1-1.7-1.9s-0.6-1.8-0.6-2.8c0-1.1,0.2-2,0.6-2.8c0.4-0.8,1-1.5,1.8-1.9
		c0.8-0.5,1.6-0.7,2.6-0.7c1,0,1.9,0.2,2.7,0.7c0.8,0.5,1.3,1.1,1.8,1.9c0.4,0.8,0.6,1.7,0.6,2.8c0,1.1-0.2,2-0.6,2.8
		c-0.4,0.8-1,1.5-1.8,1.9S459.6,384.4,458.6,384.4z M458.6,382.6c1,0,1.7-0.3,2.2-1c0.5-0.7,0.7-1.5,0.7-2.6c0-1.1-0.2-1.9-0.7-2.6
		c-0.5-0.6-1.2-1-2.2-1c-0.7,0-1.2,0.2-1.6,0.5c-0.4,0.3-0.8,0.7-1,1.2c-0.2,0.5-0.3,1.1-0.3,1.8c0,1.1,0.2,1.9,0.7,2.6
		C456.9,382.2,457.6,382.6,458.6,382.6z"/>
	<path d="M469.8,384.4c-1.2,0-2.3-0.3-3.1-0.8c-0.8-0.6-1.3-1.3-1.4-2.3l2-0.3c0.1,0.5,0.4,1,0.9,1.3c0.5,0.3,1,0.5,1.7,0.5
		c0.6,0,1.1-0.1,1.5-0.4c0.4-0.3,0.5-0.6,0.5-1c0-0.3-0.1-0.5-0.2-0.6c-0.1-0.2-0.4-0.3-0.8-0.5c-0.4-0.1-1-0.3-1.8-0.5
		c-0.9-0.2-1.6-0.5-2.1-0.7c-0.5-0.3-0.9-0.6-1.1-0.9c-0.2-0.4-0.3-0.8-0.3-1.3c0-0.6,0.2-1.2,0.5-1.6c0.3-0.5,0.8-0.8,1.4-1.1
		s1.3-0.4,2.1-0.4c0.8,0,1.5,0.1,2.1,0.4c0.6,0.2,1.1,0.6,1.5,1.1c0.4,0.5,0.6,1,0.7,1.6l-2,0.4c-0.1-0.5-0.3-0.9-0.7-1.2
		s-0.9-0.4-1.5-0.5c-0.6,0-1.1,0.1-1.5,0.3c-0.4,0.2-0.6,0.5-0.6,0.9c0,0.2,0.1,0.4,0.2,0.6c0.1,0.2,0.4,0.3,0.8,0.5
		c0.4,0.1,1,0.3,1.8,0.5c0.9,0.2,1.5,0.5,2.1,0.7s0.9,0.6,1.1,1c0.2,0.4,0.3,0.8,0.3,1.3c0,1-0.4,1.8-1.1,2.4
		C472.2,384.1,471.1,384.4,469.8,384.4z"/>
	<path d="M484.6,384.4c-1.2,0-2.3-0.3-3.1-0.8c-0.8-0.6-1.3-1.3-1.4-2.3l2-0.3c0.1,0.5,0.4,1,0.9,1.3c0.5,0.3,1,0.5,1.7,0.5
		c0.6,0,1.1-0.1,1.5-0.4c0.4-0.3,0.5-0.6,0.5-1c0-0.3-0.1-0.5-0.2-0.6c-0.1-0.2-0.4-0.3-0.8-0.5c-0.4-0.1-1-0.3-1.8-0.5
		c-0.9-0.2-1.6-0.5-2.1-0.7c-0.5-0.3-0.9-0.6-1.1-0.9c-0.2-0.4-0.3-0.8-0.3-1.3c0-0.6,0.2-1.2,0.5-1.6c0.3-0.5,0.8-0.8,1.4-1.1
		s1.3-0.4,2.1-0.4c0.8,0,1.5,0.1,2.1,0.4c0.6,0.2,1.1,0.6,1.5,1.1c0.4,0.5,0.6,1,0.7,1.6l-2,0.4c-0.1-0.5-0.3-0.9-0.7-1.2
		s-0.9-0.4-1.5-0.5c-0.6,0-1.1,0.1-1.5,0.3c-0.4,0.2-0.6,0.5-0.6,0.9c0,0.2,0.1,0.4,0.2,0.6c0.1,0.2,0.4,0.3,0.8,0.5
		c0.4,0.1,1,0.3,1.8,0.5c0.9,0.2,1.5,0.5,2.1,0.7s0.9,0.6,1.1,1c0.2,0.4,0.3,0.8,0.3,1.3c0,1-0.4,1.8-1.1,2.4
		C486.9,384.1,485.9,384.4,484.6,384.4z"/>
	<path d="M495.7,384.4c-1,0-1.9-0.2-2.7-0.7c-0.8-0.4-1.4-1.1-1.8-1.9s-0.6-1.7-0.6-2.8c0-1.1,0.2-2.1,0.6-2.9s1-1.5,1.8-1.9
		c0.8-0.5,1.6-0.7,2.6-0.7c1,0,1.9,0.2,2.7,0.7c0.7,0.5,1.3,1.2,1.7,2.1c0.4,0.9,0.5,2,0.4,3.2h-2v-0.7c0-1.2-0.2-2.1-0.7-2.6
		c-0.4-0.6-1.1-0.9-2-0.9c-1,0-1.7,0.3-2.2,0.9c-0.5,0.6-0.8,1.5-0.8,2.7c0,1.1,0.3,2,0.8,2.6c0.5,0.6,1.2,0.9,2.2,0.9
		c0.6,0,1.2-0.1,1.6-0.4c0.5-0.3,0.8-0.7,1.1-1.2l2,0.6c-0.4,0.9-1,1.6-1.8,2.1C497.6,384.2,496.7,384.4,495.7,384.4z M492.1,379.6
		V378h7.3v1.6H492.1z"/>
	<path d="M506.9,384.4c-1,0-1.8-0.2-2.5-0.7c-0.7-0.5-1.2-1.1-1.6-1.9c-0.4-0.8-0.6-1.7-0.6-2.8c0-1,0.2-2,0.6-2.8
		c0.4-0.8,0.9-1.5,1.6-1.9s1.5-0.7,2.5-0.7c1,0,1.8,0.2,2.5,0.7s1.2,1.1,1.5,1.9c0.3,0.8,0.5,1.7,0.5,2.8c0,1-0.2,2-0.5,2.8
		s-0.8,1.5-1.5,1.9C508.7,384.2,507.9,384.4,506.9,384.4z M507.1,389c-0.6,0-1.1-0.1-1.6-0.3c-0.5-0.2-1-0.4-1.4-0.8
		c-0.4-0.3-0.8-0.7-1.1-1.2l1.8-0.9c0.2,0.4,0.5,0.8,1,1c0.4,0.2,0.8,0.3,1.3,0.3c0.6,0,1-0.1,1.4-0.3c0.4-0.2,0.7-0.5,0.9-0.9
		c0.2-0.4,0.3-0.9,0.3-1.5v-2.9h0.2v-7.7h1.8v10.6c0,0.3,0,0.5,0,0.8c0,0.2-0.1,0.5-0.1,0.7c-0.1,0.7-0.4,1.3-0.8,1.7
		c-0.4,0.5-0.9,0.8-1.6,1C508.6,388.9,507.9,389,507.1,389z M507.2,382.6c0.7,0,1.2-0.2,1.6-0.5c0.4-0.3,0.7-0.7,0.9-1.3
		c0.2-0.5,0.3-1.2,0.3-1.9c0-0.7-0.1-1.3-0.3-1.9s-0.5-1-0.9-1.3c-0.4-0.3-0.9-0.5-1.5-0.5c-0.7,0-1.2,0.2-1.6,0.5
		c-0.4,0.3-0.7,0.8-0.9,1.3c-0.2,0.5-0.3,1.2-0.3,1.8c0,0.7,0.1,1.3,0.3,1.8c0.2,0.5,0.5,1,0.9,1.3
		C506,382.5,506.6,382.6,507.2,382.6z"/>
	<path d="M518.6,384.4c-0.7,0-1.3-0.1-1.8-0.3s-0.9-0.5-1.2-0.9c-0.3-0.4-0.5-0.8-0.7-1.2c-0.2-0.4-0.3-0.9-0.3-1.3
		c-0.1-0.4-0.1-0.8-0.1-1.1v-5.7h2v5.1c0,0.4,0,0.8,0.1,1.2s0.2,0.8,0.4,1.2c0.2,0.4,0.5,0.7,0.8,0.9c0.3,0.2,0.8,0.3,1.3,0.3
		c0.4,0,0.7-0.1,1-0.2c0.3-0.1,0.6-0.3,0.8-0.6c0.2-0.3,0.4-0.6,0.6-1c0.1-0.4,0.2-0.9,0.2-1.6l1.2,0.5c0,0.9-0.2,1.8-0.5,2.5
		c-0.3,0.7-0.9,1.3-1.5,1.7C520.4,384.2,519.6,384.4,518.6,384.4z M522,384.1v-3h-0.2v-7.3h2v10.3H522z"/>
	<path d="M526.7,384.1v-10.3h1.8v2.5l-0.2-0.3c0.1-0.3,0.3-0.6,0.5-0.9c0.2-0.3,0.4-0.5,0.7-0.7c0.3-0.2,0.6-0.3,0.9-0.4
		c0.3-0.1,0.6-0.2,1-0.2c0.3,0,0.7,0,1,0.1v1.9c-0.3-0.1-0.7-0.1-1.1-0.1c-0.4,0-0.8,0.2-1.1,0.4c-0.3,0.2-0.6,0.5-0.8,0.8
		c-0.2,0.3-0.3,0.6-0.4,1c-0.1,0.4-0.1,0.8-0.1,1.2v5.2H526.7z"/>
	<path d="M538.7,384.4c-1,0-1.9-0.2-2.7-0.7s-1.3-1.1-1.7-1.9s-0.6-1.8-0.6-2.8c0-1.1,0.2-2,0.6-2.8s1-1.5,1.8-1.9
		c0.8-0.5,1.6-0.7,2.6-0.7c1,0,1.9,0.2,2.7,0.7c0.8,0.5,1.3,1.1,1.8,1.9s0.6,1.7,0.6,2.8c0,1.1-0.2,2-0.6,2.8s-1,1.5-1.8,1.9
		C540.6,384.2,539.7,384.4,538.7,384.4z M538.7,382.6c1,0,1.7-0.3,2.2-1c0.5-0.7,0.7-1.5,0.7-2.6c0-1.1-0.2-1.9-0.7-2.6
		c-0.5-0.6-1.2-1-2.2-1c-0.7,0-1.2,0.2-1.6,0.5c-0.4,0.3-0.8,0.7-1,1.2c-0.2,0.5-0.3,1.1-0.3,1.8c0,1.1,0.2,1.9,0.7,2.6
		S537.7,382.6,538.7,382.6z"/>
	<path d="M549.9,384.4c-1.2,0-2.3-0.3-3.1-0.8c-0.8-0.6-1.3-1.3-1.4-2.3l2-0.3c0.1,0.5,0.4,1,0.9,1.3c0.5,0.3,1,0.5,1.7,0.5
		c0.6,0,1.1-0.1,1.5-0.4c0.4-0.3,0.5-0.6,0.5-1c0-0.3-0.1-0.5-0.2-0.6c-0.1-0.2-0.4-0.3-0.8-0.5c-0.4-0.1-1-0.3-1.8-0.5
		c-0.9-0.2-1.6-0.5-2.1-0.7c-0.5-0.3-0.9-0.6-1.1-0.9c-0.2-0.4-0.3-0.8-0.3-1.3c0-0.6,0.2-1.2,0.5-1.6c0.3-0.5,0.8-0.8,1.4-1.1
		s1.3-0.4,2.1-0.4c0.8,0,1.5,0.1,2.1,0.4c0.6,0.2,1.1,0.6,1.5,1.1c0.4,0.5,0.6,1,0.7,1.6l-2,0.4c-0.1-0.5-0.3-0.9-0.7-1.2
		s-0.9-0.4-1.5-0.5c-0.6,0-1.1,0.1-1.5,0.3c-0.4,0.2-0.6,0.5-0.6,0.9c0,0.2,0.1,0.4,0.2,0.6c0.1,0.2,0.4,0.3,0.8,0.5
		c0.4,0.1,1,0.3,1.8,0.5c0.9,0.2,1.5,0.5,2.1,0.7s0.9,0.6,1.1,1c0.2,0.4,0.3,0.8,0.3,1.3c0,1-0.4,1.8-1.1,2.4
		C552.3,384.1,551.2,384.4,549.9,384.4z"/>
</g>
<g>
	<path d="M40.2,384.1v-13.7H42l5,10.3l4.9-10.3h1.8v13.7h-1.9v-9.4l-4.4,9.4h-0.9l-4.4-9.4v9.4H40.2z"/>
	<path d="M58.7,384.4c-0.8,0-1.4-0.1-1.9-0.4s-0.9-0.7-1.2-1.1c-0.3-0.5-0.4-1-0.4-1.5c0-0.5,0.1-1,0.3-1.4c0.2-0.4,0.5-0.7,0.8-1
		s0.8-0.5,1.3-0.7c0.5-0.1,1-0.3,1.6-0.4s1.2-0.2,1.8-0.3c0.6-0.1,1.3-0.2,1.9-0.3l-0.7,0.4c0-0.8-0.2-1.4-0.5-1.8
		c-0.4-0.4-1-0.6-1.8-0.6c-0.5,0-1,0.1-1.5,0.4c-0.5,0.3-0.8,0.7-0.9,1.2l-1.9-0.6c0.3-0.9,0.7-1.6,1.5-2.1s1.7-0.8,2.9-0.8
		c0.9,0,1.7,0.2,2.4,0.5c0.7,0.3,1.2,0.8,1.5,1.5c0.2,0.3,0.3,0.7,0.3,1.1c0,0.4,0.1,0.8,0.1,1.2v6.3h-1.8v-2.4l0.3,0.3
		c-0.4,0.8-1,1.4-1.6,1.8C60.5,384.2,59.7,384.4,58.7,384.4z M59.1,382.8c0.6,0,1.1-0.1,1.5-0.3c0.4-0.2,0.7-0.5,1-0.8
		c0.2-0.3,0.4-0.6,0.5-1c0.1-0.3,0.2-0.6,0.2-1c0-0.4,0-0.7,0-0.9l0.6,0.2c-0.6,0.1-1.2,0.2-1.7,0.3c-0.5,0.1-1,0.2-1.4,0.2
		c-0.4,0.1-0.8,0.2-1.1,0.3c-0.3,0.1-0.5,0.2-0.7,0.3c-0.2,0.1-0.4,0.3-0.5,0.5c-0.1,0.2-0.2,0.4-0.2,0.7c0,0.3,0.1,0.5,0.2,0.7
		s0.3,0.4,0.6,0.5C58.3,382.7,58.7,382.8,59.1,382.8z"/>
	<path d="M66.3,384.1v-10.3H68v3h0.2v7.3H66.3z M73.5,384.1v-5.1c0-0.4,0-0.8-0.1-1.2c-0.1-0.4-0.2-0.8-0.4-1.2
		c-0.2-0.4-0.5-0.7-0.8-0.9c-0.3-0.2-0.8-0.3-1.3-0.3c-0.4,0-0.7,0.1-1,0.2s-0.6,0.3-0.8,0.6c-0.2,0.3-0.4,0.6-0.6,1
		c-0.1,0.4-0.2,0.9-0.2,1.6l-1.2-0.5c0-0.9,0.2-1.8,0.5-2.5s0.9-1.3,1.5-1.7c0.7-0.4,1.4-0.6,2.4-0.6c0.7,0,1.3,0.1,1.8,0.3
		s0.9,0.5,1.2,0.9c0.3,0.4,0.5,0.8,0.7,1.2c0.2,0.4,0.3,0.9,0.3,1.3c0.1,0.4,0.1,0.8,0.1,1.1v5.7H73.5z"/>
	<path d="M76.2,375.5v-1.6h7v1.6H76.2z M83.3,384.1c-0.6,0.1-1.3,0.2-1.9,0.2c-0.6,0-1.2-0.1-1.7-0.4c-0.5-0.2-0.9-0.6-1.1-1
		c-0.2-0.4-0.3-0.9-0.4-1.3c0-0.4,0-0.9,0-1.5V371h2v9c0,0.4,0,0.8,0,1.1c0,0.3,0.1,0.6,0.2,0.8c0.2,0.4,0.6,0.6,1.1,0.7
		c0.5,0.1,1.1,0,1.8-0.1V384.1z"/>
	<path d="M89.1,384.4c-1,0-1.9-0.2-2.7-0.7c-0.8-0.4-1.4-1.1-1.8-1.9c-0.4-0.8-0.6-1.7-0.6-2.8c0-1.1,0.2-2.1,0.6-2.9s1-1.5,1.8-1.9
		c0.8-0.5,1.6-0.7,2.6-0.7c1,0,1.9,0.2,2.7,0.7c0.7,0.5,1.3,1.2,1.7,2.1c0.4,0.9,0.5,2,0.4,3.2h-2v-0.7c0-1.2-0.2-2.1-0.7-2.6
		c-0.4-0.6-1.1-0.9-2-0.9c-1,0-1.7,0.3-2.2,0.9c-0.5,0.6-0.8,1.5-0.8,2.7c0,1.1,0.3,2,0.8,2.6c0.5,0.6,1.2,0.9,2.2,0.9
		c0.6,0,1.2-0.1,1.6-0.4c0.5-0.3,0.8-0.7,1.1-1.2l2,0.6c-0.4,0.9-1,1.6-1.8,2.1C91,384.2,90.1,384.4,89.1,384.4z M85.4,379.6V378
		h7.3v1.6H85.4z"/>
	<path d="M95.4,384.1v-10.3h1.8v3h0.2v7.3H95.4z M102.6,384.1v-5.1c0-0.4,0-0.8-0.1-1.2c-0.1-0.4-0.2-0.8-0.4-1.2
		c-0.2-0.4-0.5-0.7-0.8-0.9c-0.3-0.2-0.8-0.3-1.3-0.3c-0.4,0-0.7,0.1-1,0.2s-0.6,0.3-0.8,0.6c-0.2,0.3-0.4,0.6-0.6,1
		c-0.1,0.4-0.2,0.9-0.2,1.6l-1.2-0.5c0-0.9,0.2-1.8,0.5-2.5s0.9-1.3,1.5-1.7c0.7-0.4,1.4-0.6,2.4-0.6c0.7,0,1.3,0.1,1.8,0.3
		s0.9,0.5,1.2,0.9c0.3,0.4,0.5,0.8,0.7,1.2c0.2,0.4,0.3,0.9,0.3,1.3c0.1,0.4,0.1,0.8,0.1,1.1v5.7H102.6z"/>
	<path d="M111.3,384.4c-1,0-1.9-0.2-2.7-0.7c-0.8-0.4-1.4-1.1-1.8-1.9c-0.4-0.8-0.6-1.7-0.6-2.8c0-1.1,0.2-2.1,0.6-2.9
		s1-1.5,1.8-1.9c0.8-0.5,1.6-0.7,2.6-0.7c1,0,1.9,0.2,2.7,0.7c0.7,0.5,1.3,1.2,1.7,2.1c0.4,0.9,0.5,2,0.4,3.2h-2v-0.7
		c0-1.2-0.2-2.1-0.7-2.6c-0.4-0.6-1.1-0.9-2-0.9c-1,0-1.7,0.3-2.2,0.9c-0.5,0.6-0.8,1.5-0.8,2.7c0,1.1,0.3,2,0.8,2.6
		c0.5,0.6,1.2,0.9,2.2,0.9c0.6,0,1.2-0.1,1.6-0.4c0.5-0.3,0.8-0.7,1.1-1.2l2,0.6c-0.4,0.9-1,1.6-1.8,2.1
		C113.2,384.2,112.3,384.4,111.3,384.4z M107.6,379.6V378h7.3v1.6H107.6z"/>
	<path d="M117.6,384.1v-10.3h1.8v2.5l-0.2-0.3c0.1-0.3,0.3-0.6,0.5-0.9c0.2-0.3,0.4-0.5,0.7-0.7c0.3-0.2,0.6-0.3,0.9-0.4
		c0.3-0.1,0.6-0.2,1-0.2c0.3,0,0.7,0,1,0.1v1.9c-0.3-0.1-0.7-0.1-1.1-0.1c-0.4,0-0.8,0.2-1.1,0.4c-0.3,0.2-0.6,0.5-0.8,0.8
		c-0.2,0.3-0.3,0.6-0.4,1c-0.1,0.4-0.1,0.8-0.1,1.2v5.2H117.6z"/>
	<path d="M128.2,384.1v-14h2v14H128.2z"/>
	<path d="M135.3,384.4c-0.8,0-1.4-0.1-1.9-0.4s-0.9-0.7-1.2-1.1c-0.3-0.5-0.4-1-0.4-1.5c0-0.5,0.1-1,0.3-1.4c0.2-0.4,0.5-0.7,0.8-1
		s0.8-0.5,1.3-0.7c0.5-0.1,1-0.3,1.6-0.4s1.2-0.2,1.8-0.3c0.6-0.1,1.3-0.2,1.9-0.3l-0.7,0.4c0-0.8-0.2-1.4-0.5-1.8
		c-0.4-0.4-1-0.6-1.8-0.6c-0.5,0-1,0.1-1.5,0.4c-0.5,0.3-0.8,0.7-0.9,1.2l-1.9-0.6c0.3-0.9,0.7-1.6,1.5-2.1s1.7-0.8,2.9-0.8
		c0.9,0,1.7,0.2,2.4,0.5c0.7,0.3,1.2,0.8,1.5,1.5c0.2,0.3,0.3,0.7,0.3,1.1c0,0.4,0.1,0.8,0.1,1.2v6.3h-1.8v-2.4l0.3,0.3
		c-0.4,0.8-1,1.4-1.6,1.8C137.1,384.2,136.3,384.4,135.3,384.4z M135.7,382.8c0.6,0,1.1-0.1,1.5-0.3c0.4-0.2,0.7-0.5,1-0.8
		c0.2-0.3,0.4-0.6,0.5-1c0.1-0.3,0.2-0.6,0.2-1c0-0.4,0-0.7,0-0.9l0.6,0.2c-0.6,0.1-1.2,0.2-1.7,0.3c-0.5,0.1-1,0.2-1.4,0.2
		c-0.4,0.1-0.8,0.2-1.1,0.3c-0.3,0.1-0.5,0.2-0.7,0.3c-0.2,0.1-0.4,0.3-0.5,0.5c-0.1,0.2-0.2,0.4-0.2,0.7c0,0.3,0.1,0.5,0.2,0.7
		s0.3,0.4,0.6,0.5C134.9,382.7,135.3,382.8,135.7,382.8z"/>
	<path d="M146.7,384.4c-1.2,0-2.3-0.3-3.1-0.8c-0.8-0.6-1.3-1.3-1.4-2.3l2-0.3c0.1,0.5,0.4,1,0.9,1.3c0.5,0.3,1,0.5,1.7,0.5
		c0.6,0,1.1-0.1,1.5-0.4c0.4-0.3,0.5-0.6,0.5-1c0-0.3-0.1-0.5-0.2-0.6c-0.1-0.2-0.4-0.3-0.8-0.5c-0.4-0.1-1-0.3-1.8-0.5
		c-0.9-0.2-1.6-0.5-2.1-0.7c-0.5-0.3-0.9-0.6-1.1-0.9c-0.2-0.4-0.3-0.8-0.3-1.3c0-0.6,0.2-1.2,0.5-1.6c0.3-0.5,0.8-0.8,1.4-1.1
		s1.3-0.4,2.1-0.4c0.8,0,1.5,0.1,2.1,0.4c0.6,0.2,1.1,0.6,1.5,1.1c0.4,0.5,0.6,1,0.7,1.6l-2,0.4c-0.1-0.5-0.3-0.9-0.7-1.2
		s-0.9-0.4-1.5-0.5c-0.6,0-1.1,0.1-1.5,0.3c-0.4,0.2-0.6,0.5-0.6,0.9c0,0.2,0.1,0.4,0.2,0.6c0.1,0.2,0.4,0.3,0.8,0.5
		c0.4,0.1,1,0.3,1.8,0.5c0.9,0.2,1.5,0.5,2.1,0.7c0.5,0.3,0.9,0.6,1.1,1c0.2,0.4,0.3,0.8,0.3,1.3c0,1-0.4,1.8-1.1,2.4
		C149,384.1,148,384.4,146.7,384.4z"/>
	<path d="M156,384.1v-10.3h1.8v3h0.2v7.3H156z M162.2,384.1l0-6.4c0-0.7-0.2-1.3-0.6-1.8c-0.4-0.4-0.9-0.6-1.5-0.6
		c-0.6,0-1.1,0.2-1.5,0.6c-0.4,0.4-0.6,1-0.6,1.7l-1-0.6c0-0.7,0.2-1.3,0.5-1.8s0.8-0.9,1.3-1.2s1.2-0.5,1.9-0.5
		c0.7,0,1.4,0.2,1.9,0.5s0.9,0.7,1.2,1.3c0.3,0.6,0.4,1.2,0.4,1.9l0,6.9H162.2z M168.4,384.1l0-6.4c0-0.7-0.2-1.3-0.6-1.7
		c-0.4-0.4-0.9-0.6-1.5-0.6c-0.4,0-0.7,0.1-1,0.3c-0.3,0.2-0.6,0.4-0.8,0.8c-0.2,0.3-0.3,0.8-0.3,1.3l-1-0.5c0-0.7,0.1-1.4,0.5-1.9
		c0.3-0.5,0.8-1,1.3-1.3c0.6-0.3,1.2-0.5,1.9-0.5c1.1,0,2,0.3,2.6,1c0.6,0.7,0.9,1.6,0.9,2.7l0,6.9H168.4z"/>
	<path d="M177,384.4c-1,0-1.9-0.2-2.7-0.7c-0.8-0.4-1.4-1.1-1.8-1.9c-0.4-0.8-0.6-1.7-0.6-2.8c0-1.1,0.2-2.1,0.6-2.9s1-1.5,1.8-1.9
		c0.8-0.5,1.6-0.7,2.6-0.7c1,0,1.9,0.2,2.7,0.7c0.7,0.5,1.3,1.2,1.7,2.1c0.4,0.9,0.5,2,0.4,3.2h-2v-0.7c0-1.2-0.2-2.1-0.7-2.6
		c-0.4-0.6-1.1-0.9-2-0.9c-1,0-1.7,0.3-2.2,0.9c-0.5,0.6-0.8,1.5-0.8,2.7c0,1.1,0.3,2,0.8,2.6c0.5,0.6,1.2,0.9,2.2,0.9
		c0.6,0,1.2-0.1,1.6-0.4c0.5-0.3,0.8-0.7,1.1-1.2l2,0.6c-0.4,0.9-1,1.6-1.8,2.1C178.9,384.2,178,384.4,177,384.4z M173.3,379.6V378
		h7.3v1.6H173.3z"/>
	<path d="M187.5,384.4c-1,0-1.8-0.2-2.5-0.7c-0.7-0.5-1.2-1.1-1.6-1.9c-0.4-0.8-0.6-1.7-0.6-2.8c0-1,0.2-2,0.6-2.8
		c0.4-0.8,0.9-1.5,1.6-1.9s1.5-0.7,2.5-0.7c1,0,1.8,0.2,2.5,0.7s1.2,1.1,1.5,1.9c0.3,0.8,0.5,1.7,0.5,2.8c0,1-0.2,2-0.5,2.8
		s-0.8,1.5-1.5,1.9C189.3,384.2,188.4,384.4,187.5,384.4z M187.7,382.6c0.7,0,1.2-0.2,1.6-0.5c0.4-0.3,0.7-0.7,0.9-1.3
		c0.2-0.5,0.3-1.2,0.3-1.9c0-0.7-0.1-1.3-0.3-1.9c-0.2-0.5-0.5-1-0.9-1.3c-0.4-0.3-0.9-0.5-1.5-0.5c-0.7,0-1.2,0.2-1.6,0.5
		c-0.4,0.3-0.7,0.8-0.9,1.3c-0.2,0.5-0.3,1.2-0.3,1.8c0,0.7,0.1,1.3,0.3,1.8c0.2,0.5,0.5,1,0.9,1.3
		C186.6,382.5,187.1,382.6,187.7,382.6z M190.5,384.1v-7.4h-0.2v-6.3h2v13.7H190.5z"/>
	<path d="M194.6,372.2v-1.9h2v1.9H194.6z M194.6,384.1v-10.3h2v10.3H194.6z"/>
	<path d="M203,384.4c-1,0-1.8-0.2-2.5-0.7c-0.7-0.5-1.2-1.1-1.6-1.9c-0.4-0.8-0.6-1.7-0.6-2.8c0-1,0.2-2,0.6-2.8
		c0.4-0.8,0.9-1.5,1.6-1.9s1.5-0.7,2.5-0.7c1,0,1.8,0.2,2.5,0.7s1.2,1.1,1.5,1.9c0.3,0.8,0.5,1.7,0.5,2.8c0,1-0.2,2-0.5,2.8
		s-0.8,1.5-1.5,1.9C204.8,384.2,203.9,384.4,203,384.4z M203.2,382.6c0.7,0,1.2-0.2,1.6-0.5c0.4-0.3,0.7-0.7,0.9-1.3
		c0.2-0.5,0.3-1.2,0.3-1.9c0-0.7-0.1-1.3-0.3-1.9c-0.2-0.5-0.5-1-0.9-1.3c-0.4-0.3-0.9-0.5-1.5-0.5c-0.7,0-1.2,0.2-1.6,0.5
		c-0.4,0.3-0.7,0.8-0.9,1.3c-0.2,0.5-0.3,1.2-0.3,1.8c0,0.7,0.1,1.3,0.3,1.8c0.2,0.5,0.5,1,0.9,1.3
		C202.1,382.5,202.6,382.6,203.2,382.6z M206,384.1v-7.4h-0.2v-6.3h2v13.7H206z"/>
	<path d="M212.9,384.4c-0.8,0-1.4-0.1-1.9-0.4s-0.9-0.7-1.2-1.1c-0.3-0.5-0.4-1-0.4-1.5c0-0.5,0.1-1,0.3-1.4c0.2-0.4,0.5-0.7,0.8-1
		s0.8-0.5,1.3-0.7c0.5-0.1,1-0.3,1.6-0.4s1.2-0.2,1.8-0.3c0.6-0.1,1.3-0.2,1.9-0.3l-0.7,0.4c0-0.8-0.2-1.4-0.5-1.8
		c-0.4-0.4-1-0.6-1.8-0.6c-0.5,0-1,0.1-1.5,0.4c-0.5,0.3-0.8,0.7-0.9,1.2l-1.9-0.6c0.3-0.9,0.7-1.6,1.5-2.1s1.7-0.8,2.9-0.8
		c0.9,0,1.7,0.2,2.4,0.5c0.7,0.3,1.2,0.8,1.5,1.5c0.2,0.3,0.3,0.7,0.3,1.1c0,0.4,0.1,0.8,0.1,1.2v6.3h-1.8v-2.4l0.3,0.3
		c-0.4,0.8-1,1.4-1.6,1.8C214.6,384.2,213.8,384.4,212.9,384.4z M213.2,382.8c0.6,0,1.1-0.1,1.5-0.3c0.4-0.2,0.7-0.5,1-0.8
		c0.2-0.3,0.4-0.6,0.5-1c0.1-0.3,0.2-0.6,0.2-1c0-0.4,0-0.7,0-0.9l0.6,0.2c-0.6,0.1-1.2,0.2-1.7,0.3c-0.5,0.1-1,0.2-1.4,0.2
		c-0.4,0.1-0.8,0.2-1.1,0.3c-0.3,0.1-0.5,0.2-0.7,0.3c-0.2,0.1-0.4,0.3-0.5,0.5c-0.1,0.2-0.2,0.4-0.2,0.7c0,0.3,0.1,0.5,0.2,0.7
		s0.3,0.4,0.6,0.5C212.5,382.7,212.8,382.8,213.2,382.8z"/>
	<path d="M224.3,384.4c-1.2,0-2.3-0.3-3.1-0.8c-0.8-0.6-1.3-1.3-1.4-2.3l2-0.3c0.1,0.5,0.4,1,0.9,1.3c0.5,0.3,1,0.5,1.7,0.5
		c0.6,0,1.1-0.1,1.5-0.4c0.4-0.3,0.5-0.6,0.5-1c0-0.3-0.1-0.5-0.2-0.6c-0.1-0.2-0.4-0.3-0.8-0.5c-0.4-0.1-1-0.3-1.8-0.5
		c-0.9-0.2-1.6-0.5-2.1-0.7c-0.5-0.3-0.9-0.6-1.1-0.9c-0.2-0.4-0.3-0.8-0.3-1.3c0-0.6,0.2-1.2,0.5-1.6c0.3-0.5,0.8-0.8,1.4-1.1
		s1.3-0.4,2.1-0.4c0.8,0,1.5,0.1,2.1,0.4c0.6,0.2,1.1,0.6,1.5,1.1c0.4,0.5,0.6,1,0.7,1.6l-2,0.4c-0.1-0.5-0.3-0.9-0.7-1.2
		s-0.9-0.4-1.5-0.5c-0.6,0-1.1,0.1-1.5,0.3c-0.4,0.2-0.6,0.5-0.6,0.9c0,0.2,0.1,0.4,0.2,0.6c0.1,0.2,0.4,0.3,0.8,0.5
		c0.4,0.1,1,0.3,1.8,0.5c0.9,0.2,1.5,0.5,2.1,0.7c0.5,0.3,0.9,0.6,1.1,1c0.2,0.4,0.3,0.8,0.3,1.3c0,1-0.4,1.8-1.1,2.4
		C226.6,384.1,225.6,384.4,224.3,384.4z"/>
	<path d="M236.5,384.4c-0.8,0-1.4-0.1-1.9-0.4s-0.9-0.7-1.2-1.1c-0.3-0.5-0.4-1-0.4-1.5c0-0.5,0.1-1,0.3-1.4c0.2-0.4,0.5-0.7,0.8-1
		s0.8-0.5,1.3-0.7c0.5-0.1,1-0.3,1.6-0.4s1.2-0.2,1.8-0.3c0.6-0.1,1.3-0.2,1.9-0.3l-0.7,0.4c0-0.8-0.2-1.4-0.5-1.8
		c-0.4-0.4-1-0.6-1.8-0.6c-0.5,0-1,0.1-1.5,0.4c-0.5,0.3-0.8,0.7-0.9,1.2l-1.9-0.6c0.3-0.9,0.7-1.6,1.5-2.1s1.7-0.8,2.9-0.8
		c0.9,0,1.7,0.2,2.4,0.5c0.7,0.3,1.2,0.8,1.5,1.5c0.2,0.3,0.3,0.7,0.3,1.1c0,0.4,0.1,0.8,0.1,1.2v6.3h-1.8v-2.4l0.3,0.3
		c-0.4,0.8-1,1.4-1.6,1.8C238.2,384.2,237.4,384.4,236.5,384.4z M236.8,382.8c0.6,0,1.1-0.1,1.5-0.3c0.4-0.2,0.7-0.5,1-0.8
		c0.2-0.3,0.4-0.6,0.5-1c0.1-0.3,0.2-0.6,0.2-1c0-0.4,0-0.7,0-0.9l0.6,0.2c-0.6,0.1-1.2,0.2-1.7,0.3c-0.5,0.1-1,0.2-1.4,0.2
		c-0.4,0.1-0.8,0.2-1.1,0.3c-0.3,0.1-0.5,0.2-0.7,0.3c-0.2,0.1-0.4,0.3-0.5,0.5c-0.1,0.2-0.2,0.4-0.2,0.7c0,0.3,0.1,0.5,0.2,0.7
		s0.3,0.4,0.6,0.5C236.1,382.7,236.4,382.8,236.8,382.8z"/>
	<path d="M248.4,384.4c-1.1,0-1.9-0.2-2.7-0.7c-0.7-0.5-1.3-1.1-1.7-1.9c-0.4-0.8-0.6-1.7-0.6-2.8c0-1.1,0.2-2,0.6-2.8
		c0.4-0.8,1-1.5,1.7-1.9c0.7-0.5,1.6-0.7,2.7-0.7c1.1,0,2.1,0.3,2.9,0.8c0.8,0.6,1.3,1.3,1.6,2.3l-2,0.6c-0.2-0.6-0.5-1-1-1.3
		c-0.4-0.3-1-0.5-1.5-0.5c-0.7,0-1.2,0.2-1.6,0.5s-0.7,0.7-0.9,1.3c-0.2,0.5-0.3,1.1-0.3,1.8c0,1.1,0.2,1.9,0.7,2.6s1.2,1,2.1,1
		c0.6,0,1.2-0.1,1.6-0.4s0.7-0.7,0.9-1.3l2,0.5c-0.3,1-0.9,1.8-1.7,2.3S249.5,384.4,248.4,384.4z"/>
	<path d="M253.5,375.5v-1.6h7v1.6H253.5z M260.5,384.1c-0.6,0.1-1.3,0.2-1.9,0.2c-0.6,0-1.2-0.1-1.7-0.4c-0.5-0.2-0.9-0.6-1.1-1
		c-0.2-0.4-0.3-0.9-0.4-1.3c0-0.4,0-0.9,0-1.5V371h2v9c0,0.4,0,0.8,0,1.1c0,0.3,0.1,0.6,0.2,0.8c0.2,0.4,0.6,0.6,1.1,0.7
		c0.5,0.1,1.1,0,1.8-0.1V384.1z"/>
	<path d="M265.9,384.4c-0.7,0-1.3-0.1-1.8-0.3s-0.9-0.5-1.2-0.9c-0.3-0.4-0.5-0.8-0.7-1.2c-0.2-0.4-0.3-0.9-0.3-1.3
		s-0.1-0.8-0.1-1.1v-5.7h2v5.1c0,0.4,0,0.8,0.1,1.2c0.1,0.4,0.2,0.8,0.4,1.2c0.2,0.4,0.5,0.7,0.8,0.9c0.3,0.2,0.8,0.3,1.3,0.3
		c0.4,0,0.7-0.1,1-0.2c0.3-0.1,0.6-0.3,0.8-0.6c0.2-0.3,0.4-0.6,0.6-1c0.1-0.4,0.2-0.9,0.2-1.6l1.2,0.5c0,0.9-0.2,1.8-0.5,2.5
		s-0.9,1.3-1.5,1.7C267.6,384.2,266.8,384.4,265.9,384.4z M269.3,384.1v-3H269v-7.3h2v10.3H269.3z"/>
	<path d="M276.1,384.4c-0.8,0-1.4-0.1-1.9-0.4s-0.9-0.7-1.2-1.1c-0.3-0.5-0.4-1-0.4-1.5c0-0.5,0.1-1,0.3-1.4c0.2-0.4,0.5-0.7,0.8-1
		s0.8-0.5,1.3-0.7c0.5-0.1,1-0.3,1.6-0.4s1.2-0.2,1.8-0.3c0.6-0.1,1.3-0.2,1.9-0.3l-0.7,0.4c0-0.8-0.2-1.4-0.5-1.8
		c-0.4-0.4-1-0.6-1.8-0.6c-0.5,0-1,0.1-1.5,0.4c-0.5,0.3-0.8,0.7-0.9,1.2l-1.9-0.6c0.3-0.9,0.7-1.6,1.5-2.1s1.7-0.8,2.9-0.8
		c0.9,0,1.7,0.2,2.4,0.5c0.7,0.3,1.2,0.8,1.5,1.5c0.2,0.3,0.3,0.7,0.3,1.1c0,0.4,0.1,0.8,0.1,1.2v6.3h-1.8v-2.4l0.3,0.3
		c-0.4,0.8-1,1.4-1.6,1.8C277.9,384.2,277.1,384.4,276.1,384.4z M276.5,382.8c0.6,0,1.1-0.1,1.5-0.3c0.4-0.2,0.7-0.5,1-0.8
		c0.2-0.3,0.4-0.6,0.5-1c0.1-0.3,0.2-0.6,0.2-1c0-0.4,0-0.7,0-0.9l0.6,0.2c-0.6,0.1-1.2,0.2-1.7,0.3c-0.5,0.1-1,0.2-1.4,0.2
		c-0.4,0.1-0.8,0.2-1.1,0.3c-0.3,0.1-0.5,0.2-0.7,0.3c-0.2,0.1-0.4,0.3-0.5,0.5c-0.1,0.2-0.2,0.4-0.2,0.7c0,0.3,0.1,0.5,0.2,0.7
		s0.3,0.4,0.6,0.5C275.7,382.7,276.1,382.8,276.5,382.8z"/>
	<path d="M283.8,384.1v-14h2v14H283.8z"/>
	<path d="M292.6,384.4c-1,0-1.9-0.2-2.7-0.7c-0.8-0.4-1.4-1.1-1.8-1.9c-0.4-0.8-0.6-1.7-0.6-2.8c0-1.1,0.2-2.1,0.6-2.9
		c0.4-0.8,1-1.5,1.8-1.9c0.8-0.5,1.6-0.7,2.6-0.7c1,0,1.9,0.2,2.7,0.7c0.7,0.5,1.3,1.2,1.7,2.1c0.4,0.9,0.5,2,0.4,3.2h-2v-0.7
		c0-1.2-0.2-2.1-0.7-2.6c-0.4-0.6-1.1-0.9-2-0.9c-1,0-1.7,0.3-2.2,0.9c-0.5,0.6-0.8,1.5-0.8,2.7c0,1.1,0.3,2,0.8,2.6
		c0.5,0.6,1.2,0.9,2.2,0.9c0.6,0,1.2-0.1,1.6-0.4c0.5-0.3,0.8-0.7,1.1-1.2l2,0.6c-0.4,0.9-1,1.6-1.8,2.1
		C294.5,384.2,293.6,384.4,292.6,384.4z M289,379.6V378h7.3v1.6H289z"/>
	<path d="M302.9,384.4c-1.3,0-2.3-0.3-3.1-0.8c-0.8-0.6-1.3-1.3-1.4-2.3l2-0.3c0.1,0.5,0.4,1,0.9,1.3c0.5,0.3,1,0.5,1.7,0.5
		c0.6,0,1.1-0.1,1.5-0.4c0.4-0.3,0.5-0.6,0.5-1c0-0.3-0.1-0.5-0.2-0.6c-0.1-0.2-0.4-0.3-0.8-0.5c-0.4-0.1-1-0.3-1.8-0.5
		c-0.9-0.2-1.6-0.5-2.1-0.7c-0.5-0.3-0.9-0.6-1.1-0.9c-0.2-0.4-0.3-0.8-0.3-1.3c0-0.6,0.2-1.2,0.5-1.6c0.3-0.5,0.8-0.8,1.4-1.1
		s1.3-0.4,2.1-0.4c0.8,0,1.5,0.1,2.1,0.4c0.6,0.2,1.1,0.6,1.5,1.1c0.4,0.5,0.6,1,0.7,1.6l-2,0.4c-0.1-0.5-0.3-0.9-0.7-1.2
		s-0.9-0.4-1.5-0.5c-0.6,0-1.1,0.1-1.5,0.3c-0.4,0.2-0.6,0.5-0.6,0.9c0,0.2,0.1,0.4,0.2,0.6c0.1,0.2,0.4,0.3,0.8,0.5
		c0.4,0.1,1,0.3,1.8,0.5c0.9,0.2,1.5,0.5,2.1,0.7s0.9,0.6,1.1,1c0.2,0.4,0.3,0.8,0.3,1.3c0,1-0.4,1.8-1.1,2.4
		C305.2,384.1,304.2,384.4,302.9,384.4z"/>
</g>
</svg>
