<?xml version="1.0" encoding="utf-8"?>
<!-- Generator: Adobe Illustrator 27.7.0, SVG Export Plug-In . SVG Version: 6.00 Build 0)  -->
<svg version="1.1" id="Layer_2" xmlns="http://www.w3.org/2000/svg" xmlns:xlink="http://www.w3.org/1999/xlink" x="0px" y="0px"
	 viewBox="0 0 869.4 435.5" style="enable-background:new 0 0 869.4 435.5;" xml:space="preserve">
<style type="text/css">
	.st0{fill:none;stroke:url(#SVGID_1_);stroke-width:10.37;stroke-linecap:round;stroke-miterlimit:10;}
	
		.st1{fill:none;stroke:url(#SVGID_00000016788422146821469000000014066534402564341943_);stroke-width:10.37;stroke-linecap:round;stroke-miterlimit:10;}
	
		.st2{fill:none;stroke:url(#SVGID_00000046308149990784854130000008453515029988709297_);stroke-width:10.37;stroke-linecap:round;stroke-miterlimit:10;}
	
		.st3{fill:none;stroke:url(#SVGID_00000090278710391862400940000005471801333583014792_);stroke-width:10.37;stroke-linecap:round;stroke-miterlimit:10;}
	
		.st4{fill:none;stroke:url(#SVGID_00000180364355303449414010000007885723838318527932_);stroke-width:10.37;stroke-linecap:round;stroke-miterlimit:10;}
	
		.st5{fill:none;stroke:url(#SVGID_00000012442614105303898920000002020899535412899220_);stroke-width:10.37;stroke-linecap:round;stroke-miterlimit:10;}
	.st6{font-family:'Manrope-SemiBold';}
	.st7{font-size:38.2385px;}
</style>
<linearGradient id="SVGID_1_" gradientUnits="userSpaceOnUse" x1="635.0316" y1="64.5452" x2="842.6286" y2="64.5452" gradientTransform="matrix(0.75 1.047197e-03 7.417649e-04 -1 -403.0651 436.4109)">
	<stop  offset="0" style="stop-color:#5454A8"/>
	<stop  offset="0.28" style="stop-color:#6661B3"/>
	<stop  offset="0.73" style="stop-color:#7F71C2"/>
	<stop  offset="1" style="stop-color:#8878C8"/>
</linearGradient>
<line class="st0" x1="77.5" y1="372.6" x2="225.6" y2="372.6"/>
<linearGradient id="SVGID_00000046311763372691998540000015044871617822161055_" gradientUnits="userSpaceOnUse" x1="-4.999638e-03" y1="62.6517" x2="82.505" y2="62.6517" gradientTransform="matrix(1 0 0 -1 0 434.7717)">
	<stop  offset="0" style="stop-color:#8878C8"/>
	<stop  offset="0.27" style="stop-color:#7F71C2"/>
	<stop  offset="0.72" style="stop-color:#6661B3"/>
	<stop  offset="1" style="stop-color:#5454A8"/>
</linearGradient>
<circle style="fill:none;stroke:url(#SVGID_00000046311763372691998540000015044871617822161055_);stroke-width:10.37;stroke-linecap:round;stroke-miterlimit:10;" cx="41.2" cy="372.1" r="36.1"/>
<path d="M42,389.1c-1.5,0-2.9-0.3-4.2-0.9s-2.5-1.4-3.5-2.5c-1-1.1-1.7-2.3-2.1-3.8l4.8-1.3c0.3,1.2,1,2.1,1.9,2.8
	c0.9,0.6,1.9,1,3,0.9c1,0,1.9-0.2,2.6-0.7c0.8-0.5,1.4-1.1,1.8-1.9c0.4-0.8,0.7-1.7,0.7-2.6c0-1.5-0.5-2.7-1.4-3.7
	c-1-1-2.2-1.5-3.7-1.5c-0.5,0-0.9,0.1-1.3,0.2c-0.4,0.1-0.8,0.3-1.2,0.5l-2.3-3.9l10-8.6l0.4,1.2H33.4v-4.7h18.3v4.7l-8.1,7.8l0-1.5
	c1.8,0.1,3.3,0.6,4.6,1.5s2.3,2,2.9,3.4c0.7,1.4,1,2.9,1,4.6c0,1.9-0.5,3.6-1.4,5.1c-0.9,1.5-2.2,2.7-3.7,3.5
	C45.6,388.7,43.9,389.1,42,389.1L42,389.1z"/>
<linearGradient id="SVGID_00000045607378193191235110000017398993776145268406_" gradientUnits="userSpaceOnUse" x1="72.345" y1="228.0816" x2="230.8337" y2="228.0816" gradientTransform="matrix(1 0 0 -1 0 434.7717)">
	<stop  offset="0" style="stop-color:#5454A8"/>
	<stop  offset="0.28" style="stop-color:#6661B3"/>
	<stop  offset="0.73" style="stop-color:#7F71C2"/>
	<stop  offset="1" style="stop-color:#8878C8"/>
</linearGradient>
<line style="fill:none;stroke:url(#SVGID_00000045607378193191235110000017398993776145268406_);stroke-width:10.37;stroke-linecap:round;stroke-miterlimit:10;" x1="77.5" y1="206.7" x2="225.6" y2="206.7"/>
<linearGradient id="SVGID_00000061430315527805432150000009365147229082640564_" gradientUnits="userSpaceOnUse" x1="-4.999638e-03" y1="228.0816" x2="82.505" y2="228.0816" gradientTransform="matrix(1 0 0 -1 0 434.7717)">
	<stop  offset="0" style="stop-color:#8878C8"/>
	<stop  offset="0.27" style="stop-color:#7F71C2"/>
	<stop  offset="0.72" style="stop-color:#6661B3"/>
	<stop  offset="1" style="stop-color:#5454A8"/>
</linearGradient>
<circle style="fill:none;stroke:url(#SVGID_00000061430315527805432150000009365147229082640564_);stroke-width:10.37;stroke-linecap:round;stroke-miterlimit:10;" cx="41.2" cy="206.7" r="36.1"/>
<path d="M31,220.3V216l12.8-11.4c1-0.9,1.7-1.7,2.1-2.5c0.4-0.8,0.6-1.6,0.6-2.3c0-1-0.2-1.9-0.6-2.7s-1-1.4-1.8-1.9
	s-1.6-0.7-2.6-0.7c-1,0-2,0.2-2.8,0.7c-0.8,0.5-1.4,1.1-1.9,1.9c-0.4,0.8-0.7,1.6-0.6,2.6H31c0-2,0.5-3.7,1.3-5.2s2.1-2.6,3.7-3.4
	s3.4-1.2,5.4-1.2c1.9,0,3.6,0.4,5.1,1.3s2.7,2,3.6,3.5s1.3,3.2,1.3,5.2c0,1.4-0.2,2.6-0.6,3.6c-0.4,1-1,1.9-1.7,2.7
	s-1.7,1.7-2.8,2.7l-9.1,8l-0.5-1.2h14.7v4.7L31,220.3L31,220.3z"/>
<linearGradient id="SVGID_00000038390837259341095260000016182732334203747761_" gradientUnits="userSpaceOnUse" x1="72.345" y1="393.5217" x2="230.8337" y2="393.5217" gradientTransform="matrix(1 0 0 -1 0 434.7717)">
	<stop  offset="0" style="stop-color:#5454A8"/>
	<stop  offset="0.28" style="stop-color:#6661B3"/>
	<stop  offset="0.73" style="stop-color:#7F71C2"/>
	<stop  offset="1" style="stop-color:#8878C8"/>
</linearGradient>
<line style="fill:none;stroke:url(#SVGID_00000038390837259341095260000016182732334203747761_);stroke-width:10.37;stroke-linecap:round;stroke-miterlimit:10;" x1="77.5" y1="41.2" x2="225.6" y2="41.2"/>
<linearGradient id="SVGID_00000091015381480776490680000014113751499209741730_" gradientUnits="userSpaceOnUse" x1="-4.999638e-03" y1="393.5217" x2="82.505" y2="393.5217" gradientTransform="matrix(1 0 0 -1 0 434.7717)">
	<stop  offset="0" style="stop-color:#8878C8"/>
	<stop  offset="0.27" style="stop-color:#7F71C2"/>
	<stop  offset="0.72" style="stop-color:#6661B3"/>
	<stop  offset="1" style="stop-color:#5454A8"/>
</linearGradient>
<circle style="fill:none;stroke:url(#SVGID_00000091015381480776490680000014113751499209741730_);stroke-width:10.37;stroke-linecap:round;stroke-miterlimit:10;" cx="41.2" cy="41.2" r="36.1"/>
<path d="M41.1,54.9V30.5L35.5,34v-5.5l5.6-3.4h5.1v29.8H41.1z"/>
<text transform="matrix(1 0 0 1 259.5517 53.7108)"><tspan x="0" y="0" class="st6 st7">Medidas de sensibilización a </tspan><tspan x="0" y="45.9" class="st6 st7">través de apps de comunicación</tspan></text>
<text transform="matrix(1 0 0 1 259.5517 220.9802)"><tspan x="0" y="0" class="st6 st7">Formación </tspan><tspan x="0" y="45.9" class="st6 st7">personalizada</tspan></text>
<text transform="matrix(1 0 0 1 259.5517 385.46)"><tspan x="0" y="0" class="st6 st7">Customización de los </tspan><tspan x="0" y="45.9" class="st6 st7">programas de concienciación</tspan></text>
</svg>
