<?xml version="1.0" encoding="utf-8"?>
<!-- Generator: Adobe Illustrator 27.7.0, SVG Export Plug-In . SVG Version: 6.00 Build 0)  -->
<svg version="1.1" id="Ebene_2_00000150820979610590841310000011640588146199350155_"
	 xmlns="http://www.w3.org/2000/svg" xmlns:xlink="http://www.w3.org/1999/xlink" x="0px" y="0px" viewBox="0 0 603.3 321.4"
	 style="enable-background:new 0 0 603.3 321.4;" xml:space="preserve">
<style type="text/css">
	.st0{fill:none;stroke:url(#SVGID_1_);stroke-width:8.9959;stroke-linecap:round;stroke-miterlimit:10;}
	
		.st1{fill:none;stroke:url(#SVGID_00000021828332318718919630000003514352668873997213_);stroke-width:9.99;stroke-linecap:round;stroke-miterlimit:10;}
	
		.st2{fill:none;stroke:url(#SVGID_00000039838360986139559640000011187903768091052705_);stroke-width:8.9959;stroke-linecap:round;stroke-miterlimit:10;}
	
		.st3{fill:none;stroke:url(#SVGID_00000153702145542292789820000007964460346072839090_);stroke-width:9.99;stroke-linecap:round;stroke-miterlimit:10;}
	
		.st4{fill:none;stroke:url(#SVGID_00000183209872258246766630000005060165769741297328_);stroke-width:8.9959;stroke-linecap:round;stroke-miterlimit:10;}
	
		.st5{fill:none;stroke:url(#SVGID_00000088831106688144026860000007080245531313576856_);stroke-width:9.99;stroke-linecap:round;stroke-miterlimit:10;}
</style>
<linearGradient id="SVGID_1_" gradientUnits="userSpaceOnUse" x1="12.9001" y1="38.529" x2="329.8302" y2="38.529" gradientTransform="matrix(0.78 1.361356e-03 1.064651e-03 -1 61.1388 320.4066)">
	<stop  offset="0" style="stop-color:#5454A8"/>
	<stop  offset="0.28" style="stop-color:#6661B3"/>
	<stop  offset="0.73" style="stop-color:#7F71C2"/>
	<stop  offset="1" style="stop-color:#8878C8"/>
</linearGradient>
<line class="st0" x1="74.8" y1="282.1" x2="313.9" y2="282.1"/>
<linearGradient id="SVGID_00000044895106021675752260000009493149062300208001_" gradientUnits="userSpaceOnUse" x1="-4.998207e-03" y1="39.1617" x2="79.545" y2="39.1617" gradientTransform="matrix(1 0 0 -1 0 320.7717)">
	<stop  offset="0" style="stop-color:#8878C8"/>
	<stop  offset="0.27" style="stop-color:#7F71C2"/>
	<stop  offset="0.72" style="stop-color:#6661B3"/>
	<stop  offset="1" style="stop-color:#5454A8"/>
</linearGradient>
<circle style="fill:none;stroke:url(#SVGID_00000044895106021675752260000009493149062300208001_);stroke-width:9.99;stroke-linecap:round;stroke-miterlimit:10;" cx="39.8" cy="281.6" r="34.8"/>
<path d="M40.5,298c-1.4,0-2.8-0.3-4.1-0.8s-2.4-1.4-3.3-2.4c-0.9-1-1.6-2.2-2-3.6l4.7-1.3c0.3,1.1,0.9,2,1.8,2.6
	c0.9,0.6,1.9,0.9,2.9,0.9c1,0,1.8-0.2,2.5-0.7s1.3-1,1.8-1.8c0.4-0.8,0.6-1.6,0.6-2.5c0-1.4-0.5-2.6-1.4-3.6c-0.9-1-2.1-1.4-3.6-1.4
	c-0.4,0-0.9,0.1-1.3,0.2c-0.4,0.1-0.8,0.3-1.2,0.5l-2.2-3.8l9.7-8.3l0.4,1.2H32.2v-4.5h17.6v4.6l-7.8,7.5l0-1.4
	c1.8,0.1,3.2,0.6,4.5,1.5c1.2,0.9,2.2,2,2.8,3.3s1,2.8,1,4.4c0,1.8-0.4,3.4-1.3,4.9c-0.9,1.4-2.1,2.6-3.6,3.4S42.3,298,40.5,298
	L40.5,298z"/>
<linearGradient id="SVGID_00000094584716981157322280000009926832323770819738_" gradientUnits="userSpaceOnUse" x1="70.2521" y1="160.0816" x2="318.3592" y2="160.0816" gradientTransform="matrix(1 0 0 -1 0 320.7717)">
	<stop  offset="0" style="stop-color:#5454A8"/>
	<stop  offset="0.28" style="stop-color:#6661B3"/>
	<stop  offset="0.73" style="stop-color:#7F71C2"/>
	<stop  offset="1" style="stop-color:#8878C8"/>
</linearGradient>
<line style="fill:none;stroke:url(#SVGID_00000094584716981157322280000009926832323770819738_);stroke-width:8.9959;stroke-linecap:round;stroke-miterlimit:10;" x1="74.8" y1="160.7" x2="313.9" y2="160.7"/>
<linearGradient id="SVGID_00000008843313931331494050000011708826771059117476_" gradientUnits="userSpaceOnUse" x1="-4.998207e-03" y1="160.0816" x2="79.545" y2="160.0816" gradientTransform="matrix(1 0 0 -1 0 320.7717)">
	<stop  offset="0" style="stop-color:#8878C8"/>
	<stop  offset="0.27" style="stop-color:#7F71C2"/>
	<stop  offset="0.72" style="stop-color:#6661B3"/>
	<stop  offset="1" style="stop-color:#5454A8"/>
</linearGradient>
<circle style="fill:none;stroke:url(#SVGID_00000008843313931331494050000011708826771059117476_);stroke-width:9.99;stroke-linecap:round;stroke-miterlimit:10;" cx="39.8" cy="160.7" r="34.8"/>
<path d="M29.9,173.8v-4.2l12.3-11c1-0.9,1.6-1.7,2-2.4s0.6-1.5,0.6-2.2c0-1-0.2-1.8-0.6-2.6c-0.4-0.8-1-1.4-1.7-1.8
	c-0.7-0.4-1.6-0.7-2.5-0.7c-1,0-1.9,0.2-2.7,0.7s-1.4,1.1-1.8,1.8s-0.6,1.6-0.6,2.5h-5c0-1.9,0.4-3.6,1.3-5s2-2.5,3.6-3.3
	c1.5-0.8,3.3-1.2,5.2-1.2c1.8,0,3.5,0.4,5,1.2c1.5,0.8,2.6,1.9,3.5,3.4s1.3,3.1,1.3,5c0,1.4-0.2,2.5-0.6,3.5
	c-0.4,0.9-0.9,1.8-1.7,2.6c-0.7,0.8-1.7,1.7-2.8,2.6l-8.7,7.7l-0.4-1.2h14.2v4.5C49.7,173.8,29.9,173.8,29.9,173.8z"/>
<linearGradient id="SVGID_00000002362439650419036530000011387860998087288501_" gradientUnits="userSpaceOnUse" x1="70.2521" y1="281.0016" x2="318.3592" y2="281.0016" gradientTransform="matrix(1 0 0 -1 0 320.7717)">
	<stop  offset="0" style="stop-color:#5454A8"/>
	<stop  offset="0.28" style="stop-color:#6661B3"/>
	<stop  offset="0.73" style="stop-color:#7F71C2"/>
	<stop  offset="1" style="stop-color:#8878C8"/>
</linearGradient>
<line style="fill:none;stroke:url(#SVGID_00000002362439650419036530000011387860998087288501_);stroke-width:8.9959;stroke-linecap:round;stroke-miterlimit:10;" x1="74.8" y1="39.8" x2="313.9" y2="39.8"/>
<linearGradient id="SVGID_00000041264682524502764840000017528545065710567067_" gradientUnits="userSpaceOnUse" x1="-4.998207e-03" y1="281.0016" x2="79.545" y2="281.0016" gradientTransform="matrix(1 0 0 -1 0 320.7717)">
	<stop  offset="0" style="stop-color:#8878C8"/>
	<stop  offset="0.27" style="stop-color:#7F71C2"/>
	<stop  offset="0.72" style="stop-color:#6661B3"/>
	<stop  offset="1" style="stop-color:#5454A8"/>
</linearGradient>
<circle style="fill:none;stroke:url(#SVGID_00000041264682524502764840000017528545065710567067_);stroke-width:9.99;stroke-linecap:round;stroke-miterlimit:10;" cx="39.8" cy="39.8" r="34.8"/>
<path d="M39.7,53V29.4l-5.4,3.3v-5.3l5.4-3.2h4.9V53H39.7z"/>
<g>
	<path d="M357.3,296.3c-2.3,0-4.3-0.4-6.1-1.2c-1.8-0.8-3.3-1.9-4.5-3.4c-1.2-1.5-1.9-3.2-2.3-5.2l4.8-0.7c0.5,1.9,1.5,3.4,3,4.5
		c1.5,1.1,3.3,1.6,5.4,1.6c1.3,0,2.4-0.2,3.5-0.6c1.1-0.4,1.9-1,2.6-1.7s1-1.7,1-2.7c0-0.6-0.1-1.1-0.3-1.5
		c-0.2-0.4-0.5-0.8-0.8-1.2s-0.8-0.6-1.2-0.9c-0.5-0.2-1-0.5-1.6-0.6l-8.1-2.4c-0.8-0.2-1.6-0.5-2.4-0.9s-1.6-0.9-2.2-1.5
		c-0.7-0.6-1.2-1.4-1.7-2.3c-0.4-0.9-0.6-2-0.6-3.3c0-1.9,0.5-3.6,1.5-4.9c1-1.4,2.4-2.4,4.1-3.1c1.7-0.7,3.6-1,5.7-1
		c2.1,0,4,0.4,5.7,1.1s3.1,1.8,4.2,3.1c1.1,1.4,1.9,3,2.3,5l-4.9,0.8c-0.2-1.2-0.7-2.2-1.4-3.1c-0.7-0.9-1.6-1.5-2.6-2
		c-1-0.5-2.2-0.7-3.4-0.7c-1.2,0-2.2,0.1-3.2,0.5c-1,0.4-1.7,0.9-2.3,1.6c-0.6,0.7-0.9,1.5-0.9,2.4c0,0.9,0.3,1.6,0.8,2.1
		c0.5,0.5,1.1,1,1.9,1.3s1.5,0.6,2.2,0.8l5.8,1.6c0.7,0.2,1.6,0.5,2.5,0.8s1.8,0.8,2.7,1.4s1.6,1.4,2.2,2.4s0.9,2.3,0.9,3.8
		c0,1.6-0.3,3-1,4.2c-0.6,1.2-1.5,2.2-2.6,3c-1.1,0.8-2.4,1.4-3.9,1.8C360.5,296.1,359,296.3,357.3,296.3z"/>
	<path d="M385.2,296.3c-2.4,0-4.4-0.5-6.2-1.5c-1.8-1-3.2-2.5-4.1-4.3c-1-1.9-1.5-4-1.5-6.4c0-2.6,0.5-4.8,1.5-6.7s2.3-3.4,4.1-4.4
		c1.7-1,3.8-1.6,6.1-1.6c2.4,0,4.5,0.6,6.2,1.7c1.7,1.1,3,2.7,3.8,4.8s1.2,4.5,1,7.3h-4.6v-1.7c0-2.7-0.6-4.8-1.6-6.1s-2.6-2-4.6-2
		c-2.3,0-4,0.7-5.2,2.2c-1.2,1.4-1.7,3.5-1.7,6.3c0,2.6,0.6,4.6,1.7,6s2.8,2.1,5,2.1c1.4,0,2.7-0.3,3.7-1c1-0.7,1.9-1.6,2.4-2.8
		l4.5,1.4c-0.9,2.1-2.3,3.8-4.2,4.9S387.5,296.3,385.2,296.3z M376.7,285.1v-3.6h16.9v3.6H376.7z"/>
	<path d="M410.9,296.3c-2.2,0-4.1-0.5-5.7-1.6s-2.8-2.6-3.7-4.5c-0.9-1.9-1.3-4-1.3-6.4c0-2.4,0.4-4.5,1.3-6.4
		c0.9-1.9,2.1-3.4,3.7-4.5s3.5-1.6,5.8-1.6c2.2,0,4.1,0.5,5.6,1.6s2.7,2.6,3.5,4.5s1.2,4,1.2,6.4c0,2.4-0.4,4.5-1.2,6.4
		s-2,3.4-3.5,4.5C415,295.8,413.1,296.3,410.9,296.3z M411.2,306.8c-1.3,0-2.5-0.2-3.7-0.6c-1.2-0.4-2.3-1-3.3-1.7
		c-1-0.8-1.8-1.7-2.4-2.8l4.2-2.1c0.5,1,1.2,1.7,2.2,2.2c1,0.5,2,0.7,3,0.7c1.3,0,2.4-0.2,3.3-0.7c0.9-0.5,1.6-1.2,2.1-2.1
		c0.5-0.9,0.7-2.1,0.7-3.4v-6.6h0.5V272h4.1v24.3c0,0.6,0,1.2-0.1,1.8c0,0.6-0.1,1.1-0.2,1.7c-0.3,1.6-1,2.9-1.9,3.9
		c-0.9,1-2.1,1.8-3.6,2.3C414.7,306.6,413.1,306.8,411.2,306.8z M411.5,292.2c1.5,0,2.7-0.4,3.7-1.1c1-0.7,1.6-1.7,2.1-3
		s0.7-2.7,0.7-4.3s-0.2-3.1-0.7-4.3c-0.4-1.3-1.1-2.2-2.1-2.9c-0.9-0.7-2.1-1.1-3.5-1.1c-1.5,0-2.8,0.4-3.8,1.1
		c-1,0.7-1.7,1.7-2.2,3c-0.5,1.3-0.7,2.7-0.7,4.2c0,1.6,0.2,3,0.7,4.2c0.5,1.3,1.2,2.3,2.2,3C408.8,291.8,410.1,292.2,411.5,292.2z"
		/>
	<path d="M437.7,296.3c-1.6,0-3-0.3-4.1-0.8c-1.1-0.5-2-1.2-2.7-2.1c-0.7-0.9-1.2-1.8-1.6-2.8c-0.4-1-0.6-2-0.7-3
		c-0.1-1-0.2-1.8-0.2-2.5V272h4.7v11.6c0,0.9,0.1,1.9,0.2,2.8s0.4,1.9,0.9,2.7c0.4,0.8,1,1.5,1.8,2c0.8,0.5,1.8,0.8,3.1,0.8
		c0.8,0,1.6-0.1,2.3-0.4s1.4-0.7,1.9-1.3c0.5-0.6,1-1.4,1.3-2.4c0.3-1,0.5-2.2,0.5-3.6l2.9,1.1c0,2.2-0.4,4-1.2,5.7s-2,2.9-3.5,3.8
		C441.7,295.8,439.9,296.3,437.7,296.3z M445.6,295.7v-6.8H445V272h4.6v23.7H445.6z"/>
	<path d="M456.3,295.7V272h4.1v5.7l-0.6-0.7c0.3-0.8,0.7-1.5,1.1-2.1c0.5-0.6,1-1.2,1.6-1.6c0.6-0.4,1.3-0.8,2-1
		c0.7-0.2,1.5-0.4,2.3-0.4c0.8-0.1,1.5,0,2.2,0.1v4.3c-0.8-0.2-1.6-0.3-2.6-0.2c-0.9,0.1-1.8,0.4-2.6,0.9c-0.7,0.5-1.3,1.1-1.8,1.8
		c-0.4,0.7-0.7,1.5-0.9,2.3c-0.2,0.8-0.3,1.7-0.3,2.7v12H456.3z"/>
	<path d="M473.8,268.1v-4.5h4.6v4.5H473.8z M473.8,295.7V272h4.6v23.7H473.8z"/>
	<path d="M494.8,296.3c-2.2,0-4.1-0.5-5.7-1.6s-2.8-2.6-3.7-4.5c-0.9-1.9-1.3-4-1.3-6.4c0-2.4,0.4-4.5,1.3-6.4
		c0.9-1.9,2.1-3.4,3.7-4.5s3.5-1.6,5.8-1.6c2.2,0,4.1,0.5,5.6,1.6s2.7,2.6,3.5,4.5s1.2,4,1.2,6.4c0,2.4-0.4,4.5-1.2,6.4
		s-2,3.4-3.5,4.5C498.9,295.8,497,296.3,494.8,296.3z M495.4,292.2c1.5,0,2.7-0.4,3.7-1.1c1-0.7,1.6-1.7,2.1-3s0.7-2.7,0.7-4.3
		s-0.2-3.1-0.7-4.3c-0.4-1.3-1.1-2.2-2.1-2.9c-0.9-0.7-2.1-1.1-3.5-1.1c-1.5,0-2.8,0.4-3.8,1.1c-1,0.7-1.7,1.7-2.2,3
		c-0.5,1.3-0.7,2.7-0.7,4.2c0,1.6,0.2,3,0.7,4.2c0.5,1.3,1.2,2.3,2.2,3C492.7,291.8,493.9,292.2,495.4,292.2z M501.8,295.7v-17h-0.5
		v-14.5h4.6v31.6H501.8z"/>
	<path d="M519.3,296.3c-1.8,0-3.2-0.3-4.4-1s-2.1-1.5-2.7-2.6c-0.6-1.1-0.9-2.3-0.9-3.5c0-1.2,0.2-2.3,0.6-3.2
		c0.4-0.9,1.1-1.7,1.9-2.3c0.8-0.6,1.9-1.2,3.1-1.5c1.1-0.3,2.2-0.6,3.6-0.8c1.3-0.2,2.7-0.5,4.2-0.7s2.9-0.4,4.4-0.6l-1.7,0.9
		c0-1.9-0.4-3.2-1.2-4.1c-0.8-0.9-2.2-1.3-4.2-1.3c-1.2,0-2.4,0.3-3.4,0.9c-1,0.6-1.8,1.5-2.2,2.9l-4.3-1.3c0.6-2,1.7-3.6,3.3-4.8
		c1.6-1.2,3.8-1.8,6.6-1.8c2.1,0,4,0.4,5.5,1.1c1.6,0.7,2.7,1.9,3.5,3.4c0.4,0.8,0.6,1.6,0.7,2.5c0.1,0.9,0.1,1.8,0.1,2.8v14.6h-4.1
		v-5.4l0.8,0.7c-1,1.8-2.2,3.2-3.7,4S521.5,296.3,519.3,296.3z M520.1,292.6c1.3,0,2.4-0.2,3.4-0.7c0.9-0.5,1.7-1,2.3-1.8
		c0.6-0.7,0.9-1.5,1.1-2.2c0.2-0.7,0.4-1.5,0.4-2.4c0-0.9,0.1-1.6,0.1-2.1l1.5,0.5c-1.4,0.2-2.8,0.4-3.9,0.6
		c-1.2,0.2-2.3,0.3-3.2,0.5c-1,0.2-1.8,0.4-2.6,0.6c-0.6,0.2-1.2,0.5-1.7,0.8c-0.5,0.3-0.9,0.7-1.2,1.1c-0.3,0.4-0.4,1-0.4,1.6
		c0,0.6,0.2,1.2,0.5,1.7c0.3,0.5,0.8,0.9,1.4,1.2C518.3,292.4,519.1,292.6,520.1,292.6z"/>
	<path d="M547.7,296.3c-2.2,0-4.1-0.5-5.7-1.6s-2.8-2.6-3.7-4.5c-0.9-1.9-1.3-4-1.3-6.4c0-2.4,0.4-4.5,1.3-6.4
		c0.9-1.9,2.1-3.4,3.7-4.5s3.5-1.6,5.8-1.6c2.2,0,4.1,0.5,5.6,1.6s2.7,2.6,3.5,4.5s1.2,4,1.2,6.4c0,2.4-0.4,4.5-1.2,6.4
		s-2,3.4-3.5,4.5C551.9,295.8,550,296.3,547.7,296.3z M548.4,292.2c1.5,0,2.7-0.4,3.7-1.1c1-0.7,1.6-1.7,2.1-3s0.7-2.7,0.7-4.3
		s-0.2-3.1-0.7-4.3c-0.4-1.3-1.1-2.2-2.1-2.9c-0.9-0.7-2.1-1.1-3.5-1.1c-1.5,0-2.8,0.4-3.8,1.1c-1,0.7-1.7,1.7-2.2,3
		c-0.5,1.3-0.7,2.7-0.7,4.2c0,1.6,0.2,3,0.7,4.2c0.5,1.3,1.2,2.3,2.2,3C545.7,291.8,546.9,292.2,548.4,292.2z M554.8,295.7v-17h-0.5
		v-14.5h4.6v31.6H554.8z"/>
</g>
<g>
	<path d="M345.4,175.4v-31.6h18.7v4.6H350v8.9h11.5v4.6H350v13.5H345.4z"/>
	<path d="M368.5,147.8v-4.5h4.6v4.5H368.5z M368.5,175.4v-23.7h4.6v23.7H368.5z"/>
	<path d="M379.9,175.4v-23.7h4.1v6.8h0.5v16.8H379.9z M396.6,175.4v-11.6c0-0.9-0.1-1.9-0.2-2.8c-0.2-1-0.4-1.9-0.9-2.7
		c-0.4-0.8-1-1.5-1.8-2c-0.8-0.5-1.8-0.8-3.1-0.8c-0.8,0-1.6,0.1-2.3,0.4s-1.4,0.7-1.9,1.3c-0.5,0.6-1,1.4-1.3,2.4
		c-0.3,1-0.5,2.2-0.5,3.6l-2.9-1.1c0-2.1,0.4-4,1.2-5.7s2-2.9,3.5-3.9c1.5-0.9,3.3-1.4,5.5-1.4c1.6,0,3,0.3,4.1,0.8
		c1.1,0.5,2,1.2,2.7,2.1s1.2,1.8,1.6,2.8c0.4,1,0.6,2,0.7,3c0.1,1,0.2,1.8,0.2,2.5v13.2H396.6z"/>
	<path d="M414.2,176.1c-1.8,0-3.2-0.3-4.4-1s-2.1-1.5-2.7-2.6c-0.6-1.1-0.9-2.3-0.9-3.5c0-1.2,0.2-2.3,0.6-3.2
		c0.4-0.9,1.1-1.7,1.9-2.3c0.8-0.6,1.9-1.2,3.1-1.5c1.1-0.3,2.2-0.6,3.6-0.8s2.7-0.5,4.2-0.7c1.5-0.2,2.9-0.4,4.4-0.6l-1.7,0.9
		c0-1.9-0.4-3.2-1.2-4.1s-2.2-1.3-4.2-1.3c-1.2,0-2.4,0.3-3.4,0.9c-1,0.6-1.8,1.5-2.2,2.9l-4.3-1.3c0.6-2,1.7-3.6,3.3-4.8
		s3.8-1.8,6.6-1.8c2.1,0,4,0.4,5.5,1.1c1.6,0.7,2.7,1.9,3.5,3.4c0.4,0.8,0.6,1.6,0.7,2.5c0.1,0.9,0.1,1.8,0.1,2.8v14.6h-4.1V170
		l0.8,0.7c-1,1.8-2.2,3.2-3.7,4S416.4,176.1,414.2,176.1z M415,172.3c1.3,0,2.4-0.2,3.4-0.7c0.9-0.5,1.7-1,2.3-1.8
		c0.6-0.7,0.9-1.5,1.1-2.2c0.2-0.7,0.4-1.5,0.4-2.4c0-0.9,0.1-1.6,0.1-2.1l1.5,0.5c-1.4,0.2-2.8,0.4-3.9,0.6
		c-1.2,0.2-2.3,0.3-3.2,0.5c-1,0.2-1.8,0.4-2.6,0.6c-0.6,0.2-1.2,0.5-1.7,0.8c-0.5,0.3-0.9,0.7-1.2,1.1c-0.3,0.4-0.4,1-0.4,1.6
		c0,0.6,0.2,1.2,0.5,1.7c0.3,0.5,0.8,0.9,1.4,1.2C413.2,172.1,414,172.3,415,172.3z"/>
	<path d="M433.2,175.4v-23.7h4.1v6.8h0.5v16.8H433.2z M449.8,175.4v-11.6c0-0.9-0.1-1.9-0.2-2.8c-0.2-1-0.4-1.9-0.9-2.7
		c-0.4-0.8-1-1.5-1.8-2c-0.8-0.5-1.8-0.8-3.1-0.8c-0.8,0-1.6,0.1-2.3,0.4s-1.4,0.7-1.9,1.3c-0.5,0.6-1,1.4-1.3,2.4
		c-0.3,1-0.5,2.2-0.5,3.6L435,162c0-2.1,0.4-4,1.2-5.7s2-2.9,3.5-3.9c1.5-0.9,3.3-1.4,5.5-1.4c1.6,0,3,0.3,4.1,0.8
		c1.1,0.5,2,1.2,2.7,2.1s1.2,1.8,1.6,2.8c0.4,1,0.6,2,0.7,3c0.1,1,0.2,1.8,0.2,2.5v13.2H449.8z"/>
	<path d="M458.6,175.4v-0.7l13.4-18.9h-12.2v-4.1h19.5v0.7l-13.4,18.8h12.8v4.1H458.6z"/>
	<path d="M491.1,176.1c-1.8,0-3.2-0.3-4.4-1s-2.1-1.5-2.7-2.6c-0.6-1.1-0.9-2.3-0.9-3.5c0-1.2,0.2-2.3,0.6-3.2
		c0.4-0.9,1.1-1.7,1.9-2.3c0.8-0.6,1.9-1.2,3.1-1.5c1.1-0.3,2.2-0.6,3.6-0.8s2.7-0.5,4.2-0.7c1.5-0.2,2.9-0.4,4.4-0.6l-1.7,0.9
		c0-1.9-0.4-3.2-1.2-4.1s-2.2-1.3-4.2-1.3c-1.2,0-2.4,0.3-3.4,0.9c-1,0.6-1.8,1.5-2.2,2.9l-4.3-1.3c0.6-2,1.7-3.6,3.3-4.8
		s3.8-1.8,6.6-1.8c2.1,0,4,0.4,5.5,1.1c1.6,0.7,2.7,1.9,3.5,3.4c0.4,0.8,0.6,1.6,0.7,2.5c0.1,0.9,0.1,1.8,0.1,2.8v14.6h-4.1V170
		l0.8,0.7c-1,1.8-2.2,3.2-3.7,4S493.3,176.1,491.1,176.1z M491.9,172.3c1.3,0,2.4-0.2,3.4-0.7c0.9-0.5,1.7-1,2.3-1.8
		c0.6-0.7,0.9-1.5,1.1-2.2c0.2-0.7,0.4-1.5,0.4-2.4c0-0.9,0.1-1.6,0.1-2.1l1.5,0.5c-1.4,0.2-2.8,0.4-3.9,0.6
		c-1.2,0.2-2.3,0.3-3.2,0.5c-1,0.2-1.8,0.4-2.6,0.6c-0.6,0.2-1.2,0.5-1.7,0.8c-0.5,0.3-0.9,0.7-1.2,1.1c-0.3,0.4-0.4,1-0.4,1.6
		c0,0.6,0.2,1.2,0.5,1.7c0.3,0.5,0.8,0.9,1.4,1.2C490.2,172.1,491,172.3,491.9,172.3z"/>
	<path d="M519,176c-2.9,0-5.2-0.6-7-1.9s-2.9-3.1-3.3-5.4l4.7-0.7c0.3,1.2,1,2.2,2,2.9c1.1,0.7,2.4,1.1,4,1.1c1.4,0,2.6-0.3,3.4-0.9
		c0.8-0.6,1.2-1.4,1.2-2.4c0-0.6-0.1-1.1-0.4-1.5c-0.3-0.4-0.9-0.7-1.8-1.1c-0.9-0.3-2.3-0.8-4.1-1.3c-2-0.5-3.6-1.1-4.8-1.7
		c-1.2-0.6-2-1.3-2.5-2.1c-0.5-0.8-0.8-1.8-0.8-3c0-1.4,0.4-2.7,1.1-3.8c0.8-1.1,1.8-1.9,3.2-2.5c1.4-0.6,3-0.9,4.9-0.9
		c1.8,0,3.4,0.3,4.8,0.9s2.6,1.4,3.4,2.4c0.9,1,1.4,2.3,1.6,3.7l-4.7,0.9c-0.2-1.1-0.7-2-1.6-2.7c-0.9-0.7-2.1-1-3.5-1.1
		c-1.4-0.1-2.5,0.2-3.4,0.7c-0.9,0.5-1.3,1.2-1.3,2.1c0,0.5,0.2,1,0.5,1.3c0.3,0.4,1,0.7,1.9,1.1c1,0.3,2.4,0.7,4.2,1.2
		c2,0.5,3.6,1.1,4.7,1.7c1.2,0.6,2,1.4,2.5,2.2c0.5,0.9,0.8,1.9,0.8,3.1c0,2.3-0.9,4.2-2.6,5.5C524.3,175.4,522,176,519,176z"/>
</g>
<g>
	<path d="M347.7,57.1V25.5h4.6v31.6H347.7z"/>
	<path d="M359.1,57.1V33.4h4.1v6.8h0.5v16.8H359.1z M375.7,57.1V45.5c0-0.9-0.1-1.9-0.2-2.8c-0.2-1-0.4-1.9-0.9-2.7
		c-0.4-0.8-1-1.5-1.8-2c-0.8-0.5-1.8-0.8-3.1-0.8c-0.8,0-1.6,0.1-2.3,0.4s-1.4,0.7-1.9,1.3c-0.5,0.6-1,1.4-1.3,2.4
		c-0.3,1-0.5,2.2-0.5,3.6l-2.9-1.1c0-2.1,0.4-4,1.2-5.7s2-2.9,3.5-3.9c1.5-0.9,3.3-1.4,5.5-1.4c1.6,0,3,0.3,4.1,0.8
		c1.1,0.5,2,1.2,2.7,2.1s1.2,1.8,1.6,2.8c0.4,1,0.6,2,0.7,3c0.1,1,0.2,1.8,0.2,2.5v13.2H375.7z"/>
	<path d="M384.1,37.1v-3.7h14.5v3.7H384.1z M388.1,57.1V32.6c0-0.6,0-1.2,0.1-1.9c0-0.7,0.2-1.4,0.4-2c0.2-0.7,0.6-1.3,1.1-1.8
		c0.6-0.7,1.3-1.1,2-1.4c0.7-0.3,1.4-0.4,2.1-0.5s1.4-0.1,2-0.1h3v3.8h-2.8c-1.1,0-1.9,0.3-2.4,0.8c-0.5,0.5-0.8,1.3-0.8,2.3v25.4
		H388.1z"/>
	<path d="M412.8,57.8c-2.4,0-4.4-0.5-6.2-1.6s-3.1-2.5-4-4.4s-1.4-4-1.4-6.5c0-2.5,0.5-4.6,1.4-6.5c1-1.9,2.3-3.3,4.1-4.4
		c1.7-1,3.8-1.6,6.1-1.6c2.4,0,4.4,0.5,6.2,1.6c1.7,1.1,3.1,2.5,4,4.4c1,1.9,1.4,4,1.4,6.5c0,2.5-0.5,4.6-1.4,6.5
		c-1,1.9-2.3,3.3-4,4.4C417.2,57.3,415.1,57.8,412.8,57.8z M412.8,53.5c2.3,0,4-0.8,5.1-2.3c1.1-1.5,1.7-3.5,1.7-5.9
		c0-2.5-0.6-4.4-1.7-5.9c-1.1-1.5-2.8-2.2-5.1-2.2c-1.5,0-2.8,0.3-3.8,1c-1,0.7-1.7,1.7-2.2,2.9c-0.5,1.2-0.7,2.6-0.7,4.2
		c0,2.5,0.6,4.5,1.7,6C408.9,52.7,410.6,53.5,412.8,53.5z"/>
	<path d="M429.8,57.1V33.4h4.1v5.7l-0.6-0.7c0.3-0.8,0.7-1.5,1.1-2.1c0.5-0.6,1-1.2,1.6-1.6c0.6-0.4,1.3-0.8,2-1
		c0.7-0.2,1.5-0.4,2.3-0.4c0.8-0.1,1.5,0,2.2,0.1v4.3c-0.8-0.2-1.6-0.3-2.6-0.2s-1.8,0.4-2.6,0.9c-0.7,0.5-1.3,1.1-1.8,1.8
		c-0.4,0.7-0.7,1.5-0.9,2.3s-0.3,1.7-0.3,2.7v12H429.8z"/>
	<path d="M447.1,57.1V33.4h4.1v6.8h0.5v16.8H447.1z M461.3,57.1l0-14.7c0-1.7-0.4-3.1-1.3-4.1c-0.9-1-2-1.5-3.5-1.5
		c-1.4,0-2.6,0.5-3.5,1.5c-0.9,1-1.3,2.3-1.3,3.9l-2.2-1.4c0-1.5,0.4-2.9,1.1-4.1c0.7-1.2,1.8-2.2,3-2.9c1.3-0.7,2.7-1.1,4.3-1.1
		c1.7,0,3.1,0.4,4.3,1.1c1.2,0.7,2.1,1.7,2.7,3c0.6,1.3,0.9,2.8,0.9,4.4l0,15.8H461.3z M475.5,57.1l0-14.8c0-1.7-0.4-3-1.3-4
		c-0.9-1-2-1.4-3.5-1.4c-0.9,0-1.7,0.2-2.4,0.6c-0.7,0.4-1.3,1-1.8,1.8c-0.4,0.8-0.7,1.8-0.7,3l-2.2-1.1c0-1.7,0.3-3.1,1.1-4.4
		c0.7-1.3,1.7-2.2,3-2.9c1.3-0.7,2.7-1,4.3-1c2.6,0,4.5,0.8,5.9,2.3s2.1,3.6,2.1,6.1l0,15.9H475.5z"/>
	<path d="M493.2,57.8c-1.8,0-3.2-0.3-4.4-1c-1.2-0.7-2.1-1.5-2.7-2.6c-0.6-1.1-0.9-2.3-0.9-3.5c0-1.2,0.2-2.3,0.6-3.2
		c0.4-0.9,1.1-1.7,1.9-2.3c0.8-0.6,1.9-1.2,3.1-1.5c1.1-0.3,2.2-0.6,3.6-0.8c1.3-0.2,2.7-0.5,4.2-0.7c1.5-0.2,2.9-0.4,4.4-0.6
		l-1.7,0.9c0-1.9-0.4-3.2-1.2-4.1s-2.2-1.3-4.2-1.3c-1.2,0-2.4,0.3-3.4,0.9c-1,0.6-1.8,1.5-2.2,2.9l-4.3-1.3c0.6-2,1.7-3.6,3.3-4.8
		s3.8-1.8,6.6-1.8c2.1,0,4,0.4,5.5,1.1c1.6,0.7,2.7,1.9,3.5,3.4c0.4,0.8,0.6,1.6,0.7,2.5c0.1,0.9,0.1,1.8,0.1,2.8v14.6h-4.1v-5.4
		l0.8,0.7c-1,1.8-2.2,3.2-3.7,4S495.4,57.8,493.2,57.8z M494,54c1.3,0,2.4-0.2,3.4-0.7c0.9-0.5,1.7-1,2.3-1.8
		c0.6-0.7,0.9-1.5,1.1-2.2c0.2-0.7,0.4-1.5,0.4-2.4c0-0.9,0.1-1.6,0.1-2.1l1.5,0.5c-1.4,0.2-2.8,0.4-3.9,0.6
		c-1.2,0.2-2.3,0.3-3.2,0.5c-1,0.2-1.8,0.4-2.6,0.6c-0.6,0.2-1.2,0.5-1.7,0.8s-0.9,0.7-1.2,1.1c-0.3,0.4-0.4,1-0.4,1.6
		c0,0.6,0.2,1.2,0.5,1.7c0.3,0.5,0.8,0.9,1.4,1.2S493,54,494,54z M498.5,30.2h-4.6l1.7-5.3h4.6L498.5,30.2z"/>
	<path d="M509.4,37.1v-3.7h16.2v3.7H509.4z M525.6,57.1c-1.5,0.3-3,0.4-4.4,0.4s-2.7-0.3-3.8-0.8c-1.1-0.5-2-1.3-2.5-2.4
		c-0.5-1-0.8-2-0.8-3c0-1-0.1-2.2-0.1-3.5v-21h4.6v20.7c0,1,0,1.8,0,2.5c0,0.7,0.2,1.3,0.4,1.8c0.5,0.9,1.4,1.4,2.5,1.5
		c1.1,0.1,2.5,0.1,4-0.1V57.1z"/>
	<path d="M530.7,29.6v-4.5h4.6v4.5H530.7z M530.7,57.1V33.4h4.6v23.7H530.7z"/>
	<path d="M552.4,57.8c-2.4,0-4.5-0.5-6.2-1.6c-1.7-1.1-3-2.6-3.9-4.5c-0.9-1.9-1.4-4-1.4-6.4c0-2.4,0.5-4.6,1.4-6.5
		c0.9-1.9,2.2-3.4,3.9-4.4c1.7-1.1,3.8-1.6,6.2-1.6c2.6,0,4.8,0.6,6.6,1.9c1.8,1.3,3,3,3.6,5.3l-4.6,1.3c-0.5-1.3-1.2-2.4-2.2-3.1
		c-1-0.7-2.2-1.1-3.5-1.1c-1.5,0-2.7,0.4-3.7,1.1c-1,0.7-1.7,1.7-2.1,2.9c-0.5,1.2-0.7,2.6-0.7,4.2c0,2.4,0.6,4.4,1.7,5.9
		c1.1,1.5,2.7,2.3,4.9,2.3c1.5,0,2.7-0.3,3.6-1c0.9-0.7,1.6-1.7,2.1-2.9l4.7,1.1c-0.8,2.3-2.1,4.1-3.8,5.3
		C557.1,57.2,554.9,57.8,552.4,57.8z"/>
	<path d="M574.7,57.8c-1.8,0-3.2-0.3-4.4-1c-1.2-0.7-2.1-1.5-2.7-2.6c-0.6-1.1-0.9-2.3-0.9-3.5c0-1.2,0.2-2.3,0.6-3.2
		c0.4-0.9,1.1-1.7,1.9-2.3c0.8-0.6,1.9-1.2,3.1-1.5c1.1-0.3,2.2-0.6,3.6-0.8c1.3-0.2,2.7-0.5,4.2-0.7c1.5-0.2,2.9-0.4,4.4-0.6
		l-1.7,0.9c0-1.9-0.4-3.2-1.2-4.1s-2.2-1.3-4.2-1.3c-1.2,0-2.4,0.3-3.4,0.9c-1,0.6-1.8,1.5-2.2,2.9l-4.3-1.3c0.6-2,1.7-3.6,3.3-4.8
		s3.8-1.8,6.6-1.8c2.1,0,4,0.4,5.5,1.1c1.6,0.7,2.7,1.9,3.5,3.4c0.4,0.8,0.6,1.6,0.7,2.5c0.1,0.9,0.1,1.8,0.1,2.8v14.6h-4.1v-5.4
		l0.8,0.7c-1,1.8-2.2,3.2-3.7,4S576.9,57.8,574.7,57.8z M575.5,54c1.3,0,2.4-0.2,3.4-0.7c0.9-0.5,1.7-1,2.3-1.8
		c0.6-0.7,0.9-1.5,1.1-2.2c0.2-0.7,0.4-1.5,0.4-2.4c0-0.9,0.1-1.6,0.1-2.1l1.5,0.5c-1.4,0.2-2.8,0.4-3.9,0.6
		c-1.2,0.2-2.3,0.3-3.2,0.5c-1,0.2-1.8,0.4-2.6,0.6c-0.6,0.2-1.2,0.5-1.7,0.8s-0.9,0.7-1.2,1.1c-0.3,0.4-0.4,1-0.4,1.6
		c0,0.6,0.2,1.2,0.5,1.7c0.3,0.5,0.8,0.9,1.4,1.2S574.6,54,575.5,54z"/>
</g>
</svg>
