<svg fill="none" height="41" viewBox="0 0 50 41" width="50" xmlns="http://www.w3.org/2000/svg"><g clip-rule="evenodd" fill-rule="evenodd"><path d="m1.1377 6.7749c0-.82842.67157-1.5 1.5-1.5h40.2866c.8285 0 1.5.67158 1.5 1.5 0 .82843-.6715 1.5-1.5 1.5h-40.2866c-.82843 0-1.5-.67157-1.5-1.5z" fill="#ccbaf2"/><path d="m5.09375 1.5c0-.828427.67157-1.5 1.5-1.5h32.37435c.8284 0 1.5.671573 1.5 1.5 0 .82843-.6716 1.5-1.5 1.5h-32.37435c-.82843 0-1.5-.67157-1.5-1.5z" fill="#ccbaf2"/><path d="m4.04407 12.0498c-2.23348 0-4.04407 1.8106-4.04407 4.0441v18.2862c0 2.2335 1.81059 4.044 4.04406 4.044h33.90404l-.2826-4.6578c-.041-.6748.4051-.9667.9093-1.2966.3085-.2018.6387-.4179.8924-.7447.1739-.224.311-.4768.4449-.7235.2907-.536.5659-1.0434 1.17-1.1657l4.4794-.9064v-12.8355c0-2.2335-1.8106-4.0441-4.0441-4.0441zm2.90361 6.5232c-.86587 0-1.5678.5432-1.5678 1.2132 0 .6701.70193 1.2132 1.5678 1.2132h18.97252c.8659 0 1.5678-.5431 1.5678-1.2132 0-.67-.7019-1.2132-1.5678-1.2132zm0 5.2749c-.86587 0-1.5678.5431-1.5678 1.2132 0 .67.70193 1.2132 1.5678 1.2132h6.20302c.8659 0 1.5678-.5432 1.5678-1.2132 0-.6701-.7019-1.2132-1.5678-1.2132zm-1.56773 6.864c.00773-.67.71589-1.2083 1.58173-1.2023l12.72412.0879c.8658.006 1.5615.554 1.5537 1.224-.0077.67-.7159 1.2083-1.5817 1.2024l-12.72412-.088c-.86583-.0059-1.56146-.5539-1.55373-1.224z" fill="#00474f"/></g><path d="m47.0406 28.3956-14.912-5.8825c-.2942-.1155-.6239-.0435-.8396.1833-.2155.2272-.2756.5661-.153.8633l6.1485 14.9126c.1183.2869.3857.4825.6875.5029.3017.0216.5852-.1366.7282-.4055l1.945-3.6471 5.5131 5.4656c.3149.3122.8127.3099 1.1109-.0056l1.8034-1.902c.2989-.3152.2857-.8233-.0292-1.1355l-5.5129-5.465 3.6291-2.0285c.2665-.1488.4205-.4444.395-.7566-.0259-.3133-.2261-.5855-.514-.6994z" fill="#ccbaf2"/></svg>