<svg fill="none" height="36" viewBox="0 0 65 36" width="65" xmlns="http://www.w3.org/2000/svg"><path d="m54.2 5.39907v25.20003c0 .684-.384 1.308-.996 1.608l-6.204 3.108v-34.620032l6.204 3.096002c.612.3.996.924.996 1.608z" fill="#ccbaf2"/><path d="m64.2 5.39907v25.20003c0 .684-.384 1.308-.996 1.608l-6.204 3.108v-34.620032l6.204 3.096002c.612.3.996.924.996 1.608z" fill="#ccbaf2"/><g fill="#00474f"><path d="m21.4781 17 21.5219-14.25927c-.6931-1.61082-2.2022-2.74073-3.9745-2.74073h-35.09487c-1.74597 0-3.224346 1.1019-3.93063 2.67536z"/><path d="m0 6 22 14.2989 22-14.20309v24.90419c0 2.7614-2.2386 5-5 5h-34.6c-2.4288 0-4.4-2.044-4.4-4.5625z"/></g></svg>