<svg fill="none" height="44" viewBox="0 0 56 44" width="56" xmlns="http://www.w3.org/2000/svg"><path clip-rule="evenodd" d="m39.5234 24.9332c-7.6587 0-11.7333-3.5413-11.7333-11.2 0-1.4826.096-2.9226.5333-4.26665h-20.8762c-2.05867 0-3.73333 1.67465-3.73333 3.73335v20.2667c0 2.0586 1.67466 3.7333 3.73333 3.7333h36.8762c2.0587 0 3.7333-1.6747 3.7333-3.7333v-11.2c-2.3466 1.8453-5.312 2.6666-8.5333 2.6666zm-30.4762-6.4c0-.8836.71634-1.6 1.6-1.6h9.1429c.8836 0 1.6.7164 1.6 1.6 0 .8837-.7164 1.6-1.6 1.6h-9.1429c-.88366 0-1.6-.7163-1.6-1.6zm1.6 8c-.88366 0-1.6.7164-1.6 1.6 0 .8837.71634 1.6 1.6 1.6h14.4762c.8836 0 1.6-.7163 1.6-1.6 0-.8836-.7164-1.6-1.6-1.6z" fill="#00474f" fill-rule="evenodd"/><path d="m27.791 13.7333c0-6.4853 5.248-11.7333 11.7333-11.7333 6.4854 0 11.7334 5.248 11.7334 11.7333 0 6.4854-5.248 11.7334-11.7334 11.7334-6.4853 0-11.7333-5.248-11.7333-11.7334z" stroke="#ccbaf2" stroke-width="3"/><path d="m45.5342 8.87535c-.5554-.6336-1.4925-.6336-2.0479 0l-5.6227 6.42355-2.2999-2.6319c-.5554-.6336-1.4925-.6336-2.0479 0-.5211.5945-.5211 1.5408 0 2.1353l3.3234 3.7918.0102.011c.265.2873.6217.4617 1.0139.4617.3921 0 .749-.1743 1.014-.4615l6.6569-7.5946c.5211-.5945.5211-1.54084 0-2.13535z" fill="#ccbaf2"/><path d="m2 42h51.5809" stroke="#00474f" stroke-linecap="round" stroke-linejoin="round" stroke-miterlimit="10" stroke-width="3"/></svg>