<?xml version="1.0" encoding="utf-8"?>
<!-- Generator: Adobe Illustrator 26.5.0, SVG Export Plug-In . SVG Version: 6.00 Build 0)  -->
<svg version="1.1" xmlns="http://www.w3.org/2000/svg" xmlns:xlink="http://www.w3.org/1999/xlink" x="0px" y="0px"
	 viewBox="0 0 1009.1 850.4" style="enable-background:new 0 0 1009.1 850.4;" xml:space="preserve">
<style type="text/css">
	.st0{fill:#008D58;}
	.st1{fill:#FFFFFF;}
</style>
<g id="Hilfslinien_für_Zeichenfläche">
</g>
<g id="Ebene_1">
	<polygon class="st0" points="858.6,126.8 257,126.8 152.3,722.1 754.1,722.1 	"/>
	<path class="st1" d="M284.3,587.6c0,8.7-3.5,18.6-13.6,24.2c4.8,3.2,8.3,9.1,8.3,17.4c0,18.9-14.3,30.8-32.8,30.8
		c-30.4,0-41.7-0.1-41.7-0.1l17.1-95.3H258C274.2,564.5,284.3,573.3,284.3,587.6L284.3,587.6z"/>
	<path class="st0" d="M235.2,620.2l-3.8,20.4h13.9c6.7,0,10.4-5.9,10.4-11.9c0-3.6-1.7-8.5-6.4-8.5H235.2z"/>
	<path class="st0" d="M241.6,583.6l-3.5,19.2h12.7c7.8,0,9.9-8.1,9.9-11.5c0-3.2-1.3-7.7-5.9-7.7H241.6z"/>
	<path class="st1" d="M412.5,597.2c1.1-9-1.5-14.6-8.1-14.6c-4.6,0-7.3,2.1-9.1,4.5c-2.5,3.2-4.8,11.3-7.3,25.2
		c-0.8,5-1.8,13.3-1.8,18.5c0,6,2.7,11.2,8.7,11.2c6.6,0,10.9-5.5,12.6-14.6h23.9c-4.5,24.8-19.6,34.6-37.8,34.6
		c-22.1,0-30.9-14.7-30.9-29.1c0-3.9,0.3-12.2,1.7-20.6c2.7-15.4,6.4-29.8,14-38.2c7.6-8.4,17.6-11.5,27.2-11.5
		c19,0,30.7,11.5,30.7,30c0,1.8,0,3.2-0.1,4.6H412.5z"/>
	<polygon class="st1" points="511.5,659.8 487,659.8 493.6,622 468.4,622 461.7,659.8 437.6,659.8 454.3,564.9 478.3,564.9 
		471.8,601.4 497,601.4 503.5,564.9 527.9,564.9 	"/>
	<polygon class="st1" points="602.7,585.5 581,585.5 568.1,659.8 543.2,659.8 556.5,585.5 533.9,585.5 537.4,564.9 606.2,564.9 	"/>
	<polygon class="st1" points="656.3,659.8 599.2,659.8 616.1,564.9 640.9,564.9 627.4,639.2 659.8,639.2 	"/>
	<polygon class="st1" points="740,585 702.8,585 699.5,601.8 731.5,601.8 728,622 696.2,622 693,639.6 730.6,639.6 727.3,659.8 
		666.1,659.8 682.9,564.9 743.4,564.9 	"/>
	<polygon class="st1" points="359.6,585 322.4,585 319.2,601.8 351.1,601.8 347.6,622 315.8,622 312.6,639.6 350.2,639.6 
		346.9,659.8 285.7,659.8 302.5,564.9 363,564.9 	"/>
</g>
</svg>
