<svg xmlns="http://www.w3.org/2000/svg" viewBox="0 0 163.93 21.26"><defs><style>.cls-1{fill:#3c3c3c;}.cls-2{fill:#e2335a;}</style></defs><title>DO_Logo</title><g id="Ebene_2" data-name="Ebene 2"><g id="Ebene_1-2" data-name="Ebene 1"><path class="cls-1" d="M0,.35H8.84a20,20,0,0,1,4.55.39A8.31,8.31,0,0,1,17,2.64,8.71,8.71,0,0,1,19.29,6a13.23,13.23,0,0,1,.78,4.86,11.73,11.73,0,0,1-.73,4.37,9,9,0,0,1-2.57,3.64,9,9,0,0,1-3.39,1.64,17,17,0,0,1-4.28.43H0ZM4.83,3.83V17.45H8.44a15.37,15.37,0,0,0,2.93-.2,4.84,4.84,0,0,0,2-.85,4.23,4.23,0,0,0,1.26-2,11.45,11.45,0,0,0,.5-3.76A10.63,10.63,0,0,0,14.58,7a4.57,4.57,0,0,0-1.37-2A4.89,4.89,0,0,0,11,4a24.27,24.27,0,0,0-4-.2Z"/><path class="cls-1" d="M51.24,20.91V3.83H44.13V.35h19V3.83H56.07V20.91Z"/><path class="cls-1" d="M95,10.76a11.49,11.49,0,0,1,1.1-5.28,9.74,9.74,0,0,1,2.23-2.81A9.49,9.49,0,0,1,101.44.81,15.19,15.19,0,0,1,106.6,0a12.27,12.27,0,0,1,8.47,2.82,9.93,9.93,0,0,1,3.18,7.84,9.9,9.9,0,0,1-3.15,7.79,12.16,12.16,0,0,1-8.43,2.81,12.3,12.3,0,0,1-8.49-2.8A9.77,9.77,0,0,1,95,10.76Zm5-.14a7,7,0,0,0,1.87,5.29,6.64,6.64,0,0,0,4.77,1.8,6.57,6.57,0,0,0,4.75-1.78,7.17,7.17,0,0,0,1.85-5.37,7,7,0,0,0-1.8-5.27,7.47,7.47,0,0,0-9.61,0A7,7,0,0,0,100,10.62Z"/><path class="cls-1" d="M122.07,20.91V.35h4.71l9.8,13.73V.35h4.49V20.91h-4.85L126.56,7.5V20.91Z"/><polygon class="cls-1" points="36.18 0.35 31.07 0.35 21.74 20.91 26.87 20.91 28.67 16.65 28.67 16.65 28.67 16.64 28.84 16.24 28.85 16.24 30.53 12.31 30.53 12.31 33.56 5.15 36.66 12.31 36.66 12.31 38.59 16.64 40.51 20.91 45.77 20.91 36.18 0.35"/><polygon class="cls-1" points="75.8 0.36 70.69 0.36 61.36 20.92 66.49 20.92 68.3 16.66 68.3 16.66 68.3 16.65 68.47 16.25 68.47 16.25 70.15 12.32 70.15 12.32 73.19 5.16 76.28 12.32 76.28 12.32 78.22 16.64 80.13 20.92 85.39 20.92 75.8 0.36"/><rect class="cls-1" x="146.18" y="0.35" width="17.75" height="3.48"/><rect class="cls-1" x="146.18" y="8.89" width="17.75" height="3.48"/><rect class="cls-2" x="146.18" y="17.43" width="17.75" height="3.48"/></g></g></svg>