<svg enable-background="new 0 0 182 68.9" viewBox="0 0 182 68.9" xmlns="http://www.w3.org/2000/svg"><g fill="#040405"><path d="m0 40h82.3"/><path d="m131.3 40h36.3"/><path d="m8.9 58.8v4.3h5.9v-4.3h.9v9.9h-.9v-4.8h-5.9v4.8h-.9v-9.9z"/><path d="m25.4 58.8 3.9 9.9h-1l-1.2-3.1h-4.5l-1.2 3.1h-1l4-9.9zm1.4 6-1.9-5.1-2 5.1z"/><path d="m35 58.8 5.8 8.4v-8.4h.9v9.9h-1.1l-5.8-8.4v8.4h-.9v-9.9z"/><path d="m48.4 58.8 5.8 8.4v-8.4h.9v9.9h-1.1l-5.8-8.4v8.4h-.9v-9.9z"/><path d="m60.6 61.8c.2-.6.5-1.2.9-1.6.4-.5.9-.9 1.5-1.1.6-.3 1.3-.4 2-.4.8 0 1.5.1 2 .4s1.1.7 1.5 1.1c.4.5.7 1 .9 1.6s.3 1.3.3 1.9c0 .7-.1 1.3-.3 2-.2.6-.5 1.2-.9 1.6-.4.5-.9.8-1.5 1.1s-1.3.4-2 .4c-.8 0-1.5-.1-2-.4-.6-.3-1.1-.7-1.5-1.1-.4-.5-.7-1-.9-1.6s-.3-1.3-.3-2c0-.6.1-1.3.3-1.9zm.9 3.5c.1.5.4 1 .7 1.4s.7.7 1.2 1c.5.2 1 .4 1.7.4s1.2-.1 1.7-.4c.5-.2.8-.6 1.1-1s.5-.9.7-1.4c.1-.5.2-1 .2-1.6 0-.5-.1-1.1-.2-1.6s-.4-1-.7-1.4-.7-.7-1.1-1c-.5-.2-1-.4-1.7-.4s-1.2.1-1.7.4c-.5.2-.9.6-1.2 1s-.5.9-.7 1.4c-.1.5-.2 1-.2 1.6s0 1.1.2 1.6z"/><path d="m74.7 58.8 3.2 8.8 3.2-8.8h1l-3.7 9.9h-1.1l-3.7-9.9z"/><path d="m93.6 58.8v.8h-5.9v3.6h5.5v.8h-5.5v3.9h5.9v.8h-6.9v-9.9z"/><path d="m103.2 58.8c.4 0 .8.1 1.2.2s.7.3 1 .5.5.5.7.8.2.7.2 1.2c0 .6-.2 1.2-.5 1.6-.3.5-.8.8-1.4.9.3 0 .6.1.8.3.2.1.4.3.5.5s.2.4.3.7.1.5.1.8v.6s0 .5.1.7c0 .2.1.5.1.7.1.2.1.4.2.5h-1c-.1-.1-.1-.2-.1-.3s-.1-.3-.1-.4 0-.3 0-.4 0-.3 0-.4c0-.4 0-.7-.1-1 0-.3-.1-.7-.3-.9-.1-.3-.3-.5-.6-.7s-.6-.2-1-.2h-3.6v4.4h-.9v-9.9h4.4zm-.1 4.7c.3 0 .6 0 .8-.1.3-.1.5-.2.7-.4s.3-.4.5-.6c.1-.2.2-.5.2-.8 0-.6-.2-1.1-.5-1.4-.4-.4-.9-.5-1.6-.5h-3.5v3.9h3.4z"/><path d="m11.1 28.1c.8 1 1.7 1.8 2.6 2.4s2.1.9 3.6.9c.6 0 1.2-.1 1.9-.2.6-.1 1.2-.4 1.7-.7s.9-.7 1.2-1.2.5-1 .5-1.7c0-.6-.1-1.2-.4-1.6s-.7-.8-1.2-1.1-1-.5-1.6-.7-1.3-.3-1.9-.5c-1.1-.2-2.2-.5-3.2-.8s-1.9-.7-2.7-1.2-1.4-1.1-1.8-1.9c-.5-.8-.7-1.8-.7-3s.3-2.2.8-3.1 1.2-1.6 2.1-2.2 1.8-1 2.9-1.3 2.2-.5 3.3-.5c1.7 0 3.3.3 4.7 1 1.5.7 2.6 1.8 3.4 3.3l-3.3 2.2c-.5-.9-1.2-1.5-2-2.1-.8-.5-1.9-.8-3.1-.8-.5 0-1.1.1-1.7.2s-1.1.3-1.5.6-.8.6-1.1 1.1c-.3.4-.4.9-.4 1.5 0 .5.2 1 .5 1.3.3.4.8.7 1.3 1s1.2.5 2 .7c.7.2 1.5.4 2.3.5 1.1.2 2.1.5 3 .8 1 .3 1.8.8 2.5 1.3s1.3 1.2 1.7 2.1c.4.8.6 1.8.6 3 0 1.4-.3 2.5-.8 3.5s-1.3 1.7-2.2 2.3-1.9 1-3.1 1.3c-1.1.3-2.3.4-3.5.4-2.1 0-3.8-.3-5.3-.9s-2.8-1.8-4-3.5z"/><path d="m53.9 30c-1.4 1.8-3 3.1-4.7 3.9-1.7.7-3.7 1.1-6 1.1-1.9 0-3.6-.3-5.1-1s-2.8-1.6-3.8-2.7-1.8-2.5-2.4-4-.8-3.2-.8-4.9c0-1.8.3-3.6.9-5.1.6-1.6 1.5-2.9 2.6-4s2.4-2 3.9-2.6 3.1-.9 4.9-.9c1.7 0 3.2.3 4.6.8 1.4.6 2.6 1.4 3.6 2.5s1.8 2.4 2.3 4 .8 3.3.8 5.3v1.3h-19.3c.1 1 .3 2 .7 3 .4.9 1 1.8 1.7 2.5s1.5 1.3 2.4 1.7 1.9.6 3 .6c1.7 0 3.2-.3 4.4-.9s2.3-1.5 3.2-2.7zm-3.4-9.8c-.1-2.1-.7-3.7-2-4.9s-3-1.8-5.2-1.8-4 .6-5.4 1.8-2.2 2.9-2.5 4.9z"/><path d="m78.1 16.4c-.9-1-1.8-1.8-2.8-2.2-1-.5-2.1-.7-3.3-.7-1.3 0-2.5.2-3.5.7s-1.9 1.1-2.5 1.9c-.7.8-1.2 1.8-1.5 2.8-.3 1.1-.5 2.2-.5 3.5 0 1.2.2 2.4.6 3.5s.9 2 1.6 2.8 1.5 1.5 2.5 1.9c1 .5 2.1.7 3.3.7 2.6 0 4.7-1 6.1-3l3 2.8c-1.2 1.3-2.5 2.3-4.1 2.9s-3.2.9-5 .9-3.5-.3-5.1-.9c-1.5-.6-2.8-1.5-3.9-2.6s-1.9-2.5-2.5-4-.9-3.2-.9-5.1c0-1.8.3-3.5.9-5s1.4-2.9 2.5-4 2.4-2 3.9-2.6 3.2-.9 5.1-.9c1.8 0 3.5.3 5.1.9s3 1.6 4.2 2.9z"/><path d="m118.9 66.5 3.8-3.4c.2-.2.4-.4.6-.6s.3-.5.3-.8-.1-.6-.4-.8c-.2-.2-.5-.3-.8-.3-.4 0-.7.1-.9.4-.2.2-.3.5-.4.9l-2.1-.2c0-.5.1-.9.3-1.3s.4-.7.7-.9.7-.4 1.1-.6c.4-.1.9-.2 1.3-.2s.9.1 1.2.2c.4.1.7.3 1 .6.3.2.5.6.7.9s.2.8.2 1.3c0 .3 0 .6-.1.9s-.2.5-.3.7-.3.4-.4.6c-.2.2-.3.3-.5.5l-3 2.6h4.3v1.8h-6.8v-2.3z"/><path d="m130.6 63.8c0-.6.1-1.2.2-1.8s.3-1.1.6-1.6.6-.9 1.1-1.2 1.1-.5 1.8-.5 1.3.2 1.8.5.8.7 1.1 1.2.5 1 .6 1.6.2 1.2.2 1.8-.1 1.2-.2 1.8-.3 1.1-.6 1.6-.6.9-1.1 1.2-1.1.5-1.8.5-1.3-.2-1.8-.5-.8-.7-1.1-1.2-.5-1-.6-1.6c-.1-.7-.2-1.2-.2-1.8zm2.1 0v.9c0 .4.1.7.2 1s.3.6.5.8.5.3.9.3.7-.1.9-.3.4-.5.5-.8.2-.7.2-1c0-.4 0-.7 0-.9 0-.3 0-.6 0-.9 0-.4-.1-.7-.2-1s-.3-.6-.5-.8-.5-.3-.9-.3-.7.1-.9.3-.4.5-.5.8-.2.7-.2 1z"/><path d="m142.8 66.5 3.8-3.4c.2-.2.4-.4.6-.6s.3-.5.3-.8-.1-.6-.4-.8c-.2-.2-.5-.3-.8-.3-.4 0-.7.1-.9.4-.2.2-.3.5-.4.9l-2.1-.2c0-.5.1-.9.3-1.3s.4-.7.7-.9.7-.4 1.1-.6c.4-.1.9-.2 1.3-.2s.9.1 1.2.2c.4.1.7.3 1 .6.3.2.5.6.7.9s.2.8.2 1.3c0 .3 0 .6-.1.9s-.2.5-.3.7-.3.4-.4.6c-.2.2-.3.3-.5.5l-3 2.6h4.3v1.8h-6.8v-2.3z"/><path d="m157 62.7h.7.6c.2 0 .4-.1.5-.2.2-.1.3-.2.4-.3s.1-.3.1-.6-.1-.5-.4-.7c-.2-.2-.5-.3-.9-.3-.3 0-.6.1-.8.3s-.4.4-.4.6l-2.3-.5c.1-.4.3-.8.5-1.1s.5-.5.8-.7.6-.3 1-.4.8-.1 1.2-.1.9.1 1.3.2.8.3 1.1.5.5.5.7.9c.2.3.3.7.3 1.2s-.1 1-.4 1.4-.7.6-1.2.7c.3 0 .6.1.8.3.2.1.4.3.6.5s.3.4.4.7.1.5.1.8c0 .5-.1.9-.3 1.3s-.4.7-.8.9c-.3.2-.7.4-1.1.5s-.9.2-1.4.2c-.9 0-1.6-.2-2.3-.6-.6-.4-1-1-1.3-1.9l2.2-.5c.1.4.2.6.4.8s.6.3 1 .3c.5 0 .8-.1 1-.4.2-.2.3-.5.3-.9 0-.3-.1-.5-.2-.6-.1-.2-.3-.3-.4-.3-.2-.1-.4-.1-.6-.1s-.5 0-.7 0h-.5z"/><path d="m132.3 23.7h1.9v4c.2-.3.5-.5.8-.6s.7-.2 1.1-.2.8.1 1.2.3c.3.2.6.4.9.7.2.3.4.6.5 1s.2.8.2 1.2c0 .5-.1.9-.2 1.3s-.3.7-.6 1-.6.5-.9.6-.8.2-1.2.2c-.2 0-.4 0-.6-.1s-.4-.1-.5-.2c-.2-.1-.3-.2-.4-.3s-.2-.2-.3-.3v.7h-1.7v-9.3zm1.7 6.3c0 .5.1.8.4 1.1s.6.4 1.1.4.8-.1 1.1-.4.4-.6.4-1.1-.1-.8-.4-1.1-.6-.4-1.1-.4-.8.1-1.1.4c-.2.3-.4.7-.4 1.1z"/><path d="m143.4 34c-.1.3-.2.6-.4.9-.1.2-.3.5-.4.6-.2.2-.4.3-.7.4s-.6.1-1.1.1-.9-.1-1.4-.2l.2-1.5c.3.1.6.2.9.2.2 0 .4 0 .5-.1.1 0 .2-.1.3-.2s.2-.2.2-.3c.1-.1.1-.3.2-.4l.1-.3-2.6-6.1h2l1.5 4 1.3-4h1.9z"/><path d="m150.8 24.3h1.9v3.3h3.8v-3.3h1.9v8.7h-1.9v-3.8h-3.8v3.8h-1.9z"/><path d="m165.6 32c-.3.4-.7.7-1.1.9-.5.2-.9.3-1.4.3s-.9-.1-1.3-.2-.8-.4-1.1-.6c-.3-.3-.5-.6-.7-1s-.3-.8-.3-1.3.1-.9.3-1.3.4-.7.7-1 .7-.5 1.1-.6.8-.2 1.3-.2c.4 0 .8.1 1.2.2s.6.4.9.6.4.6.6 1c.1.4.2.8.2 1.3v.6h-4.3c.1.4.2.6.5.8s.6.3.9.3.6-.1.8-.2.4-.3.6-.5zm-1.5-2.7c0-.3-.1-.6-.3-.8s-.5-.3-.8-.3c-.2 0-.4 0-.5.1-.2.1-.3.2-.4.3s-.2.2-.3.4c-.1.1-.1.3-.1.4h2.4z"/><path d="m166.9 25.1c0-.3.1-.6.3-.8s.5-.3.8-.3.6.1.8.3.3.5.3.8-.1.6-.3.8-.5.3-.8.3-.6-.1-.8-.3-.3-.5-.3-.8zm.2 1.9h1.9v6h-1.9z"/><path d="m173.7 28.8c-.3-.3-.6-.5-1.1-.5-.2 0-.3 0-.5.1-.1.1-.2.2-.2.4 0 .1.1.3.2.3.2.1.3.1.6.2.2.1.5.1.8.2s.5.2.8.3c.2.1.4.3.6.5s.2.5.2.9-.1.7-.3 1-.4.5-.7.6c-.3.2-.6.3-.9.3-.3.1-.7.1-1 .1-.4 0-.8-.1-1.3-.2-.4-.1-.8-.3-1.1-.6l1.1-1.3c.2.2.4.4.6.5s.5.2.7.2.4 0 .6-.1.3-.2.3-.3c0-.2-.1-.3-.2-.4-.2-.1-.3-.1-.6-.2-.2-.1-.5-.1-.8-.2s-.5-.2-.8-.3-.4-.3-.6-.5-.2-.5-.2-.9.1-.7.2-.9c.1-.3.3-.5.6-.6.2-.2.5-.3.8-.4s.6-.1.9-.1c.4 0 .8.1 1.2.2s.7.3 1 .6z"/><path d="m181.7 32c-.3.4-.7.7-1.1.9-.5.2-.9.3-1.4.3s-.9-.1-1.3-.2-.8-.4-1.1-.6c-.3-.3-.5-.6-.7-1s-.3-.8-.3-1.3.1-.9.3-1.3.4-.7.7-1 .7-.5 1.1-.6.8-.2 1.3-.2c.4 0 .8.1 1.2.2s.6.4.9.6.4.6.6 1c.1.4.2.8.2 1.3v.6h-4.3c.1.4.2.6.5.8.2.2.6.3.9.3s.6-.1.8-.2.4-.3.6-.5zm-1.6-2.7c0-.3-.1-.6-.3-.8s-.5-.3-.8-.3c-.2 0-.4 0-.5.1-.2.1-.3.2-.4.3s-.2.2-.3.4c-.1.1-.1.3-.1.4h2.4z"/><path d="m88 0h8.5v47.7h-8.5z"/><path d="m116.7 7.7h-14.6v-7.7h37.7v7.7h-14.6v40h-8.5z"/></g></svg>