<svg enable-background="new 0 0 885 86" viewBox="0 0 885 86" xmlns="http://www.w3.org/2000/svg"><g clip-rule="evenodd" fill="#161a1e" fill-rule="evenodd"><path d="m97 20 2 .4c4.6.9 5.3 3.7 5.3 6.3v32.6c0 2.7-.6 5.3-5.3 6.2l-2 .5v1h23v-1l-2-.4c-4.6-.9-5.2-3.6-5.2-6.2v-32.7c0-2.6.6-5.4 5.2-6.3l2-.4v-1h-23z"/><path d="m563 19v16.2h1l2.4-6c2.4-5.9 4.8-9.1 11.1-9.1h2.6v39.2c0 2.5-.6 5.6-5.3 6.3l-2 .3v1.1h23.4v-1.1l-2-.3c-4.7-.8-5.3-3.8-5.3-6.3v-39.2h2.6c6.3 0 8.8 3.2 11.1 9.1l2.4 6h1v-16.2z"/><path d="m543.5 20 1.8.2c3.5.5 6.7 2.2 6.7 11.4l.2 21.9-18.2-22c-5.5-6.6-7.7-9.4-9.3-12.3l-.1-.2h-16.6v1l.3.1c3.4.6 5.6 2.1 9.2 6.1l.7.8v25.1c0 10.8-3.3 12.5-7.3 13.5l-1.3.3v1h18.7v-1l-1.3-.3c-3.6-1-7.3-1.9-7.3-13.5l-.2-23.9 32.9 39.7.1.1h1v-36.3c0-9.1 3.4-10.9 6.7-11.4l1.8-.3v-1h-18.5z"/><path d="m349.9 58.4c-3.1 5.5-6.9 7.5-13.9 7.5h-2c-3.9 0-5.7-2-5.7-6.4v-16.7l2.9.1c7.1.1 9 .5 11.2 7.5l.8 2.6h1v-21.5h-1l-.8 2.6c-2.1 7-4.2 7.4-11.2 7.5l-2.9.1v-21.6h5c8.3 0 12.1 1.8 14.8 7.1l3.2 5.9h.9v-14.1h-39.2v1l1.9.4c4.3.9 5.1 3 5.1 6.1v32.8c0 2.5-.6 5.6-5.1 6.3l-1.9.3v1.1h41v-14.1h-.9z"/><path d="m499.9 58.4c-3.1 5.5-6.9 7.5-13.9 7.5h-2c-3.9 0-5.7-2-5.7-6.4v-16.7l2.9.1c7.1.1 9 .5 11.2 7.5l.8 2.6h1v-21.5h-1l-.8 2.6c-2.1 7-4.2 7.4-11.2 7.5l-2.9.1v-21.6h5c8.3 0 12 1.8 14.8 7.1l3.2 5.9h.9v-14.1h-39.2v1l1.9.4c4.2.9 5.1 3 5.1 6.1v32.8c0 2.5-.6 5.6-5.1 6.3l-1.9.3v1.1h41v-14.1h-.9z"/><path d="m198.6 19h-42v1l1.8.2c4.2.6 6.7 2.5 6.8 10l.2 23.2-18.3-22c-5.3-6.5-7.7-9.4-9.3-12.3l-.1-.2h-16.7v1l.3.1c3.4.6 5.6 2.1 9.2 6.1l.7.8v25.1c0 10.8-3.3 12.5-7.3 13.5l-1.3.3v1h18.7v-1l-1.3-.3c-3.6-1-7.3-1.9-7.3-13.5l-.2-23.9 33 39.9h1v-38.8c0-6.1 2.6-9.1 7.8-9.1s7.8 3.1 7.8 9.1v30.1c0 2.8-.6 5.5-5.3 6.3l-1.9.3v1h23.6c8.1 0 15-2.6 19.7-7.4 4.3-4.4 6.7-10.3 6.7-16.8s-2.4-12.4-6.7-16.6c-4.6-4.6-11.4-7.1-19.6-7.1zm-8 40.2v-39.1h6c11.9 0 19 8.6 19 22.9 0 14.5-6.7 22.9-18.4 22.9h-1.5c-4.2 0-5.1-2.7-5.1-6.7z"/><path d="m435.3 19h-42.4v1l1.9.2c4.3.6 6.8 2.5 6.8 10l.2 23.2-18.4-22c-5.5-6.6-7.8-9.4-9.4-12.3l-.1-.2h-16.9v1l.3.1c3.5.6 5.6 2.1 9.3 6.1l.7.8v25.1c0 10.8-3.4 12.5-7.4 13.5l-1.4.3v1h18.9v-1l-1.4-.3c-3.6-1-7.3-1.9-7.4-13.5l-.2-23.9 33.4 39.7.1.1h1v-38.7c0-6.1 2.7-9.1 7.9-9.1s7.9 3.1 7.9 9.1v30.1c0 2.8-.6 5.5-5.3 6.3l-1.9.3v1h23.8c8.2 0 15.1-2.6 19.9-7.4 4.3-4.4 6.7-10.3 6.7-16.8s-2.4-12.4-6.7-16.6c-4.7-4.6-11.6-7.1-19.9-7.1zm-8 40.2v-39.1h6c12 0 19.2 8.6 19.2 22.9 0 14.5-6.8 22.9-18.6 22.9h-1.5c-4.2 0-5.1-2.7-5.1-6.7z"/><path d="m293.7 19h-20.7v1l2 .4c4.6.9 5.3 3.6 5.3 6.2v32.7c0 2.7-.6 5.3-5.3 6.2l-2 .4v1h24v-1l-1.6-.3c-5.5-1.1-6.5-2.2-6.5-7v-38.5h2c7.4 0 11.8 5 11.8 13.4s-4.4 13.4-11.8 13.4h-.5v1.1h3.3c10.8 0 18.3-6 18.3-14.5 0-8.6-7.5-14.5-18.3-14.5z"/></g><path d="m42.5 1c-5.6 0-11.1 1.1-16.3 3.2s-9.8 5.3-13.8 9.2-7.1 8.6-9.2 13.8-3.2 10.7-3.2 16.3 1.1 11.1 3.2 16.3 5.3 9.8 9.2 13.8 8.6 7.1 13.8 9.2 10.7 3.2 16.3 3.2c11.3 0 22.1-4.5 30.1-12.4s12.4-18.8 12.4-30.1-4.5-22.1-12.4-30.1-18.8-12.4-30.1-12.4z" fill="#ee2e3e"/><path d="m63.6 60.3h-.3l-.5.1c-.3.1-.7.1-1.1.2l-.6.1h-.1l-.5.1-.5.1-.7.1h-.3-.1l-.5.1-.5.1h-.2-.3v-.2l.3-.1.2-.1.5-.1.3-.1h.2.2l.3-.1c.2 0 .4-.1.6-.1l.6-.1.6-.1.6-.1.7-.1h.4l.7-.1h.1.3v.2zm-6.7-.2-.1-.2.2-.1c.2 0 .4-.1.5-.1.5-.1 1.1-.2 1.6-.3l.9-.2.7-.1h.1l.4-.1h.1.2v.2l-.2.1h-.1l-.4.1-.4.1-.3.1-.7.1h-.1c-.7.1-1.4.2-2 .3h-.1zm-1.4 1.4-.2.1h-.1l-.3.1c-.4.1-.8.2-1.2.3h-.1c-.4.1-.8.2-1.2.3h-.3-.1-.2v-.2l.2-.1h.1l.3-.1c.4-.1.8-.2 1.3-.3l.7-.1.6-.1h.3.1.2zm-3.2-2 .1-.1h.1.1.1.1c.1 0 .3.1.4.2 0 0 .1.1.1.1 0 .1.1.1.1.2s.1.1.1.2v.2.1.1.2.1.1h-.1v-.1-.1-.1l-.1-.1-.1-.1-.1-.1s-.1-.1-.1-.1v-.3s0 0-.1-.1c0 0 0 0-.1-.1l-.1-.1-.1-.1-.1-.1zm-4 1s.1 0 0 0c.1 0 .2.1.2.1.1 0 .1.1.2.1s.1.1.2.1c0 .1.1.1.1.2s.1.1.1.2 0 .1.1.2v.1.1.2.1.1h-.2v-.1-.1-.1s0-.1-.1-.1c0 0 0-.1-.1-.1l-.1-.1-.1-.1c0-.1-.1-.1-.1-.1l-.1-.1s-.1-.1-.1-.1c-.1-.1-.2-.1-.2-.1s-.1 0-.1-.1l-.7.2h-.1.1c.1 0 .1.1.2.1s.1.1.2.1.1.1.2.2c0 .1.1.1.1.2s.1.1.1.2 0 .1.1.2v.1.1.1.1.1h-.1v-.1-.1-.1l-.1-.1-.1-.1-.1-.1c0-.1-.1-.1-.1-.1s-.1-.1-.1-.1l-.1-.1s-.1-.1-.1-.1l-.5-.5-.1-.1h-.1-.1l-1.3-1.5-.7-3.7.1-.1 2.5 3.1h.9l2.2 1.3zm-2.9.7v-.1h.1.1.1.1.1c.1 0 .1 0 .2.1.1 0 .1.1.2.1s.1.1.2.2v.1s.1.1.1.1c0 .1.1.1.1.2s0 .1.1.2v.1.1.2.1.1h-.1v-.1-.1-.1s0-.1-.1-.1c0 0 0-.1-.1-.1l-.1-.1-.1-.1-.3-.3-.1-.1s-.1-.1-.1-.1-.1-.1-.1-.1l-.1-.1zm4.2 1.9-.3.1-.8.3-.2.1-.6.2c-.3.1-.6.2-.8.3l-1.9.6-1.2.4-.6.2c-.2.1-.4.1-.6.2l-.3.1-.5.2-.2.1c-.3.1-.5.2-.8.3l-.3.1-.4.1-.1-.1.4-.2.3-.1.8-.3.2-.1.6-.2.3-.1.6-.2.6-.2c.4-.1.8-.3 1.2-.4l1.8-.6.4-.1.4-.1.8-.2.8-.2.3-.1.5-.1.1.2zm-10.5 1.9-.3.1-.3.1-.2.1-.3.1-.1-.1.3-.1.4-.1h.1l.4-.1c.3-.1.7-.3 1-.4h.1l.3-.1c.3-.1.7-.3 1.1-.4s.9-.3 1.3-.4l.2-.1.4-.1.6-.1.7-.2h.2l.3-.1.1.1-.3.1-.2.1-.6.2-.5.2h-.1l-.5.2c-.4.1-.9.3-1.3.4l-.3.1-1 .3-.5.1zm4.2-10.1.1-.4-.4-.2v-.1h1v.1zm-1.2-1.7.2-.5-.5-.2v-.1h1.2v.1zm-.8-2.1.2-.5-.5-.2v-.1h1.2v.1zm-1.1 3.6.1-.4-.3-.2v-.1h1v.1zm-.8-2.1.1-.4-.3-.2v-.1h1v.1zm3.2-8.4 1.2-.2v.1l-.8.8-.1-.1.2-.5zm1.7 2.1-.9 1.1-.1-.1.2-.6-.6-.1v-.1zm.5 2.5-1 1.2h-.1l.2-.7-.7-.1v-.1zm0-7.5h1.5v.1l-1.2.9-.1-.1.3-.6zm-.6 10.3v-.1l1.5-.3v.1l-1 1.2h-.1l.2-.7zm3-8-1.3 1.5-.1-.1.3-.8-.8-.2v-.1zm.4-3.6h1v.1l-.8.6-.1-.1.2-.4zm2.3 1.8-1.2.9-.1-.1.3-.6-.6-.3v-.1zm.7 2.2-1.2 1.5h-.1l.3-.8-.8-.2v-.1zm.1 3-1 1.2h-.1l.2-.7-.7-.1v-.1zm.1-7h1.2v.1l-1 .7.3-.5zm2.3 2.4-1.2.9-.1-.1.3-.6-.6-.3v-.1zm0 5.4-.7.7h-.1l.1-.4-.3-.1v-.1zm.5-7.2h1v.1l-.8.6-.1-.1.2-.4zm-1.6 5.4.2-.5-.5-.2v-.1l1.2-.1v.1zm-1.5 4.6.1-.5-.5-.1v-.1l1.2-.2v.1zm-4.7-3.6 1.8-.6.1.1-1.1 1.5h-.1l.2-.8zm-.1 6.6 1-.3v.1l-.7.7h-.1l.1-.4zm.8-3.7 1.8-.7.1.1-1.1 1.6h-.1l.2-.9zm2.1 3 .1-.6-.5-.1v-.1l1.2-.2v.1zm-10.4 17.2-1-.3-1-.3-2-.6h-.1s0-.1-.1-.1v-.1-.1s0-.1.1-.1.1-.1.1-.1l2-.6v.1l-1.3.7 1.4.6c.3.1.6.3.9.4zm-.7-15.9.1-.4-.4-.2v-.1h1v.1zm-2.8 0 .1-.4-.4-.2v-.1h1v.1zm4.8-9.5-.1-.1.1-.8h.1v.3l1.2-.6.1.1zm.4 1.6v-.9h.1v.3l.8-.3.1.1zm-1.1-3.1-.1-.1.1-1h.1l.1.5 1.8-.8.1.1zm-1.3-1.4v-1.2h.1l.1.6 1.4-.6.1.1zm-1.7-1.3-.1-.1v-1.3h.1l.2.8 2-1 .1.1zm-2.2-1.3-.1-.1v-1.4h.1l.2.8 2.8-1.5.1.1zm-2.1-1.4-.1-.1v-1.4h.1l.2.8 3.4-1.8.1.1zm-2-1.4-.1-.1v-1.4h.1l.2.8 3.9-2 .1.1zm-1.6-1.6-.1-.1v-1.4h.1l.2.8 4-2.2.1.1zm-1.2-2v-1.4h.1l.2.8 3.8-2 .1.1-4 2.5zm-.4-2.2-.1-.1v-1.4h.1l.2.8 2.9-1.5.1.1zm-.8-2.3-6.5-2.2-2.7-3.7.1-.1 3.1 3.3 6 2.5zm-.2 6.6-6.4-.6-3.2-.9v-.2l9.6 1.5zm-13-4.2.1-.2 12.1 2.5v.2l-9-1.4zm-.7-4.8.1-.1 3.9 3.2 8.8 2.4v.2l-9.1-2zm1.9-2 .1-.1 3.7 3.4 7.4 2.4-.1.2-7.9-2zm5.5-3.8.1-.1 3.4 4.6 5.6 2.7-.1.1-6-2.3zm38.2 24.4c0-.1.1-.2.1-.2s0-.1.1-.1c.1 0 .1-.1.2-.1h.3.1.1s0 0 .1.1c0 0 0 0 .1.1l.1.1v.1.1l-.1.1s-.1 0-.1-.1h-.1-.1s0 0-.1 0h-.1-.1s-.1 0-.1.1-.1.1-.1.1v.1.1.1.1.1h-.1s-.1 0-.1-.1v-.1-.1-.1-.1-.1c-.1 0-.1-.1-.1-.2zm.2-2.8c0-.1 0-.2.1-.2s0 0 0-.1l.1-.1s.1 0 .1-.1h.1l.1.1s-.1.1-.1.1v.1.1h.1.1.1v-.1s0 0 0-.1v-.1l.1-.1s0 .1.1.1v.1.1.1c0 .1-.1.2-.1.2-.1.1-.1.1-.2.2h-.1-.1.2c-.1 0-.2 0-.3-.1s-.1 0-.1-.1c0 0 0 0-.1-.1 0 0 0 0-.1-.1 0 0-.1-.1-.1-.1v-.1-.1c0 .5 0 .5.1.4zm2.3 1.1c.4.4.8.7 1.2 1.1 0 .1.1.1.1.2 0 0 0 .1.1.1v.1c0 .1.1.1.1.2v.2.2.1.1c0 .1 0 .1-.1.2v.1.1l-.1-.2v-.1-.1c0-.1 0-.1 0-.2v-.1-.1c0-.1 0-.1 0-.2s0-.1-.1-.2c0-.1 0-.1-.1-.1 0 0 0 0 0-.1 0 0 0 0-.1-.1 0 0-.1-.1-.1-.1-.4-.3-.9-.7-1.3-1zm7.4 17.3c-.8-.5-.6-.3-4.6-2.7 0 0-3.1.6-7.1 1.5.1 0 .1 0 .2.1.1 0 .1.1.2.1s.1.1.2.2.2.2.2.4v.2.1.1.2.1.1h-.2v-.1-.1-.1s0-.1-.1-.1l-.1-.1-.1-.1-.1-.1c0-.1-.1-.1-.1-.1l-.1-.1s-.1-.1-.1-.1-.1-.1-.1-.1-.1 0-.1-.1h-.1l-1-.2h.1c.1 0 .1.1.2.1s.1.1.2.1.1.1.2.2c0 .1.1.1.1.2s.1.1.1.2v.2.2.2.1.1h-.1v-.1-.1-.1l-.1-.1-.2-.3s-.1-.1-.1-.1l-.1-.1c0-.1-.1-.1-.1-.1l-.1-.1s-.1-.1-.1-.1-.1-.1-.1-.1l-.1-.1h-.1-.1l-2.3-1.9.1-.6-.2-1.4.2-.6v-1.9l-2.5 2.1h-.1l7.3-8.6-.1-.2-2.1-.4v-.1h3.8c.4.5 1.2.6 1.9.5v-.1l-.8-1.2.3-.2c.3-.2.6-.1.9.3s.4.9.1 1.3l.1.1c.5-.1 1-.3 1.3-.7.4-.6.4-1.4-.2-2.1-.5-.5-1.3-1.3-1.3-1.3.1-1-.4-1.8-1.4-2.2-2.1-.8-3.6-1.4-3.6-1.4h-5v-.1l4.9-.6 1.5-1.3 5.6-2.2c.2-.1.3-.2.5-.3.1-.1.2-.3.3-.5.7-2 3-8 3-8l6.9-9.3-.1-.1-4.5 3.2-.1-.1 1.9-3.9.1-.1-3 4.3h-.1l.3-4.3h-.1l-1.1 4.3-1.7-4.3h-.1l1.3 5.2-.3 2.4h-.1l-.3-2.1-3.1-5.2-.1.1 2.5 5.5.2 4.1h-.1l-.5-3.8-4-5.1-.1.1 3.5 5.3.2 5.6h-.1l-.7-5.3-4.5-4.7 3.8 4.9.4 6.4h-.1l-1-6.1-4.6-4-.1.1 4 4.3.7 6.7h-.1l-1.4-6.3-4.7-3.2-.1.1 4 3.5 1.1 6.6h-.1l-1.7-6.2-4.5-2.4-.1.1 3.8 2.8 1.3 6.4h-.1l-2-5.9-4.2-1.6v.1l3.5 2 1.5 5.9h-.1l-2.2-5-4-.7v.1l3.3 1.2 1.7 5.1h-.1l-2.5-4.4-3.4-.3v.1l2.6.9 2 4.1-.1.1-2.7-3.3-3 .2v.1l2.4.4 2.2 3.2-.1.1-2.9-2.4-3.2.8v.1h2.6l2.4 2.3-.1.1-2.9-1.4-3.4.5v.1l3 .1 2.5 1.6v.1l-2.8-1-4.5.9v.1l4.2-.1 2.6 1.2v.1l-2.7-.6-6.8 1.1v.1l5.4.4v.1l-4.3.8v.1l2.9.2v.1l-3.3.8 1.4 1.9-.1.1-3.2-2.8-8.4-11.7-7.7-3.9-6-5.5-1.8-5h-.1l.7 5.7 2.9 4.7-.1.1-4.3-3.6-2-3.9h-.1l.7 4.6 2.1 3.8-.1.1-3.4-2.8-1.8-2.6h-.1l.8 3.6 2.2 3.2-.1.1-3.4-1.9-1.5-1.9-.1.1 1 2.8 1.6 2h-.1l-1.6-.3v.1l3.3 3.1v.1l-2.9-.2v.1l4.1 2.6v.1l-1.9.1v.1l4.8 1.8v.1l-1.9.7v.1l11.5.8v.1l-6.4.1-.1 1.3 8.1-.1v.1l-5.8.6-.3 1.6 7.8-1.1v.1l-6.1 1.4-.1 1.8 8.1-2.2v.1l-6.6 2.6v1.7l8.1-3.4v.1l-6.6 3.5.2 1.7 8-4.1.1.1-6.5 4.1.4 1.4 7.7-4.2.1.1-6 4 .6 1.5 6.3-3.8.1.1-4.2 3.1.7 1.5 3.1-1.9.1.1-1.2 1 .6 1.2.7-.2 1-.3.5-.2c.1 0 .2-.1.3-.1s.2-.1.3-.1c.2-.1.3-.2.5-.3l.1-.1.1-.1c.1-.1.1-.1.2-.2s.1-.1.2-.2l.2-.2c.1-.1.1-.1.1-.2l.1-.2c.1-.1.1-.2.1-.4 0-.1.1-.2.1-.3l-.1-.4v-.1h.1v.1.2c0 .1 0 .2-.1.3 0 .1-.1.3-.1.4l-.1.2-.1.2c0 .1-.1.2-.1.2l-.2.2-.2.2-.1.1-.1.3c-.1.1-.3.3-.5.4l-.3.2-.2.2c-.5.2-1 .4-1.5.7l-8.9 3.2-5.8 9.1.3.2 6.5-7.5.1.1-3.9 5.7 2.4-.4 3.6-5.3.1.1-2.6 5.1 2.2-.1 2.4-4.9h.1l-1.6 4.8 2.3-.2 1.4-4.6h.1l-.8 4.5 2.3-.4.5-4.2h.1v4l1.7-1-.3-3h.1l.6 2.7.6.3.5 1.2.7.2 1.4 1.1.5.4v.1l-.9-.4c-3.3.9-6.6 1.9-9.8 2.9l3.3 1.9 1.6.9.7.7.2.1h.1c.1.1.2.2.3.2.2.2.3.4.4.6 0 .2.1.4 0 .5 0 .1 0 .2-.1.3v.1h-.1v-.1c0-.1 0-.2 0-.3 0-.2 0-.3-.1-.5s-.2-.4-.3-.5-.2-.1-.3-.2h-.1-.1l-.2-.1c-.3-.1-.5-.2-.8-.3l-1.7-.8-1.1-.5-2.5.8c-1.1.3-1 1.8 0 2.2 1.5.6 3.1 1.2 4.6 1.7.5.2 1.1.3 1.7.3s1.2-.2 1.7-.5l4.1-1.9c2.9-1.5 7-4.8 7-4.8l.1.1-3.2 3c2.2-1 4.2-1.9 5.6-2.4 1.6-.8 3.2-1.8 4.7-2.8l.1.1-2.2 2c2.5-.5 6.5-.9 8.7-.9 3.1.1 3.1-2.5 1.6-3.3z" fill="#fff"/><path d="m643.3 54.5 4.7 14.6h8.1l-16.5-49h-9.3l-16.4 49h7.5l4.7-14.6zm-15.3-5.7 6.7-20.9h.1l6.7 20.9z" fill="#ee2e3e"/><path d="m659 20.1v49h14.8c4.2 0 8-.6 11.3-1.9s6-3 8.2-5.2 3.9-4.8 5-7.8 1.7-6.2 1.7-9.7-.6-6.7-1.7-9.7-2.8-5.6-5-7.8-4.9-3.9-8.2-5.2c-3.2-1.3-7-1.9-11.2-1.9zm14.7 42.6h-7.2v-36.1h7.2c2.9 0 5.6.4 7.8 1.3 2.3.9 4.2 2.1 5.8 3.7s2.8 3.5 3.6 5.7 1.3 4.7 1.3 7.3-.4 5.1-1.3 7.3-2 4.1-3.6 5.7-3.5 2.8-5.8 3.7c-2.3 1-4.9 1.4-7.8 1.4z" fill="#ee2e3e"/><path d="m715 69.1h9.2l16.3-49h-7.5l-13.1 41h-.1l-13-41h-8.1z" fill="#ee2e3e"/><path d="m743.4 20.1h7.4v49h-7.4z" fill="#ee2e3e"/><path d="m770.3 70.2c2.6 0 5-.4 7.1-1.2s3.9-1.9 5.4-3.2 2.6-2.9 3.4-4.6c.8-1.8 1.2-3.6 1.2-5.6 0-3.3-.9-6-2.8-8s-4.5-3.8-7.8-5.3l-6.7-2.9c-2.4-1.1-4-2.2-4.9-3.3s-1.3-2.5-1.3-4.1c0-.8.2-1.7.5-2.5s.9-1.5 1.5-2.2c.7-.7 1.5-1.2 2.6-1.6s2.3-.6 3.7-.6c1.6 0 3.4.4 5.3 1 1.9.7 3.5 1.5 4.9 2.5l4.1-5.1c-.7-.6-1.6-1.1-2.7-1.6-1-.5-2.1-1-3.4-1.5-1.2-.4-2.5-.8-3.9-1-1.4-.3-2.8-.4-4.2-.4-2.8 0-5.2.4-7.2 1.2s-3.7 1.9-5 3.1-2.3 2.7-2.9 4.3-.9 3.2-.9 4.8c0 2.8.7 5.3 2.2 7.5 1.5 2.1 4 3.9 7.4 5.4l6.9 3c2.4 1.1 4.1 2.2 5.2 3.4s1.6 2.7 1.6 4.5c0 1-.2 1.9-.6 2.8s-1 1.7-1.8 2.4-1.8 1.3-2.9 1.7c-1.2.4-2.5.6-4.1.6-2.1 0-4.2-.4-6.2-1.2-2.1-.8-3.9-1.9-5.5-3.3l-4.2 5.5c1.6 1.3 3.7 2.5 6.3 3.6s5.8 1.9 9.7 1.9z" fill="#ee2e3e"/><path d="m812.5 70.2c3.2 0 6.2-.6 9.1-1.8s5.5-2.9 7.7-5.1 3.9-4.9 5.2-8c1.3-3.2 2-6.7 2-10.6s-.7-7.5-2-10.6-3.1-5.8-5.2-8c-2.2-2.2-4.7-3.9-7.7-5.1-2.9-1.2-6-1.8-9.1-1.8-3.2 0-6.2.6-9.1 1.8s-5.4 2.9-7.7 5.1c-2.2 2.2-4 4.9-5.3 8-1.3 3.2-2 6.7-2 10.6s.7 7.5 2 10.6c1.3 3.2 3.1 5.8 5.3 8s4.8 3.9 7.7 5.1 5.9 1.8 9.1 1.8zm0-6.7c-2.4 0-4.6-.5-6.6-1.5s-3.7-2.4-5.1-4.1-2.5-3.7-3.3-6-1.2-4.7-1.2-7.2.4-4.9 1.2-7.2 1.9-4.3 3.3-6 3.1-3.1 5.1-4.1 4.2-1.5 6.6-1.5 4.6.5 6.6 1.5 3.7 2.4 5.1 4.1 2.5 3.7 3.3 6 1.2 4.7 1.2 7.2c0 2.6-.4 5-1.2 7.2-.8 2.3-1.9 4.3-3.3 6s-3.1 3.1-5.1 4.1-4.2 1.5-6.6 1.5z" fill="#ee2e3e"/><path d="m848.4 49.3h8.5l14 19.9h8.8v-.2l-15.3-21.3c1.6-.5 3-1.2 4.2-2.2s2.2-2 2.9-3.2 1.4-2.5 1.8-3.8c.4-1.4.6-2.7.6-4.1 0-2-.3-3.8-1-5.5s-1.7-3.2-3-4.5-3-2.3-4.9-3.1-4.2-1.2-6.9-1.2h-17.1v49h7.4zm0-6.1v-16.9h8.5c2.8 0 5.1.8 6.7 2.3s2.5 3.6 2.5 6.2-.8 4.7-2.5 6.2c-1.6 1.5-3.9 2.2-6.7 2.2z" fill="#ee2e3e"/><path clip-rule="evenodd" d="m263.9 58.8c-3.1 5.5-6.9 7.5-13.9 7.5h-2c-3.9 0-5.7-2-5.7-6.4v-16.7l2.9.1c7.1.1 9 .5 11.2 7.5l.8 2.6h1v-21.5h-1l-.8 2.6c-2.1 7-4.2 7.4-11.2 7.5l-2.9.1v-21.6h5c8.3 0 12 1.8 14.8 7.1l3.2 5.9h.9v-14.1h-39.2v1l1.9.4c4.2.9 5.1 3 5.1 6.1v32.8c0 2.5-.6 5.6-5.1 6.3l-1.9.3v1.1h41v-14.1h-.9z" fill="#161a1e" fill-rule="evenodd"/></svg>