<svg viewBox="0 0 1059 1076.92" xmlns="http://www.w3.org/2000/svg"><path d="m976.53 167.37c11.05 2.9 19.51 12.33 20.27 23.72.04.61.06 1.22.06 1.83v575.37c0 19.62-10.47 37.74-27.45 47.55l-412.45 238.13c-16.99 9.81-37.92 9.81-54.91 0l-412.45-238.13c-16.99-9.81-27.45-27.94-27.45-47.55v-575.37c0-.61.02-1.23.06-1.83.76-11.39 9.22-20.82 20.26-23.72l439.79-150.86c4.56-1.2 9.34-1.2 13.9 0l440.38 150.86z" fill="#fff"/><path d="m529.5 1076.92c-12.19 0-24.39-3.14-35.26-9.42l-412.45-238.13c-21.75-12.56-35.26-35.96-35.26-61.08v-575.37c0-.96.03-1.93.1-2.88 1.18-17.69 13.71-32.74 31.26-37.61l439.85-150.88.56-.15c7.14-1.87 14.69-1.87 21.83 0l1.1.33 439.89 150.69c17.56 4.87 30.1 19.92 31.27 37.63.06.94.1 1.91.1 2.87v575.37c0 25.12-13.51 48.52-35.27 61.08l-412.45 238.13c-10.88 6.28-23.07 9.42-35.26 9.42zm-2.83-1045.41-439.69 150.82-.56.15c-4.79 1.26-8.35 5.23-8.64 9.65-.02.27-.03.53-.03.8v575.37c0 13.99 7.53 27.03 19.65 34.03l412.45 238.13c12.12 7 27.17 7 39.29 0l412.45-238.13c12.12-7 19.65-20.03 19.65-34.03v-575.38c0-.26 0-.52-.03-.78-.3-4.44-3.85-8.41-8.64-9.66l-1.1-.33-439.71-150.64c-1.67-.37-3.41-.37-5.09 0z" fill="#f2b200"/><path d="m393.73 815.84h260.15" fill="#f2b200" stroke="#f2b200" stroke-miterlimit="10" stroke-width="8.4"/><rect fill="#f2b200" height="179.47" rx="20.82" width="1059" y="304.53"/><path d="m340.93 157.96c-8.83 0-16.37 3.14-22.65 9.41-6.26 6.28-9.4 13.82-9.4 22.63s3.14 16.37 9.4 22.63c6.28 6.28 13.82 9.41 22.65 9.41s16.33-3.14 22.61-9.41c6.28-6.26 9.43-13.8 9.43-22.63s-3.16-16.35-9.43-22.63c-6.28-6.28-13.82-9.41-22.61-9.41zm13.57 45.62c-3.78 3.74-8.3 5.62-13.57 5.62s-9.83-1.87-13.57-5.62c-3.76-3.76-5.63-8.28-5.63-13.57s1.87-9.81 5.63-13.57c3.74-3.78 8.26-5.67 13.57-5.67s9.79 1.89 13.57 5.67c3.78 3.76 5.65 8.3 5.65 13.57s-1.87 9.81-5.65 13.57zm126.23-14.37 28.02-30.72h-54.54v12.63h25.86l-17.75 18.09 28.55 32.27h18.34zm-98.82-30.72v62.99h13.27v-26.51l19.04 25.45 19.02-25.45v26.51h13.29v-62.99l-32.31 39.81z"/><path d="m752.38 158.48h-229.27s-5.77 0-5.77 5.77v51.46s0 5.77 5.77 5.77h229.27s5.77 0 5.77-5.77v-51.46s0-5.77-5.77-5.77z"/><g fill="#fff"><path d="m530.76 171.36h13.75c7.6 0 12.8 4.25 12.8 12.15 0 4.45-1.9 8.3-5.6 10.4l8 14.7h-9.65l-6.9-13h-3.8v13h-8.6v-37.24zm13.8 16.3c2.8 0 4.2-2.1 4.2-4.15 0-2.5-1.7-4.2-4.2-4.2h-5.2v8.35z"/><path d="m563.74 171.36h24.34v7.95h-15.8v6.6h13.35v8h-13.35v6.7h15.8v8h-24.34v-37.24z"/><path d="m589.93 171.36h9.3l7.45 24.29 7.4-24.29h9.35l-12.1 37.24h-9.3z"/><path d="m627.47 171.36h8.55v37.24h-8.55z"/><path d="m642.81 171.36h24.34v7.95h-15.8v6.6h13.35v8h-13.35v6.7h15.8v8h-24.34v-37.24z"/><path d="m669 171.36h9.25l5.1 22.84 4.3-18.24-1.05-4.1v-.5h10.65l5.4 22.84 5.1-22.84h9.2l-9.25 37.24h-9.4l-5.3-19.74-5.35 19.74h-9.35z"/><path d="m718.83 201.05 6.55-4.9c1.55 3 4.1 5.05 7.45 5.05 1.9 0 4-.75 4-3 0-1.6-1-2.35-2.5-2.85l-6.7-2.3c-5.45-1.95-8.65-5.4-8.65-10.85 0-7.1 5.45-11.45 12.55-11.45 4.8 0 9.75 2.05 12.6 7.25l-6.5 4.85c-1.25-2.55-3.35-4.1-6.1-4.1-1.85 0-4.05.8-4.05 3.15 0 1.5 1.1 2.45 2.6 2.95l6.5 2.2c5.3 1.75 8.7 5.1 8.7 10.7 0 6.15-4.8 11.45-12.89 11.45-5.35 0-10.6-2.5-13.55-8.15z"/><path d="m320.03 440v-85.67h19.78v67.27h33v18.4zm62.1 0v-85.67h56v18.28h-36.34v15.18h30.71v18.4h-30.71v15.41h36.34v18.4zm60.26 0 27.48-85.67h24.15l27.49 85.67h-21.39l-5.18-16.79h-26.1l-5.18 16.79zm32.08-35.19h14.84l-7.36-24.15zm56.35 35.19v-85.67h27.26q19.89 0 31.62 12.01 11.73 12.02 11.73 30.65 0 19.32-12.07 31.17-12.08 11.84-31.28 11.84zm19.78-18.4h7.94q10.92 0 17.08-6.96 6.15-6.95 6.15-17.65 0-10.92-6.15-17.65-6.16-6.73-17.08-6.73h-7.94zm61.53 18.4v-85.67h56v18.28h-36.34v15.18h30.71v18.4h-30.71v15.41h36.34v18.4zm66.58 0v-85.67h31.63q13.45 0 21.45 7.3 7.99 7.3 7.99 20.64 0 7.82-3.28 14.09-3.28 6.27-9.6 9.83l18.4 33.81h-22.2l-15.87-29.9h-8.74v29.9zm19.78-48.18h11.96q4.6 0 7.13-2.88 2.53-2.87 2.53-6.67 0-4.37-2.64-7.01-2.65-2.65-7.02-2.65h-11.96z"/></g><path d="m383.34 590.84q-5.88 0-10.96-2.87-5.07-2.87-8.01-8.54l9.17-6.86q3.64 7.07 10.43 7.07 2.31 0 3.95-1.01 1.65-1.02 1.65-3.19 0-2.8-3.5-3.99l-9.38-3.22q-12.11-4.34-12.11-15.19 0-7.28 4.97-11.65 4.97-4.38 12.6-4.38 5.39 0 10.08 2.49 4.69 2.48 7.56 7.66l-9.1 6.79q-2.8-5.74-8.54-5.74-2.24 0-3.96 1.08-1.71 1.09-1.71 3.33 0 2.94 3.64 4.13l9.1 3.08q12.18 3.99 12.18 14.98 0 6.72-4.93 11.37-4.94 4.66-13.13 4.66zm25.27-.84v-52.15h34.09v11.13h-22.12v9.24h18.69v11.2h-18.69v9.38h22.12v11.2zm63.49.84q-10.64 0-17.85-7.63-7.21-7.63-7.21-19.32 0-11.2 6.9-19.04 6.89-7.84 18.16-7.84 6.79 0 12.53 3.36 5.74 3.36 8.26 9.31l-9.87 7.42q-2.94-8.54-10.92-8.54-6.16 0-9.62 4.34-3.47 4.34-3.47 10.99 0 6.65 3.47 11.06 3.46 4.41 9.62 4.41 7.98 0 10.92-8.61l9.87 7.42q-2.38 5.74-8.08 9.21-5.71 3.46-12.71 3.46zm47.95 0q-9.24 0-14.91-5.84-5.67-5.85-5.67-14.32v-32.83h12.04v32.13q0 3.99 2.38 6.69 2.38 2.69 6.16 2.69 3.78 0 6.13-2.69 2.34-2.7 2.34-6.69v-32.13h12.04v32.83q0 8.82-5.84 14.49-5.85 5.67-14.67 5.67zm29.4-.84v-52.15h19.25q8.19 0 13.06 4.44 4.86 4.45 4.86 12.57 0 4.76-1.99 8.57-2 3.82-5.85 5.99l11.2 20.58h-13.51l-9.66-18.2h-5.32v18.2zm12.04-29.33h7.28q2.8 0 4.34-1.75 1.54-1.75 1.54-4.06 0-2.66-1.61-4.27-1.61-1.61-4.27-1.61h-7.28zm34.16 29.33v-52.15h11.97v52.15zm29.75 0v-41.02h-12.11v-11.13h35.98v11.13h-11.9v41.02zm42.28 0v-22.61l-16.59-29.54h13.72l8.82 16.31 8.82-16.31h13.72l-16.52 29.47v22.68z"/><path d="m317.93 680 16.73-52.15h14.69l16.74 52.15h-13.02l-3.15-10.22h-15.89l-3.15 10.22zm19.53-21.42h9.03l-4.48-14.7zm40.67 21.42-13.02-52.15h12.95l7.14 31.99 6.02-25.55-1.47-5.74v-.7h14.91l7.56 31.99 7.14-31.99h12.88l-12.95 52.15h-13.16l-7.42-27.65-7.49 27.65zm53.13 0 16.73-52.15h14.7l16.73 52.15h-13.02l-3.15-10.22h-15.89l-3.15 10.22zm19.53-21.42h9.03l-4.48-14.7zm34.3 21.42v-52.15h19.25q8.19 0 13.05 4.44 4.87 4.45 4.87 12.57 0 4.76-2 8.57-1.99 3.82-5.84 5.99l11.2 20.58h-13.51l-9.66-18.2h-5.32v18.2zm12.04-29.33h7.28q2.8 0 4.34-1.75 1.54-1.75 1.54-4.06 0-2.66-1.61-4.27-1.61-1.61-4.27-1.61h-7.28zm34.16 29.33v-52.15h34.09v11.13h-22.12v9.24h18.69v11.2h-18.69v9.38h22.12v11.2zm40.53 0v-47.81l-2.52-3.64v-.7h11.76l19.81 27.51v-27.51h11.97v52.15h-9.24l-19.74-28.14v28.14zm50.54 0v-52.15h34.09v11.13h-22.12v9.24h18.69v11.2h-18.69v9.38h22.12v11.2zm57.19.84q-5.88 0-10.96-2.87-5.07-2.87-8.01-8.54l9.17-6.86q3.64 7.07 10.43 7.07 2.31 0 3.95-1.01 1.65-1.02 1.65-3.19 0-2.8-3.5-3.99l-9.38-3.22q-12.11-4.34-12.11-15.19 0-7.28 4.97-11.65 4.97-4.38 12.6-4.38 5.39 0 10.08 2.49 4.69 2.48 7.56 7.66l-9.1 6.79q-2.8-5.74-8.54-5.74-2.24 0-3.96 1.08-1.71 1.09-1.71 3.33 0 2.94 3.64 4.13l9.1 3.08q12.18 3.99 12.18 14.98 0 6.72-4.94 11.38-4.93 4.65-13.12 4.65zm41.92 0q-5.88 0-10.95-2.87-5.07-2.87-8.01-8.54l9.17-6.86q3.64 7.07 10.42 7.07 2.32 0 3.96-1.01 1.65-1.02 1.65-3.19 0-2.8-3.5-3.99l-9.38-3.22q-12.12-4.34-12.12-15.19 0-7.28 4.98-11.65 4.97-4.38 12.6-4.38 5.39 0 10.07 2.49 4.7 2.48 7.57 7.66l-9.1 6.79q-2.8-5.74-8.54-5.74-2.24 0-3.96 1.08-1.72 1.09-1.72 3.33 0 2.94 3.65 4.13l9.09 3.08q12.19 3.99 12.19 14.98 0 6.72-4.94 11.38-4.93 4.65-13.13 4.65z"/><path d="m375.29 760v-41.02h-12.11v-11.13h35.98v11.13h-11.9v41.02zm29.54 0v-52.15h19.25q8.19 0 13.06 4.45 4.86 4.44 4.86 12.56 0 4.76-1.99 8.58-2 3.81-5.85 5.98l11.2 20.58h-13.51l-9.66-18.2h-5.32v18.2zm12.04-29.33h7.28q2.8 0 4.34-1.75 1.54-1.75 1.54-4.06 0-2.66-1.61-4.27-1.61-1.61-4.27-1.61h-7.28zm30.31 29.33 16.73-52.15h14.7l16.73 52.15h-13.02l-3.15-10.22h-15.89l-3.15 10.22zm19.53-21.42h9.03l-4.48-14.7zm34.3 21.42v-52.15h11.97v52.15zm22.89 0v-47.81l-2.52-3.64v-.7h11.76l19.81 27.51v-27.51h11.97v52.15h-9.24l-19.74-28.14v28.14zm50.54 0v-52.15h11.97v52.15zm22.89 0v-47.81l-2.52-3.64v-.7h11.76l19.81 27.51v-27.51h11.97v52.15h-9.24l-19.74-28.14v28.14zm73.78.84q-10.71 0-18.03-7.73-7.31-7.74-7.31-19.22 0-11.55 7.1-19.21 7.11-7.67 17.96-7.67 6.93 0 11.97 3.05 5.04 3.04 7.63 7.17l-9.73 7.28q-3.08-5.95-9.87-5.95-6.09 0-9.56 4.34-3.46 4.34-3.46 10.99 0 6.65 3.64 11.06 3.64 4.41 9.66 4.41 4.34 0 7.66-2.45 3.33-2.45 3.68-6.72h-12.32v-10.85h24.36v6.37q0 11.06-6.41 18.1-6.4 7.03-16.97 7.03z"/><path d="m463.32 920.72q-9.54 0-16.32-6.75-6.78-6.75-6.78-16.29 0-9.6 6.78-16.35 6.78-6.75 16.32-6.75 9.54 0 16.29 6.75 6.75 6.75 6.75 16.35 0 8.82-5.88 15.36l5.88 6.96h-10.92l-1.56-1.86q-4.86 2.58-10.56 2.58zm-9.3-32.34q0 0-1.92 1.92-1.92 1.92-1.92 7.38 0 5.46 3.84 9.3 3.84 3.84 9.3 3.84 1.98 0 3.84-.54l-9.12-10.68h10.98l4.92 5.82q2.52-3.36 2.52-7.74 0-5.46-3.84-9.3-3.84-3.84-9.3-3.84-5.46 0-9.3 3.84zm44.16 31.62v-32.82h-7.92v-6.12h3.18q2.4 0 4.08-1.68 1.68-1.68 1.68-4.08h9.3v44.7zm17.04 7.2 22.74-60h10.86l-22.86 60zm37.68-15.36q14.1-15.3 16.02-17.64 2.7-3.3 2.7-5.58 0-1.98-1.14-3.06-1.14-1.08-3-1.08-4.32 0-5.7 4.8l-.3.96-9-3.12q1.2-6.18 5.49-9.36 4.29-3.18 9.51-3.18 6.24 0 10.35 3.48 4.11 3.48 4.11 9.48 0 4.8-3.24 9.54-1.62 2.28-12.06 13.62h15.66v9.3h-29.4zm49.44 8.88q-5.04 0-9.21-2.73-4.17-2.73-5.49-7.41l9.42-3.24q1.44 3.54 5.28 3.54 2.58 0 4.02-1.65 1.44-1.65 1.44-4.17 0-2.52-1.41-4.17-1.41-1.65-4.05-1.65-3.42 0-4.74 2.82l-8.7-3 3.24-23.76h24.48v9.3h-16.8l-.72 6.12q1.92-.78 4.86-.78 6.42 0 10.26 4.2 3.84 4.2 3.84 10.92 0 6.78-4.5 11.22-4.5 4.44-11.22 4.44z"/></svg>