<svg height="97.866" viewBox="0 0 97.866 97.866" width="97.866" xmlns="http://www.w3.org/2000/svg" xmlns:xlink="http://www.w3.org/1999/xlink"><clipPath id="a"><path d="m0 0h97.866v97.866h-97.866z"/></clipPath><clipPath id="b"><path d="m51.079 0a6.189 6.189 0 1 0 0 12.378 36.56 36.56 0 0 1 17.541 68.634 6.19 6.19 0 1 0 5.952 10.855 48.939 48.939 0 0 0 -23.493-91.867z" transform="translate(-44.889)"/></clipPath><linearGradient id="c" gradientUnits="objectBoundingBox" x1="-.775" x2="-.758" y1="1.057" y2="1.057"><stop offset="0" stop-color="#c4b6f0"/><stop offset=".001" stop-color="#c4b6f0"/><stop offset=".249" stop-color="#ab9ae0"/><stop offset=".501" stop-color="#9986d5"/><stop offset=".752" stop-color="#8e7acf"/><stop offset="1" stop-color="#8b76cd"/></linearGradient><g clip-path="url(#a)"><path d="m48.933 97.866a48.933 48.933 0 1 1 48.934-48.933 48.988 48.988 0 0 1 -48.934 48.933m0-85.487a36.554 36.554 0 1 0 36.555 36.554 36.6 36.6 0 0 0 -36.555-36.555" fill="#e4e4e4"/></g><g clip-path="url(#b)" transform="translate(42.743)"><path d="m0 0h55.123v92.63h-55.123z" fill="url(#c)"/></g><g clip-path="url(#a)"><g fill="#333132"><path d="m39.23 61.61v-3.428h-8.562v-2.182l6.144-13.011h2.612l-6.143 13.011h5.949v-5.241h2.327v5.241h1.943v2.186h-1.942v3.424z" transform="translate(-1.466 -2.055)"/><path d="m51.385 61.972a6.465 6.465 0 0 1 -2.574-.51 5.9 5.9 0 0 1 -2.049-1.448 5.779 5.779 0 0 1 -1.262-2.232l2.212-.634a3.66 3.66 0 0 0 1.423 1.966 3.83 3.83 0 0 0 2.237.66 3.968 3.968 0 0 0 1.974-.524 3.433 3.433 0 0 0 1.293-1.365 4.217 4.217 0 0 0 .458-2 3.908 3.908 0 0 0 -1.033-2.807 3.582 3.582 0 0 0 -2.717-1.085 3.8 3.8 0 0 0 -.976.135 4.987 4.987 0 0 0 -.951.355l-1.112-1.823 6.906-6.246.3.775h-9.276v-2.2h10.98v2.211l-5.885 5.64-.026-.815a5.975 5.975 0 0 1 3.233.615 5.21 5.21 0 0 1 2.154 2.1 6.305 6.305 0 0 1 .77 3.142 6.128 6.128 0 0 1 -.8 3.156 5.827 5.827 0 0 1 -2.174 2.152 6.141 6.141 0 0 1 -3.105.782" transform="translate(-2.176 -2.055)"/><path d="m64.015 48.164a2.459 2.459 0 0 1 -1.278-.343 2.6 2.6 0 0 1 -.921-.916 2.463 2.463 0 0 1 -.342-1.281 2.392 2.392 0 0 1 .353-1.27 2.693 2.693 0 0 1 .93-.925 2.409 2.409 0 0 1 1.257-.346 2.45 2.45 0 0 1 1.273.342 2.637 2.637 0 0 1 .92.918 2.539 2.539 0 0 1 0 2.561 2.624 2.624 0 0 1 -.92.916 2.442 2.442 0 0 1 -1.273.343m-1.27 5.29-.846-.846 9.326-9.307.847.846zm1.27-6.4a1.35 1.35 0 0 0 .712-.2 1.545 1.545 0 0 0 .522-.522 1.381 1.381 0 0 0 0-1.425 1.554 1.554 0 0 0 -.522-.522 1.387 1.387 0 0 0 -1.425 0 1.554 1.554 0 0 0 -.522.522 1.387 1.387 0 0 0 0 1.425 1.545 1.545 0 0 0 .522.522 1.346 1.346 0 0 0 .713.2m5.94 6.61a2.449 2.449 0 0 1 -1.274-.342 2.64 2.64 0 0 1 -.921-.918 2.439 2.439 0 0 1 -.346-1.281 2.394 2.394 0 0 1 .353-1.269 2.7 2.7 0 0 1 .931-.925 2.4 2.4 0 0 1 1.256-.346 2.469 2.469 0 0 1 1.277.342 2.6 2.6 0 0 1 .921.917 2.57 2.57 0 0 1 0 2.561 2.6 2.6 0 0 1 -.921.918 2.469 2.469 0 0 1 -1.277.342m0-1.108a1.338 1.338 0 0 0 .712-.2 1.529 1.529 0 0 0 .522-.522 1.381 1.381 0 0 0 0-1.425 1.529 1.529 0 0 0 -.522-.522 1.381 1.381 0 0 0 -1.425 0 1.545 1.545 0 0 0 -.522.522 1.387 1.387 0 0 0 0 1.425 1.546 1.546 0 0 0 .522.522 1.341 1.341 0 0 0 .713.2" transform="translate(-2.939 -2.06)"/></g><path d="m39.264 14.176-3.844-11.766a48.878 48.878 0 0 1 15.206-2.41v12.377a36.534 36.534 0 0 0 -11.362 1.8" fill="#e4e4e4" transform="translate(-1.694)"/></g></svg>