<svg xmlns="http://www.w3.org/2000/svg" fill="none" viewBox="0 0 139 30" width="139" height="30"><g fill="currentColor" clip-path="url(#a)"><path d="m0 0 11.722 30h2.158L2.16 0H0ZM25.012 15.003a28.32 28.32 0 0 1 1.92.694 6.66 6.66 0 0 1 1.524.849c.425.318.771.724 1.016 1.188.255.514.38 1.081.365 1.652v.031c.037.69-.089 1.38-.366 2.016a4.573 4.573 0 0 1-1.237 1.658c-1.069.884-2.566 1.326-4.492 1.326a10.772 10.772 0 0 1-3.556-.606 12.331 12.331 0 0 1-3.27-1.727l-.031-.032.032-.031 2.158-3.312.033.03a6.467 6.467 0 0 0 2.158 1.497c.812.341 1.687.514 2.571.51 1.249 0 1.873-.39 1.873-1.17a.87.87 0 0 0-.167-.508.912.912 0 0 0-.436-.323c-.463-.207-.94-.383-1.428-.524a1.284 1.284 0 0 0-.302-.077 1.14 1.14 0 0 1-.301-.077 42.015 42.015 0 0 1-1.905-.538 6.51 6.51 0 0 1-1.715-.8 4.247 4.247 0 0 1-1.253-1.296 3.737 3.737 0 0 1-.492-2.017v-.06a4.636 4.636 0 0 1 .413-1.97 4.444 4.444 0 0 1 1.174-1.54 5.405 5.405 0 0 1 1.842-1 7.594 7.594 0 0 1 2.38-.354c1.044.004 2.08.154 3.08.447 1.025.294 1.999.736 2.888 1.312v.06l-1.936 3.426-.031-.03a5.302 5.302 0 0 0-1.81-1.127 6.302 6.302 0 0 0-2.286-.417c-.17.002-.339.012-.507.031-.184.019-.361.07-.524.154-.155.08-.29.19-.397.324a.9.9 0 0 0-.159.571.673.673 0 0 0 .252.51c.196.171.415.317.65.431.29.145.586.274.89.387.328.122.65.235.968.339.07 0 .14.011.206.03.074.021.143.042.207.062M31.423 8.74h4.22v15.428h-4.22V8.739Zm0-6.172h4.22V6.18h-4.22V2.568ZM44.25 11.394h4.667v3.423h-2.73l-1.937-3.423Zm4.667-8.826V6.18h-3.46a1.492 1.492 0 0 0-.718.148c-.222.108-.412.27-.552.469a2.853 2.853 0 0 0-.445 1.697v15.674h-4.22v-9.35h-2.287v-3.424h2.285V8.308a5.47 5.47 0 0 1 .46-2.222 5.836 5.836 0 0 1 3.159-3.07 6.004 6.004 0 0 1 2.317-.448h3.46ZM61.551 10.347v3.425h-2.349l-1.968-3.425h4.317Zm-4.857 8.544c-.004.225.04.449.131.656.09.207.224.393.393.547.164.16.36.286.575.371.216.085.446.127.679.123h3.079v3.58h-3.08a6.098 6.098 0 0 1-2.33-.448 5.895 5.895 0 0 1-3.194-3.071 5.378 5.378 0 0 1-.476-2.252v-4.629h-2.285v-3.421h2.286V4.758h4.22l.002 14.133ZM70.279 8.49a8.05 8.05 0 0 1 3.174.634 8.192 8.192 0 0 1 4.365 4.242c.437.984.659 2.045.65 3.117.003.58-.06 1.16-.188 1.728l-.032.06h-8.062l-2.036-3.146h6.032a4.597 4.597 0 0 0-1.476-2.13 3.749 3.749 0 0 0-2.428-.832 3.939 3.939 0 0 0-1.62.338 4.199 4.199 0 0 0-1.317.907 4.117 4.117 0 0 0-.873 1.353 4.5 4.5 0 0 0-.315 1.707c.005.499.102.993.286 1.46.189.5.468.964.825 1.368.368.416.808.765 1.302 1.03.524.28 1.115.424 1.714.415a5.076 5.076 0 0 0 1.575-.231 2.92 2.92 0 0 0 1.349-1.035l.031-.03.063.03 3.683 1.577-.063.061a7.868 7.868 0 0 1-2.905 2.427 8.305 8.305 0 0 1-3.73.872 8.425 8.425 0 0 1-3.222-.618 8.116 8.116 0 0 1-2.62-1.697 8.123 8.123 0 0 1-1.763-2.53 7.447 7.447 0 0 1-.65-3.085 7.53 7.53 0 0 1 .65-3.117 8.15 8.15 0 0 1 4.38-4.243 8.243 8.243 0 0 1 3.223-.633M97.136 2.568v21.6h-4.254l.032-7.745a3.78 3.78 0 0 0-.365-1.635 4.596 4.596 0 0 0-.952-1.342c-.4-.386-.875-.69-1.397-.896a4.623 4.623 0 0 0-1.73-.324 4.501 4.501 0 0 0-1.715.324c-.518.21-.988.52-1.38.91a4.55 4.55 0 0 0-.937 1.358 4.161 4.161 0 0 0 0 3.333 4.367 4.367 0 0 0 2.317 2.252c.541.23 1.125.345 1.715.34.297 0 .594-.02.889-.061.287-.038.565-.12.825-.245h.063l1.555 2.777-.032.03a6.143 6.143 0 0 1-3.809 1.174 8.363 8.363 0 0 1-3.143-.593 8.177 8.177 0 0 1-2.666-1.722 8.122 8.122 0 0 1-1.764-2.53 7.655 7.655 0 0 1 0-6.171 8.13 8.13 0 0 1 1.764-2.53 8.173 8.173 0 0 1 2.666-1.723 8.358 8.358 0 0 1 3.143-.592 5.842 5.842 0 0 1 2.787.552 5.662 5.662 0 0 1 2.166 1.793V2.568h4.222ZM113.13 0l-11.721 30h2.159L115.29 0h-2.16ZM121.689 1.133a.522.522 0 0 0-.457.184c-.096.174-.14.371-.125.568v.013a1.06 1.06 0 0 0 .125.567.5.5 0 0 0 .464.196.474.474 0 0 0 .414-.198c.102-.174.149-.373.137-.573 0-.506-.186-.76-.558-.76v.003Zm-.582-1.08v.695c0 .085 0 .164-.006.237-.005.074-.008.132-.013.174h.019a.714.714 0 0 1 .243-.213.897.897 0 0 1 1.014.174c.172.223.254.499.233.776.021.279-.062.556-.235.78a.892.892 0 0 1-1.012.176.756.756 0 0 1-.243-.207h-.027l-.069.255h-.243V.055l.339-.002ZM124.325 1.919l-.304.011a1.052 1.052 0 0 0-.533.122.349.349 0 0 0-.149.296.285.285 0 0 0 .106.245.444.444 0 0 0 .272.08.667.667 0 0 0 .433-.142.524.524 0 0 0 .175-.431v-.181Zm-.404-1.06c.2-.015.399.042.558.162a.643.643 0 0 1 .181.512V2.9h-.246l-.063-.285h-.016a.94.94 0 0 1-.285.245.89.89 0 0 1-.408.078.734.734 0 0 1-.466-.144.55.55 0 0 1-.147-.204.52.52 0 0 1-.037-.247.52.52 0 0 1 .242-.462c.227-.126.486-.187.747-.177l.35-.012v-.123a.434.434 0 0 0-.114-.345.47.47 0 0 0-.315-.097 1 1 0 0 0-.307.047 2.23 2.23 0 0 0-.273.106l-.105-.244a1.603 1.603 0 0 1 .705-.174M126.127 2.938a1.06 1.06 0 0 1-.489-.108.769.769 0 0 1-.333-.337 1.228 1.228 0 0 1-.121-.584 1.247 1.247 0 0 1 .126-.602.777.777 0 0 1 .344-.341c.154-.074.325-.111.497-.109.101 0 .203.011.302.032.083.017.163.042.24.077l-.104.273a1.99 1.99 0 0 0-.215-.06.973.973 0 0 0-.231-.03c-.406 0-.608.252-.608.759a.9.9 0 0 0 .148.556.516.516 0 0 0 .441.193 1.207 1.207 0 0 0 .535-.117v.292a.992.992 0 0 1-.229.08c-.099.021-.201.03-.302.029M127.481.057v1.486c0 .04 0 .092-.006.157s-.007.122-.009.168h.015c.016-.02.038-.049.069-.086l.095-.115c.032-.038.059-.07.082-.095l.659-.677h.396l-.835.857.893 1.15h-.411l-.716-.937-.235.198v.738h-.335V.057h.338ZM129.995 1.126a.506.506 0 0 0-.383.152.7.7 0 0 0-.167.421h1.051a.698.698 0 0 0-.126-.414.436.436 0 0 0-.378-.159h.003Zm.001-.27a.88.88 0 0 1 .454.113.745.745 0 0 1 .295.316c.071.15.106.313.102.477v.197h-1.41a.743.743 0 0 0 .179.519.62.62 0 0 0 .479.177c.118.002.235-.01.349-.035.108-.025.213-.06.315-.103v.288a1.693 1.693 0 0 1-.315.1 1.865 1.865 0 0 1-.366.031 1.11 1.11 0 0 1-.52-.116.822.822 0 0 1-.348-.344 1.157 1.157 0 0 1-.126-.565 1.268 1.268 0 0 1 .114-.565.846.846 0 0 1 .319-.363.9.9 0 0 1 .48-.128M132.158 2.665a.551.551 0 0 0 .46-.173.86.86 0 0 0 .133-.526v-.062a1.066 1.066 0 0 0-.126-.574.502.502 0 0 0-.47-.2.463.463 0 0 0-.41.211c-.099.173-.146.37-.136.567a.977.977 0 0 0 .136.558.471.471 0 0 0 .415.198l-.002.001Zm-.052.272a.792.792 0 0 1-.616-.26 1.137 1.137 0 0 1-.232-.776 1.146 1.146 0 0 1 .233-.78.883.883 0 0 1 1.008-.178.823.823 0 0 1 .248.209h.024a2.1 2.1 0 0 1-.024-.296v-.8h.339v2.845h-.273l-.05-.27h-.016a.77.77 0 0 1-.247.217.773.773 0 0 1-.396.09M135.663 1.133a.52.52 0 0 0-.456.184c-.096.174-.14.371-.126.568v.013a1.06 1.06 0 0 0 .126.567.5.5 0 0 0 .464.196.474.474 0 0 0 .414-.198c.102-.174.15-.373.137-.573 0-.506-.186-.76-.559-.76v.003Zm-.581-1.08v.695c0 .085 0 .164-.006.237-.005.074-.008.132-.013.174h.019a.714.714 0 0 1 .243-.213.897.897 0 0 1 1.014.174c.172.223.254.499.233.776.021.279-.062.556-.235.78a.8.8 0 0 1-.616.262.745.745 0 0 1-.639-.292h-.027l-.069.254h-.243V.055l.339-.002ZM136.71.894h.362l.446 1.142c.039.102.074.198.104.288.03.084.053.17.07.258h.015a4.35 4.35 0 0 1 .073-.245l.104-.306.42-1.138h.365l-.889 2.283c-.06.168-.156.323-.281.453a.628.628 0 0 1-.47.169 1.233 1.233 0 0 1-.281-.03v-.261l.102.015c.042.005.084.007.126.007a.413.413 0 0 0 .285-.097.69.69 0 0 0 .173-.258l.108-.266-.832-2.014Z"></path><path fill-rule="evenodd" d="M138.965 4.813h-18.571v18.055h18.571V4.813Zm-13.774 2.91v3.361h1.018c1.102 0 1.158-.176 1.241-1.016h.321v2.453h-.321c-.083-.84-.139-1.003-1.241-1.003h-1.018v2.914c0 .596.168.735 1.297.735v.367h-3.974v-.367c.823 0 1.116-.041 1.116-.691V8.373c0-.65-.293-.69-1.116-.69v-.368h5.285c.396.015.793-.008 1.185-.068v2.535h-.349c-.181-1.763-.543-2.06-2.161-2.06l-1.283.001Zm12.195-.474c-.391.06-.789.083-1.185.068h-5.103a6.252 6.252 0 0 1-1.186-.068v2.534h.349c.181-1.762.544-2.06 2.161-2.06h.446v6.71c0 .639-.265.734-1.31.734v.367h4.169v-.367c-1.045 0-1.297-.098-1.297-.735V7.723h.446c1.618 0 1.981.298 2.161 2.06h.349V7.25Z" clip-rule="evenodd"></path><path d="M121.097 26.09c0 .166.047.204.36.204v.1h-1.079v-.1c.213 0 .286-.02.286-.2V24.42c0-.184-.073-.2-.286-.2v-.097h1.481c.11.004.22-.003.328-.02l.012.643h-.089c-.05-.47-.17-.51-.619-.51h-.394v.927h.321c.305 0 .325-.049.348-.282h.085v.68h-.085c-.023-.232-.043-.278-.348-.278h-.321v.809ZM122.415 26.397v-.101c.213 0 .286-.02.286-.2v-1.675c0-.184-.073-.2-.286-.2v-.098h1.005v.101c-.212 0-.286.02-.286.2v1.675c0 .184.074.2.286.2v.1l-1.005-.002ZM125.701 26.435l-1.6-1.931v1.579c0 .183.132.21.351.21v.101h-.85v-.1c.22 0 .345-.027.345-.211V24.33a.4.4 0 0 0-.345-.109v-.098h.756l1.229 1.537v-1.225c0-.184-.131-.21-.352-.21v-.102h.851v.101c-.221 0-.344.027-.344.211v2.003l-.041-.003ZM126.849 26.396h-.847v-.101c.224 0 .324-.03.394-.215l.766-1.98h.212l.823 1.995c.074.177.108.2.275.2v.1h-.982v-.1c.302 0 .329-.023.256-.2l-.244-.605h-.735l-.216.587c-.07.18.039.218.298.218v.1Zm-.035-1.03h.637l-.332-.815-.305.816ZM130.675 26.435l-1.6-1.931v1.579c0 .183.131.21.352.21v.101h-.832v-.1c.206 0 .325-.027.325-.211V24.33a.476.476 0 0 0-.394-.112v-.096h.804l1.229 1.537v-1.225c0-.184-.131-.21-.352-.21v-.102h.85v.101c-.22 0-.344.027-.344.211v2.003l-.038-.003ZM133.047 24.116h.058l.035.68-.089.003a.577.577 0 0 0-.198-.436.618.618 0 0 0-.463-.157c-.433 0-.765.36-.765.918a.963.963 0 0 0 .226.754 1.027 1.027 0 0 0 .719.358.75.75 0 0 0 .58-.245l.063.067a1.036 1.036 0 0 1-.842.38 1.18 1.18 0 0 1-.847-.334 1.139 1.139 0 0 1-.258-.378 1.1 1.1 0 0 1-.086-.445 1.12 1.12 0 0 1 .082-.457 1.195 1.195 0 0 1 .655-.65c.149-.06.308-.09.469-.088.194.016.385.06.567.131.044-.004.074-.038.094-.101ZM133.404 26.397v-.101c.213 0 .286-.02.286-.2v-1.675c0-.184-.073-.2-.286-.2v-.098h1.008v.101c-.212 0-.286.02-.286.2v1.675c0 .184.074.2.286.2v.1l-1.008-.002ZM135.364 26.396h-.788v-.101a.295.295 0 0 0 .212-.041.282.282 0 0 0 .124-.173l.765-1.98h.213l.824 1.994c.073.177.107.2.274.2v.101h-.982v-.101c.301 0 .328-.023.252-.2l-.243-.604h-.734l-.217.586c-.069.18.039.218.298.218l.002.101Zm-.034-1.03h.637l-.332-.815-.305.816ZM137.149 26.397v-.101c.212 0 .286-.02.286-.2v-1.675c0-.184-.074-.2-.286-.2v-.098h1.001v.101c-.213 0-.282.02-.282.2v1.69c0 .15.077.17.204.17h.121c.451 0 .599-.062.722-.568l.085.011-.074.674-1.777-.004ZM122.503 27.628l.011.68h-.089c-.05-.49-.17-.551-.618-.551h-.143v1.86c0 .176.07.203.36.203v.1h-1.153v-.1c.29 0 .363-.027.363-.204V27.76h-.143c-.448 0-.566.062-.618.552h-.089l.011-.68c.109.016.219.023.329.018h1.453c.109.004.218-.004.326-.021ZM122.731 29.925v-.101c.212 0 .286-.02.286-.2V27.95c0-.183-.074-.2-.286-.2v-.1h1.005v.1c-.213 0-.286.02-.286.2v1.676c0 .18.073.199.286.199v.1h-1.005ZM126.759 27.647v.1c-.213 0-.305.012-.286.192l.181 1.691c.02.173.089.192.298.192v.101h-1.001v-.101c.209 0 .282-.019.267-.192l-.189-1.775-.738 2.108h-.031l-.716-2.107-.178 1.776c-.019.18.108.195.321.195v.101h-.781v-.101c.213 0 .286-.034.302-.195l.178-1.688c.019-.18-.074-.191-.286-.191v-.101h.823l.494 1.555.534-1.555.808-.005ZM128.63 29.09h-.085c-.024-.233-.043-.279-.349-.279h-.355v.827c0 .15.078.169.205.169h.193c.452 0 .599-.061.723-.567l.085.01-.081.674h-1.844v-.1c.213 0 .286-.02.286-.2v-1.677c0-.183-.073-.2-.286-.2v-.1h1.77l.008.567h-.089c-.054-.402-.159-.45-.622-.45h-.348v.927h.355c.306 0 .325-.049.349-.282h.085v.68ZM130.492 29.455c0-.206-.136-.311-.368-.435l-.372-.188c-.278-.147-.444-.306-.444-.59a.643.643 0 0 1 .224-.464.675.675 0 0 1 .498-.168c.175.018.345.062.504.132.055 0 .078-.034.101-.097h.062l.035.638-.085.004a.592.592 0 0 0-.189-.387.622.622 0 0 0-.406-.164.372.372 0 0 0-.278.083.343.343 0 0 0-.124.255c0 .218.17.306.355.406l.322.165c.301.158.513.32.513.624a.727.727 0 0 1-.509.656.765.765 0 0 1-.295.035 1.723 1.723 0 0 1-.552-.146c-.054 0-.081.045-.105.116h-.063l-.046-.68.085-.01a.633.633 0 0 0 .212.427.672.672 0 0 0 .457.169c.255.002.468-.106.468-.38Z"></path></g><defs><clipPath id="a"><path fill="currentColor" d="M0 0h139v30H0z"></path></clipPath></defs><title>Sifted logo</title></svg>