<svg enable-background="new 0 0 215.8 228.2" viewBox="0 0 215.8 228.2" xmlns="http://www.w3.org/2000/svg" xmlns:xlink="http://www.w3.org/1999/xlink"><linearGradient id="a" gradientUnits="userSpaceOnUse" x1="23.4803" x2="176.8868" y1="113.811" y2="113.811"><stop offset="0" stop-color="#8778c7"/><stop offset="1" stop-color="#8778c7" stop-opacity=".3"/></linearGradient><path d="m164.1 96.5c-.4-1-.4-2 0-3l12.6-34.3c1-2.8-1.1-5.8-4.1-5.8h-61c-2.4 0-4.3-1.9-4.3-4.3v-8.9c0-2.4-1.9-4.3-4.3-4.3h-67.7v-14.1c0-3.3-2.6-5.9-5.9-5.9s-5.9 2.6-5.9 5.9v184c0 3.3 2.6 5.9 5.9 5.9s5.9-2.6 5.9-5.9v-86.7h40.7c2.4 0 4.3 1.9 4.3 4.3v8.9c0 2.4 1.9 4.3 4.3 4.3h87.9c3 0 5.1-3 4.1-5.8z" fill="url(#a)" opacity=".8"/><path d="m161.4 80.2-31.1 14.1v24.7c0 8 3.4 18.8 13.2 27.9 11.5 10.8 18 11.6 18 11.6s6.4-.8 18-11.6c9.8-9.2 13.2-19.9 13.2-27.9v-24.7z" fill="#1b1b33" opacity=".8"/><path d="m161.4 90.3-23.1 10.5v18.4c0 6 2.5 13.9 9.8 20.7 8.6 8 13.3 8.6 13.3 8.6s4.8-.6 13.3-8.6c7.3-6.8 9.8-14.8 9.8-20.7v-18.4z" fill="none" stroke="#fff" stroke-miterlimit="10" stroke-width="1.9512"/></svg>