<svg enable-background="new 0 0 139 103.6" viewBox="0 0 139 103.6" xmlns="http://www.w3.org/2000/svg" xmlns:xlink="http://www.w3.org/1999/xlink"><linearGradient id="a" gradientUnits="userSpaceOnUse" x1="64.75" x2="64.75" y1="76.5977" y2="19.3796"><stop offset="0" stop-color="#8778c7"/><stop offset="1" stop-color="#8778c7" stop-opacity=".3"/></linearGradient><path clip-rule="evenodd" d="m30 18.4h69.5c3.9 0 7.1 3.2 7.1 7.1v43.8c0 3.9-3.2 7.1-7.1 7.1h-69.5c-3.9 0-7.1-3.2-7.1-7.1v-43.9c0-3.9 3.2-7 7.1-7z" fill="url(#a)" fill-rule="evenodd" opacity=".8"/><path d="m44 28.4h-13.4c-.7 0-1.3-.6-1.3-1.3 0-.7.6-1.3 1.3-1.3h13.4c.7 0 1.3.6 1.3 1.3 0 .7-.6 1.3-1.3 1.3z" fill="#1b1b33"/><path d="m44 32.1h-13.4c-.7 0-1.3-.6-1.3-1.3 0-.7.6-1.3 1.3-1.3h13.4c.7 0 1.3.6 1.3 1.3 0 .8-.6 1.3-1.3 1.3z" fill="#ededed"/><path d="m37.3 35.8h-6.7c-.7 0-1.3-.6-1.3-1.3 0-.7.6-1.3 1.3-1.3h6.7c.7 0 1.3.6 1.3 1.3 0 .8-.6 1.3-1.3 1.3z" fill="#1b1b33"/><circle cx="31.3" cy="66.9" fill="#ededed" r="2"/><circle cx="37.3" cy="66.9" fill="#ededed" r="2"/><path d="m119.3 56.8c-1 0-2 .4-2.8 1.1s-1.3 1.7-1.3 2.8c0 .8.2 1.6.6 2.3l-13.4 12.6c-.6-.3-1.2-.5-2-.5-1 0-2 .4-2.8 1.1-.1.1-.1.1-.2.2l-11.3-6.9c.1-.4.2-.7.2-1.1.1-2.3-1.6-4.2-4.1-4.3-2.2 0-4 1.7-4.1 3.9 0 .8.2 1.6.6 2.3l-10.6 11c-.6-.3-1.3-.6-2-.6-1 0-2 .4-2.8 1.1s-1.3 1.7-1.3 2.8.3 2.1 1.1 2.9c.7.8 1.7 1.3 2.8 1.3h.2c1 0 2-.4 2.8-1.1s1.3-1.7 1.3-2.8c0-.8-.2-1.6-.6-2.2l10.6-10.9c.6.3 1.2.5 1.9.5h.2c1 0 2-.4 2.7-1l11.4 7c-.1.3-.1.5-.1.8-.1 2.2 1.6 4.2 3.9 4.3h.2c1 0 2-.4 2.8-1.1s1.3-1.7 1.3-2.8c0-.8-.2-1.6-.6-2.3l13.4-12.6c.5.3 1.2.5 1.8.5h.2c1 0 2-.4 2.8-1.1s1.3-1.7 1.3-2.8c0-2.4-1.7-4.3-4.1-4.4zm-51.8 29.4c-.4.3-.8.5-1.4.5-.5 0-1-.3-1.4-.7s-.5-.9-.5-1.4.3-1 .7-1.4c.4-.3.9-.5 1.4-.5v-.1l.1.1c.5 0 1 .3 1.4.7s.5.9.5 1.4c-.2.5-.4 1-.8 1.4zm14.7-16c-.5 0-1-.2-1.3-.6-.4-.4-.5-.9-.5-1.4 0-1.1.9-1.9 2-1.9v-.1l.1.1c1.1 0 1.9.9 2 2.1h-.1c-.1.9-1 1.8-2.2 1.8zm19.6 10.5c-.4.3-.8.5-1.4.5-.5 0-1-.3-1.4-.7s-.5-.9-.5-1.4.3-1 .7-1.4c.4-.3.9-.5 1.4-.5v-.1l.1.1c.5 0 1 .3 1.4.7s.5.9.5 1.4c-.2.5-.4 1-.8 1.4zm18.8-18.4c-.4.3-.8.5-1.4.5-.5 0-1-.3-1.4-.7s-.5-.9-.5-1.4.3-1 .7-1.4c.4-.3.9-.5 1.4-.5v-.1l.1.1c.5 0 1 .3 1.4.7s.5.9.5 1.4c-.1.6-.4 1.1-.8 1.4z" fill="#1b1b33" opacity=".8"/><text font-family="'Manrope-Medium'" font-size="20.7391" transform="translate(82.4492 42.4873)">$</text></svg>