<svg enable-background="new 0 0 139 103.6" viewBox="0 0 139 103.6" xmlns="http://www.w3.org/2000/svg" xmlns:xlink="http://www.w3.org/1999/xlink"><linearGradient id="a"><stop offset="0" stop-color="#8778c7"/><stop offset="1" stop-color="#8778c7" stop-opacity=".3"/></linearGradient><linearGradient id="b" gradientUnits="userSpaceOnUse" x1="110.7184" x2="31.215" xlink:href="#a" y1="100.2022" y2="1.1583"/><linearGradient id="c" gradientUnits="userSpaceOnUse" x1="104.8297" x2="115.6299" xlink:href="#a" y1="65.0676" y2="65.0676"/><path d="m125.2 85.1h-111.4c-2.2 0-4-1.8-4-4v-64.5c0-2.2 1.8-4 4-4h111.4c2.2 0 4 1.8 4 4v64.5c0 2.2-1.8 4-4 4z" fill="url(#b)" opacity=".8"/><g fill="#1b1b33"><g opacity=".8"><circle cx="94.1" cy="42.8" r="9.6"/><path d="m111.8 65.9c-.1-.6-.3-1.1-.6-1.6-3.3-6-9.8-10.1-17.1-10.1-7.4 0-13.8 4.1-17.1 10.1-.3.5-.5 1.1-.6 1.6z"/></g><path d="m29.6 60h-2.2c-.6 0-1 .7-1 1.5v22.1c0 .8.5 1.5 1 1.5h2.2c.6 0 1-.7 1-1.5v-22.1c0-.8-.4-1.5-1-1.5z" opacity=".8"/><path d="m37.2 45.1h-2.2c-.6 0-1 .7-1 1.5v37c0 .8.5 1.5 1 1.5h2.2c.6 0 1-.7 1-1.5v-37c.1-.8-.4-1.5-1-1.5z" opacity=".8"/><path d="m52.5 45.1h-2.2c-.6 0-1 .7-1 1.5v37c0 .8.5 1.5 1 1.5h2.2c.6 0 1-.7 1-1.5v-37c.1-.8-.4-1.5-1-1.5z" opacity=".8"/><path d="m60.2 45.1h-2.2c-.6 0-1 .7-1 1.5v37c0 .8.5 1.5 1 1.5h2.2c.6 0 1-.7 1-1.5v-37c0-.8-.5-1.5-1-1.5z" opacity=".8"/><path d="m45.9 39.2c0-.8-.5-1.5-1-1.5h-2.2c-.6 0-1 .7-1 1.5v44.4c0 .8.5 1.5 1 1.5h2.2c.6 0 1-.7 1-1.5z" opacity=".8"/></g><circle cx="18.9" cy="20.7" fill="#fff" r="2.6"/><circle cx="26.9" cy="20.7" fill="#fff" r="2.6"/><path d="m110.2 56.3-7 3.2v5.5c0 1.8.8 4.2 3 6.3 2.6 2.4 4 2.6 4 2.6s1.4-.2 4-2.6c2.2-2.1 3-4.5 3-6.3v-5.6z" fill="#f4f4f4"/><path d="m110.2 58.6-5.2 2.3v4.1c0 1.3.6 3.1 2.2 4.6 1.9 1.8 3 1.9 3 1.9s1.1-.1 3-1.9c1.6-1.5 2.2-3.3 2.2-4.6v-4.1z" fill="none" opacity=".8" stroke="url(#c)" stroke-miterlimit="10" stroke-width=".4484"/></svg>