<svg enable-background="new 0 0 139 103.6" viewBox="0 0 139 103.6" xmlns="http://www.w3.org/2000/svg" xmlns:xlink="http://www.w3.org/1999/xlink"><linearGradient id="a"><stop offset="0" stop-color="#8778c7" stop-opacity=".3"/><stop offset=".9108" stop-color="#8778c7"/></linearGradient><linearGradient id="b" gradientUnits="userSpaceOnUse" x1="74.2289" x2="74.2289" xlink:href="#a" y1="83.5917" y2="40.6839"/><linearGradient id="c" gradientUnits="userSpaceOnUse" x1="25.8898" x2="122.8824" xlink:href="#a" y1="31.485" y2="31.485"/><path d="m30.6 38.2v21.2" fill="none" stroke="#c2b8ed" stroke-miterlimit="10" stroke-width="3.5891"/><path d="m74 52.4-34.4-11.6v31 .6s3.5 11.3 32.9 11.3 36.2-11.3 36.2-11.3v-1-30.7z" fill="url(#b)" opacity=".8"/><path d="m74 14.8-48.1 17 16.5 5.6 31.6 10.8 32.3-10.9 16.6-5.5z" fill="url(#c)" opacity=".8"/><circle cx="30.6" cy="59.4" fill="#c2b8ed" r="4.3"/><path d="m116.2 80.7c1.2 1.2 1.2 3.1 0 4.3s-3.1 1.2-4.3 0l-5.9-5.9c-1.8.4-3.9-.1-5.3-1.5-1.7-1.7-2-4-1.4-5.9.1-.2.3-.2.4-.1 0 0 3.4 3.4 3.4 3.4.5.5 1.2.5 1.7 0l1.4-1.4c.5-.5.5-1.2 0-1.7l-3.4-3.4c-.1-.1-.1-.3.1-.4 1.9-.6 4.2-.3 5.9 1.4 1.4 1.4 1.9 3.4 1.5 5.3zm3.3-9.8-2.8-.4c-.3-1.3-.8-2.5-1.5-3.6l1.7-2.4c.2-.3.2-.8-.1-1l-2.4-2.4c-.3-.3-.7-.3-1-.1l-2.4 1.7c-1.1-.7-2.3-1.2-3.5-1.5l-.4-2.8c-.1-.4-.4-.7-.8-.7h-3.4c-.4 0-.7.3-.8.7l-.4 2.8c-1.3.3-2.5.8-3.6 1.5l-2.4-1.7c-.3-.2-.8-.2-1 .1l-2.4 2.4c-.3.3-.3.7-.1 1l1.7 2.4c-.7 1.1-1.2 2.3-1.5 3.6l-2.8.4c-.4.1-.7.4-.7.8v3.3c0 .4.3.7.7.8l2.8.4c.3 1.3.8 2.5 1.5 3.6l-1.7 2.4c-.2.3-.2.8.1 1l2.4 2.4c.3.3.7.3 1 .1l2.4-1.7c1.1.7 2.3 1.2 3.6 1.5l.4 2.8c.1.4.4.7.8.7h3.4c.4 0 .7-.3.8-.7l.4-2.8c.4-.1.9-.2 1.3-.4l-2.7-2.7c-.5.1-1 .1-1.5.1-5.1 0-9.2-4.1-9.1-9.2.1-4.9 4.1-8.9 9-9 5.1-.1 9.2 4 9.2 9.1 0 .6-.1 1.2-.2 1.8l2.6 2.6c.2-.5.3-1 .5-1.5l2.8-.4c.4-.1.7-.4.7-.8v-3.4c.1-.4-.2-.7-.6-.8z" fill="#1b1b33" opacity=".8"/></svg>