<svg viewBox="0 0 24 24" xmlns="http://www.w3.org/2000/svg"><g fill="#ccbaf2"><path d="m4.78 21.53c-.52 0-1.06-.08-1.6-.23-1.9-.62-3.02-1.96-3.11-3.67-.2-3.69.25-6.92 1.45-10.47.4-1.18 1.11-2.23 2.05-3.03 1.29-1.09 2.92-1.66 4.74-1.66h7.38c1.82 0 3.45.57 4.72 1.65.96.81 1.67 1.87 2.08 3.06 1.12 3.3 1.6 6.82 1.44 10.45-.16 2.41-1.73 3.22-3.07 3.66-1.01.29-1.96.32-2.87.09-.73-.18-1.41-.62-1.95-1.29l-2.2-2.67h-3.65l-2.2 2.67c-.55.67-1.23 1.11-1.96 1.29-.4.1-.82.15-1.23.15zm3.53-17.06c-.93 0-2.29.2-3.43 1.17-.68.58-1.18 1.32-1.47 2.16-1.11 3.3-1.53 6.29-1.34 9.72.05.88.62 1.51 1.7 1.86.61.17 1.2.19 1.77.05.3-.07.62-.29.89-.62l2.34-2.85c.29-.35.72-.55 1.17-.55h4.1c.46 0 .89.2 1.19.56l2.34 2.84c.27.33.58.54.88.62.58.14 1.17.12 1.81-.06 1.18-.39 1.59-.84 1.66-1.86.15-3.36-.3-6.63-1.34-9.69-.29-.85-.79-1.6-1.46-2.16-1.16-.98-2.51-1.19-3.45-1.19h-7.38z"/><path d="m7.32 13.94c-.55 0-1-.45-1-1v-4.61c0-.55.45-1 1-1s1 .45 1 1v4.61c0 .55-.45 1-1 1z"/><path d="m9.63 11.63h-4.61c-.55 0-1-.45-1-1s.45-1 1-1h4.61c.55 0 1 .45 1 1s-.45 1-1 1z"/><circle cx="16.72" cy="8.46" r="1.12"/><circle cx="14.55" cy="10.63" r="1.12"/><circle cx="18.88" cy="10.63" r="1.12"/><circle cx="16.72" cy="12.81" r="1.12"/></g></svg>