<svg enable-background="new 0 0 139 103.6" viewBox="0 0 139 103.6" xmlns="http://www.w3.org/2000/svg" xmlns:xlink="http://www.w3.org/1999/xlink"><linearGradient id="a" gradientUnits="userSpaceOnUse" x1="67.4257" x2="67.4257" y1="3.7153" y2="101.3928"><stop offset="0" stop-color="#8778c7"/><stop offset="1" stop-color="#8778c7" stop-opacity=".3"/></linearGradient><path d="m67.4 15.4-28.8 13.1v23c0 7.4 3.1 17.4 12.2 25.9 10.7 10 16.6 10.8 16.6 10.8s5.9-.7 16.6-10.8c9.1-8.5 12.2-18.5 12.2-25.9v-23z" fill="url(#a)" opacity=".8"/><g fill="none" stroke-miterlimit="10"><path d="m67.4 24.8-21.4 9.7v17c0 5.5 2.3 12.9 9.1 19.2 7.9 7.5 12.3 8 12.3 8s4.4-.5 12.3-8c6.7-6.3 9-13.7 9-19.2v-17z" stroke="#edebff" stroke-width="1.6839"/><path d="m111.8 52.2h-47.8" opacity=".8" stroke="#1b1b33" stroke-width="2.3908"/><path d="m107.2 61.5-4.7-4.6h-7" opacity=".8" stroke="#1b1b33" stroke-width="2.3908"/><path d="m107.2 42.9-4.7 4.6h-7" opacity=".8" stroke="#1b1b33" stroke-width="2.3908"/><path d="m95.5 41.7-5.8 5.8h-18.7" opacity=".8" stroke="#1b1b33" stroke-width="2.3908"/><path d="m95.5 62.7-5.8-5.8h-18.7" opacity=".8" stroke="#1b1b33" stroke-width="2.3908"/><circle cx="109.5" cy="40.5" r="2.8" stroke="#1b1b33" stroke-width="2.3908"/><circle cx="109.5" cy="63.9" r="2.8" stroke="#1b1b33" stroke-width="2.3908"/><circle cx="115.3" cy="52.2" r="2.8" stroke="#1b1b33" stroke-width="2.3908"/><circle cx="97.8" cy="39.4" r="2.8" stroke="#1b1b33" stroke-width="2.3908"/><circle cx="97.8" cy="65" r="2.8" stroke="#1b1b33" stroke-width="2.3908"/><path d="m90.3 65-3.5-3.5h-10" opacity=".8" stroke="#1b1b33" stroke-width="2.3908"/><path d="m90.3 39.4-3.5 3.5h-10" opacity=".8" stroke="#1b1b33" stroke-width="2.3908"/></g></svg>