<svg width="95" height="52" xmlns="http://www.w3.org/2000/svg"><g fill="none" fill-rule="evenodd"><path d="M87.234 2.19C85.592 1.088 83.07.53 79.74.53h-6.574c-3.428 0-6.016.59-7.69 1.757-1.72 1.195-2.877 3.178-3.438 5.894-.422 2.075-.627 5.24-.627 9.674 0 6.022.675 9.984 2.064 12.112 1.553 2.419 4.677 3.645 9.283 3.645h7.288c4.234 0 7.158-1.113 8.691-3.307 1.419-2.043 2.081-5.558 2.081-11.06v-3.963H74.931v6.237h9.11l-.004.158c-.097 3.28-.684 4.306-.93 4.595-.303.336-1.23.894-4.075.894h-5.009c-2.503 0-3.66-.455-4.192-.836-.724-.52-1.199-1.484-1.412-2.862-.147-.969-.227-3.233-.227-6.375 0-5.242.496-6.909.926-7.774.733-1.467 2.536-2.25 5.362-2.33 1.635-.03 4.872 0 4.905 0 1.26 0 2.309.27 3.115.804 1.048.719 1.536 1.74 1.536 3.215l-.021.317h6.764l.005-.596c.023-4.076-1.17-6.95-3.55-8.54M38.635 33.612H50.53c2.88 0 5.026-.719 6.377-2.136 1.5-1.587 2.26-4.254 2.26-7.925 0-3.948-1.201-6.788-3.572-8.439-1.587-1.109-3.769-1.582-7.294-1.582h-5.783c-5.178 0-5.842-1.786-5.842-3.343 0-2.25.863-3.211 2.884-3.211h9.06c2.535 0 3.664 1.018 3.664 3.301v.78h6.781v-.824c0-6.35-3.174-9.704-9.18-9.704H38.567c-2.754 0-4.858.68-6.25 2.02-1.606 1.562-2.421 4.101-2.421 7.549 0 3.835 1.185 6.573 3.521 8.136 1.605 1.046 3.87 1.533 7.126 1.533h6.086c1.886 0 2.997.07 3.832.456 1.313.587 1.926 1.646 1.926 3.328 0 1.477-.354 2.49-1.053 3.008-.547.397-1.485.607-2.712.607h-8.214c-2.487 0-3.596-1.018-3.596-3.302v-.824h-6.777l-.004.821c-.013 3.355.793 5.886 2.394 7.523 1.448 1.479 3.537 2.228 6.21 2.228M28.093.53H1.058v6.446h10.11v26.636h6.78V6.976h10.145V.529" fill="#50535A"/><path d="M94.228 36.512c-9.698-3.378-21.137-5.466-33.413-5.755C32.728 30.097 8.766 39.049 0 52.07c12.715-8.557 34.278-15.058 59.095-16.752 12.626-.861 24.6-.377 35.133 1.194" fill="#E30613"/></g></svg>