<svg viewBox="0 0 20 24" xmlns="http://www.w3.org/2000/svg"><g fill="#c9b8d9"><path d="m9.9998 24c-.1295 0-.259-.0261-.3802-.0784-7.6252-3.284-9.6196-4.7533-9.6196-19.5316 0-.2551.1078-.4989.2981-.6734.1903-.1749.4465-.27.7064-.2479.0429.0005 4.8133.2389 8.3279-3.1983.3687-.3606.9659-.3606 1.3345 0 3.5151 3.4377 8.2864 3.2024 8.3307 3.1983.2645-.0077.5152.0753.7046.2497.1894.174.2977.4174.2977.6716 0 14.7782-1.9944 16.2476-9.6201 19.5316-.1212.0523-.2507.0784-.3802.0784zm-8.1095-18.6959c.077 13.0448 1.8705 14.0724 8.1095 16.7641 6.239-2.6926 8.033-3.7194 8.11-16.7641-1.6732-.0883-5.1248-.5963-8.11-3.1212-2.9852 2.5245-6.4363 3.0329-8.1095 3.1212z"/><path d="m9.1519 16.1259-2.9732-3.2118c-.3498-.3777-.3203-.9609.0659-1.3035.3866-.3434.9834-.3137 1.3331.0649l1.5069 1.6271 3.5575-4.2237c.3313-.3944.9272-.4498 1.3285-.1258.4023.3245.4599.9059.1286 1.2994l-4.9474 5.8733z"/></g></svg>